<svg width="140" height="32" viewBox="0 0 140 32" fill="none" xmlns="http://www.w3.org/2000/svg">
<path d="M15.844 0C7.09015 0 0 7.09015 0 15.844C0 24.5978 7.09015 31.6879 15.844 31.6879C24.5978 31.6879 31.6879 24.5978 31.6879 15.844C31.6879 7.09015 24.5978 0 15.844 0ZM21.8976 25.3556H18.7271V19.9291C18.7271 19.2671 18.4745 19.0145 17.8125 19.0145H14.7639V21.2443C14.7639 23.8922 13.318 25.3556 10.6788 25.3556H9.21546V22.185H10.6788C11.3495 22.185 11.5934 21.9499 11.5934 21.2705V4.7558H14.7639V14.2587L19.2584 9.7642L21.4969 12.0027L17.6557 15.844H17.8038C20.2426 15.844 21.8889 17.4989 21.8889 19.9552V25.3556H21.8976Z" fill="#17A26D"/>
<path d="M43.255 23.9705L39.2221 18.4221V23.9705H35.1719V6.43677H39.2221V16.1313L43.2289 10.7483H48.2286L42.7324 17.3856L48.2808 23.9705H43.255Z" fill="#17A26D"/>
<path d="M53.1831 10.7485V23.9707H49.1328V10.7485H53.1831Z" fill="#17A26D"/>
<path d="M55.4228 13.7622C55.9367 12.7344 56.6335 11.9417 57.5219 11.393C58.4104 10.8442 59.3946 10.5655 60.4834 10.5655C61.3544 10.5655 62.1471 10.7484 62.8613 11.1143C63.5843 11.4801 64.1417 11.9679 64.5598 12.5863V6.44556H68.6101V23.988H64.5598V22.0892C64.1853 22.725 63.6365 23.2302 62.9397 23.6048C62.2342 23.988 61.4154 24.1709 60.4834 24.1709C59.3946 24.1709 58.4017 23.8922 57.5219 23.326C56.6422 22.7599 55.9367 21.9672 55.4228 20.9307C54.9088 19.8942 54.6562 18.7009 54.6562 17.3421C54.6562 15.9833 54.9088 14.79 55.4228 13.7622ZM63.7149 14.9729C63.1575 14.3893 62.4694 14.0932 61.668 14.0932C60.8667 14.0932 60.1786 14.3806 59.6211 14.9555C59.0636 15.5304 58.7762 16.323 58.7762 17.3334C58.7762 18.3438 59.0549 19.1451 59.6211 19.7374C60.1786 20.3297 60.8667 20.6259 61.668 20.6259C62.4694 20.6259 63.1575 20.3297 63.7149 19.7461C64.2724 19.1625 64.5598 18.3612 64.5598 17.3508C64.5598 16.3404 64.2811 15.5391 63.7149 14.9555V14.9729Z" fill="#17A26D"/>
<path d="M72.8028 23.5699C71.9057 23.178 71.1914 22.6379 70.6688 21.9498C70.1462 21.2617 69.8587 20.4952 69.7891 19.6416H73.7958C73.8393 20.1032 74.0571 20.4691 74.4316 20.7565C74.8149 21.044 75.2765 21.1833 75.8253 21.1833C76.3305 21.1833 76.7224 21.0875 77.0012 20.8872C77.2799 20.6868 77.4192 20.4342 77.4192 20.1207C77.4192 19.7374 77.2189 19.4587 76.8269 19.2758C76.435 19.0929 75.7904 18.8925 74.9107 18.6748C73.9613 18.457 73.1686 18.2218 72.5415 17.9779C71.9057 17.7341 71.3656 17.3421 70.904 16.8195C70.4423 16.2881 70.2159 15.5739 70.2159 14.6768C70.2159 13.919 70.4249 13.2308 70.843 12.6037C71.2611 11.9766 71.8795 11.4888 72.6896 11.123C73.4996 10.7571 74.4752 10.5742 75.5901 10.5742C77.245 10.5742 78.5603 10.9836 79.5097 11.8111C80.4678 12.6298 81.0166 13.7273 81.1559 15.0861H77.4105C77.3496 14.6245 77.1492 14.2674 76.8095 13.9974C76.4698 13.7273 76.0256 13.5967 75.4682 13.5967C74.9978 13.5967 74.632 13.6838 74.3794 13.8667C74.1268 14.0496 73.9961 14.2935 73.9961 14.6158C73.9961 14.999 74.1965 15.2778 74.5971 15.4694C74.9978 15.661 75.6249 15.8526 76.4785 16.0356C77.4541 16.2881 78.2554 16.5407 78.8739 16.7846C79.4923 17.0285 80.0323 17.4205 80.494 17.9692C80.9556 18.518 81.1995 19.2496 81.2169 20.1642C81.2169 20.9394 80.9992 21.6275 80.5637 22.2373C80.1281 22.847 79.501 23.326 78.6909 23.6745C77.8809 24.0229 76.9315 24.1971 75.8601 24.1971C74.7104 24.1971 73.6825 23.9967 72.7767 23.6048L72.8028 23.5699Z" fill="#8CBF72"/>
<path d="M88.2815 11.1316C88.9784 10.7483 89.7884 10.5654 90.7204 10.5654C91.8092 10.5654 92.8022 10.8442 93.6819 11.3929C94.5704 11.9504 95.2672 12.7343 95.7811 13.7621C96.295 14.7899 96.5476 15.9832 96.5476 17.342C96.5476 18.7008 96.2863 19.8941 95.7811 20.9306C95.2672 21.9672 94.5704 22.7598 93.6819 23.326C92.7935 23.8921 91.8092 24.1709 90.7204 24.1709C89.8058 24.1709 88.9958 23.9792 88.2903 23.6047C87.5847 23.2302 87.036 22.7337 86.644 22.1327V28.6566H82.5938V10.7483H86.644V12.6211C87.036 12.0026 87.5847 11.5061 88.2815 11.1316ZM91.5915 14.9554C91.034 14.3805 90.3372 14.0931 89.5184 14.0931C88.6996 14.0931 88.029 14.3892 87.4715 14.9728C86.914 15.5564 86.6266 16.3578 86.6266 17.3681C86.6266 18.3785 86.9053 19.1799 87.4715 19.7635C88.0377 20.3471 88.7171 20.6432 89.5184 20.6432C90.3197 20.6432 91.0079 20.3471 91.5827 19.7548C92.1489 19.1625 92.4363 18.3611 92.4363 17.3507C92.4363 16.3403 92.1576 15.5477 91.5915 14.9728V14.9554Z" fill="#8CBF72"/>
<path d="M98.3368 13.7621C98.8507 12.7343 99.5475 11.9417 100.436 11.3929C101.324 10.8442 102.309 10.5654 103.397 10.5654C104.329 10.5654 105.148 10.7571 105.854 11.1316C106.559 11.5148 107.099 12.0113 107.474 12.6211V10.7483H111.524V23.9705H107.474V22.0978C107.082 22.7162 106.533 23.2127 105.828 23.5873C105.122 23.9705 104.303 24.1534 103.371 24.1534C102.3 24.1534 101.316 23.8747 100.436 23.3085C99.5563 22.7424 98.8507 21.9497 98.3368 20.9132C97.8229 19.8767 97.5703 18.6834 97.5703 17.3246C97.5703 15.9658 97.8229 14.7725 98.3368 13.7447V13.7621ZM106.629 14.9728C106.072 14.3892 105.383 14.0931 104.582 14.0931C103.781 14.0931 103.093 14.3805 102.535 14.9554C101.978 15.5303 101.69 16.3229 101.69 17.3333C101.69 18.3437 101.969 19.145 102.535 19.7373C103.093 20.3296 103.781 20.6258 104.582 20.6258C105.383 20.6258 106.072 20.3296 106.629 19.746C107.186 19.1625 107.474 18.3611 107.474 17.3507C107.474 16.3403 107.195 15.539 106.629 14.9554V14.9728Z" fill="#8CBF72"/>
<path d="M113.531 13.7621C114.089 12.7343 114.873 11.9417 115.875 11.3929C116.876 10.8442 118.026 10.5654 119.324 10.5654C120.979 10.5654 122.372 11.0009 123.487 11.872C124.602 12.743 125.334 13.9624 125.682 15.5477H121.371C121.005 14.5373 120.299 14.0321 119.263 14.0321C118.522 14.0321 117.93 14.3196 117.486 14.8944C117.042 15.4693 116.824 16.2968 116.824 17.3681C116.824 18.4395 117.042 19.267 117.486 19.8419C117.93 20.4167 118.522 20.7042 119.263 20.7042C120.308 20.7042 121.005 20.199 121.371 19.1886H125.682C125.334 20.739 124.602 21.9585 123.479 22.8382C122.355 23.7266 120.97 24.1621 119.333 24.1621C118.035 24.1621 116.885 23.8834 115.883 23.3347C114.882 22.7859 114.098 21.9933 113.54 20.9655C112.983 19.9377 112.695 18.7357 112.695 17.3594C112.695 15.9832 112.974 14.7812 113.54 13.7534L113.531 13.7621Z" fill="#8CBF72"/>
<path d="M139.924 18.3351H130.752C130.813 19.1539 131.083 19.7811 131.544 20.2166C132.006 20.6521 132.581 20.8698 133.26 20.8698C134.271 20.8698 134.976 20.443 135.368 19.5894H139.68C139.462 20.4605 139.061 21.2444 138.486 21.9325C137.911 22.6293 137.188 23.1693 136.317 23.57C135.446 23.962 134.48 24.1623 133.4 24.1623C132.102 24.1623 130.952 23.8836 129.942 23.3348C128.931 22.7861 128.139 21.9935 127.572 20.9656C127.006 19.9378 126.719 18.7358 126.719 17.3596C126.719 15.9834 126.997 14.7814 127.564 13.7536C128.13 12.7257 128.914 11.9331 129.924 11.3844C130.935 10.8356 132.093 10.5569 133.408 10.5569C134.723 10.5569 135.83 10.8269 136.823 11.3669C137.816 11.907 138.6 12.6735 139.157 13.6664C139.714 14.6594 140.002 15.8266 140.002 17.1506C140.002 17.5338 139.976 17.9258 139.932 18.3351H139.924ZM135.847 16.0879C135.847 15.3911 135.612 14.8423 135.133 14.433C134.663 14.0236 134.07 13.8145 133.356 13.8145C132.642 13.8145 132.102 14.0149 131.64 14.4068C131.17 14.7988 130.882 15.3649 130.778 16.0879H135.847Z" fill="#8CBF72"/>
<path d="M51.1854 9.37218C52.8065 9.37218 54.1207 8.05798 54.1207 6.43682C54.1207 4.81567 52.8065 3.50146 51.1854 3.50146C49.5642 3.50146 48.25 4.81567 48.25 6.43682C48.25 8.05798 49.5642 9.37218 51.1854 9.37218Z" fill="#17A26D"/>
</svg>
