<?xml version="1.0" encoding="UTF-8"?><svg id="Layer_2" xmlns="http://www.w3.org/2000/svg" viewBox="0 0 1211.74 76.99"><defs><style>.cls-1{fill:#d93e8d;}</style></defs><g id="shapes"><path class="cls-1" d="m266.6,62.42c.37.14,1.12-.1.88-.62l-1.37-.16.49.77Z"/><path class="cls-1" d="m268.38,58.38c-.75-.52-2-1.01-3.11-.37,1.37.36.88.61,2.49,1,.25.51-.25,1.01-.74,1.01.37.13-.14.88.73,1.03.89-.87.77-1.78-.23-2.54.25-.25.62-.12.87-.12Z"/><path class="cls-1" d="m230.08,40.26l.35-.2c-.13.03-.24.1-.35.2Z"/><path class="cls-1" d="m211.15,64.85c.18-.11.22-.26.18-.38-.14.15-.26.29-.18.38Z"/><path class="cls-1" d="m206.69,64.12c.08.05.16.08.23.1-.09-.11-.17-.2-.23-.1Z"/><path class="cls-1" d="m230.08,40.26c-.3.17-.61.34-.89.53.32.3.53-.22.89-.53Z"/><path class="cls-1" d="m263.61,52.19c.11.14.27.24.47.32-.1-.12-.19-.23-.26-.36-.07.01-.13.02-.21.04Z"/><path class="cls-1" d="m243.23,30.86l.32-.04c.08-.16.15-.35.21-.57l-.53.61Z"/><path class="cls-1" d="m255.88,32.94c-.25-.17-.82.81-1.12,1.21.33-.35.62-.47.88-.44.1-.19.18-.44.24-.77Z"/><path class="cls-1" d="m267.09,48.36l.27.25c-.08-.06-.17-.18-.27-.25Z"/><path class="cls-1" d="m234.35,34.11c-.12-.12-.24-.21-.33-.25.08.11.2.19.33.25Z"/><path class="cls-1" d="m11.9,59.86c-.06-.05-.11-.07-.17-.11.07.11.12.16.17.11Z"/><path class="cls-1" d="m3.61,69.24l-.06-.18c-.21-.01-.42-.02-.63-.01l.69.19Z"/><path class="cls-1" d="m201.35,60.18s0,.02,0,.04c.21.05.13-.01,0-.04Z"/><path class="cls-1" d="m131.16,65.37c.36.43.16.83-.09,1.17-.23.33-.5.69.19,1.24-.07-.21.18-.69.27-1.18.1-.48.04-.98-.37-1.23Z"/><path class="cls-1" d="m263.66,51.89c-.05-.13-.11-.26-.14-.4.02.2.07.32.14.4Z"/><path class="cls-1" d="m131.26,67.79h0s.14.09.14.09c-.06-.04-.09-.06-.14-.09Z"/><path class="cls-1" d="m189.82,40.02c-.12.17-.17.35-.21.53.09-.08.16-.21.21-.53Z"/><path class="cls-1" d="m196.78,57.38l-.05-.43c-.02.19.01.32.05.43Z"/><path class="cls-1" d="m179.89,34.39c-.24-.18-.29-.36-.71-.35.02.07.04.12.07.17.18-.1.39-.1.64.18Z"/><path class="cls-1" d="m168.79,33.39c.07.08.15.12.23.19.1-.03.23-.07.34-.1-.19-.03-.38-.08-.57-.1Z"/><path class="cls-1" d="m30.8,50.47c.03-.35.07-.68.14-1.03-.23.77-1.04.78-.14,1.03Z"/><path class="cls-1" d="m264.21,51.99c-.29.04-.44,0-.54-.1.04.09.09.18.15.26.17-.03.32-.07.39-.16Z"/><path class="cls-1" d="m176.53,42.61c-.28-.18-.59-.32-.91-.44.26.17.6.3.91.44Z"/><path class="cls-1" d="m82.54,54.38l-.1.32c.1-.08.15-.17.1-.32Z"/><path class="cls-1" d="m172.46,41.97c-.2-.39-.43-.61-.67-.76-.04.09-.1.16-.12.29l.79.46Z"/><path class="cls-1" d="m30.94,49.43h0s0,0,0,0Z"/><path class="cls-1" d="m24.18,52.3c1.08-.28.14-1.55.17-2.44,1.34-.77.9.9,1.5,1.54.7-.54,1.15-1.95,1.77-1.93.06.24.17.33.05.63.37-.61.98-.62,1.52-.6.28,0,.54.03.83-.01.3-.06.59-.18.93-.44.02.15,0,.27-.02.38.13-.74.35-1.46.57-1.95.51.12,1.35-.42,1.1.51-.29-.17-.49.17-.74.38l.67-.15c-.26,1.43-.86.11-1.27,1.06.24,0,.52-.05.81-.08.28,0,.6-.04.89-.01.58.05,1.11.27,1.26.69-.42.52-.83.32-1.12.17-.31-.13-.5-.16-.54.56-.15-.32-.31-.68-.52-.99-.53,2.19-.36-.4-1.04,1.88.27.39.55.43.89.5.33.08.69.22.92.85.79-.16.84-.75,1.66-.89,1.23.6.72,1.55.18,2.23-.53.73-1.08,1.26.12,1.77,1.02.1,2.71-.35,2.39,1.36l-1.61.08c.53,1.84,2.45.25,2.21,2.59-.7-.16-1.02-1.31-1.09-.97-.67,1.69,1.15.62,1.52,1.62l-1.19.69c1,2.03,2.86,4.13,4.58,6.36-.42.09-1.05-.12-1.04.69,1.29,1.4,2.58,3.05,4.21,4.58.41.38.81.77,1.25,1.12.43.37.87.71,1.33,1.03l.69.48c.24.14.47.28.71.41.48.27.96.54,1.43.8.63-.25,1.23-.54,1.8-.82.34.08.58.65.15.8.77.38.82.15.77-.15-.05-.3-.17-.73.21-.93.84-.03,1.1.74.51,1.06.72-.2,1.56-.41,2.4-.74.42-.15.87-.28,1.3-.44.42-.18.85-.34,1.28-.49.86-.28,1.64-.66,2.44-.84.76-.25,1.51-.39,2.22-.37-.09.18-.2.35-.31.52,1.02-.2,1.22-1.03,1.43-1.72.22-.69.35-1.34,1.37-1.33l-.17.35c1.85-.87,3.41-2.3,4.82-3.63,1.44-1.32,2.75-2.55,4.4-3.19-.95-1.44,2.98-2.79,1.08-4.22,2.09-.99,2.12-.32,4.31-2.06.51-.49-.57-1.73-.22-2.58l.99.74-.29-1.73,1.53.47.26-.81c-.26.19-.85.15-1.09-.11.19-.68.87-1.09,1.54-1.28.67-.19,1.34-.1,1.57.11.19-.45.4-.88.63-1.29.22-.43.45-.85.7-1.24.25.44,0,.8-.04,1.28.29-1.84.98.88,1.25-.78-.29-.13-.35-.66-.47-.87.48.15.98.03,1.46-.18.48-.17.93-.53,1.31-.81l.16.85c.38-.08.74-.26,1.12-.36.19-.06.37-.14.56-.22l.59-.17c.78-.27,1.69-.4,2.57-.32-.59-.44-.4-1.9.27-2,.03.44.06.87.07,1.32.49-.73-.55-.6.38-1.43.77.3.2,1.55-.23,1.9l.91-.29c-.05.38-.29.55-.44,1.03.25-.39.5.07.75.4.26.31.49.65.99.09l-.12.37c1.55.73,2.54.93,3.91,2.01.77-.81,1.14-.18,2.18-.4.78,1.26,1.16,3.05,2.35,4.41,1.23.66.98-.29,1.87-.23-.75.7.44,2.13-.73,1.8.74.86,1.21,1.41,1.79,2.01.29.29.62.59,1.02.94.21.17.43.36.67.57.28.23.58.47.92.75.11-.55,0-.98.42-1.02.49.37.49,1.34.06,1.59l-.18-.06c1.78.97,2.67,2.98,3.84,4.89,1.14,1.88,2.62,3.62,4.53,3.52h-.2c.55.14,1.15.21,1.71.31.56.1,1.13.17,1.71.21,1.32.77-1.16.33-.37,1.37,2.02-.04,3.38.4,4.77.83.68.23,1.41.35,2.14.44.74.07,1.55-.07,2.35-.36.69.69,1.73.94,2.87.84.57-.08,1.17-.24,1.78-.44.6-.21,1.17-.56,1.75-.88,1.16-.64,2.24-1.57,3.16-2.34.93-.78,1.76-1.45,2.67-1.79l-.67-.31c0-1.09.96-.53,1.47-.92-.49-.26-1.05.31-1.04-.32.88-1.5,1.61-2.75,2.48-3.98.87-1.23,1.77-2.41,2.73-3.55,1.89-2.28,3.88-4.38,5.6-6.31,1.23-1.4-2.38-3.07.45-3.95l.63,1.34c.51-1.96,1.8-3.38,3.17-4.58,1.32-1.16,2.71-2.04,3.91-3.47-.03.37.16.71-.14.87.56.26,1.1-.07,1.53-.49.42-.42.69-1.02.54-1.39.54-.12.4.6.85.85.43.14.72-.33,1.02-.69.3-.37.59-.68.91-.28.1.13-.1.36-.19.47.29-.63,2.05-.42,1.38-1.41.67.12,1.23-.1,1.77-.29.54-.15,1.08-.35,1.57,0,.28-.61.84-.53,1.29-.4.46.11.85.15,1.04-.72-.12.89.33,1.34.9,1.45.29.05.59.09.9.03.31-.06.61-.17.84-.3-.38.44.38.74-.13,1.36.17.05.35.09.52.09.16.03.32.03.47-.01.3-.08.58-.3.73-.74.15,1.26.87,1.26,1.64,1.38.37.07.71.17.89.39.17.25.16.64-.19,1.26,2.34,1.02,4.34,3.2,5.9,5.58-1.66.65-1.51-2.69-3.14-1.64,1.81,1.78,3.86,2.66,4.55,5.4.06.77-.88-.08-1.26-.18,1.78,2.28,2.02,5.27,4.26,7.32-.15.07-.47-.11-.72-.3.3.46.41,1.29,1.09.82l-.46-.37c.3-.68,1.12-.48,1.92-.2.81.29,1.62.66,1.9.53-1.23.27-.99.9-.81,1.55.15.64.33,1.3-1.37,1.55.38.23.99.39,1.36-.03.23.55.11.92-.75.83,1.82,1.42,1.89.22,3.33,1.59-.27.3-.67.15-1.14.34,1.32.16,2.53.16,3.8,1.28-.21.16-.18.53-.64.27,1.35.69,2.74.74,4.02.67.64,0,1.27-.09,1.9-.02.64.03,1.3.09,2.03.35-.49.82-.25.99.16,1.13.41.11.96.18,1.08.92.6-.16,1.19-.33,1.75-.58-.27-.21-.52-.41-.77-.62.74-.1,1.4-.45,1.99-.78.58-.37,1.12-.67,1.79-.62-.27.3-.56.59-.86.88.88-.31,1.68-.75,2.47-1.17l-1.6.03c1.02-1.23-.78-1.72.96-1.97-.23.29,1.12-.54,2.17-.14h0c.3-.78.59-1.48,1.53-1.77.49.23.83,1.44,1.16,1.59-.21-1.37,2.26-2.31,1.83-3.86.04.41.59.97.76,1.02l-.36-1.09c.65-.21.83-.17,1.23.32,1.34-1.27-1.79-.82.21-1.91-.04.18.13.21.02.58,1.74-1.41,1.97-3.67,3.37-5.07,1.61.25-.58,1.67.85,1.75.67-1.32.97-2.88,1.26-4.36.25-1.43.53-2.78,1.23-3.86l-.35.36c-1.77-1.22,1.75-1.28,1.41-2.84,0,.35.88.89.7.71,1.07-1.36,1.07-3.3,1.94-5.79l.28.56c.92-.56,1.7-1.87,2.55-2.45-.22-.59.28-.93-.55-1.23,2.2-.09,2.92-1.13,3.89-2.29.9-1.15,2.21-2.18,3.82-1.29-.31.06-.58.68-.34.6.32-.21.65-.33.99-.5.33-.17.69-.3,1.05-.42-.29-.89-.36-.53-.97-1.16.2-.6.88-1.1,1.52-1.16-1.09.73.15,1.45.59,1.98-.09-.28.06-.6.01-.88,1.25,1.62.22-1.9,2.01-.71l-.13.48c.67-.19,1.4-.74,2.11-.46.09,1.1-.8.35-.98,1.23.48.02,1.04-.35,1.61-.61.57-.27,1.11-.3,1.4.33-.51.17-1.09-.03-1.58.19.64,1.43.78,1.19,1.39,1.56l-.06-.05c.44.37.87.71,1.27,1.09-.07-.16-.15-.32-.24-.47,1.06-1.06,1.75-.91,2.36-.6.31.16.62.35,1,.46.37.13.81.17,1.44.02-2.35.58-.76.7-1.53,1.65.18.49.45,1.15.11,1.33.57-.19.72.14.9.45.18.33.4.61,1.27.39-.22.33.55.56-.24,1.17.88.4.31-.64.69-.95,1,.01,1.38.96,1.69,1.89.34.92.66,1.92,2.02,2.36,1.6,1.27,2.94,1.06,4.31,2.6-.17.42-.55.43-.88.34-.34-.09-.63-.28-.63-.28-.14,1.17.22,1.81.95,2.59-.38-.08-.59.21-.92.62.32.69,1.52.06,1.25,1.21-.47-.05-1.2-.07-1.71-.29.59.74,1.53,1.41,2.1,2.26-.6.4-1.14-.31-1.65-.51.57.92,1.22,2.5,2.34,2.62l.23-.76c.13.38-.86.39-1.11.15-1.02-.71.07-1.36.44-1.51l.4.61c2.08-1.23-1.01-2.62-1.3-3.9l1.77.06c-.59-.33-1.17-.64-1.75-.93.31-.42,1.11-.94,1.58-.35.42-1.24-.84-.65-.31-1.79.1-.14.19-.13.28-.07l-.84-.75c.4.05,1.02-.62,1.03.06.08-1.04-.51-1.62-1.04-2.03-.52-.42-.93-.7-.56-1.31l.17.09c-.88-1-1.19-.87-1.53-.64-.34.24-.75.57-1.83.21.63-.89,1.19-1.8,1.75-2.76l-1.13.52c-.11-.24-.38-.7.06-.93-1.28-.24-.31.46-1.28.52.05-.85-.67-1.39-1.2-1.89-.56-.48-.95-.96-.44-1.79-.94.42.45,1.31-.99.95.53-.92.15-1.11-.36-1.23-.54-.1-1.21-.13-1.41-.85.89-.71,1.51.44,1.07-1.05-.81.54-1.24.18-1.62-.4-.38-.56-.77-1.28-1.3-1.37-.34.63-.91.55-1.6.27-.34-.15-.74-.3-1.15-.44-.41-.15-.85-.26-1.28-.25.12-.2-.56-.68-1.53-1.07-.48-.22-1.02-.43-1.55-.6-.53-.19-1.04-.37-1.45-.51l.07-.24c-.22.73-.72.98-1.33,1.13-.6.18-1.31.16-1.89.41-.04-.87.14-1.28.82-1.69-.4,0-.81.06-1.21.11-.23.52-.57.76-1.28,1.09l.1-1.14c-.8.21-1.55.66-2.29,1.17-.37.24-.77.44-1.19.63-.42.2-.88.33-1.42.38.17.48.84.96,1.24,1.52.41.56.54,1.16-.09,1.85-.31-.45-.83-1.27-.47-1.7-.13.12-.31.69-.71.64.07-.4.16-.8.25-1.21-.96.07-.03.91-.66,1.17-.39-.69-.74-.23-.98-.81.12-.16.71-.03.8-.44-.39.14-.86.22-1.31.27-.44.05-.87.03-1.18-.12.32.32.61.87.19,1.29-1.15,1.01-1-.41-1.98-.12.05.65-1.05.96-.23,1.81-.32.31-.77-.01-1.13-.1-.11.46-.66,1.21-1.03,1.83-.33.64-.44,1.16.32,1.2l.18-.1s-.03.08-.03.13h0s0,0,0,0c-.14.67-.42,1.22-.76,1.75-.35.51-.77.98-1.2,1.46-.86.94-1.75,1.9-2.06,3.07l-.35-.18c-.24,1.47-1.13,2.95-.77,4.2-.17.37-1.06.58-1.41.23-.17,1.07.19,1.41-1.04,2.45-.19-1.2-.7.08-.01-1.16-.89,1.08-1.51.98-1.23,2.7-.66-.88-1.56.2-1.62.84l1.08-.38c-.23.65-.59,1.13-1.01,1.57l-.94-.99c-1.35.57-1.41,1.82-1.66,2.98-.22,1.14-.66,2.2-2.25,1.81.08.55.43.46.81.36.37-.1.76-.23.94.38-.47.36-1.29.35-1.95.29-.68-.08-1.25-.26-1.38-.16-.76.15-.75.66-.76,1.3,0,.63-.06,1.28-.86,1.41.36.32,1.2,1.39.17,2.33-1.24.31-1.97-1.35-1.5-1.95.21-.13.38-.03.43.12.26-.29.56-.62-.01-.95l.07.48c-.33-.14-.79-.03-1.17-.09-.38-.05-.66-.16-.62-.57-.54.63-.12.84.49.93-.35-.09-.63-.09-.89-.07-.26,0-.49.03-.72.08-.46.14-.95.13-1.55-.06.18.25.38.8.17.81-.95-.32-1.16-.17-1.34.16-.18.3-.3.76-1.04.69-.33-.44-.15-.84-.09-1.1.05-.26,0-.35-.7-.26-.6-.69.27-1.23.61-1.53-.63.31-1.03-.04-1.26-.46-.22-.44-.28-.95-.43-1.17.2-.03.38-.03.57-.09-.34.07-.51-.08-.7-.19-.11.3-.22.61-.32.92-.16-.29-.35-.46-.1-.77-.64.28-.74,1.43-1.86,1.62-.04-.34-.39-.52-.67-.73-.26-.23-.42-.52,0-.99.36.73.56.47.8.14.24-.33.52-.7.99-.4-.26-.03-.45-.22-.54-.59.07-.13.22-.14.33-.13,0-.82-.34-.73-.84-.55-.49.18-1.11.42-1.56-.27.7-.23.92-1.04.66-1.18.32.55-.82.92-1.63.65-.08-1.24-.97-.86-1.2-1.45l.1.74c-.74.13-.94-.45-1.51-1.11.46-.3.68.52.76.15-1.54-.31.26-2.45-1.04-3.34.19-.76,1.2-.58,1.28-1.22-1.45-1.04.25-1.9-1.11-3.14-.69.82-.44.81-1.76.09l1.69,2.24-1.96-1.05c.31.76,1.22,1.35,1.26,1.86-1.04-.45-.79-.47-1.36.2.88-1.58-1.62-1.7-1.26-3.28l2.18-.92c.07-1.14-.6-1.85-1.36-2.59-.78-.75-1.64-1.5-2.12-2.85.04.33.09.65.11.98-.99.16-.98-1.39-1.83-1.93.69-.38.62-1.02.75-1.64-.22.19-.54-.25-.98-.64-.47-.38-1.06-.7-1.73-.26-.04-.55-.11-1.1-.19-1.67-.77-1-1.7-1.04-2.59-.95-.88.06-1.72.24-2.59-.41,1.02-.42.36-1.45,2.05-1.15-.34-.21-.65-.45-.91-.57-.27-.1-.49-.09-.62.15-.1-.32-.72-.33-1.34-.37-.62-.02-1.25,0-1.46-.48-.42.23-.76.95-1.53.7-.05-.18.1-.38.1-.38-.12.37-1.36.21-.88,1.23-.76-1.47-2.41-1.63-3.91-1.59-.75.03-1.49.12-2.16.06-.67-.02-1.29-.18-1.85-.65-1.53.51-3.3,1.16-4.6,1.68.01-.25-.12-.38.16-.38-2.11-.08-.36,2.5-2.6,2.52-1.52-.71.77-1.1-.05-1.26-.65-1.15-1.25-.76-1.9-.21-.66.56-1.31,1.35-2.36,1.07.08-.11.16-.22.24-.32-.73-.09-1.23.53-1.72,1.24-.47.77-.96,1.58-1.73,2.13,0,0-.07-.24-.24-.31-.22,1.84-1.5,3.73-2.35,5.24-.41-1.07.12-.94-.86-1.39-.41.68,1.37.96.59,2.26-.73,0-1.8.54-2.76-.02l.89-1.18c-.79-.17-1.09.22-1.27.69-.17.48-.22,1.05-.55,1.28l-.44-.45c-1.18,1.95.1,2.86-1.28,4.74l.53.06c.62,1.9-1.31.42-1,2.1l-1.54-.51c-.12.91-.2,3.27-.69,4.67-.58-1.31-.21-3.09-.24-4.38-.45.7-1.34,2.44-.89,3.2.04-.36-.08-.91.29-1.06.55,1.49.41,2.93-.45,4.28-1.23-.92-1.93-.13-2.67.82-.73.95-1.51,2.09-2.76,1.78-.24,1.31-1.08,2.11-1.96,2.5-.45.2-.85.33-1.33.39-.23.04-.44.11-.66.18-.23.03-.44.09-.66.18.64,1.04.53,1.1.29,1.2-.22.13-.56.15-.27,1.36-.59.24-.84.25-.91.09-.68-.5-1.24-.93-1.76-1.52-.3-.75.57-.47.55-1.03-1.06-.34-.33-1.05-.86-1.82-.02.88-.62,1.16-1.16.66.19.48.39.86.63,1.32-.98.47-1.26-.21-1.43-.8-.19-.58-.3-1.23-1.39-.99.29-.16.56-.32.83-.48-.49.06-1.24-.34-2.08-.63-.85-.29-1.79-.52-2.8-.04.02-.34.24-1,.71-.88-.85-.85-2.23-1.32-3.44-2.01-1.23-.66-2.26-1.5-2.36-2.64.21-.05.4-.13.6-.2-.43-.28-1.45-.09-1.36-.98.22-.12.61-.17.49-.4-.34-.12-1.7-.57-1.86-1.38l.92.12c-1.1-2.84-4.03-2.72-5.98-4.35.67-.58.69-1.41.46-2.27-.23-.86-.81-1.7-1.17-2.27l.2-.15c-1.4-1.44-3.02-2.3-4.77-2.82-.84-.28-1.77-.44-2.65-.62-.93-.11-1.82-.31-2.8-.39-.82-1.31-2.94-1.97-5.25-2.15-2.33-.13-4.83.29-6.98.44.7.12.31,1.32-.23,1.75-.48,0-.97.49-1.32.85-.36.35-.67.5-.98-.25l.3-.12c-1.34-1.13-2.88.23-4.03,1.06l1.07,1.84c-1.18-.1-2.17.34-3.02.99-.82.67-1.5,1.54-2.05,2.4-1.14,1.71-1.89,3.3-3.53,3.18-.04.95-.63,1.72-.62,2.64l-.9-.69c-.74.79-1.27,1.38-1.78,2.05-.49.65-1.01,1.51-1.48,2.38l-.42-.81c-.7.88,1.73,3.16,1.01,4.16l-1.52-.83c-.34.41-.76.76-1.22,1.06-.45.32-.91.59-1.36.88-.44.3-.85.61-1.2.99-.34.4-.62.85-.81,1.46-.12-.22-.36-.65-.14-.9-.2.13-.52.27-.86.44-.35.15-.72.29-1.02.49-.59.39-.94.87-.27,1.84-.72-1.3-1.78.73-2.66,1.63l-.15-1.12c-.19.83-.31,1.28-.51,1.66-.2.35-.49.68-1.11.89-.32-.12-.33-.87.07-.61-.5-.26-.65.02-.87.31-.2.26-.47.49-1.05.17.17-.23.33-.46.48-.69-.93-.11-.86.21-1.58.94-.18.08-.4.08-.61.02-.21-.09-.41-.25-.57-.44-.33-.39-.5-.88-.34-1.38-.33.5-1.25,1.03-1.62.43.14-.36.44-.45.58-.5-.48-.7-1.07-.81-1.68-.97-.59-.16-1.14-.42-1.08-1.23.27-.25.37-.42.4-.56.76,1.06,1.49,1.68,1.37,1.7.33-.4.35-.78.5-1.12.13-.35.41-.64,1.09-.98-.46.12-1.21.25-1.9.12-.7-.1-1.31-.48-1.38-1.06.06-.1.12-.19.23-.3l.15.03c-.04-.25-.23-.39-.48-.49-.02-.38-.01-.63-.15-.94.7-.49-.15-1.36-.34-1.96-1.02.48-1.17-.34-1.73.72.04-.12.17.06.37.43.07.07.13.16.21.19-.03,0-.07,0-.11,0,.19.35.43.81.71,1.32-.72-.15-1.38-.43-1.09-1.32-.79,0-1.62-.07-2.02-.13,1.11-1.43,1.31-3.33,2.13-3.91-1.26-1.66-2.15-4.66-4.71-5.07-.52-.45.24-.92.41-1.3.37.25.52.67.89.73-.52-.48-1-1.35-1.61-2.03-.58-.68-1.29-1.15-1.97-.84-.25-.87.15-.9.44-.9.27,0,.45-.02-.46-.91l.58-.03c-.39-1.36-1.32-2.31-2.42-2.85-1.11-.52-2.34-.67-3.49-.62-.28.01-.56.02-.85.03-.27.03-.55.05-.83.08-.54.03-1.08.06-1.62.06-1.08-.01-2.15-.21-3.5-.83.37.15.55.22.64.47-1.46-.23-2.92-.06-4.27.33-.68.21-1.35.43-2.02.69l-1.93.9c-2.54,1.3-4.8,2.78-7.62,3.66-1.53.65-1.01,1.54-1.2,2.68l-1.09-.64c-.09.7-.1,1.44-.12,2.14-.4,1.14-1.5,1.43-2.68,1.92-1.1.52-2.27,1.29-2.09,3.09l.9.05c-.69.83-.91,3.16-1.73,2.66.09.15.67.61.15.86l-.61-.17c.07.95.15,1.87.36,2.77-.43.91-1.03.74-1.62.68-.59-.06-1.16,0-1.39,1.62.03.61.51,1.49.99,2.1.48.62.99.98,1.2.77.03-.44.39-1.13,1.03-1.15l.33.93c.93.04,1.87.2,2.74.07.87-.13,1.68-.5,2.32-1.3-.41-.39-.69-.82-1.04-1.28.31-.1.62-.19.94-.27l-.05.99c.92-.48.18-.87-.26-1.37.5-.02.86-.12,1.09-.3-.49-.48-1.04-1.02-1.45-1.58.74.07,1.23.89,1.85.27-.62-.78-1.73.06-1.95-1.04,1-.33,1.55.1,1.16-.82.48.09.71.34.8.67-.29-.77.39-1.57-.3-2.31.63-.04.78-.56,1.06-.92.27-.37.56-.62,1.28-.1-.12-.19-.27-.62-.32-1.07-.04-.44,0-.9.15-1.17.5,1.09.86.66,1.29.2.48-.44,1.02-.94,1.74-.05-.46-.95-.04-1.56.45-2.19.55-.58,1.2-1.15,1.5-1.98.02.17.07.5-.09.5.76-.32,1.27.02,1.87.05-.78-1.39.16-2.31.35-3.54.82.45.87.94.86,1.44-.01.5-.06,1.06.41,1.62-.67-1.13.94-1.85.19-2.68,1.08.52.79.12,1.64,1.19-.6-1.87.51-.55.7-1.9,1.36.58.82,1.67,1.78.77.34.21.31.56.2.85-.11.29-.3.52-.3.52Zm17.71,15.2s-.02.01-.02.01c-.2-.28-.37-.51-.48-.66.1.14.25.32.5.65Zm2.12,2.69c-.27-.33-.6-.74-.96-1.17.23-.33.63-.48.82-.21-.32.02,0,.78.14,1.38Zm3.27-9.13c.3.29.16.48-.02.63-.1-.15-.22-.32-.41-.55-.04,0-.1.01-.14.01.21-.05.41-.1.58-.09Z"/><path class="cls-1" d="m45.63,61.01s-.1-.06-.14-.13c-.06.12-.11.23-.13.33.13,0,.26,0,.38,0-.04-.07-.07-.13-.11-.19Z"/><path class="cls-1" d="m230.49,40.03l-.06.04c.07-.02.13-.03.21-.01-.07,0-.1-.02-.15-.03Z"/><polygon class="cls-1" points="81.16 56.94 80.93 56.77 80.99 57.1 81.16 56.94"/><path class="cls-1" d="m245.19,35.83c.03.1.08.2.19.28,0-.07-.09-.17-.19-.28Z"/><path class="cls-1" d="m251.03,36.96l.66.67c-.26-.34-.48-.54-.66-.67Z"/><path class="cls-1" d="m254.94,39.43c.15-.14.25-.25.33-.36h0s-.33.36-.33.36Z"/><path class="cls-1" d="m190.28,61.19c-.04-.07-.09-.13-.15-.18-.44-.37-.19-.09.15.18Z"/><path class="cls-1" d="m215.59,67.43c-.13.33-.3.63-.51.89.49-.15.84-.33.51-.89Z"/><path class="cls-1" d="m176.62,42.66s0,0,0-.02c-.04,0-.07-.02-.1-.04l.09.05Z"/><path class="cls-1" d="m213.91,68.89c.55,0,.9-.26,1.17-.57-.4.12-.86.25-1.17.57Z"/><path class="cls-1" d="m264.62,56.43v.24c.08-.02.14-.02.19-.01l-.19-.23Z"/><path class="cls-1" d="m264.8,56.66l.19.23c-.03-.12-.06-.22-.19-.23Z"/><path class="cls-1" d="m265.38,57.39l-.4-.5c.04.19.05.43.4.5Z"/><path class="cls-1" d="m263.32,50.09l-.41.08c.09,0,.23-.02.41-.08Z"/><path class="cls-1" d="m262.47,48.38c.11.45-.34,1.37.12,1.85l.32-.06c-.66-.04.38-1.67-.44-1.79Z"/><path class="cls-1" d="m261.7,38.49c.38.53.74,1.07,1.08,1.62.12-.53.23-1.28.91-.66-.74-2.73-.36,1-1.99-.96Z"/><path class="cls-1" d="m257.31,34.36c1,.38.32-.55.48-.73-.8,0-.98.02-.48.73Z"/><path class="cls-1" d="m223.56,50.78l-.89-.51c-.17.73.36.17.89.51Z"/><polygon class="cls-1" points="224.56 60.01 225.52 59.72 224.94 58.91 224.56 60.01"/><polygon class="cls-1" points="216.19 58.88 216.27 58.59 215.84 59.57 216.19 58.88"/><path class="cls-1" d="m170.66,32.18l.34,1.24c.55-.24.62-1.67-.34-1.24Z"/><path class="cls-1" d="m145.73,50.31c-.7-.08-1.51.42-1.25,1.18.42-.52,1.2-.81,1.25-1.18Z"/><path class="cls-1" d="m79.06,44.44c.09-.26.16-.52.26-.77-.28.37-.52.75-.77,1.12l.51-.35Z"/><path class="cls-1" d="m762.95,16.47c-.2-.43-.98-.56-1.2.33l.96,1.12.23-1.45Z"/><path class="cls-1" d="m758.2,20.98c.12,1.22.53,2.83,1.94,2.78-.64-1.52-.05-1.52-.92-3.2.26-.87,1.05-1.24,1.44-.9-.18-.43.86-1.16.29-1.95-1.42.66-2.05,1.96-1.98,3.72-.41.17-.58-.27-.76-.45Z"/><path class="cls-1" d="m695.82,11.49c.16.13.31.27.46.4-.11-.15-.26-.29-.46-.4Z"/><path class="cls-1" d="m654.72,37.49c.28-.17.34-.35.29-.46-.22.21-.41.39-.29.46Z"/><path class="cls-1" d="m647.72,36.95c.13.07.25.13.37.17-.13-.13-.26-.25-.37-.17Z"/><path class="cls-1" d="m695.82,11.49l-1.25-.98c-.26.36.6.6,1.25.98Z"/><path class="cls-1" d="m754.83,33.14c.12-.29.17-.58.16-.86-.09.25-.19.48-.3.71.05.05.1.1.15.16Z"/><path class="cls-1" d="m715.23,26.42l.28.33c.2,0,.41-.03.64-.08l-.92-.24Z"/><path class="cls-1" d="m727.98,38.04c-.29-.23-1.02.64-1.42.97.44-.27.81-.31,1.14-.2.12-.18.21-.42.28-.76Z"/><path class="cls-1" d="m748.73,33.9l.17-.5c-.04.14-.13.34-.17.5Z"/><path class="cls-1" d="m706.03,16.51c.08-.15.12-.31.12-.42-.09.11-.12.26-.12.42Z"/><path class="cls-1" d="m308.16,34.89c0-.08-.03-.13-.03-.2-.07.12-.08.21.03.2Z"/><path class="cls-1" d="m289.03,39.44l.15-.26c-.14-.16-.28-.32-.45-.45l.3.71Z"/><path class="cls-1" d="m638.17,28s.01.04.02.06c.32.22.18.07-.02-.06Z"/><path class="cls-1" d="m511.72,25.5c2.03-.29-1.51,2.79,1.3,2.04-.47-.19.87-2.88-1.3-2.04Z"/><path class="cls-1" d="m754.44,33.46c-.13.22-.27.44-.42.65.23-.27.36-.47.42-.65Z"/><path class="cls-1" d="m513.02,27.54h0s.28-.08.28-.08c-.12.03-.19.05-.29.08Z"/><path class="cls-1" d="m603.97,5.69c.12.18.32.31.53.42-.03-.11-.15-.24-.53-.42Z"/><path class="cls-1" d="m631.34,21.02l-.26-.72c.08.31.16.53.26.72Z"/><path class="cls-1" d="m589.16,13.72c-.38.19-.6.16-.96.63.08.01.14.01.22,0,.07-.25.25-.48.73-.63Z"/><path class="cls-1" d="m577.87,25.75c.12-.02.24-.07.36-.11.08-.14.17-.3.25-.45l-.61.55Z"/><path class="cls-1" d="m341.98,57.37c-.28-.51-.33-.98-.33-1.39-.08.43-.83.26-1.15.21-.16-.02-.22,0-.03.18.19.18.63.51,1.51.99Z"/><path class="cls-1" d="m754.3,32.79c.18.24.22.43.13.67.09-.16.17-.32.25-.48-.11-.13-.24-.23-.38-.19Z"/><path class="cls-1" d="m594.06,21.14c-.59.38-1.16.8-1.74,1.22.53-.31,1.14-.78,1.74-1.22Z"/><path class="cls-1" d="m432.1,35.11l-.21.51c.14-.15.23-.32.21-.51Z"/><path class="cls-1" d="m587.95,27.18c-.56.06-1.01.25-1.41.51,0,.13,0,.26.06.39l1.35-.9Z"/><path class="cls-1" d="m341.65,55.97s0,.01,0,.01c0,0,0,0,0-.01Z"/><path class="cls-1" d="m329.79,43.5c1.03,1.36,1.65-.22,2.57-.41,1.62,1.68-.35,1.47-.61,2.44.97.92,2.75,1.61,3.29,2.88-.17.2-.13.49-.55.33.96.64,1.65,2.06,2.73,3.54.55.74,1.13,1.44,1.93,2.08.77.59,1.58.99,2.38,1.09.1.23.12.39.11.52.01-.87.43-1.52.8-1.91,1.05.72,2.35.29,2.39,1.35-.68-.32-.9,0-1.38.09.47.08.93.16,1.4.18.32.87-.15.82-.78.64-.62-.19-1.33-.56-1.59-.12,1.36.52,2.95.73,4.43.68,1.48-.04,2.83-.3,3.95-.39.43.6-.94,1.07-2.03,1.15-.54.07-.97.05-1.09.16-.12.09.06.3.9.62-1.32-.18-2.5-.59-3.55-1.12.47.72.65,1.01.58,1.12-.07.11-.36.03-.64-.08-.54-.2-1.22-.41-.24,1.11,2.57.93,4.42.71,6.1.24.83-.25,1.64-.56,2.55-1,.91-.44,1.98-1.07,3.04-1.85.2-.67-.08-.81-.33-.96-.26-.15-.49-.31-.37-.93.88-1.33,1.43-2.01,2.03-2.38.58-.36,1.17-.43,1.72-.49,1.11-.11,2.08-.14,2.47-2.08-.14-1.28-1.26-2.63,1.01-4.02l.67,1.63c2.16-2.46-.56-2.84,2.38-4.87.09.85-1.21,2.32-.75,2.05,2.33-.98.3-1.77,1.36-3.1l1.28.57c2.08-2.91,3.4-6.45,5.75-8.44.09.44-.03,1.05.74,1,.6-.64,1.29-1.1,2.01-1.35.72-.25,1.42-.27,2.2-.13,1.47.32,2.15,1.19,2.95,2.49.54-.02,1.12.03,1.72.13.2.28-.03.81-.42.68.54,1.41.63-.42,1.44-.12.61.67.15,1.37-.47,1.1,2.45,1.61,6.31,6.43,8.04,10.19-.27-.12-.52-.24-.77-.37.83,1.36,1.94,1.62,2.93,1.81,1.02.2,1.87.37,2.82,1.64l-.6-.15c.35.28.71.55,1.11.78.38.25.79.47,1.21.68.83.43,1.74.69,2.63.98,1.83.43,3.71.62,5.48.46.89-.02,1.72-.21,2.57-.3.8-.19,1.62-.3,2.37-.5,1.52-.35,2.94-.7,4.29-.94.01-.5.41-.89.96-1.27.53-.4,1.26-.75,1.91-1.17,1.34-.81,2.47-1.79,1.85-2.8,1.73-.76,2.48-.96,3.31-1.33.43-.18.87-.42,1.46-.85.6-.41,1.33-1.04,2.3-2,.85-1-.07-2.43.61-3.83l1.03.67.12-2.43,1.82-.03.54-1.29c-.38.4-1.13.62-1.37.34.4-1.04,1.35-1.97,2.26-2.53.91-.58,1.77-.76,2.02-.58.74-1.38,1.52-2.69,2.42-3.87.24.46-.2,1.04-.39,1.65.89-2.42,1.12.67,1.95-1.42-.38-.07-.31-.68-.42-.92,1.27,0,3.05-.99,4.53-1.68l-.04.91c1.33-.27,2.7-.63,4.25-.69,1.54-.07,3.25.08,4.94.62-.54-.4-.66-.89-.51-1.3.16-.42.61-.71,1.18-.59v1.37c.96-.54-.94-.83.8-1.3,1.33.67.35,1.73-.51,1.84l1.74.21c-.06.39-.51.43-.8.85.47-.27,1,.38,1.57.91.57.59,1.18,1.09,1.97.75l-.11.39c3.22,1.96,4.92,2.75,7.43,4.83.4-.4.79-.34,1.27-.18.48.18,1.04.47,1.74.49,1.67,2.02,3.22,4.71,5.85,6.82,2.17,1.08,1.14-.29,2.38-.14-.55.91,2.25,2.91.39,2.42,1.69,1.19,2.87,1.9,4.2,2.58,1.37.65,2.9,1.34,5.6,2-.39-.62-.91-1.04-.46-1.23.48.11.93.42,1.25.76.32.32.5.66.34.87h-.29c.25.04.5.07.75.11.25.04.48.09.81.17.64.15,1.35.27,2.03.44,1.41.36,2.86.74,4.31,1.11l1.86-1.5c.66-.5,1.31-1,1.97-1.5l.5-.38.33-.19.64-.38c.43-.25.83-.51,1.24-.77,1.6-1.05,2.94-2.18,3.53-3.68l-.11.24c.85-1.24,1.71-2.49,2.58-3.72,1.65-1.18-.42,1.37,1.13.88,2.51-4.38,5.88-4.6,8.22-7.87,2.11.29,4.16-1.37,6.25-3.03,1.04-.82,2.1-1.68,3.09-2.22.53-.33.93-.43,1.35-.54.4-.11.93-.09,1.35-.01l-.41-.6c.56-.95,1.1.06,1.71.04-.23-.53-1.05-.34-.66-.88,3.39-1.5,7.73-1.34,10.85.1,1.55.73,2.7,1.76,3.38,2.79.71,1.12,1.37,2.68,2.12,4.62.58,1.44,1.63,1.54,2.55,1.78.46.12.88.28,1.24.74.34.44.61,1.16.82,2.45-.6-.2-1.21-.4-1.82-.63,1.24,1.56,2.5,3.42,4.32,5.22,1.78,1.81,4.32,3.37,6.85,4.01,2.51.72,5.32.72,7.77-.02,2.46-.73,4.46-2.06,5.92-3.58-.23.54-.02.87-.72,1.36,1.04-.12,2.48-1.16,3.34-2.28.9-1.11,1.33-2.23,1.05-2.51.87-.84.71.27,1.52-.03.76-.45,1.18-1.45,1.52-2.34.34-.89.63-1.65,1.26-1.73.21-.03,0,.54-.1.82.3-1.23,2.55-3.53,1.18-3.47,1.81-1.71,2.28-4.08,3.97-5.15-.1-.86.65-1.55,1.3-2.17.65-.61,1.18-1.17.68-1.9.61.68,1.55.19,2.42-.59.86-.79,1.69-1.89,1.98-2.66-.02.71,1.3-.3,1.34.64,1.2-.96,2.21-1.97,1.49-2.61,1.78.17,2.72-.83,3.78-1.65.51-.42,1.03-.77,1.56-.91.54-.11,1.09,0,1.65.56,4.02-2.13,8.52-2.91,12.44-1.96-.19.42-.53.53-.95.54-.43.04-.92-.11-1.44-.17-1.02-.16-2.04-.16-2.04.78,1.79-.2,3.28-.41,4.77-.29,1.45.14,2.95.64,4.27,2,.29.42.05.47-.3.43-.36-.02-.84-.12-1.05-.09,1.64.76,2.89,2.14,4.01,3.63,1.13,1.5,2.16,3.14,3.59,4.6-.15.08-.52-.21-.85-.47.45.63.69,1.7,1.35,1.21l-.58-.55c.39-1.71,3.74,1.5,4.36,1.33-1.36,0-.99.94-.71,1.86.27.91.47,1.8-1.4,1.59.42.4,1.12.8,1.52.4.33.81.22,1.24-.8.8,1.07,1.28,1.67,1.49,2.16,1.73.5.23.93.45,1.84,1.57-.31.25-.81-.1-1.36-.06,1.57.69,3.03,1.27,4.62,3.16-.27.08-.26.51-.81,0,1.63,1.42,3.45,2.13,5.27,2.72,1.85.58,3.66,1.06,5.91,1.91-.87.69-.52.91.11,1.17.63.2,1.5.39,1.59,1.15.98-.11,1.96-.19,2.89-.46-.4-.21-.78-.4-1.15-.66,1.2-.02,2.31-.41,3.28-.84.99-.42,1.88-.87,2.9-1.03-.46.4-.94.83-1.46,1.17,1.41-.53,2.79-1.23,3.98-2.14-.81.31-1.64.52-2.46.69.89-.86.59-1.25.47-1.54-.12-.3-.11-.47,1.17-1.04-.19.22.24-.07.88-.44.64-.38,1.45-.88,2.15-.98h0c.41-1.1.67-2.19,1.83-3.22.62-.06,1.18,1.21,1.59,1.17-.2-.79.4-1.88.93-3.01.53-1.13,1.01-2.29.69-3.14.1.51.78.88.99.84l-.54-1.19c.7-.68.9-.73,1.4-.32,1.38-2.4-2.08-.06.08-2.62-.04.26.15.22.06.77,1.8-2.72,2.19-5.87,4.25-7.9,1.67.2-1.04,2.21.54,2.13.92-1.71,1.76-3.47,2.95-5.01.61-.73,1.28-1.46,2.07-1.98.37-.3.82-.47,1.24-.68.44-.17.84-.42,1.31-.46-.24,0-.47.02-.7.07-.16-1.14.69-1.05,1.63-.9.47.05.98.22,1.47.29.5.08.96-.03,1.42-.27-.46.15-.5,1.23-.41.97.6.03,1.21.09,1.84.02.63-.04,1.31,0,2.04-.06.73-.02,1.52.04,2.4.04.86.13,1.81.17,2.82.43l-.66.31c1.26,1.04,3.66,1.89,4.97,3.06.72-.22,1.51.39,1.43-.6,1.42,2.77,3.56,3.94,5.76,5.27,2.19,1.3,4.24,2.77,4.85,5.49-.39-.46-1.28-.77-.98-.42l3.16,2.93c.48-.86.06-.79.02-1.94.77.05,1.87.69,2.57,1.48-1.73-1.04-1.11.99-.94,1.96.12-.29.54-.29.71-.53.29,2.77,1.62-.96,2.88,2.02l-.46.22c.98.66,2.16.97,2.95,1.91-.37,1.13-1.22-.49-1.9.08.66.59,1.63.84,2.49,1.14.88.29,1.62.66,1.87,1.58-.76-.25-1.55-.97-2.31-1.25.47,2.08.81,2.03,1.72,3l-.08-.1c.67.79,1.35,1.59,2.11,2.34l-.45-.74c.88-.22,1.56-.21,2.15-.04.59.16,1.12.42,1.64.75.26.16.53.32.8.49.29.14.59.28.91.4.64.23,1.35.4,2.22.24-.84.14-1.31.2-1.56.28-.25.09-.28.2-.22.33.11.27.57.64.21,1.13.6.62,1.64,1.45,1.19,1.63.89-.14,1.44.21,2.11.56.33.17.69.34,1.13.41.44.05.96-.02,1.56-.26.02.4,1.63.35,1.15,1.25,2.13-.13-.42-.69-.14-1.21.4-.08.82-.18,1.24-.18.21,0,.42,0,.63.01.22.01.5.04.76.08,1.07.1,2.28.19,3.61.34l.5.05c.12-.09.24-.19.37-.29.24-.21.49-.41.74-.62.5-.44,1-.9,1.49-1.42.53-.58.74-.88,1.02-1.34.27-.43.48-.92.64-1.45,1.7-3.15,1.06-4.47,2.44-7.38,1.14-.49.61,1.56.61,1.56,1.51-1.05,2.21-2.19,2.77-3.8.09.47.52.35,1.17.18.67-1.16-.68-1.52.74-2.67.21.49.58,1.19.59,1.97.57-1.52.78-3.23,1.29-4.79.81-.03.39,1.37.46,2.09.72-1.72,1.86-4.44,1.17-5.44l-.89.83c.27-.6.97.15.91.67-.02,1.79-1.45,1.77-1.82,1.65l.36-1.12c-2.54-.13-2.01,4.12-3.45,5.99l-.85-1.71-.17,2.72c-.65.16-1.59-.1-1.16-1.16-1.6.85-.34,1.52-1.9,2.11-.21.04-.23-.06-.2-.22l-.55,1.56c-.09-.46-1.09-.5-.32-1.13-2.43,1.65-1.84,4.36-3.49,4.38l.07-.25c-2.13,3.33.71,1.08-.2,4.27-.59-.09-1.21-.16-1.77-.29-.56-.13-1.07-.33-1.53-.57.18.4.35.82.5,1.25-.27.23-.79.64-.92.06-.4.49-.36.58-.17.71.17.12.44.24.16.64-.58-.26-1.13-.35-1.69-.37-.55-.04-1.13-.08-1.71-.1-.57-.01-1.09-.12-1.46-.34-.37-.21-.6-.52-.6-1.02-.87.78,1.65,1.05-.5,1.29-.07-1.06-.62-1.13-1.38-1.12-.38,0-.82.04-1.24-.04-.41-.1-.82-.3-1.13-.69.92-.79,2.14.34.96-1.2-.8.66-1.56.26-2.19-.42-.31-.33-.63-.68-.94-1.01-.3-.34-.6-.61-.95-.73-.85,1.23-2.97-1.2-5.14-2.44.22-.14-.53-1.05-1.47-2.2-.93-1.15-2.02-2.58-2.63-3.59l.22-.12c-1.37.68-2.81-1.29-4.19-2.42.71-.52,1.18-.52,2.1-.07l-1.09-1.23c-.61.01-1.13-.22-1.96-.93l1.11-.4c-.75-.82-1.68-1.45-2.68-2.25-.5-.4-1-.83-1.46-1.33-.48-.48-.93-1.03-1.33-1.7-.82.64-.42,3.63-3.02,2,.3-.47.87-1.24,1.62-.85-.24-.14-1-.31-1.22-.84l1.54.17c-.7-1.21-1.05.08-1.76-.7.55-.57-.2-.96.33-1.32.26.13.47.88.99.94-.77-.96-1.62-2.25-1.62-3.04-.21.42-.67.81-1.43.33-1.88-1.37-.05-1.23-.91-2.4-.78.1-1.73-1.21-2.41-.25-.56-.39-.37-.93-.43-1.33-.68-.08-1.9-.85-2.97-1.22-1.06-.4-1.84-.55-1.5.33l.24.21c-.06,0-.12-.03-.2-.04h0s0,0,0,0c-.99-.21-1.98-.44-2.9-.85-.95-.34-1.88-.77-2.85-1.16-.98-.33-1.96-.78-3-.94-.52-.1-1.03-.19-1.55-.24-.52,0-1.05.02-1.56.09v-.4c-.31.05-.63.1-.95.15-.32.07-.64.15-.97.22-.65.17-1.31.22-1.91.48-.61.22-1.19.45-1.69.71-.5.27-.9.65-1.21,1-.63.26-1.85.04-1.79-.5-.78.61-1.14,1.03-1.61,1.46-.49.41-1.11.79-2.34,1.48.47-.91.27-.91.17-.9-.09.01-.06.03,1.04-.77-1.12.65-1.86,1.02-2.49,1.55-.61.53-1.12,1.24-1.51,2.61-.24-1.37-2.19.75-2.52,1.91.5-.36,1.04-.69,1.55-1.02-.63,1.15-1.28,2.05-1.92,2.98l-.84-1.2c-1.98,1.77-2.32,4.05-2.66,6.01-.34,1.96-.75,3.74-2.71,4.51.14.71.56.29,1-.15.44-.45.91-.91,1.15-.2-.54.87-1.5,1.5-2.34,1.94-.85.43-1.57.68-1.73.89-.97.77-.91,1.41-.89,2.18.03.73,0,1.59-1.1,2.14.49.19,1.7.98.17,2.53-.9.43-1.65.22-2.02-.21-.38-.43-.39-.96-.04-1.37.32-.21.56-.15.62,0,.38-.43.81-.94.01-1.05l.08.51c-.22.01-.51.06-.81.12-.29.08-.61.13-.89.16-.55.09-.99-.04-.87-.46-.91.74-.29.89.65.88-.54-.04-.96.03-1.39.05-.21.02-.41.05-.61.08-.2.01-.39.03-.58.05-.38.07-.77.08-1.19.05-.42.01-.86-.14-1.34-.3.27.29.52.89.18.84-.76-.23-1.21-.43-1.54-.41-.32-.05-.5.04-.66.16-.32.22-.57.65-1.72.24-.91-1.25,1.16-1.3-1.16-1.88-.94-1.18.45-1.21,1.06-1.28-1.06-.12-1.78-.79-2.24-1.56-.47-.75-.7-1.57-1.05-2.02.34.17.69.3,1.02.44-.61-.25-.98-.62-1.33-1.01l-.26,1.11c-.33-.59-.71-.98-.4-1.24-.91-.11-.81,1.47-2.39.95-.13-.5-.65-.99-1.07-1.48-.39-.51-.68-1-.23-1.49.65,1.31.87,1.06,1.11.72.25-.35.5-.74,1.3.1-.4-.25-.72-.71-.96-1.34.06-.16.27-.07.43.03-.27-1.39-.69-1.41-1.31-1.48-.6-.05-1.33-.02-2.11-1.39.82,0,.8-1.31.41-1.69.63,1.12-.71,1.13-1.79.36-.57-2.1-1.51-1.79-2.03-2.78l.44,1.24c-.83,0-1.29-.98-2.29-2.13.4-.41,1.05.96.97.37-.97-.38-1.21-1.34-1.51-2.42-.31-1.07-.69-2.3-1.84-2.98-.42-1.2.94-.97.45-1.99-1.37-.78-1.82-1.47-2.3-2.25-.51-.73-1.05-1.56-2.68-2.14.15.67.27.97.07,1.05-.2.09-.73-.1-1.93-.21,1.62.62,3.16,1.46,4.6,2.45-.56-.2-1.13-.37-1.71-.52-.56-.16-1.14-.29-1.71-.38,1.25.81,2.88,1.46,3.44,2.19-1.66-.45-1.35-.49-1.38.55-.24-1.19-1.19-1.68-2.17-2.03-1-.37-2.03-.6-2.84-1.52l1.09-2.1c-1.53-1.34-3.34-1.57-5.16-1.64-1.85-.01-3.72.16-6.02-.13.49.11.99.3,1.47.44-.64.89-2.81.07-4.23.62.06-.81-.89-1-1.59-1.38.16.52-3.38.54-3.35,2.23-.73-.18-1.46-.31-2.22-.43-1.82.37-2.59,1.33-3.26,2.27-.67.96-1.24,1.9-2.75,2.64.46-1.25-1.22-.95.55-2.65-1.05.57-2.05,1-1.76,1.48-.87-.05-2.05,2.63-3.28,2.7-.17.57.24,1.3-.75,2.05-.21-.03-.25-.3-.25-.3.23.29-1.08,1.69.3,1.62-2.07.19-3.75,1.95-5.15,3.75-1.43,1.8-2.64,3.63-4.35,4.17-.58,1.02-1.22,2.15-1.85,3.25-.31.54-.62,1.08-.92,1.59-.29.48-.56.94-.85,1.35-.12-.24-.32-.24-.03-.49-1.08.88-.89,1.52-.74,2.24.14.7.24,1.49-1.13,2.37-1.02.12-.84-.29-.57-.68.26-.4.65-.79.15-.6-1.11-.71-1.6-.02-2.2.84-.57.87-1.36,1.9-2.49,1.69.09-.12.18-.21.26-.34-.39-.02-.7.11-.99.33-.29.17-.57.52-.88.78-.61.61-1.45,1.21-2.42,1.09,0,0,.09-.23.02-.39-.31.36-.74.55-1.26.72-.26.08-.52.08-.81.11-.29.02-.6.05-.88-.02-1.21-.1-2.36-.8-3.28-1.56,1.22-.11,1.09.31,1.53-.64-.35-.27-.61.04-.97.3-.34.23-.84.46-1.61-.37,0-.9-.35-2.5.54-3.21.16.3.33.57.51.84.17.26.34.55.52.78.33-.77.04-1.26-.41-1.73-.44-.48-1.02-.94-1.15-1.51l.62-.14c-.78-1.39-1.55-2.05-2.31-2.7-.77-.67-1.48-1.38-2.43-3.13l-.19.59c-1.23-.52-1.24-.99-1.31-1.52-.05-.51-.04-1.13-1.23-1.59.25-.52.48-1.05.69-1.6-.36-.22-.88-.5-1.46-.81-.61-.27-1.3-.56-2.03-.8-1.46-.49-3.03-.74-4.27-1.01.43-.16.95-.24,1.54-.27.58,0,1.21.07,1.87.17.64.16,1.31.31,1.94.54.62.25,1.24.45,1.76.7-.63-.56-1.82-1.39-3.01-1.89-1.19-.5-2.35-.72-2.86-.47.63.04,1.52.03,1.98.52-2.29.25-4.55.15-7.29-.2.45-1.48-1.45-1.97-3.7-1.98-2.26-.06-4.75.38-6.1-.51-.62.3-1.25.55-1.87.83-.63.25-1.25.51-1.88.76-.63.22-1.29.54-1.95.82-.71.29-1.24.58-1.86.86-2.39,1.16-4.74,2.35-6.92,4.09,3,.75-1.27,1.02.48,2.77-.91.9-1.32,1.16-1.51,1.1-1.32.39-2.62.82-3.93,1.24-1.17.02.61-1.18.18-1.53-2.32,1.6-1.57-.07-3.43.6.85.44.03,1.58-1.41,2.35l2.45-.56c-2.17,3.48-3.92.57-6.09,4.12l.45-1.39c-1.25,1.64-5.66,4.91-5.78,7.73-.46.03-1.26-.13-.72-.87-.4.32-.79.69-1.17,1.08l-.56.6-.28.31-.13.15-.02.05c-.14.3-.26.67-.41,1.09-.33.26-.84.38-1.43.3-1.02-.22-2.07-.71-2.72-1.4.18-.14.35-.26.53-.41-.72-.18-1.69.45-2.25-.58.17-.19.56-.37.27-.57-.44,0-2.31-.14-2.99-1.06.38,0,.75-.02,1.12-.06-1.47-1.45-2.97-2.11-4.55-2.69-1.57-.59-3.2-1.07-4.75-2.21,1.19-1.28-1.04-4.14-2.25-5.62l.22-.14c-2.04-2.01-4.28-3.37-6.55-4.39-2.29-1.04-4.63-1.82-7.24-2.73-1.1-1.61-3.82-3.04-7.15-3.88-3.33-.89-7.24-.92-10.48-.79,1.02.12.08,1.38-.9,1.77-.73,0-1.59.6-2.25.99-.65.43-1.17.64-1.39-.15l.49-.17c-1.66-1.13-4.33.78-6.14,2.18l1,1.89c-.8.13-1.54.44-2.27.83-.69.42-1.39.92-1.97,1.52-1.23,1.17-2.16,2.59-2.99,3.93-1.63,2.69-2.8,5.1-4.69,5.38-.23,1.26-1.06,2.41-1.25,3.48l-.85-.75c-.97.97-1.75,1.65-2.57,2.38-.82.73-1.69,1.52-2.95,2.59l.06-1.05c-.73.53-.76,1.45-.82,2.5-.08.96-.18,2.08-1.02,2.47-.41-.43-.8-.87-1.17-1.32-1.45.63-3.02.65-4.31.54-1.33-.12-2.35-.27-3.85-.04.13-.2.4-.64.78-.58-.56-.16-1.34-.9-2.08-1.48-.75-.56-1.57-1.02-2.23-.03.52-.54.02-1.11-.84-1.8-.85-.69-2.07-1.58-2.91-2.27l1.11-.34c-2.13-.67-2.49-.53-4.18-2.49-.2-.6.47-.93.66-.09-.3-1.02-.75-1.23-1.22-1.47-.48-.25-.96-.53-1.5-1.76l1.15.38c-1.25-1.88-1.5-1.53-2.94-1.94-.63-.4-1.35-1.21-1.98-2.04-.62-.83-1.19-1.67-1.13-2.21-.67.34-2.21.41-3.58-.2-.12-.42.49-.52.81-.53-1.04-.52-2.06-.65-2.94-.65-.87.04-1.64.21-2.35.44-1.43.47-2.49,1.04-4.04,1.14-.21-.31-.47-.39-.75-.38,1.57-.79,3.2-1.2,4.35-1.34,1.16-.12,1.81-.08,1.67-.03,0-.53-.77-.79-1.29-1.08-.5-.3-.8-.68.52-1.52-1.38.45-3.1,1.45-4.52,2.54-1.45,1.09-2.64,2.22-3.83,2.84-.16,0-.32,0-.49-.06l.14-.26c-.54.31-.92.74-1.17,1.2-.73.43-1.19.71-1.73,1.25-.86-.38-2.3,1.85-3.03,2.73.93.64-.13,1.67,1.46,1.17-.17.09.02-.25.49-.88.09-.16.21-.33.23-.46,0,.04.02.08.02.13.48-.61,1.13-1.41,1.97-2.28-.28,1.11-.57,2.13-1.87,2.72.17.92.35,1.88.4,2.38-2.17.2-4.65,1.95-5.65,1.66-1.61,3.03-4.63,6.46-4.3,9.43-.39.92-1.16.48-1.64.56.18-.56.62-1.06.56-1.48-.37.9-1.26,2.11-1.84,3.08-.57.97-.91,1.64-.6,2.33-.95.3-.89-.19-.91-.44-.01-.3-.03-.32-.77.19.02-.17.02-.35.02-.51-.98-.2-1.33-.25-2.18-.17-.79.06-1.82.12-2.92-.1-1.08-.23-2.15-.71-3-1.79-.84-1.05-1.34-2.51-1.41-4.47.04.53.07.79-.11.99-.28-.98-.63-2-1.09-3.04-.23-.52-.51-1.03-.81-1.54-.29-.51-.61-1-.97-1.47-1.39-1.89-3.11-3.5-4.94-4.87-3.7-2.76-7.71-4.61-11.7-6.8-2.36-1.05-2.87-.14-4.43.34l-.38-1.27c-.94.39-1.83.73-2.7,1.19-1.8.42-3.32-.21-5.12-.68-1.75-.41-3.8-.58-5.81.99.27.19.54.42.8.62-.81.15-2.03.63-3,1.05-.99.38-1.76.67-1.82.18-.1.21-.15.99-.91.87l-.32-.55c-1.07.94-2.08,1.91-3,2.95-1.41.68-1.69.13-2.08-.31-.2-.22-.43-.4-.86-.34-.42.07-1.08.33-2.03,1.16-.63.69-1.24,1.98-1.52,3.02-.28,1.07-.28,1.86.09,1.74.48-.51,1.45-1.1,1.95-.69-.26.45-.49.91-.74,1.35.63.69,1.16,1.53,1.92,1.98.79.45,1.71.5,3.19-.08.18-.76.48-1.49.77-2.26l1.11.29c-.47.36-.88.77-1.3,1.16,1.28-.03,1.27-.94,1.54-1.81.42.28.86.4,1.3.32.21-.89.52-1.73.86-2.62.57.52-.1,1.71,1.3,1.41.5-1.19-1.64-.99-.38-2.25,1.34.28,1.32,1.08,2.16-.1.34.38.21.75-.13,1.15.36-.5,1.02-.78,1.59-1.13.58-.31,1.09-.64,1.23-1.21,1.32.69,3.61-1.12,3.8.68.13-.23.54-.64,1.07-1.02.52-.34,1.16-.67,1.67-.73-.86,1.11.09,1.07,1.16,1.11,1.08.05,2.3.2,1.98,1.32.35-.44.82-.69,1.38-.82.55-.09,1.19-.11,1.85,0,1.32.14,2.7.56,4.01.47-.18.1-.53.3-.69.15.61.28.94.61,1.2.94.26.34.46.64.75.99.39-.68,1.1-.88,1.91-.94.79-.02,1.69.07,2.44-.01.33,1.1-.16,1.33-.73,1.51-.57.18-1.22.29-1.38,1.05.29-.57,1.02-.48,1.73-.38.67.13,1.32.26,1.4-.33.45,1.49.58,1.03.24,2.41.72-.69.99-.56,1.26-.29.28.27.56.65,1.33.61.27.97-.02,1.35-.14,1.63-.12.28-.07.41.72.94,0,.53-.37.56-.72.49-.36-.07-.75-.25-.75-.25Zm43.7-9.97s.01.02.01.02c-.3.24-.55.47-.7.62.14-.14.34-.33.69-.64Zm3.12-1.53c-.4.06-.89.2-1.39.44-.27-.29-.32-.73.04-.85-.09.31.8.2,1.35.41Zm-12.25-.56c.44-.73.79-.79,1.04-.71-.25.3-.54.67-.87,1.17.02.05.02.11.04.16-.11-.2-.21-.4-.21-.61Z"/><path class="cls-1" d="m364.55,33.49c-.05.1-.06.18-.14.3.18-.06.34-.12.49-.2-.03-.15-.07-.3-.09-.44-.09.11-.17.23-.25.33Z"/><path class="cls-1" d="m696.36,11.96l-.08-.07c.06.08.11.15.12.24-.04-.08-.02-.11-.04-.17Z"/><polygon class="cls-1" points="429.65 39.52 429.41 39.37 429.38 39.84 429.65 39.52"/><path class="cls-1" d="m713.01,31.64c-.04.1-.05.24.01.45.04-.06.02-.24-.01-.45Z"/><path class="cls-1" d="m720.95,39.8l1.04,1.35c-.42-.63-.76-1.04-1.04-1.35Z"/><path class="cls-1" d="m728.31,45.23c.19-.12.28-.24.37-.36h-.01s-.35.36-.35.36Z"/><path class="cls-1" d="m625.19,25.39c-.06-.09-.13-.17-.2-.24-.56-.51-.23-.13.2.24Z"/><path class="cls-1" d="m660.92,38.13c-.18.48-.37.96-.68,1.38.69-.47,1.12-.93.68-1.38Z"/><path class="cls-1" d="m594.26,21.02s0,0,0-.02c-.06.05-.12.09-.18.14l.19-.13Z"/><path class="cls-1" d="m658.52,40.82c.81-.29,1.36-.76,1.72-1.3-.54.4-1.25.77-1.72,1.3Z"/><path class="cls-1" d="m759.02,26.51l.24-.35c-.07-.03-.11-.08-.13-.13l-.11.48Z"/><path class="cls-1" d="m759.13,26.03l.11-.48c-.1.19-.19.36-.11.48Z"/><path class="cls-1" d="m759.46,24.55l-.22,1c.17-.3.4-.65.22-1Z"/><path class="cls-1" d="m752.33,36.01l.25.35c-.03-.11-.11-.23-.25-.35Z"/><path class="cls-1" d="m750.3,38.88c.6-.59,1.98-1.15,2.48-2.25l-.2-.28c.15.81-2.33,1.5-2.28,2.53Z"/><path class="cls-1" d="m737.32,42.7l.63.13.53.13c.35.07.71.09,1.08.14-.51-.42-.93-1-.21-1.12-.6-.31-.78-.4-.87-.37-.08.02-.03.18.03.38.06.19.13.42.03.59-.05.08-.15.14-.34.17-.09.01-.19.02-.34.01-.16,0-.34-.02-.55-.05Z"/><path class="cls-1" d="m729.89,39.78c1.32.46.27-.57.45-.75-.94-.04-1.2-.06-.45.75Z"/><path class="cls-1" d="m675.18,10.71l-.35-.98c-1.18.85.19.35.35.98Z"/><path class="cls-1" d="m670.81,23.27c.36-.22.73-.42,1.09-.62l-.55-.92c-.18.52-.37,1.01-.54,1.54Z"/><polygon class="cls-1" points="661.08 26.39 661.17 25.87 660.65 27.74 661.08 26.39"/><path class="cls-1" d="m578.8,22.84l1.22.48c.33-.79-.66-1.82-1.22-.48Z"/><path class="cls-1" d="m553.05,26.45c.13-.4.08-.98-.14-1.52-.21-.54-.67-1.04-1.18-1.24.71,1.07.87,2.33,1.32,2.76Z"/><path class="cls-1" d="m429.66,23.36c.16-.36.34-.71.54-1.06-.48.55-.86,1.13-1.28,1.69l.74-.63Z"/><path class="cls-1" d="m760.43,19.81c.24,0,.46-.17.54-.41.05-.1,0-.29-.09-.5-.09-.21-.26-.43-.46-.75-.57-.1-1.12-.32-1.66-.65.33.95.98,1.74,1.66,2.32Z"/><path class="cls-1" d="m763.47,12.69c.29-.57.78-1.22,1.17-1.8.38-.58.65-1.2-.05-1.72-.84.77-1.21,1.15-1.59,1.56-.36.4-.71.92-.72,1.94-.35.42-.7.72-1.04.9-.33.18-.65.23-.81.02.03.28-.24.69-.4,1.23-.16.53-.16,1.19.29,1.52.48-.88.94-1.5,1.35-2.18.42-.67.81-1.4,1.43-2.27.49.04.31.55.39.8Z"/><path class="cls-1" d="m813.9,19.03l-.49-.16c.14.09.3.14.49.16Z"/><path class="cls-1" d="m849.82,56.19c-.43-.17-.67-.14-.75-.05.43.12.79.2.75.05Z"/><path class="cls-1" d="m859.86,60.01c-.24-.05-.43-.08-.65-.12.24.13.49.21.65.12Z"/><path class="cls-1" d="m813.9,19.03c.42.11.82.34,1.21.53.15-.39-.6-.46-1.21-.53Z"/><path class="cls-1" d="m769.84,21.44c-.1-.28-.25-.5-.44-.7.08.23.16.45.23.68.07,0,.14,0,.21.02Z"/><path class="cls-1" d="m799.13,32.55l-.2.39c.07.19.18.38.31.58l-.1-.97Z"/><path class="cls-1" d="m785.09,46.86c.5-.11.22-1.25.2-1.76-.06.53-.29.88-.67,1.08.06.2.21.43.48.68Z"/><path class="cls-1" d="m765.98,26.15l-.25-.49c.07.13.16.34.25.49Z"/><path class="cls-1" d="m806.01,22.98c.12.11.26.2.35.23-.09-.11-.21-.18-.35-.23Z"/><path class="cls-1" d="m1191.44,19.84c-.03.07-.03.13-.05.19.12-.08.16-.16.05-.19Z"/><path class="cls-1" d="m1211.28,25.11l-.27.13c.02.21.05.42.1.62l.17-.75Z"/><path class="cls-1" d="m878.77,55.32s-.05.02-.08.03c-.36.38-.12.21.08-.03Z"/><path class="cls-1" d="m993.02,26.92c-1.78.91.43-3.06-1.92-1.48.5.04.21,2.94,1.92,1.48Z"/><path class="cls-1" d="m769.75,21.9c.04.23.08.47.11.71-.01-.33-.04-.54-.11-.71Z"/><path class="cls-1" d="m991.1,25.45h0s-.23.17-.23.17c.1-.07.16-.11.24-.17Z"/><path class="cls-1" d="m903.58,23.8c-.2-.08-.4-.08-.6-.06.1.07.25.09.6.06Z"/><path class="cls-1" d="m885.61,46.3l.61-.49c-.27.17-.45.33-.61.49Z"/><path class="cls-1" d="m913.48,14.97c.36-.05.52.05.92-.27-.06-.04-.12-.06-.18-.07-.11.21-.29.36-.73.34Z"/><path class="cls-1" d="m926.85,13.52c-.05-.1-.12-.18-.19-.27-.13,0-.29-.02-.42-.02l.61.29Z"/><path class="cls-1" d="m1146.18,6.96c.52-.01.93.11,1.29.26-.73-.45,1.32-2.38-1.29-.26Z"/><path class="cls-1" d="m769.21,21.53c.29.05.45.16.54.38-.04-.17-.08-.33-.13-.48-.17-.02-.33-.01-.41.11Z"/><path class="cls-1" d="m910.84,6.47c.92-.33,1.89-.54,2.83-.79-.81.16-1.87.38-2.83.79Z"/><path class="cls-1" d="m1066.65,28.47l.23-.46c-.14.12-.23.28-.23.46Z"/><path class="cls-1" d="m922.49,4.18c.56.4,1.13.62,1.72.81.13-.08.28-.13.38-.26-.7-.25-1.38-.37-2.09-.55Z"/><path class="cls-1" d="m1147.49,7.22s-.01,0-.01,0c0,0,0,0,.01,0Z"/><path class="cls-1" d="m1168.32,2.99c-.74-.45-1.28-.62-1.65-.63-.36-.01-.56.13-.68.33-.25.41-.26,1.04-.74,1.29-.92-.28-1.46-.47-1.79-.66-.32-.2-.42-.41-.43-.62-.03-.43.33-.94-.29-1.45-.67-.03-1.3-.01-1.89.1-.6.13-1.16.3-1.68.47-.52.14-1,.38-1.46.53-.46.17-.9.25-1.34.31-.16-.22-.53-.24-.17-.62-1.18.8-2.97,1.24-4.58,2.08-.84.37-1.57.88-2.24,1.39-.63.54-1.14,1.15-1.43,1.81-.22.01-.37-.03-.48-.09.77.33,1.26.91,1.52,1.39-.9.73-1.03,2.02-1.97,1.6.54-.44.31-.78.38-1.22-.23.36-.42.75-.63,1.12-1.75-.29.9-1.47.29-2.24-1.69,1.94-2.65,4.7-4.04,5.82-1.35-.58,2.42-3.5-.09-2.46.75-.61,1.57-1.17,2.37-1.72-1.54,0-1.2-.26-.86-.59.36-.3.75-.67-.84-.76-1.57,1.28-2.16,2.25-2.73,3.19-.55.95-1.09,1.89-2.33,3.34.15,1.12,1.08.4,1.23,1.51-.88,2.59-1.95,2.8-3.06,2.98-1.07.17-1.97.2-2.18,1.99.23,1.17,1.38,2.59-.85,3.69-.2-.54-.41-1.07-.63-1.59-.99,1-.89,1.63-.88,2.25.01.61-.12,1.2-1.57,1.69.05-.74,1.31-1.79.89-1.64-1.1.14-1.17.52-1.16.96.02.44.16,1.01-.43,1.42-.34-.32-.66-.65-.98-.99-1.03.8-2.05,1.63-3.24,2.18-1.17.57-2.58.83-4.01.63.27-.35.76-.67.29-1.21-1.6-.04-3.02-.96-4.09-2.56-1.09-1.57-1.84-3.72-2.49-5.87-.61-.32-1.22-.66-1.84-1.02-.17-.37.12-.93.53-.62-.43-1.86-.71.25-1.52-.34-.55-.91-.04-1.58.58-1.12-1.21-1.26-2.81-3.24-4.56-5.3-.89-1.03-1.82-2.06-2.74-3.05-.99-1.02-1.91-1.96-2.69-2.76l.95.19c-.69-.6-1.36-.89-1.99-.99-.62-.12-1.19-.04-1.72.03-.53.06-1.03.16-1.56.12-.53-.06-1.08-.19-1.79-.58l.62-.1c-.88-.23-1.79-.43-2.74-.44-.94-.09-1.89.01-2.83.13-.48.03-.92.18-1.38.28-.45.12-.91.21-1.34.37-.84.33-1.72.62-2.47,1.04-3.13,1.57-5.52,3.5-7.89,4.74.13.46-.09.96-.48,1.48-.4.52-.95,1.07-1.45,1.64-1.02,1.13-1.84,2.33-.96,3.14-1.46,1.15-2.11,1.51-2.83,2.04-.7.49-1.54,1.46-2.84,2.96-.65.88.41,2.17-.18,3.49l-1.03-.68c-.01.73,0,1.52-.06,2.26-.6-.04-1.18-.09-1.76-.16-.17.4-.38.75-.57,1.13.38-.32,1.12-.42,1.34-.14-.22.46-.58.89-.99,1.26-.43.34-.91.61-1.37.81-.95.33-1.76.39-1.97.13-.85,1.12-1.79,2.09-2.83,2.92-.1-.45.39-.93.67-1.4-1.23,1.99-.82-1.01-1.92.65.29.19.1.75.12.98-1.07-.46-2.6-.3-4.03-.38.15-.26.3-.52.44-.78-1.04-.27-2.01-.67-3.25-1.45-1.22-.82-2.48-1.96-3.7-3.64.56,1.4-.78,2.06-1.64,1.16l.75-1.17c-1.12-.15.38,1.31-1.39.61-.82-1.38.58-1.72,1.44-1.25-.49-.41-.98-.86-1.47-1.29.25-.31.68-.07,1.15-.26-1.12-.16-.79-3.46-2.61-3.66l.26-.31c-2.43-3.68-3.94-5.2-6.3-8.26-.95.62-1.68-.74-3.11-1.06-1.52-2.39-3.21-5.48-6.45-7.62-1.25-.55-1.56-.42-1.7-.21-.14.21-.14.52-.81.52.18-.49-.57-1.17-1.13-1.69-.56-.51-.96-.82.14-.75-1.1-.45-2.03-.76-2.86-1.05-.85-.24-1.65-.36-2.46-.51-.82-.18-1.69-.16-2.71-.17-.51,0-1.06-.01-1.66.04-.6.08-1.25.17-1.97.27.64.42,1.31.6.95.95-.5.08-1.07-.02-1.51-.21-.44-.18-.75-.39-.7-.65l.27-.14c-.79.28-1.6.48-2.45.62-.83.19-1.68.38-2.56.5-.88.18-1.76.36-2.65.54-.89.19-1.75.47-2.64.71-3.46,1.08-6.52,2.88-7.55,5.33l.12-.27c-.47.72-.96,1.43-1.38,2.15-.42.73-.84,1.45-1.23,2.17-1.56,1.58.27-1.53-1.26-.68-1.07,2.57-2.3,4.13-3.52,5.6-1.21,1.47-2.36,2.84-3,4.87-.53.13-1.02.38-1.47.72-.23.17-.45.36-.66.58-.2.19-.39.38-.58.59-.72.85-1.4,1.9-2.1,2.99-1.39,2.17-3.06,4.38-5.04,4.92l.64.38c-.23,1.15-1.12.49-1.73.81.44.38,1.18-.21,1,.49-2.73,2.97-6.55,5.03-10.11,5.36-.44.09-.88.05-1.31.05-.43,0-.86.03-1.26-.07-.41-.07-.81-.11-1.21-.19-.39-.13-.77-.25-1.15-.35-.38-.07-.73-.32-1.1-.46-.36-.16-.72-.29-1.04-.5-.68-.36-1.24-.81-1.79-1.25-.2-.17-.39-.26-.59-.3-.19-.05-.39-.05-.59-.02-.41.08-.82.26-1.23.37-.79.24-1.68.22-2.09-1.7.55,0,1.1-.04,1.62-.09-2.27-1.44-3.8-4.33-5.19-7.41-1.42-3.09-2.86-6.56-5.47-9.48.5.23.86.03,1.23.68.03-.94-.81-2.27-1.78-3.26-.99-1-2.1-1.62-2.4-1.37-.77-1.01.34-.69.08-1.56-.41-.86-1.49-1.46-2.46-1.92-.97-.48-1.85-.81-2-1.48-.06-.23.61.03.94.17-.32-.08-.77-.33-1.27-.62-.51-.26-1.06-.58-1.57-.83-1.05-.44-1.84-.64-1.54.1-.34-.23-.69-.43-1.05-.61-.36-.15-.73-.27-1.1-.39-.74-.23-1.47-.41-2.18-.47-.71-.08-1.4-.21-2.06-.28-.66-.07-1.29-.2-1.9-.42-.42.28-.94.41-1.51.43-.57.03-1.19-.05-1.76-.02-1.15,0-2.19.08-2.29,1.01-.01-.46-.35-.72-.89-.85-.54-.12-1.28-.11-2.04.08-1.55.3-3.18,1.18-3.89,1.88.39-.74-1.69.06-1.29-.91-1.01.39-1.9.91-2.44,1.4-.55.49-.75.93-.38,1.27-2.19-.07-3.71,1.33-4.88,2.62-1.21,1.28-2.13,2.44-3.89,2.14-.5.64-1.02,1.27-1.46,1.89-.43.62-.87,1.22-1.27,1.83-.81,1.22-1.55,2.42-2.24,3.6-1.39,2.37-2.6,4.66-3.77,6.86-.71-.56,0-1.75.72-2.91.7-1.16,1.43-2.27.6-2.74-1.15,2.24-1.69,4.14-2.33,5.93-.65,1.79-1.37,3.48-2.78,5.26-.84.85-.3-.98-.34-1.48-1.84,4.25-4.89,7.08-6.65,10.4-.12-.12.02-.54.16-.9-.43.58-1.31,1.03-.69,1.54.12-.22.24-.43.33-.66.82-.03.82.95.53,1.98-.25,1.06-.79,2.16-.64,2.44-.28-1.32-1.1-.77-1.91-.4-.83.36-1.57.57-1.72-1.21-.27.41-.51,1.09-.1,1.47-.69.29-1.05.15-.83-.76-1.85,1.83-.63,2.06-2.69,3.28-.19-.35.17-.7.13-1.24-.62,1.25-1.38,2.56-3.39,3.03.02-.27-.31-.46.24-.68-1.55.68-2.74,1.66-4.15,2.36-1.38.76-2.98,1.23-4.88.88,1.09-1.68-1.25-.63-1.3-2.12-.61.08-1.23.13-1.86.18.19.28.4.55.62.82-.84-.09-1.64-.1-2.46-.07-.79-.07-1.6-.15-2.17-.7.46.02.95-.06,1.41-.1l-.77-.2c-.25-.08-.49-.18-.74-.27-.49-.19-1-.36-1.47-.62.4.5.88.9,1.36,1.35-.96-.04-1.15.4-1.32.67-.16.27-.37.43-1.34-.43.26.07-.15-.18-.65-.61-.47-.48-1.05-1.11-1.13-1.76h0c-.49-.12-1-.25-1.5-.5-.48-.26-.91-.69-1.27-1.31.11-.58,1.42-.91,1.49-1.29-.74.1-1.53-.64-2.27-1.48-.76-.82-1.48-1.74-2.37-1.86.48.16,1.15-.26,1.21-.45-.43-.02-.85-.06-1.27-.1-.19-.93-.12-1.12.48-1.32-1.2-2.37-1.21,1.72-2.1-1.45.2.18.27,0,.66.37-1.22-2.97-3.51-5.21-4.5-8.14.91-1.5,1.57,2.19,2.21.69-.28-.47-.59-.94-.92-1.41-.33-.47-.65-.92-1.05-1.42-.75-.99-1.6-1.89-2.42-2.78-1.7-1.75-3.45-3.3-4.92-4.99.16.23.33.46.48.7-.96.51-1.36-.2-1.84-1.2-.51-.96-1.13-2.23-2.39-2.47.54.19,1.3-.52,1.04-.42-1.19-1.07-2.65-1.89-4.46-2.46-1.77-.62-3.89-.95-6.32-1l.69-.46c-.46-.19-1.01-.34-1.61-.47-.6-.15-1.27-.12-1.93-.16-.67-.05-1.34.04-1.98.1-.64.05-1.26.1-1.79.21-.5.69-1.66.92-.73,1.49-.44-.1-.86-.12-1.28-.09-.42.02-.84.06-1.24.16-.79.22-1.56.51-2.22.96-1.37.84-2.39,2.08-3.19,3.31-1.63,2.5-2.47,4.99-4.85,6.64.29-.55.3-1.54.06-1.1-.59,1.39-1.11,2.76-1.62,4.1.98.13.76-.24,1.81-.71.23.74.05,2-.44,2.94.35-1.99-1.32-.66-2.16-.2.31.01.46.41.74.48-1.24.58-.88.86-.51,1.29.38.42.75,1.02-.54,1.96l-.31-.4c-.22.5-.35,1.06-.56,1.6-.23.51-.49,1.05-.98,1.43-.56-.2-.44-.49-.26-.82.16-.34.38-.71.07-1.03-.48.63-.69,1.53-1.02,2.36-.35.8-.84,1.52-1.78,1.53.41-.64,1.16-1.31,1.48-1.99-2.03.12-1.93.41-2.97.93.04-.01.07-.02.11-.04l-1.23.46c-.41.14-.83.23-1.23.35h.72c-.07.83-.35,1.42-.75,1.8-.2.2-.42.36-.65.5-.24.11-.5.21-.76.29-.52.2-1.09.25-1.66.47-.29.1-.58.18-.89.33-.31.16-.63.34-.99.54.69-.37,1-.77,1.15-.95.14-.21.11-.31,0-.4-.2-.17-.65-.25-.59-.86-.6-.33-1.31-.75-1.06-1.08-.24.2-.45.23-.65.19-.1-.02-.19-.05-.28-.1-.08-.07-.16-.14-.25-.21-.16-.14-.34-.23-.57-.28-.22-.08-.52-.06-1,.09.16-.34-.74-.6.06-1.23-.47-.22-.55-.1-.56.19,0,.27.12.65-.07.81-1.19-.1-1.74-1.44-2.05-2.9-.33-1.46-.67-3.31-2.13-4.85-1.67-2.94-3.1-3.22-4.42-6.2.4-1.17,1.57.56,1.57.56.21-1.78-.11-2.99-.79-4.51.38.27.62-.1.99-.64-.27-1.23-1.52-.67-1.14-2.41.46.25,1.2.54,1.69,1.09-.54-1.42-1.37-2.82-1.8-4.37.66-.44,1.07.88,1.56,1.38-.44-1.68-.79-4.42-1.84-4.98l-.39,1.13c-.05-.65.92-.33,1.12.13.86,1.47-.31,2.15-.7,2.27l-.29-1.11c-1.12.61-.99,1.76-.54,3.01.46,1.25,1.22,2.57,1.31,3.68-.59-.24-1.19-.48-1.77-.73.55.73,1.11,1.44,1.68,2.13-.35.55-1.21,1.05-1.64-.04-.55,1.77.81,1.34.17,2.91-.11.18-.2.13-.29,0l.81,1.49c-.41-.24-1.09.52-1.06-.52-.33,3.13,2.32,4.3,1.41,5.69l-.17-.21c.86,1.88,1.2,1.87,1.58,1.71.39-.16.83-.45,1.99.72-.73.96-1.46,1.93-2.13,2.96l1.29-.07c.11.41.38,1.22-.12,1.29,1.46,1.1.36-.46,1.47.02-.05,1.15.85,2.36,1.75,3.21.88.89,1.73,1.46,1.49,2.42.59-.2.2-.62,0-.9-.2-.3-.23-.41.88-.17-.12.53,0,.87.25,1.1.26.19.67.25,1.1.28.43.06.91-.02,1.38,0,.24,0,.47.06.7.11.24.04.47.12.71.25-.64,1.12-2.69.18-.62,1.44.37-.44.79-.62,1.26-.66.46-.07.97-.04,1.53.06.55.07,1.12.12,1.69.14.56,0,1.05-.11,1.45-.32-.18-.68.61-1.15,1.72-1.69,1.07-.59,2.49-1.3,3.41-2.34.04.12.35.04.82-.2.45-.27,1.1-.64,1.75-1.15,1.36-.98,2.79-2.45,3.75-3.45l.16.2c-.87-1.29.57-3.3,1.13-5.05.74.47.91.91.79,1.98l.79-1.52c-.23-.57-.21-1.15.14-2.19l.78.88c.49-.99.71-2.1,1.09-3.21.37-1.11.93-2.2,2-3.04-.37-.38-1.25-.37-1.92-.58-.65-.21-1.15-.71-.42-2.16.51.25,1.3.77,1.01,1.52.1-.23.18-1.02.72-1.24-.04.49-.03,1-.02,1.49,1.07-.71-.2-1,.53-1.7.57.54.9-.15,1.26.4-.12.21-.8.39-.81.86.81-.73,2.04-1.26,2.72-.99-.35-.3-.68-.81-.15-1.38,1.59-1.1,1.06.39,2.16.26.11-.72,1.39-.6,1.01-1.73.52-.2.81.34,1.08.58.19-.18.55-.36.96-.54.42-.11.9-.21,1.32-.33.84-.19,1.49-.36.92-1.01l-.27-.08s.11-.02.17-.05h0,0c1.72-.67,3.64-.09,5.26.74,1.67.82,3.06,2.01,4.66,2.77l-.23.32c.99.39,1.95,1.08,2.88,1.71.89.67,1.77,1.25,2.6,1.55.46.47.49,1.6-.05,1.71,1.26,1.04,1.78.92,2.59,3.23-1.48-.94-.15.78-1.37-1.06.5.92.63,1.59.93,2.17.32.57.7,1.07,1.74,1.78-1.26-.21-.35,2.04.4,2.85l-.08-1.71c.68.97,1.08,1.94,1.49,2.92l-1.45.1c.33,2.4,1.95,4,3.43,5.47,1.48,1.5,2.83,2.82,2.84,5.16.78.26.48-.38.25-1.05-.24-.67-.45-1.36.32-1.19.52.97.81,2.19,1.01,3.29.25,1.07.42,2.02.67,2.3.45.73.91,1.16,1.36,1.42.47.25.95.33,1.41.4.93.16,1.88.22,3.13,1.42-.11-.67.32-1.83,2.55-1.01,1.81,1.14,1.69,3.04.13,2.73-.55-.22-.73-.48-.63-.61-.76-.21-1.75-.61-1.18.35l.51-.25c.4.52,1.42,1.1,2.19,1.63.8.45,1.37.85.85,1.08,1.97.23,1-.46-.2-1.16.69.42,1.31.79,1.96.99.64.21,1.26.36,1.88.5,1.25.19,2.51.38,4.14.62-.52-.28-.95-.86-.44-.83,1.17.23,1.89.2,2.34.11.46-.08.66-.23.81-.4.3-.33.4-.76,1.86-1.07,1.82.45-.32,1.88,2.62.63,1.97,0,.74,1.14.02,1.68.69-.37,1.35-.64,2-.83.66-.18,1.31-.26,1.92-.35.62-.08,1.22-.12,1.77-.17.54-.08,1.02-.16,1.43-.3-.42.33-.84.68-1.28,1,.78-.59,1.47-.91,2.19-1.24l-1.22-.48c.9-.21,1.57-.58,1.73-.22.51-.98-1.32-1.08-.18-2.66,1.26-.13,2.65-2.22,3.67-1.43-1.59.87-1.38,1.01-1.01,1.28.36.24.83.51-.47,1.43.44-.46,1.1-.81,1.92-1.2.19.04.04.29-.12.49,1.8-.58,1.96-1.11,1.99-1.77.03-.67.02-1.39,1.39-2.56.11.85,1.53.45,1.89-.07-1.15.98-1.29-.4-.72-1.71,2.05-1.21,1.44-2.09,2.3-2.91l-1.11.83c-.21-.82.62-1.58,1.39-2.9.51.25-.59,1.31-.05,1.04.07-1.05.9-1.58,1.83-2.19.92-.6,1.94-1.27,2.25-2.48,1.01-.62,1.16.67,1.97.06.68-2.69,2.39-1.85,3.19-4.53-1.22.14-1.09.37-.87-1.71l-1.82,4.09.37-3.15c-.72,1.11-1.01,2.7-1.6,3.28.11-1.57.21-1.32-.79-1.21,2.2-.76,1.25-3.49,3.18-4.72l1.96,1.32c2.55-2.03,1.92-5.28,4.74-8.03l-1.07.74c-.45-.99,1.34-1.99,1.85-3.17.53.6,1.25.2,1.95.14-.48-.38,1.86-1.92,1.03-3.24.63-.13,1.26-.23,1.9-.29.31-.19.56-.39.77-.6.22-.2.39-.41.54-.63.3-.43.45-.94.65-1.4.39-.94.8-1.94,2.19-2.52-.36,1.18,1.04,1.05-.32,2.49.83-.44,1.63-.72,1.39-1.22.36.09.83-.41,1.37-.93.53-.52,1.18-.95,1.71-.77.25-.48.1-1.29,1.18-1.57.16.12.11.37.11.37-.06-.19.31-.45.56-.73.25-.26.38-.55-.22-.86,1.84.8,3.81.31,5.84.14,1.99-.17,4.05-.05,4.98,1.28,1.94.17,4.24.95,5.74,2-.24.13-.24.31-.47.06.77,1,1.38.82,2.09.71.69-.12,1.5-.15,2.2,1.31.02,1.98-1.56-.76-1.3.28-.83,1.03-.24,1.56.57,2.28.79.72,1.81,1.65,1.65,2.92l-.38-.34c0,1.72,2.69,2.89,3.69,5.49,0,0-.26-.02-.36.15,1.99,1.13,3.91,4.27,5.62,6.45-1.3-.23-1.09-.83-1.72.14.76,1.01,1.24-1.11,2.76.83-.05.96.61,2.73-.07,3.61-.53-.65-1.04-1.32-1.51-2-.26.92.25,1.61.88,2.18.65.57,1.42,1.01,1.81,1.59l-.58.29c1.49,1.43,2.64,1.76,3.73,2.05.55.15,1.09.29,1.74.51.63.24,1.37.52,2.31.97-.07-.2-.14-.39-.2-.6,1.33-.3,1.63.08,2,.44.35.38.74.82,1.93.54.1.58.23,1.12.37,1.67.81-.11,2.21-.2,3.66-.65.36-.09.72-.19,1.09-.28.36-.1.72-.26,1.07-.38.7-.27,1.38-.43,1.97-.69-.55.79-1.64,1.3-2.84,1.87-.61.2-1.25.38-1.88.56-.31.08-.62.18-.92.24-.3.05-.59.11-.85.15.79.17,2.16.09,3.41-.05,1.24-.21,2.32-.64,2.64-1.07-.57.23-1.31.73-1.94.56,1.77-1.44,3.8-2.45,6.36-3.5.18.75.73,1.01,1.47.92.74-.1,1.75-.44,2.7-1,.49-.26,1-.54,1.5-.81.48-.29.96-.57,1.43-.8.96-.45,1.81-.8,2.61-.67,1.65-2.06,3.49-3.71,5.4-5.5,1.92-1.77,3.87-3.73,5.42-6.25-3.13.42.89-1.48-1.4-2.46.54-1.14.82-1.52,1.02-1.53,1.09-.79,2.18-1.58,3.28-2.31,1.08-.32-.2,1.26.32,1.47,1.64-2.06,1.47-.35,2.99-1.36-.91-.21-.51-1.48.65-2.43-.72.3-1.43.65-2.14,1,1.15-3.73,3.46-1.28,4.76-4.72-.06.45-.12.87-.16,1.32.41-.81,1.51-2.01,2.52-3.22.51-.6,1.01-1.18,1.38-1.83.39-.58.67-1.21.73-1.86.41.05,1.09.38.6.96,1.68-.98,3.24-2.38,5.05-3.36,1.77-.97,3.8-1.35,5.26-.72l-.31.6c.34-.11.66-.36,1-.49.34-.14.72-.18,1.11.17-.09.24-.37.56-.06.63.1-.04.27-.11.49-.19.21-.05.47-.09.75-.12.55-.03,1.21-.07,1.57.3-.31.09-.64.26-.94.41.41.17.76.4,1.11.55.36.15.71.25,1.07.33.68.26,1.4.33,2.12.46.71.18,1.47.28,2.22.53.73.29,1.51.59,2.21,1.15-.61.64-.45,1.63-.05,2.6.37,1.05,1.01,2.06,1.4,2.83l-.23.11c2.83,3.95,6.18,6.28,9.64,10.13.12,1.87,1.47,4.21,3.49,6.8,1.05,1.31,2.32,2.64,3.77,3.86,1.44,1.22,3.06,2.31,4.67,3.2-.9-.71.67-1.16,1.83-1.02.71.36,1.82.27,2.65.26.85-.09,1.44-.05,1.3.75l-.56-.06c.27.41.7.71,1.24.91.54.19,1.19.21,1.87.21.7.01,1.4-.15,2.1-.32.35-.09.7-.18,1.04-.26.32-.11.64-.22.95-.33-.1-.71-.21-1.42-.33-2.12,1.72.21,3.49-.4,5.05-1.34,1.51-.99,2.87-2.29,3.91-3.62,2.17-2.64,3.49-5.2,5.47-5.69.3-1.39,1.14-2.77,1.29-4.16l.96.61c.86-1.29,1.5-2.25,2.2-3.29.67-.97,1.31-2.06,2.3-3.51l.21,1.05c.31-.37.4-.8.38-1.27-.01-.45-.13-.95-.24-1.45-.24-1.02-.42-2.03.23-2.76.53.27,1.06.56,1.57.85,1.21-1.16,2.74-1.81,4.06-2.22,1.35-.43,2.38-.7,3.65-1.48-.04.26-.12.69-.49.81.28-.05.68.12,1.11.17.22.05.44.16.67.21.22.07.46.09.66.17.82.2,1.53.27,1.88-.86-.16.34-.1.6.1.78.18.22.52.33.92.51.81.3,2,.8,2.82,1.31-.35.15-.7.32-1.04.49.99.1,1.61.18,2.15.4.55.23,1.04.61,1.81,1.56.16.57-.53.87-.65.08.41,1.92,1.65.77,2.22,3.18l-1.04-.47c.84,1.85,1.11,1.55,2.37,2.2.97.97,1.62,3.7.96,4.51.69-.04,1.98.56,2.53,1.81-.2.37-.68.11-.92-.04.8,1.83,2.12,2.81,3.32,3.52,1.23.72,2.32,1.18,3.37,2.34-.11.36,0,.61.18.82-1.62-.75-2.93-1.72-3.71-2.46-.81-.74-1.17-1.22-1.07-1.15-.37.35-.09,1.06-.01,1.62.11.54-.05,1-1.42.65,1.16.6,2.88,1.23,4.63,1.66,1.75.45,3.44.71,4.77,1.22.11.13.23.25.3.42-.11.02-.21.05-.32.06.64.22,1.27.19,1.84.09.9.29,1.52.34,2.43.36.2.45,1.1.43,2.15.3.53-.06,1.04-.25,1.55-.39.5-.15.97-.29,1.31-.43-.46-1.03,1.28-1.5-.62-1.77.22-.01-.17.26-1.07.52-.19.09-.43.16-.55.26.02-.03.04-.08.07-.12-.22.06-.46.13-.71.2-.26.04-.54.09-.83.14-.58.1-1.23.2-1.92.18.28-.15.55-.28.83-.41.27-.15.55-.28.84-.38.29-.1.6-.16.93-.17.33-.04.68-.04,1.09.01.51-.85.91-1.81,1.13-2.28.53.22,1.16.35,1.79.36.64.03,1.33,0,1.94-.09,1.26-.14,2.31-.39,2.81-.16,1.44-1.49,3.02-3.17,4.14-4.9,1.11-1.74,1.8-3.49,1.56-5,.35-.98,1.14-.62,1.64-.75-.15.61-.56,1.17-.5,1.61.37-.99,1.15-2.3,1.67-3.48.46-1.08.79-2.06.31-2.66,1.88-1.49.35,1.8,2-.85l.11.61c1.37-.85,2.26-1.81,2.99-2.84.71-1.05,1.3-2.14,2-3.24.71-1.04,1.56-2.12,2.76-2.73,1.16-.64,2.7-.91,4.17-.17-.4-.15-.62-.23-.73-.47,1.72.15,3.37.5,4.91,1.15,1.55.67,3.08,1.72,4.58,3.06,1.52,1.33,2.96,2.91,4.55,4.5.8.79,1.57,1.61,2.39,2.38.78.82,1.6,1.58,2.38,2.41.94.88,1.65,1.07,2.27,1.13.62.05,1.21-.1,2.04-.11l-.05,1.32,1.46-.07,1.45-.16c.46.05.88.17,1.26.33.39.15.76.34,1.12.56.71.45,1.37,1.05,2.11,1.55.73.52,1.52,1.06,2.45,1.31.93.28,1.98.4,3.2.06l-.46-.89c1.6.46,5.16.07,4.84.98.18-.14.57-.83,1.19-.39l.03.63c1.36-.29,2.7-.74,3.99-1.15,1.55.09,1.5.71,1.62,1.29.06.29.16.56.55.74.39.18,1.06.27,2.25.09.43-.13.94-.37,1.43-.65.5-.3.98-.67,1.38-1.01.8-.69,1.27-1.32.9-1.45-.68.13-1.79.02-1.97-.59l1.38-.67c-.11-.93-.03-1.92-.39-2.73-.36-.81-1.14-1.45-2.82-1.72-.65.5-1.34.99-2.04,1.5-.28-.25-.57-.54-.84-.81.63-.06,1.24-.22,1.86-.33-.6-.33-1.02-.28-1.39-.08-.38.18-.7.53-1.06.83-.23-.46-.57-.76-1.02-.89-.68.64-1.4,1.24-2.15,1.87-.27-.72.96-1.47-.51-1.84-1.05.8,1.03,1.66-.75,2.16-1.11-.89-.73-1.51-2.06-.9-.15-.49.15-.78.66-.94-.58.24-1.33.23-2.03.29-.69.06-1.32.1-1.69.55-.25-.3-.61-.47-1.02-.58-.4-.13-.84-.21-1.23-.31-.79-.18-1.4-.43-1.13-1.29-.42.3-2.3.86-3.33.55,1.24-.7.31-1.04-.74-1.45-1.04-.46-2.21-1.03-1.53-1.96-.5.32-1.04.35-1.63.28-.59-.08-1.22-.29-1.83-.6-.62-.3-1.27-.61-1.88-.95-.62-.33-1.28-.56-1.9-.75.2-.04.58-.12.7.09-.97-.97-.96-1.62-1.33-2.45-.57.54-1.3.52-2.11.35-.8-.17-1.65-.6-2.44-.73-.19-2.4,2.12-.44,2.75-1.88-.43.48-1.19.13-1.93-.23-.73-.36-1.44-.71-1.58-.1-.4-1.77-.61-1.28-.3-2.8-.79.6-1.12.39-1.51.02-.39-.37-.86-.91-1.81-.9-.74-1.17-.69-1.64-.71-1.98-.04-.33-.2-.58-1.78-1.07-.57-.61-.14-.76.48-.73.62.02,1.35.27,1.35.27Zm-46.73,27.14s0-.02,0-.02c.36.07.66.12.87.11-.19,0-.43-.02-.87-.09Zm-3.15-1.48c.32.3.77.59,1.27.85-.06.39-.37.71-.69.49.3-.13-.36-.75-.58-1.34Zm8.36,9.35c-1,.3-1.37.12-1.52-.1.47-.08,1.02-.18,1.72-.37.02-.05.07-.1.09-.15-.05.23-.12.44-.29.61Z"/><path class="cls-1" d="m1128.19,36.18c.12-.06.18-.12.35-.18-.21-.05-.41-.08-.6-.1-.08.15-.16.29-.23.42.16-.05.33-.1.48-.14Z"/><path class="cls-1" d="m813.32,18.84l.09.03c-.07-.04-.14-.09-.19-.16.06.05.06.09.1.14Z"/><path class="cls-1" d="m1069.02,24.62l.24.16v-.44c-.08.1-.16.19-.24.28Z"/><path class="cls-1" d="m793.45,32.36c-.11,0-.24.03-.41.15.07.02.23-.05.41-.15Z"/><path class="cls-1" d="m786.83,39.71l-1.37.4c.61-.11,1.04-.27,1.37-.4Z"/><path class="cls-1" d="m780.16,41.71c-.07.2-.09.36-.1.49,0,0,0,0,.01,0l.09-.5Z"/><path class="cls-1" d="m879.57,41.77c.06-.08.12-.16.16-.25.29-.64.05-.25-.16.25Z"/><path class="cls-1" d="m847.98,49.95c.43.1.87.15,1.27.3-.47-.45-.85-.76-1.27-.3Z"/><path class="cls-1" d="m910.53,6.57s0,0,0,.02c.11-.04.2-.08.3-.12l-.31.1Z"/><path class="cls-1" d="m850.63,51.19c-.22-.26-.44-.45-.68-.59-.23-.15-.46-.27-.71-.35.37.4.84.82,1.39.94Z"/><path class="cls-1" d="m769.43,14.24l.04-.39c-.07,0-.14-.02-.18-.05l.14.43Z"/><path class="cls-1" d="m769.29,13.8l-.13-.43c0,.2,0,.37.13.43Z"/><path class="cls-1" d="m768.88,12.45l.28.92c0-.32.04-.71-.28-.92Z"/><path class="cls-1" d="m769.98,24.97l.42.05c-.09-.05-.23-.07-.42-.05Z"/><path class="cls-1" d="m770.77,28.15c-.09-.79.41-2.09-.04-3.1l-.34-.04c.67.38-.48,2.56.37,3.14Z"/><path class="cls-1" d="m771.75,43.35c-.73-.91-1.27-1.9-1.69-2.88-.1.69-.19,1.7-1.06.4.24,1.1.48,1.6.61,1.75.14.15.2-.04.3-.23.1-.2.23-.4.49-.32.27.07.62.44,1.36,1.3Z"/><path class="cls-1" d="m781.69,47.15c-1.88.38.09.63.04.88,1.17-.61,1.37-.77-.04-.88Z"/><path class="cls-1" d="m828.42,28.23l-.87.55c.8.73.31-.24.87-.55Z"/><polygon class="cls-1" points="839.23 35.79 839.26 34.47 838.18 34.42 839.23 35.79"/><path class="cls-1" d="m836.49,45.82l-.42-.4c.49.55.95,1.09,1.47,1.63-.37-.4-.71-.81-1.05-1.22Z"/><path class="cls-1" d="m924.45,14.13l-.18-1.28c-.71.15-.9,1.56.18,1.28Z"/><path class="cls-1" d="m954.33,45.18c.14.42.55.85,1.07,1.17.52.32,1.17.41,1.72.25-1.21-.38-2.16-1.32-2.79-1.42Z"/><path class="cls-1" d="m1066.82,40.45l-.92.93.97-.68c.3-.24.59-.49.88-.74l-.94.49Z"/></g></svg>