<?xml version="1.0" encoding="UTF-8"?><svg id="Layer_2" xmlns="http://www.w3.org/2000/svg" viewBox="0 0 333.26 16.68"><defs><style>.cls-1{fill:#fff;}</style></defs><g id="shapes"><path class="cls-1" d="m6.75,8.61c.3-.07.05-.43.06-.67.37-.2.24.25.4.43.2-.14.33-.53.5-.52.01.07.04.09,0,.17.11-.16.27-.16.42-.15.08,0,.15.01.23,0,.08-.01.16-.05.26-.11,0,.04,0,.07,0,.1.04-.2.11-.4.17-.53.14.04.37-.11.3.15-.08-.05-.14.04-.21.1l.19-.04c-.08.39-.24.02-.36.28.07,0,.14-.01.22-.02.08,0,.17,0,.24,0,.16.02.3.08.34.2-.12.14-.23.08-.31.04-.09-.04-.14-.05-.15.15-.04-.09-.08-.19-.14-.28-.16.6-.09-.11-.3.51.07.11.15.12.24.14.09.02.19.07.25.24.22-.04.24-.2.46-.23.33.17.19.43.03.61-.15.2-.31.34.02.49.28.03.75-.08.65.39h-.44c.13.52.67.1.59.74-.19-.05-.27-.37-.29-.27-.2.46.31.18.41.46l-.33.18c.26.56.76,1.16,1.21,1.78-.12.02-.29-.04-.29.18.34.39.69.86,1.12,1.29.11.11.22.22.34.32.12.1.23.2.36.29l.19.14c.06.04.13.08.19.12.13.08.26.16.39.23.17-.06.34-.14.5-.21.09.02.15.18.04.22.21.11.22.05.21-.04-.01-.08-.04-.2.06-.25.23,0,.3.21.13.29.2-.05.43-.1.66-.19.12-.04.24-.07.36-.11.12-.05.24-.09.36-.13.24-.07.46-.17.68-.21.21-.06.42-.1.61-.09-.03.05-.06.09-.09.14.28-.05.34-.27.41-.46.07-.19.11-.37.39-.36l-.05.1c.51-.23.95-.61,1.35-.96.41-.35.77-.68,1.23-.85-.25-.4.84-.75.33-1.15.58-.26.58-.07,1.2-.54.14-.13-.14-.48-.04-.71l.27.21-.07-.48.42.14.08-.22c-.07.05-.23.04-.3-.04.06-.19.25-.29.43-.34.19-.05.37-.02.43.04.06-.12.12-.24.18-.35.06-.12.13-.23.2-.34.07.12,0,.22-.02.35.09-.5.26.25.35-.21-.08-.04-.09-.18-.12-.24.13.04.27.02.4-.04.13-.04.26-.14.37-.21l.04.23c.11-.02.21-.07.31-.09.05-.02.1-.04.16-.06l.16-.04c.22-.07.47-.1.71-.07-.16-.13-.1-.53.09-.55,0,.12.01.24,0,.36.14-.2-.15-.17.11-.39.21.09.04.43-.08.52l.25-.07c-.02.11-.08.15-.13.28.07-.11.14.02.2.12.07.09.13.18.27.03l-.03.1c.42.21.69.27,1.06.58.22-.22.31-.04.6-.09.21.35.3.85.61,1.23.33.19.27-.07.52-.05-.21.19.11.59-.21.49.2.24.32.4.48.57.08.08.16.17.27.27.05.05.12.1.18.16.08.07.16.13.25.21.03-.15,0-.27.12-.28.13.11.13.37,0,.44l-.05-.02c.48.28.71.84,1.02,1.37.3.52.69,1.01,1.22,1h-.06c.15.04.31.06.47.1.15.03.31.05.47.07.36.22-.32.08-.11.37.56,0,.93.13,1.31.26.19.07.38.11.58.14.2.02.43,0,.65-.08.18.19.47.27.78.25.16-.02.32-.06.49-.11.17-.05.33-.15.49-.23.32-.17.63-.42.88-.62.26-.21.49-.39.75-.47l-.18-.09c0-.3.27-.14.41-.24-.13-.07-.29.08-.28-.1.25-.41.46-.74.71-1.08.25-.33.5-.65.78-.96.54-.61,1.1-1.18,1.58-1.7.35-.38-.63-.86.15-1.08l.16.37c.15-.54.52-.92.9-1.24.37-.31.76-.54,1.1-.93-.01.1.04.2-.04.24.15.08.3-.01.42-.12.12-.11.2-.28.16-.38.15-.03.11.17.23.24.12.04.2-.09.29-.18.09-.1.17-.18.25-.07.03.04-.03.1-.06.13.08-.17.57-.1.39-.38.18.04.34-.02.49-.07.15-.04.3-.09.43.01.08-.17.23-.14.36-.1.13.03.23.05.29-.19-.04.24.08.37.24.4.08.02.16.03.25.01.09-.01.17-.04.23-.08-.11.12.1.21-.05.37.05.01.1.03.14.03.04,0,.09.01.13,0,.08-.02.16-.08.21-.2.03.35.23.35.44.39.1.02.19.05.24.11.05.07.04.18-.06.34.64.3,1.17.91,1.58,1.58-.46.17-.4-.75-.85-.47.48.5,1.04.76,1.21,1.52.01.21-.24-.03-.35-.06.47.64.52,1.46,1.12,2.04-.04.02-.13-.03-.2-.09.08.13.1.35.29.23l-.12-.1c.09-.18.31-.12.53-.04.22.09.44.19.52.16-.34.06-.28.24-.23.42.04.18.08.36-.39.42.1.07.27.11.37,0,.06.15.02.25-.21.22.49.4.52.07.9.46-.08.08-.19.04-.32.09.36.05.69.06,1.04.38-.06.04-.05.14-.18.07.37.2.75.22,1.1.21.18,0,.35-.02.52,0,.18.01.36.03.56.11-.14.22-.08.27.04.31.11.03.26.06.29.26.17-.04.33-.08.49-.15-.07-.06-.14-.12-.21-.18.2-.02.39-.11.55-.2.16-.1.31-.18.5-.16-.08.08-.16.16-.24.24.24-.08.47-.19.69-.3h-.44c.29-.33-.2-.48.28-.54-.07.08.31-.14.6-.02.09-.21.17-.4.43-.48.13.07.22.4.31.45-.05-.38.64-.62.53-1.05,0,.11.16.27.2.29l-.09-.3c.18-.05.23-.04.34.1.38-.34-.49-.24.07-.52-.01.05.03.06,0,.16.49-.38.57-.99.96-1.37.44.08-.17.45.22.49.19-.36.29-.78.38-1.19.08-.39.17-.76.37-1.05l-.1.1c-.48-.35.49-.34.41-.77,0,.1.24.25.19.2.3-.37.32-.9.57-1.58l.07.16c.26-.15.48-.5.72-.66-.06-.16.08-.25-.14-.34.61,0,.81-.29,1.09-.6.26-.31.62-.58,1.06-.33-.09.01-.16.18-.1.16.09-.06.18-.09.28-.13.09-.04.19-.08.29-.11-.07-.25-.1-.15-.26-.33.06-.16.25-.3.43-.31-.3.19.03.4.15.55-.02-.08.02-.16,0-.24.33.45.07-.52.56-.18l-.04.13c.19-.05.39-.19.58-.11.02.3-.22.09-.28.33.13,0,.29-.09.45-.16.16-.07.31-.07.38.1-.14.04-.3-.02-.44.04.17.4.21.33.37.44h-.02c.12.09.23.19.34.29-.02-.04-.04-.09-.06-.13.3-.28.49-.24.65-.15.08.05.17.1.27.13.1.04.22.05.4.02-.65.14-.21.19-.43.44.05.14.12.32.02.37.16-.05.2.04.24.13.05.09.11.17.35.12-.06.09.15.16-.07.32.24.12.09-.17.2-.26.27,0,.37.27.45.53.09.26.17.53.54.66.43.36.8.31,1.17.74-.05.11-.15.11-.24.09-.09-.03-.17-.08-.17-.08-.05.32.05.5.24.72-.1-.02-.16.05-.26.16.08.19.42.03.33.34-.13-.02-.33-.03-.47-.09.16.21.41.4.56.64-.17.11-.31-.09-.45-.15.15.26.32.7.62.74l.07-.21c.03.11-.24.1-.31.03-.28-.2.03-.37.13-.41l.11.17c.58-.32-.26-.73-.33-1.08l.48.03c-.16-.09-.32-.18-.47-.27.09-.11.31-.25.44-.09.12-.34-.23-.18-.07-.49.03-.04.05-.03.08-.02l-.23-.21c.11.02.28-.16.28.02.03-.29-.13-.45-.27-.57-.14-.12-.25-.2-.14-.36l.05.03c-.23-.28-.32-.25-.42-.19-.1.06-.21.15-.5.04.18-.24.34-.49.5-.75l-.31.13c-.03-.07-.1-.2.02-.26-.35-.07-.09.12-.36.13.02-.23-.17-.39-.32-.53-.15-.14-.25-.27-.11-.49-.26.11.11.36-.28.25.15-.25.05-.3-.09-.34-.15-.03-.33-.04-.38-.24.25-.19.41.13.3-.28-.23.14-.34.04-.44-.12-.1-.16-.2-.36-.35-.39-.1.17-.25.14-.44.06-.09-.04-.2-.09-.31-.13-.11-.04-.23-.08-.35-.08.03-.05-.15-.19-.41-.3-.13-.06-.28-.13-.42-.18-.14-.06-.28-.11-.39-.15l.02-.07c-.07.2-.2.26-.37.3-.17.05-.36.03-.52.1,0-.24.05-.35.24-.46-.11,0-.22.01-.33.02-.07.14-.16.2-.36.29l.04-.31c-.22.05-.43.17-.64.31-.1.06-.21.12-.33.16-.12.05-.24.08-.39.09.05.13.22.27.33.43.11.16.14.32-.04.51-.08-.13-.22-.35-.12-.47-.04.03-.09.19-.2.17.02-.11.05-.22.08-.33-.26.01-.01.25-.19.32-.1-.19-.2-.07-.26-.23.03-.04.2,0,.22-.12-.11.04-.24.05-.36.06-.12.01-.24,0-.32-.04.09.09.16.24.04.36-.32.27-.27-.12-.54-.05,0,.18-.3.25-.08.5-.09.08-.21,0-.31-.04-.03.13-.19.33-.3.5-.1.17-.13.32.08.33l.05-.03s0,.02,0,.04c-.04.18-.12.33-.22.48-.1.14-.22.26-.34.39-.24.25-.49.51-.59.83l-.09-.05c-.08.4-.33.8-.24,1.15-.05.1-.3.15-.39.05-.05.29.04.39-.3.67-.04-.33-.19.02,0-.32-.25.29-.42.26-.36.73-.18-.25-.43.04-.45.22l.3-.1c-.07.18-.17.31-.29.42l-.25-.28c-.38.15-.4.49-.48.8-.07.31-.2.6-.63.48.02.15.12.13.22.1.1-.02.21-.06.26.11-.13.1-.36.09-.54.07-.19-.03-.34-.08-.38-.05-.21.04-.21.18-.22.35,0,.17-.03.35-.25.38.1.09.32.39.03.64-.34.08-.53-.38-.4-.55.06-.03.1,0,.12.04.07-.08.16-.17,0-.26l.02.13c-.09-.04-.22-.01-.32-.03-.1-.02-.18-.05-.17-.16-.15.17-.04.23.13.26-.1-.03-.17-.03-.24-.03-.07,0-.13,0-.2.02-.13.04-.26.03-.43-.03.05.07.1.22.04.22-.26-.09-.32-.05-.37.03-.05.08-.09.21-.29.18-.09-.12-.04-.23-.02-.3.02-.07,0-.1-.19-.08-.16-.19.08-.34.18-.42-.18.08-.28-.02-.34-.14-.06-.12-.07-.26-.11-.32.06,0,.1,0,.16-.02-.09.02-.14-.03-.19-.06-.03.08-.06.17-.09.25-.04-.08-.09-.13-.02-.21-.18.07-.21.39-.52.43,0-.09-.1-.15-.18-.21-.07-.07-.11-.15,0-.27.09.2.15.13.22.05.07-.09.15-.19.27-.1-.07-.01-.12-.06-.14-.17.02-.04.06-.04.09-.03,0-.23-.09-.2-.23-.16-.14.05-.31.11-.43-.09.19-.06.26-.28.19-.32.08.15-.23.25-.45.17-.01-.34-.26-.24-.32-.41l.02.2c-.2.03-.26-.13-.41-.32.13-.08.18.15.21.05-.42-.1.09-.67-.26-.93.06-.21.33-.15.36-.33-.39-.3.08-.52-.28-.87-.2.22-.13.22-.48.01l.45.63-.53-.3c.08.21.33.38.33.52-.28-.13-.21-.13-.38.05.25-.43-.43-.48-.32-.91l.61-.24c.03-.31-.15-.51-.36-.72-.21-.21-.44-.42-.56-.8,0,.09.02.18.02.27-.27.04-.26-.39-.49-.54.19-.1.18-.28.22-.45-.06.05-.15-.07-.26-.18-.13-.11-.29-.2-.47-.08,0-.15-.02-.3-.04-.46-.2-.28-.46-.3-.71-.28-.24.01-.47.05-.71-.13.28-.11.11-.4.57-.3-.09-.06-.18-.13-.25-.16-.07-.03-.13-.03-.17.04-.03-.09-.2-.1-.37-.11-.17,0-.34,0-.4-.14-.12.06-.22.26-.43.18-.01-.05.03-.1.03-.1-.04.1-.38.05-.25.33-.2-.41-.65-.46-1.06-.46-.21,0-.41.02-.59,0-.18-.01-.35-.06-.5-.19-.42.13-.92.3-1.28.43,0-.07-.03-.11.05-.1-.58-.04-.12.68-.73.67-.41-.21.22-.3,0-.35-.17-.32-.34-.22-.52-.07-.19.15-.37.36-.66.28.02-.03.05-.06.07-.09-.2-.03-.34.14-.48.33-.13.21-.28.43-.49.57,0,0-.02-.07-.06-.09-.07.5-.44,1.01-.68,1.42-.11-.3.04-.26-.23-.39-.12.18.37.27.15.63-.2,0-.5.14-.76-.02l.25-.32c-.22-.05-.3.05-.35.18-.05.13-.07.29-.16.35l-.12-.13c-.34.53,0,.79-.39,1.29l.15.02c.16.53-.36.11-.29.57l-.42-.15c-.04.25-.08.9-.22,1.28-.15-.36-.04-.85-.04-1.21-.13.19-.39.66-.27.87.01-.1-.02-.25.09-.29.14.41.09.81-.15,1.17-.33-.26-.53-.05-.74.21-.21.26-.43.56-.77.47-.08.36-.31.57-.56.67-.13.05-.24.08-.37.1-.06,0-.12.03-.18.04-.06,0-.12.02-.18.04.17.29.14.31.07.33-.06.03-.15.04-.08.37-.16.06-.23.06-.25.02-.18-.14-.33-.26-.47-.43-.08-.21.16-.13.16-.28-.29-.1-.08-.29-.22-.51-.01.24-.18.31-.32.17.05.13.1.24.16.37-.27.12-.34-.07-.39-.23-.05-.16-.07-.34-.38-.28.08-.04.16-.08.23-.13-.14.01-.34-.1-.57-.19-.23-.09-.49-.16-.77-.03,0-.09.07-.27.2-.24-.23-.24-.6-.38-.93-.58-.33-.19-.61-.43-.63-.74.06-.01.11-.03.17-.05-.12-.08-.4-.03-.37-.28.06-.03.17-.04.14-.1-.09-.04-.46-.17-.5-.39l.25.04c-.28-.79-1.09-.78-1.61-1.24.19-.15.2-.38.14-.62-.06-.24-.21-.47-.31-.63l.06-.04c-.37-.41-.81-.65-1.29-.81-.23-.08-.48-.13-.72-.19-.25-.04-.5-.1-.77-.13-.22-.37-.79-.56-1.43-.63-.64-.05-1.33.05-1.92.07.19.04.08.36-.08.48-.13,0-.27.13-.37.22-.1.09-.19.13-.27-.08l.08-.03c-.36-.32-.79.04-1.11.26l.28.51c-.32-.04-.6.08-.84.25-.23.18-.42.41-.58.65-.33.46-.54.89-.99.85-.02.26-.19.47-.19.72l-.24-.2c-.21.21-.36.37-.5.55-.14.18-.29.41-.42.64l-.11-.23c-.2.24.45.88.25,1.15l-.41-.24c-.1.11-.21.2-.34.28-.13.08-.25.16-.38.23-.12.08-.24.16-.34.26-.1.11-.18.23-.23.4-.03-.06-.09-.18-.03-.25-.06.03-.14.07-.24.11-.1.04-.2.07-.28.13-.16.1-.26.23-.09.5-.19-.36-.49.19-.74.43l-.03-.31c-.06.23-.09.35-.15.45-.06.09-.14.18-.31.24-.09-.04-.08-.24.02-.17-.14-.07-.18,0-.24.08-.06.07-.13.13-.29.04.05-.06.09-.12.14-.19-.25-.04-.24.05-.44.25-.05.02-.11.02-.17,0-.06-.03-.11-.07-.15-.12-.09-.11-.13-.25-.08-.38-.09.14-.35.27-.45.11.04-.1.12-.12.16-.13-.13-.2-.29-.23-.45-.28-.16-.05-.31-.12-.29-.35.08-.07.1-.11.11-.15.2.3.4.47.36.48.09-.11.1-.21.15-.3.04-.1.12-.17.31-.26-.13.03-.33.06-.52.02-.19-.03-.36-.14-.37-.3.02-.03.03-.05.07-.08h.04c0-.06-.06-.1-.13-.13,0-.1,0-.17-.03-.26.2-.13-.03-.37-.08-.54-.28.12-.32-.1-.48.19,0-.03.05.02.1.12.02.02.03.04.06.05,0,0-.02,0-.03,0,.05.1.11.23.19.37-.2-.05-.38-.13-.29-.37-.22,0-.44-.03-.55-.05.32-.39.38-.91.61-1.06-.33-.47-.56-1.3-1.26-1.42-.14-.13.07-.25.12-.35.1.07.14.19.24.21-.14-.14-.27-.38-.43-.57-.15-.19-.35-.33-.54-.24-.06-.24.05-.25.13-.24.07,0,.12,0-.12-.25h.16c-.1-.38-.35-.65-.65-.8-.3-.15-.64-.2-.95-.19-.08,0-.15,0-.23,0-.07,0-.15,0-.23.02-.15,0-.3,0-.45,0-.3-.01-.59-.07-.96-.25.1.04.15.06.17.13-.4-.07-.8-.04-1.18.06-.19.05-.37.11-.56.17l-.54.23c-.71.34-1.34.73-2.12.95-.43.17-.29.42-.35.73l-.3-.18c-.03.19-.04.4-.05.59-.12.31-.42.38-.75.51-.31.14-.63.34-.6.83l.25.02c-.2.22-.27.86-.49.72.02.04.18.17.04.24l-.17-.05c.01.26.03.51.08.76-.12.25-.29.2-.45.18-.16-.02-.32,0-.39.44,0,.17.13.41.26.58.13.17.27.28.32.22.01-.12.12-.31.29-.31l.08.26c.26.02.51.07.75.04.24-.03.47-.13.65-.34-.11-.11-.18-.23-.28-.36.09-.03.17-.05.26-.07l-.02.27c.26-.13.06-.24-.06-.38.14,0,.24-.03.3-.07-.13-.14-.28-.29-.39-.44.2.02.33.25.51.09-.16-.22-.48,0-.53-.3.28-.08.43.04.33-.22.13.03.19.1.22.19-.07-.21.12-.43-.07-.64.17,0,.22-.15.3-.25.08-.1.16-.17.35-.02-.03-.05-.07-.17-.08-.3,0-.12,0-.25.05-.32.13.3.23.19.35.06.14-.12.29-.25.48,0-.12-.26,0-.43.14-.6.16-.16.34-.31.43-.53,0,.05.02.14-.03.14.21-.08.35.01.51.03-.2-.39.06-.63.12-.97.22.13.23.26.23.4,0,.14-.02.29.1.45-.18-.32.27-.5.07-.74.29.15.22.04.44.34-.15-.52.15-.14.21-.52.37.17.21.46.48.22.09.06.08.16.05.24-.03.08-.09.14-.09.14v-.04Zm4.76,4.3h0c-.05-.08-.1-.14-.13-.18.03.04.07.09.13.18Zm.56.75c-.07-.09-.16-.21-.26-.33.07-.09.18-.13.23-.05-.09,0,0,.21.03.38Zm.96-2.49c.08.08.04.13-.01.17-.03-.04-.06-.09-.11-.15-.01,0-.03,0-.04,0,.06-.01.11-.02.16-.02h0Z"/><path class="cls-1" d="m90.8,8.34c.27.38.45-.05.71-.09.43.47-.11.4-.18.67.26.26.74.46.88.81-.05.05-.04.13-.15.09.26.18.44.58.73.99.15.21.3.4.52.59.21.17.43.28.65.32.03.06.03.11.03.14,0-.24.13-.41.23-.52.28.21.64.1.65.39-.18-.09-.25,0-.38.01.13.03.25.05.38.06.08.24-.05.23-.22.17-.17-.06-.36-.16-.44-.04.37.15.81.22,1.21.22.41,0,.78-.06,1.09-.08.11.17-.27.29-.57.3-.15.02-.27,0-.3.04-.03.02.01.08.24.18-.36-.06-.68-.18-.97-.33.12.2.17.28.15.31-.02.03-.1,0-.18-.03-.15-.06-.33-.12-.07.3.7.27,1.21.23,1.67.11.23-.06.45-.14.71-.26.25-.11.55-.28.85-.49.06-.18-.02-.22-.08-.27-.07-.04-.13-.09-.1-.26.25-.36.41-.54.57-.64.16-.09.32-.11.48-.12.31-.02.57-.02.69-.55-.03-.35-.33-.73.31-1.1l.17.45c.61-.66-.13-.78.69-1.32.02.23-.35.63-.22.56.65-.25.1-.48.39-.84l.35.17c.59-.79.98-1.75,1.64-2.28.02.12-.02.29.2.28.17-.17.36-.29.56-.36.2-.06.39-.06.61-.02.4.1.58.34.79.71.15,0,.31.02.47.05.05.08-.01.22-.12.18.14.39.18-.11.4-.02.16.19.03.38-.14.3.66.46,1.69,1.81,2.14,2.86-.07-.03-.14-.07-.21-.11.22.38.52.46.79.52.28.06.51.11.76.47l-.16-.05c.09.08.19.16.3.22.1.07.21.13.33.2.22.12.47.2.72.29.5.13,1.01.2,1.5.16.24,0,.47-.05.71-.06.22-.05.45-.07.65-.12.42-.09.81-.17,1.19-.23,0-.14.12-.24.27-.34.15-.11.35-.2.53-.31.37-.21.69-.47.53-.76.48-.2.69-.25.92-.34.12-.05.24-.11.41-.22.17-.11.37-.28.65-.53.24-.27,0-.67.19-1.05l.28.19.05-.67h.5s.16-.35.16-.35c-.11.11-.32.16-.38.08.12-.28.39-.53.64-.68.25-.15.49-.2.56-.15.21-.37.44-.73.69-1.05.06.13-.06.28-.12.45.26-.66.3.19.55-.38-.1-.02-.08-.19-.11-.26.35,0,.85-.25,1.26-.43l-.02.25c.37-.06.75-.15,1.17-.16.42,0,.89.04,1.35.21-.14-.11-.18-.25-.13-.36.05-.11.17-.19.33-.15v.38c.26-.14-.26-.23.22-.35.36.19.08.48-.15.5l.48.07c-.02.11-.14.11-.23.23.13-.07.27.11.43.26.15.17.32.31.54.22l-.03.11c.87.56,1.33.79,2.01,1.38.11-.11.22-.09.35-.04.13.05.28.14.47.15.45.57.85,1.32,1.56,1.92.59.31.31-.07.65-.02-.16.25.6.82.09.67.46.34.77.54,1.14.74.37.19.79.39,1.52.59-.1-.17-.24-.29-.12-.34.13.03.25.12.34.22.09.09.13.18.09.24h-.08c.07.01.14.02.21.03.07.01.13.03.22.05.17.05.37.08.55.14.39.11.78.22,1.18.34l.52-.4c.18-.13.37-.27.55-.4l.14-.1.09-.05.18-.1c.12-.07.23-.13.35-.2.45-.28.82-.58,1-.99l-.03.07c.24-.33.49-.67.74-1,.46-.31-.12.37.3.25.72-1.19,1.65-1.22,2.32-2.1.58.09,1.15-.35,1.74-.79.29-.22.59-.45.87-.59.15-.09.26-.11.38-.14.11-.03.26-.02.37,0l-.11-.17c.16-.26.3.02.47.03-.06-.15-.29-.1-.18-.25.94-.39,2.13-.31,2.98.1.42.21.73.5.91.79.19.31.36.75.55,1.28.15.4.44.43.69.51.13.04.24.08.34.21.09.12.16.32.21.68-.16-.06-.33-.12-.5-.19.33.44.66.96,1.15,1.47.48.51,1.16.96,1.85,1.15.68.22,1.46.24,2.14.05.68-.18,1.24-.53,1.65-.94-.07.15-.01.24-.21.37.29-.03.69-.3.93-.6.25-.3.38-.61.31-.68.24-.22.19.08.42,0,.21-.12.33-.39.43-.63.1-.24.18-.45.36-.47.06,0,0,.15-.03.22.09-.34.73-.95.35-.95.51-.46.65-1.11,1.13-1.39-.02-.24.19-.42.37-.59.18-.16.33-.31.2-.52.16.19.42.06.67-.15.24-.21.48-.51.56-.72-.01.19.36-.07.36.19.34-.26.62-.53.43-.71.49.06.75-.21,1.05-.43.14-.11.29-.2.43-.24.15-.03.3,0,.45.17,1.12-.56,2.36-.74,3.43-.45-.05.11-.15.14-.26.14-.12,0-.25-.04-.39-.06-.28-.05-.56-.06-.57.2.49-.04.9-.09,1.31-.05.4.05.81.2,1.16.58.08.12.01.13-.08.12-.1,0-.23-.04-.29-.03.44.22.78.61,1.08,1.03.3.42.57.88.95,1.29-.04.02-.14-.06-.23-.14.12.18.18.47.36.34l-.15-.16c.12-.47,1.02.44,1.19.4-.37,0-.28.25-.21.51.07.25.12.5-.4.43.11.11.3.23.41.12.09.22.05.34-.22.21.28.36.45.42.58.49.14.07.25.13.49.44-.09.07-.22-.03-.37-.03.43.2.82.37,1.25.9-.07.02-.07.14-.22,0,.44.4.93.61,1.43.78.51.17,1,.32,1.61.57-.24.18-.15.25.02.32.17.06.41.12.43.33.27-.02.54-.04.8-.11-.11-.06-.21-.12-.31-.19.33,0,.64-.1.91-.21.28-.11.52-.23.81-.26-.13.11-.26.22-.41.31.39-.14.78-.32,1.11-.56-.22.08-.45.13-.68.17.25-.23.17-.34.14-.42-.03-.08-.03-.13.33-.28-.05.06.07-.02.24-.11.18-.1.4-.23.6-.25.12-.3.2-.6.52-.87.17-.01.32.34.43.33-.05-.22.12-.51.28-.82.15-.31.29-.62.21-.86.02.14.21.25.27.24l-.14-.33c.2-.18.25-.19.39-.08.4-.65-.57-.03.04-.72-.01.07.04.06.01.21.51-.73.64-1.6,1.22-2.14.46.07-.3.6.13.59.26-.46.51-.94.85-1.36.17-.2.36-.39.58-.53.1-.08.23-.12.35-.18.12-.04.23-.11.36-.12-.07,0-.13,0-.19.01-.04-.31.2-.28.46-.24.13.02.27.07.4.09.14.03.26,0,.39-.06-.13.04-.15.34-.12.26.16.01.33.03.51.02.17,0,.36,0,.56,0,.2,0,.42.02.66.03.24.04.5.06.77.14l-.18.08c.34.29.99.55,1.34.88.2-.06.41.12.4-.15.37.77.95,1.11,1.55,1.49.59.37,1.14.79,1.29,1.54-.1-.13-.35-.22-.27-.12l.85.83c.14-.23.02-.22.02-.53.21.02.51.2.7.42-.47-.3-.31.26-.27.53.03-.08.15-.08.2-.14.06.76.45-.25.78.58l-.13.06c.26.19.59.28.8.55-.11.31-.33-.14-.52,0,.18.17.44.24.68.33.24.09.44.19.5.45-.21-.07-.42-.28-.63-.36.12.58.21.56.45.84l-.02-.03c.18.22.36.45.56.66l-.12-.21c.24-.05.43-.05.59,0,.16.05.3.12.44.22.07.05.14.09.22.14.08.04.16.08.25.12.17.07.37.12.61.08-.23.03-.36.05-.43.07-.07.02-.08.05-.06.09.03.08.15.18.05.31.16.17.44.41.32.46.25-.03.39.07.58.17.09.05.19.1.31.12.12.02.26,0,.43-.06,0,.11.45.11.31.35.59-.02-.11-.19-.03-.33.11-.02.23-.04.34-.04.06,0,.12,0,.17,0,.06,0,.14.01.21.03.29.04.62.07.99.12l.14.02s.07-.05.1-.08c.07-.06.14-.11.21-.17.14-.11.28-.24.42-.38.15-.16.21-.24.29-.36.08-.12.14-.25.19-.39.49-.85.32-1.22.72-2.01.32-.13.16.43.16.43.42-.28.62-.59.79-1.02.02.13.14.1.32.05.19-.31-.18-.42.23-.73.05.13.15.33.15.55.17-.42.24-.88.39-1.31.22,0,.1.38.11.58.21-.47.54-1.21.36-1.49l-.25.22c.08-.16.26.05.24.19-.02.49-.41.48-.51.44l.11-.31c-.7-.05-.58,1.12-.99,1.62l-.22-.48-.07.75c-.18.04-.44-.04-.31-.33-.45.22-.1.42-.54.57-.06,0-.06-.02-.05-.06l-.16.42c-.02-.13-.3-.15-.08-.31-.68.44-.54,1.19-.99,1.18l.02-.07c-.61.9.19.3-.08,1.17-.16-.03-.33-.05-.48-.09-.15-.04-.29-.1-.42-.17.05.11.09.23.13.35-.08.06-.22.17-.25.01-.11.13-.1.16-.05.19.05.03.12.07.04.18-.16-.08-.31-.1-.46-.11-.15-.01-.31-.03-.47-.04-.16,0-.3-.04-.4-.1-.1-.06-.16-.15-.16-.28-.24.21.45.3-.15.35-.01-.29-.16-.31-.37-.32-.11,0-.23,0-.34-.02-.11-.03-.22-.09-.31-.2.26-.21.59.11.27-.32-.22.18-.43.06-.6-.13-.08-.1-.17-.19-.25-.28-.08-.1-.16-.17-.26-.2-.24.33-.81-.35-1.39-.71.06-.04-.14-.29-.39-.61-.25-.32-.54-.72-.7-1.01l.06-.03c-.38.18-.76-.37-1.13-.69.2-.14.33-.13.58,0l-.29-.35c-.17,0-.31-.07-.53-.27l.31-.1c-.2-.23-.45-.41-.72-.64-.14-.11-.27-.24-.39-.37-.13-.14-.25-.29-.35-.48-.23.17-.14.99-.84.53.09-.13.25-.33.45-.22-.07-.04-.27-.09-.33-.24l.42.06c-.18-.34-.29.01-.48-.2.15-.15-.05-.27.1-.36.07.04.12.25.27.27-.21-.27-.43-.63-.42-.85-.06.11-.19.22-.39.08-.51-.39,0-.34-.23-.67-.21.02-.47-.34-.66-.09-.15-.11-.09-.26-.11-.37-.19-.03-.52-.24-.81-.36-.29-.12-.5-.16-.41.08l.07.06s-.03,0-.06-.01c-.27-.06-.54-.13-.79-.25-.26-.1-.51-.22-.77-.34-.27-.1-.53-.23-.82-.28-.14-.03-.28-.06-.42-.08-.14,0-.29,0-.43.01v-.11c-.08.01-.17.02-.26.03-.09.02-.18.04-.27.05-.18.04-.36.05-.53.12-.17.06-.33.12-.47.18-.14.07-.25.17-.34.27-.18.07-.51,0-.49-.15-.22.16-.32.28-.46.39-.14.11-.31.21-.65.39.14-.25.08-.25.05-.25-.03,0-.02,0,.29-.2-.31.17-.52.27-.7.41-.17.14-.32.33-.43.71-.06-.38-.61.19-.71.51.14-.1.29-.18.43-.27-.18.31-.37.55-.55.81l-.22-.34c-.56.47-.67,1.1-.77,1.63-.11.54-.23,1.02-.78,1.22.03.2.15.08.28-.03.12-.12.26-.24.32-.05-.15.24-.42.4-.66.52-.24.11-.44.18-.48.23-.27.2-.26.38-.26.59,0,.2-.01.44-.32.58.13.06.46.28.03.7-.25.11-.46.05-.55-.07-.1-.12-.1-.27,0-.38.09-.06.15-.04.17,0,.11-.12.23-.25,0-.29l.02.14c-.06,0-.14.01-.22.03-.08.02-.17.03-.25.04-.15.02-.27-.02-.24-.13-.26.2-.09.24.17.25-.15-.01-.26,0-.38,0-.06,0-.11.01-.17.02-.06,0-.11,0-.16,0-.11.02-.21.02-.33,0-.12,0-.24-.04-.37-.09.07.08.14.25.04.23-.21-.07-.33-.13-.42-.12-.09-.02-.14,0-.18.04-.09.06-.16.17-.47.05-.24-.35.33-.35-.31-.52-.25-.33.13-.33.3-.34-.29-.04-.48-.23-.6-.44-.12-.21-.18-.44-.27-.56.09.05.19.09.28.13-.17-.07-.26-.18-.36-.29l-.08.3c-.09-.16-.19-.27-.1-.34-.25-.04-.23.4-.66.24-.03-.14-.17-.28-.28-.41-.1-.14-.18-.28-.05-.41.17.37.23.3.3.21.07-.09.14-.2.36.04-.11-.07-.19-.2-.26-.38.02-.04.07-.02.12.01-.06-.38-.18-.39-.35-.41-.16-.02-.37-.01-.57-.4.23,0,.23-.35.12-.46.16.31-.2.31-.49.09-.14-.58-.4-.5-.54-.78l.11.34c-.23,0-.35-.28-.61-.6.11-.11.28.27.26.11-.26-.11-.32-.38-.4-.68-.08-.3-.17-.64-.48-.83-.11-.33.26-.26.14-.54-.37-.22-.49-.42-.62-.63-.14-.2-.28-.44-.72-.61.04.19.07.27.01.29-.06.02-.2-.03-.53-.07.44.18.86.42,1.25.71-.15-.06-.31-.11-.47-.15-.15-.05-.31-.09-.47-.12.34.23.78.42.93.63-.45-.14-.37-.14-.38.14-.06-.33-.32-.47-.58-.57-.27-.11-.55-.18-.77-.44l.32-.57c-.41-.38-.91-.46-1.41-.49-.51-.02-1.02.02-1.65-.08.13.03.27.09.4.13-.18.24-.77,0-1.17.14.02-.22-.24-.28-.43-.39.04.14-.93.12-.94.59-.2-.05-.4-.1-.61-.13-.5.09-.72.35-.91.6-.19.26-.35.51-.77.71.13-.34-.33-.27.17-.72-.29.15-.57.26-.49.39-.24-.02-.58.71-.92.72-.05.16.06.36-.22.56-.06,0-.07-.08-.07-.08.06.08-.31.46.07.45-.57.04-1.04.51-1.44.99-.41.48-.75.98-1.23,1.12-.17.28-.35.58-.53.88-.09.15-.18.29-.26.43-.08.13-.16.25-.24.37-.03-.07-.09-.07,0-.13-.3.23-.26.41-.22.61.03.19.05.41-.33.64-.28.03-.23-.09-.15-.19.08-.11.19-.21.05-.16-.3-.2-.44-.02-.61.22-.16.24-.39.51-.7.45.03-.03.05-.06.07-.09-.11,0-.19.03-.27.08-.08.04-.16.14-.25.21-.17.16-.41.32-.67.28,0,0,.03-.06,0-.11-.09.1-.21.15-.35.19-.07.02-.14.02-.22.02-.08,0-.16,0-.24-.01-.33-.04-.64-.24-.89-.45.34-.02.3.09.42-.17-.1-.08-.17,0-.27.08-.1.06-.23.12-.44-.11,0-.25-.08-.69.17-.88.04.08.09.16.13.23.04.07.09.15.14.22.1-.21.02-.35-.1-.48-.12-.14-.27-.27-.31-.42l.17-.03c-.2-.39-.41-.57-.62-.76-.21-.19-.4-.39-.65-.88l-.06.16c-.34-.15-.33-.28-.35-.43,0-.14,0-.31-.33-.44.07-.14.14-.29.2-.43-.1-.06-.24-.14-.4-.23-.17-.08-.35-.16-.55-.23-.4-.14-.83-.22-1.17-.31.12-.04.26-.06.42-.06.16,0,.33.03.51.06.18.05.36.09.53.16.17.07.34.13.48.2-.17-.16-.49-.39-.81-.54-.32-.15-.64-.21-.78-.15.17.02.42.02.54.16-.63.05-1.25,0-2-.11.13-.4-.39-.55-1-.57-.62-.03-1.31.07-1.67-.18-.17.08-.35.14-.52.21-.17.06-.35.13-.52.2-.17.06-.36.14-.54.21-.2.07-.35.15-.52.22-.66.3-1.32.61-1.93,1.08.82.23-.36.27.11.76-.26.24-.37.31-.42.29-.37.1-.73.21-1.09.31-.32,0,.18-.32.06-.42-.65.42-.43-.03-.95.14.23.13,0,.43-.4.64l.68-.14c-.62.94-1.08.13-1.7,1.09l.13-.38c-.35.44-1.59,1.31-1.64,2.08-.13,0-.34-.04-.19-.24-.11.09-.22.18-.33.29l-.16.16-.08.08-.04.04h0c-.04.1-.08.2-.12.31-.09.07-.23.1-.4.07-.28-.07-.56-.21-.74-.4.05-.04.1-.07.15-.11-.2-.05-.47.11-.61-.18.05-.05.16-.1.08-.15-.12,0-.63-.05-.81-.31.1,0,.21,0,.31,0-.39-.41-.8-.6-1.23-.77-.43-.17-.87-.32-1.29-.64.34-.34-.26-1.15-.58-1.56l.06-.04c-.55-.57-1.15-.96-1.77-1.25-.62-.3-1.26-.53-1.97-.8-.29-.45-1.03-.86-1.94-1.12-.91-.27-1.98-.3-2.88-.29.28.04.01.38-.26.48-.2,0-.44.15-.63.26-.18.11-.33.17-.38-.05l.14-.04c-.45-.32-1.19.18-1.7.56l.26.53c-.22.03-.43.11-.63.21-.19.11-.39.24-.55.4-.35.31-.61.7-.85,1.06-.47.73-.81,1.38-1.33,1.45-.07.34-.31.65-.37.95l-.23-.21c-.27.26-.49.44-.72.64-.23.19-.47.41-.83.69l.02-.29c-.2.14-.22.39-.24.68-.03.26-.06.57-.3.67-.11-.12-.21-.24-.31-.37-.4.16-.83.16-1.19.12-.36-.04-.64-.09-1.06-.04.04-.05.11-.17.22-.15-.15-.05-.36-.26-.56-.42-.2-.16-.42-.29-.61-.02.15-.14.01-.3-.22-.5-.23-.2-.56-.45-.78-.64l.31-.09c-.58-.2-.68-.16-1.13-.71-.05-.17.14-.25.18-.02-.07-.28-.2-.34-.32-.41-.13-.07-.26-.15-.4-.49l.31.11c-.33-.53-.4-.43-.79-.55-.17-.11-.36-.34-.53-.57-.17-.23-.32-.47-.29-.62-.19.09-.61.1-.98-.08-.03-.12.14-.14.23-.14-.28-.15-.56-.19-.8-.2-.24,0-.45.05-.65.1-.4.12-.69.27-1.12.28-.06-.09-.13-.11-.2-.11.44-.21.89-.31,1.2-.34.32-.02.5,0,.46,0,0-.15-.21-.22-.35-.31-.14-.09-.22-.19.15-.41-.38.12-.86.38-1.26.67-.41.29-.74.59-1.07.75-.04,0-.09,0-.14-.02l.04-.07c-.15.08-.26.2-.33.32-.2.11-.33.19-.48.33-.23-.11-.64.49-.85.73.25.18-.05.46.39.33-.05.02,0-.07.14-.24.03-.04.06-.09.07-.12,0,.01,0,.02,0,.04.14-.16.32-.38.56-.61-.08.3-.17.58-.53.73.04.25.08.52.09.66-.6.04-1.29.5-1.57.42-.46.82-1.32,1.74-1.25,2.56-.11.25-.32.12-.45.14.05-.15.18-.29.16-.4-.11.24-.36.57-.53.83-.16.26-.26.44-.18.64-.26.08-.24-.06-.25-.13,0-.08,0-.09-.21.05,0-.05,0-.1,0-.14-.27-.06-.36-.08-.6-.06-.22.01-.5.02-.8-.05-.3-.07-.59-.21-.81-.51-.22-.29-.35-.7-.36-1.24,0,.15.01.22-.04.27-.07-.27-.16-.55-.28-.84-.06-.14-.13-.29-.21-.43-.08-.14-.16-.28-.26-.41-.37-.53-.83-.98-1.32-1.37-1-.78-2.09-1.32-3.17-1.95-.64-.31-.79-.06-1.22.06l-.1-.35c-.26.1-.51.19-.75.31-.5.1-.91-.08-1.4-.22-.48-.13-1.04-.19-1.6.23.07.05.15.12.22.18-.22.04-.56.16-.83.27-.27.1-.49.17-.5.04-.03.06-.05.27-.26.23l-.08-.15c-.3.25-.59.51-.85.79-.39.18-.47.02-.57-.1-.05-.06-.12-.11-.23-.1-.12.02-.3.08-.57.3-.18.19-.35.54-.44.82-.08.29-.09.51.01.48.14-.14.41-.29.54-.18-.07.12-.14.25-.21.37.17.19.31.43.51.56.21.13.47.15.88,0,.05-.21.14-.41.23-.62l.3.09c-.13.1-.25.21-.37.31.35,0,.36-.25.44-.49.11.08.23.12.35.1.06-.24.16-.47.25-.71.15.15-.04.47.35.4.15-.32-.44-.28-.09-.62.37.09.36.31.59-.01.09.11.05.21-.04.32.1-.13.29-.21.44-.3.16-.08.3-.17.35-.32.36.2,1-.28,1.04.21.04-.06.15-.17.3-.27.15-.09.32-.18.46-.19-.24.3.02.29.31.31.3.02.63.07.53.38.1-.12.23-.18.39-.22.15-.02.33-.02.51.01.36.05.74.17,1.1.16-.05.03-.15.08-.19.04.17.08.25.17.32.27.07.1.12.18.2.28.11-.18.31-.23.53-.24.22,0,.46.03.67.01.08.3-.05.36-.21.41-.16.05-.34.07-.39.28.08-.15.28-.12.48-.1.18.04.36.08.39-.08.11.41.15.29.05.66.2-.18.28-.15.35-.07.07.08.15.18.36.18.07.27-.02.37-.05.45-.03.08-.02.11.19.26,0,.15-.11.15-.2.13-.1-.02-.2-.07-.2-.07h0Zm12.08-2.43h0c-.08.07-.15.13-.2.17.04-.04.1-.09.19-.17Zm.87-.4c-.11.01-.25.05-.39.11-.07-.08-.08-.2.02-.23-.03.08.22.06.37.12Zm-3.36-.24c.13-.2.22-.21.29-.19-.07.08-.15.18-.25.32,0,.01,0,.03,0,.04-.03-.06-.06-.11-.05-.17h0Z"/><path class="cls-1" d="m321.53,3.12c-.2-.13-.35-.18-.45-.18-.1,0-.15.03-.19.09-.07.11-.08.28-.21.35-.25-.08-.4-.14-.49-.19-.09-.06-.11-.12-.11-.17,0-.12.1-.26-.07-.4-.18-.01-.36-.01-.52.01-.17.03-.32.07-.46.12-.14.03-.28.1-.4.14-.13.04-.25.06-.37.08-.04-.06-.14-.07-.04-.17-.33.21-.82.32-1.27.54-.23.1-.44.23-.62.37-.18.14-.32.31-.41.49-.06,0-.1-.01-.13-.03.21.1.34.26.4.39-.25.19-.3.55-.55.43.15-.12.09-.21.11-.33-.07.1-.12.2-.18.3-.48-.09.26-.4.1-.61-.48.52-.76,1.27-1.15,1.57-.37-.17.69-.94,0-.68.21-.16.44-.31.66-.46-.42-.01-.33-.08-.23-.17.1-.08.21-.18-.22-.21-.44.34-.61.6-.77.86-.16.26-.31.51-.66.9.03.31.29.12.33.42-.26.71-.55.76-.86.8-.3.04-.54.04-.61.53.06.32.36.72-.26,1.01-.05-.15-.1-.3-.16-.44-.28.27-.26.44-.26.61,0,.17-.04.33-.44.45.02-.2.37-.48.26-.44-.3.03-.32.13-.33.26,0,.12.04.28-.13.39-.09-.09-.18-.18-.26-.28-.29.21-.57.43-.91.58-.33.15-.71.21-1.11.14.08-.09.21-.18.09-.33-.44-.02-.82-.29-1.11-.73-.29-.44-.48-1.04-.64-1.63-.17-.09-.33-.19-.5-.29-.04-.1.04-.25.15-.17-.1-.51-.2.06-.41-.1-.15-.25,0-.43.17-.3-.32-.35-.75-.91-1.21-1.49-.24-.29-.49-.58-.73-.86-.27-.29-.51-.55-.72-.78l.26.06c-.18-.17-.37-.25-.54-.29-.17-.04-.33-.02-.47,0-.15.01-.28.04-.43.02-.15-.02-.3-.06-.49-.17l.17-.02c-.24-.07-.49-.13-.75-.14-.26-.03-.52-.01-.78.02-.13,0-.25.04-.38.07-.12.03-.25.05-.37.09-.23.08-.48.16-.69.27-.87.41-1.54.92-2.2,1.25.03.13-.03.26-.14.4-.11.14-.27.29-.41.44-.29.3-.52.63-.29.86-.41.31-.59.4-.79.54-.2.13-.43.39-.8.79-.18.24.1.6-.07.96l-.28-.19c0,.2-.01.42-.03.62-.17-.02-.32-.03-.48-.06-.05.11-.11.2-.17.31.11-.09.31-.11.37-.03-.06.12-.17.24-.28.34-.12.09-.26.16-.38.21-.26.08-.49.09-.54.02-.24.3-.51.56-.8.78-.02-.12.11-.25.19-.38-.35.54-.22-.28-.53.17.08.05.02.21.03.27-.29-.13-.71-.1-1.11-.13.04-.07.09-.14.13-.21-.28-.08-.55-.2-.88-.42-.33-.23-.67-.56-.99-1.03.14.39-.23.56-.46.31l.21-.32c-.31-.05.1.36-.39.16-.21-.39.17-.47.4-.33-.13-.12-.26-.24-.39-.36.07-.08.19-.01.32-.06-.31-.05-.19-.96-.69-1.02l.07-.08c-.64-1.03-1.05-1.46-1.67-2.31-.27.16-.46-.22-.85-.31-.4-.67-.84-1.53-1.72-2.14-.34-.16-.43-.13-.47-.07-.04.06-.04.14-.23.14.05-.13-.15-.33-.3-.47-.15-.14-.26-.23.04-.21-.3-.13-.55-.22-.78-.31-.23-.07-.45-.11-.67-.16-.22-.06-.46-.06-.74-.07-.14,0-.29-.01-.46,0-.17.02-.35.04-.54.06.17.12.35.17.26.27-.14.02-.29-.01-.41-.07-.12-.05-.2-.11-.19-.18l.08-.04c-.22.07-.44.12-.68.15-.23.05-.46.09-.71.12-.24.04-.49.09-.73.13-.25.05-.48.12-.73.18-.96.27-1.81.75-2.11,1.41l.04-.07c-.13.19-.27.39-.39.58-.12.2-.24.39-.35.59-.44.42.08-.42-.34-.2-.31.7-.66,1.12-1.01,1.51-.34.4-.67.76-.86,1.32-.15.03-.28.1-.41.19-.07.05-.13.1-.19.15-.06.05-.11.1-.16.16-.2.23-.4.51-.6.81-.4.59-.87,1.18-1.42,1.32l.17.11c-.07.31-.31.13-.48.21.12.11.33-.05.27.14-.77.8-1.83,1.34-2.82,1.4-.12.02-.24,0-.36,0-.12,0-.24,0-.35-.03-.11-.02-.22-.04-.33-.06-.11-.04-.21-.07-.31-.1-.1-.02-.2-.09-.3-.13-.1-.05-.2-.08-.28-.14-.18-.1-.33-.23-.48-.36-.05-.05-.1-.07-.16-.09-.05-.02-.11-.02-.16,0-.11.02-.23.07-.34.09-.22.06-.46.05-.56-.48.15,0,.3,0,.45-.01-.61-.41-1.01-1.22-1.37-2.07-.37-.86-.74-1.82-1.44-2.64.14.07.24.01.33.2.01-.26-.21-.63-.47-.91-.27-.28-.57-.46-.65-.39-.21-.28.1-.19.03-.43-.11-.24-.4-.41-.66-.54-.26-.14-.5-.24-.54-.42-.02-.06.17.01.26.05-.09-.02-.21-.1-.34-.18-.14-.08-.29-.17-.43-.24-.29-.13-.5-.19-.42.02-.09-.07-.19-.12-.28-.18-.1-.04-.2-.08-.3-.11-.2-.07-.4-.12-.6-.14-.19-.03-.38-.07-.56-.09-.18-.02-.35-.06-.52-.13-.12.07-.26.11-.42.11-.16,0-.33-.02-.48-.02-.32,0-.6,0-.64.26,0-.13-.09-.2-.24-.24-.15-.04-.35-.04-.56,0-.43.07-.88.3-1.08.49.11-.2-.46,0-.35-.26-.28.1-.53.24-.68.37-.15.13-.21.25-.11.35-.6-.03-1.03.34-1.36.69-.34.35-.6.66-1.08.56-.14.17-.29.34-.41.51-.12.17-.25.33-.36.49-.23.33-.44.65-.64.97-.4.64-.75,1.26-1.08,1.86-.19-.16.01-.48.22-.79.2-.31.41-.61.18-.75-.33.61-.49,1.13-.68,1.61-.19.49-.4.95-.8,1.43-.24.23-.08-.27-.08-.41-.54,1.15-1.39,1.91-1.9,2.81-.03-.03,0-.15.05-.25-.12.16-.37.27-.2.42.03-.06.07-.12.1-.18.23,0,.22.27.13.55-.08.29-.23.59-.19.67-.07-.36-.3-.22-.52-.12-.23.09-.43.15-.46-.34-.08.11-.15.3-.04.4-.19.07-.29.03-.22-.21-.52.49-.19.56-.76.88-.05-.1.05-.19.04-.34-.18.34-.4.69-.95.81,0-.07-.08-.13.07-.19-.43.18-.76.44-1.16.62-.38.2-.83.32-1.35.21.31-.45-.34-.18-.34-.59-.17.02-.34.03-.51.04.05.08.11.15.16.23-.23-.03-.45-.04-.68-.04-.22-.02-.44-.05-.59-.21.13,0,.26,0,.39-.02l-.21-.06c-.07-.02-.13-.05-.2-.08-.13-.06-.27-.11-.4-.18.11.14.24.25.36.38-.26-.02-.32.1-.37.17-.04.07-.1.12-.37-.13.07.02-.04-.05-.18-.17-.13-.14-.28-.32-.3-.49-.13-.04-.27-.08-.41-.15-.13-.07-.24-.2-.34-.37.04-.16.4-.24.42-.34-.2.02-.42-.19-.61-.42-.2-.23-.39-.49-.64-.53.13.05.32-.06.34-.12-.12,0-.23-.02-.35-.04-.05-.26-.02-.31.14-.36-.31-.66-.35.46-.57-.41.05.05.07,0,.18.11-.31-.82-.93-1.46-1.18-2.27.26-.41.42.61.6.21-.07-.13-.15-.26-.24-.39-.09-.13-.17-.26-.28-.4-.2-.28-.43-.53-.65-.78-.46-.49-.93-.93-1.32-1.41.04.06.09.13.13.2-.27.13-.37-.06-.5-.34-.13-.27-.29-.62-.64-.69.15.06.36-.13.29-.11-.32-.3-.71-.54-1.21-.71-.48-.18-1.07-.29-1.73-.32l.19-.12c-.12-.06-.27-.1-.44-.14-.16-.05-.35-.04-.53-.06-.18-.02-.37,0-.54.01-.18,0-.35.02-.49.05-.14.19-.46.24-.21.4-.12-.03-.24-.04-.35-.03-.12,0-.23.01-.34.04-.22.05-.43.13-.62.25-.38.22-.67.55-.9.89-.46.68-.71,1.35-1.38,1.79.08-.15.09-.42.03-.3-.17.38-.32.75-.47,1.12.27.04.21-.06.5-.18.06.2,0,.55-.14.8.11-.54-.36-.19-.59-.07.09,0,.12.12.2.14-.35.15-.25.23-.15.35.1.12.2.29-.16.53l-.08-.11c-.06.14-.1.29-.16.44-.07.14-.14.29-.28.39-.15-.06-.12-.14-.07-.23.05-.09.11-.19.03-.28-.14.17-.2.42-.3.64-.1.22-.24.41-.5.41.12-.17.33-.35.42-.54-.56.02-.53.1-.82.23.01,0,.02,0,.03-.01l-.34.12c-.11.04-.23.06-.34.09h.2c-.02.23-.11.39-.22.49-.06.05-.12.1-.18.13-.07.03-.14.05-.21.07-.14.05-.3.06-.46.12-.08.03-.16.05-.25.08-.09.04-.18.09-.28.14.19-.1.28-.2.32-.25.04-.06.03-.08,0-.11-.05-.05-.18-.07-.16-.24-.16-.09-.35-.22-.28-.3-.07.05-.13.06-.18.05-.03,0-.05-.02-.08-.03-.02-.02-.04-.04-.07-.06-.04-.04-.09-.07-.15-.08-.06-.02-.14-.02-.28.02.05-.09-.2-.17.03-.34-.13-.06-.15-.03-.16.05,0,.07.03.18-.03.22-.33-.03-.47-.41-.54-.81-.08-.4-.16-.91-.55-1.35-.44-.82-.83-.91-1.17-1.74.12-.32.43.16.43.16.07-.49,0-.82-.19-1.25.1.08.17-.02.28-.17-.07-.34-.41-.19-.3-.67.12.07.33.16.46.31-.14-.39-.36-.78-.46-1.21.18-.12.29.25.42.39-.11-.46-.19-1.22-.47-1.38l-.12.31c0-.18.26-.08.31.04.23.41-.1.59-.21.62l-.07-.31c-.31.16-.28.48-.17.82.12.35.32.71.33,1.02-.16-.07-.32-.14-.48-.21.15.2.29.4.45.6-.1.15-.34.28-.45-.02-.16.48.21.37.03.8-.03.05-.06.03-.08,0l.21.42c-.11-.07-.3.14-.29-.15-.11.86.61,1.2.35,1.57l-.04-.06c.22.52.32.52.42.48.11-.04.23-.12.54.21-.21.26-.41.52-.61.8h.36c.03.1.1.33-.04.34.39.31.1-.13.4.02-.02.32.22.65.46.89.24.25.46.41.39.68.16-.05.06-.17,0-.25-.05-.08-.06-.11.24-.04-.04.14,0,.24.06.3.07.05.18.07.3.08.12.02.25,0,.38,0,.07,0,.13.02.19.04.07.01.13.04.19.07-.18.3-.74.03-.18.39.1-.12.22-.16.35-.17.13-.02.27,0,.42.03.15.02.31.04.46.05.15,0,.29-.02.4-.08-.04-.19.18-.31.48-.45.3-.15.69-.34.95-.62,0,.03.1.01.23-.05.12-.07.31-.17.49-.3.38-.26.78-.65,1.05-.92l.04.06c-.23-.36.18-.9.35-1.38.2.13.24.26.2.55l.23-.41c-.06-.16-.05-.32.05-.6l.21.25c.14-.27.21-.57.32-.87.11-.3.27-.6.57-.82-.1-.11-.34-.11-.52-.17-.18-.06-.31-.2-.1-.6.14.07.35.22.27.42.03-.06.06-.28.21-.34-.01.13-.01.27-.02.41.3-.19-.05-.28.16-.46.15.15.25-.03.34.12-.03.06-.22.1-.23.23.23-.19.57-.33.75-.25-.09-.08-.18-.23-.03-.38.45-.29.29.11.59.09.04-.2.39-.16.29-.47.15-.05.22.1.29.17.05-.05.15-.1.27-.14.12-.03.25-.05.37-.08.23-.05.41-.09.26-.27l-.07-.02s.03,0,.05-.01c.48-.17,1,0,1.44.24.45.24.83.57,1.26.79l-.07.09c.27.11.53.31.78.49.24.19.48.36.7.44.12.13.12.44-.03.47.34.29.48.27.69.91-.4-.27-.05.21-.37-.3.13.26.16.44.24.6.08.16.18.3.46.5-.34-.07-.11.56.09.79v-.47c.17.27.27.54.38.81l-.4.02c.07.66.51,1.11.9,1.53.4.42.76.79.74,1.44.21.08.14-.1.08-.29-.06-.19-.11-.38.1-.32.14.27.21.61.25.91.06.3.1.56.17.64.12.2.24.33.36.4.13.07.26.1.38.12.26.05.51.07.85.41-.03-.18.1-.5.71-.26.49.33.44.85.02.75-.15-.06-.2-.14-.17-.17-.21-.06-.48-.18-.33.09l.14-.07c.11.15.38.31.59.46.22.13.37.24.23.3.54.08.28-.12-.05-.32.19.12.35.23.53.29.18.06.34.11.51.15.34.06.69.12,1.13.2-.14-.08-.26-.24-.12-.23.32.07.52.07.64.05.13-.02.18-.06.23-.1.08-.09.11-.21.52-.28.5.14-.1.51.71.19.54.01.2.32,0,.46.19-.1.38-.17.55-.21.18-.04.36-.06.53-.08.17-.02.34-.02.49-.03.15-.02.28-.04.4-.07-.12.09-.24.18-.36.27.22-.16.41-.24.61-.33l-.33-.14c.25-.05.44-.15.48-.05.15-.27-.36-.31-.03-.73.35-.03.74-.59,1.02-.37-.44.23-.39.27-.29.34.1.07.23.15-.14.39.12-.12.3-.21.54-.32.05.01,0,.08-.04.13.5-.15.55-.29.56-.47.01-.18.02-.38.4-.69.02.23.42.13.52,0-.32.26-.35-.12-.19-.48.57-.32.41-.56.65-.78l-.31.22c-.05-.23.18-.43.4-.79.14.07-.17.36-.02.29.03-.29.26-.43.52-.59.26-.16.54-.34.64-.67.28-.16.31.19.54.03.21-.73.67-.49.91-1.22-.34.03-.3.09-.23-.48l-.53,1.11.12-.86c-.21.3-.3.73-.46.89.04-.43.07-.36-.21-.34.61-.19.37-.95.91-1.27l.53.38c.72-.54.57-1.44,1.36-2.17l-.3.2c-.12-.28.38-.54.53-.86.14.17.34.06.53.05-.13-.11.53-.51.31-.88.17-.03.35-.05.52-.07.09-.05.16-.1.22-.16.06-.05.11-.11.15-.17.09-.12.13-.26.19-.38.11-.26.23-.53.62-.68-.11.32.28.3-.1.68.23-.11.45-.19.39-.33.1.03.23-.11.38-.25.15-.14.33-.25.48-.2.07-.13.04-.35.34-.42.04.03.03.1.03.1-.01-.05.09-.12.16-.2.07-.07.11-.15-.05-.24.5.23,1.04.11,1.6.08.55-.03,1.11.01,1.36.39.53.06,1.16.29,1.56.59-.07.03-.07.08-.13.01.2.28.37.24.57.21.19-.03.41-.03.6.37,0,.54-.42-.22-.36.07-.24.28-.08.43.14.63.21.2.49.47.43.81l-.1-.1c-.01.47.72.81.97,1.53,0,0-.07,0-.1.04.54.32,1.04,1.2,1.5,1.81-.36-.07-.29-.24-.47.03.2.28.35-.3.75.25-.02.26.15.75-.04.99-.14-.18-.28-.37-.4-.56-.08.25.06.44.23.61.18.16.38.29.49.45l-.16.08c.4.4.71.5,1.01.59.15.05.3.09.47.15.17.07.37.15.63.28-.02-.06-.04-.11-.05-.17.37-.07.45.03.55.14.09.11.2.23.53.16.02.16.05.31.09.46.22-.02.61-.04,1.01-.15.1-.02.2-.05.3-.07.1-.02.2-.07.3-.1.2-.07.38-.11.55-.18-.16.21-.46.35-.79.49-.17.05-.35.1-.52.14-.09.02-.17.05-.25.06-.08.01-.16.03-.23.04.22.05.59.04.94.01.34-.05.64-.16.73-.28-.16.06-.37.19-.54.14.5-.38,1.06-.65,1.77-.92.04.21.19.28.4.26.2-.02.48-.11.75-.26.14-.07.28-.14.42-.21.13-.08.27-.15.4-.21.27-.12.5-.2.72-.17.47-.55.99-.99,1.52-1.47.54-.47,1.09-1,1.53-1.68-.86.09.25-.4-.37-.69.16-.31.24-.41.29-.41.31-.21.61-.42.92-.61.3-.08-.06.34.08.41.46-.55.41-.09.83-.35-.25-.06-.13-.41.2-.66-.2.08-.4.17-.6.26.34-1.02.96-.33,1.34-1.26-.02.12-.04.24-.05.36.12-.22.43-.54.71-.87.14-.16.29-.32.39-.49.11-.16.19-.33.21-.51.11.02.3.11.16.27.47-.26.91-.63,1.41-.89.49-.25,1.05-.34,1.45-.16l-.09.16c.09-.03.18-.09.28-.13.1-.04.2-.04.3.05-.03.07-.11.15-.02.17.03-.01.07-.03.14-.05.06-.01.13-.02.21-.03.15,0,.33-.01.43.09-.09.02-.18.07-.26.11.11.05.21.12.3.16.1.04.19.07.29.1.18.08.38.1.58.14.19.05.4.09.61.16.2.08.41.17.6.33-.17.17-.13.44-.03.71.09.29.26.57.36.79l-.06.03c.75,1.11,1.65,1.77,2.58,2.85.02.51.37,1.17.91,1.9.28.37.62.74,1.01,1.09.39.35.83.66,1.26.91-.24-.2.19-.31.51-.27.19.1.5.09.73.09.23-.02.4,0,.35.22l-.15-.02c.07.11.19.2.33.26.15.06.33.07.52.07.19,0,.39-.03.58-.07.1-.02.19-.04.29-.06.09-.03.18-.06.26-.08-.02-.2-.05-.39-.08-.58.47.07.96-.09,1.4-.33.42-.26.8-.61,1.1-.97.61-.71,1-1.4,1.54-1.53.09-.38.33-.76.38-1.13l.26.17c.25-.35.43-.61.63-.89.19-.26.38-.56.66-.95l.05.29c.09-.1.12-.22.11-.35,0-.12-.03-.26-.06-.4-.06-.28-.1-.56.08-.76.14.08.29.16.43.24.34-.31.77-.48,1.13-.58.37-.11.66-.18,1.01-.38-.01.07-.04.19-.14.22.08-.01.19.04.3.05.06.02.12.05.18.06.06.02.13.03.18.05.22.06.42.09.52-.22-.05.09-.03.16.02.22.05.06.14.09.25.15.22.09.54.23.77.38-.1.04-.2.08-.29.13.27.03.44.06.59.13.15.07.28.17.49.44.04.16-.15.24-.18.02.1.53.45.22.59.89l-.28-.14c.22.51.29.43.64.62.26.27.42,1.03.23,1.25.19,0,.54.17.68.52-.06.1-.19.03-.25-.02.21.51.56.79.89.99.33.21.63.34.91.67-.03.1,0,.17.04.23-.44-.22-.79-.49-1-.7-.22-.21-.31-.34-.29-.32-.1.09-.03.29-.01.45.03.15-.02.27-.39.17.31.17.78.36,1.26.49.48.14.94.22,1.3.37.03.04.06.07.08.12-.03,0-.06.01-.09.01.17.07.35.06.51.04.24.09.42.1.67.12.05.13.3.13.59.1.15-.01.29-.06.43-.1.14-.04.27-.07.36-.11-.12-.29.36-.41-.16-.49.06,0-.05.07-.3.14-.05.02-.12.04-.15.07,0,0,.01-.02.02-.03-.06.02-.13.03-.2.05-.07,0-.15.02-.23.03-.16.02-.34.05-.53.04.08-.04.15-.07.23-.11.08-.04.15-.07.23-.1.08-.03.17-.04.26-.04.09,0,.19,0,.3.01.15-.23.26-.49.33-.62.14.06.32.1.49.11.18.01.37,0,.53-.01.35-.03.64-.09.77-.02.41-.4.85-.85,1.17-1.32.32-.47.52-.95.46-1.36.1-.27.32-.16.46-.19-.05.17-.16.32-.15.44.11-.27.33-.62.48-.94.14-.29.23-.56.1-.73.53-.4.08.5.55-.22l.03.17c.38-.22.63-.48.84-.76.2-.28.37-.58.57-.88.2-.28.44-.57.78-.73.32-.17.75-.23,1.15-.02-.11-.04-.17-.07-.2-.13.47.05.92.16,1.34.35.42.2.83.49,1.24.87.41.38.79.82,1.22,1.27.21.22.42.45.64.67.21.23.43.45.64.68.25.25.45.31.61.33.17.02.33-.02.56-.02l-.02.36h.4s.4-.04.4-.04c.13.02.24.05.34.1.11.04.21.1.3.16.19.13.37.3.57.44.2.15.41.3.66.38.25.08.54.12.88.04l-.12-.25c.44.14,1.42.06,1.32.3.05-.04.16-.22.33-.1v.17c.38-.07.75-.18,1.11-.29.43.04.41.21.44.37.02.08.04.16.15.21.11.05.29.08.62.04.12-.03.26-.1.4-.17.14-.08.27-.18.39-.27.23-.18.36-.35.26-.39-.19.03-.49,0-.54-.18l.38-.17c-.02-.26,0-.53-.09-.75-.09-.22-.3-.41-.76-.49-.18.13-.38.26-.57.4-.08-.07-.15-.15-.23-.23.17-.01.34-.05.51-.08-.16-.09-.28-.08-.38-.03-.11.05-.2.14-.29.22-.06-.13-.15-.21-.27-.25-.19.17-.39.33-.6.5-.07-.2.27-.4-.13-.51-.3.21.27.46-.22.59-.3-.25-.19-.42-.56-.26-.04-.14.05-.21.19-.25-.16.06-.37.05-.56.07-.19.01-.36.02-.47.14-.07-.08-.16-.13-.28-.17-.11-.04-.23-.06-.34-.09-.22-.06-.38-.13-.3-.36-.12.08-.64.22-.92.13.35-.18.09-.28-.19-.4-.28-.13-.6-.3-.41-.55-.14.08-.29.09-.45.07-.16-.03-.33-.09-.5-.18-.17-.09-.35-.18-.51-.27-.17-.09-.35-.16-.52-.22.06,0,.16-.03.19.03-.26-.27-.25-.45-.35-.68-.16.14-.36.13-.58.08-.22-.05-.45-.18-.66-.22-.04-.66.59-.11.77-.5-.12.13-.33.03-.53-.08-.2-.1-.39-.21-.43-.04-.1-.49-.16-.36-.06-.77-.22.16-.31.1-.42,0-.1-.1-.23-.26-.49-.26-.2-.33-.18-.46-.18-.55,0-.09-.05-.16-.48-.31-.15-.17-.03-.21.14-.2.17,0,.37.08.37.08h.02Zm-13.03,7.13h0c.1.02.18.03.24.03-.05,0-.12,0-.24-.03Zm-.85-.43c.08.08.21.17.34.24-.02.11-.11.19-.19.13.08-.03-.09-.21-.15-.37Zm2.23,2.63c-.28.08-.38.02-.42-.04.13-.02.28-.04.47-.09,0-.01.02-.03.03-.04-.01.06-.04.12-.08.17Z"/></g></svg>