<?xml version="1.0" encoding="UTF-8"?><svg id="Layer_2" xmlns="http://www.w3.org/2000/svg" viewBox="0 0 329.29 225.07"><defs><style>.cls-1{fill:#fff;}</style></defs><g id="shapes"><path class="cls-1" d="m54.7,19.94c2.74-1.49,1.06-.95,1.51-1.41.79-.48,1.32-.73,1.67-.86.34-.14.5-.17.59-.16.17.02.09.19.74-.01,2.09-1.06,3.51-2.1,5.15-2.81.16,0,.5-.12.16.08,2.21-1.14,6.95-2.9,9.68-4.05.22-.05.35-.06.42-.06-.55.02-.72-.09-.7-.22,1.39-.48,2.48-1.06,3.12-1.06-.86.29-.88.38-1.25.58l1.41-.58c1.48-.19-1.94.77-1.81.96,2.75-1.12,6.11-2.21,8.39-2.81.62.12-5.21,1.59-2.07.96l-3.54.89c2.9-.37-2.11.6.58.3,2.3-.62,3.56-1.01,4.81-1.41.63-.19,1.26-.39,2.01-.62.78-.19,1.69-.4,2.87-.65.98-.39-.46-.13.52-.52,1.64-.45,2.8-.71,3.7-.87.9-.15,1.57-.16,2.16-.19,1.19-.05,2.14-.06,4.57-.69.61-.2,1-.43,1.71-.62.71-.18,1.74-.36,3.59-.52l-1.13.47c2.38-.3,3.01-.5,3.69-.68.67-.18,1.38-.36,3.94-.48-.43.1-1.36.21-2.1.3-.74.09-1.26.18-.9.14,3.33-.11,2.25-.4,4.75-.64l.6.22c1.28-.11,2.58-.3,3.92-.39,1.34-.1,2.72-.21,4.1-.31,2.76-.26,5.65-.34,8.54-.42-.31.08-1.28.18.09.25.91-.03,1.83-.06,2.77-.08.94.01,1.9.02,2.86.03,1.93.04,3.88.05,5.82.14,3.91.24,7.78.45,11.35.85l2.71-.02c.64.05,1.18.19.5.18,2.78.3.13-.14,1.47-.12,1.58.15,2.09.35,1.09.31,4.9.28,14.01,1.13,19.16,2.27l-1.02-.09c4.02.74,4.59.22,8.3,1.12l-.72-.09c8.72,1.57,18.35,3.53,24.88,5.45.66,0,2.79.55,4.84,1.08,2.05.52,3.99,1.07,4.33.92,4.85,1.53,3.44,1.19,10.27,3.3,1.83.54,2.82.5,5.1,1.14v.24s3.13.69,3.13.69l1.53.78,2.13.61c-.83-.28-1.74-.67-1.6-.69,3.35.91,7.93,2.78,7.96,2.93,2.58.83,5.15,1.71,7.7,2.63-.21.02-1.49-.44-2.52-.77,4.14,1.34.63.49,4.4,1.76-.47-.25.33-.02.44-.02,1.76.87,5.86,2.66,8.83,4.07l-.66-.14c5.3,2.61,11.01,5.79,16.26,9.56-1.84-1.39-1.18-1.3.39-.21l.42.62c1.12.61-1.54-1.22.66.11,1.92,1.46,1.07,1.17-.11.4.8.56,1.61,1.12,2.4,1.7.07.16-.5-.23-.72-.28,1.1.61,3.72,3.26,5.23,4.21l.05.15c4.76,4.14,6.77,6.14,10.22,9.78.29-.04,1.53,1.44,2.71,2.46,1.11,1.42,2.29,2.91,3.45,4.51,1.12,1.61,2.36,3.27,3.53,5.04,1.8,2.44.69.65,1.6,1.73-.07.25,2.11,3.83.82,2.02.65,1.07,1.24,1.95,1.69,2.76.46.81.88,1.54,1.31,2.31.45.76.91,1.56,1.39,2.53.49.97,1.13,2.08,1.8,3.48-.15-.63-.46-1.32-.2-.99.51,1.02.93,2.36.75,2.22l-.14-.27c.4.79.77,1.61,1.15,2.45.34.85.65,1.73.97,2.61.68,1.76,1.11,3.6,1.64,5.37.43,1.78.85,3.52,1.24,5.14.33,1.62.75,3.11,1.11,4.39l-.08-.29c.39,1.78.88,3.57,1.16,5.35.28,2.46-.39-1.48-.3.33,1.14,5.77.81,9.08.99,13.79-.18.89-.34,2.12-.48,3.56-.1,1.44-.26,3.07-.43,4.74-.12,1.67-.44,3.36-.67,4.94-.28,1.57-.66,3-1.02,4.16l.23-.23c-.08,1.27-.47,1.44-.73,2.32.17-.09.5-1.27.4-.5-2.33,10.35-7.59,20.61-14.38,29.46-2.54,3.21-.55,2.32-4.3,6.08l.68-1.29c-1.2,1.67-2.76,3.16-4.21,4.72-1.5,1.53-2.92,3.13-4.66,4.5-1.66,1.43-3.31,2.85-4.95,4.26-1.75,1.32-3.5,2.62-5.17,3.95.36-.35.29-.42.98-.91-.82.46-2.17,1.45-3.31,2.33-1.22.82-2.21,1.55-2.16,1.62-1.17.71-.39.05-1.17.43-1.68.87-3.72,2.68-4.76,3-.17.06.43-.29.69-.5-.97.7-5.07,2.68-3.84,2.33-1.53.74-2.92,1.51-4.24,2.24-1.35.7-2.7,1.28-3.98,1.79-1.45.93-5.38,2.33-5.71,2.8-.02-.41-5.89,1.89-7.83,2.82.31-.18-.16-.04-.6.1-.46.12-.92.21-.55.02-2.42.77-4.6,1.53-4.07,1.57-1.18.25-2.32.57-3.42.92-.54.18-1.08.36-1.6.53-.54.16-1.05.31-1.57.46-2.02.6-3.82,1.11-5.26,1.18-.91.26-1.82.52-2.73.77-.92.24-1.84.42-2.75.64-1.83.41-3.62.81-5.39,1.2-1.76.43-3.56.71-5.33,1-1.77.29-3.54.58-5.29.87.11-.39,7.75-1.21,7.28-1.52-3.29.57-5.87,1.08-8.45,1.56-2.61.41-5.27.69-8.64,1-1.75.13.94-.25,1.5-.37-1.68.19-3.32.44-4.98.52-1.66.09-3.29.18-4.9.27-1.61.09-3.19.18-4.76.27-1.57.03-3.13.06-4.66.12,0-.04.67-.07,1.29-.11-1.21.02-2.83-.02-2.67.13l1.17-.06c1.99.22-4.74.53-4.95.66,1-.26-.53-.22-1.93-.34-1.4-.09-2.63-.2-1.02-.43-.8,0-1.8.04-1.6.15-1.2-.07-1.59-.15-.39-.23-4.38-.08-2.8.15-6.77,0,0-.08.81-.07,1.21-.16-.99.06-2,.04-3.19,0-1.18-.05-2.53-.14-4.22-.31.2-.03-.2-.13.81-.04-2.89-.24-5.36-.28-7.91-.55-2.54-.24-5.17-.45-8.34-1.04,1.9-.05-2.15-.44-2.47-.78-1.14-.15-2.28-.27-3.42-.47.45.12.9.27,1.36.39-2.99-.54-5.65-.82-8.2-1.4.75.12,1.49.2,2.23.3-1.87-.3-3.72-.71-5.58-1.09l3.14.79c-3.03-.51.26.43-3.69-.51.82.13-2.99-.62-4.5-1.18h0c-1.48-.27-3.01-.56-5.18-1.18-.55-.23.54-.2.18-.34-.37-.03-1-.15-1.74-.32-.75-.19-1.62-.43-2.5-.67-1.77-.48-3.58-.98-4.52-1.11.62.11.7-.02.51-.11l-1.26-.16c-1.33-.49-1.51-.58-1.25-.63-4.02-1.33,1.16.76-3.58-.93.38.1.21.02,1.01.24-1.19-.41-2.39-.79-3.54-1.16-1.15-.4-2.3-.79-3.42-1.19-2.26-.78-4.48-1.52-6.59-2.45-1.14-.76,3.79,1.43,2.44.63-1.55-.59-3.14-1.2-4.74-1.8-.8-.3-1.6-.6-2.4-.9l-2.37-.98c-1.58-.66-3.15-1.32-4.69-1.96-1.51-.7-3-1.42-4.43-2.13l1.06.55c-.51-.02-1.57-.59-2.85-1.3-1.31-.69-2.78-1.67-4.26-2.32.72.35,1.06.29.84.24-1.89-1.07-3.92-2.03-6.07-3.28-2.17-1.23-4.67-2.52-7.42-4.26l.75.36c-1.03-.72-2.43-1.64-3.84-2.55-1.41-.93-2.76-1.94-3.86-2.73-.74-.38-1.99-1.29-1.35-.65-1.62-1.29-3.13-2.59-4.7-3.8-.78-.61-1.56-1.21-2.34-1.79-.79-.58-1.5-1.21-2.24-1.81-1.47-1.21-2.95-2.37-4.31-3.6-1.32-1.25-2.6-2.52-3.77-3.82.62.59,1.56,1.35,1.07.88-.75-.7-1.51-1.38-2.23-2.08l-2.1-2.16c.15.44.43.63,1.17,1.63-.62-.5-1.87-1.69-2.9-2.78,1.97,1.91.27-.17-.42-1.06.08.17-.26-.09-.25.01-1.74-2.48-.72-.21-3.25-3.53l.24.13c-1.05-1.2-2.2-2.22-3.14-3.59-.19-.65,1.08,1.29,1.37,1.28-1.47-1.86-3.24-3.55-4.31-5.34.67.78,1.54,1.93,2.2,2.71-1.13-1.96-1.37-2.14-2.34-3.54l.09.14-2.06-3.3.48.86c-1.09-1.11-2-2.32-2.81-3.68-.8-1.37-1.63-2.84-2.81-4.45,2.28,3.13.53.47.96.65-.43-.86-1.07-2.18-.77-1.83-1.02-1.54-1.16-2.69-2.62-4.87.02-.06-.19-.48-.36-.85-.14-.38-.23-.7-.04-.54-.96-2.09.05.52-.14.37-.84-1.59-1.55-3.51-2.34-5.6-.64-2.11-1.39-4.38-2.35-6.73-1.21-4.07-1.9-4.81-2.68-8.63-.08-1.29.54,1.05.54,1.05-.12-1.04-.25-1.94-.41-2.84-.09-.45-.17-.89-.26-1.34-.06-.46-.13-.91-.2-1.4.12.4.16,0,.21-.6-.17-1.56-.46-1.06-.51-3.11.14.36.36.83.54,1.58-.12-.92-.32-1.84-.41-2.76-.07-.92-.15-1.85-.2-2.81.16-.48.27,1.17.38,1.84-.05-1.07-.11-2.45-.16-3.64-.11-1.2-.04-2.2-.17-2.55l-.21,1.34c.05-.77.26-.36.27.21.22,1.85-.07,2.61-.17,2.71l-.07-1.36c-.28.66-.25,2.02-.15,3.56.03.38.04.78.1,1.18.06.4.13.8.19,1.19.12.79.23,1.56.29,2.24l-.52-1.16.61,2.83c-.05.59-.24,1-.44-.36-.02.98.08,1.42.2,1.82.11.4.2.77.24,1.61,0,.18-.03.1-.09-.07l.47,1.93c-.15-.38-.24.33-.39-.86.19,1.73.49,3.13.9,4.26.36,1.12.64,1.97.66,2.64l-.1-.29c.69,2.4.8,2.51.9,2.46.08-.04.16-.23.94,1.53l.09,2.47.45.43c.16.49.47,1.47.29,1.3.92,1.79-.02-.32.61.7.73,2.38,2.81,6.43,2.72,7.02.63.79-.95-2.24.44.19-.11.8,1.47,2.84,2.4,4.98-.65-.57-1.48-2.61-.65-.45,1.15,1.15,2.27,4.07,3.37,5.8.19,0,.84.92,1.71,2.2.42.64.91,1.36,1.41,2.11.5.75,1.01,1.52,1.59,2.2-.21-.15,3.72,5.39,5.89,7.92l-.11-.05c.35.18,1.07.93,1.91,1.87.83.94,1.91,2.01,2.79,2.92-.24.01-.62-.28-1.64-1.24l1.64,1.74c.48.36,1.03.88,2.13,1.99l-.62-.32c1.06,1.17,2.36,2.21,3.64,3.4,1.31,1.16,2.61,2.47,4.18,3.85.35.02-2.02-2.51,1.45.29.03.17-.01.39-.93-.33.3.24,1.11.83,1.64,1.35l-1.5-1.04c1.37,1.29.89.55,2.04,1.56-.16.08.76.81.49.74-.31-.24-.95-.9-1.45-1.25,1.28,1.14,2.77,2.57,3.25,3.05-.04-.15.17-.14,1.21.63,2.62,2.01.74.82,2.2,2.05.36.21.94.65,1.44,1.03.52.38,1,.66,1.11.6.79.56.86.74,1.11,1.01.75.46,2.4,1.62,3.69,2.5,1.3.87,2.29,1.41,1.55.8l-.36-.25c.07.04.15.09.24.15,4.92,2.94,9.93,6.45,15.09,9.05l-.06.06c1.55.76,3.21,1.68,4.83,2.45,1.62.76,3.15,1.46,4.3,1.93.91.44,2.09,1.17,1.65,1.06,2.44,1.04,2.76,1.06,6.19,2.72-2.51-.95.79.48-2.54-1.01,1.56.73,2.51,1.18,3.49,1.64,1,.44,2.06.82,3.82,1.42-1.27-.29,2.31,1.19,3.86,1.74l-2.19-1.02c.86.33,1.66.65,2.46.95.79.29,1.55.57,2.32.86l-.94-.07c1.64.67,3.23,1.25,4.76,1.77,1.53.54,3.04.91,4.48,1.32,1.44.41,2.83.8,4.17,1.23,1.36.39,2.65.8,3.92,1.3,1.85.35-3.68-1.18-2-.92,3.12.92,6.3,2.24,7.31,2.45,2.16.61,3.2.78,4.26.94,1.06.17,2.14.34,4.41.86-.57-.22-1.07-.58,2.35.08,3.17.72,3.85,1.23,1.83.87-.77-.16-1.13-.27-1.09-.3-1.03-.19-2.39-.45-1.15-.07h.43c.78.21,2.27.58,3.45.83,1.16.25,2.01.44,1.48.41,2.44.36,1.05.04-.73-.33,4.1.89,6.42,1.23,10.67,1.93-.67-.15-1.28-.35-.61-.26,6.23,1.05,2.75.28,6.97.76,2.4.43-.86.24,3.38.63,2.6.41.56.31-.48.27,1.94.17,3.76.35,5.36.53,1.61.19,3.01.38,4.12.49l-2.05-.1c1.23.06,2.22.14,3.24.22l-1.17-.28c1.21.13,2.21.21,2.2.29,1.23-.02-.97-.39,1.46-.36,1.6.16,4.83.08,5.41.35-5.02-.27.58.27-3.66.15.82,0,1.81.04,3.02.11.18.03-.16.04-.49.05,4.83.39,2.17-.18,7.14-.03-.61.14,1.18.26,1.99.22-1.99.01-.99-.22.81-.35,3.18.08,3.42-.11,5.07-.12l-1.9-.03c.61-.15,2.19-.14,4.38-.2.21.11-1.98.09-1.18.13,1.2-.1,2.57-.15,4.08-.15,1.51,0,3.13-.02,4.79-.18,1.59,0,.23.25,1.62.24,1.88-.17,2.88-.27,3.94-.31,1.06-.05,2.13-.1,4.07-.38-1.2-.07-1.38,0,1.33-.47l-6.4.79,4.05-.69c-1.95.19-4.06.54-5.24.62,1.93-.35,1.73-.29.76-.34,2.74,0,5.21-.7,8.34-.82l.07.47c1.18-.04,2.26-.21,3.31-.38,1.06-.17,2.1-.36,3.18-.56,1.08-.19,2.21-.39,3.43-.61.62-.1,1.25-.21,1.92-.32.65-.12,1.34-.25,2.08-.4l-1.89.3c.69-.34,3.56-.74,5.39-1.19-.1.19,1.09,0,1.94-.06-.07-.04.99-.26,2.11-.51,1.12-.27,2.26-.64,2.44-.85l2.63-.45c2.3-.54,3.54-.98,4.75-1.41,1.19-.46,2.32-.99,4.46-1.62-1.17.56.82.06-1.95,1.06,1.42-.44,2.71-.82,2.67-.92.88-.18,3.81-1.41,5.18-1.72.53-.28.61-.5,2.15-1.07.19-.04.04.08.04.08-.04-.08,2.33-1.01.87-.66,1.13-.29,2.43-.71,3.8-1.2.68-.25,1.41-.49,2.09-.79.68-.31,1.37-.62,2.05-.94,2.73-1.27,5.43-2.44,7.28-3.13,1.34-.74,2.82-1.56,4.27-2.36.73-.4,1.45-.79,2.14-1.16.69-.37,1.36-.73,1.92-1.11-.11.13.05.07-.39.33,3.34-1.88,1.59-1.6,5.37-3.73,2.09-.96-1.82,1.31-.57.67.48.05,1.57-.65,2.88-1.53,1.23-.95,2.64-2.09,3.94-2.82l-.53.43c.96-.58,1.99-1.4,3.14-2.33.28-.23.58-.47.88-.72.28-.26.57-.53.86-.81.59-.55,1.22-1.11,1.89-1.67,0,0-.08.15.06.07.77-.87,1.99-2.06,3.33-3.31,1.28-1.29,2.53-2.72,3.65-3.91-.51.87-.93,1.14-.29.83,1-1.07-.64.09,1.35-2.06.38-.31.99-.81,1.53-1.26.55-.45.99-.86,1.21-.9-.56.72-1.23,1.36-1.87,2.03,1.35-.81,2.39-2.65,3.39-3.72v.22c.7-.8,1.15-1.44,1.51-1.99.35-.55.64-1,.93-1.46.6-.9,1.15-1.88,2.43-3.7l-.36.32c1.04-2.16,1.33-1.59,2.34-3.76l.74-.45c.75-1.4,2.4-4.98,3.51-7.56-.21.77-.65,1.91-1.12,3.11-.54,1.17-1.1,2.38-1.52,3.32.38-.69,1.02-1.86,1.59-2.96.55-1.11.97-2.17,1.07-2.56-.24.58-.5,1.33-.82,1.86.27-.92.65-1.96,1.13-3.12.47-1.17.95-2.48,1.58-3.89.28.39,1.05-1.48,1.89-3.7.79-2.23,1.62-4.81,2.16-5.83,1.15-5.36,2.52-10.6,2.92-17.04-.73,2.19.1-1.88-.54-1.57.07-1.5.04-2.07.09-2.2.13-1.5.33-3.01.36-4.53.14-1.07.18,1.45.32,1.33-.06-3.32.22-1.37.3-3.56-.1.22-.19-.08-.25-.67-.09-.59-.17-1.47-.2-2.42l-.07,2.66c-.33-2.34-.3-3.33-.26-4.34.01-1.01,0-2.03-.47-4.39l.38,1.49c-.17-1.21-.6-3.44-1.04-5.67-.55-2.22-1.09-4.44-1.7-5.61-.05-.43-.04-1,.3.06-.74-2.89-1.86-6.08-3.1-9.08-.62-1.5-1.21-2.96-1.84-4.31-.59-1.36-1.13-2.61-1.61-3.72l.34.4c-.56-1.04-1.16-1.77-1.67-3.11.09.06.35.39.11-.1-.33-.55-1.75-2.69-2.42-4.08l.79,1.13c-.67-1.37-1.43-2.54-2.11-3.62s-1.35-2.06-2.08-2.98c-.71-.93-1.4-1.83-2.12-2.77-.76-.92-1.54-1.88-2.35-2.95.09-.03-.02-.32-.26-.75-.25-.43-.66-1-1.12-1.64-.93-1.27-2.09-2.78-2.95-3.75l.11.05c-5.08-5.75-9.38-9.37-15.21-13.93-1.63-1.56-4.7-3.99-8.3-6.41-3.58-2.43-7.71-4.83-11.08-6.67,1.01.59-.33.13-1.57-.47-1.58-.87-4.64-1.96-4.21-2.1l.59.28c-1.07-.86-4.55-2.29-7.26-3.38l-.63.19c-3.41-1.7-8.16-3.35-12.53-4.71-4.37-1.38-8.35-2.48-10.27-3.33-1.8-.43-4-1.04-5.78-1.45l.15-.18c-2.45-.73-4.28-1.26-6.29-1.79-2-.52-4.13-1.13-7.21-1.85l1.28.16c-3.46-.86-4.51-.47-7.7-1.24l-.9-.54c-6.05-1.39-12.16-3-18.23-3.82.1-.03.3-.09,1.29.07-1.44-.27-4.21-.8-6.5-1.24-2.29-.39-4.11-.59-3.6-.3-.05-.29-6.31-1.06-9.63-1.31l.52-.15c-1.4-.05-2.12-.05-2.98-.1-.86-.05-1.85-.15-3.81-.31-.92-.12-.81-.26.42-.08-3.08-.44-2.4-.05-6.13-.55h1.39c-3.16-.36-2.91-.21-4.65-.2-1.98-.05-6-.54-6.48-.73-.42.1-2.13.18-3.99.04-.26-.09.42-.1.76-.11-5.31-.44-7.79.03-11.45-.27-.09-.07-.33-.11-.63-.14,4.18.06,7.55.13,7.23.14-.03-.21-3.41-.29-.76-.53-2.7.13-7.29.33-10.57.36-.16-.02-.32-.03-.45-.06l.33-.03c-.76,0-1.44.02-2.06.08-1.05,0-1.73-.03-2.72,0-.42-.15-3.85.12-5.51.2.19.21-1.99.3.1.37-.26,0,.31-.04,1.41-.11.25-.02.54-.04.7-.06-.03,0-.07.01-.11.03,1.09-.06,2.5-.16,4.12-.23-1.29.16-2.63.34-4.5.32-.81.19-1.71.39-2.21.48-1.18-.11-2.86-.09-4.33-.05-1.47.03-2.73.06-3.07,0-4.98.59-11.69,1.53-14.52,2.56-1.35.3-1.63.17-2.19.2.78-.19,1.73-.35,2.13-.49-1.35.33-3.42.63-5.13,1.1-1.73.44-3.18.83-3.42,1.05-3.46.67,1.77-.71-2.87.43.19-.08.39-.16.58-.23-4.62,1.02-8.21,2.19-11.7,3.66-1.76.71-3.58,1.38-5.47,2.21-.95.4-1.95.8-3.02,1.19-1.07.4-2.2.79-3.36,1.27.65-.25.97-.39,1.13-.4-1.28.58-2.59,1.16-3.88,1.75-1.29.6-2.62,1.17-3.84,1.87-1.24.68-2.48,1.37-3.71,2.05-.61.35-1.26.67-1.84,1.04l-1.76,1.13c-1.17.75-2.34,1.5-3.52,2.25-1.15.75-2.22,1.59-3.34,2.37-1.09.8-2.24,1.55-3.29,2.37-1.04.83-2.07,1.64-3.12,2.44-2.37,1.82-2.33,2.23-3.46,3.55l-.7.27-1.87,2.31c-1.34,1.62-2.63,2.93-4.07,4.34-.75.69-1.38,1.48-2.03,2.36-.66.88-1.31,1.85-1.98,2.98l.58-.46c-.27.39-.63.88-1,1.4-.32.55-.65,1.14-.95,1.66-.6,1.05-1.09,1.84-1.12,1.67-.06.18-.11.61-.58,1.21l-.17-.02-.51,1.02-.41,1.06-.81,2.12c-.78,1.58-.88,1.4-1.04,1.42-.08,0-.18.05-.4.4-.1.17-.26.42-.41.77-.14.36-.31.83-.52,1.44-.54,1.84-1.26,5.29-.94,4.64.25-.73.71-1.83.89-1.84l-.46,1.67c.35.43.4,1.79,2.05-2.11l.65-2.87c.16-.28.35-.55.57-.8-.35.75-.54,1.55-.81,2.33.32-.63.51-1.17.64-1.68.15-.5.28-.95.43-1.43.22-.17.47-.52.75-1.04l.76-2.8c.33-.24-.18,1.32.71-.41.43-1.28-1.02.99-.05-1.04.91-1.15.86-.72,1.54-2.24.23-.15.12.18-.16.78.64-1.33,1.87-3.45,2.17-4.15,1.11-1.1,2.9-4.17,3.2-3.84.15-.45,1.44-2.22,2.32-3.3-.62,1.1.25.12,1.28-1.06.97-1.2,2.37-2.4,2.33-2.03.49-.8,1.69-2.05,3.04-3.41,1.44-1.31,3.12-2.67,4.33-3.88-.12.15-.35.44-.61.62.77-.62,1.28-1,1.74-1.32.49-.29.89-.54,1.46-.88-.08-.39,2.36-2.27,3.55-3.4,1.16-.57.94-.28.52.1-.39.41-.95.94-.51.83-.39-.18,3.37-2.54,2.48-2.26,1.77-.86,1.47-.8,2.51-1.11-.04-.48,1.4-1.04,2.64-1.97,2.61-1.18.93-.04,3.53-1.6,1.37-.6-.91.82-.91.82l-.06.02ZM130.11,1.73c-.71.02-1.32.04-1.71.05.36,0,.85-.02,1.71-.05Zm6.99,0c-.86-.02-1.91-.04-3.05-.06-.26-.08,0-.15.7-.14-.37.05,1.28.11,2.35.19h0Zm-15.14-1.31c1.1-.09,1.48-.07,1.64-.03-.52.03-1.13.08-1.93.13-.03,0-.09.02-.13.04.1-.05.21-.1.41-.14h0Z"/></g></svg>