<?xml version="1.0" encoding="UTF-8"?><svg id="Layer_2" xmlns="http://www.w3.org/2000/svg" viewBox="0 0 464.33 306.63"><defs><style>.cls-1{fill:#733f8b;}</style></defs><g id="shapes"><path class="cls-1" d="m75.91,25.87c3.84-1.98,1.48-1.27,2.11-1.89,1.11-.64,1.84-.98,2.33-1.15.48-.18.7-.22.83-.21.25.02.14.26,1.04,0,2.93-1.42,4.91-2.8,7.22-3.74.22,0,.7-.16.22.11,3.09-1.52,9.76-3.84,13.58-5.37.31-.07.5-.08.59-.08-.78.03-1.02-.14-.99-.31,1.96-.63,3.48-1.41,4.38-1.4-1.21.38-1.24.51-1.75.76l1.98-.77c2.09-.24-2.72,1.02-2.53,1.28,3.86-1.49,8.58-2.91,11.79-3.69.87.17-7.32,2.08-2.9,1.27l-4.97,1.16c4.08-.47-2.96.78.82.42,3.24-.8,5-1.32,6.76-1.84.89-.26,1.78-.51,2.82-.82,1.1-.25,2.37-.52,4.04-.85,1.37-.51-.65-.18.73-.7,2.3-.58,3.94-.93,5.2-1.13,1.27-.19,2.21-.2,3.04-.23,1.68-.05,3.02-.05,6.42-.88.86-.26,1.4-.57,2.41-.81,1-.24,2.45-.47,5.05-.65l-1.58.62c3.34-.37,4.23-.64,5.19-.87.94-.24,1.94-.48,5.54-.6-.6.13-1.92.27-2.96.37-1.04.11-1.77.23-1.27.18,4.7-.1,3.16-.51,6.69-.8l.85.31c1.81-.13,3.63-.37,5.51-.48,1.89-.12,3.83-.24,5.78-.36,3.89-.31,7.96-.38,12.03-.45-.43.11-1.8.23.13.34,1.29-.03,2.59-.05,3.9-.07,1.33.03,2.68.06,4.04.08,2.71.08,5.47.13,8.21.28,5.52.38,10.97.72,16.01,1.32h3.82c.9.1,1.66.29.7.27,3.92.45.18-.19,2.07-.14,2.23.23,2.96.5,1.54.44,6.91.46,19.76,1.75,27.04,3.36l-1.43-.14c5.67,1.06,6.47.36,11.72,1.64l-1.02-.14c12.32,2.27,25.92,5.07,35.14,7.78.94,0,3.95.8,6.84,1.54,2.89.73,5.64,1.52,6.11,1.31,6.86,2.15,4.87,1.67,14.52,4.64,2.59.76,3.98.72,7.2,1.62l-.02.33,4.45.99,2.17,1.08,3.01.86c-1.17-.4-2.47-.93-2.26-.96,4.73,1.29,11.22,3.9,11.27,4.1,3.65,1.17,7.29,2.4,10.89,3.69-.29.02-2.11-.62-3.56-1.08,5.85,1.88.9.68,6.23,2.46-.67-.34.47-.02.62-.03,2.49,1.21,8.3,3.7,12.51,5.67l-.93-.2c7.51,3.63,15.6,8.04,23.06,13.24-2.62-1.91-1.69-1.78.55-.28l.6.86c1.58.84-2.19-1.69.94.16,2.72,2.02,1.52,1.6-.15.54,1.14.78,2.28,1.55,3.41,2.34.1.21-.72-.32-1.03-.39,1.55.85,5.29,4.49,7.43,5.8l.08.21c6.77,5.7,9.64,8.44,14.55,13.45.4-.05,2.18,1.98,3.85,3.38,1.58,1.94,3.27,3.99,4.93,6.19,1.6,2.21,3.37,4.48,5.04,6.91,2.57,3.34.99.9,2.28,2.37-.09.34,3.03,5.24,1.18,2.75.94,1.47,1.77,2.67,2.42,3.77.66,1.11,1.26,2.1,1.88,3.16.64,1.04,1.3,2.14,2,3.46.71,1.33,1.62,2.84,2.58,4.76-.23-.86-.67-1.8-.3-1.35.74,1.39,1.34,3.22,1.09,3.03l-.2-.37c.57,1.07,1.11,2.19,1.66,3.35.49,1.16.95,2.36,1.41,3.56.98,2.41,1.62,4.91,2.39,7.33.63,2.43,1.25,4.8,1.82,7,.48,2.21,1.1,4.24,1.62,5.99l-.12-.39c.57,2.43,1.29,4.86,1.71,7.29.43,3.35-.57-2.01-.42.45,1.69,7.87,1.27,12.36,1.6,18.77-.24,1.21-.45,2.88-.62,4.84-.12,1.96-.32,4.17-.54,6.44-.14,2.27-.57,4.56-.88,6.7-.37,2.13-.89,4.07-1.37,5.64l.32-.31c-.1,1.73-.64,1.96-.99,3.15.24-.12.69-1.72.55-.67-3.13,14.04-10.39,27.91-19.83,39.84-3.53,4.32-.74,3.15-5.97,8.2l.94-1.74c-1.67,2.25-3.84,4.26-5.87,6.36-2.09,2.06-4.08,4.21-6.5,6.06-2.32,1.92-4.63,3.83-6.91,5.73-2.45,1.77-4.9,3.52-7.23,5.29.5-.47.41-.57,1.36-1.23-1.15.62-3.04,1.94-4.63,3.13-1.71,1.09-3.09,2.08-3.02,2.17-1.64.95-.55.07-1.64.57-2.35,1.16-5.2,3.6-6.67,4.01-.24.07.6-.39.97-.67-1.36.94-7.11,3.56-5.38,3.11-2.14.98-4.09,2.01-5.94,2.98-1.89.93-3.78,1.7-5.58,2.38-2.03,1.24-7.55,3.09-8,3.72-.04-.56-8.28,2.49-10.99,3.73.44-.24-.22-.06-.85.12-.64.16-1.29.27-.78.01-3.4,1.01-6.47,2.01-5.71,2.08-1.66.32-3.27.74-4.8,1.2-.76.23-1.51.47-2.24.7-.75.21-1.48.41-2.2.6-2.85.78-5.36,1.46-7.39,1.53-1.28.34-2.56.67-3.83,1.01-1.29.31-2.59.55-3.87.83-2.57.53-5.09,1.05-7.58,1.56-2.47.56-5.01.92-7.5,1.28-2.49.37-4.97.74-7.44,1.11.15-.53,10.9-1.53,10.24-1.96-4.63.73-8.26,1.38-11.89,1.99-3.67.52-7.42.86-12.16,1.24-2.46.15,1.33-.33,2.11-.48-2.37.23-4.67.55-7.01.64-2.33.1-4.63.2-6.91.3-2.27.11-4.5.2-6.7.3-2.22.01-4.41.04-6.57.1.01-.05.95-.09,1.82-.13-1.71,0-3.99-.07-3.76.14l1.65-.06c2.81.32-6.68.65-6.96.83,1.4-.34-.75-.3-2.72-.49-1.97-.15-3.71-.31-1.44-.6-1.13,0-2.54.03-2.25.19-1.69-.12-2.24-.23-.55-.32-6.17-.17-3.94.17-9.55-.1.01-.1,1.14-.09,1.7-.2-1.4.06-2.82.03-4.49-.06-1.66-.08-3.57-.23-5.95-.49.28-.04-.28-.17,1.14-.05-4.08-.37-7.56-.46-11.15-.87-3.59-.36-7.29-.68-11.77-1.54,2.67-.04-3.04-.62-3.49-1.09-1.6-.22-3.22-.4-4.82-.69.64.17,1.28.38,1.92.54-4.22-.78-7.97-1.2-11.58-2.02,1.06.17,2.11.29,3.15.44-2.65-.44-5.25-1.02-7.88-1.57l4.44,1.12c-4.28-.73.38.59-5.21-.75,1.15.19-4.22-.89-6.35-1.67h.01c-2.09-.39-4.25-.81-7.32-1.68-.78-.32.75-.26.24-.46-.52-.04-1.41-.22-2.46-.45-1.06-.27-2.29-.6-3.53-.94-2.51-.68-5.07-1.38-6.39-1.58.88.16.99-.01.72-.14l-1.78-.24c-1.88-.69-2.14-.81-1.77-.87-5.69-1.87,1.65,1.04-5.05-1.31.54.15.31.03,1.42.35-1.69-.57-3.37-1.1-5.01-1.63-1.63-.56-3.25-1.11-4.84-1.67-3.2-1.09-6.33-2.14-9.32-3.43-1.62-1.06,5.36,2,3.44.9-2.2-.83-4.45-1.68-6.7-2.52-1.13-.42-2.27-.83-3.4-1.26l-3.36-1.37c-2.23-.92-4.46-1.84-6.64-2.74-2.14-.97-4.25-1.98-6.27-2.96l1.5.77c-.72-.03-2.21-.82-4.04-1.8-1.85-.96-3.94-2.31-6.03-3.22,1.01.48,1.49.42,1.19.33-2.68-1.48-5.55-2.82-8.6-4.55-3.07-1.7-6.62-3.49-10.52-5.91l1.07.5c-1.47-.99-3.44-2.26-5.45-3.53-2-1.28-3.92-2.68-5.49-3.77-1.04-.53-2.83-1.79-1.91-.9-2.3-1.77-4.45-3.57-6.68-5.24-1.11-.84-2.22-1.67-3.33-2.46-1.12-.8-2.13-1.67-3.19-2.49-2.09-1.66-4.2-3.26-6.13-4.96-1.88-1.72-3.69-3.46-5.36-5.25.88.81,2.21,1.86,1.53,1.22-1.06-.96-2.15-1.89-3.18-2.85l-3-2.97c.22.6.61.86,1.67,2.23-.88-.68-2.67-2.33-4.13-3.82,2.81,2.62.37-.22-.61-1.45.11.24-.37-.12-.35.01-2.49-3.4-1.02-.29-4.64-4.85l.34.18c-1.5-1.64-3.14-3.05-4.48-4.93-.28-.89,1.54,1.77,1.94,1.76-2.1-2.55-4.62-4.87-6.15-7.32.96,1.07,2.19,2.64,3.14,3.71-1.62-2.68-1.97-2.93-3.35-4.85l.12.2-2.94-4.52.69,1.17c-1.55-1.52-2.85-3.18-4.01-5.04-1.14-1.87-2.33-3.88-4.02-6.09,3.26,4.29.76.65,1.36.9-.62-1.17-1.54-2.98-1.12-2.5-1.46-2.11-1.67-3.68-3.76-6.66.02-.08-.28-.66-.51-1.17-.2-.52-.33-.96-.07-.73-1.38-2.85.07.71-.2.5-1.21-2.18-2.23-4.8-3.39-7.65-.94-2.88-2.03-5.98-3.41-9.18-1.77-5.55-2.74-6.57-3.91-11.78-.13-1.75.78,1.44.78,1.44-.18-1.41-.38-2.64-.63-3.87-.13-.61-.25-1.21-.38-1.82-.1-.62-.2-1.24-.3-1.91.18.55.22,0,.28-.81-.27-2.13-.66-1.46-.76-4.24.21.49.53,1.13.78,2.16-.18-1.25-.48-2.51-.63-3.76-.12-1.25-.24-2.52-.33-3.82.22-.65.4,1.59.56,2.51-.08-1.45-.19-3.33-.28-4.95-.18-1.64-.09-3-.27-3.47l-.27,1.82c.06-1.04.36-.49.38.29.34,2.51-.06,3.55-.2,3.67l-.12-1.85c-.39.89-.32,2.75-.16,4.83.05.52.07,1.06.16,1.6.09.54.19,1.09.29,1.62.18,1.08.34,2.13.45,3.05l-.76-1.59.9,3.85c-.06.81-.32,1.35-.62-.49,0,1.34.13,1.93.3,2.48.16.55.29,1.05.37,2.2,0,.25-.04.14-.12-.1l.69,2.63c-.22-.51-.33.44-.56-1.18.29,2.36.74,4.27,1.33,5.8.52,1.53.93,2.69.97,3.59l-.14-.4c1.01,3.27,1.16,3.42,1.3,3.36.12-.05.22-.31,1.35,2.1l.17,3.36.64.6c.23.67.69,2,.42,1.77,1.32,2.45-.03-.44.87.96,1.06,3.24,4.06,8.78,3.93,9.58.9,1.08-1.36-3.06.63.27-.15,1.08,2.11,3.88,3.45,6.8-.93-.78-2.12-3.57-.92-.62,1.64,1.58,3.25,5.57,4.84,7.94.27,0,1.2,1.26,2.44,3.01.61.88,1.3,1.87,2.02,2.9.72,1.03,1.44,2.08,2.27,3.02-.3-.21,5.32,7.38,8.41,10.86l-.16-.07c.5.24,1.52,1.28,2.72,2.57,1.18,1.29,2.73,2.76,3.98,4.01-.33.02-.88-.39-2.33-1.72l2.34,2.39c.68.5,1.47,1.21,3.03,2.73l-.88-.44c1.51,1.61,3.36,3.05,5.18,4.68,1.87,1.6,3.71,3.39,5.95,5.3.5.04-2.88-3.43,2.04.42.04.24-.01.54-1.32-.47.43.33,1.58,1.14,2.33,1.86l-2.14-1.44c1.95,1.78,1.26.77,2.89,2.15-.22.1,1.08,1.11.7,1.01-.44-.34-1.36-1.24-2.06-1.72,1.82,1.57,3.94,3.53,4.63,4.19-.06-.2.24-.18,1.71.88,3.72,2.78,1.05,1.12,3.13,2.82.52.29,1.33.9,2.05,1.42.73.52,1.42.9,1.57.83,1.13.77,1.22,1.02,1.59,1.38,1.06.63,3.4,2.24,5.24,3.45,1.84,1.21,3.25,1.94,2.2,1.11l-.52-.35c.1.06.22.12.35.2,6.98,4.08,14.09,8.91,21.4,12.53l-.08.08c2.2,1.05,4.55,2.33,6.85,3.4,2.3,1.06,4.46,2.04,6.09,2.69,1.29.61,2.96,1.62,2.34,1.46,3.46,1.45,3.91,1.49,8.76,3.8-3.55-1.33,1.11.66-3.6-1.41,2.21,1.01,3.55,1.64,4.94,2.28,1.41.61,2.92,1.14,5.41,1.98-1.79-.41,3.27,1.65,5.46,2.42l-3.11-1.42c1.21.46,2.36.9,3.47,1.33,1.12.4,2.19.79,3.29,1.2l-1.33-.1c2.32.93,4.57,1.74,6.73,2.47,2.16.75,4.3,1.28,6.33,1.87,2.04.58,4,1.14,5.89,1.74,1.92.55,3.75,1.13,5.54,1.82,2.62.5-5.2-1.65-2.83-1.28,4.42,1.3,8.91,3.13,10.33,3.43,3.05.86,4.52,1.1,6.01,1.34,1.49.25,3.02.49,6.24,1.24-.81-.31-1.52-.8,3.31.14,4.48,1.03,5.45,1.72,2.59,1.2-1.08-.23-1.59-.38-1.54-.42-1.46-.28-3.38-.64-1.62-.12h.61c1.11.31,3.21.83,4.87,1.18,1.64.35,2.83.62,2.09.58,3.44.53,1.48.07-1.03-.46,5.79,1.27,9.06,1.77,15.06,2.78-.95-.22-1.81-.49-.87-.36,8.79,1.52,3.88.42,9.83,1.14,3.38.62-1.21.31,4.78.9,3.67.59.79.43-.68.36,2.74.26,5.3.53,7.56.8,2.27.28,4.25.56,5.81.73l-2.89-.16c1.73.09,3.14.22,4.57.35l-1.66-.4c1.7.19,3.12.32,3.11.43,1.73-.01-1.37-.54,2.06-.46,2.26.24,6.81.18,7.62.55-7.08-.44.82.38-5.16.15,1.16.01,2.55.08,4.26.2.26.05-.22.06-.69.06,6.81.6,3.06-.21,10.06.06-.85.19,1.67.37,2.81.32-2.81,0-1.4-.32,1.14-.46,4.48.15,4.82-.1,7.15-.08l-2.67-.07c.85-.19,3.09-.16,6.17-.21.3.15-2.79.09-1.67.16,1.68-.12,3.61-.17,5.75-.14,2.12.02,4.41.02,6.75-.18,2.24.04.32.35,2.28.35,2.64-.2,4.06-.33,5.54-.37,1.49-.06,3-.11,5.73-.46-1.69-.12-1.94-.03,1.86-.62l-9.01.98,5.7-.88c-2.74.24-5.71.67-7.38.77,2.71-.45,2.43-.36,1.06-.46,3.87.05,7.33-.88,11.75-.99l.11.63c1.66-.04,3.18-.26,4.66-.47,1.49-.22,2.95-.46,4.48-.71,1.52-.24,3.11-.5,4.82-.78.87-.13,1.75-.27,2.7-.4.92-.16,1.89-.33,2.92-.51l-2.66.38c.97-.45,5.01-.96,7.57-1.54-.14.25,1.54.02,2.74-.05-.1-.06,1.39-.34,2.96-.66,1.57-.35,3.17-.84,3.43-1.12l3.7-.57c3.24-.71,4.97-1.28,6.68-1.85,1.67-.62,3.26-1.31,6.26-2.13-1.64.74,1.15.09-2.74,1.42,1.99-.58,3.8-1.07,3.75-1.21,1.24-.23,5.35-1.86,7.28-2.26.74-.37.85-.67,3.02-1.42.26-.05.06.1.06.1-.06-.1,3.26-1.34,1.22-.88,1.59-.38,3.42-.93,5.34-1.58.95-.34,1.98-.65,2.93-1.05.96-.41,1.92-.83,2.88-1.25,3.82-1.69,7.62-3.24,10.22-4.15,1.88-.99,3.96-2.08,5.99-3.15,1.02-.53,2.03-1.05,3-1.55.97-.49,1.9-.97,2.69-1.48-.15.17.08.1-.55.44,4.68-2.51,2.22-2.15,7.52-5,2.93-1.28-2.55,1.76-.8.91.68.08,2.2-.86,4.03-2.04,1.72-1.27,3.7-2.81,5.51-3.77l-.74.58c1.34-.77,2.78-1.87,4.39-3.13.4-.31.81-.63,1.23-.97.39-.36.79-.71,1.2-1.09.82-.74,1.7-1.49,2.63-2.24,0,0-.11.2.09.1,1.08-1.18,2.78-2.78,4.65-4.45,1.78-1.73,3.53-3.66,5.09-5.27-.7,1.17-1.3,1.54-.4,1.12,1.39-1.45-.91.11,1.87-2.78.53-.42,1.38-1.09,2.14-1.7.77-.6,1.39-1.16,1.7-1.2-.78.96-1.7,1.84-2.61,2.74,1.88-1.07,3.34-3.57,4.72-5l.02.3c.95-1.08,1.58-1.94,2.08-2.68.49-.74.89-1.35,1.3-1.97.84-1.22,1.6-2.54,3.37-4.99l-.51.43c1.43-2.92,1.85-2.15,3.24-5.07l1.04-.6c1.04-1.89,3.31-6.73,4.84-10.22-.29,1.05-.88,2.59-1.53,4.21-.74,1.58-1.52,3.22-2.1,4.49.52-.93,1.41-2.51,2.19-4.01.75-1.5,1.33-2.93,1.47-3.47-.33.79-.68,1.8-1.14,2.52.37-1.25.89-2.65,1.55-4.22.64-1.58,1.3-3.35,2.17-5.27.4.53,1.46-1.99,2.61-5,1.08-3.02,2.21-6.52,2.96-7.9,1.54-7.27,3.4-14.37,3.87-23.13-1,2.97.12-2.55-.78-2.15.08-2.03.02-2.82.1-2.99.16-2.04.41-4.08.44-6.15.19-1.45.28,1.98.47,1.82-.14-4.51.28-1.86.37-4.83-.14.3-.27-.11-.36-.91-.14-.81-.26-1.99-.32-3.29l-.06,3.61c-.5-3.18-.47-4.54-.43-5.9,0-1.37-.04-2.76-.72-5.97l.56,2.03c-.26-1.65-.89-4.69-1.55-7.72-.81-3.03-1.6-6.06-2.48-7.65-.08-.58-.08-1.36.42.08-1.08-3.94-2.7-8.29-4.5-12.39-.9-2.05-1.75-4.04-2.66-5.89-.85-1.85-1.63-3.57-2.32-5.08l.49.55c-.8-1.42-1.66-2.42-2.39-4.25.13.08.49.53.15-.13-.48-.75-2.5-3.69-3.47-5.58l1.14,1.55c-.96-1.87-2.05-3.48-3.04-4.96-.98-1.48-1.94-2.82-2.97-4.09-1.02-1.27-2.01-2.51-3.02-3.8-1.08-1.27-2.2-2.58-3.36-4.04.13-.04-.03-.43-.38-1.02-.36-.58-.95-1.37-1.6-2.24-1.32-1.74-2.99-3.81-4.22-5.14l.16.07c-7.25-7.89-13.35-12.87-21.64-19.17-2.32-2.14-6.68-5.5-11.79-8.84-5.07-3.36-10.94-6.68-15.71-9.24,1.43.82-.46.18-2.21-.66-2.24-1.21-6.57-2.73-5.97-2.91l.83.39c-1.52-1.18-6.45-3.18-10.28-4.71l-.89.25c-4.83-2.35-11.56-4.68-17.73-6.59-6.18-1.93-11.8-3.5-14.53-4.68-2.54-.61-5.65-1.48-8.17-2.05l.21-.24c-3.46-1.03-6.06-1.78-8.89-2.53-2.83-.74-5.84-1.59-10.18-2.63l1.81.23c-4.89-1.22-6.37-.7-10.87-1.8l-1.27-.75c-8.55-1.97-17.19-4.25-25.75-5.45.14-.04.42-.12,1.81.12-2.03-.39-5.95-1.15-9.18-1.78-3.23-.57-5.8-.87-5.08-.46-.07-.4-8.9-1.53-13.59-1.92l.74-.2c-1.97-.08-2.99-.1-4.2-.18s-2.61-.24-5.37-.48c-1.3-.18-1.15-.37.59-.1-4.35-.64-3.38-.1-8.65-.84l1.96.03c-4.46-.54-4.1-.33-6.55-.34-2.8-.1-8.46-.82-9.14-1.09-.59.13-3,.22-5.62,0-.37-.12.59-.13,1.06-.13-7.49-.68-10.98-.08-16.14-.53-.12-.1-.46-.16-.9-.2,5.89.15,10.64.29,10.2.29-.04-.28-4.82-.44-1.08-.73-3.8.13-10.26.34-14.88.33-.23-.03-.45-.05-.63-.09l.47-.03c-1.07-.02-2.02,0-2.9.07-1.48-.03-2.43-.07-3.84-.04-.6-.21-5.43.11-7.77.19.28.29-2.79.37.15.5-.37,0,.43-.06,1.98-.13.35-.02.76-.04.99-.08-.05,0-.09.02-.16.03,1.54-.07,3.53-.18,5.81-.25-1.82.19-3.7.43-6.33.37-1.14.25-2.4.5-3.11.62-1.66-.17-4.03-.16-6.11-.13-2.07.02-3.85.04-4.33-.06-7.01.73-16.45,1.91-20.43,3.26-1.91.39-2.3.2-3.08.24,1.09-.24,2.43-.45,3-.63-1.9.42-4.81.81-7.21,1.43-2.43.57-4.47,1.08-4.81,1.38-4.87.86,2.48-.93-4.04.54.27-.11.55-.21.81-.31-6.5,1.32-11.54,2.85-16.43,4.81-2.47.94-5.03,1.82-7.68,2.92-1.33.53-2.74,1.06-4.24,1.58-1.5.52-3.09,1.04-4.71,1.68.91-.34,1.36-.52,1.59-.53-1.8.77-3.63,1.54-5.45,2.32-1.81.8-3.68,1.55-5.38,2.49-1.74.91-3.47,1.82-5.21,2.73-.86.47-1.76.89-2.58,1.39l-2.46,1.51c-1.64,1-3.28,2-4.92,3-1.61,1.01-3.11,2.14-4.67,3.18-1.53,1.08-3.14,2.07-4.6,3.17-1.45,1.11-2.89,2.21-4.36,3.28-3.31,2.44-3.25,2.99-4.83,4.78l-.98.36-2.6,3.11c-1.86,2.18-3.66,3.95-5.67,5.84-1.04.93-1.93,1.99-2.83,3.17-.92,1.19-1.83,2.5-2.75,4.02l.81-.62c-.38.52-.87,1.19-1.39,1.89-.44.74-.9,1.54-1.31,2.24-.83,1.42-1.51,2.49-1.55,2.25-.08.25-.15.83-.8,1.63l-.25-.02-.7,1.38-.56,1.44-1.11,2.87c-1.07,2.14-1.22,1.9-1.44,1.91-.12,0-.26.07-.56.54-.14.23-.36.56-.57,1.05-.19.49-.43,1.13-.71,1.95-.74,2.49-1.7,7.18-1.26,6.3.34-.99.97-2.48,1.23-2.49l-.62,2.26c.49.59.58,2.44,2.85-2.83l.87-3.89c.22-.37.49-.74.79-1.08-.48,1.01-.74,2.1-1.11,3.16.44-.85.7-1.58.87-2.27.2-.68.38-1.29.59-1.94.3-.23.65-.7,1.04-1.4l1.03-3.79c.46-.33-.24,1.79,1-.55.59-1.74-1.42,1.33-.09-1.42,1.27-1.56,1.2-.97,2.13-3.02.32-.2.17.25-.21,1.06.88-1.8,2.58-4.66,3-5.61,1.55-1.48,4.03-5.62,4.46-5.17.2-.62,1.99-2.99,3.22-4.45-.85,1.49.36.16,1.78-1.42,1.35-1.62,3.3-3.23,3.26-2.72.68-1.08,2.35-2.77,4.24-4.59,2.01-1.75,4.35-3.58,6.04-5.21-.17.2-.49.59-.85.84,1.07-.83,1.79-1.34,2.43-1.77.69-.39,1.25-.72,2.04-1.17-.12-.53,3.3-3.05,4.95-4.57,1.63-.75,1.32-.36.73.15-.54.56-1.33,1.27-.71,1.13-.56-.25,4.71-3.41,3.46-3.03,2.48-1.15,2.06-1.06,3.52-1.47-.06-.65,1.96-1.39,3.69-2.64,3.67-1.56,1.31-.04,4.95-2.13,1.93-.79-1.27,1.1-1.27,1.1l-.08.02ZM181.92,2.21c-1,.02-1.87.03-2.41.05.51,0,1.2-.02,2.41-.05Zm9.86.11c-1.21-.04-2.7-.08-4.29-.12-.37-.11-.02-.21.99-.18-.52.06,1.81.17,3.31.3h0Zm-21.35-2.01c1.55-.11,2.09-.07,2.31-.02-.74.04-1.58.09-2.72.15-.05,0-.13.03-.18.05.13-.06.29-.13.57-.18h.01Z"/></g></svg>