<?xml version="1.0" encoding="UTF-8"?><svg xmlns="http://www.w3.org/2000/svg" viewBox="0 0 360.39 280.37"><defs><style>.cls-1{fill:#4eb6ce;}.cls-1,.cls-2{mix-blend-mode:multiply;}.cls-3{fill:#fff;}.cls-4{fill:none;isolation:isolate;}.cls-2{fill:#a7dff1;}</style></defs><g class="cls-4"><g id="Layer_2"><g id="shapes"><path class="cls-3" d="m358.77,88.99c-9.82-49.67-93.27-78.74-142.48-84.57-33.96-6.57-68.22-7.38-99.41,8.47C85.7,28.74-4.73,129.35.19,199.72c4.93,70.37,156.55,101.24,245.17,66.02,88.62-35.22,123.23-127.08,113.4-176.75Z"/><path class="cls-2" d="m32.05,262.59c1.23-.16.41-1.16.58-1.83,1.42-.53.8.7,1.39,1.19.87-.43,1.42-1.54,2.11-1.6.08.17.22.22.1.47.84-1.02,2.87-.48,3.84-1.74.1.08.15.17.19.25-.26-.52-.37-1.07-.4-1.48.55-.1.92-.85,1.24-.16-.34.03-.33.32-.45.57l.53-.4c.67.95-.74.48-.63,1.24,1.08-.51,2.27-1.56,3.18-1.4.33.98-1.97.65-.69,1.37l-1.39-.18c1.25,1.44-.83.01.36,1.57,1.8.03,1.89-.82,3.69-.77.32-.61-.25-.81.07-1.43,2.36-1.35,2.33,2.27,3.97.67.38-.74.39-2.04,1.79-1.54l-.29,1.2c1.72-.12.75-1.77,2.64-1.25-.26.49-1.29.56-1.01.66,1.28.74.73-.76,1.62-.88l.32.99c1.79-.41,3.7-1.41,5.69-1.87-.07.32-.37.68.14.92,2.47-.86,5.44-.61,7.96-.3l.83-.99c.22-.02.45.35.24.54,1,.21-.02-.56.4-.96.54-.13.78.41.47.72,1.59-.95,4.61-2.18,6.5-1.46l-.32.3c1.43.19,1.35-1.98,2.73-1.32l-.23.18c3.05.01,6.28-1.2,8.73-.11.3-1.31,3.04.24,3.04-1.54,1.81.69,1.36,1.05,3.84,1.38.65,0,.84-1.2,1.62-1.47l.12.92.98-1.08.69,1.04.72-.32c-.3-.02-.68-.34-.66-.61,1.13-.54,2.92.33,3,.8l2.69-1.08c-.02.38-.47.55-.82.83,1.38-1.1.37.94,1.63-.07-.2-.19.04-.56.05-.75.73.49,2.27.35,3.39.01l-.16.66c2.07-.03,4.3-.71,6.61-.91-.86-.22-.77-1.34-.1-1.51l.36.95c.38-.64-.74-.3.09-1.12.87.03.68,1.05.22,1.41l1.02-.44c.09.29-.14.46-.17.84.37-.64,1.9.81,2.42-.3l.09.28c2.31-.21,3.32-.64,5.2-.86-.04-.84.71-.73,1.22-1.46,1.41.16,3,.7,4.66.5,1.14-.51.28-.74.77-1.28.15.76,1.81.56.99,1.17,1.99-.28,2.54-.35,5.02-1.18-.3-.29-.62-.4-.48-.68.45-.16,1.07.24,1.03.61l-.12.09c2.76-1.37,6.72,1.71,8.86-.05l-.12.09,2.29-.98c1.09.06-.61.62.22,1.04,2.44-1.44,4.01-.07,6.04-1.06,1.76,2.16,5.72-.53,7.98.77l-.16-.52c.53-.56.7.26,1.12.36-.08-.41-.64-.44-.31-.75,4.73-.95,9.89.26,14.8.48,1.79.05.88-2.81,3.2-1.65l-.59,1.02c1.78-.68,3.62-.77,5.46-.83,1.84-.03,3.67-.04,5.42-.61-.2.24-.2.53-.54.54.78.69,2.76-.07,2.75-.65.55.05.15.53.5.81.76.4,1.85-.99,2.27-.29.07.11-.2.24-.34.3.48-.37,2.28,0,1.78-.81,1.34.35,2.53-.46,3.6,0,.66-.95,2.29.36,2.47-.96-.05,1.36,2.36,1,3.18.36-.27.42.74.41.43.98.96-.04,1.83-.31,1.64-1,1.81,1.58,3.52-1.38,4.56.67,2.83-.79,5.45-1.34,8.01-1.72-.07,1.36-2.83.2-2.69,1.62,2.42-.61,3.8-1.8,6.22-1.53.63.17-.35.59-.55.83,2.42-.62,4.7.07,6.85-.69,0,.13-.24.27-.46.37.43-.05.99.19.94-.42l-.41.17c-.69-.89,1.67-1.88,1.74-2.35-.71,1.77,2.14.43,1.01,2.66.28-.12.63-.41.56-.82.42.12.55.36.13.83,1.52-.35.98-1,2.36-.99,0,.3-.28.42-.42.77.7-.59,1.4-1.17,2.57-.93-.07.18.07.41-.28.41,2.01-.11,3.41-1.57,5.62-1.03-.65,1.3.75.42.87,1.54l1.18-.33-.48-.55c1.04.03,1.95-.78,2.85-.41l-.77.46,1.94-.2-1.1-.43c1.05-.57-.11-1.42,1.27-1.1-.28.11,1.04.02,1.58.68.51-.35,1.04-.72,1.81-.44.2.36-.17,1.24-.04,1.48.51-.93,2.43-.24,3.08-1.24-.22.23-.23.82-.16.94l.43-.76c.48.25.55.36.47.83,1.44.15-.45-1.42,1.26-.8-.14.06-.07.17-.35.29,1.72.33,3.33-.46,4.91-.08.45,1.13-1.39.27-.86,1.22,2.28-.2,4.74-1.32,6.95-.99l-.41-.13c.33-1.58,1.63.82,2.76.09-.28.11-.37.88-.3.7,1.51.29,3.1-.33,5.4-.78l-.29.4c.88.38,2.34.26,3.3.46.3-.4.84-.32.52-.93,2.91,2.4,5.7-1.15,8.28.9-.31,0-.76.33-.51.34l2.25-.3c-.16-.7-.28-.43-.74-.99.3-.4.94-.7,1.5-.68-1.02.42-.03,1.11.4,1.51-.07-.21.09-.44.06-.66,1.13,1.27.24-1.39,1.82-.5l-.1.36c.61-.17,1.17-.63,1.82-.5.24.81-.65.35-.71,1.01.91-.01,1.84-1.46,2.64-.63-.39.21-.95.19-1.34.4.86.97.97.74,1.63.91l-.06-.02,1.52.48-.38-.27c1.21-2.05,2.32-.3,3.91-1.62-1.54,1.24-.27.74-.42,1.64.38.27.96.57.78.82.75-.71,1.18.62,2.24-.42.03.29.77.06.58.78.95-.2-.2-.52-.11-.88,1.49-.96,3.35,1.37,5.49.09,1.82-.47,2.2-1.44,3.89-1.85.54.5-.51,1.04-.51,1.04.89.47,1.57.43,2.44.14-.19.25-.02.47.23.81.69-.04.51-1.04,1.4-.57-.17.32-.4.83-.74,1.14.82-.23,1.65-.74,2.5-.96.2.52-.54.75-.86,1.06.95-.18,2.46-.34,2.79-1.13l-.59-.32c.35-.02.14.7-.12.84-.84.59-1.15-.34-1.18-.63l.61-.16c-.52-1.74-2.41.16-3.6,0l.56-1.22-1.28.97c-.25-.34-.39-1.04.21-1.2-.83-.66-.78.41-1.49-.32-.08-.11-.04-.17.04-.21l-.86.33c.18-.25-.1-.89.41-.68-1.48-.79-2.48.82-3.01-.16l.13-.07c-2.12.32-.24.91-1.86,1.9l-.96-2.31-.25.91c-.21-.04-.64-.13-.54-.5-.83.59.12.4-.37.97-1-.89-2.89.27-3.06-1.2-.4.68.97.57-.16,1.02-.25-1.58-1.3.22-2.22-.53.32-.8,1.21-.34.28-1.1-.63,1.35-1.84-.36-2.66-.13-.08,1.09-1.76.39-3.12.71.1-.36-2.51-.69-3.76-1.12l.04-.18c-.28,1.09-1.56.84-2.51,1.04.06-.66.23-.91.75-1.19l-.89-.03c-.22.35-.5.52-1.08.63l.25-.82c-1.18,0-2.4.88-3.9.29-.11.77,1.15,2.16-.47,2.64-.05-.42-.09-1.13.34-1.29-.14.05-.5.33-.77.15l.66-.69c-.68-.32-.38.58-.93.5.03-.59-.4-.43-.31-.9.14-.05.48.25.69.03-.62-.12-1.36-.49-1.6-.94.05.34-.02.8-.48.86-1.18.02-.39-.72-1.07-1.04-.3.41-1.04-.04-1.08.85-.34-.01-.4-.43-.53-.67-.62.38-2.85.05-2.19,1.01l.16.07s-.06.02-.1.04c-2.02.84-4.14-.59-6.13-.25v-.3c-1.18.31-2.63.15-3.49.77-.35,0-.82-.56-.66-.91-.91.21-1.01.53-2.32.03.92-.51-.31-.47.94-.37-1.17-.27-1.43-.74-2.71.06.44-.76-.88-.96-1.44-.74l.82.55c-.63.11-1.18.04-1.74-.03l.31-1c-2.4-1.23-4.36,2.04-6.18,0-.64.69,1.31.5.73,1.31-1.11-.14-2.25-1.58-2.6-1.59-1.52-.56-1.42,1.45-3.01,1.06.2.36.39,1.31-.8,1.64-1.11-.14-1.36-1.5-.66-1.78.27-.03.39.09.38.21.36-.13.83-.28.39-.67l-.14.36c-.55-.37-2.08-.34-1.72-.92-.84.33-.36.58.26.77-1.42-.52-2.22-.04-3.69-.37.23.19.45.61.22.61-2.15-.42-.94.68-2.4.85-.83-.54.29-1.3-1.17-.83-.9-.36-.19-.94.16-1.24-1.33.7-2.5-.43-3.26-.55l.7-.29c-.42.17-.76.17-1.12.17l.41.71c-.41-.12-.76-.12-.76-.42-.42.47.33,1.18-.51,1.83-.55-.36-1.67.4-1.87-.54,1.73.31-.2-.95,1.27-1.11-.28.11-.63.11-1.04,0-.06-.11.06-.2.17-.25-1.66-.83-.75,1.07-2.47,1.07.21-.53-.41-1.01-.69-.89.69,0,.34.89-.29,1.3-1.1-.41-1.19.32-1.77.27l.66.19c-.22.53-.77.47-1.53.64-.07-.41.69-.29.42-.47-.84.94-1.94-.95-3.12-.31-.56-.36-.07-1-.55-1.24-1.32.7-1.45-.7-2.84-.1.42.71.48.53-.49,1.25l2.29-.55-1.46,1.07c.69,0,1.46-.48,1.87-.37-.69.6-.62.42-.28,1.01-.97-1.05-1.87.67-2.98-.03v-1.77c-1.66-.75-2.91.97-5.06.58l.69.29c-.27.71-1.32.13-2.01.43.05-.59-.39-.8-.69-1.16.05.44-1.57,0-1.74,1.18l-.98-.76c-1.74-.28-1.93,1.73-3.6,1.57.48-.65-.28-1.06.82-1.54-.56,0-1.06-.09-1.06.32-.33-.36-1.52.83-2.04.28-.23.27-.29.89-.91.85-.07-.12,0-.29,0-.29,0,.29-.96.43-.4,1.06-1.76-1.79-4.77.31-6.31-1.22-1.2.24-2.66.49-3.75.57.06-.18,0-.3.2-.24-1.54-.5-.87,1.73-2.62,1.18-.92-.92.9-.55.33-.89-.31-1.94-2.07.34-3.28-.75l.28-.12c-.91-.63-2.14.82-3.59.73,0,0,.06-.17,0-.29-.95,1.02-2.81,1.44-4.19,1.79.4-.78.61-.44.32-1.2-.62.14.24,1.23-1,1.51-.42-.4-1.34-.72-1.5-1.54l1.17-.1c-.65-1.04-1.52.11-2.15-.04l.06-.47c-1.8.24-1.76,1.42-3.71,1.43l.22.34c-1,1.22-.92-.61-1.93.31l-.38-1.17c-.68.32-2.39,1.27-3.63,1.55.66-.91,2.1-1.44,2.99-2-.69.03-2.35.21-2.68.81.27-.13.61-.44.89-.27-.8.97-1.89,1.49-3.27,1.54.12-2.3-3.63-.4-4.73-2.1-2.39,1.01-4.87-.05-7.7.27,1.12,1.72-.83.1-.53,1.92-.65.16-.91.15-.98.03l-2.08-.96c-.51-.5.6-.44.51-.85-1.46-.05-.66-.74-1.65-1.16.24.64-.44.97-1.29.77l1.22.77c-1.96,1.11-1.86-1.42-3.84-.33l.61-.62c-1.03.4-3.87.24-4.79,1.8-.2-.2-.48-.68-.03-.85-2.52-.02-5.46,2-7.47,1.25l.15-.46c-.46.17-.75.9-1.37.5.02-.19.15-.46-.07-.47-.24.17-1.18.88-1.82.67l.49-.54c-2.49-.39-3.65,1.52-5.67,1.99-.11-1.31-2.07-1.6-3.04-1.72l.02-.19c-2.86.1-4.73,1.54-7.31,2.3-1.76-1.27-5.59-.08-8.29-.64.42.2.03,1.03-.42,1.21-.64-.21-1.61,1.07-1.63-.14h.22c-.58-1.13-1.82-.71-2.81-.64v1.59c-2.82-2.01-6.68,1.57-8.3-.33-.58.46-1.35.54-1.93,1l-.06-.85c-1.75-.03-2.62-.04-4.74.39l.37-.65c-1.21.07-1.25,2.6-2.35,2.77l-.48-1.22c-2.1.23-4.35-.59-6.28.8.01-.19.03-.56.36-.65-.99.09-3.92-.39-3.35,1.3-.16-1.12-2.18.15-3.25.79l.07-.85c-.83,1.18-.82,1.47-2.12,1.93-.33-.07-.36-.63.09-.47-1.11-.31-.72.89-2.05.6l.41-.59c-1.09.07-.97.34-1.49,1.03-.64.42-2.08.04-2.34-.69-.09.47-.6,1.16-1.27,1.02-.12-.27.09-.48.19-.58-1.88-.34-2.56,1.32-3.91.67-.06-.27-.16-.4-.28-.47,1.44-.18,2.6-.29,2.5-.21-.1-.76-1.28-.74-.49-1.92-.86.7-2.29,2.17-3.47,1.97-.06-.07-.13-.13-.18-.24l.11-.1c-.27-.04-.5.06-.7.22-.38-.08-.62-.14-.97-.1-.22-.61-1.38-.16-1.96-.11.16.83-.61.8.19,1.39-.1-.05.1-.11.48-.2.08-.04.18-.06.24-.12,0,.02-.02.05-.03.08.38-.08.87-.16,1.43-.25-.4.49-.83.91-1.53.53-.22.58-.48,1.17-.62,1.46-.95-1.06-2.56-1.48-2.87-2.17-1.7.71-4.12.88-5.01,2.6-.47.27-.64-.37-.86-.59.27-.2.62-.22.74-.47-.95.54-2.95.56-3.04,1.69-1.34-.32.57-1.11-1.15-.68l.19-.37c-3.67-1.23-5.14,3.63-9.25,1.96.28.1.42.14.5.32-4.46-.32-8.75,2.24-13.24,1.38-1.26-.12-1.28.6-1.93,1.26l-.41-.85-1.09,1.24c-1.66,1.05-3.45-1.68-5.48.12l.39.55c-.83.02-2.51.78-2.49.07-.06.12-.16.67-.53.41l-.1-.46-1.86,1.13c-1.6-.08-.07-1.9-2.35-1.61-.81.32-2.16,1.76-1.79,2.02.34-.03.92.15,1.02.61l-.72.37c.1,1.4-.24,2.91,1.8,3.56l1.16-1.06.54.6-1.09.22c.73.53,1.03-.1,1.41-.55.17.34.39.56.67.65l1.06-1.53c.25.51-.39,1.17.52,1.32.5-.71-.78-1.11.15-1.68.73.52.63,1.06,1.28.41.16.34.05.59-.22.79.58-.53,1.7-.47,1.91-1.25.78.67,2.17-.57,2.33.75.15-.35.98-1.22,1.57-1.37-.84,1.74,2.26-.28,2.25,1.44.58-1.54,2.83-1.11,4.14-2.13-.06.12-.18.38-.32.33.83-.02,1.13.36,1.69.55-.08-1.18,1.14-1.63,1.71-2.45,1.17.97-.39,1.45.09,2.48-.2-.93,1.58-1.2,1.12-1.93.87.58.71.24,1.25,1.14-.09-1.47.67-.35,1.16-1.34,1.21.55.49,1.32,1.63.69.64.36-.35,1.04-.35,1.04l.07-.03Zm28.42-6.64v.02c-.25.05-.46.1-.59.13.12-.03.29-.07.59-.15Zm2.42-.34c-.3,0-.67.05-1.06.11-.12-.28-.07-.59.18-.61-.11.21.49.3.88.49h0Zm-5.9-5.09c.37-.17.52-.02.6.14-.18.04-.39.1-.66.19,0,.03-.02.08-.03.11.02-.16.04-.32.1-.44h-.01Z"/><path class="cls-1" d="m42.72,254.93c-.86-.25-1.62-.59-2.28-1.01-1.7.98-3.24,2.51-5.83,1.46.28.1.42.14.5.32-4.46-.32-8.75,2.24-13.24,1.38-1.26-.12-1.28.6-1.93,1.26l-.41-.85-1.09,1.24c-1.66,1.05-3.45-1.68-5.48.12l.39.55c-.83.02-2.51.78-2.49.07-.06.12-.16.67-.53.41l-.1-.46-1.86,1.13c-1.6-.08-.07-1.9-2.35-1.61-.81.32-2.16,1.76-1.79,2.02.34-.03.92.15,1.02.61l-.72.37c.1,1.4-.24,2.91,1.8,3.56l1.16-1.06.54.6-1.09.22c.73.53,1.03-.1,1.41-.55.17.34.39.56.67.65l1.06-1.53c.25.51-.39,1.17.52,1.32.5-.71-.78-1.11.15-1.68.73.52.63,1.06,1.28.41.16.34.05.59-.22.79.58-.53,1.7-.47,1.91-1.25.78.67,2.17-.57,2.33.75.15-.35.98-1.22,1.57-1.37-.84,1.74,2.26-.28,2.25,1.44.58-1.54,2.83-1.11,4.14-2.13-.06.12-.18.38-.32.33.83-.02,1.13.36,1.69.55-.08-1.18,1.14-1.63,1.71-2.45,1.17.97-.39,1.45.09,2.48-.2-.93,1.58-1.2,1.12-1.93.87.58.71.24,1.25,1.14-.09-1.47.67-.35,1.16-1.34,1.21.55.49,1.32,1.63.69.64.36-.35,1.04-.35,1.04l.07-.03c1.23-.16.41-1.16.58-1.83,1.42-.53.8.7,1.39,1.19.87-.43,1.42-1.54,2.11-1.6.08.17.22.22.1.47.84-1.02,2.87-.48,3.84-1.74.1.08.15.17.19.25-.26-.52-.37-1.07-.4-1.48.55-.1.92-.85,1.24-.16-.34.03-.33.32-.45.57l.53-.4c.67.95-.74.48-.63,1.24,1.08-.51,2.27-1.56,3.18-1.4.33.98-1.97.65-.69,1.37l-1.39-.18c1.25,1.44-.83.01.36,1.57,1.8.03,1.89-.82,3.69-.77.32-.61-.25-.81.07-1.43,2.36-1.35,2.33,2.27,3.97.67.18-.35.28-.82.48-1.17-2.51-.9-4.94-2.08-7.5-2.83Z"/><path class="cls-1" d="m321.69,244.16c.11.19-.06.65-.27.76-.84.59-1.15-.34-1.18-.63l.61-.16c-.52-1.74-2.41.16-3.6,0l.56-1.22-1.28.97c-.25-.34-.39-1.04.21-1.2-.83-.66-.78.41-1.49-.32-.08-.11-.04-.17.04-.21l-.86.33c.18-.25-.1-.89.41-.68-1.48-.79-2.48.82-3.01-.16l.13-.07c-2.12.32-.24.91-1.86,1.9l-.96-2.31-.25.91c-.21-.04-.64-.13-.54-.5-.83.59.12.4-.37.97-1-.89-2.89.27-3.06-1.2-.4.68.97.57-.16,1.02-.25-1.58-1.3.22-2.22-.53.32-.8,1.21-.34.28-1.1-.63,1.35-1.84-.36-2.66-.13-.08,1.09-1.76.39-3.12.71.1-.36-2.51-.69-3.76-1.12l.04-.18c-.28,1.09-1.56.84-2.51,1.04.01-.15.03-.27.06-.38-1.18.96-2.54,1.8-3.95,2.52.61.02,1.21.19,1.8.66-.31,0-.76.33-.51.34l2.25-.3c-.16-.7-.28-.43-.74-.99.3-.4.94-.7,1.5-.68-1.02.42-.03,1.11.4,1.51-.07-.21.09-.44.06-.66,1.13,1.27.24-1.39,1.82-.5l-.1.36c.61-.17,1.17-.63,1.82-.5.24.81-.65.35-.71,1.01.91,0,1.84-1.46,2.64-.63-.39.21-.95.19-1.34.4.86.97.97.74,1.63.91l-.06-.02,1.52.48-.38-.27c1.21-2.05,2.32-.3,3.91-1.62-1.54,1.24-.27.74-.42,1.64.38.27.96.57.78.82.75-.71,1.18.62,2.24-.42.03.29.77.06.58.78.95-.2-.2-.52-.11-.88,1.49-.96,3.35,1.37,5.49.09,1.82-.47,2.2-1.44,3.89-1.85.54.5-.51,1.04-.51,1.04.89.47,1.57.43,2.44.14-.19.25-.02.47.23.81.69-.04.51-1.04,1.4-.57-.17.32-.4.83-.74,1.14.82-.23,1.65-.74,2.5-.96.2.52-.54.75-.86,1.06.95-.18,2.46-.34,2.79-1.13l-.44-.24Z"/></g></g></g></svg>