<?xml version="1.0" encoding="UTF-8"?><svg id="Layer_2" xmlns="http://www.w3.org/2000/svg" viewBox="0 0 470.48 362.05"><defs><style>.cls-1{fill:#fff;}.cls-2{fill:#a7dff1;}.cls-3{fill:#4eb6ce;}</style></defs><g id="shapes"><path class="cls-1" d="m461.54,92.13c-22.46-40.03-123.3-72.19-136.07-59.41-17.63-17.63-28.79,3.15-65.6-8.11-36.81-11.26-74.48-55.31-111.16,11.81-36.68,67.13-62.8,235.85.5,299.14,63.29,63.29,161.57-1.33,239.08-43.6,77.52-42.26,95.72-159.81,73.26-199.84Z"/><path class="cls-2" d="m28.21,306.5c1.28,0,.57-1.1.83-1.74,1.52-.35.73.8,1.27,1.35.95-.32,1.66-1.35,2.37-1.33.06.18.2.24.04.48.99-.91,3-.12,4.16-1.25.09.1.14.19.16.27-.2-.55-.25-1.11-.22-1.52.58-.03,1.05-.73,1.29,0-.35-.01-.38.28-.54.51l.6-.33c.57,1.03-.82.38-.8,1.15,1.17-.37,2.52-1.27,3.43-.98.21,1.01-2.1.38-.88,1.26l-1.4-.36c1.1,1.58-.85-.09.17,1.6,1.84.25,2.04-.56,3.88-.3.4-.57-.15-.84.25-1.41,2.59-1.06,2.1,2.53,3.98,1.14.48-.69.65-1.98,2.03-1.32l-.45,1.16c1.78.08.99-1.67,2.86-.93-.32.46-1.39.41-1.12.54,1.22.89.84-.67,1.77-.68l.21,1.02c1.89-.19,3.96-.94,6.06-1.15-.11.3-.47.63.02.93,2.64-.53,5.64.07,8.19.65l.97-.88c.23,0,.42.4.18.57.99.33.05-.56.52-.91.57-.06.75.5.39.77,1.75-.75,4.99-1.62,6.84-.68l-.36.26c1.44.35,1.62-1.81,2.96-.99l-.26.16c3.12.37,6.58-.39,8.95.95.46-1.27,3.09.58,3.3-1.18,1.78.89,1.26,1.19,3.77,1.81.67.09,1.01-1.09,1.84-1.26v.93l1.15-.95.59,1.11.78-.23c-.31-.06-.65-.42-.6-.69,1.22-.4,2.95.69,2.98,1.16l2.88-.74c-.07.37-.55.49-.94.72,1.55-.92.26.98,1.68.13-.18-.21.11-.55.15-.74.69.57,2.29.6,3.47.39l-.24.63c2.13.21,4.5-.21,6.89-.15-.85-.32-.63-1.42.07-1.51l.26.98c.47-.59-.72-.38.22-1.1.89.13.57,1.12.05,1.43l1.09-.32c.06.29-.2.44-.28.81.46-.6,1.85,1.02,2.52-.02l.05.29c2.39.07,3.48-.23,5.43-.22.06-.84.82-.63,1.42-1.3,1.42.31,2.99,1.02,4.72,1,1.22-.38.38-.7.94-1.19.06.77,1.79.75.88,1.27,2.07-.06,2.65-.06,5.29-.58-.27-.33-.59-.47-.41-.73.48-.11,1.07.36.99.73l-.13.07c2.98-1.04,6.69,2.48,9.09.99l-.13.07,2.46-.73c1.11.18-.69.55.11,1.06,2.67-1.16,4.12.37,6.31-.39,1.56,2.33,5.92.12,8.1,1.69l-.1-.54c.61-.49.69.34,1.11.49-.04-.42-.61-.51-.23-.78,4.96-.4,10.12,1.32,15.13,2.12,1.83.25,1.22-2.69,3.46-1.28l-.72.95c3.8-.98,7.61.55,11.32-.22-.23.21-.26.51-.62.48.72.77,2.84.23,2.9-.36.56.11.09.54.42.86.74.48,2-.79,2.36-.04.06.12-.23.22-.38.26.53-.31,2.34.27,1.91-.6,1.34.5,2.64-.17,3.7.4.78-.87,2.31.62,2.63-.67-.2,1.35,2.31,1.27,3.23.7-.32.39.72.48.33,1.02.99.05,1.91-.12,1.79-.83,1.69,1.77,3.76-1,4.61,1.15,2.99-.49,5.75-.75,8.41-.84-.21,1.34-2.93-.11-2.93,1.31,2.55-.34,4.09-1.38,6.54-.84.63.24-.41.55-.65.77,2.55-.34,4.83.54,7.11,0-.02.12-.27.24-.5.33.44,0,1,.28,1.01-.33l-.44.13c-.62-.95,1.9-1.71,2.02-2.17-.89,1.69,2.16.63.79,2.75.3-.09.69-.35.65-.77.42.16.53.41.06.84,1.6-.2,1.1-.9,2.52-.77-.03.3-.33.39-.5.72.77-.52,1.54-1.03,2.73-.69-.09.17.03.42-.33.38,2.08.08,3.65-1.25,5.88-.51-.77,1.23.74.49.77,1.61l1.25-.24-.45-.58c1.07.1,2.08-.64,2.97-.2l-.83.4,2.02-.06-1.1-.51c1.13-.49,0-1.42,1.39-1-.3.09,1.07.1,1.58.8.56-.31,1.13-.64,1.9-.31.18.37-.26,1.22-.14,1.47.59-.9,2.53-.08,3.26-1.03-.24.22-.29.8-.23.93l.49-.73c.48.28.54.4.43.86,1.48.24-.38-1.45,1.35-.71-.14.05-.08.17-.38.26,1.76.45,3.47-.25,5.08.23.41,1.16-1.45.19-.96,1.17,2.38-.06,4.97-1.03,7.23-.65l-.42-.15c.4-1.57,1.66.87,2.85.19-.29.1-.42.86-.33.69,1.55.33,3.22-.21,5.61-.62l-.31.4c.91.4,2.42.31,3.41.54.31-.4.88-.31.56-.91,2.99,2.47,5.9-1.07,8.57.96-.33,0-.79.34-.53.34l2.33-.32c-.17-.7-.3-.42-.77-.97.3-.4.96-.72,1.54-.71-1.05.45,0,1.11.43,1.51-.07-.21.09-.45.05-.66,1.19,1.25.22-1.39,1.87-.54l-.09.36c.62-.18,1.2-.65,1.86-.54.27.81-.66.37-.71,1.03.94-.03,1.86-1.5,2.71-.69-.4.22-.97.21-1.37.43.92.95,1.03.72,1.72.87l-.07-.02,1.59.42-.41-.25c1.18-2.1,2.4-.39,3.97-1.77-1.53,1.3-.25.75-.36,1.66.41.25,1.03.53.85.79.74-.74,1.26.58,2.31-.51.05.29.8,0,.65.75.97-.25-.24-.5-.16-.87,1.48-1.03,3.57,1.13,5.69-.29,1.85-.6,2.15-1.64,3.85-2.19.6.44-.43,1.09-.43,1.09.96.39,1.66.28,2.53-.1-.17.26.03.47.31.79.71-.11.42-1.08,1.38-.7-.14.33-.32.86-.65,1.21.83-.31,1.63-.88,2.48-1.21.26.49-.48.81-.77,1.16.96-.29,2.5-.63,2.75-1.45l-.64-.25c.35-.06.23.68-.03.84-.8.69-1.22-.2-1.29-.49l.61-.23c-.73-1.66-2.46.43-3.71.37l.46-1.27-1.22,1.09c-.29-.31-.5-1,.1-1.21-.91-.58-.77.48-1.56-.18-.09-.1-.05-.16.02-.22l-.85.41c.16-.27-.18-.87.36-.72-1.58-.65-2.47,1.05-3.09.12l.13-.08c-2.14.47-.18.92-1.77,2.03l-1.15-2.23-.19.92c-.22-.03-.67-.09-.59-.45-.81.65.15.4-.32,1-1.09-.81-2.95.46-3.22-.99-.38.71,1.03.51-.1,1.02-.35-1.57-1.32.28-2.31-.44.29-.81,1.22-.39.24-1.11-.58,1.37-1.91-.29-2.73-.02-.04,1.09-1.79.47-3.18.83.09-.36-2.6-.63-3.89-1.04l.04-.18c-.26,1.1-1.59.87-2.56,1.09.05-.66.23-.92.76-1.21h-.91c-.22.34-.51.53-1.1.64l.25-.82c-1.21.01-2.46.9-4,.31-.11.77,1.18,2.17-.48,2.64-.05-.42-.09-1.13.35-1.29-.14.05-.51.33-.79.15l.68-.68c-.7-.33-.39.57-.95.49.03-.59-.41-.43-.31-.9.15-.05.49.26.71.03-.64-.12-1.4-.5-1.64-.95.04.34-.03.8-.5.86-1.21,0-.39-.73-1.08-1.05-.31.4-1.06-.06-1.12.82-.35-.02-.4-.43-.53-.68-.64.36-2.93,0-2.26.96l.16.07s-.07.02-.1.03c-2.09.8-4.24-.68-6.3-.42l.02-.3c-1.23.27-2.72.06-3.62.65-.36-.02-.82-.59-.64-.93-.94.17-1.07.49-2.38-.08.97-.46-.29-.48.98-.32-1.19-.33-1.43-.82-2.78-.1.49-.73-.85-1.01-1.44-.82l.81.6c-.65.07-1.21-.03-1.78-.13l.37-.98c-2.38-1.36-4.59,1.75-6.33-.4-.7.65,1.31.59.66,1.36-1.13-.22-2.21-1.73-2.56-1.76-1.51-.66-1.56,1.35-3.16.85.18.37.31,1.33-.94,1.57-1.13-.22-1.28-1.6-.54-1.83.27,0,.4.11.38.23.38-.1.87-.22.45-.64l-.17.34c-.54-.41-2.1-.49-1.69-1.04-.88.27-.41.55.21.79-1.42-.63-2.28-.19-3.75-.66.22.22.41.65.17.63-2.17-.62-1.02.59-2.53.63-.8-.61.41-1.27-1.13-.94-.89-.44-.12-.96.27-1.22-1.42.57-2.52-.66-3.29-.85l.74-.23c-.44.14-.8.1-1.16.07l.35.74c-.41-.16-.77-.19-.74-.49-.47.43.24,1.21-.68,1.77-.53-.41-1.75.24-1.87-.72,1.75.47-.12-.96,1.4-.99-.3.09-.65.05-1.07-.11-.05-.11.08-.19.2-.23-1.63-.98-.87,1-2.63.83.27-.51-.32-1.04-.62-.95.71.07.26.91-.42,1.27-1.09-.51-1.25.2-1.84.11l.66.25c-.27.51-.83.39-1.63.49-.03-.42.74-.22.47-.43-.95.86-1.89-1.13-3.16-.61-.53-.41.03-1-.44-1.29-1.42.57-1.42-.85-2.9-.41.35.75.44.58-.63,1.19l2.4-.3-1.6.91c.71.07,1.54-.32,1.96-.16-.77.52-.68.35-.39.97-.88-1.15-1.98.46-3.05-.36l.18-1.76c-1.63-.93-3.09.65-5.25.02l.68.37c-.35.68-1.37-.02-2.1.21.12-.58-.31-.84-.59-1.23,0,.44-1.61-.17-1.91.99l-.92-.86c-1.75-.46-2.17,1.52-3.86,1.18.57-.6-.18-1.08,1-1.45-.57-.05-1.07-.2-1.12.21-.3-.4-1.65.67-2.13.07-.26.24-.39.85-1.03.76-.06-.12.03-.29.03-.29-.03.29-1.03.32-.53,1.02-1.61-1.98-4.92-.24-6.33-1.94-1.26.1-2.78.18-3.91.14.09-.17.02-.29.23-.22-1.52-.66-1.08,1.63-2.81.9-.84-1.02.98-.45.44-.85-.11-1.96-2.16.12-3.28-1.1l.3-.09c-.87-.72-2.28.58-3.76.34,0,0,.08-.17.03-.29-1.09.92-3.04,1.12-4.49,1.3.5-.73.68-.36.46-1.15-.65.07.11,1.25-1.19,1.39-.39-.44-1.3-.86-1.37-1.69l1.22.03c-.55-1.11-1.57-.06-2.2-.28l.11-.46c-1.87.04-1.97,1.21-3.96,1.01l.19.37c-1.16,1.1-.88-.71-2.02.09l-.26-1.2c-.74.24-2.59.99-3.89,1.13.78-.83,2.32-1.19,3.28-1.65-.71-.05-2.43-.06-2.84.5.29-.1.67-.36.95-.17-.93.87-2.11,1.27-3.53,1.17.38-2.28-3.68-.77-4.62-2.61-2.56.72-4.98-.64-7.92-.63.96,1.83-.86,0-.77,1.85-.69.09-.95.04-1-.08l-2.02-1.19c-.47-.56.67-.38.62-.79-1.49-.21-.59-.8-1.56-1.34.17.66-.56.92-1.41.63l1.16.9c-2.14.88-1.74-1.62-3.89-.75l.69-.55c-1.1.29-4-.19-5.12,1.25-.18-.22-.42-.73.07-.84-2.58-.32-5.82,1.35-7.8.37l.21-.44c-.49.11-.87.81-1.46.34.04-.18.21-.44,0-.47-.26.15-1.31.74-1.94.45l.56-.48c-2.51-.68-3.92,1.11-6.04,1.35.05-1.32-1.93-1.81-2.91-2.05l.04-.19c-2.94-.24-5.03.93-7.76,1.4-1.66-1.47-5.71-.72-8.41-1.59.41.25-.09,1.03-.57,1.15-.63-.28-1.78.88-1.66-.33l.23.03c-.46-1.2-1.78-.9-2.8-.95l-.19,1.58c-2.64-2.34-7.02.75-8.46-1.33-.65.39-1.45.37-2.09.76l.04-.85c-1.79-.23-2.68-.34-4.9-.15l.49-.59c-1.25-.06-1.59,2.44-2.74,2.48l-.34-1.27c-2.18,0-4.38-1.12-6.53.02.04-.19.1-.55.45-.6-1.02-.03-3.97-.85-3.59.89-.03-1.13-2.25-.11-3.42.39l.18-.84c-.99,1.07-1.02,1.36-2.4,1.66-.33-.11-.29-.67.15-.46-1.1-.44-.85.79-2.18.35l.49-.53c-1.13-.06-1.03.22-1.65.85-.71.33-2.13-.2-2.31-.95-.15.46-.76,1.08-1.42.87-.09-.28.15-.46.27-.55-1.89-.55-2.79,1-4.09.19-.03-.28-.12-.41-.22-.5,1.49,0,2.7.04,2.59.1,0-.77-1.22-.89-.26-1.97-.97.59-2.61,1.87-3.79,1.52-.06-.07-.11-.15-.16-.27l.12-.09c-.27-.07-.52,0-.74.13-.38-.12-.62-.21-.98-.22-.15-.64-1.39-.33-1.99-.36.06.84-.73.72.02,1.4-.1-.06.11-.1.51-.14.09-.03.2-.04.26-.09-.01.02-.03.05-.04.07.39-.03.91-.05,1.5-.07-.47.43-.96.8-1.63.34-.3.54-.64,1.11-.82,1.37-.84-1.17-2.44-1.78-2.67-2.5-1.83.5-4.33.39-5.46,1.99-.52.21-.61-.44-.81-.69.3-.16.66-.15.82-.38-1.04.42-3.09.21-3.32,1.32-1.33-.48.72-1.03-1.09-.82l.24-.34c-3.6-1.71-5.72,2.96-9.72.78.28.13.42.19.48.38-4.53-.9-9.24,1.19-13.72-.25-1.27-.28-1.39.43-2.14.99l-.3-.9-1.28,1.09c-1.84.82-3.31-2.1-5.62-.56l.33.6c-.85-.08-2.67.47-2.56-.24-.08.11-.25.65-.6.34l-.05-.47-2.05.9c-1.63-.28.17-1.89-2.19-1.89-.87.22-2.44,1.48-2.09,1.78.35,0,.92.26.96.73l-.79.28c-.08,1.4-.63,2.86,1.37,3.75l1.33-.91.47.66-1.15.09c.68.61,1.07.03,1.52-.38.12.36.33.6.6.72l1.29-1.39c.18.54-.56,1.11.36,1.37.6-.64-.65-1.2.37-1.65.68.61.51,1.13,1.26.56.12.36-.03.59-.33.76.67-.46,1.8-.26,2.12-1.01.71.76,2.3-.3,2.28,1.03.2-.32,1.16-1.09,1.79-1.17-1.09,1.62,2.35.02,2.11,1.72.8-1.45,3.04-.73,4.52-1.57-.08.12-.24.35-.37.28.85.09,1.11.51,1.66.76.07-1.18,1.38-1.49,2.07-2.24,1.07,1.1-.59,1.4-.23,2.48-.08-.95,1.77-1.01,1.4-1.79.81.68.69.32,1.13,1.28.1-1.47.73-.28,1.36-1.19,1.17.7.33,1.37,1.58.89.61.44-.49.98-.49.98l-.03.05Zm29.94-3.11v.02c-.26.02-.48.04-.62.05.13-.01.31-.03.62-.07Zm2.52-.04c-.31-.03-.69-.03-1.09-.02-.09-.29,0-.59.26-.58-.14.2.46.36.84.6h-.01Zm-5.41-5.79c.4-.12.54.04.59.21-.19.02-.41.05-.7.11,0,.03-.03.07-.05.1.04-.16.08-.31.15-.42h0Z"/><path class="cls-3" d="m125.72,297.92c-.39-.13-.77-.23-1.07-.3l.04-.19c-2.94-.24-5.03.93-7.76,1.4-1.66-1.47-5.71-.72-8.41-1.59.41.25-.09,1.03-.57,1.15-.63-.28-1.78.88-1.66-.33l.23.03c-.46-1.2-1.78-.9-2.8-.95l-.19,1.58c-2.64-2.34-7.02.75-8.46-1.33-.65.39-1.45.37-2.09.76l.04-.85c-1.79-.23-2.68-.34-4.9-.15l.49-.59c-1.25-.06-1.59,2.44-2.74,2.48l-.34-1.27c-2.18,0-4.38-1.12-6.53.02.04-.19.1-.55.45-.6-1.02-.03-3.97-.85-3.59.89-.03-1.13-2.25-.11-3.42.39l.18-.84c-.99,1.07-1.02,1.36-2.4,1.66-.28-.09-.29-.51-.01-.5-.9-.24-.76.81-2.02.39l.49-.53c-1.13-.06-1.03.22-1.65.85-.71.33-2.13-.2-2.31-.95-.15.46-.76,1.08-1.42.87-.09-.28.15-.46.27-.55-1.89-.55-2.79,1-4.09.19-.03-.28-.12-.41-.22-.5,1.49,0,2.7.04,2.59.1,0-.77-1.22-.89-.26-1.97-.97.59-2.61,1.87-3.79,1.52-.06-.07-.11-.15-.16-.27l.12-.09c-.27-.07-.52,0-.74.13-.38-.12-.62-.21-.98-.22-.15-.64-1.39-.33-1.99-.36.06.84-.73.72.02,1.4-.1-.06.11-.1.51-.14.09-.03.2-.04.26-.09-.01.02-.03.05-.04.07.39-.03.91-.05,1.5-.07-.47.43-.96.8-1.63.34-.3.54-.64,1.11-.82,1.37-.84-1.17-2.44-1.78-2.67-2.5-1.83.5-4.33.39-5.46,1.99-.52.21-.61-.44-.81-.69.3-.16.66-.15.82-.38-1.04.42-3.09.21-3.32,1.32-1.33-.48.72-1.03-1.09-.82l.24-.34c-3.6-1.71-5.72,2.96-9.72.78.28.13.42.19.48.38-4.53-.9-9.24,1.19-13.72-.25-1.27-.28-1.39.43-2.14.99l-.3-.9-1.28,1.09c-1.84.82-3.31-2.1-5.62-.56l.33.6c-.85-.08-2.67.47-2.56-.24-.08.11-.25.65-.6.34l-.05-.47-2.05.9c-1.63-.28.17-1.89-2.19-1.89-.87.22-2.44,1.48-2.09,1.78.35,0,.92.26.96.73l-.79.28c-.08,1.4-.63,2.86,1.37,3.75l1.33-.91.47.66-1.15.09c.68.61,1.07.03,1.52-.38.12.36.33.6.6.72l1.29-1.39c.18.54-.56,1.11.36,1.37.6-.64-.65-1.2.37-1.65.68.61.51,1.13,1.26.56.12.36-.03.59-.33.76.67-.46,1.8-.26,2.12-1.01.71.76,2.3-.3,2.28,1.03.2-.32,1.16-1.09,1.79-1.17-1.09,1.62,2.35.02,2.11,1.72.8-1.45,3.04-.73,4.52-1.57-.08.12-.24.35-.37.28.85.09,1.11.51,1.66.76.07-1.18,1.38-1.49,2.07-2.24,1.07,1.1-.59,1.4-.23,2.48-.08-.95,1.77-1.01,1.4-1.79.81.68.69.32,1.13,1.28.1-1.47.73-.28,1.36-1.19,1.17.7.33,1.37,1.58.89.61.44-.49.98-.49.98l-.03.05c1.28,0,.57-1.1.83-1.74,1.52-.35.73.8,1.27,1.35.95-.32,1.66-1.35,2.37-1.33.06.18.2.24.04.48.99-.91,3-.12,4.16-1.25.09.1.14.19.16.27-.2-.55-.25-1.11-.22-1.52.58-.03,1.05-.73,1.29,0-.35,0-.38.28-.54.51l.6-.33c.57,1.03-.82.38-.8,1.15,1.17-.37,2.52-1.27,3.43-.98.21,1.01-2.1.38-.88,1.26l-1.4-.36c1.1,1.58-.85-.09.17,1.6,1.84.25,2.04-.56,3.88-.3.4-.57-.15-.84.25-1.41,2.59-1.06,2.1,2.53,3.98,1.14.48-.69.65-1.98,2.03-1.32l-.45,1.16c1.78.08.99-1.67,2.86-.93-.32.46-1.39.41-1.12.54,1.22.89.84-.67,1.77-.68l.21,1.02c1.89-.19,3.96-.94,6.06-1.15-.11.3-.47.63.02.93,2.64-.53,5.64.07,8.19.65l.97-.88c.23,0,.42.4.18.57.99.33.05-.56.52-.91.57-.06.75.5.39.77,1.75-.75,4.99-1.62,6.84-.68l-.36.26c1.44.35,1.62-1.81,2.96-.99l-.26.16c3.12.37,6.58-.39,8.95.95.46-1.27,3.09.58,3.3-1.18,1.78.89,1.26,1.19,3.77,1.81.67.09,1.01-1.09,1.84-1.26v.93l1.15-.95.59,1.11.78-.23c-.31-.06-.65-.42-.6-.69,1.22-.4,2.95.69,2.98,1.16l2.88-.74c-.05.27-.33.41-.63.56,1.05-.47.06,1.08,1.37.29-.18-.21.11-.55.15-.74.69.57,2.29.6,3.47.39l-.24.63c2.13.21,4.5-.21,6.89-.15-.85-.32-.63-1.42.07-1.51l.26.98c.47-.59-.72-.38.22-1.1.89.13.57,1.12.05,1.43l1.09-.32c.06.29-.2.44-.28.81.46-.6,1.85,1.02,2.52-.02l.05.29c2.39.07,3.48-.23,5.43-.22.06-.84.82-.63,1.42-1.3,1.03.23,2.14.66,3.34.87-2.21-1.91-3.02-4.75-2.71-7.44Zm-70.57-.04s-.03.07-.05.1c.04-.16.08-.31.15-.42h.01c.4-.12.54.04.59.21-.19.02-.41.05-.7.11Zm5.52,5.47c-.31-.03-.69-.03-1.09-.02-.09-.29,0-.59.26-.58-.14.2.46.36.84.6h-.01Z"/><path class="cls-3" d="m58.15,303.39v.02c-.26.02-.48.04-.62.05.13-.01.31-.03.62-.07Z"/></g></svg>