<?xml version="1.0" encoding="UTF-8"?><svg id="Layer_2" xmlns="http://www.w3.org/2000/svg" viewBox="0 0 625.31 161.32"><defs><style>.cls-1{fill:#23aedb;}</style></defs><g id="shapes"><path class="cls-1" d="m.32,35.04c-.73.38-.26,1.15,1.78.86l1.38-1.41-3.16.56Z"/><path class="cls-1" d="m14.28,36.61c2.37-.78,5.06-2.12,3.41-3.21-2.29,1.42-2.91.93-5.37,2.6-2.05.29-3.61-.2-3.3-.7-.71.39-3.2-.09-4.26.81,2.73.85,6.13.68,9.61-.39.78.24.07.63-.09.89Z"/><path class="cls-1" d="m214.06,11.67h-1.31c.36.05.81.04,1.31,0Z"/><path class="cls-1" d="m338.26,6.21c-.95,0-1.35.12-1.4.23.88-.06,1.61-.11,1.4-.23Z"/><path class="cls-1" d="m359.43,8.45c-.45-.06-.84-.1-1.25-.16.47.15.95.24,1.25.16Z"/><path class="cls-1" d="m214.06,11.67h3.35c.18-.45-1.73-.1-3.35,0Z"/><path class="cls-1" d="m41.6,30.98c-.69.14-1.25.32-1.76.54.56-.12,1.11-.22,1.67-.32.02-.07.04-.14.09-.22Z"/><path class="cls-1" d="m159.82,20.47l-1,.16c-.27.19-.52.42-.75.66l1.75-.82Z"/><path class="cls-1" d="m118.14,27.22c.95-.1,1.11-1.26,1.39-1.8-.46.54-1.13.87-1.94,1.08.02.21.18.45.55.72Z"/><path class="cls-1" d="m51.49,34.51l-1.17.28c.3-.08.82-.18,1.17-.28Z"/><path class="cls-1" d="m189.7,16.24c.09.16.26.28.44.35-.02-.14-.19-.25-.44-.35Z"/><path class="cls-1" d="m56.4,79.27c.08.03.13-.02.2,0-.12-.24-.2-.31-.2,0Z"/><path class="cls-1" d="m61.1,30.27l.07.68c.21.07.42.14.63.14l-.71-.81Z"/><path class="cls-1" d="m398.14,12.23c-.07-.01-.1-.02-.17-.03-1.03.06-.45.08.17.03Z"/><path class="cls-1" d="m594.13,140.61c4.13.63-6.45,1.89-.27,2.44-.61-.39,5.36-2.25.27-2.44Z"/><path class="cls-1" d="m42.7,31.01c.56-.07,1.14-.14,1.71-.19-.78.05-1.31.11-1.71.19Z"/><path class="cls-1" d="m593.85,143.05h0s.64.06.64.06c-.26-.02-.41-.04-.64-.06Z"/><path class="cls-1" d="m487.62,19.27c-.17-.21-.51-.4-.87-.57.02.12.21.28.87.57Z"/><path class="cls-1" d="m421.12,11.75l1.64.29c-.65-.16-1.17-.24-1.64-.29Z"/><path class="cls-1" d="m522.42,20.66c.89.16,1.19.33,2.43.27-.11-.06-.22-.11-.36-.16-.46.12-1.05.15-2.06-.11Z"/><path class="cls-1" d="m558.57,23.17c-.19-.1-.44-.18-.65-.27-.36,0-.78,0-1.15-.01l1.8.28Z"/><path class="cls-1" d="m92.05,154.97c-.79-.29-1.29-.63-1.68-.96.57.78-4.66,1.23,1.68.96Z"/><path class="cls-1" d="m41.68,31.61c.18-.3.47-.48,1.01-.6-.41.06-.8.13-1.19.19-.09.18-.09.34.17.41Z"/><path class="cls-1" d="m524.59,11.93l5.7.59c-1.59-.23-3.66-.44-5.7-.59Z"/><path class="cls-1" d="m351.27,159.76l-1.32.11c.51.03.98.01,1.32-.11Z"/><path class="cls-1" d="m547.26,13.58c.99.46,2.06.76,3.17.98.24-.07.52-.13.68-.25l-3.85-.73Z"/><path class="cls-1" d="m90.36,154s.01.01.01.01c0,0,0,0-.01-.01Z"/><path class="cls-1" d="m50.88,149.3c3.1,4.87,2.68,1.46,4.04,2.02.33.45.62.85.89,1.22.3.43.57.82.82,1.17.47.7.83,1.26,1.09,1.73.52.92.66,1.43.66,1.8,0,.37-.15.59-.18.96-.02.19,0,.42.08.74.02.22.17.19.32.23.16.03.36.05.6.06,1.97-.41,3.79-.85,5.46-1.3l.62-.16c.18-.05.46-.11.52-.15.21-.08.41-.16.61-.23.41-.16.8-.31,1.19-.46,1.56-.59,3.02-1.09,4.5-1.21.25.22.83.24.19.62,2.03-.8,5.16-1.1,8.38-1.36,3.23-.26,6.55-.49,9.01-1.31.38.12.57.24.66.35-.83-.72-.98-1.46-.83-2,2.44-.11,4.51-1.06,5.46-.12-1.5,0-1.61.4-2.31.72l2.55-.48c2.33,1.34-3.48.55-3.45,1.59,4.95-.6,10.78-1.79,14.62-1.43.81,1.35-8.96.53-3.84,1.7l-5.92-.44c4.55,2.06-3.59-.09.59,2.13,7.76.28,8.69-.79,16.48-.4,1.75-.76-.58-1.12,1.17-1.87,11.08-1.36,8.71,3.39,16.86,1.61,2.11-.89,2.94-2.6,8.74-1.64l-1.99,1.52c7.56.22,4.34-2.17,12.25-1.07-1.42.59-5.95.46-4.81.65,5.12,1.26,3.64-.85,7.59-.8l.8,1.37c8.06-.07,16.95-.95,25.88-1-.5.39-2.04.78.04,1.25,5.63-.21,11.64-.04,17.59.32,5.95.38,11.85.96,17.27,1.5l4.18-1.06c.96.04,1.77.58.72.78,4.22.56.24-.74,2.29-1.14,2.41-.01,3.16.77,1.63,1.08,7.5-.77,21.34-1.52,29.17-.02l-1.54.3c6.12.66,6.99-2.2,12.64-.93l-1.1.17c13.29.91,28.03.28,38.14,2.32,1.98-1.64,13.16,1.12,14.07-1.23,7.57,1.35,5.39,1.72,16.08,2.75,2.86.17,4.29-1.36,7.84-1.55l.06,1.23,4.83-1.21,2.53,1.52,3.32-.26c-1.32-.1-2.8-.6-2.59-.95,5.19-.47,12.62,1.09,12.74,1.71l12.28-.91c-.28.49-2.33.64-3.96.94,6.56-1.19,1.18,1.31,7.19.22-.8-.29.44-.73.58-.98,1.49.39,3.94.61,6.65.68,2.71.06,5.67-.01,8.19-.17l-.97.85c4.55.11,9.36.02,14.29-.1,4.94-.15,10.02-.37,15.13-.4-3.67-.36-2.84-1.84.15-2.01l1.21,1.29c1.93-.82-3.13-.46.82-1.49,3.82.12,2.59,1.46.4,1.9l4.64-.5c.28.39-.81.6-1.08,1.1,1.89-.8,8.04,1.16,10.77-.3l.27.38c10.23-.21,14.85-.73,23.18-1.12.12-1.13,3.39-1,5.83-1.99,6.12.16,12.95.77,20.32.28,5.15-.83,1.46-1.03,3.75-1.82.43,1.01,7.78.5,4.01,1.45,8.82-.68,11.28-.85,22.38-2.43-1.24-.34-2.61-.43-1.93-.82,2.01-.3,4.63.12,4.38.63l-.53.14c12.4-2.38,29.12.83,38.91-2.14l-.55.15,10.23-1.99c4.76-.24-2.78,1.01.79,1.34,10.98-2.67,17.6-1.31,26.66-3.28,2.47.79,6.12.77,10.23.42,1.03-.09,2.09-.19,3.16-.31,1.97-.21,3.97-.42,5.99-.63,2.01-.22,4.03-.44,6.05-.66,1-.11,1.99-.22,2.99-.32l1.48-.16.74-.08c.22-.04.4-.08.6-.13-1.07-1.79-2.12-3.55-3.14-5.28-1.01-1.77-1.98-3.5-2.9-5.18-.46-.84-.77-1.65-1.13-2.46-.27-.76-.6-1.72-.64-1.93-.23-.75-.28-1.52-.36-2.21l-.53.68c-1.37-1.89-.34-2.69-.58-4.27-.48.33-.05,2.48-.75,1.23-.71-2.27-1.09-4.68-1.4-7.12-.22-2.47-.35-4.98-.27-7.56.11-5.13.78-10.4,1.54-15.79,1.59-10.87,2.92-22.02,3.59-32.87.42-7.96-3.52-4.61-1.65-14.56l1.27,2.86c-.65-8.02-.61-16.17-.54-24.26v-2.26c.03-.9,0-1.8-.16-2.64-.28-1.66-.99-3.22-2.2-4.42-1.2-1.19-2.72-1.95-4.4-2.36-.84-.2-1.71-.33-2.6-.39-.44-.03-.89-.05-1.34-.06h-1.04c-3.98-.07-7.92-.03-11.8.2.93-.28.97-.67,2.48-.63-3.24-1.06-12.09-.37-12.18.38-2.41-.2-.53-.73-2-1.2-3.25-.72-8.29.84-9.99-.2-.29-.17.94-.27,1.54-.31-2.16.36-9.96-.59-7.97.62-5.78-.85-11.15-.19-15.75-1.12-1.55.52-4.03.22-6.26,0-2.23-.25-4.2-.42-4.74.42.54-1.77-10.09-2.21-13.83-1.64,1.27-.45-3.15-.8-1.65-1.45-4.2-.32-8.07-.31-7.41.68-7.55-2.8-15.69.45-19.8-2.72-12.55-.13-24.16-.53-35.42-1.13.57-1.76,12.42.95,12.11-.98-10.71-.23-17,.76-27.52-.63-2.71-.49,1.62-.64,2.57-.86-10.7-.23-20.58-1.96-30.15-1.79.04-.16,1.08-.27,2.06-.33-1.88-.1-4.33-.61-4.18.23l1.84-.08c2.89,1.42-7.63,1.9-8.01,2.5,3.36-2.1-9.32-1.32-4.06-3.89-1.24.06-2.82.32-2.58.89-1.81-.3-2.37-.67-.47-1.14-6.73-.08-4.42,1-10.49.56.05-.4,1.29-.47,1.95-.89-3.13.57-6.27,1.13-11.39.45.32-.22-.25-.57,1.28-.46-2.21-.12-4.26-.11-6.24-.05-1.99.11-3.91.21-5.85.31-3.89.2-7.88.29-12.7-.34,2.94-1.57-3.27-.75-3.72-2.23l-5.24.26,2.07.8c-4.57-.19-8.64.76-12.55.13l3.41-.5c-2.86.01-5.71-.05-8.57.02,1.61.2,3.22.45,4.83.7-4.64.63.45,1.85-5.62,1.33,1.24-.14-4.56-.08-6.93-1h.02c-2.27.44-4.59.91-7.96.49-.87-.49.72-1.64.15-1.97-2.23,1.15-10.71.38-13.53,1.73.94-.32.98-1.11.67-1.26l-1.86,1.03c-2.12-.3-2.43-.46-2.1-1.09-6.38-.12,2.05,1.87-5.52,1.13.59-.09.3-.24,1.54-.4-3.8-.22-7.46.15-11.05.42-3.58.29-7.08.56-10.58.44-2.13-1.42,6.08-.6,3.67-1.77-2.51.18-5.07.37-7.64.71-2.56.35-5.14.71-7.71,1.07-2.57.35-5.12.68-7.65.95-2.52.28-5,.56-7.44.67h1.82c-1.16,2.24-7.31-.41-12.13,1.02,1.18-.26,1.46-1.31,1.16-1.05-3.34.12-6.71.66-10.5,1.31-3.79.67-7.99,1.46-12.95,2.45l1.18-.69c-3.95,0-10.3.98-14.53,1.28-1.18.71-3.59.95-2.02,1.54-13.38-1.33-24.44,5.11-36.26,4.31,1.37-.22,3.19-.98,2.1-.81l-9.68,2c.91.79,1.36.36,3.52.75-1.15.73-3.84,1.58-6.25,1.95,4.29-1.28-.27-1.46-2.24-1.68.36.23-.24.64-.03.9-5.34-.82-.56,1.97-7.68,1.97l.29-.54c-2.56.65-4.86,1.67-7.68,1.97-1.33-.87,2.69-.93,2.73-1.83-3.93.68-7.46,3.23-11.19,2.73,1.63-.56,4.03-.94,5.66-1.5-4.08-.63-4.48-.24-7.39.01l.29-.02-6.75.49,1.75.07c-4.5,3.54-9.96,2.05-16.32,4.89,6.19-2.7.92-1.15,1.23-2.43-1.75-.07-4.38-.05-3.7-.5-2.99,1.45-5.35.02-9.57,2.09-.25-.36-3.36.46-2.8-.62-4.04.9,1.06.53.79,1.06-6.1,2.28-15.01.49-23.82,3.55-7.72,1.71-9.01,3.2-16.21,4.75-2.53-.32,1.84-1.66,1.84-1.66-4.02-.06-6.99.3-10.67,1.16.72-.42-.09-.62-1.27-.94-2.98.42-1.86,1.63-5.86,1.48.63-.51,1.43-1.29,2.83-1.88-1.74.36-3.47.83-5.21,1.28-1.74.42-3.51.85-5.32,1.18-1.03-.59,2.11-1.22,3.36-1.77-4.08.66-10.59,1.54-11.77,2.72l2.67.15c-1.5.18-.85-.85.24-1.15,3.45-1.15,5.11-.07,5.35.3l-2.59.48c1.44,1.02,4.06.7,6.96.09,2.91-.61,6.1-1.63,8.72-1.83l-2.01,1.89,5.24-1.95c1.19.31,2.08,1.15-.49,1.67,3.85.42,3.27-.94,6.6-.38.37.1.22.2-.1.3,1.21-.29,2.41-.62,3.62-.93-.68.44.75,1.09-1.54,1.13,6.71.14,10.48-2.55,13.12-1.61l-.54.17c9.07-1.72.73-1.31,7.39-3.64l5.01,2.35.73-1.33c.95-.09,2.82-.25,2.55.28,3.39-1.31-.67-.44,1.25-1.5,4.69.5,12.4-2.33,13.7-.54,1.49-1.16-4.43-.07.3-1.42,1.68,1.86,5.53-1.16,9.8-.86-1.1,1.26-5.1,1.3-.83,1.62,2.22-2.19,8.1-.84,11.53-1.73-.06-1.45,7.48-1.78,13.24-3.18-.29.54,11.11-.94,16.62-1.28l-.12.27c.82-1.61,6.47-2.24,10.5-3.16-.02.89-.71,1.35-2.85,2.08l3.83-.6c.83-.6,1.99-1.03,4.45-1.58l-.8,1.23c5.09-.85,10.08-2.87,16.76-3.1.22-1.07-5.65-2.05,1.21-3.75.34.51.73,1.41-1.05,1.9.58-.16,2.06-.77,3.29-.71l-2.64,1.33c3.05-.04,1.45-1,3.86-1.27.07.79,1.85.3,1.6.97-.6.17-2.13-.01-3.01.43,2.72-.25,6.04-.28,7.21.17-.3-.41-.15-1.05,1.81-1.43,5.1-.76,1.88.7,4.92.69,1.16-.71,4.5-.6,4.43-1.78,1.5-.2,1.85.31,2.47.55,2.57-.91,12.34-1.7,9.2-2.59h-.69c.12-.04.27-.06.43-.1h-.02s.02,0,.02,0c4.27-1.1,8.8-1.56,13.34-1.78,4.54-.24,9.07-.39,13.36-1.1l.03.4c5.11-.94,11.46-1.28,15.07-2.46,1.53-.13,3.66.4,3.04.93,3.92-.55,4.34-1.02,10.09-.74-3.92.94,1.41.52-4.03.77,5.15.01,6.34.55,11.79-.86-1.82,1.08,3.92,1.13,6.35.73l-3.63-.59c2.74-.25,5.14-.25,7.58-.26l-1.27,1.38c2.64.31,5.13.24,7.51.01,1.19-.11,2.36-.27,3.5-.44,1.14-.15,2.27-.31,3.37-.45,4.41-.6,8.53-1.05,12.53.26,2.78-.96-5.71-.6-3.23-1.71,2.42.07,4.89.56,6.94,1.04,2.05.47,3.69,1.01,4.44,1.01,6.61.83,6.2-1.86,13.13-1.26-.88-.49-1.69-1.77,3.51-2.14,4.85.31,5.9,2.19,2.84,2.45-1.16,0-1.72-.17-1.67-.33-1.57.14-3.62.32-1.72.86l.64-.47c2.39.54,9.04.74,7.46,1.46,3.67-.32,1.59-.72-1.11-1.06,6.18.91,9.7.34,16.06,1.06-1-.32-1.91-.91-.9-.86,9.34,1.08,4.17-.68,10.53-.56,3.57.91-1.38,1.66,5.04,1.39,3.87.69.75,1.3-.82,1.61,5.87-.64,10.83,1.25,14.14,1.64l-3.09.18c1.85-.1,3.34,0,4.87.11l-1.69-1.06c1.79.29,3.31.39,3.25.78,1.9-.5-1.31-1.67,2.43-2.27,2.37.65,7.35-.04,8.08,1.3-7.51-.97.74,1.31-5.66,1.08,1.24-.06,2.74.03,4.53.33.26.16-.27.24-.77.28,7.13,1.68,3.42-1.16,10.9-.55-1,.63,1.63,1.48,2.86,1.42-3.01-.25-1.35-1.29,1.46-1.62,4.75.93,5.25-.01,7.76.27l-2.85-.5c1.03-.64,3.42-.33,6.79-.27.24.58-3.07.12-1.9.46,3.82-.93,8.28,2.01,13.53,1.61,2.36.68.12,1.35,2.19,1.85,5.88-.4,6.2,1.53,12.36,1.32-1.67-1.11-2-.9,2.38-1.44l-10.09-.23,6.56-.8c-3.03-.29-6.44.02-8.24-.3,3.14-.5,2.8-.29,1.42-1.21,4.02,1.8,8.29-.09,12.99,1.3l-.36,2.34c7.1,1.7,12.9-.04,22.2,1.4l-2.97-.68c1.34-.82,5.78.4,8.85.29-.35.76,1.52,1.22,2.77,1.82-.1-.6,6.85.66,7.83-.83l4.09,1.41c7.52,1.09,8.82-1.51,16.06-.63-2.26.67,1,1.51-3.92,1.71,2.43.21,4.6.54,4.68,0,1.38.6,6.81-.48,8.99.42,1.05-.27,1.45-1.07,4.17-.8.29.18-.04.39-.04.39.04-.39,4.31-.21,1.99-1.26,3.65,1.5,8.88,1.86,13.99,2.13,5.12.23,10.12.41,13.32,1.67,5.32.1,11.74.13,16.57.3-.32.22-.03.39-.94.27,6.62,1.05,4.19-2.07,11.72-.9,1.91.69.9.84-.29.87-1.19.02-2.56-.07-1.36.23.95,2.69,9.16-.08,14.22,1.6l-1.24.12c1.94.5,4.33.32,7.03.06.67-.06,1.37-.13,2.08-.2l.53-.05c.2-.02.21-.03.33-.05.18-.03.38-.06.58-.08.76-.08,1.79-.05,2.31.69,0,0-.3.05-.36.28.66.17.95.81,1.16,1.67.06.22.11.44.17.7.05.39.1.78.15,1.18.1.8.18,1.63.26,2.47.31,3.37.5,6.95.66,10.01-1-1.91-.52-2.78-1.56-1.63.12,2.74,1.67-.79,1.91,4.68-.57,1.77-1.11,5.71-2.22,6.21v-5.15c-1.45,2.62-.03,6.66-.33,9.37l-.62-.36c.02,7.87,1.6,8.03,1.14,16.49l.51-.85c1.33,4.71-1.05,3.83-.17,8.51l-1.66,1.29c.2,3.06.75,10.75.46,16.26-.84-3.23-.86-9.64-1.29-13.62-.21,3.01-.72,10.2-.12,11.86-.03-1.23-.26-2.8.08-3.97.92,3.8.95,8.75.48,14.82-1.47-.65-2.03,3.32-2.16,8.11-.08,2.39,0,4.98.03,7.28.06,2.3.01,4.31-.33,5.59.83,3.1,1.8,6.16,2.9,9.21.24.64.49,1.29.74,1.94.17.5.38.93.53,1.32,0,.03.07.1,0,.1h-.19s-.37-.01-.37-.01l-.71-.02c-.42-.01-.84-.02-1.27-.04h-.57c-.61.04-1.22.08-1.83.13-1.34.11-2.71.23-4.09.38,4.63,1.96-3.62.4-2.63,2.77-2.88.42-3.99.48-4.26.35l-8.9-.66c-2.14-.52,2.7-.79,2.39-1.31-6.35.39-2.75-.79-7-1.06.94.79-2.09,1.44-5.73,1.43l5.19.67c-8.74,2.09-7.83-1.36-16.64.7l2.76-1.01c-4.54.86-16.89,1.42-21.22,3.73-.83-.22-1.96-.8.05-1.13-10.96.59-24.21,3.95-32.81,3.3l.79-.65c-2.03.31-3.48,1.36-6.08.92.12-.25.79-.65-.16-.62-1.07.27-5.36,1.4-8.09,1.19l2.27-.8c-10.72-.16-16.3,2.56-25.25,3.37-.06-1.73-8.49-2.02-12.69-2.15l.14-.25c-12.44.29-21.09,2.07-32.62,3.02-3.6-.87-9.67-1.05-16.27-1.07-3.31-.02-6.74,0-10.08-.07-3.34-.08-6.56-.22-9.44-.49,1.76.32-.29,1.37-2.34,1.55-2.7-.36-7.48,1.21-7.04-.4l.96.03c-2.03-1.57-7.58-1.21-11.92-1.3l-.74,2.1c-11.31-3.14-29.76.7-35.91-2.16-2.75.47-6.14.38-8.87.85l.17-1.13c-7.58-.48-11.37-.67-20.76-.67l1.93-.76c-5.29-.22-6.77,3.08-11.66,3.01l-1.42-1.73c-9.24-.22-18.54-2-27.72-.73.16-.24.44-.72,1.94-.75-4.35-.17-16.79-1.65-15.28.71-.06-1.51-9.53-.44-14.54.08l.81-1.09c-4.26,1.3-4.4,1.69-10.3,1.91-1.39-.19-1.2-.93.65-.59-4.63-.72-3.65.95-9.27.19l2.12-.65c-4.78-.23-4.41.17-7.06.93-3.02.37-9.06-.52-9.74-1.55-.66.6-3.3,1.35-6.11.98-.37-.39.66-.6,1.18-.7-7.98-.98-11.92,1.02-17.4-.21-.11-.37-.46-.56-.91-.69,6.35.17,11.47.34,10.99.41.03-1.03-5.11-1.32-.99-2.65-4.14.68-11.22,2.21-16.22,1.61-.24-.1-.48-.21-.65-.37l.52-.1c-1.15-.13-2.19-.06-3.17.1-1.59-.2-2.61-.34-4.14-.38-.58-.86-5.88-.55-8.44-.64.19,1.13-3.16.89-.03,1.87-.41-.09.49-.13,2.19-.15.39-.03.84-.04,1.09-.1-.05.03-.11.06-.18.1,1.68,0,3.87.02,6.37.03-2.03.54-4.15.98-6.97.31-1.33.7-2.78,1.42-3.6,1.76-3.48-1.62-10.22-2.59-11.15-3.55-7.83.57-18.44.24-23.36,2.35-2.22.27-2.55-.6-3.38-.93,1.28-.21,2.81-.18,3.51-.49-4.45.55-13.18.22-14.23,1.7-5.6-.66,3.14-1.36-4.55-1.11l1.04-.45c-7.57-1.17-13.77-.16-20.14.9-6.39,1.09-12.86,2.16-21.46,1.67,1.19.03,1.79.07,2.05.28-1.21.04-2.42.14-3.64.23-1.01.1-2.03.2-3.05.31-.71,0-1.62.52-1.9-.44l-1.41-2.09c-2.69-3.98-5.28-8.01-6.96-12.29-.83-2.13-1.42-4.33-1.58-6.53-.17-2.2.08-4.36.79-6.44,1.44-4.23,4.24-8.08,6.88-12.27,1.44-2.46,1.85-4.07,2.03-5.38.15-1.33.07-2.42.13-4.15.5-.29.97-.59,1.45-.91,0-2.03-.17-4.02-.4-5.97-.04-4.08.79-7.5,1.43-11.26.62-3.76,1.03-7.73-.01-12.73l-.79,1.31c.09-3.61-.68-11.42.26-10.83-.15-.37-.87-1.17-.47-2.59l.63-.12-1.24-8.84c.33-6.88,2.53,1.03,2.47-9-.31-3.72-2.03-10.58-2.43-9.17,0,1.5-.33,3.85-.96,3.97l-.39-3.4c-1.87-.58-3.83-3.17-4.98,5.22l1.24,5.81-.87,1.89-.14-4.91c-.8,2.8-.02,4.55.53,6.52-.47.48-.79,1.3-.95,2.46l1.88,5.69c-.72.71-1.49-2.54-1.82,1.31.87,2.67,1.59-2.6,2.21,1.83-.8,2.8-1.5,2-.72,5.26-.47.47-.79-.22-1.02-1.51.63,2.9.38,7.71,1.4,9.19-.99,2.93.45,9.84-1.33,9.55.44.9,1.44,5.03,1.4,7.61-.99-2.39-1.05.04-1.28,2.81-.22,2.78-.8,5.83-1.82,5.07.67,1.74.35,4.73-.65,7.78-.47,1.55-1.12,3.06-1.81,4.63-.7,1.57-1.44,3.18-1.98,4.74.04-.4.11-1.16.46-1.61-1.86,3.11-2.91,3.87-4.32,6.1.62.57.33,2.3.11,4.5-.27,2.19-.22,4.82.23,6.53-.66,2.52-1.14,1.87-1.65.58-.49-1.25-.77-3.14-1.56-2.3.32-.05.52.56.68,1.43.18.87.38,2.01.63,3.06.51,2.11,1.26,3.81,1.57,2.86-.04,1.01.03,1.7.07,2.23.04.54.07.9.1,1.21.05.61-.03,1.01-.29,2.19,1.04-.04,1.45.73,1.91,1.81.24.53.5,1.13.85,1.75.36.6.82,1.19,1.43,1.71.84,2.5.65,3.01.62,3.49-.02.47.15.94,1.93,3.13.48,1.27-.11.97-.82.34-.71-.64-1.53-1.62-1.53-1.62Zm129.34,4.38s0,.02,0,.02c-1.1,0-2.04,0-2.64,0,.55,0,1.31-.01,2.64-.03Zm10.74.22c-1.31-.07-2.93-.12-4.66-.15-.37-.4.05-.79,1.13-.74-.59.25,1.93.53,3.53.89Zm-22.58-8.25c1.71-.13,2.27.1,2.5.33-.8,0-1.75.03-2.98.09-.05.04-.15.09-.2.13.17-.21.36-.41.68-.55Z"/><path class="cls-1" d="m165.29,147.07c-.25.02-.38.07-.7.07.35.1.68.19,1.01.27.21-.12.42-.24.61-.34-.31,0-.63,0-.92,0Z"/><path class="cls-1" d="m212.52,11.68h.23c-.19-.02-.37-.05-.49-.1.16.04.16.07.26.1Z"/><polygon class="cls-1" points="339.28 160.1 339.27 159.82 338.32 160.05 339.28 160.1"/><path class="cls-1" d="m153.39,16.29c-.13-.08-.36-.15-.81-.16.04.07.39.12.81.16Z"/><path class="cls-1" d="m128.09,20.02l-3.63.17c1.58-.02,2.72-.09,3.63-.17Z"/><path class="cls-1" d="m108.59,22.49c-.22.23-.26.39-.31.54.02,0,.03,0,.04,0l.27-.54Z"/><path class="cls-1" d="m420.39,4.13c.26.02.53.02.76.01,1.79-.07.58-.08-.76-.01Z"/><path class="cls-1" d="m327.19,1.75c.99-.19,1.97-.38,3.01-.49-1.66-.11-2.95-.15-3.01.49Z"/><path class="cls-1" d="m523.96,11.86s0,0-.01.02c.22.02.42.03.64.05l-.63-.07Z"/><path class="cls-1" d="m334.53,1.34c-1.65-.25-3.04-.22-4.33-.08,1.36.09,2.96.23,4.33.08Z"/><path class="cls-1" d="m24.21,32.52l-.94.04c.02.07-.03.14-.1.19l1.04-.23Z"/><path class="cls-1" d="m23.17,32.74l-1.03.22c.48-.04.89-.09,1.03-.22Z"/><path class="cls-1" d="m19.96,33.44l2.17-.47c-.76.06-1.7.11-2.17.47Z"/><path class="cls-1" d="m50.07,30.49l.25-.44c-.15.1-.24.24-.25.44Z"/><path class="cls-1" d="m57.88,29.44c-1.88.13-4.78-.26-7.36.27l-.21.35c1.16-.71,5.87.28,7.57-.62Z"/><path class="cls-1" d="m91.25,30.06c-2.2.21-4.4.44-6.61.62,1.21.27,2.8.64-.17,1.16,8.47.11-1.84-.7,6.78-1.78Z"/><path class="cls-1" d="m111.69,27.64c-3.49.74.14.62-.01.89,2.17-.74,2.7-.92.01-.89Z"/><path class="cls-1" d="m258.63,7.86l-.28,1.04c2.71-.32,0-.4.28-1.04Z"/><polygon class="cls-1" points="286.69 1.09 283.98 .55 282.74 1.54 286.69 1.09"/><polygon class="cls-1" points="303.6 7.97 302.41 8.13 306.96 7.72 303.6 7.97"/><path class="cls-1" d="m552.07,23.76l-.75-1.31c-1.87.11-2.35,1.5.75,1.31Z"/><path class="cls-1" d="m609.11,70.68c-.67,1.14-1.23,4.12-.71,6,.22-2.39.83-4.77.71-6Z"/><polygon class="cls-1" points="367.99 150.44 370.16 150.04 366.08 150.35 367.99 150.44"/></g></svg>