<?xml version="1.0" encoding="UTF-8"?><svg id="Layer_2" xmlns="http://www.w3.org/2000/svg" viewBox="0 0 216.23 168.22"><defs><style>.cls-1{fill:#fff;}.cls-2{fill:#a7dff1;}.cls-3{fill:#4eb6ce;}</style></defs><g id="shapes"><path class="cls-1" d="m215.26,53.4c-5.89-29.8-55.96-47.24-85.49-50.74-20.37-3.94-40.93-4.43-59.64,5.08C51.42,17.24-2.84,77.61.12,119.83c2.96,42.22,93.93,60.74,147.1,39.61,53.17-21.13,73.93-76.25,68.04-106.05Z"/><path class="cls-2" d="m19.23,157.55c.74-.1.25-.7.35-1.1.85-.32.48.42.83.71.52-.26.85-.92,1.27-.96.05.1.13.13.06.28.5-.61,1.72-.29,2.3-1.04.06.05.09.1.11.15-.16-.31-.22-.64-.24-.89.33-.06.55-.51.74-.1-.2.02-.2.19-.27.34l.32-.24c.4.57-.44.29-.38.74.65-.31,1.36-.94,1.91-.84.2.59-1.18.39-.41.82l-.83-.11c.75.86-.5,0,.22.94,1.08.02,1.13-.49,2.21-.46.19-.37-.15-.49.04-.86,1.42-.81,1.4,1.36,2.38.4.23-.44.23-1.22,1.07-.92l-.17.72c1.03-.07.45-1.06,1.58-.75-.16.29-.77.34-.61.4.77.44.44-.46.97-.53l.19.59c1.07-.25,2.22-.85,3.41-1.12-.04.19-.22.41.08.55,1.48-.52,3.26-.37,4.78-.18l.5-.59c.13-.01.27.21.14.32.6.13-.01-.34.24-.58.32-.08.47.25.28.43.95-.57,2.77-1.31,3.9-.88l-.19.18c.86.11.81-1.19,1.64-.79l-.14.11c1.83,0,3.77-.72,5.24-.07.18-.79,1.82.14,1.82-.92,1.09.41.82.63,2.3.83.39,0,.5-.72.97-.88l.07.55.59-.65.41.62.43-.19c-.18-.01-.41-.2-.4-.37.68-.32,1.75.2,1.8.48l1.61-.65c-.01.23-.28.33-.49.5.83-.66.22.56.98-.04-.12-.11.02-.34.03-.45.44.29,1.36.21,2.03,0l-.1.4c1.24-.02,2.58-.43,3.97-.55-.52-.13-.46-.8-.06-.91l.22.57c.23-.38-.44-.18.05-.67.52.02.41.63.13.85l.61-.26c.05.17-.08.28-.1.5.22-.38,1.14.49,1.45-.18l.05.17c1.39-.13,1.99-.38,3.12-.52-.02-.5.43-.44.73-.88.85.1,1.8.42,2.8.3.68-.31.17-.44.46-.77.09.46,1.09.34.59.7,1.19-.17,1.52-.21,3.01-.71-.18-.17-.37-.24-.29-.41.27-.1.64.14.62.37l-.07.05c1.66-.82,4.03,1.03,5.32-.03l-.07.05,1.37-.59c.65.04-.37.37.13.62,1.46-.86,2.41-.04,3.62-.64,1.06,1.3,3.43-.32,4.79.46l-.1-.31c.32-.34.42.16.67.22-.05-.25-.38-.26-.19-.45,2.84-.57,5.93.16,8.88.29,1.07.03.53-1.69,1.92-.99l-.35.61c1.07-.41,2.17-.46,3.28-.5,1.1-.02,2.2-.02,3.25-.37-.12.14-.12.32-.32.32.47.41,1.66-.04,1.65-.39.33.03.09.32.3.49.46.24,1.11-.59,1.36-.17.04.07-.12.14-.2.18.29-.22,1.37,0,1.07-.49.8.21,1.52-.28,2.16,0,.4-.57,1.37.22,1.48-.58-.03.82,1.42.6,1.91.22-.16.25.44.25.26.59.58-.02,1.1-.19.98-.6,1.09.95,2.11-.83,2.74.4,1.7-.47,3.27-.8,4.81-1.03-.04.82-1.7.12-1.61.97,1.45-.37,2.28-1.08,3.73-.92.38.1-.21.35-.33.5,1.45-.37,2.82.04,4.11-.41,0,.08-.14.16-.28.22.26-.03.59.11.56-.25l-.25.1c-.41-.53,1-1.13,1.04-1.41-.43,1.06,1.28.26.61,1.6.17-.07.38-.25.34-.49.25.07.33.22.08.5.91-.21.59-.6,1.42-.59,0,.18-.17.25-.25.46.42-.35.84-.7,1.54-.56-.04.11.04.25-.17.25,1.21-.07,2.05-.94,3.37-.62-.39.78.45.25.52.92l.71-.2-.29-.33c.62.02,1.17-.47,1.71-.25l-.46.28,1.16-.12-.66-.26c.63-.34-.07-.85.76-.66-.17.07.62.01.95.41.31-.21.62-.43,1.09-.26.12.22-.1.74-.02.89.31-.56,1.46-.14,1.85-.74-.13.14-.14.49-.1.56l.26-.46c.29.15.33.22.28.5.86.09-.27-.85.76-.48-.08.04-.04.1-.21.17,1.03.2,2-.28,2.95-.05.27.68-.83.16-.52.73,1.37-.12,2.84-.79,4.17-.59l-.25-.08c.2-.95.98.49,1.66.05-.17.07-.22.53-.18.42.91.17,1.86-.2,3.24-.47l-.17.24c.53.23,1.4.16,1.98.28.18-.24.5-.19.31-.56,1.75,1.44,3.42-.69,4.97.54-.19,0-.46.2-.31.2l1.35-.18c-.1-.42-.17-.26-.44-.59.18-.24.56-.42.9-.41-.61.25-.02.67.24.91-.04-.13.05-.26.04-.4.68.76.14-.83,1.09-.3l-.06.22c.37-.1.7-.38,1.09-.3.14.49-.39.21-.43.61.55,0,1.1-.88,1.58-.38-.23.13-.57.11-.8.24.52.58.58.44.98.55h-.04s.91.28.91.28l-.23-.16c.73-1.23,1.39-.18,2.35-.97-.92.74-.16.44-.25.98.23.16.58.34.47.49.45-.43.71.37,1.34-.25.02.17.46.04.35.47.57-.12-.12-.31-.07-.53.89-.58,2.01.82,3.29.05,1.09-.28,1.32-.86,2.33-1.11.32.3-.31.62-.31.62.53.28.94.26,1.46.08-.11.15-.01.28.14.49.41-.02.31-.62.84-.34-.1.19-.24.5-.44.68.49-.14.99-.44,1.5-.58.12.31-.32.45-.52.64.57-.11,1.48-.2,1.67-.68l-.35-.19c.21-.01.08.42-.07.5-.5.35-.69-.2-.71-.38l.37-.1c-.31-1.04-1.45.1-2.16,0l.34-.73-.77.58c-.15-.2-.23-.62.13-.72-.5-.4-.47.25-.89-.19-.05-.07-.02-.1.02-.13l-.52.2c.11-.15-.06-.53.25-.41-.89-.47-1.49.49-1.81-.1l.08-.04c-1.27.19-.14.55-1.12,1.14l-.58-1.39-.15.55c-.13-.02-.38-.08-.32-.3-.5.35.07.24-.22.58-.6-.53-1.73.16-1.84-.72-.24.41.58.34-.1.61-.15-.95-.78.13-1.33-.32.19-.48.73-.2.17-.66-.38.81-1.1-.22-1.6-.08-.05.65-1.06.23-1.87.43.06-.22-1.51-.41-2.26-.67l.02-.11c-.17.65-.94.5-1.51.62.04-.4.14-.55.45-.71l-.53-.02c-.13.21-.3.31-.65.38l.15-.49c-.71,0-1.44.53-2.34.17-.07.46.69,1.3-.28,1.58-.03-.25-.05-.68.2-.77-.08.03-.3.2-.46.09l.4-.41c-.41-.19-.23.35-.56.3.02-.35-.24-.26-.19-.54.08-.03.29.15.41.02-.37-.07-.82-.29-.96-.56.03.2-.01.48-.29.52-.71.01-.23-.43-.64-.62-.18.25-.62-.02-.65.51-.2,0-.24-.26-.32-.4-.37.23-1.71.03-1.31.61l.1.04s-.04.01-.06.02c-1.21.5-2.48-.35-3.68-.15v-.18c-.71.19-1.58.09-2.09.46-.21,0-.49-.34-.4-.55-.55.13-.61.32-1.39.02.55-.31-.19-.28.56-.22-.7-.16-.86-.44-1.63.04.26-.46-.53-.58-.86-.44l.49.33c-.38.07-.71.02-1.04-.02l.19-.6c-1.44-.74-2.62,1.22-3.71,0-.38.41.79.3.44.79-.67-.08-1.35-.95-1.56-.95-.91-.34-.85.87-1.81.64.12.22.23.79-.48.98-.67-.08-.82-.9-.4-1.07.16-.02.23.05.23.13.22-.08.5-.17.23-.4l-.08.22c-.33-.22-1.25-.2-1.03-.55-.5.2-.22.35.16.46-.85-.31-1.33-.02-2.21-.22.14.11.27.37.13.37-1.29-.25-.56.41-1.44.51-.5-.32.17-.78-.7-.5-.54-.22-.11-.56.1-.74-.8.42-1.5-.26-1.96-.33l.42-.17c-.25.1-.46.1-.67.1l.25.43c-.25-.07-.46-.07-.46-.25-.25.28.2.71-.31,1.1-.33-.22-1,.24-1.12-.32,1.04.19-.12-.57.76-.67-.17.07-.38.07-.62,0-.04-.07.04-.12.1-.15-1-.5-.45.64-1.48.64.13-.32-.25-.61-.41-.53.41,0,.2.53-.17.78-.66-.25-.71.19-1.06.16l.4.11c-.13.32-.46.28-.92.38-.04-.25.41-.17.25-.28-.5.56-1.16-.57-1.87-.19-.34-.22-.04-.6-.33-.74-.79.42-.87-.42-1.7-.06.25.43.29.32-.29.75l1.37-.33-.88.64c.41,0,.88-.29,1.12-.22-.41.36-.37.25-.17.61-.58-.63-1.12.4-1.79-.02v-1.06c-1-.45-1.75.58-3.04.35l.41.17c-.16.43-.79.08-1.21.26.03-.35-.23-.48-.41-.7.03.26-.94,0-1.04.71l-.59-.46c-1.04-.17-1.16,1.04-2.16.94.29-.39-.17-.64.49-.92-.34,0-.64-.05-.64.19-.2-.22-.91.5-1.22.17-.14.16-.17.53-.55.51-.04-.07,0-.17,0-.17,0,.17-.58.26-.24.64-1.06-1.07-2.86.19-3.79-.73-.72.14-1.6.29-2.25.34.04-.11,0-.18.12-.14-.92-.3-.52,1.04-1.57.71-.55-.55.54-.33.2-.53-.19-1.16-1.24.2-1.97-.45l.17-.07c-.55-.38-1.28.49-2.15.44,0,0,.04-.1,0-.17-.57.61-1.69.86-2.51,1.07.24-.47.37-.26.19-.72-.37.08.14.74-.6.91-.25-.24-.8-.43-.9-.92l.7-.06c-.39-.62-.91.07-1.29-.02l.04-.28c-1.08.14-1.06.85-2.23.86l.13.2c-.6.73-.55-.37-1.16.19l-.23-.7c-.41.19-1.43.76-2.18.93.4-.55,1.26-.86,1.79-1.2-.41.02-1.41.13-1.61.49.16-.08.37-.26.53-.16-.48.58-1.13.89-1.96.92.07-1.38-2.18-.24-2.84-1.26-1.43.61-2.92-.03-4.62.16.67,1.03-.5.06-.32,1.15-.39.1-.55.09-.59.02l-1.25-.58c-.31-.3.36-.26.31-.51-.88-.03-.4-.44-.99-.7.14.38-.26.58-.77.46l.73.46c-1.18.67-1.12-.85-2.3-.2l.37-.37c-.62.24-2.32.14-2.87,1.08-.12-.12-.29-.41-.02-.51-1.51-.01-3.28,1.2-4.48.75l.09-.28c-.28.1-.45.54-.82.3.01-.11.09-.28-.04-.28-.14.1-.71.53-1.09.4l.29-.32c-1.49-.23-2.19.91-3.4,1.19-.07-.79-1.24-.96-1.82-1.03v-.11c-1.7.06-2.83.92-4.37,1.38-1.06-.76-3.35-.05-4.97-.38.25.12.02.62-.25.73-.38-.13-.97.64-.98-.08h.13c-.35-.68-1.09-.43-1.69-.38v.95c-1.69-1.21-4.01.94-4.98-.2-.35.28-.81.32-1.16.6l-.04-.51c-1.05-.02-1.57-.02-2.84.23l.22-.39c-.73.04-.75,1.56-1.41,1.66l-.29-.73c-1.26.14-2.61-.35-3.77.48,0-.11.02-.34.22-.39-.59.05-2.35-.23-2.01.78-.1-.67-1.31.09-1.95.47l.04-.51c-.5.71-.49.88-1.27,1.16-.2-.04-.22-.38.05-.28-.67-.19-.43.53-1.23.36l.25-.35c-.65.04-.58.2-.89.62-.38.25-1.25.02-1.4-.41-.05.28-.36.7-.76.61-.07-.16.05-.29.11-.35-1.13-.2-1.54.79-2.35.4-.04-.16-.1-.24-.17-.28.86-.11,1.56-.17,1.5-.13-.06-.46-.77-.44-.29-1.15-.52.42-1.37,1.3-2.08,1.18-.04-.04-.08-.08-.11-.14l.07-.06c-.16-.02-.3.04-.42.13-.23-.05-.37-.08-.58-.06-.13-.37-.83-.1-1.18-.07.1.5-.37.48.11.83-.06-.03.06-.07.29-.12.05-.02.11-.04.14-.07,0,.01-.01.03-.02.05.23-.05.52-.1.86-.15-.24.29-.5.55-.92.32-.13.35-.29.7-.37.88-.57-.64-1.54-.89-1.72-1.3-1.02.43-2.47.53-3.01,1.56-.28.16-.38-.22-.52-.35.16-.12.37-.13.44-.28-.57.32-1.77.34-1.82,1.01-.8-.19.34-.67-.69-.41l.11-.22c-2.2-.74-3.08,2.18-5.55,1.18.17.06.25.08.3.19-2.68-.19-5.25,1.34-7.94.83-.76-.07-.77.36-1.16.76l-.25-.51-.65.74c-1,.63-2.07-1.01-3.29.07l.23.33c-.5.01-1.51.47-1.49.04-.04.07-.1.4-.32.25l-.06-.28-1.12.68c-.96-.05-.04-1.14-1.41-.97-.49.19-1.3,1.06-1.07,1.21.2-.02.55.09.61.37l-.43.22c.06.84-.14,1.75,1.08,2.14l.7-.64.32.36-.65.13c.44.32.62-.06.85-.33.1.2.23.34.4.39l.64-.92c.15.31-.23.7.31.79.3-.43-.47-.67.09-1.01.44.31.38.64.77.25.1.2.03.35-.13.47.35-.32,1.02-.28,1.15-.75.47.4,1.3-.34,1.4.45.09-.21.59-.73.94-.82-.5,1.04,1.36-.17,1.35.86.35-.92,1.7-.67,2.48-1.28-.04.07-.11.23-.19.2.5-.01.68.22,1.01.33-.05-.71.68-.98,1.03-1.47.7.58-.23.87.05,1.49-.12-.56.95-.72.67-1.16.52.35.43.14.75.68-.05-.88.4-.21.7-.8.73.33.29.79.98.41.38.22-.21.62-.21.62l.04-.02Zm17.05-3.98h0c-.15.04-.28.07-.35.09.07-.02.17-.04.35-.09Zm1.45-.2c-.18,0-.4.03-.64.07-.07-.17-.04-.35.11-.37-.07.13.29.18.53.29h0Zm-3.54-3.05c.22-.1.31-.01.36.08-.11.02-.23.06-.4.11,0,.02-.01.05-.02.07.01-.1.02-.19.06-.26h0Z"/><path class="cls-3" d="m29.29,153.45c-.87-.13-1.66-.45-2.36-.9-.02.04-.04.08-.04.13-.38-.09-.32-.25-.27-.35-.05-.04-.1-.07-.16-.11-.07.01-.15.03-.27.06l.1-.19s-.04-.04-.06-.05c-2.14-.64-3.04,2.19-5.47,1.19.17.06.25.08.3.19-2.68-.19-5.25,1.34-7.94.83-.76-.07-.77.36-1.16.76l-.25-.51-.65.74c-1,.63-2.07-1.01-3.29.07l.23.33c-.5.01-1.51.47-1.49.04-.04.07-.1.4-.32.25l-.06-.28-1.12.68c-.96-.05-.04-1.14-1.41-.97-.49.19-1.3,1.06-1.07,1.21.2-.02.55.09.61.37l-.43.22c.06.84-.14,1.75,1.08,2.14l.7-.64.32.36-.65.13c.44.32.62-.06.85-.33.1.2.23.34.4.39l.64-.92c.15.31-.23.7.31.79.3-.43-.47-.67.09-1.01.44.31.38.64.77.25.1.2.03.35-.13.47.35-.32,1.02-.28,1.15-.75.47.4,1.3-.34,1.4.45.09-.21.59-.73.94-.82-.5,1.04,1.36-.17,1.35.86.35-.92,1.7-.67,2.48-1.28-.04.07-.11.23-.19.2.5-.01.68.22,1.01.33-.05-.71.68-.98,1.03-1.47.7.58-.23.87.05,1.49-.12-.56.95-.72.67-1.16.52.35.43.14.75.68-.05-.88.4-.21.7-.8.73.33.29.79.98.41.38.22-.21.62-.21.62l.04-.02c.74-.1.25-.7.35-1.1.85-.32.48.42.83.71.52-.26.85-.92,1.27-.96.05.1.13.13.06.28.5-.61,1.72-.29,2.3-1.04.06.05.09.1.11.15-.16-.31-.22-.64-.24-.89.33-.06.55-.51.74-.1-.2.02-.2.19-.27.34l.32-.24c.4.57-.44.29-.38.74.65-.31,1.36-.94,1.91-.84.2.59-1.18.39-.41.82l-.83-.11c.75.86-.5,0,.22.94,1.08.02,1.13-.49,2.21-.46.19-.37-.15-.49.04-.86,1.42-.81,1.4,1.36,2.38.4.23-.44.23-1.22,1.07-.92l-.17.72c1.03-.07.45-1.06,1.58-.75-.16.29-.77.34-.61.4.77.44.44-.46.97-.53l.19.59c.62-.14,1.26-.4,1.93-.65-1.84-.24-3.69-.5-5.53-.77Z"/><path class="cls-3" d="m192.92,146.45c.21-.01.08.42-.07.5-.5.35-.69-.2-.71-.38l.37-.1c-.31-1.04-1.45.1-2.16,0l.34-.73-.77.58c-.15-.2-.23-.62.13-.72-.5-.4-.47.25-.89-.19-.05-.07-.02-.1.02-.13l-.52.2c.11-.15-.06-.53.25-.41-.89-.47-1.49.49-1.81-.1l.08-.04c-1.27.19-.14.55-1.12,1.14l-.58-1.39-.15.55c-.13-.02-.38-.08-.32-.3-.5.35.07.24-.22.58-.6-.53-1.73.16-1.84-.72-.24.41.58.34-.1.61-.15-.95-.78.13-1.33-.32.19-.48.73-.2.17-.66-.38.81-1.1-.22-1.6-.08-.05.65-1.06.23-1.87.43.06-.22-1.51-.41-2.26-.67l.02-.11c-.17.65-.94.5-1.51.62.04-.4.14-.55.45-.71h-.39c-.95.92-2.23,1.65-3.89,2.03-.4.09-.8.22-1.19.33,1.31.12,2.58-.91,3.77.03-.19,0-.46.2-.31.2l1.35-.18c-.1-.42-.17-.26-.44-.59.18-.24.56-.42.9-.41-.61.25-.02.67.24.91-.04-.13.05-.26.04-.4.68.76.14-.83,1.09-.3l-.06.22c.37-.1.7-.38,1.09-.3.14.49-.39.21-.43.61.55,0,1.1-.88,1.58-.38-.23.13-.57.11-.8.24.52.58.58.44.98.55h-.04s.91.28.91.28l-.23-.16c.73-1.23,1.39-.18,2.35-.97-.92.74-.16.44-.25.98.23.16.58.34.47.49.45-.43.71.37,1.34-.25.02.17.46.04.35.47.57-.12-.12-.31-.07-.53.89-.58,2.01.82,3.29.05,1.09-.28,1.32-.86,2.33-1.11.32.3-.31.62-.31.62.53.28.94.26,1.46.08-.11.15-.01.28.14.49.41-.02.31-.62.84-.34-.1.19-.24.5-.44.68.49-.14.99-.44,1.5-.58.12.31-.32.45-.52.64.57-.11,1.48-.2,1.67-.68l-.35-.19Z"/></g></svg>