<?xml version="1.0" encoding="UTF-8"?><svg id="Layer_2" xmlns="http://www.w3.org/2000/svg" viewBox="0 0 797.07 298.81"><defs><style>.cls-1{fill:#fff;}.cls-2{fill:#4eb6ce;}</style></defs><g id="shapes"><path class="cls-1" d="m589.79,7.12c-41.04,17.65-50.82,94.95-46.82,138.44.56,30.48,6.14,60.16,25.53,84.11,19.39,23.95,122.76,83.29,182.56,66.03s58.62-153.66,11.99-223.53C716.42,2.31,630.84-10.53,589.79,7.12Z"/><path class="cls-2" d="m112.91,163.19c.05-1.78-.77-.86-1.23-1.25-.19-2.14.62-.97,1.05-1.69-.17-1.33-.87-2.38-.81-3.37.14-.07.19-.26.35-.03-.61-1.43.14-4.18-.59-5.86.08-.12.15-.18.21-.2-.42.25-.83.27-1.11.2.02-.81-.44-1.52.1-1.79-.04.49.17.54.33.79l-.19-.85c.79-.72.21,1.16.77,1.19-.18-1.65-.67-3.6-.39-4.84.76-.22.07,2.95.83,1.31l-.4,1.92c1.26-1.42-.15,1.18,1.18-.12.37-2.54-.2-2.88.17-5.41-.37-.6-.62.15-.99-.46-.47-3.68,2.07-2.71,1.28-5.44-.43-.73-1.35-1.07-.68-2.92l.78.71c.3-2.46-1.08-1.51-.28-4.04.28.49.1,1.96.23,1.6.8-1.62-.37-1.23-.24-2.52l.76-.2c.07-1.32.05-2.71.03-4.14,0-1.43,0-2.9.09-4.35.2.19.37.71.68.06.06-3.7,1.06-7.79,2.01-11.24l-.44-1.44c.05-.31.37-.54.44-.18.1-.28.13-.45.12-.53l-5.65.15c.1.24.24-.01.42-.09l4.81-.13s-.04,0-.07,0l-4.67.12c.07-.01.16.02.25.15.23.78-.12,1.12-.42.65.56,1.17,1.23,2.86,1.82,4.57.64,1.69,1.13,3.43,1.18,4.8-.12-.14-.22-.29-.33-.44.39,2.05,1.99,1.79,2.04,3.77l-.23-.31c.15.53.31,1.07.49,1.61.19.53.4,1.06.6,1.59.42,1.06.84,2.11,1.24,3.14.86,2.03,1.58,3.97,1.83,5.7,1.11.2,1.47,4.14,2.75,3.86.52,2.53,0,1.98,1.17,5.36.37.87,1.35.91,1.99,1.89l-.59.32,1.35,1.1-.34,1.11.65.89c-.16-.4-.15-.96.05-.99,1.05,1.38,1.47,3.91,1.18,4.1l2.33,3.34c-.28.04-.67-.52-1.06-.92,1.59,1.61-.46.66,1,2.13.01-.3.42-.05.57-.07.08,1.05,1.06,3.05,1.95,4.45l-.56-.08c1.2,2.71,2.94,5.51,4.27,8.54-.29-1.17.55-1.25,1.03-.39l-.49.64c.66.4-.17-1.03.85-.07.44,1.17-.4,1.08-.9.53.28.43.57.84.84,1.28-.16.17-.4-.12-.68-.09.64.4.34,2.65,1.38,3.18l-.16.16c.32.76.6,1.41.84,2,.12.29.25.58.36.84.02.04.03.06.02.05h0l.02.02.04.04c.1.1.25.28.35.5.84.52.73.63,1.59,1.6,0,.14-.04.24-.1.31-.01.01-.03.03-.04.04-.03,0,0,.06-.1-.03-.14-.11-.28-.22-.42-.32-.54-.41-.88-.7-1.14-.8-.12.12-.14.25-.09.42.04.17.15.38.03.53-.12-.36-.38-.63-.52-.81-.16-.2-.19-.3-.02-.45-.09-.03-.17-.06-.24-.08-.04-.01-.07-.02-.11-.04-.12-.05-.25-.11-.36-.16-.5-.22-.95-.41-1.43-.6-.96-.38-2.03-.76-3.8-1.36.26.38.63.66.33.73-.65-.21-1.27-.87-1.08-1.07l.18.02c-4.1-1.04-7.97-5.55-11.47-5.9l.19.03-3.37-.89c-1.39-.75,1.03.02.12-.78-3.75-.71-5.25-2.57-8.29-3.26-1.46-2.47-7.67-3.34-10.16-5.57v.43c-.89.01-.81-.61-1.33-.93-.04.31.68.68.12.66-6.56-2.39-12.95-6.28-19.41-9.39-.15-.07-.28-.12-.41-.17-.07-.02-.13-.04-.19-.06v.03s-.08.1-.14.16c-.12.13-.31.3-.52.43-.2.13-.44.22-.64.2-.19,0-.39-.14-.29-.35.44-.07.82-.17,1.15-.3-.42.07-.92-.02-1.29-.13-.39-.12-.65-.24-.89-.35.28-.04.57-.09.73-.15.18-.07.27-.17.38-.36.15.14.48.3.39.31.54.17.59.16.61.04,0-.11.04-.35-.05-.55.25,0,.24.35.41.53.03.04.05.05.07.05h.03l.12-.03.23-.06c.31-.09.61-.23.91-.35.59-.25,1.11-.46,1.45-.26.11.07-.27.22-.46.3.65-.37,3.27-.53,2.49-1,1.96-.06,3.59-.93,5.18-.86.87-.84,3.32-.28,3.46-1.27.04.99,3.48.17,4.6-.51-.35.37,1.11.11.71.6,1.37-.27,2.6-.67,2.27-1.12,2.75.69,4.92-1.86,6.62-.64,3.99-1.26,7.7-2.31,11.33-3.2.04.98-4.04.84-3.69,1.82,3.41-1.03,5.27-2.22,8.76-2.62.92-.04-.43.51-.71.73,3.4-1.03,6.75-1.15,9.75-2.24,0,.09-.31.25-.61.38.6-.14,1.45-.12,1.29-.54l-.57.22c-1.09-.45,2.18-1.77,2.23-2.12-.8,1.44,3.12-.25,1.77,1.64.39-.16.85-.45.71-.73.61-.02.84.12.29.56,2.15-.63,1.28-.96,3.26-1.31.03.22-.35.37-.51.66.92-.6,1.86-1.19,3.56-1.32-.08.14.15.27-.35.36,2.87-.59,4.7-1.99,7.93-2.17-.38.54-.09.57.32.55.21,0,.45-.02.66,0,.13.01.14.06.18.11.04.06.07.13.08.23.19-.12.41-.24.68-.37-.04-.12-.11-.24-.2-.36.38-.06.81-.29,1.31-.49.49-.2,1.03-.38,1.25-.29-.38.18-.72.36-1.03.53l1.72-.47c-.11-.09-.26-.16-.46-.22.79-.35,1.21-.69,1.5-.92.29-.23.53-.38,1.21-.38-.34.12.35-.02.7.04.18.03.26.12.04.32h0c1.17-.47,2.7-1.02,2.99-.88-.31.19-1.11.56-1.85.92-.75.35-1.45.68-1.68.81,1.29-.58,2.04-.76,2.82-.96.79-.2,1.62-.41,3.62-1.14-1.01.35-2.88,1.13-3.21,1.28l2.91-1.09s-.05.04-.07.06c0,0-.15.07-.2.09-.9.42-1.39.62-2.65,1.1-.73.4.46-.07,1.46-.48,1.02-.41,1.79-.71.04.14-.06,0-.45.15-.57.14-1.21.63-1.51.89-1.95,1.25-.42.33-.95.8-1.99,1.32-2.4.64.51-.56-1.77.15-.12.1-.21.2-.3.31-.24.32-.51.71-1.03,1.28-.25.28-.57.58-.94.89-.18.15-.37.29-.57.44l-.31.22-.44.28.54-.27c.16.59-.41.82-1.16,1.07-.73.27-1.62.58-2.11,1.28.27-.31.04-.82.02-.66-1.88,1.19-3.47,2.92-5.83,5.32l.14-.49c-1.18.62-2.79,2.01-3.93,2.84-.12.5-.77.98-.12.99-2.19.77-3.64,2.27-4.93,3.83-1.29,1.56-2.56,3.03-4.41,3.88.33-.32.61-.95.34-.69l-2.17,2.47c.54.17.52-.08,1.29-.28-.09.5-.59,1.31-1.16,1.86.81-1.25-.58-.56-1.24-.32.19.04.15.3.3.38-1.85.58.52.91-1.54,2.15l-.1-.27c-.51.72-.82,1.54-1.52,2.15-.69-.12.45-.85.15-1.23-.89.98-1.03,2.6-2.24,3.1.25-.53.8-1.12,1.08-1.62-1.41.46-1.37.72-2.1,1.35l.07-.06-1.74,1.45.52-.3c.01,2.23-2.08,2.66-2.76,5.01.69-2.25-.18-.63-.57-1.18-.51.31-1.23.84-1.22.53-.28,1.14-1.47,1.07-1.84,2.7-.2-.08-.73.86-.99.35-.74,1.18.49-.02.62.24-.38,1.05-1.33,1.87-2.33,2.82-.49.48-1.01.97-1.46,1.54-.44.58-.82,1.23-1.08,1.99-.62,1.17-.86,1.95-1.1,2.71-.23.76-.45,1.49-.99,2.59-.75.47-.25-.99-.25-.99-1.02.89-1.54,1.74-2.06,2.9,0-.31-.28-.19-.71-.01-.52.85.24.97-.76,1.89-.07-.32-.22-.77-.14-1.3-.52,1.07-.81,2.28-1.32,3.4-.49.07-.07-.92-.03-1.41-.62,1.24-1.68,3.15-1.42,3.81l.66-.62c-.25.43-.57-.06-.45-.42.26-1.23,1.11-1.3,1.32-1.24l-.36.79c1.55-.05,1.72-3.03,2.81-4.4l.33,1.1.41-1.88c.42-.18.98-.1.6.68,1.08-.76.37-1.08,1.4-1.67.13-.05.14.01.1.13l.48-1.15c.01.3.64.21.1.74,1.67-1.48,1.55-3.21,2.58-3.48l-.07.18c1.58-2.6-.36-.63.39-2.91.74-.08,1.48-.16,2.24-.22l-.34-.63c.22-.23.64-.68.78-.42.37-1.18-.35-.02-.27-.82,1.42-.79,2.38-3.42,3.43-3-.04-.74-1.24.85-.47-.6,1.18.38,1.06-1.54,2.36-2.24.17.7-.91,1.49.38.78-.21-1.26,1.88-1.9,2.53-2.86-.56-.56,1.45-2.08,2.56-3.68.09.24,2.84-2.34,4.31-3.44l.06.13c-.34-.81,1.08-2.04,1.95-3.09.3.38.26.68-.12,1.34l.91-.89c.04-.39.23-.76.76-1.4l.19.65c.6-.6,1.08-1.32,1.66-2.04.57-.72,1.26-1.41,2.2-2-.28-.49-2.35.04-.88-1.79.27.17.68.48.31.98.12-.16.36-.66.74-.84l-.34.99c.89-.5.1-.66.72-1.16.28.32.64-.17.79.16-.12.17-.63.34-.74.66.71-.55,1.69-1.09,2.17-1.09-.22-.12-.39-.44.07-.9,1.27-1.12.79,0,1.68-.47.12-.49,1.14-.96.74-1.46.38-.32.65-.15.9-.14.24-.39,1-1.08,1.56-1.63.57-.55.93-.99.33-.94l-.2.11s.07-.07.1-.11c.92-1.15,2.15-2.02,3.4-2.85,1.25-.83,2.57-1.56,3.62-2.53l.12.17c.61-.61,1.35-1.21,2.01-1.79.7-.57,1.28-1.09,1.75-1.71.24-.17.6-.3.92-.38.32-.07.61-.08.62.08.63-.55.91-.86,1.33-1.19.44-.33.95-.68,2.36-1.38-.89,1.04,1.11-.35-1.13,1.08,1.13-.66,2.05-1.1,2.84-1.55.77-.45,1.44-.94,1.82-1.54.31.13,1.16-.2,2.1-.69.36-.32.48-.7.41-.88-.41.29-.86.59-1.35.88.15-.46.62-.94,1.02-1.41.39-.07.81-.11,1.27-.16.11-.1.18-.23.27-.3.09-.07.15-.13.21-.19.12-.12.19-.22.24-.32.1-.19.12-.35.15-.52.05-.32.28-.67.68-1.06l.03-.03s-.03,0-.04,0h-.09s-.17-.04-.17-.04c-.11-.02-.21-.04-.3-.06-.18-.06-.32-.14-.35-.29-.41.04-.25.16-.03.23.2.09.5.12.1.18-.54-.01-.89-.15-.97-.4-.1-.24.02-.56-.07-.61-.14-.35-.6-.3-1.28-.09-.66.2-1.52.54-2.08.53-.27.05-.54.09-.84.12-.06.27-1.4,1.21-3.72,1.88-.79.09-.96-.14-.81-.46.17-.32.75-.73,1.65-1,.6-.13.74-.07.57.04.87-.25,2.13-.6,1.67-.79l-.77.4c-.72-.14-4.27.54-3.01-.12-2.25.66-1.18.64,0,.56-1.36.06-2.67.3-3.93.54-.63.12-1.27.24-1.96.37-.34.06-.7.11-1.08.17-.22.03-.33.04-.45.06-.12,0-.26.02-.39.03.36.08.72.32.39.38-3.12.25-1.26.73-3.32,1.22-1.25-.17.25-.99-1.78-.29-1.32-.03-.39-.62.07-.92-1.81.84-3.62.33-4.72.44l.97-.39c-.57.23-1.07.32-1.57.4l.67.4c-.6.02-1.11.11-1.14-.1-.55.44.62.76-.5,1.43-.84-.11-2.34.71-2.74.09,2.51-.22-.4-.62,1.67-1.11-.38.15-.88.24-1.49.26-.1-.06.06-.15.21-.22-2.47-.17-.95.96-3.4,1.39.24-.43-.7-.61-1.08-.46.99-.17.59.54-.26.99-1.62,0-1.67.53-2.49.65l.97-.04c-.25.43-1.04.53-2.12.85-.15-.27.96-.38.54-.44-1.09.89-2.87-.19-4.49.57-.84-.12-.21-.69-.93-.74-1.81.84-2.15-.14-4.07.63.67.4.75.26-.57,1.01l3.22-.96-1.97,1.12c.99-.17,2.03-.7,2.64-.72-.92.6-.84.46-.3.79-1.5-.51-2.6.94-4.27.71l-.19-1.27c-2.46-.13-4.07,1.41-7.19,1.65l1.03.04c-.32.58-1.88.42-2.83.8.01-.44-.63-.48-1.1-.66.11.3-2.25.38-2.36,1.27l-1.47-.3c-2.51.22-2.6,1.71-5,2,.63-.58-.5-.68,1.03-1.3-.79.14-1.52.19-1.48.49-.51-.18-2.09.97-2.89.7-.3.24-.33.71-1.22.84-.12-.07-.04-.21-.04-.21.04.21-1.34.54-.48.86-2.68-.86-6.81,1.34-9.14.61-1.7.45-3.76.97-5.33,1.29.08-.14-.04-.21.27-.22-1.12,0-1.4.37-1.71.73-.31.36-.67.73-2.23.79-.99-.17-.68-.32-.17-.45.49-.13,1.11-.23.52-.25-.54-.61-1.77-.35-3.03.01-.64.18-1.29.38-1.99.52-.71.14-1.48.23-2.49.2l.49-.17c-1.41.01-2.5.35-3.43.71-.97.36-1.73.73-3.37.98,0,0-.24-.08-.65-.09.04.18-.15.35-.31.53,3.2.92,5.81,1.82,7.81,2.49-1.94-.21-1.77-.42-2.6-.16.7.24,1.11.17,1.69.17.58-.01,1.32.03,2.41.4,0,.33,1.09,1.07.54,1.49l-2.37-.96c-.12.38.76.74,1.68,1.02.94.3,1.9.52,2.44.82l-.52.15c1,.39,1.79.63,2.44.81.33.09.62.15.89.21.27.06.56.12.71.12.72.07,1.45.17,2.73.74l-.17-.35c1.75-.17,1,.94,2.65.97l.09.97c1.01.21,3.59.64,5.33,1.22-1.2.16-3.29-.38-4.65-.55.92.4,3.16,1.28,3.81,1.11-.41-.09-.96-.1-1.27-.38,1.4-.13,3.03.22,4.86,1.03-1,1.37,4.61,2.47,5.42,4.23,3.49.87,6.31,3.08,10.11,4.68-.79-1.77,1.11.46,1.43-.84.91.32,1.24.49,1.28.61l2.32,1.92c.47.63-.95-.11-1,.2,1.87.97.57.87,1.68,1.77-.06-.55.95-.31,1.96.35l-1.27-1.25c2.97.58,1.84,2.06,4.82,2.67h-1.03c1.48.4,5.08,2.34,6.89,2.02.17.25.34.73-.31.53,3.22,1.68,7.8,2.42,10.07,4.23l-.39.17c.65.21,1.33-.04,1.96.62-.1.1-.39.17-.12.32.37.05,1.87.27,2.6.83h-.85c.19.12.37.22.55.33.09.05.18.1.27.15.15.08.31.15.46.23.64.31,1.25.59,1.83.83,1.16.48,2.2.86,3.08,1.1,1.79.51,3.04.68,4.76,1.38.33.42.84.88,1.5,1.37.33.25.69.5,1.08.76l.15.09s.12.09.1.04v-.15c0-.11-.01-.22-.03-.35-.11-1.02-.52-2.66-.8-3.77l.22.23c-1.13-3.61-2.31-6.75-3.7-9.53-.84-1.56-1.81-2.98-2.73-4.69.07-2.63-2.9-7.57-4.04-11.26.1.6-.71.23-1.1-.33-.23-.89-1.7-1.92-.84-2.18l.13.3c.47-.98-.55-2.54-1.18-3.82l-1.13.3c-.2-4.09-5-8.46-4.55-10.94-.66-.68-1.16-1.67-1.8-2.34l.57-.22c-.93-2.3-1.44-3.43-2.84-6.15l.66.38c-.68-1.57-2.54-1.23-3.23-2.68l.65-.81c-.6-1.38-1.03-2.83-1.51-4.25-.46-1.43-1-2.81-1.93-4.04.15,0,.43,0,.64.43-.49-1.32-1.19-5.29-2.24-4.42.73-.27-.83-2.94-1.63-4.4l.65.08c-.57-.55-.9-.82-1.19-1.18-.27-.36-.48-.81-.81-1.71-.03-.46.39-.5.37.12-.03-1.53-.83-1.01-.93-2.85l.54.58c-.11-.53-.2-.85-.29-1.05l-3.37.09c.01.51.18.67.39,1.28.1,1.02-.58,2.93-1.15,3.09.31.26.62,1.17.34,2.07-.22.09-.31-.25-.35-.43-.75,2.57.2,3.97-.62,5.69-.2.01-.32.11-.4.26.28-2.08.53-3.75.55-3.58-.55-.07-.87,1.6-1.47.17.24,1.41.86,3.82.42,5.43-.07.07-.12.14-.22.19l-.04-.18c-.1.38-.09.72-.03,1.04-.15.51-.25.84-.32,1.34-.49.14-.47,1.9-.57,2.75.62,0,.41,1.08,1.02.1-.06.13-.06-.17-.02-.73,0-.13,0-.28-.03-.37.01.01.03.04.05.07.04-.56.11-1.27.19-2.09.24.7.41,1.41-.02,2.31.35.47.71.99.87,1.27-.97,1.06-1.65,3.23-2.2,3.49.12,2.6-.33,6.08.72,7.78.09.74-.39.81-.59,1.07-.09-.43-.03-.93-.17-1.17.19,1.49-.2,4.33.57,4.74-.47,1.82-.68-1.08-.7,1.46l-.23-.36c-1.59,4.92,1.58,8.19-.25,13.64.12-.38.17-.57.31-.64-.96,6.28.37,12.97-.71,19.19-.22,1.77.29,1.95.71,3.03l-.65.4.8,1.83c.6,2.6-1.5,4.57-.33,7.84l.43-.44c-.06,1.19.42,3.75-.1,3.57.09.12.48.37.27.84l-.34.05.73,2.88c-.11,2.27-1.39-.28-1.25,3.03.21,1.22,1.22,3.43,1.42,2.96-.01-.5.14-1.28.48-1.33l.25,1.11c1.03.14,2.12.92,2.65-1.86l-.74-1.87.45-.64.13,1.6c.41-.94-.04-1.49-.36-2.11.25-.17.42-.45.49-.83l-1.06-1.82c.39-.24.83.8.99-.47-.5-.85-.85.89-1.22-.56.41-.94.81-.68.36-1.74.25-.16.43.06.57.48-.36-.94-.25-2.51-.8-2.98.54-.97-.26-3.21.71-3.15-.24-.29-.82-1.65-.87-2.53,1.19,1.57,0-3.27,1.24-2.88-1.08-1.16-.52-4.26-1.11-6.35.08.11.26.35.2.53.08-1.18.39-1.52.57-2.28-.85-.15-1.04-1.99-1.56-2.98.84-1.44,1,.89,1.8.43-.69.07-.68-2.52-1.26-2.03.52-1.1.25-.95.97-1.51-1.06-.21-.16-1.03-.8-1.96.56-1.59,1.01-.39.72-2.16.34-.83.69.74.69.74l-.06.03Zm1.03-41.77h.01c-.03.36-.05.66-.07.86,0-.18.03-.43.05-.86Zm.42-3.5c-.08.42-.15.95-.22,1.51-.23.09-.42-.06-.37-.41.12.21.34-.6.59-1.1h0Zm-5.1,6.94c-.02-.57.12-.74.25-.81-.02.27-.04.58-.04.98.02.02.04.06.07.07-.11-.07-.21-.14-.28-.25h0Z"/><path class="cls-2" d="m220.59,49.65c-.9-1.56-1.11-.34-1.7-.44-1.29-1.75.01-1.15,0-1.99-.87-1.05-2.01-1.6-2.47-2.49.08-.13.03-.32.28-.2-1.26-.94-2.08-3.67-3.55-4.78,0-.14.04-.23.07-.28-.23.42-.57.65-.86.73-.39-.71-1.16-1.11-.83-1.61.22.45.43.39.68.52l-.6-.65c.31-1.02.78.91,1.27.66-1-1.35-2.44-2.79-2.81-4.03.55-.56,1.55,2.55,1.38.74.21.63.41,1.26.64,1.88.34-1.85.48,1.09.95-.69-.98-2.38-1.63-2.4-2.59-4.79-.63-.34-.47.43-1.09.09-2.25-3,.45-3.39-1.59-5.4-.73-.43-1.7-.3-2.03-2.25l1.03.26c-.94-2.31-1.7-.82-2.23-3.44.47.3,1.04,1.69.98,1.31-.09-1.81-.91-.91-1.43-2.12l.58-.53c-.57-1.2-1.27-2.42-1.96-3.69-.68-1.27-1.38-2.58-1.99-3.92.27.07.67.46.63-.26-.84-1.67-1.49-3.54-2.07-5.42-.38-1.17-.71-2.18-1.81-3.74-1-1.39-2.37-2.42-3.88-2.75-.79.1-1.55.39-2.16.85-.47.15-.95.11-.49-.27-.55.19-.79.35-.89.46-.1.11-.05.15.04.19.17.08.46.14.12.56-.45.4-.76.65-.94.67-.18.03-.22-.17,0-.57-.32.43-.62.97-.9,1.55-.07.14-.14.29-.21.43-.07.14-.16.32-.18.38-.08.18-.16.37-.24.56-.34.76-.71,1.58-1.13,2.38-.84,1.59-1.78,3.14-2.76,4.09l.1-.53c-1.29,1.62-.08,2.64-1.56,3.97l.09-.37c-2.52,3.69-4.49,8.21-6.98,10.71.48,1-2.52,3.65-1.52,4.51-1.77,1.93-1.65,1.17-3.72,4.13-.5.81.04,1.63-.4,2.74l-.61-.28-.13,1.74-1.1.39-.36,1.07c.24-.37.7-.7.84-.55-.52,1.67-2.36,3.53-2.69,3.42l-1.34,3.91c-.2-.2.02-.86.12-1.42-.37,2.25-.82.04-1.16,2.11.26-.17.29.3.39.4-.81.72-1.81,2.76-2.4,4.34l-.28-.49c-1.43,2.69-2.59,5.87-4.02,8.96.71-1.02,1.32-.43.98.5l-.82.07c.12.76.68-.84.61.58-.61,1.12-1.1.45-1-.32l-.43,1.5c-.23,0-.18-.38-.39-.58.13.76-1.75,2.15-1.43,3.3h-.23c-1.42,3.1-1.78,4.63-2.87,7.18.54.29,0,1.23.12,2.19l-.19.34c-.07.12-.12.19-.23.41-.2.37-.39.76-.6,1.14-.41.78-.84,1.62-1.28,2.51-.87,1.76-1.81,3.77-2.58,5.71-.32,1.19-.17,1.17.05.98.22-.19.53-.55.62-.29-.51.5-1.11,1.65-1.6,2.56-.06.12-.12.22-.17.32-.03.05-.06.1-.08.15l-.04.07s.01,0,.01,0c.08,0,.12,0,.11.04-.01.04-.09.11-.24.22-.07.04-.17.11-.3.19-.03.02-.07.04-.1.06-.01,0,0-.02,0-.04v-.11l-.08.21s0,.03.02,0l.06-.03.11-.05c.15-.06.28-.13.42-.19.28-.13.54-.25.79-.37.51-.24.98-.45,1.42-.66.89-.42,1.7-.81,2.54-1.22,1.67-.81,3.57-1.79,6.29-3.25-.6.01-1.18.17-.84-.19.45-.25.95-.41,1.35-.48.4-.06.71-.04.68.12l-.25.17c.37-.22.75-.43,1.12-.63.28-.16.49-.27.76-.4.5-.24,1.03-.45,1.59-.65,1.1-.39,2.25-.69,3.39-1,2.26-.61,4.41-1.22,5.7-2.43l-.15.13,2.92-1.96c1.5-.56-.7.77.52.6,3.03-2.36,5.45-2.28,8.01-4.1,2.85.52,7.67-3.55,11.05-3.91l-.33-.27c.6-.68,1.01-.21,1.61-.38-.2-.24-.97.05-.58-.35,6.24-3.29,13.51-5.41,20.24-8.03,2.45-.98.54-2.43,3.96-2.94l-.57,1.04c4.51-2.95,9.96-4.41,14.42-7.2-.22.27-.14.48-.6.68,1.22.02,3.73-1.63,3.57-2.03.07-.02.12-.04.17-.06.07-.02.12-.04.18-.06.1-.03.18-.04.24-.05.12,0,.17.03.2.07.07.09.09.24.57.14,1.04-.3,2.15-.97,3.03-1.52.9-.55,1.62-1,2.48-1.1.29-.04-.28.31-.57.49.86-.66,5.85-2.54,3.5-2.15,1.85-.67,3.24-1.36,4.47-1.97,1.25-.63,2.36-1.17,4.2-1.8-.12-.09.01-.22.31-.39-1.18-.09-1.99-.3-2.92-.45-.92-.14-1.91-.22-3.16,0,3.08-.55-4.21-1.39-6.83-1.3.56-.07.22-.19-.12-.33-.33-.14-.67-.3.03-.4-1.32-.18-2.63-.32-3.56-.34-.93-.02-1.47.08-1.4.34-.46-.22-.99-.38-1.54-.52-.27-.06-.57-.13-.81-.17-.16-.04-.31-.06-.47-.08-.63-.08-1.26-.06-1.85-.04-1.19.03-2.22.04-2.84-.81-4.23-.06-8.14-.26-11.91-.56.28-.94,4.15.49,4.14-.55-3.61-.1-5.77.43-9.26-.3-.9-.26.57-.35.91-.47-3.61-.1-6.85-1.06-10.08-.98.02-.09.38-.14.71-.17-.63-.06-1.43-.35-1.42.1l.62-.04c.9.78-2.66.98-2.82,1.3,1.24-1.11-3.08-.76-1.16-2.11-.42.02-.97.16-.92.47-.6-.17-.76-.37-.1-.62-2.26-.08-1.54.5-3.56.21.04-.21.46-.24.71-.45-1.08.27-2.17.54-3.85.12.12-.12-.05-.31.46-.23-2.94-.35-5.16.4-8.31-.46,1.08-.78-1.05-.46-1.1-1.28h-1.76l.64.48c-1.51-.23-2.93.17-4.2-.28l1.17-.17-2.86-.25,1.56.53c-1.59.19.02,1.04-1.96.53.42-.02-1.51-.22-2.23-.81-.79.14-1.59.31-2.68-.05-.25-.3.36-.85.2-1.04-.84.56-3.56-.33-4.6.23.33-.12.42-.53.33-.63l-.7.45c-.67-.28-.76-.38-.59-.7-2.07-.45.49,1.12-1.91.27.2,0,.12-.11.55-.12-2.44-.65-4.86-.53-7.05-1.32-.47-.94,2,.25,1.4-.59-3.15-.54-6.68-.72-9.58-1.93l-.91,2.02c.08.05.16.09.23.14l-.22-.16.89-1.98.29.16c-.13.15-.28.22-.44.22l-.55,1.24c.8.08,1.7,1.81,3.14,2.04-.4-.11-.76.32-.61.26,1.89,1.17,4.15,1.85,7.3,3.12l-.51.06c1.02.86,2.96,1.77,4.13,2.56.51-.06,1.19.38.97-.23,2.98,3.56,7.72,3.26,10.36,6.42-.4-.23-1.08-.33-.76-.14l2.98,1.42c.03-.56-.22-.48-.62-1.16.51-.04,1.44.22,2.14.64-1.45-.47-.4.7,0,1.26-.01-.19.26-.22.3-.38,1.02,1.64.77-.71,2.48,1l-.24.16c.83.33,1.71.45,2.48,1.01.04.7-.95-.26-1.24.12,1.16.66,2.82.43,3.55,1.55-.57-.16-1.26-.58-1.83-.73.76,1.26.98,1.19,1.76,1.79l-.07-.06,1.75,1.44-.39-.46c2.22-.4,3.03,1.55,5.46,1.92-2.35-.38-.6.26-1.09.73.39.46,1.01,1.09.7,1.12,1.19.12,1.26,1.3,2.95,1.45-.06.21.94.63.45.94,1.24.61-.07-.48.17-.64,2.18.55,3.71,3.43,6.8,4.31,2.43,1.12,3.23.81,5.46,1.89.49.74-1,.25-1,.25.92,1.01,1.79,1.51,2.96,2.03-.31,0-.19.28,0,.69.86.53,1-.24,1.91.76-.33.06-.79.2-1.32.12,1.08.52,2.28.85,3.4,1.41.05.49-.93.02-1.43-.02,1.23.66,3.11,1.79,3.8,1.56l-.6-.68c.43.27-.08.55-.44.42-1.24-.31-1.27-1.14-1.21-1.36l.79.4c0-1.53-3-1.86-4.41-2.92l1.13-.32-1.92-.42c-.18-.41-.11-.97.68-.59-.79-1.09-1.1-.37-1.72-1.39-.06-.13.01-.14.12-.1l-1.18-.48c.31-.02.19-.64.75-.11-1.55-1.68-3.35-1.45-3.67-2.48l.19.06c-2.74-1.45-.62.38-2.98-.25l-.38-2.22-.62.38c-.25-.19-.76-.58-.51-.73-1.24-.27,0,.35-.8.33-.95-1.33-3.69-2.07-3.41-3.12-.74.13,1.02,1.11-.55.53.23-1.2-1.7-.85-2.6-2.04.68-.26,1.63.71.74-.48-1.24.37-2.19-1.63-3.29-2.1-.47.64-2.35-1.09-4.19-1.89.25-.15-2.95-2.31-4.4-3.48l.12-.09c-.72.5-2.28-.6-3.55-1.17.29-.38.6-.42,1.36-.22l-1.13-.66c-.4.06-.81-.02-1.59-.37l.59-.35c-1.52-.84-3.37-1.16-5.11-2.59-.39.42.76,2.21-1.47,1.37.07-.3.26-.79.85-.59-.2-.06-.75-.14-1.04-.45l1.07.03c-.77-.69-.67.1-1.35-.34.23-.36-.37-.56-.1-.8.2.06.53.5.88.51-.76-.52-1.59-1.29-1.75-1.74-.05.25-.28.5-.9.22-1.53-.81-.26-.73-1.04-1.42-.52.06-1.33-.75-1.67-.21-.44-.25-.38-.55-.47-.8-.92-.19-3.72-1.93-3.16-.85l.18.15s-.09-.03-.15-.04c-2.89-.85-5.21-3.2-7.93-4.31l.1-.19c-1.29-.45-2.71-1.2-3.88-1.58l-.62,1.39c.36.07.69.11.99.11.49.18,1.03.76.74.94,1.34.27,1.55.09,3.32.96-1.41-.01.36.46-1.42-.13,1.64.68,1.95,1.11,3.92,1.01-.76.37,1.13.99,1.99,1l-1.11-.66c.93.14,1.72.36,2.53.57l-.59.61c3.39,1.6,6.63-.29,9.08,1.56,1.01-.35-1.86-.64-.94-1.09,1.6.35,3.13,1.61,3.64,1.68,2.16.71,2.21-.75,4.49-.15-.26-.3-.44-1.02,1.32-1.01,1.6.32,1.83,1.35.78,1.4-.39-.04-.57-.14-.54-.22-.54.02-1.24.03-.63.4l.25-.22c.76.37,2.99.66,2.41,1,1.25-.07.58-.35-.31-.6,2.01.66,3.23.47,5.32,1.02-.32-.19-.59-.53-.25-.48,3.08.76,1.45-.29,3.58-.1,1.15.55-.57.86,1.62.84,1.26.45.18.71-.37.85,2.01-.22,3.58.84,4.68,1.08l-1.06.06c.63-.04,1.13.04,1.64.12l-.51-.59c.59.17,1.1.24,1.06.45.67-.24-.35-.91.94-1.2.76.37,2.48.06,2.65.78-2.49-.58.18.71-1.96.53.42-.02.92.05,1.51.22.08.09-.1.13-.28.14,2.32.94,1.21-.6,3.71-.24-.37.33.47.8.9.78-1-.15-.39-.7.57-.86,1.56.52,1.77.03,2.6.18l-.94-.27c.38-.33,1.17-.17,2.31-.13.05.31-1.04.06-.66.24,1.34-.49,2.7,1.09,4.49.88.76.37-.02.73.65,1,2.01-.22,2.02.81,4.12.7-.52-.59-.63-.48.87-.78l-3.4-.12,2.26-.44c-1.01-.15-2.18.02-2.77-.15,1.08-.27.96-.16.54-.65,1.27.96,2.81-.06,4.33.68l-.23,1.26c2.32.9,4.36-.04,7.43.71l-.97-.36c.49-.45,1.93.2,2.97.14-.15.41.45.65.85.97,0-.32,2.28.35,2.68-.45l1.31.76c1.24.3,2.01.09,2.76-.12.38-.11.75-.22,1.18-.27.11-.01.22-.02.33-.03.1,0,.2,0,.31,0,.18,0,.38.02.59.07-.68.37-.04.77-1.13.95.1.01.18.03.28.04.04,0,.07.01.11.02.07.01.14.02.2.02.12,0,.22-.04.3-.18.04.14.35.04.76-.03.4-.07.92-.11.84.09.42-.13,1.16-.48,1.74-.36-.09.07-.37.16-.37.16.18-.08.54-.1.92-.15.37-.05.8-.13.93-.35-.15.39.09.58.64.7.54.12,1.42.19,2.17.27-.72.35-1.75.74-3.38.99-.47.37-1.43.94-2.33,1.38-.1-.09-.27-.12-.04-.17-.82.14-.62.4-.63.73,0,.32-.09.69-1.26.97-.73-.05-.46-.27-.12-.47.09-.05.17-.09.25-.14.05-.03.1-.06.13-.08.06-.04.05-.07-.09-.08-.12-.14-.18-.26-.32-.29-.14-.04-.29-.04-.46,0-.33.08-.7.29-1.1.53-.8.49-1.73,1.12-2.68,1.09l.34-.24c-1.39.09-2.68,1.78-4.67,2.56,0,0,.04-.16-.08-.2-1.03,1.25-3.45,2.58-5.24,3.6.36-.76.73-.64.15-.99-.81.45.62.71-.99,1.6-.67-.03-1.99.27-2.39-.2l1.56-.73c-1.13-.34-2.04.94-2.92,1.19l-.04-.35c-2.38,1.18-2.06,1.97-4.68,3.07l.37.12c-1.07,1.4-1.39.1-2.54,1.3l-.79-.58c-.85.6-2.94,2.22-4.56,3.12.69-1,2.52-2.17,3.58-3.06-.93.41-3.13,1.47-3.44,2.07.34-.24.73-.64,1.15-.69-.86,1.12-2.22,2.09-4.09,2.9-.36-1.66-5,1.78-6.88,1.2-3.03,2.02-6.61,2.66-10.39,4.46,1.89.57-1.1.53-.32,1.63-.86.48-1.2.6-1.32.56l-3.03.48c-.8-.06.73-.64.52-.88-1.99.78-1.05-.14-2.49.11.46.31-.39.92-1.58,1.25l1.82-.14c-2.43,1.86-2.81.04-5.26,1.9l.7-.76c-1.31.85-5.19,2.31-6.14,3.89-.31-.03-.79-.21-.21-.58-1.72.68-3.47,1.77-5.16,2.76-.42.24-.84.48-1.25.72-.36.19-.71.38-1.05.56-.3.17-.64.27-.81.17.06-.14.12-.29.16-.42-.09.09-.21.31-.36.49-.14.17-.31.3-.32.13.12-.2.31-.49.25-.49-.08.09-.31.35-.57.58-.26.23-.57.44-.57.34.26-.25.49-.49.71-.71-.04-.1-.19-.01-.44.14-.07-.02-.23.04-.41.06-.35.05-.68-.2-.48-.96.6-.17,1.09-.53,1.4-.71.07-.04.14-.09.21-.13l.09-.05s.01,0,.02-.01l.04-.07.09-.15c.24-.4.45-.78.62-1.09l.11.1c1.74-3.74,2.07-6.75,3.3-10.4,1.92-1.74,3.77-7.13,5.96-10.32-.41.45-.64-.41-.42-1.06.57-.72.49-2.51,1.22-2.01l-.15.28c1.08-.23,1.67-1.99,2.34-3.26l-.92-.72c3.18-2.62,3.95-9.07,6.26-10.19.17-.94.71-1.92.88-2.85l.52.33c1.34-2.14,2.01-3.2,3.39-5.99l.07.76c.9-1.5-.47-2.79.3-4.22l1.05.02c1.51-2.67,3.75-4.95,4.58-7.97.09.11.28.32.05.76.75-1.23,3.39-4.47,2.04-4.67.73.39,1.71-2.66,2.27-4.25l.39.53c.08-1.58-.08-1.74.77-3.51.31-.35.62-.09.17.35,1.1-1.15.15-1.36,1.07-2.14-.01.24,0,.45.01.66.23-.32.34-.48.41-.68.08-.19.1-.45.34-.81.31-.26.91-.1,1.22.32.33.4.4.87.26,1.14.27-.21.91-.19,1.18.66-.13.19-.38-.01-.51-.1.19.53.36.96.55,1.37.22.48.46.89.68,1.29.45.78.85,1.47.89,2.44-.18.11-.23.25-.23.42-.73-2-1.29-3.61-1.19-3.48-.53.19-.02,1.84-1.23.81.89,1.16,2.55,3.07,2.92,4.72-.02.09-.04.19-.1.27l-.12-.14c.09.38.27.68.47.96.11.53.17.87.36,1.35-.35.35.48,1.94.81,2.73.54-.3.89.78.95-.38.01.14-.13-.12-.38-.64-.07-.12-.13-.25-.2-.32.02,0,.04.02.07.04-.22-.52-.5-1.2-.82-1.97.54.52,1.04,1.07,1.08,2.08.53.26,1.1.55,1.37.73-.34,1.4.12,3.66-.25,4.15.66,1.14,1.37,2.52,2.09,3.76.71,1.24,1.5,2.31,2.38,2.81.45.61.07.91.02,1.24-.29-.34-.49-.81-.74-.95.91,1.22,1.98,3.95,2.88,3.9.51,1.83-1.13-.62.13,1.63l-.38-.2c.28,1.27.76,2.32,1.35,3.25.6.93,1.32,1.74,2.02,2.58,1.39,1.68,2.83,3.38,3.47,6.23-.1-.39-.15-.58-.07-.71,2.51,5.95,7.26,11.01,9.78,16.88.81,1.62,1.35,1.5,2.28,2.19l-.33.69c.55.38,1.12.75,1.69,1.12,1.98,1.84,1.32,4.69,4.2,6.78l.1-.61c.33.51.95,1.24,1.42,1.86.48.61.82,1.12.55,1.19.14.05.61.04.71.55l-.26.24,2.28,1.99c1.23,1.96-1.31.55.75,3.23.89.89,3.02,2.15,2.9,1.63-.3-.4-.64-1.14-.4-1.38l.86.77c.92-.48,2.26-.46,1.08-3.05l-1.7-1.12v-.78l1.04,1.24c-.22-1-.9-1.2-1.53-1.53.11-.28.08-.6-.07-.96l-1.93-.91c.17-.42,1.14.19.54-.94-.9-.43-.19,1.21-1.32.22-.2-1.01.27-1.02-.71-1.64.12-.27.39-.19.74.08-.85-.57-1.63-1.96-2.36-2.04-.11-1.11-2.06-2.53-1.21-3.01-.37-.11-1.59-.95-2.14-1.65,1.88.66-1.85-2.74-.59-3.09-1.53-.41-2.8-3.3-4.44-4.77.13.06.4.16.46.35-.57-1.05-.49-1.5-.74-2.25-.8.33-1.97-1.13-2.96-1.7-.07-1.67,1.32.23,1.75-.58-.56.43-1.92-1.79-2.15-1.07-.15-1.22-.29-.95.01-1.8-1.02.38-.7-.79-1.75-1.25-.38-1.66.65-.86-.53-2.22-.14-.89.98.28.98.28v.04Zm-20.04-37.08h.01c.15.33.28.62.36.8-.07-.17-.18-.4-.36-.79h0Zm-1.25-3.33c.13.41.31.92.52,1.45-.15.19-.41.14-.52-.2.2.14.02-.7,0-1.25Zm-1.24,8.57c-.29-.5-.25-.72-.16-.84.11.24.25.53.44.9.03,0,.06.03.09.04-.13,0-.25-.02-.37-.09Z"/><path class="cls-2" d="m32.25,34.56c-.05.29.63.21.99.32.15.37-.5.11-.85.19.15.24.73.48.68.64-.11,0-.15.03-.29-.02.49.29-.05.69.57,1.04-.06.01-.12.02-.17.02.33,0,.67.02.91.06,0,.13.39.29-.05.29.02-.08-.15-.11-.28-.16l.17.16c-.63.05-.19-.21-.65-.26.17.29.64.66.45.85-.61-.02-.15-.51-.71-.29l.27-.29c-.98.14.09-.18-.95-.08-.22.4.26.51.03.91.32.13.5.02.82.16.53.67-1.57.29-.82.82.39.16,1.14.29.71.55l-.67-.18c-.11.4.95.35.45.71-.26-.11-.19-.35-.28-.29-.57.21.36.24.34.45l-.61-.02c.05.44.42.97.48,1.46-.18-.05-.36-.15-.55-.06.23.64-.22,1.28-.65,1.82l.49.29c-.01.05-.24.07-.34,0-.23.2.33.05.52.18.02.13-.32.14-.46.04.39.45.82,1.26.21,1.61l-.14-.1c-.25.3,1.02.5.5.74l-.08-.07c-.31.68.07,1.53-.78,1.98.74.2-.42.67.62.84-.57.35-.74.2-1.16.74-.07.15.63.31.71.51l-.55-.06.54.33-.67.06.12.2c.04-.07.26-.12.42-.09.21.31-.46.63-.74.6l.38.71c-.22-.04-.28-.16-.41-.26.51.42-.58,0-.11.38.13-.03.32.07.43.08-.35.12-.4.48-.29.77l-.37-.1c-.15.48.05,1.05-.02,1.59.2-.17.85-.05.89.12h-.58c.35.14.24-.15.65.12-.09.2-.67.05-.85-.08l.17.27c-.17,0-.26-.08-.48-.12.35.15-.63.36-.03.58h-.17c-.07.54.1.81.07,1.26.5.07.36.23.75.42-.2.31-.64.62-.65,1.02.21.31.41.14.69.3-.46-.04-.46.36-.76.12.01.48.01.61.3,1.26.2-.04.29-.1.43-.05.06.12-.22.22-.44.18l-.04-.04c.6.76-1.52,1.38-.64,2.03l-.04-.04.42.62c-.11.24-.32-.2-.63-.04.68.7-.23.93.21,1.49-1.39.21-.08,1.36-1,1.76h.32c.29.18-.2.15-.29.24.24.02.3-.11.46,0,.23,1.17-.77,2.26-1.2,3.38-.14.41,1.6.46.77.89l-.57-.23c.59.95-.26,1.73.23,2.65-.13-.07-.3-.1-.29-.17-.45.12-.11.65.24.7-.06.12-.32-.01-.51.04-.27.14.48.52.05.55-.07,0-.13-.07-.16-.11.19.14-.12.53.38.48-.27.28.14.63-.18.84.52.24-.34.5.43.65-.8-.13-.72.46-.37.71-.23-.1-.27.14-.6.01-.02.23.1.45.52.47-1.02.29.65.94-.61,1.01.34.73.54,1.39.65,2.02-.8-.13.01-.68-.83-.77.25.62.89,1.04.62,1.58-.13.13-.33-.13-.46-.2.25.62-.23,1.1.14,1.66-.07-.01-.15-.08-.2-.14.01.1-.15.21.21.26l-.08-.11c.55-.08,1.04.55,1.32.61-1.02-.32-.33.46-1.61.01.06.08.22.18.46.2-.08.09-.23.1-.49-.04.15.39.55.32.49.64-.17-.02-.23-.1-.43-.17.32.21.64.43.45.68-.1-.03-.24-.02-.23-.1-.01.48.8.93.39,1.41-.74-.26-.27.14-.94.07l.15.3.34-.07c-.05.24.4.52.15.7l-.24-.22.06.48.29-.22c.3.3.84.1.61.39-.06-.08-.04.24-.45.32.19.15.4.3.21.46-.22.02-.73-.14-.87-.13.54.2.07.59.64.83-.13-.07-.48-.12-.55-.12l.43.17c-.16.09-.23.1-.51.04-.13.33.85.01.43.36-.03-.04-.1-.03-.16-.11-.24.38.17.82-.1,1.16-.68.01-.11-.35-.7-.3.04.55.64,1.23.4,1.72l.09-.08c.93.21-.52.32-.12.64-.06-.07-.51-.16-.4-.13-.2.33.12.76.34,1.34l-.23-.1c-.24.18-.2.53-.35.74.23.1.17.23.54.2-1.48.49.54,1.44-.7,1.89,0-.07-.18-.21-.19-.15l.14.56c.42.02.26-.03.59-.1.23.1.4.28.38.41-.23-.28-.66-.1-.9-.03.12,0,.26.06.39.07-.77.17.82.17.27.47l-.21-.05c.09.15.35.33.27.47-.48,0-.2-.18-.58-.25,0,.21.83.55.33.68-.12-.11-.1-.24-.22-.35-.58.12-.45.17-.56.32h.01s-.3.31-.3.31l.17-.07c1.19.45.14.58.89,1.05-.71-.46-.43-.12-.96-.23-.16.07-.35.18-.49.12.4.23-.38.23.21.57-.17-.02-.04.18-.47.08.1.24.31,0,.52.04.54.43-.83.69-.1,1.3.27.47.84.64,1.07,1.07-.3.09-.61-.2-.61-.2-.29.17-.26.34-.1.57-.14-.07-.28-.04-.48-.01.02.17.61.2.32.38-.18-.07-.49-.16-.67-.27.13.21.42.45.55.67-.31,0-.43-.19-.62-.29.1.24.18.61.65.76l.19-.11c.01.08-.42-.02-.49-.1-.35-.25.21-.25.38-.23l.09.15c1.03.01-.08-.59.02-.86l.71.23-.57-.38c.2-.03.62-.01.71.14.39-.15-.23-.22.2-.33.07-.01.1,0,.13.02l-.19-.23c.15.06.52.05.4.15.48-.29-.46-.65.11-.7l.04.04c-.17-.53-.53-.13-1.11-.6l1.37-.05-.53-.13s.08-.14.3-.09c-.34-.25-.24,0-.57-.17.53-.17-.12-.71.74-.63-.4-.15-.35.18-.6-.12.93.06-.11-.33.35-.48.46.14.18.32.64.15-.79-.26.24-.41.11-.62-.64-.11-.21-.45-.38-.8.21.05.44-.54.72-.8l.11.02c-.64-.15-.47-.44-.57-.68.39.07.54.13.69.27l.03-.21c-.2-.08-.3-.16-.36-.31l.48.13c.01-.28-.49-.64-.11-.95-.45-.09-1.3.1-1.55-.33.24.02.67.07.75.18-.02-.04-.18-.14-.07-.2l.39.21c.2-.14-.33-.14-.27-.26.35.05.26-.06.54,0,.03.04-.16.09-.03.16.08-.14.32-.28.59-.3-.2-.02-.47-.07-.5-.18.02-.28.43-.03.64-.17-.23-.1.05-.24-.48-.32.01-.08.26-.06.4-.07-.21-.18.03-.68-.55-.6l-.04.03s-.01-.02-.02-.02c-.45-.55.44-.93.29-1.43l.17.02c-.16-.31-.03-.64-.38-.89.01-.08.35-.15.55-.08-.1-.23-.29-.29.04-.55.27.26.28-.04.19.25.19-.26.48-.27.05-.64.43.17.6-.13.48-.27l-.35.15c-.04-.15.01-.28.07-.4l.58.15c.8-.46-1.07-1.2.19-1.45-.39-.21-.33.26-.8.06.12-.25,1-.4,1.01-.48.38-.31-.81-.46-.54-.8-.21.02-.78-.02-.94-.32.11-.25.93-.19,1.07,0,0,.07-.06.08-.13.07.07.1.14.22.38.15l-.2-.07c.23-.1.26-.46.6-.33-.17-.23-.33-.13-.46,0,.35-.29.08-.52.34-.83-.12.04-.38.05-.37,0,.33-.46-.37-.28-.41-.63.35-.15.76.18.54-.2.24-.18.57.04.72.14-.36-.37.35-.55.45-.71l.15.19c-.09-.11-.07-.19-.06-.27l-.43.04c.09-.09.1-.17.27-.14-.26-.14-.71-.02-1.06-.27.23-.1-.17-.42.39-.39-.24.38.57.04.61.39-.06-.08-.04-.15.04-.24.07,0,.11.03.14.06.55-.32-.61-.27-.54-.67.31.1.61-.01.55-.08-.03.16-.54,0-.76-.18.28-.23-.14-.3-.1-.43l-.14.14c-.3-.1-.24-.22-.32-.41.24.02.14.18.26.14-.52-.28.64-.37.3-.7.23-.1.59.07.75-.02-.36-.37.48-.28.18-.65-.43.04-.33.07-.71-.22l.22.58-.57-.43c-.03.16.22.38.13.47-.32-.21-.22-.18-.58-.15.67-.14-.31-.49.15-.69l1.04.15c.52-.32-.44-.76-.11-1.23l-.2.14c-.4-.13-.01-.32-.16-.51.35.07.49-.02.71-.06-.26-.03.08-.36-.62-.51l.49-.16c.24-.38-.93-.6-.76-.98.36.17.64.02.87.33.02-.13.1-.24-.14-.27.23-.05-.42-.43-.07-.5-.14-.08-.51-.14-.46-.29.07,0,.17.02.17.02-.17-.02-.2-.26-.61-.18,1.14-.25.07-1.13,1.05-1.35-.08-.3-.14-.66-.14-.92.1.03.17.02.13.07.38-.31-.97-.36-.55-.71.6-.13.27.26.51.15,1.16.1-.09-.51.62-.69l.06.08c.42-.15-.37-.57-.24-.9,0,0,.1.03.17.02-.55-.31-.69-.78-.81-1.13.43.16.22.18.68.18-.05-.15-.74-.05-.83-.36.26-.06.5-.24.99-.21v.28c.64-.06.01-.36.14-.49l.27.05c-.04-.43-.73-.54-.62-.98l-.21.02c-.66-.34.42-.15-.07-.48l.71.02c-.15-.18-.6-.67-.69-.98.49.24.71.61.99.87.02-.16.02-.56-.31-.69.06.08.22.18.1.23-.52-.27-.76-.57-.7-.89,1.35.24.45-.8,1.54-.9-.43-.64.36-1.11.37-1.79-1.08.1,0-.2-1.1-.3-.05-.17-.02-.22.05-.23l.71-.39c.33-.07.22.18.46.2.13-.33.48-.08.79-.27-.39,0-.54-.19-.36-.36l-.54.21c-.51-.55.96-.3.45-.85l.32.2c-.17-.27.12-.91-.71-1.26.13-.03.43-.05.5.07.21-.57-.76-1.43-.17-1.82l.26.08c-.06-.12-.47-.26-.19-.36.11.02.26.08.28.03-.08-.07-.43-.35-.26-.48l.28.16c.42-.53-.61-.98-.73-1.48.78.1,1.09-.32,1.24-.53l.11.02c.18-.66-.51-1.22-.73-1.88.89-.28.52-1.26,1.07-1.82-.15.08-.61-.09-.67-.21.18-.13-.49-.47.22-.36l-.02.05c.71-.02.57-.35.61-.58l-.93-.15c1.44-.44-.3-1.66.95-1.85-.21-.18-.19-.36-.4-.53l.5.07c.18-.39.27-.59.21-1.11l.35.15c.07-.28-1.41-.54-1.4-.8h.76c.05-.49.77-.91.14-1.48.11.02.32.06.35.14.05-.23.61-.85-.42-.88.67.07.12-.51-.14-.81l.49.1c-.61-.3-.77-.33-.91-.67.07-.07.4-.02.27.07.29-.22-.45-.25-.15-.52l.3.15c.07-.25-.1-.25-.45-.43-.18-.18.18-.47.63-.46-.27-.07-.61-.25-.47-.39.17,0,.27.07.32.1.39-.39-.5-.71.02-.95.17.01.25,0,.3-.02-.05.34-.11.61-.14.58.46.05.57-.21,1.17.08-.32-.26-1.02-.73-.77-.97.05,0,.09-.02.16-.02l.05.04c.05-.06.02-.12-.05-.18.08-.08.15-.13.16-.21.38.01.24-.29.27-.43-.5-.05-.4-.21-.83-.1.04-.02.05.04.07.12.01.02.02.05.05.07-.01,0-.03-.01-.04-.01,0,.09,0,.21,0,.35-.24-.14-.44-.27-.15-.39-.31-.11-.63-.23-.78-.29.71-.11,1.14-.43,1.57-.43-.23-.45-.07-1.01-.98-1.38-.11-.13.29-.11.43-.13.08.08.06.16.19.21-.21-.27-.01-.71-.66-.85.33-.27.58.24.52-.18l.2.08c1.14-.69-1.52-1.51-.08-2.26-.09.05-.13.08-.24.08.71-.96-.32-2.18.74-3.08.22-.27-.2-.35-.49-.55h.54l-.58-.37c-.4-.48,1.4-.6.6-1.23l-.37.03c.09-.18-.14-.64.27-.56-.07-.03-.37-.11-.17-.16l.28.02-.43-.53c.24-.35,1.11.18,1.22-.35-.08-.21-.76-.66-.95-.61-.02.08-.2.18-.48.16l-.12-.2c-.82-.13-1.66-.36-2.28.03l.47.37-.41.06v-.27c-.39.11-.07.24.15.37-.21,0-.37.03-.46.08l.76.39c-.33,0-.63-.21-.83-.02.35.18.74-.06.95.21-.39.11-.69.03-.39.24-.21,0-.35-.05-.43-.13.24.18.06.42.49.55-.48.11.06.54-.72.44.18.07.58.35.6.49-.9-.36-.11.53-1.11.35.82.29.3.74.73,1.14-.07-.02-.2-.08-.15-.11-.09.18-.35.21-.52.32.69.1.82.42,1.23.63-.7.16-.8-.24-1.45-.23.57.05.52.48.99.45-.43.14-.22.13-.8.16.86.13.13.18.64.39-.46.21-.82-.02-.59.29-.28.11-.56-.18-.56-.18h.04Zm.72,7.03h-.01c0-.06-.01-.11-.01-.14,0,.03.01.07.02.15h0Zm-.06.58c.03-.07.04-.15.05-.25.17,0,.35.04.33.1-.11-.05-.23.08-.38.15Zm3.6-.82c.06.1-.04.12-.14.12,0-.04-.01-.1-.04-.17-.02,0-.04-.01-.06-.02.1.02.18.04.24.07Z"/><path class="cls-2" d="m6.54,76.57c.21-.12-.26-.6-.42-.95.14-.31.38.33.64.57.05-.24-.17-.83-.04-.88.07.08.11.11.16.23-.13-.54.45-.33.27-1,.05.04.08.08.11.12-.21-.26-.4-.54-.52-.74.08-.07-.06-.46.21-.12-.06.02.03.17.08.3v-.22c.42.46-.02.26.23.65.07-.29,0-.86.24-.8.36.49-.21.39.26.71l-.35-.05c.69.7-.17.03.54.79.38-.04.15-.47.53-.51-.12-.32-.29-.4-.41-.73.08-.77,1.15,1.07,1.01.2-.14-.39-.53-1.05-.1-.85l.3.63c.32-.12-.38-.93.17-.73.1.26-.1.33,0,.38.48.33-.08-.41.07-.51l.36.49c.24-.27.33-.85.6-1.16.08.16.13.36.3.46.25-.52.92-.51,1.51-.45l-.13-.54s.19.15.21.27c.26.07-.17-.29-.21-.51.07-.09.28.18.31.35.04-.55.27-1.3.86-1.02l.03.17c.34.04-.32-1.07.15-.79v.1c.63-.12.91-.87,1.71-.43-.33-.68.67-.02.14-.93.56.27.58.48,1.16.52.13-.02-.19-.65-.12-.83l.3.46-.13-.6.45.5.05-.2c-.07,0-.23-.14-.31-.29.06-.33.67.04.82.27l.21-.68c.11.2.07.3.09.46-.05-.63.35.46.3-.11-.1-.09-.15-.29-.21-.39.29.21.54.06.66-.17l.17.35c.39-.13.61-.6.99-.82-.23-.07-.54-.64-.46-.77l.35.46c-.12-.35-.23-.11-.32-.58.18-.03.44.51.46.71l.07-.28c.1.14.11.24.21.44-.12-.35.6.32.38-.29l.1.14c.38-.23.45-.51.74-.72-.26-.43-.08-.41-.2-.82.31,0,.77.18,1.02-.02.06-.33-.17-.4-.24-.7.25.38.51.18.54.54.29-.26.37-.33.6-.9-.14-.13-.24-.17-.29-.32.04-.11.27.06.38.26v.05c.11-.87,1.77.48,1.65-.56v.05l.13-.65c.22-.04.07.36.35.52.02-.91.71-.3.8-.94.96.99.89-.65,1.7-.13l-.18-.26c-.07-.32.2.09.31.11-.14-.21-.25-.18-.28-.37.59-.8,1.86-.57,2.82-.8.34-.1-.67-1.51.09-1.08l.2.57c.23-.96,1.23-.7,1.51-1.56.04.14.12.29.07.32.34.3.47-.25.29-.55.11-.02.18.26.33.38.25.14.04-.65.32-.33.05.05.04.14.03.18-.02-.23.4-.17.08-.55.34.08.31-.43.63-.29-.17-.55.51.01.15-.68.39.71.71.34.66-.07.08.24.25.15.36.47.15-.1.23-.32-.01-.66.78.67.2-1.01.99-.04.26-.65.55-1.16.88-1.57.39.71-.43.34.01,1.07.24-.52.12-1.26.63-1.32.16.04.11.34.15.48.24-.52.82-.38.96-.97.04.07.04.16.03.23.06-.07.23,0,.04-.3l-.02.13c-.38-.4-.27-1.13-.39-1.38.4.98.49.02.95,1.29.01-.09-.01-.27-.15-.48.11.02.2.14.27.42.15-.32-.12-.61.11-.73.09.15.07.24.15.43-.05-.37-.11-.73.16-.71.04.1.13.21.07.24.31-.24.12-1.13.65-1.04.27.73.25.15.6.72l.1-.29-.24-.24c.18-.09.1-.6.35-.49v.31l.27-.29-.31-.12c0-.4-.43-.73-.11-.69-.01.08.18-.09.46.2-.02-.23-.04-.48.17-.4.14.17.33.66.42.77-.19-.54.33-.36.15-.94.03.14.2.45.25.51l-.15-.43c.15.08.2.14.32.39.28-.07-.49-.7-.02-.54,0,.04.04.1.02.18.38,0,.42-.57.79-.52.4.54-.15.27.21.71.32-.32.4-1.14.85-1.21l-.11-.02c-.41-.86.51.26.48-.24-.01.09.2.49.15.39.33,0,.4-.49.65-.96l.07.24c.26.11.45-.11.67-.1-.07-.24.04-.26-.18-.54,1.17.94.6-1.18,1.6-.4-.05.03-.02.26.02.23l.27-.4c-.23-.35-.17-.19-.4-.43-.07-.24-.05-.46.04-.52-.04.33.32.58.51.74-.07-.11-.11-.24-.18-.35.55.54-.36-.74.14-.46l.09.2c.05-.15,0-.45.14-.46.27.39,0,.26.18.6.14-.11-.13-.96.24-.61,0,.15-.1.2-.1.36.42.41.37.27.52.29h-.02l.38.08-.14-.1c-.4-1.2.28-.41.15-1.27.12.82.17.42.41.9.14.1.32.19.36.34-.09-.45.37.19.23-.46.09.15.14-.05.32.35.1-.21-.18-.24-.27-.45-.04-.65.92.33.88-.58.14-.46-.08-1.01.07-1.42.23.2.22.6.22.6.27.14.37.04.42-.21.04.15.13.24.27.39.1-.1-.22-.6.05-.46.07.18.18.48.21.68.06-.21.04-.57.11-.79.18.25.13.45.17.66.1-.21.28-.46.11-.91l-.18-.1c.05-.05.23.35.22.45.04.4-.27-.04-.36-.19l.05-.15c-.58-.85-.33.36-.56.42l-.27-.7.08.66c-.14-.15-.36-.49-.32-.65-.32-.24,0,.3-.32,0-.04-.05-.05-.08-.05-.12l-.04.27c-.05-.15-.27-.45-.13-.4-.46-.24-.15.71-.51.27v-.05c-.24.41.23.5.26,1.2l-.82-1.09.23.5s-.14,0-.23-.2c.04.4.14.2.23.55-.41-.35-.38.46-.83-.27.14.4.32.19.27.55-.5-.79-.14.26-.51-.03-.18-.45.1-.31-.27-.6.29.77-.4.01-.46.23.3.57-.17.4-.29.71-.09-.2-.6-.08-.92-.17l-.05-.1c.27.6,0,.61-.1.82-.18-.35-.23-.5-.23-.7l-.15.08c.07.2.07.33.01.45l-.2-.45c-.18.13-.13.73-.54.58.21.41.82,1.01.69,1.42-.13-.21-.34-.58-.32-.7,0,.04.02.23-.08.16l-.1-.42c-.2-.1.11.34,0,.36-.17-.31-.19-.18-.31-.43,0-.04.15.08.12-.06-.14,0-.36-.11-.53-.32.11.17.23.42.17.5-.18.13-.27-.33-.48-.43.07.24-.18.09.07.55-.06.03-.19-.18-.28-.29.01.26-.45.32-.06.75l.04.02v.03c-.08.64-.84.13-1.07.51l-.08-.15c-.1.29-.39.35-.35.76-.06.03-.3-.2-.37-.4-.09.2,0,.38-.37.25,0-.35-.18-.21.05-.29-.27-.02-.45-.24-.43.3-.15-.43-.42-.41-.45-.24l.3.2c-.07.12-.18.13-.3.15l-.24-.55c-.76-.4-.13,1.48-1.02.6.1.42.36.13.51.61-.23.04-.83-.6-.89-.57-.42-.14.19.89-.19.85.14.17.45.64.35.93-.23.04-.67-.65-.63-.86.04-.04.09,0,.12.07.02-.1.05-.23-.13-.38l.08.2c-.2-.14-.44.02-.55-.31-.04.26.11.34.27.38-.39-.13-.38.2-.72.16.1.08.26.27.21.3-.49-.02.04.44-.15.66-.3-.2-.33-.7-.44-.33-.26-.11-.31-.47-.33-.66-.02.48-.55,0-.71.01l.04-.21c-.02.13-.08.16-.14.19l.27.33c-.11-.02-.17,0-.25-.15.07.28.4.58.45.99-.2-.14-.17.36-.48-.11.38,0-.31-.47-.11-.69-.01.08-.07.11-.18.09-.04-.05-.05-.11-.05-.14-.52-.28.18.63-.11.77-.12-.3-.36-.48-.38-.4.12-.06.32.43.33.7-.3-.11-.11.27-.22.3l.17.04c.12.3,0,.31-.07.47-.13-.21.03-.21-.07-.28.14.57-.61-.32-.62.12-.2-.14-.3-.51-.46-.59-.02.48-.46-.24-.52.19.28.33.24.23.28.69l.23-.48.07.68c.12-.06.11-.38.21-.35.05.37.02.27.24.55-.48-.46-.12.51-.52.23l-.52-.92c-.51-.25-.22.75-.71.73l.21.1c.16.39-.19.18-.22.39-.17-.31-.3-.38-.46-.54.14.23-.27.13.05.76l-.39-.31c-.38,0,.17,1.06-.16,1.11-.11-.38-.36-.52-.31-.87-.1.05-.21.04-.09.26-.17-.16-.02.56-.27.32.04.15.21.48.1.52-.05-.05-.09-.15-.09-.15.09.15-.04.3.24.58-.83-.79-.75.53-1.47-.14-.14.22-.33.46-.49.59-.04-.1-.09-.15-.04-.14-.42-.14.36.96-.11.82-.43-.4,0-.36-.2-.49-.63-.98-.27.34-.8-.13v-.09c-.33-.26-.12.59-.4.66,0,0-.04-.1-.09-.15.14.61-.08.96-.22,1.24-.16-.43-.02-.27-.3-.64-.07.12.4.62.27.85-.19-.17-.45-.27-.72-.68l.18-.14c-.42-.49-.24.17-.4.13l-.13-.25c-.25.26.1.86-.24,1.01l.14.16c.18.7-.35-.25-.26.3l-.41-.58c-.03.21-.05.83-.2,1.06-.15-.52-.05-.89-.05-1.25-.12.07-.36.27-.24.61.01-.08-.02-.27.08-.2.14.56.1.9-.14,1.03-.66-1.2-.77.05-1.48-.76-.14.68-.91.3-1.34.65.71.81-.12.11.47,1.02-.07.13-.12.14-.17.08l-.67-.36c-.24-.23-.02-.27-.15-.47-.28.07-.34-.33-.65-.49.23.32.21.53,0,.48l.45.32c-.04.7-.76-.61-.8.08l-.07-.36c-.07.28-.64.38-.36,1.23-.1-.09-.29-.32-.26-.43-.48.14-.43,1.36-1.03,1.09l-.11-.24c-.04.11.13.51-.11.34-.05-.1-.11-.24-.15-.24,0,.1.04.52-.14.45l-.07-.31c-.58-.05-.23,1-.48,1.36-.41-.67-.86-.7-1.08-.71l-.05-.1c-.52.21-.45,1.05-.72,1.57-.71-.56-1.1.26-1.78.12.14.08.32.53.28.64-.18-.07.01.64-.36.01h.04c-.45-.57-.56-.28-.73-.19l.47.82c-1.15-.9-.84,1.12-1.72.23.02.26-.1.34-.08.6l-.26-.43c-.35.07-.52.1-.81.42l-.12-.35c-.21.1.53,1.39.36,1.53l-.46-.6c-.34.23-1.04-.11-1.01.68-.05-.1-.16-.29-.12-.35-.17.08-.9-.04-.29.8-.36-.57-.39.17-.41.54l-.24-.44c.18.64.27.79.15,1.07-.09-.02-.26-.31-.13-.24-.31-.11.12.48-.23.39l-.1-.32c-.2.08-.09.21.01.59,0,.24-.4.11-.67-.26.13.24.23.62.05.57-.11-.14-.13-.25-.13-.3-.48-.1-.13.77-.59.49-.1-.14-.15-.2-.2-.23.24-.14.44-.24.45-.2-.25-.39-.48-.33-.67-.96.04.39.18,1.19-.12,1.13-.04-.03-.07-.07-.11-.12v-.05c-.08-.01-.09.05-.08.14-.1-.02-.17-.05-.23-.02-.23-.3-.33-.03-.43.01.28.42.11.43.45.7-.04-.02-.01-.06.04-.12,0-.02.02-.04.01-.07,0,.01.01.03.02.04.05-.05.13-.11.21-.18.07.26.1.49-.15.33.13.3.25.61.31.77-.51-.51-.96-.66-1.23-1.01-.14.42-.58.6-.24,1.5-.02.15-.24-.17-.35-.27,0-.11.06-.14.01-.26-.03.31-.43.39-.11.97-.37-.12-.21-.58-.44-.31l-.07-.2c-1.13-.52.02,2-1.34,1.27.09.04.13.06.2.15-1.03-.04-1.14,1.41-2.35,1.08-.3-.03-.09.33-.04.68l-.34-.42.14.65c-.04.57-1.23-.77-1.13.19l.25.27c-.17.03-.3.45-.51.09.02.07.17.35.01.22l-.16-.23-.05.62c-.36,0-.58-.96-.98-.76-.08.18.07.94.23,1.07.07-.02.24.05.4.29l-.04.2c.44.71.82,1.48,1.44,1.76l-.07-.57.29.29-.17.14c.31.25.19-.07.13-.31.14.17.25.27.33.31l-.23-.8c.21.26.26.6.51.65-.11-.37-.5-.55-.47-.86.31.25.45.52.39.18.14.17.18.3.19.4-.04-.29.22-.27.03-.68.36.32.29-.34.71.33-.07-.18-.15-.64-.08-.73.34.91.39-.2.91.68-.33-.79.27-.63.24-1.17.02.07.07.2.03.17.17-.03.35.16.52.24-.37-.6-.25-.86-.38-1.3.53.46.35.75.76,1.26-.32-.47-.03-.65-.35-1.02.35.27.22.1.6.54-.46-.74.04-.2-.16-.71.42.24.49.65.55.3.24.16.24.54.24.54l-.04.05Zm3.85-4.31h0s-.07.07-.08.1c.02-.02.04-.05.08-.1h0Zm.39-.26c-.06.01-.12.05-.18.1-.11-.14-.19-.3-.14-.32.04.11.19.14.33.22h0Zm-2.72-2.39c.02-.1.1-.03.16.05-.02.02-.05.07-.08.12,0,.02.02.04.02.05-.05-.08-.09-.17-.11-.23h0Z"/><path class="cls-2" d="m15.11,42.9c.17.13.43-.49.67-.79.31-.02-.17.47-.27.8.22-.07.65-.51.73-.42-.05.1-.05.14-.15.24.42-.35.42.24.94-.21-.02.05-.04.11-.07.15.15-.29.33-.58.47-.77.08.04.38-.26.17.12-.04-.04-.14.1-.24.2l.18-.1c-.27.57-.23.11-.48.49.27-.07.74-.38.77-.15-.31.52-.4-.02-.54.54l-.07-.32c-.38.89-.08-.13-.51.81.15.31.45-.08.6.23.24-.24.26-.43.5-.67.68-.26-.58,1.45.12.96.29-.29.75-.9.7-.45l-.45.52c.2.22.69-.72.68-.17-.2.19-.32.06-.33.15-.15.56.33-.24.46-.15l-.32.52c.3.1.83-.07,1.18.03-.12.14-.28.26-.32.46.53,0,.71.58.82,1.12l.43-.33s-.08.23-.18.29c.01.26.2-.26.39-.39.1.02-.08.32-.22.41.49-.19,1.22-.29,1.13.34l-.14.09c.06.31.86-.7.74-.18l-.09.05c.27.48,1.02.43.83,1.31.52-.55.18.58.86-.23-.1.59-.28.68-.18,1.21.05.11.54-.41.71-.42l-.34.43.51-.34-.34.57.18-.03c-.02-.05.07-.26.18-.38.31-.07.13.6-.04.82l.66-.07c-.15.17-.26.17-.39.24.55-.28-.33.48.17.22.05-.11.22-.24.3-.33-.12.33.07.5.3.51l-.27.27c.2.3.67.33.96.59.01-.23.46-.7.59-.68l-.35.47c.29-.23.05-.24.45-.48.07.14-.36.57-.54.65l.26-.04c-.11.14-.2.18-.35.35.29-.23-.15.64.34.23l-.11.14c.29.26.55.21.81.4.34-.38.36-.21.7-.45.07.28,0,.74.23.9.31-.05.33-.28.59-.44-.3.35-.06.51-.39.65.3.17.38.22.94.23.1-.17.11-.26.23-.36.11,0,0,.26-.15.42l-.05.02c.82-.18-.1,1.71.83,1.27l-.05.02.63-.08c.07.18-.32.17-.42.47.83-.26.4.55,1,.42-.75,1.16.75.6.4,1.47l.21-.24c.29-.15-.05.21-.05.31.17-.18.13-.27.29-.35.85.29.81,1.51,1.17,2.29.14.27,1.31-1.01,1.02-.21l-.51.33c.94-.05.83.9,1.66.95-.12.07-.26.18-.29.14-.23.38.29.36.55.12.03.1-.22.23-.32.39-.11.26.62-.13.35.2-.04.05-.12.07-.17.07.21-.08.21.32.53-.07-.03.32.45.17.35.49.49-.28.05.46.67-.03-.62.52-.23.71.14.58-.21.12-.11.26-.4.43.11.11.32.13.61-.16-.55.85.98-.05.13.88.64.08,1.14.24,1.57.45-.63.5-.36-.32-1.01.24.51.1,1.2-.15,1.31.27-.02.15-.31.17-.44.23.52.1.43.66.99.67-.06.05-.15.07-.22.08.07.04.01.2.29-.03h-.12c.35-.41,1.05-.46,1.27-.62-.9.55.01.45-1.15,1.11.08,0,.26-.07.44-.23-.01.1-.11.2-.38.32.32.08.57-.23.7-.04-.14.11-.23.11-.4.22.35-.12.69-.24.69.01-.09.05-.19.16-.22.11.25.23,1.08-.11,1.05.39-.68.38-.12.25-.64.67l.28.04.21-.26c.1.15.57-.02.49.23l-.3.06.29.19.1-.3c.38-.06.67-.52.65-.22-.08,0,.1.15-.17.45.22-.05.45-.11.4.09-.15.15-.61.41-.71.51.5-.26.36.24.91-.02-.14.05-.42.26-.47.31l.41-.21c-.07.15-.12.2-.35.35.08.24.64-.56.51-.11-.04,0-.09.05-.17.05.02.35.57.29.54.63-.5.45-.27-.1-.68.3.33.24,1.13.18,1.2.58l.02-.1c.81-.49-.23.49.24.4-.08,0-.47.25-.38.2.02.3.48.3.95.45l-.23.1c-.1.24.12.4.11.6.23-.1.25,0,.51-.24-.88,1.18,1.17.38.42,1.39-.03-.04-.24,0-.23.04l.39.2c.33-.25.18-.18.41-.42.23-.09.45-.1.5-.02-.32,0-.56.36-.71.54.1-.08.23-.13.34-.21-.52.56.72-.42.45.08l-.19.1c.15.03.44-.05.45.08-.38.29-.24.02-.58.23.1.11.93-.22.6.15-.15.01-.2-.07-.35-.05-.39.42-.27.36-.28.51v-.02l-.07.35.1-.14c1.16-.49.4.21,1.23,0-.79.19-.4.2-.88.46-.1.14-.18.3-.33.36.43-.13-.18.35.45.17-.14.1.05.12-.33.32.2.07.24-.19.43-.29.64-.1-.33.86.55.74.44.09.98-.15,1.37-.06-.19.22-.59.25-.59.25-.14.26-.05.34.2.36-.15.05-.24.14-.39.27.1.08.59-.25.44.01-.18.07-.47.2-.67.25.21.04.55,0,.76.04-.24.18-.44.15-.64.21.2.07.44.22.89.02l.1-.17s-.35.23-.44.24c-.39.07.05-.25.2-.35l.15.03c.83-.6-.35-.27-.39-.48l.68-.3-.64.12c.14-.14.49-.37.64-.34.24-.31-.29.02,0-.3.05-.04.08-.05.11-.06h-.26c.15-.07.44-.3.39-.17.24-.44-.69-.08-.25-.45h.05c-.39-.18-.49.24-1.17.34l1.07-.85-.49.25s0-.12.19-.23c-.39.07-.19.14-.54.26.34-.41-.45-.3.27-.78-.39.16-.18.31-.53.3.77-.53-.25-.1.03-.46.44-.21.3.05.58-.31-.75.34-.02-.36-.22-.4-.55.33-.39-.11-.7-.19.19-.1.07-.55.15-.86l.1-.05c-.58.32-.59.06-.79,0,.33-.21.48-.26.67-.29l-.08-.12c-.2.08-.32.1-.43.06l.43-.23c-.13-.15-.7-.04-.57-.43-.39.24-.95.86-1.36.8.2-.14.55-.38.67-.38-.04,0-.22.04-.15-.05l.41-.14c.09-.2-.33.14-.35.04.3-.19.17-.2.41-.34.04,0-.08.15.06.1,0-.12.1-.35.3-.52-.16.12-.4.26-.48.22-.14-.15.32-.29.4-.49-.23.1-.09-.15-.54.14-.03-.05.17-.2.27-.29-.25.04-.33-.37-.73.04l-.02.04h-.03c-.63.01-.15-.76-.52-.91l.14-.1c-.28-.05-.35-.31-.74-.21-.04-.05.18-.3.38-.4-.2-.05-.36.04-.26-.3.35-.05.2-.2.27,0,.01-.25.21-.45-.31-.35.41-.2.38-.45.21-.45l-.18.3c-.12-.05-.14-.15-.17-.25l.52-.3c.35-.76-1.44.11-.64-.85-.4.15-.11.35-.55.56-.05-.2.52-.86.49-.91.11-.4-.85.32-.82-.04-.15.15-.58.52-.86.47-.05-.2.58-.72.79-.72.04.02,0,.08-.06.13.1,0,.22.02.36-.18l-.18.11c.12-.2-.05-.4.26-.57-.25,0-.32.16-.34.31.1-.38-.21-.32-.21-.64-.07.1-.24.28-.27.25-.02-.45-.42.11-.65-.02.17-.31.64-.43.27-.46.08-.26.43-.37.6-.42-.46.07-.05-.51-.07-.66h.21c-.12,0-.16-.05-.2-.1l-.29.32c.01-.1-.02-.15.12-.26-.26.11-.52.48-.91.6.11-.21-.36-.08.07-.46.03.35.42-.38.65-.23-.08,0-.12-.05-.1-.15.04-.05.1-.07.14-.07.22-.54-.58.29-.76.05.27-.17.43-.43.35-.42.07.1-.38.37-.64.43.08-.3-.27-.05-.31-.14l-.02.16c-.27.17-.3.07-.46.02.18-.16.21-.01.26-.11-.52.23.25-.62-.17-.55.11-.21.46-.38.52-.54-.46.08.18-.46-.24-.44-.29.32-.2.27-.63.4l.49.11-.64.2c.07.1.37.02.36.12-.35.13-.26.07-.49.33.39-.52-.49-.01-.28-.43l.82-.66c.18-.52-.74-.05-.77-.5l-.07.21c-.36.23-.19-.14-.4-.12.28-.21.33-.36.46-.54-.2.17-.15-.23-.71.2l.25-.42c-.05-.35-.98.39-1.08.09.35-.18.45-.45.79-.48-.06-.08-.07-.18-.25-.02.13-.18-.53.11-.33-.18-.14.07-.43.3-.48.2.05-.05.13-.11.13-.11-.13.11-.29.03-.52.35.64-.94-.6-.55-.06-1.37-.23-.08-.48-.19-.63-.31.09-.06.13-.12.13-.07.07-.41-.86.55-.79.09.32-.49.33-.09.43-.3.83-.81-.36-.16.01-.76h.08c.19-.39-.57,0-.68-.24,0,0,.08-.06.13-.12-.55.27-.91.17-1.2.11.38-.26.25-.08.56-.43-.12-.04-.52.53-.76.46.14-.22.18-.48.53-.83l.16.13c.39-.51-.2-.17-.19-.33l.21-.18c-.28-.16-.79.32-.99.04l-.13.17c-.63.35.18-.38-.32-.15l.47-.53c-.21.03-.78.17-1.02.11.46-.27.83-.28,1.16-.38-.08-.09-.32-.26-.61-.06.08-.01.25-.09.2.02-.5.28-.83.33-.98.15,1.01-.93-.18-.69.45-1.55-.66.06-.45-.74-.86-1.03-.62.88-.13-.08-.87.72-.13-.03-.15-.07-.11-.13l.21-.71c.16-.29.24-.1.41-.28-.12-.24.24-.4.33-.73-.24.3-.45.34-.45.13l-.2.51c-.65.17.42-.88-.23-.71l.32-.17c-.27.02-.48-.48-1.21.05.07-.11.24-.36.35-.36-.23-.39-1.35.03-1.23-.6l.2-.17c-.11,0-.44.27-.33,0,.08-.08.2-.17.18-.21-.1.04-.48.2-.45.01l.27-.16c-.08-.55-.97.1-1.35,0,.52-.58.45-1.01.4-1.21l.08-.08c-.32-.39-1.07-.06-1.61-.12.34-.83-.49-.89-.54-1.56-.04.15-.4.46-.51.47.02-.19-.57.23-.1-.32l.02.04c.39-.6.11-.6-.02-.72l-.62.71c.52-1.34-1.23-.34-.65-1.45-.23.12-.33.03-.57.15l.32-.39c-.15-.29-.23-.43-.6-.57l.28-.24c-.14-.16-1.11.98-1.27.89l.42-.63c-.29-.22-.19-.96-.89-.64.07-.08.21-.25.28-.24-.12-.12-.23-.8-.8.06.4-.54-.26-.28-.6-.15l.32-.38c-.51.41-.62.55-.91.55,0-.08.2-.35.18-.2,0-.32-.39.3-.41-.05l.26-.21c-.13-.14-.21,0-.52.24-.21.09-.21-.32.03-.7-.18.21-.48.45-.49.27.09-.15.18-.21.23-.24-.05-.46-.72.2-.61-.32.09-.14.12-.21.14-.26.2.15.35.29.31.31.27-.38.15-.55.65-.98-.33.19-1,.64-1.04.36.02-.04.04-.08.07-.14l.05-.03c-.01-.07-.07-.05-.14-.01,0-.1-.01-.17-.05-.21.2-.32-.07-.3-.15-.38-.28.42-.34.27-.48.68,0-.04.05-.04.12-.02.02,0,.04,0,.07-.02l-.03.03c.06.02.14.07.23.11-.21.16-.4.29-.33,0-.23.23-.46.47-.58.58.29-.65.29-1.11.5-1.49-.41.06-.7-.26-1.39.41-.14.05.07-.28.13-.42.1-.05.14,0,.23-.1-.28.1-.48-.21-.88.31-.02-.37.44-.43.13-.51l.15-.14c.08-1.2-1.73.89-1.55-.6,0,.1,0,.14-.06.24-.32-.9-1.58-.37-1.72-1.55-.08-.27-.32.08-.6.29l.24-.48-.51.42c-.5.23.21-1.41-.56-.87l-.14.34c-.08-.13-.49-.04-.26-.39-.05.05-.23.3-.18.11l.14-.24-.54.24c-.13-.32.6-.95.29-1.2-.18.02-.77.5-.82.69.04.04.04.23-.1.48l-.18.06c-.43.71-.94,1.4-.95,2.07l.45-.33-.14.39-.17-.07c-.1.38.12.12.3-.04-.09.2-.14.34-.14.43l.58-.58c-.14.3-.41.51-.38.74.27-.27.29-.68.55-.8-.1.38-.28.63-.01.42-.1.2-.18.3-.27.35.23-.17.3.05.58-.3-.14.46.39.09-.03.76.13-.14.48-.43.59-.4-.64.71.3.24-.27,1.08.55-.65.62-.07,1.08-.35-.05.05-.14.15-.14.11.08.13-.02.36-.03.55.38-.58.65-.61.97-.91-.21.67-.52.64-.82,1.22.29-.49.54-.32.74-.76-.11.42-.01.23-.27.76.48-.73.18-.06.55-.46-.07.46-.4.72-.08.6-.07.28-.38.44-.38.44l.03.04Zm4.87,1.44h0s-.08-.02-.1-.03c.02,0,.05.01.11.02h0Zm.34.23s-.08-.08-.14-.12c.09-.15.2-.29.23-.26-.08.08-.07.22-.1.38h0Zm1.28-3.35c.1-.02.06.07,0,.16-.03-.01-.07-.02-.13-.02-.01.01-.03.03-.04.05.06-.08.12-.14.17-.19Z"/></g></svg>