<?xml version="1.0" encoding="UTF-8"?><svg id="Layer_2" xmlns="http://www.w3.org/2000/svg" viewBox="0 0 232.48 393.92"><defs><style>.cls-1{fill:#fff;}.cls-2{fill:#a7dff1;}.cls-3{fill:#4eb6ce;}</style></defs><g id="shapes"><path class="cls-1" d="m43.11,6.44C5.97,22.41-2.87,92.35.74,131.71c.51,27.58,5.56,54.44,23.1,76.11,17.54,21.67,111.08,75.37,165.19,59.75,54.11-15.62,53.04-139.04,10.85-202.26C157.69,2.09,80.25-9.53,43.11,6.44Z"/><path class="cls-3" d="m117.36,361.73c.04-1.46-.63-.7-1.01-1.02-.16-1.76.51-.8.86-1.39-.14-1.1-.72-1.95-.66-2.77.11-.06.16-.21.29-.02-.5-1.18.11-3.44-.48-4.82.07-.1.12-.15.17-.17-.34.2-.68.22-.91.17.02-.66-.36-1.25.08-1.48-.03.4.14.44.27.64l-.16-.7c.65-.59.17.95.63.98-.15-1.36-.55-2.96-.32-3.98.62-.18.06,2.42.68,1.08l-.33,1.58c1.03-1.17-.12.96.97-.1.31-2.08-.17-2.36.14-4.44-.31-.49-.51.12-.81-.37-.39-3.02,1.7-2.23,1.05-4.47-.35-.6-1.1-.88-.56-2.4l.64.59c.25-2.02-.89-1.24-.23-3.32.23.4.08,1.61.19,1.32.66-1.33-.31-1.01-.2-2.07l.63-.16c.06-1.08.04-2.23.02-3.4,0-1.17,0-2.38.08-3.58.17.15.31.58.56.05.05-3.04.87-6.4,1.65-9.23l-.36-1.18c.04-.26.31-.44.36-.15.08-.23.11-.37.1-.44l-4.64.12c.08.2.2-.01.35-.07l3.95-.11s-.04,0-.05,0l-3.84.1c.06-.01.13.02.2.12.18.64-.1.92-.35.54.46.97,1.01,2.35,1.49,3.76.53,1.39.93,2.82.97,3.94-.1-.12-.18-.24-.27-.36.32,1.68,1.64,1.47,1.67,3.1l-.18-.26c.12.44.26.88.4,1.33.16.44.33.87.5,1.31.35.87.69,1.74,1.02,2.58.7,1.67,1.3,3.26,1.5,4.69.91.17,1.21,3.41,2.26,3.17.43,2.08,0,1.63.96,4.41.3.72,1.11.75,1.64,1.55l-.48.27,1.11.91-.28.91.53.74c-.13-.33-.12-.79.04-.81.86,1.14,1.21,3.22.97,3.37l1.91,2.74c-.23.04-.55-.43-.87-.75,1.3,1.32-.38.55.82,1.75.01-.25.35-.04.47-.06.07.87.87,2.51,1.6,3.65l-.46-.07c.99,2.23,2.41,4.53,3.51,7.02-.24-.96.45-1.03.84-.32l-.4.53c.54.33-.14-.85.7-.06.36.96-.33.89-.74.43.23.35.47.69.69,1.05-.13.14-.33-.1-.56-.08.53.32.27,2.18,1.13,2.61l-.13.13c.26.62.49,1.16.69,1.64.1.24.2.47.29.69.02.04.02.05.02.04h0l.02.02.03.03c.08.08.21.23.29.42.69.43.6.52,1.31,1.32,0,.12-.04.2-.08.26-.01.01-.02.02-.04.04-.02,0,0,.05-.08-.02-.11-.09-.23-.18-.35-.27-.44-.34-.72-.58-.94-.66-.1.1-.11.2-.07.34.03.14.12.31.02.43-.09-.3-.31-.52-.43-.67-.13-.16-.15-.25-.02-.37-.07-.02-.14-.05-.2-.07-.03-.01-.06-.02-.09-.03-.1-.04-.2-.09-.3-.13-.41-.18-.78-.34-1.18-.49-.79-.31-1.67-.62-3.12-1.11.21.31.51.54.27.6-.53-.17-1.05-.71-.88-.88l.15.02c-3.37-.85-6.55-4.56-9.43-4.85l.16.02-2.77-.74c-1.14-.62.85.02.1-.64-3.08-.58-4.32-2.11-6.81-2.68-1.2-2.03-6.31-2.74-8.35-4.58v.35c-.74.01-.66-.5-1.09-.76-.04.26.56.56.1.55-5.39-1.97-10.65-5.16-15.95-7.71-.12-.06-.23-.1-.34-.14-.05-.02-.11-.03-.16-.05v.02s-.07.08-.11.14c-.1.11-.25.24-.42.35-.17.11-.36.18-.53.17-.16,0-.32-.11-.24-.28.36-.06.68-.14.94-.24-.35.06-.75-.02-1.06-.11-.32-.09-.54-.2-.73-.29.23-.04.47-.07.6-.12.15-.06.22-.14.31-.3.12.12.39.24.32.25.44.14.48.13.5.04,0-.1.04-.29-.04-.46.21,0,.2.28.33.44.02.03.04.04.06.04h.02l.1-.02.19-.05c.25-.08.5-.19.75-.29.48-.21.91-.38,1.19-.21.09.05-.22.18-.38.24.54-.31,2.69-.44,2.05-.82,1.61-.05,2.95-.77,4.26-.7.71-.69,2.73-.23,2.85-1.04.04.81,2.86.14,3.78-.42-.29.3.91.09.58.49,1.13-.22,2.13-.55,1.86-.92,2.26.56,4.04-1.53,5.44-.53,3.28-1.04,6.33-1.9,9.31-2.63.04.81-3.32.69-3.04,1.49,2.8-.85,4.33-1.82,7.2-2.16.75-.03-.35.42-.58.6,2.8-.85,5.55-.94,8.01-1.84,0,.08-.25.21-.5.31.5-.12,1.19-.1,1.06-.44l-.47.18c-.9-.37,1.79-1.45,1.83-1.74-.66,1.18,2.56-.2,1.45,1.35.32-.13.7-.37.58-.6.5-.02.69.1.24.46,1.76-.52,1.05-.79,2.68-1.08.02.18-.29.3-.42.54.76-.49,1.52-.98,2.93-1.08-.07.12.12.23-.29.3,2.35-.48,3.86-1.63,6.51-1.78-.31.45-.08.47.26.46.17,0,.37-.02.54,0,.11.01.11.05.15.09.03.05.05.11.07.19.15-.1.34-.2.56-.3-.04-.1-.09-.2-.17-.3.31-.05.67-.24,1.07-.4.4-.17.85-.31,1.03-.24-.31.15-.59.3-.84.43l1.42-.39c-.09-.07-.21-.13-.38-.18.64-.29,1-.57,1.23-.76.24-.19.44-.31.99-.31-.28.1.29-.02.58.03.15.02.21.1.03.26h0c.96-.38,2.22-.84,2.46-.72-.25.15-.91.46-1.52.75-.62.29-1.19.56-1.38.67,1.06-.47,1.67-.63,2.32-.79.65-.17,1.33-.34,2.97-.94-.83.29-2.37.93-2.64,1.05l2.39-.89s-.04.03-.06.05c0,0-.12.05-.16.08-.74.34-1.14.51-2.18.91-.6.33.38-.06,1.2-.39.84-.34,1.47-.58.04.11-.05,0-.37.12-.47.11-.99.51-1.24.73-1.6,1.02-.35.27-.78.66-1.64,1.08-1.97.53.42-.46-1.45.12-.1.08-.17.17-.25.25-.2.26-.42.58-.85,1.05-.21.23-.47.48-.77.73-.15.12-.31.24-.47.36l-.26.18-.36.23.44-.23c.13.49-.34.67-.95.88-.6.22-1.33.47-1.73,1.05.22-.25.03-.67.02-.54-1.54.98-2.85,2.4-4.79,4.37l.11-.4c-.97.51-2.29,1.65-3.23,2.33-.1.41-.63.8-.1.81-1.8.63-2.99,1.87-4.05,3.15-1.06,1.28-2.1,2.49-3.62,3.19.27-.27.5-.78.28-.57l-1.78,2.03c.44.14.43-.07,1.06-.23-.07.41-.48,1.07-.96,1.53.67-1.03-.48-.46-1.02-.26.16.03.13.25.24.31-1.52.47.43.75-1.27,1.77l-.08-.23c-.42.59-.67,1.26-1.25,1.77-.57-.1.37-.7.12-1.01-.74.8-.84,2.14-1.84,2.55.21-.43.66-.92.88-1.33-1.16.38-1.12.59-1.73,1.11l.06-.05-1.43,1.19.43-.24c.01,1.83-1.71,2.19-2.27,4.12.57-1.85-.15-.52-.47-.96-.42.25-1.01.69-1,.44-.23.94-1.21.88-1.51,2.21-.17-.07-.6.71-.81.29-.6.96.41-.02.51.2-.31.86-1.09,1.54-1.91,2.32-.41.39-.83.8-1.2,1.27-.36.48-.68,1.01-.89,1.64-.51.96-.71,1.61-.9,2.23-.19.62-.37,1.23-.81,2.13-.62.38-.2-.82-.2-.82-.84.73-1.27,1.43-1.69,2.38,0-.26-.23-.15-.58-.01-.43.7.2.8-.62,1.55-.06-.26-.18-.63-.12-1.07-.42.88-.66,1.87-1.09,2.79-.4.05-.05-.76-.02-1.16-.51,1.02-1.38,2.59-1.17,3.13l.54-.51c-.2.36-.47-.05-.37-.34.21-1.01.91-1.07,1.08-1.02l-.3.65c1.27-.04,1.41-2.49,2.31-3.62l.27.91.33-1.55c.34-.15.81-.08.49.56.89-.63.31-.89,1.15-1.38.11-.04.11.01.08.11l.39-.94c.01.25.53.17.08.6,1.37-1.21,1.27-2.64,2.12-2.86l-.05.15c1.3-2.13-.29-.52.32-2.39.61-.07,1.22-.13,1.84-.18l-.28-.52c.18-.19.53-.56.64-.35.31-.97-.29-.02-.22-.67,1.17-.65,1.95-2.81,2.81-2.46-.04-.6-1.02.7-.38-.49.97.31.87-1.26,1.94-1.84.14.57-.75,1.22.32.64-.17-1.04,1.54-1.56,2.08-2.35-.46-.46,1.19-1.71,2.1-3.03.07.2,2.34-1.92,3.54-2.83l.05.11c-.27-.66.89-1.68,1.6-2.54.24.31.21.56-.1,1.1l.75-.73c.03-.32.19-.63.62-1.15l.16.53c.49-.49.89-1.08,1.36-1.68.47-.59,1.04-1.16,1.81-1.65-.23-.4-1.93.04-.72-1.48.22.14.56.4.26.81.1-.13.29-.55.6-.69l-.28.82c.73-.41.08-.54.59-.95.23.27.53-.14.65.13-.1.14-.52.28-.61.55.58-.45,1.39-.89,1.78-.89-.18-.1-.32-.36.06-.74,1.05-.92.65,0,1.38-.38.1-.4.94-.79.61-1.2.31-.26.53-.12.74-.12.2-.32.82-.89,1.29-1.34.47-.45.76-.81.27-.78l-.17.09s.05-.05.08-.09c.76-.94,1.77-1.66,2.8-2.34,1.03-.68,2.12-1.28,2.98-2.08l.1.14c.5-.5,1.11-1,1.66-1.48.57-.47,1.05-.89,1.44-1.4.2-.14.49-.25.76-.31.26-.06.5-.07.51.07.52-.45.75-.7,1.09-.98.36-.27.78-.56,1.94-1.14-.74.85.91-.29-.93.89.93-.55,1.68-.9,2.34-1.27.63-.37,1.18-.78,1.5-1.26.26.11.95-.17,1.73-.57.29-.27.39-.58.33-.72-.33.24-.71.49-1.11.72.13-.38.51-.78.84-1.16.32-.05.67-.09,1.04-.13.09-.08.15-.19.22-.25.07-.05.13-.11.17-.15.1-.1.15-.18.2-.26.08-.16.1-.29.12-.43.04-.26.23-.55.56-.87l.02-.02s-.02,0-.03,0h-.07s-.14-.04-.14-.04c-.09-.02-.17-.03-.25-.05-.15-.05-.26-.11-.29-.24-.34.03-.21.13-.02.19.17.07.41.1.08.15-.44-.01-.73-.12-.8-.33-.08-.2.02-.46-.06-.5-.11-.29-.49-.25-1.05-.07-.54.17-1.25.45-1.71.43-.22.04-.45.08-.69.1-.05.23-1.15,1-3.06,1.55-.65.08-.79-.12-.66-.38.14-.26.62-.6,1.36-.82.49-.11.61-.06.47.04.72-.21,1.75-.49,1.37-.65l-.63.33c-.59-.11-3.51.44-2.47-.1-1.85.54-.97.53,0,.46-1.12.05-2.19.24-3.23.44-.52.1-1.05.2-1.61.3-.28.05-.57.09-.88.14-.18.02-.27.04-.37.05-.1,0-.21.02-.32.02.29.07.59.26.32.31-2.56.2-1.03.6-2.73,1-1.03-.14.21-.82-1.46-.24-1.09-.02-.32-.51.06-.75-1.49.69-2.98.27-3.88.36l.79-.32c-.47.19-.88.26-1.29.33l.55.33c-.5.02-.91.09-.93-.08-.45.36.51.62-.41,1.17-.69-.09-1.93.59-2.25.08,2.06-.18-.33-.51,1.37-.91-.32.12-.72.2-1.22.21-.08-.05.05-.12.17-.18-2.03-.14-.78.79-2.79,1.14.2-.36-.57-.5-.89-.38.81-.14.49.44-.21.82-1.33,0-1.37.44-2.05.53l.79-.03c-.2.35-.85.43-1.74.7-.12-.22.79-.31.45-.36-.9.73-2.36-.15-3.69.47-.69-.09-.17-.57-.76-.61-1.49.69-1.77-.12-3.35.52.55.33.61.21-.47.83l2.64-.79-1.62.92c.81-.14,1.67-.57,2.17-.59-.76.49-.69.37-.24.65-1.23-.42-2.14.77-3.51.58l-.16-1.04c-2.02-.11-3.34,1.16-5.9,1.36l.84.03c-.26.47-1.54.34-2.33.66.01-.36-.52-.39-.91-.54.09.25-1.85.31-1.94,1.04l-1.21-.25c-2.06.18-2.13,1.4-4.11,1.65.52-.48-.41-.56.84-1.07-.65.12-1.25.16-1.21.4-.42-.15-1.72.79-2.38.58-.25.2-.27.58-1,.69-.1-.05-.03-.17-.03-.17.03.17-1.1.45-.4.71-2.21-.71-5.59,1.1-7.51.5-1.4.37-3.09.8-4.38,1.06.07-.12-.03-.17.22-.18-.92,0-1.15.3-1.4.6-.25.3-.55.6-1.83.65-.81-.14-.56-.26-.14-.37.41-.11.91-.19.42-.21-.44-.5-1.45-.28-2.49.01-.53.15-1.06.31-1.63.43-.58.12-1.21.19-2.04.17l.4-.14c-1.16.01-2.06.29-2.82.58-.79.3-1.42.6-2.77.8,0,0-.2-.07-.53-.08.03.15-.12.29-.26.44,2.63.76,4.78,1.49,6.42,2.04-1.6-.17-1.46-.34-2.13-.13.57.2.91.14,1.39.14.48-.01,1.08.02,1.98.33,0,.27.9.88.44,1.22l-1.95-.79c-.1.31.63.61,1.38.84.77.24,1.56.43,2.01.68l-.42.12c.82.32,1.47.52,2,.66.27.07.51.12.74.17.22.05.46.1.58.1.59.05,1.2.14,2.25.61l-.14-.28c1.44-.14.82.77,2.18.79l.07.79c.83.17,2.95.52,4.38,1-.99.14-2.7-.31-3.82-.45.76.33,2.6,1.05,3.13.91-.33-.07-.79-.08-1.05-.31,1.15-.11,2.49.18,3.99.85-.82,1.12,3.79,2.03,4.45,3.48,2.87.72,5.19,2.54,8.31,3.85-.65-1.46.91.38,1.18-.69.75.26,1.02.4,1.05.5l1.91,1.58c.38.52-.78-.09-.82.16,1.54.79.47.72,1.38,1.46-.05-.45.78-.26,1.61.29l-1.05-1.03c2.44.48,1.51,1.69,3.96,2.2h-.84c1.22.33,4.18,1.92,5.66,1.66.14.21.28.6-.25.44,2.65,1.38,6.41,1.99,8.27,3.48l-.32.14c.54.17,1.09-.03,1.61.51-.08.08-.32.14-.1.27.3.04,1.54.22,2.13.68h-.7c.16.1.3.18.46.27.08.04.15.08.22.12.12.07.25.12.38.19.53.26,1.03.49,1.51.68.95.4,1.81.71,2.53.91,1.47.42,2.5.56,3.92,1.14.27.34.69.72,1.23,1.12.27.2.57.41.88.62l.12.08s.1.07.08.03v-.12c0-.09-.01-.18-.02-.29-.09-.84-.42-2.19-.66-3.1l.18.19c-.93-2.97-1.9-5.55-3.04-7.83-.69-1.29-1.49-2.45-2.24-3.86.05-2.16-2.38-6.22-3.32-9.25.08.5-.59.19-.91-.27-.18-.73-1.4-1.58-.69-1.79l.11.24c.39-.81-.45-2.08-.97-3.14l-.93.25c-.16-3.36-4.11-6.95-3.74-8.99-.54-.56-.96-1.37-1.48-1.92l.47-.18c-.76-1.89-1.18-2.82-2.34-5.05l.54.31c-.56-1.29-2.09-1.01-2.65-2.2l.54-.66c-.49-1.13-.84-2.33-1.24-3.49-.38-1.17-.83-2.31-1.59-3.32.12,0,.35,0,.53.35-.41-1.08-.98-4.35-1.84-3.63.6-.23-.68-2.42-1.34-3.61l.54.07c-.47-.45-.74-.67-.98-.97-.22-.3-.39-.66-.66-1.4-.02-.38.32-.41.31.1-.02-1.26-.68-.83-.77-2.35l.44.47c-.09-.43-.16-.7-.24-.87l-2.77.07c.01.41.15.55.32,1.05.08.83-.47,2.41-.94,2.54.25.21.51.96.28,1.7-.18.08-.25-.21-.29-.36-.62,2.11.17,3.26-.51,4.68-.17.01-.26.09-.33.21.23-1.71.44-3.08.45-2.94-.45-.06-.72,1.32-1.21.14.2,1.15.7,3.14.35,4.46-.05.06-.1.12-.18.16l-.04-.15c-.08.31-.07.59-.02.86-.13.42-.21.69-.26,1.1-.4.12-.38,1.56-.47,2.26.51,0,.33.89.84.08-.05.11-.05-.14-.02-.6,0-.11,0-.23-.02-.3.01.01.02.04.04.05.03-.46.09-1.04.16-1.72.2.58.33,1.16-.02,1.9.29.39.58.81.71,1.04-.79.87-1.36,2.65-1.81,2.87.1,2.14-.27,4.99.59,6.39.08.61-.32.67-.49.88-.07-.36-.02-.76-.14-.96.15,1.22-.17,3.56.47,3.89-.39,1.49-.56-.89-.57,1.2l-.18-.3c-1.3,4.04,1.3,6.73-.21,11.21.1-.31.14-.47.25-.53-.79,5.16.31,10.66-.59,15.77-.18,1.46.24,1.61.58,2.49l-.53.33.66,1.51c.49,2.13-1.23,3.76-.27,6.45l.35-.36c-.05.98.35,3.08-.08,2.93.07.1.4.3.22.69l-.28.04.6,2.37c-.09,1.87-1.14-.23-1.03,2.49.17,1,1,2.82,1.17,2.43-.01-.41.11-1.05.39-1.1l.2.91c.84.11,1.74.75,2.18-1.53l-.6-1.53.37-.53.11,1.32c.33-.77-.03-1.22-.29-1.74.21-.14.35-.37.41-.68l-.87-1.49c.32-.2.68.66.81-.38-.41-.7-.7.73-1-.46.34-.77.66-.56.3-1.43.21-.13.35.05.47.39-.3-.77-.21-2.06-.66-2.45.44-.8-.21-2.64.58-2.59-.2-.24-.68-1.36-.72-2.08.97,1.29,0-2.69,1.02-2.36-.89-.95-.43-3.5-.92-5.22.07.1.21.28.16.44.07-.97.32-1.25.47-1.87-.7-.12-.86-1.63-1.28-2.45.69-1.18.82.73,1.48.36-.57.06-.56-2.07-1.03-1.67.42-.91.2-.78.8-1.24-.87-.17-.13-.85-.66-1.61.46-1.31.83-.32.59-1.77.28-.68.57.61.57.61l-.05.02Zm.85-34.33h.01c-.02.3-.04.55-.05.71,0-.15.02-.36.04-.71Zm.34-2.87c-.07.34-.13.78-.18,1.24-.18.08-.35-.05-.31-.34.1.17.28-.49.49-.9h0Zm-4.19,5.7c-.02-.47.1-.61.21-.66-.02.22-.03.47-.03.81.02.02.04.05.05.06-.09-.05-.17-.11-.23-.21h0Z"/><path class="cls-2" d="m205.85,268.43c-.74-1.28-.91-.28-1.4-.36-1.06-1.44.01-.95,0-1.63-.72-.86-1.65-1.31-2.03-2.05.07-.11.02-.27.23-.17-1.03-.77-1.71-3.02-2.92-3.93,0-.12.03-.19.06-.23-.19.35-.47.53-.71.6-.32-.59-.95-.91-.68-1.33.18.37.35.32.56.43l-.5-.53c.26-.84.64.74,1.05.54-.82-1.11-2-2.29-2.31-3.31.45-.46,1.27,2.1,1.14.61.17.51.34,1.04.53,1.54.28-1.52.39.89.78-.57-.81-1.96-1.34-1.98-2.13-3.94-.52-.28-.38.35-.9.08-1.85-2.47.37-2.79-1.31-4.44-.6-.36-1.4-.24-1.67-1.85l.85.21c-.77-1.9-1.4-.67-1.83-2.83.39.25.86,1.39.81,1.08-.07-1.48-.75-.75-1.17-1.74l.48-.44c-.47-.99-1.05-1.99-1.61-3.04-.56-1.05-1.14-2.12-1.63-3.23.22.06.55.38.51-.21-.69-1.37-1.23-2.91-1.7-4.46-.32-.96-.58-1.79-1.49-3.07-.82-1.14-1.95-1.99-3.19-2.26-.65.08-1.27.32-1.78.7-.38.12-.78.09-.4-.22-.45.15-.65.29-.74.38-.08.09-.04.12.03.16.14.07.38.12.1.46-.37.32-.62.53-.77.55-.15.02-.18-.14,0-.47-.26.35-.51.8-.74,1.27-.06.12-.11.24-.17.36-.05.11-.13.26-.15.31-.07.15-.13.31-.2.46-.27.63-.59,1.3-.93,1.95-.69,1.31-1.46,2.58-2.27,3.36l.08-.44c-1.06,1.33-.07,2.17-1.29,3.27l.07-.3c-2.07,3.03-3.69,6.75-5.74,8.8.39.82-2.07,3-1.25,3.71-1.46,1.59-1.36.96-3.05,3.39-.41.67.03,1.34-.33,2.25l-.5-.23-.11,1.43-.91.32-.29.88c.2-.31.57-.57.69-.45-.43,1.37-1.94,2.9-2.21,2.81l-1.1,3.21c-.17-.17.02-.71.1-1.17-.3,1.85-.67.04-.95,1.73.21-.14.24.25.32.33-.66.59-1.49,2.27-1.97,3.57l-.23-.4c-1.18,2.21-2.13,4.82-3.31,7.37.59-.84,1.09-.36.8.41l-.67.06c.1.63.56-.69.5.48-.5.92-.9.37-.82-.26l-.35,1.24c-.19,0-.15-.31-.32-.47.11.62-1.44,1.77-1.18,2.71h-.18c-1.17,2.55-1.46,3.8-2.36,5.9.44.24,0,1.01.1,1.8l-.16.28c-.05.1-.1.16-.18.34-.16.31-.32.62-.49.94-.34.64-.69,1.33-1.05,2.06-.72,1.44-1.49,3.1-2.12,4.69-.26.98-.14.96.04.8.19-.16.44-.45.51-.24-.42.41-.91,1.35-1.31,2.1-.05.1-.1.18-.14.27-.02.04-.05.08-.07.12l-.03.06s.01,0,.01,0c.07,0,.1,0,.09.04-.01.03-.07.09-.2.18-.06.04-.14.09-.25.16-.02.02-.05.03-.08.05-.01,0,0-.02,0-.03v-.09l-.07.17s0,.02.02,0l.05-.02.09-.04c.12-.05.23-.11.35-.16.23-.11.44-.21.65-.3.42-.2.81-.37,1.17-.54.74-.35,1.4-.67,2.09-1,1.37-.67,2.93-1.47,5.17-2.67-.49.01-.97.14-.69-.15.37-.21.78-.34,1.11-.39.33-.05.58-.04.55.1l-.2.14c.31-.18.62-.35.92-.52.23-.13.41-.22.62-.32.41-.2.85-.37,1.3-.53.9-.32,1.85-.57,2.79-.82,1.86-.5,3.63-1,4.68-1.99l-.12.11,2.4-1.61c1.23-.46-.57.63.42.49,2.49-1.94,4.48-1.88,6.58-3.37,2.34.43,6.3-2.92,9.08-3.21l-.27-.23c.5-.56.83-.17,1.32-.31-.17-.2-.8.04-.48-.28,5.13-2.7,11.1-4.45,16.63-6.6,2.01-.8.45-1.99,3.26-2.42l-.47.85c3.71-2.43,8.19-3.63,11.85-5.92-.18.22-.11.39-.5.56,1,.02,3.07-1.34,2.93-1.67.05-.02.1-.04.14-.05.05-.02.1-.04.14-.05.08-.02.15-.04.2-.04.1,0,.14.02.17.06.06.08.07.2.47.12.85-.24,1.76-.8,2.49-1.25.74-.46,1.33-.82,2.04-.9.24-.03-.23.25-.47.4.7-.54,4.8-2.09,2.87-1.76,1.52-.55,2.66-1.12,3.68-1.62,1.03-.51,1.94-.96,3.45-1.48-.1-.07.01-.18.26-.32-.97-.08-1.64-.25-2.4-.37-.76-.12-1.56-.18-2.59,0,2.53-.46-3.46-1.14-5.61-1.07.46-.06.18-.16-.1-.27-.27-.11-.55-.24.02-.33-1.09-.15-2.16-.26-2.93-.28-.76-.02-1.21.07-1.15.28-.38-.18-.81-.31-1.26-.42-.22-.05-.47-.11-.67-.14-.13-.03-.26-.05-.39-.07-.52-.07-1.03-.05-1.52-.04-.97.02-1.82.03-2.34-.66-3.48-.05-6.69-.21-9.79-.46.23-.77,3.41.4,3.4-.45-2.96-.08-4.74.36-7.61-.24-.74-.21.47-.28.75-.38-2.96-.08-5.63-.87-8.28-.81.02-.07.31-.11.58-.14-.51-.05-1.17-.28-1.17.08l.51-.03c.74.64-2.19.8-2.32,1.07,1.02-.91-2.53-.62-.96-1.73-.35.02-.79.13-.75.39-.49-.14-.63-.3-.08-.51-1.86-.07-1.27.41-2.92.17.03-.17.38-.2.58-.37-.89.22-1.78.44-3.16.09.1-.09-.04-.25.38-.19-2.41-.29-4.24.32-6.83-.38.89-.65-.86-.38-.91-1.05h-1.45l.53.4c-1.24-.19-2.41.14-3.45-.23l.96-.14-2.35-.21,1.29.44c-1.31.16.02.85-1.61.43.35-.02-1.24-.18-1.83-.66-.65.12-1.31.25-2.21-.04-.21-.24.3-.7.16-.86-.69.46-2.92-.27-3.78.19.27-.1.35-.44.27-.52l-.57.37c-.55-.23-.62-.31-.48-.57-1.7-.37.41.92-1.57.22.17,0,.1-.09.45-.1-2.01-.53-3.99-.44-5.79-1.09-.39-.77,1.64.21,1.15-.49-2.59-.44-5.49-.59-7.87-1.59l-.75,1.66c.07.04.13.08.19.11l-.18-.13.73-1.63.24.13c-.11.12-.23.18-.36.18l-.45,1.02c.66.07,1.4,1.49,2.57,1.68-.33-.09-.63.27-.5.21,1.55.96,3.41,1.52,6,2.56l-.42.05c.84.7,2.43,1.46,3.4,2.11.42-.05.98.31.8-.19,2.45,2.93,6.34,2.68,8.51,5.28-.33-.19-.89-.27-.63-.12l2.45,1.17c.02-.46-.18-.39-.51-.95.42-.04,1.18.18,1.76.53-1.19-.38-.33.57,0,1.04-.01-.15.21-.18.24-.31.84,1.35.63-.59,2.04.82l-.2.13c.68.27,1.4.37,2.04.83.03.57-.78-.21-1.02.1.95.54,2.32.36,2.92,1.27-.47-.13-1.04-.47-1.51-.6.63,1.04.81.98,1.45,1.47l-.06-.05,1.44,1.18-.32-.38c1.82-.33,2.49,1.27,4.49,1.57-1.93-.31-.49.21-.9.6.32.38.83.9.57.92.97.1,1.04,1.07,2.43,1.19-.05.17.77.52.37.77,1.02.5-.06-.4.14-.53,1.79.46,3.05,2.82,5.59,3.54,2,.92,2.65.67,4.49,1.56.41.61-.82.21-.82.21.76.83,1.47,1.24,2.43,1.67-.26,0-.15.23,0,.57.71.43.82-.2,1.57.63-.27.05-.65.17-1.08.1.89.43,1.88.7,2.79,1.16.04.4-.76.02-1.17-.02,1.01.54,2.56,1.47,3.13,1.28l-.5-.56c.35.22-.07.46-.36.35-1.02-.25-1.05-.94-.99-1.12l.65.32c0-1.26-2.46-1.53-3.62-2.4l.93-.26-1.58-.34c-.15-.34-.09-.8.56-.48-.65-.89-.91-.31-1.42-1.14-.05-.11.01-.11.1-.08l-.97-.39c.25-.02.16-.53.62-.09-1.27-1.38-2.75-1.19-3.01-2.04l.15.05c-2.25-1.2-.51.31-2.45-.21l-.32-1.82-.51.31c-.21-.16-.62-.47-.42-.6-1.02-.22,0,.29-.66.27-.78-1.09-3.03-1.7-2.8-2.57-.61.11.84.91-.45.43.19-.99-1.4-.7-2.13-1.68.56-.21,1.34.59.6-.4-1.02.31-1.8-1.34-2.71-1.72-.39.53-1.93-.89-3.44-1.55.2-.12-2.43-1.9-3.62-2.86l.1-.07c-.59.41-1.87-.5-2.92-.96.24-.31.5-.34,1.12-.18l-.93-.54c-.33.05-.67-.02-1.31-.3l.48-.28c-1.25-.69-2.77-.95-4.2-2.13-.32.34.63,1.82-1.21,1.12.06-.25.21-.65.7-.49-.16-.05-.62-.11-.85-.37l.88.02c-.63-.57-.55.08-1.11-.28.19-.3-.3-.46-.08-.66.17.05.44.41.72.42-.62-.43-1.31-1.06-1.44-1.43-.04.21-.23.41-.74.18-1.26-.67-.22-.6-.85-1.17-.42.05-1.09-.62-1.38-.17-.36-.21-.31-.46-.38-.66-.76-.15-3.06-1.59-2.6-.7l.15.12s-.07-.02-.12-.04c-2.37-.7-4.28-2.63-6.51-3.54l.08-.15c-1.06-.37-2.22-.99-3.19-1.3l-.51,1.14c.3.06.57.09.81.09.4.15.85.63.61.77,1.1.23,1.27.08,2.73.79-1.16-.01.29.38-1.16-.11,1.34.56,1.6.91,3.22.83-.63.31.93.81,1.63.82l-.91-.54c.76.11,1.42.3,2.08.47l-.49.5c2.78,1.31,5.45-.24,7.46,1.28.83-.29-1.53-.53-.77-.9,1.32.28,2.58,1.32,2.99,1.38,1.78.58,1.82-.62,3.69-.12-.21-.24-.36-.83,1.09-.83,1.31.27,1.51,1.11.64,1.15-.32-.03-.47-.11-.44-.18-.44.02-1.02.02-.52.33l.2-.18c.63.31,2.46.54,1.98.82,1.03-.06.48-.28-.25-.5,1.66.54,2.65.38,4.38.83-.26-.15-.48-.44-.2-.4,2.53.62,1.19-.24,2.94-.08.94.46-.47.71,1.33.69,1.04.37.15.59-.3.7,1.65-.18,2.94.69,3.84.89l-.87.05c.52-.03.93.03,1.35.1l-.42-.49c.49.14.9.2.87.37.55-.2-.29-.75.77-.98.63.31,2.04.05,2.18.64-2.04-.48.15.59-1.61.43.35-.02.76.04,1.24.18.07.07-.08.11-.23.12,1.91.78,1-.5,3.05-.2-.3.27.39.66.74.64-.82-.12-.32-.57.47-.71,1.28.43,1.46.02,2.14.15l-.77-.23c.31-.27.96-.14,1.9-.11.04.25-.85.05-.54.2,1.1-.4,2.22.89,3.69.72.63.3-.02.6.54.82,1.65-.18,1.66.67,3.38.57-.43-.49-.52-.4.72-.64l-2.79-.09,1.85-.36c-.83-.12-1.79.02-2.28-.12.89-.22.79-.13.44-.53,1.05.79,2.31-.05,3.56.56l-.19,1.04c1.91.74,3.59-.04,6.11.59l-.8-.3c.4-.37,1.59.17,2.44.12-.12.34.37.53.7.8,0-.27,1.87.29,2.2-.37l1.08.62c1.02.24,1.65.08,2.26-.1.31-.09.62-.18.97-.22.09-.01.18-.02.28-.02.08,0,.17,0,.26,0,.15,0,.31.02.48.06-.56.31-.04.63-.93.78.08.01.15.02.23.04.03,0,.06.01.09.02.06.01.11.02.16.02.1,0,.18-.04.24-.15.03.11.29.03.63-.02.33-.06.76-.09.69.07.35-.11.96-.39,1.43-.3-.07.06-.3.13-.3.13.15-.07.44-.08.76-.12.3-.04.66-.11.76-.29-.13.32.07.47.52.57.44.1,1.17.15,1.78.23-.59.28-1.43.61-2.78.81-.39.3-1.18.77-1.92,1.14-.08-.08-.22-.1-.04-.14-.67.12-.51.33-.51.6,0,.27-.07.57-1.04.8-.6-.04-.38-.23-.1-.39.07-.04.14-.08.21-.11.04-.02.08-.05.11-.07.05-.04.04-.06-.08-.07-.1-.11-.14-.21-.26-.24-.11-.03-.24-.03-.38,0-.27.07-.57.24-.9.44-.66.4-1.42.92-2.2.9l.28-.2c-1.14.08-2.21,1.46-3.84,2.1,0,0,.04-.13-.07-.17-.85,1.02-2.84,2.12-4.31,2.96.29-.63.6-.53.12-.82-.66.37.51.58-.81,1.31-.55-.02-1.63.22-1.97-.17l1.29-.6c-.93-.28-1.67.77-2.4.98l-.03-.29c-1.96.97-1.69,1.61-3.85,2.53l.31.1c-.88,1.15-1.14.08-2.09,1.07l-.65-.48c-.7.5-2.42,1.82-3.75,2.56.57-.82,2.07-1.79,2.95-2.51-.76.34-2.58,1.21-2.83,1.7.28-.2.6-.53.94-.57-.71.92-1.83,1.72-3.36,2.38-.29-1.36-4.11,1.46-5.65.99-2.49,1.66-5.43,2.19-8.53,3.66,1.55.47-.9.44-.26,1.34-.71.39-.99.5-1.08.46l-2.49.4c-.66-.05.6-.53.43-.72-1.64.64-.86-.12-2.04.09.38.26-.32.76-1.3,1.03l1.49-.12c-2,1.53-2.31.03-4.33,1.56l.57-.63c-1.08.7-4.27,1.9-5.04,3.2-.26-.02-.65-.17-.17-.47-1.41.56-2.85,1.45-4.24,2.27-.35.2-.69.4-1.03.59-.29.16-.59.31-.86.46-.25.14-.53.22-.67.14.05-.12.1-.24.13-.35-.07.07-.17.25-.3.4-.11.14-.26.25-.26.11.1-.17.25-.4.2-.4-.07.08-.25.29-.47.48-.21.19-.47.36-.47.28.22-.21.41-.4.58-.59-.04-.08-.15-.01-.36.12-.05-.02-.19.04-.34.05-.29.04-.56-.17-.39-.79.49-.14.9-.44,1.15-.58.05-.04.11-.07.17-.11l.07-.04s.01,0,.02-.01l.04-.06.07-.12c.2-.33.37-.64.51-.89l.09.08c1.43-3.08,1.7-5.54,2.71-8.54,1.58-1.43,3.1-5.86,4.9-8.48-.33.37-.53-.34-.35-.87.47-.59.41-2.07,1-1.65l-.12.23c.88-.19,1.37-1.63,1.92-2.68l-.76-.59c2.61-2.15,3.24-7.45,5.15-8.38.14-.77.58-1.58.72-2.34l.43.27c1.1-1.76,1.65-2.63,2.79-4.92l.06.63c.74-1.24-.39-2.29.24-3.47l.86.02c1.24-2.2,3.08-4.07,3.76-6.55.08.09.23.27.04.63.62-1.01,2.79-3.67,1.68-3.83.6.32,1.4-2.18,1.86-3.5l.32.44c.07-1.3-.07-1.43.63-2.88.26-.29.51-.07.14.29.91-.95.12-1.12.88-1.76-.01.2,0,.37.01.54.19-.26.28-.39.34-.56.07-.16.08-.37.28-.66.25-.21.75-.08,1,.26.27.33.33.72.22.94.22-.17.75-.15.97.54-.11.15-.31-.01-.42-.08.16.44.3.79.46,1.12.18.4.38.73.56,1.06.37.65.7,1.21.73,2.01-.14.09-.18.21-.19.34-.6-1.64-1.06-2.97-.98-2.86-.44.15-.02,1.51-1.01.66.73.95,2.09,2.52,2.4,3.88-.02.08-.04.15-.08.22l-.1-.11c.07.31.22.56.39.79.09.44.14.72.29,1.11-.29.29.39,1.59.66,2.24.44-.24.73.64.78-.31.01.12-.11-.1-.31-.53-.05-.1-.11-.21-.16-.26.02,0,.04.02.06.03-.18-.43-.41-.98-.68-1.62.44.43.86.88.89,1.71.44.21.9.46,1.13.6-.28,1.15.1,3.01-.2,3.41.54.94,1.12,2.07,1.71,3.09.59,1.02,1.23,1.9,1.95,2.31.37.5.05.75.02,1.02-.24-.28-.41-.66-.61-.78.75,1,1.62,3.24,2.37,3.21.42,1.5-.93-.51.11,1.34l-.31-.17c.23,1.05.63,1.9,1.11,2.67.5.76,1.08,1.43,1.65,2.12,1.14,1.38,2.32,2.78,2.85,5.12-.08-.32-.13-.48-.06-.59,2.06,4.89,5.96,9.05,8.04,13.87.67,1.33,1.11,1.23,1.88,1.8l-.27.57c.45.31.92.62,1.39.92,1.63,1.51,1.09,3.86,3.45,5.57l.08-.5c.27.42.78,1.02,1.16,1.53.4.5.68.92.45.98.11.04.5.03.59.45l-.21.2,1.88,1.63c1.01,1.61-1.08.46.61,2.65.74.73,2.48,1.76,2.39,1.34-.25-.33-.53-.93-.33-1.13l.71.63c.75-.39,1.86-.38.89-2.5l-1.39-.92v-.65l.85,1.02c-.18-.82-.74-.99-1.26-1.26.09-.23.07-.49-.06-.79l-1.58-.74c.14-.34.94.16.45-.77-.74-.36-.15.99-1.09.18-.16-.83.22-.83-.58-1.35.1-.22.32-.16.61.07-.7-.47-1.34-1.61-1.94-1.67-.09-.91-1.69-2.08-1-2.47-.3-.09-1.31-.78-1.76-1.36,1.54.54-1.52-2.25-.48-2.54-1.26-.34-2.3-2.72-3.65-3.92.11.05.33.13.38.28-.47-.86-.41-1.24-.61-1.85-.66.27-1.62-.93-2.43-1.4-.06-1.37,1.09.19,1.44-.48-.46.36-1.58-1.47-1.77-.88-.12-1-.24-.78.01-1.48-.84.31-.57-.65-1.43-1.02-.31-1.36.53-.71-.44-1.83-.11-.73.81.23.81.23v.03Zm-16.46-30.47h.01c.12.27.23.51.29.66-.06-.14-.15-.33-.3-.65h0Zm-1.03-2.73c.11.34.26.76.42,1.2-.12.15-.33.11-.43-.17.16.11.02-.57,0-1.03Zm-1.02,7.05c-.24-.41-.2-.59-.13-.69.09.2.2.44.36.74.02,0,.05.02.08.03-.11,0-.21-.02-.31-.08Z"/><path class="cls-3" d="m51.07,256.03c-.04.24.51.17.82.26.12.3-.41.09-.7.16.12.19.6.39.56.52-.09,0-.13.02-.23-.02.41.24-.04.57.47.85-.05.01-.1.02-.14.02.27,0,.55.02.74.05,0,.11.32.24-.04.24.02-.06-.12-.09-.23-.13l.14.13c-.52.04-.16-.18-.53-.21.14.24.53.54.37.7-.5-.02-.12-.42-.59-.24l.22-.24c-.8.11.07-.15-.78-.06-.18.33.21.42.02.74.26.11.41.02.68.13.44.55-1.29.24-.67.68.32.13.94.24.58.45l-.55-.15c-.09.33.78.28.37.59-.21-.09-.16-.28-.23-.24-.47.18.3.19.28.37l-.5-.02c.04.36.35.8.4,1.2-.15-.04-.29-.12-.46-.05.19.52-.18,1.05-.53,1.5l.41.23s-.2.05-.28,0c-.19.17.27.04.43.15.02.11-.26.11-.38.03.32.37.67,1.03.17,1.32l-.12-.08c-.21.25.84.41.41.61l-.07-.06c-.25.56.06,1.26-.64,1.63.61.16-.35.55.51.69-.46.28-.61.17-.95.61-.05.12.51.25.58.42l-.45-.05.45.27-.55.05.1.16c.03-.05.22-.1.35-.07.18.25-.38.52-.61.49l.31.59c-.18-.03-.23-.13-.34-.21.42.34-.48,0-.09.31.11-.02.26.05.36.07-.29.1-.33.4-.24.63l-.3-.08c-.13.39.04.86-.02,1.31.17-.14.69-.04.73.1h-.48c.28.12.2-.12.53.1-.07.16-.55.04-.69-.07l.14.23c-.14,0-.21-.06-.39-.1.28.12-.52.29-.02.47h-.14c-.06.44.08.67.06,1.03.41.06.3.19.62.34-.17.25-.52.51-.53.84.18.26.34.11.57.25-.38-.03-.38.3-.63.1,0,.4,0,.5.25,1.03.16-.03.23-.08.36-.04.05.1-.18.18-.36.15l-.03-.03c.49.62-1.25,1.13-.53,1.67l-.03-.03.35.51c-.09.2-.26-.16-.51-.03.56.57-.19.76.17,1.22-1.14.17-.07,1.12-.82,1.45h.26c.24.15-.17.12-.23.2.2.01.25-.09.38,0,.19.96-.63,1.86-.99,2.77-.12.34,1.31.38.64.73l-.46-.19c.48.78-.21,1.42.19,2.18-.11-.05-.25-.08-.24-.14-.37.1-.09.53.2.57-.05.1-.26-.01-.42.03-.23.12.4.43.04.45-.06,0-.11-.05-.13-.09.16.12-.1.44.31.4-.23.23.11.51-.15.69.43.19-.28.41.35.54-.66-.11-.59.38-.3.58-.19-.08-.23.11-.49.01-.01.19.08.37.43.39-.84.23.54.77-.5.83.28.6.45,1.14.53,1.66-.66-.11,0-.56-.68-.63.21.51.73.86.51,1.3-.11.11-.27-.11-.38-.17.21.51-.19.9.11,1.37-.06,0-.12-.06-.17-.11,0,.08-.12.18.18.21l-.07-.09c.45-.07.86.46,1.08.5-.84-.26-.27.38-1.32,0,.05.06.18.15.38.17-.07.07-.19.08-.41-.04.12.32.45.26.41.52-.14-.02-.19-.08-.36-.14.26.18.52.35.37.56-.08-.03-.2-.02-.19-.08,0,.39.66.77.32,1.15-.61-.21-.23.12-.77.06l.13.25.28-.05c-.04.2.33.43.13.58l-.2-.18.05.39.23-.18c.25.24.69.08.5.32-.05-.06-.03.2-.37.26.16.12.33.25.17.38-.18.01-.6-.12-.71-.11.44.16.06.48.52.68-.11-.06-.39-.1-.45-.1l.36.14c-.13.07-.19.08-.42.03-.11.27.7,0,.36.3-.02-.03-.08-.02-.13-.09-.2.31.14.67-.08.95-.56.01-.09-.29-.57-.25.03.46.52,1.01.33,1.41l.07-.07c.76.17-.43.26-.1.53-.05-.06-.42-.13-.33-.1-.17.27.1.63.28,1.1l-.19-.08c-.2.15-.17.44-.28.61.19.08.14.19.44.16-1.21.41.45,1.18-.57,1.55,0-.06-.15-.17-.16-.12l.12.46c.34.01.21-.02.48-.08.19.08.33.23.31.34-.19-.23-.54-.08-.74-.03.1,0,.22.05.32.05-.63.14.67.14.22.39l-.17-.04c.07.13.29.27.22.39-.4,0-.16-.15-.48-.21,0,.18.69.46.27.56-.1-.09-.08-.2-.18-.29-.48.1-.37.14-.46.26h0s-.25.25-.25.25l.14-.06c.98.37.12.47.73.87-.58-.38-.36-.1-.79-.19-.13.06-.29.15-.41.1.33.19-.31.19.18.46-.14-.01-.03.15-.39.06.08.2.25,0,.43.04.44.35-.69.57-.08,1.07.22.39.69.52.88.88-.24.07-.5-.17-.5-.17-.23.14-.22.28-.08.47-.12-.05-.23-.03-.4,0,.01.14.5.17.26.31-.15-.05-.4-.13-.55-.22.11.18.35.37.45.55-.25,0-.36-.16-.51-.24.08.2.15.5.53.62l.16-.09c0,.07-.34-.02-.41-.08-.28-.2.17-.21.31-.19l.07.13c.85,0-.06-.48.02-.7l.59.19-.46-.31c.17-.02.51,0,.58.12.32-.12-.19-.18.16-.27.05-.01.08,0,.1.02l-.16-.19c.12.05.43.04.33.12.39-.24-.38-.54.09-.58l.03.03c-.14-.44-.44-.11-.91-.49l1.13-.04-.44-.11s.07-.12.24-.07c-.28-.2-.2,0-.47-.14.44-.14-.1-.58.61-.52-.33-.12-.29.15-.49-.1.77.05-.09-.27.28-.4.38.12.15.26.53.13-.65-.21.2-.34.09-.51-.53-.09-.17-.37-.31-.66.18.04.36-.45.59-.66l.09.02c-.53-.13-.39-.36-.47-.56.32.05.44.11.57.23l.02-.17c-.17-.06-.24-.13-.29-.26l.39.1c0-.23-.4-.53-.09-.78-.37-.07-1.07.08-1.27-.27.2.02.55.06.62.15-.02-.03-.15-.12-.06-.16l.32.17c.17-.11-.27-.11-.22-.22.29.04.22-.05.44,0,.02.03-.13.07-.02.13.07-.11.26-.23.48-.25-.17-.01-.39-.06-.41-.15.01-.23.36-.02.52-.14-.19-.08.04-.2-.39-.26,0-.07.22-.05.33-.06-.17-.15.02-.56-.45-.49l-.03.02s0-.01-.01-.02c-.37-.45.36-.76.23-1.17l.14.02c-.13-.25-.02-.52-.31-.73,0-.07.28-.12.45-.07-.08-.19-.24-.24.03-.45.23.21.23-.03.16.21.16-.21.39-.23.04-.53.36.14.49-.1.39-.22l-.28.12c-.03-.13,0-.23.06-.33l.47.13c.66-.38-.88-.98.16-1.19-.32-.17-.27.22-.66.05.1-.2.82-.33.83-.39.31-.26-.67-.38-.44-.66-.18.02-.64-.01-.77-.26.09-.21.76-.16.88,0,0,.05-.05.07-.11.06.05.08.11.18.31.12l-.17-.05c.19-.08.22-.38.49-.27-.14-.19-.27-.11-.38,0,.29-.24.07-.43.28-.69-.1.03-.31.04-.3,0,.27-.38-.3-.23-.34-.52.28-.12.62.15.44-.17.2-.15.46.03.59.12-.3-.3.29-.45.37-.59l.12.16c-.07-.09-.06-.16-.05-.23l-.36.03c.07-.07.08-.14.23-.12-.22-.11-.58-.02-.87-.23.19-.08-.14-.35.32-.32-.2.31.46.03.5.32-.05-.06-.03-.13.03-.2.05,0,.09.02.12.05.46-.26-.5-.22-.44-.55.25.08.5,0,.45-.07-.02.13-.44,0-.62-.15.23-.19-.12-.25-.08-.36l-.11.11c-.25-.08-.2-.18-.26-.34.2.02.12.15.22.11-.43-.23.52-.3.25-.58.19-.08.48.06.62-.02-.3-.3.39-.23.15-.54-.36.03-.27.05-.59-.18l.18.48-.46-.36c-.02.13.18.31.11.39-.26-.18-.18-.15-.47-.13.55-.11-.25-.41.13-.57l.86.13c.43-.26-.36-.63-.09-1.01l-.17.11c-.33-.1,0-.26-.13-.42.28.05.4-.01.59-.05-.22-.02.06-.3-.51-.42l.4-.13c.2-.31-.76-.49-.62-.8.3.14.52.02.71.27.02-.11.08-.2-.12-.23.19-.04-.35-.35-.06-.41-.12-.06-.42-.12-.38-.23.06,0,.14.02.14.02-.14-.02-.17-.22-.5-.15.94-.21.06-.93.87-1.11-.06-.24-.12-.54-.11-.75.08.02.14.02.11.05.31-.25-.8-.29-.46-.58.49-.11.23.21.42.13.95.08-.07-.42.51-.57l.05.06c.34-.13-.3-.46-.2-.74,0,0,.08.02.14.02-.46-.25-.57-.64-.67-.93.36.13.18.15.56.15-.04-.13-.61-.04-.68-.3.22-.05.41-.2.82-.17v.23c.52-.05,0-.3.12-.41l.23.04c-.03-.36-.6-.44-.51-.81l-.18.02c-.54-.28.34-.13-.05-.39h.58c-.12-.14-.49-.53-.57-.79.41.2.59.5.82.71.02-.13.02-.46-.25-.57.05.06.18.15.08.19-.43-.23-.62-.47-.58-.73,1.11.2.37-.66,1.26-.74-.35-.53.3-.92.3-1.47-.89.08,0-.16-.9-.24-.04-.14-.02-.18.04-.19l.58-.32c.27-.06.18.15.38.16.1-.27.39-.07.65-.23-.32,0-.45-.16-.3-.3l-.44.17c-.42-.46.79-.25.37-.7l.26.16c-.14-.22.1-.75-.59-1.04.11-.02.36-.04.41.06.17-.47-.62-1.17-.14-1.5l.22.06c-.05-.1-.39-.21-.16-.29.09.02.21.06.23.02-.07-.06-.35-.29-.21-.39l.23.13c.35-.44-.5-.8-.6-1.22.64.08.9-.26,1.02-.43l.09.02c.15-.54-.42-1-.6-1.55.73-.23.43-1.04.88-1.5-.13.06-.5-.07-.55-.17.15-.1-.41-.39.18-.29v.04c.57-.02.45-.28.49-.47l-.76-.13c1.18-.36-.25-1.36.78-1.52-.18-.15-.16-.29-.33-.44l.41.06c.15-.32.22-.49.17-.91l.28.12c.05-.23-1.15-.44-1.15-.66h.62c.04-.4.63-.75.12-1.22.09.02.26.05.28.12.04-.19.5-.69-.35-.72.55.06.1-.42-.11-.67l.4.08c-.5-.25-.64-.27-.75-.55.06-.05.33-.01.22.05.23-.18-.37-.21-.12-.43l.25.12c.06-.2-.08-.2-.37-.36-.15-.15.15-.39.52-.38-.22-.05-.5-.21-.39-.32.14,0,.22.05.26.08.32-.32-.41-.58.01-.78.14,0,.21,0,.25-.01-.04.28-.09.5-.12.48.38.04.46-.18.96.06-.26-.21-.84-.6-.64-.8.04,0,.07-.01.13-.01l.04.03s.01-.1-.04-.15c.07-.06.12-.1.13-.17.31.01.2-.24.23-.35-.41-.04-.33-.18-.68-.08.03-.01.04.03.05.1,0,.02.01.04.04.05,0,0-.02-.01-.03-.01,0,.07,0,.17,0,.28-.2-.11-.36-.22-.12-.32-.25-.09-.52-.19-.64-.23.59-.09.93-.35,1.29-.35-.19-.37-.06-.83-.8-1.14-.09-.11.23-.09.36-.11.07.06.05.13.16.18-.18-.22,0-.59-.54-.7.27-.22.48.2.43-.15l.16.06c.93-.57-1.25-1.24-.06-1.85-.07.04-.11.06-.2.06.58-.79-.26-1.79.61-2.53.18-.22-.16-.28-.41-.46h.45l-.48-.3c-.33-.39,1.15-.49.49-1.01l-.3.03c.07-.15-.12-.52.22-.46-.05-.02-.3-.09-.14-.13l.23.02-.35-.43c.2-.28.91.15,1-.29-.07-.18-.62-.54-.78-.5-.02.06-.16.15-.4.13l-.1-.16c-.68-.1-1.36-.29-1.87.02l.39.3-.34.05v-.22c-.32.09-.05.2.12.3-.18,0-.3.02-.38.07l.62.32c-.27,0-.51-.17-.68-.02.29.15.61-.05.78.17-.32.09-.57.02-.32.2-.18,0-.28-.04-.36-.11.2.15.05.35.41.46-.4.09.05.44-.59.36.15.06.48.28.49.4-.74-.3-.09.44-.92.29.68.24.24.61.6.93-.05-.02-.16-.06-.12-.09-.07.15-.29.18-.43.26.57.08.67.35,1.01.52-.57.13-.66-.2-1.19-.19.46.04.43.39.82.37-.36.11-.18.11-.66.13.71.11.1.15.53.32-.38.18-.68-.02-.48.24-.23.09-.46-.15-.46-.15h.03Zm.59,5.77h0s0-.09,0-.12c0,.02,0,.06.02.12h0Zm-.05.47c.02-.05.03-.13.04-.21.14,0,.29.03.27.08-.09-.04-.19.06-.31.12Zm2.96-.67c.05.08-.03.1-.12.1,0-.03,0-.08-.03-.14-.01,0-.03-.01-.05-.01.08.01.15.03.2.05Z"/><path class="cls-3" d="m29.95,290.55c.17-.1-.22-.49-.35-.78.11-.25.31.27.53.46.04-.2-.14-.68-.03-.72.05.07.09.09.13.19-.11-.45.37-.27.23-.82.04.03.07.07.09.1-.17-.21-.33-.44-.43-.61.07-.05-.05-.38.17-.1-.05.02.02.14.06.25v-.18c.34.38-.01.22.19.53.06-.24,0-.7.2-.66.29.4-.18.32.22.59l-.28-.04c.57.57-.14.02.45.65.31-.03.12-.39.44-.42-.1-.26-.24-.33-.34-.6.06-.63.94.88.83.17-.12-.32-.44-.87-.08-.7l.24.51c.26-.1-.31-.76.14-.6.08.21-.08.27,0,.31.4.27-.06-.34.05-.42l.29.4c.2-.22.27-.7.49-.95.06.13.1.29.25.38.21-.43.76-.42,1.24-.37l-.11-.45s.16.13.17.22c.22.05-.14-.23-.17-.42.06-.07.23.15.25.28.03-.45.22-1.07.7-.84l.02.14c.28.03-.26-.88.12-.65v.08c.51-.1.74-.71,1.4-.36-.27-.56.55-.01.11-.76.46.22.47.39.95.43.11-.02-.16-.54-.1-.68l.24.38-.11-.49.37.41.04-.16c-.05,0-.19-.12-.25-.24.05-.27.55.03.68.22l.17-.56c.09.16.06.25.07.38-.04-.51.29.38.24-.09-.08-.07-.13-.24-.17-.32.23.18.45.05.54-.14l.14.28c.32-.1.5-.49.82-.68-.19-.05-.45-.53-.38-.63l.29.38c-.1-.29-.19-.09-.26-.48.15-.02.36.42.38.59l.05-.23c.08.12.09.2.18.36-.1-.29.49.26.31-.23l.08.12c.31-.19.37-.42.61-.59-.21-.35-.06-.34-.16-.67.25,0,.63.15.84-.02.05-.27-.14-.33-.2-.58.21.31.42.15.44.45.24-.21.3-.27.49-.74-.12-.11-.2-.14-.24-.26.03-.09.23.05.31.21v.04c.09-.71,1.46.4,1.36-.46v.04l.11-.54c.18-.03.06.29.29.43.02-.74.59-.25.66-.77.79.82.73-.53,1.39-.1l-.15-.21c-.05-.26.17.07.25.09-.11-.17-.21-.15-.23-.3.48-.66,1.53-.46,2.31-.66.28-.08-.55-1.24.07-.89l.16.47c.19-.79,1.01-.58,1.24-1.28.03.11.1.24.05.26.28.24.39-.2.24-.45.09-.02.15.21.27.31.21.12.03-.54.26-.27.04.04.03.12.02.15-.02-.19.33-.14.06-.45.28.06.25-.36.52-.24-.14-.45.42.01.13-.56.32.58.59.28.54-.06.06.2.21.12.3.39.13-.08.19-.26,0-.54.64.55.17-.83.81-.03.21-.53.45-.95.72-1.29.32.58-.35.28,0,.88.2-.42.1-1.03.51-1.08.13.03.09.28.12.39.2-.43.67-.31.79-.8.03.05.03.13.02.19.05-.05.19,0,.03-.25v.1c-.32-.33-.23-.92-.34-1.13.33.81.4.02.78,1.06,0-.07,0-.23-.12-.39.09.02.16.11.22.34.13-.26-.1-.5.09-.6.07.13.06.2.13.36-.04-.3-.09-.6.13-.59.03.08.11.17.06.2.25-.2.1-.92.53-.86.22.6.21.12.49.59l.08-.23-.2-.2c.15-.07.08-.49.29-.4v.26l.22-.24-.25-.1c0-.33-.36-.6-.09-.57,0,.07.15-.07.38.17-.01-.19-.03-.39.14-.33.11.14.27.54.35.63-.16-.44.27-.3.12-.77.02.12.17.37.21.42l-.12-.36c.12.07.16.11.26.32.23-.05-.4-.57-.02-.44,0,.03.03.08.02.15.31,0,.34-.46.65-.42.33.45-.12.23.18.59.26-.26.33-.94.69-1l-.09-.02c-.34-.7.42.21.39-.2,0,.07.16.41.13.32.27,0,.33-.4.53-.79l.06.2c.21.09.37-.09.55-.08-.06-.2.03-.21-.15-.44.96.77.49-.97,1.31-.33-.04.02-.02.21.01.19l.22-.33c-.19-.28-.14-.16-.33-.35-.06-.2-.04-.38.03-.43-.03.27.26.48.42.61-.06-.09-.09-.2-.15-.29.45.44-.3-.61.12-.38l.07.16c.04-.13,0-.37.12-.38.23.32,0,.21.15.49.11-.09-.11-.79.2-.5,0,.13-.08.17-.08.29.34.34.3.23.43.24h-.01l.31.06-.11-.08c-.33-.98.23-.34.12-1.04.1.67.14.34.34.74.11.08.26.16.3.28-.07-.37.3.16.19-.38.07.12.11-.04.26.28.08-.17-.15-.2-.23-.37-.03-.54.75.27.72-.48.12-.38-.06-.83.05-1.17.19.16.18.49.18.49.23.12.3.03.34-.18.03.12.11.2.22.32.08-.08-.18-.49.04-.38.05.15.15.39.18.56.05-.18.03-.47.09-.64.15.21.11.37.14.54.08-.17.23-.38.09-.75l-.15-.08s.19.28.18.37c.03.33-.23-.03-.3-.16l.04-.13c-.48-.7-.27.3-.46.34l-.22-.58.07.54c-.11-.12-.3-.41-.26-.53-.26-.2,0,.25-.26,0-.03-.04-.04-.07-.04-.1l-.03.23c-.04-.13-.23-.37-.11-.33-.38-.2-.12.59-.42.22v-.04c-.2.34.19.41.22.99l-.67-.9.19.41s-.11,0-.19-.16c.03.33.11.16.19.45-.34-.28-.31.38-.68-.23.11.33.26.16.22.45-.41-.65-.12.21-.42-.02-.15-.37.08-.26-.23-.49.24.63-.33,0-.38.19.25.47-.14.33-.24.59-.07-.16-.49-.06-.76-.14l-.04-.08c.22.49,0,.5-.08.67-.15-.29-.19-.41-.19-.58l-.12.07c.05.17.06.27,0,.37l-.16-.37c-.15.11-.1.6-.44.47.17.34.67.83.57,1.17-.11-.17-.28-.47-.26-.58,0,.03.01.19-.07.13l-.08-.35c-.17-.08.09.28,0,.29-.14-.25-.16-.15-.25-.36,0-.03.12.07.1-.05-.11,0-.3-.09-.44-.26.09.14.19.34.14.41-.15.11-.22-.27-.39-.35.06.19-.15.07.06.45-.05.02-.16-.15-.23-.24,0,.21-.37.26-.05.62h.03v.04c-.07.53-.69.1-.88.41l-.07-.13c-.08.23-.32.29-.28.62-.05.02-.24-.17-.3-.33-.07.17,0,.31-.3.2,0-.29-.15-.17.04-.23-.23-.02-.37-.2-.35.24-.12-.36-.35-.34-.37-.2l.24.17c-.06.1-.15.11-.24.13l-.2-.45c-.62-.33-.1,1.22-.84.49.08.35.3.11.42.5-.19.03-.69-.49-.73-.47-.34-.12.16.73-.16.7.11.14.37.53.28.76-.19.03-.55-.53-.52-.71.03-.03.07,0,.1.06.02-.08.04-.19-.11-.31l.06.16c-.16-.11-.36.02-.46-.25-.03.21.09.28.22.31-.32-.11-.31.17-.59.13.08.06.21.23.18.24-.4-.02.03.36-.13.54-.24-.17-.27-.57-.36-.27-.21-.09-.25-.39-.27-.54-.02.4-.45,0-.59,0l.03-.18c-.01.11-.06.13-.11.16l.23.27c-.09-.02-.14,0-.21-.12.05.23.33.48.37.82-.16-.11-.14.29-.39-.09.31,0-.25-.39-.09-.57,0,.07-.06.09-.15.07-.03-.04-.04-.09-.04-.12-.43-.23.15.51-.09.64-.1-.24-.3-.4-.31-.33.1-.05.26.35.27.57-.25-.09-.09.23-.18.25l.14.03c.1.24,0,.25-.06.39-.11-.17.02-.18-.05-.23.11.46-.5-.26-.51.1-.16-.11-.25-.42-.38-.48-.01.4-.38-.2-.43.16.23.27.2.19.23.57l.19-.4.05.56c.1-.05.09-.31.18-.29.04.3.01.22.2.45-.39-.38-.1.42-.43.19l-.43-.75c-.42-.21-.18.62-.58.6l.17.08c.13.32-.16.15-.18.32-.14-.26-.25-.31-.38-.45.11.19-.23.11.04.62l-.32-.26c-.31,0,.14.87-.13.92-.09-.31-.29-.43-.25-.71-.08.04-.17.03-.07.21-.14-.13-.01.46-.22.26.03.13.18.4.08.42-.04-.04-.07-.12-.07-.12.07.12-.03.24.2.48-.69-.65-.62.43-1.21-.11-.12.18-.27.38-.41.48-.03-.08-.07-.13-.03-.12-.34-.11.29.79-.09.67-.36-.33,0-.29-.17-.4-.51-.8-.22.28-.66-.11v-.07c-.27-.21-.1.48-.33.54,0,0-.03-.08-.07-.13.11.5-.06.79-.18,1.02-.13-.36-.01-.22-.24-.53-.06.1.33.51.22.7-.16-.14-.37-.23-.59-.56l.15-.11c-.35-.4-.2.14-.33.11l-.11-.21c-.21.21.08.71-.2.83l.12.13c.15.58-.28-.21-.21.24l-.34-.48c-.02.18-.04.68-.16.87-.12-.43-.04-.73-.04-1.03-.1.05-.3.23-.2.5,0-.07-.01-.22.07-.17.12.46.08.74-.11.85-.54-.98-.64.04-1.22-.62-.12.56-.75.24-1.1.53.59.67-.1.09.39.84-.06.1-.1.11-.14.06l-.55-.29c-.2-.19-.01-.22-.13-.39-.23.06-.28-.27-.53-.4.19.26.17.44,0,.4l.37.26c-.03.57-.63-.5-.66.07l-.06-.29c-.05.23-.53.31-.29,1.01-.08-.07-.24-.26-.21-.36-.4.11-.35,1.12-.85.9l-.09-.2c-.03.09.1.42-.09.28-.04-.08-.09-.2-.12-.2,0,.08.03.43-.12.37l-.06-.26c-.48-.04-.19.82-.39,1.12-.34-.55-.71-.57-.89-.58l-.04-.08c-.43.17-.37.86-.59,1.29-.59-.46-.9.21-1.46.1.12.07.26.44.23.53-.15-.06,0,.52-.29.01h.03c-.37-.46-.46-.23-.6-.16l.39.67c-.94-.74-.69.92-1.41.19.02.21-.08.28-.06.49l-.22-.36c-.29.05-.43.08-.67.35l-.1-.29c-.18.08.44,1.14.3,1.26l-.38-.49c-.28.19-.85-.09-.83.56-.04-.08-.13-.23-.1-.29-.14.07-.74-.03-.23.66-.3-.46-.32.14-.34.44l-.2-.36c.15.52.23.65.12.88-.07-.02-.22-.25-.1-.2-.25-.09.1.4-.19.32l-.08-.26c-.16.06-.07.18,0,.48,0,.2-.33.09-.55-.21.1.2.19.51.04.47-.09-.11-.1-.21-.11-.25-.39-.08-.1.63-.48.4-.08-.11-.12-.16-.16-.19.2-.12.36-.2.37-.16-.21-.32-.4-.27-.55-.79.03.32.15.98-.1.93-.03-.03-.05-.05-.09-.1v-.04c-.06,0-.07.04-.07.11-.08-.02-.14-.04-.19-.01-.19-.25-.27-.02-.36,0,.23.34.09.35.37.58-.03-.02,0-.05.03-.1,0-.02.01-.03,0-.06,0,.01,0,.02.01.03.04-.04.11-.09.18-.15.05.21.08.41-.13.27.1.25.21.5.25.63-.42-.42-.79-.54-1.01-.83-.11.35-.47.49-.2,1.23-.01.13-.2-.14-.29-.23,0-.09.05-.11,0-.21-.02.25-.36.32-.09.8-.3-.1-.18-.48-.36-.25l-.06-.16c-.93-.43.01,1.64-1.1,1.04.07.03.11.05.16.12-.85-.03-.93,1.16-1.93.89-.25-.02-.07.27-.03.56l-.28-.35.11.54c-.03.47-1.01-.64-.92.16l.21.23c-.14.02-.24.37-.42.07.02.05.14.28,0,.18l-.13-.19-.04.51c-.3,0-.48-.79-.8-.63-.06.15.05.77.19.88.05-.02.2.04.33.23l-.03.17c.36.58.67,1.21,1.18,1.45l-.06-.46.24.24-.14.11c.25.2.16-.06.11-.26.11.14.21.23.27.26l-.19-.66c.17.21.22.49.42.54-.09-.3-.41-.45-.39-.7.25.2.37.43.32.15.11.14.15.24.16.33-.03-.23.18-.22.02-.56.3.26.24-.28.59.27-.06-.15-.13-.52-.06-.6.28.74.32-.16.74.56-.27-.65.22-.52.2-.96.02.05.06.16.02.14.14-.02.28.13.43.2-.3-.49-.21-.71-.31-1.07.44.38.29.62.63,1.04-.26-.39-.02-.54-.28-.84.29.22.18.08.49.45-.38-.61.03-.16-.13-.59.34.2.41.54.45.25.2.13.2.44.2.44l-.03.04Zm3.17-3.54h0s-.05.06-.07.08c.01-.02.03-.04.06-.08h0Zm.32-.22s-.1.04-.15.08c-.09-.11-.16-.24-.12-.26.03.09.16.11.27.18h0Zm-2.23-1.96c.02-.08.08-.02.13.04-.02.02-.04.05-.06.1,0,.01.01.03.02.04-.04-.07-.07-.14-.09-.19h0Z"/><path class="cls-3" d="m36.99,262.88c.14.1.35-.41.55-.65.25-.02-.14.39-.23.66.18-.05.53-.42.6-.35-.04.08-.04.12-.12.2.35-.29.35.19.77-.17-.01.04-.03.09-.05.12.13-.24.27-.48.39-.64.07.03.31-.21.14.1-.03-.03-.12.08-.2.16l.15-.08c-.22.46-.19.09-.4.4.23-.05.61-.31.63-.12-.25.43-.33-.02-.44.45l-.05-.26c-.31.73-.06-.11-.42.66.12.26.37-.07.49.19.2-.2.22-.35.41-.55.56-.21-.47,1.19.1.79.24-.24.62-.74.58-.37l-.37.43c.16.18.57-.59.56-.14-.16.16-.26.05-.27.12-.12.46.27-.2.38-.13l-.26.43c.25.08.68-.06.97.02-.1.11-.23.21-.26.38.44,0,.58.48.68.92l.36-.27s-.07.19-.15.24c0,.21.17-.21.32-.32.08.02-.07.26-.18.34.4-.16,1-.23.92.28l-.12.07c.05.25.7-.58.61-.15l-.07.04c.22.4.84.36.68,1.08.43-.45.15.47.7-.19-.08.48-.23.56-.15,1,.04.09.44-.34.58-.34l-.28.36.42-.28-.28.47.15-.02s.06-.21.15-.31c.25-.06.11.49-.03.67l.54-.06c-.12.14-.21.14-.32.2.45-.23-.27.39.14.18.04-.09.18-.2.24-.27-.1.27.05.41.25.42l-.23.22c.16.24.55.27.79.48,0-.19.38-.58.48-.56l-.28.39c.24-.19.04-.2.37-.4.05.12-.29.46-.45.54l.22-.03c-.09.11-.16.15-.29.28.24-.19-.12.52.28.19l-.09.11c.24.21.46.18.67.33.28-.31.29-.17.57-.37.05.23,0,.61.19.74.25-.04.27-.23.48-.36-.24.29-.05.42-.32.53.24.14.31.18.77.19.08-.14.09-.22.19-.3.09,0,0,.22-.13.34l-.04.02c.68-.15-.08,1.41.68,1.05h-.04s.51-.05.51-.05c.06.15-.26.14-.34.39.68-.21.33.45.82.35-.62.95.62.49.33,1.21l.17-.2c.23-.13-.04.17-.04.25.14-.15.11-.23.24-.29.69.24.67,1.24.96,1.88.12.23,1.08-.83.84-.18l-.42.27c.77-.04.68.74,1.36.78-.1.05-.21.15-.24.11-.19.31.24.29.46.1.02.08-.18.19-.26.32-.09.21.51-.11.28.17-.03.04-.1.05-.14.06.17-.06.18.26.44-.06-.02.26.37.14.28.41.41-.23.04.38.55-.02-.51.43-.19.59.12.47-.18.1-.09.21-.33.36.09.09.26.11.5-.13-.45.7.8-.04.11.73.52.07.94.2,1.29.37-.52.41-.3-.26-.83.19.42.08.99-.13,1.08.23-.01.12-.25.14-.36.19.43.08.35.54.82.55-.05.04-.12.05-.18.06.05.03,0,.17.24-.02h-.1c.28-.34.86-.38,1.05-.51-.74.45,0,.37-.94.91.07,0,.21-.05.36-.19,0,.08-.09.17-.31.26.26.06.46-.19.58-.04-.12.09-.19.09-.33.18.28-.1.57-.2.57.01-.07.04-.16.13-.18.09.21.19.89-.09.86.32-.56.31-.1.21-.53.55l.23.03.18-.21c.08.12.47-.01.4.19l-.24.05.24.16.08-.24c.31-.05.55-.43.54-.18-.07,0,.08.12-.14.37.18-.04.37-.09.33.07-.13.13-.5.34-.59.42.41-.21.3.2.75-.02-.11.04-.34.21-.39.26l.34-.17c-.06.12-.1.17-.29.29.06.2.53-.46.42-.09-.03,0-.07.04-.14.04.01.28.46.24.44.52-.41.37-.22-.08-.56.25.27.2.92.15.98.48l.02-.08c.67-.41-.19.41.2.33-.07,0-.39.21-.31.16.01.24.4.24.78.37l-.19.08c-.08.2.1.33.09.49.19-.08.21,0,.42-.2-.72.97.96.31.35,1.14-.02-.03-.2,0-.19.03l.32.16c.27-.2.15-.15.34-.34.19-.07.37-.08.41-.02-.26,0-.46.29-.59.45.08-.06.19-.11.28-.17-.43.46.59-.34.37.06l-.16.08c.12.03.36-.04.37.06-.31.24-.2.02-.48.19.08.09.76-.18.49.12-.12.01-.16-.05-.28-.04-.32.35-.22.3-.23.42v-.02l-.06.29.08-.11c.95-.41.33.17,1.01,0-.65.16-.33.16-.72.38-.08.11-.15.25-.27.3.36-.1-.15.29.37.14-.12.08.04.1-.27.26.17.05.2-.16.36-.24.53-.08-.27.71.45.61.36.07.8-.13,1.13-.05-.16.18-.48.21-.48.21-.12.21-.04.28.16.3-.12.04-.2.12-.32.23.08.06.48-.21.36,0-.15.06-.39.16-.55.21.17.03.46,0,.63.03-.2.15-.36.13-.52.17.16.06.36.18.73.02l.08-.14s-.28.19-.36.2c-.32.05.04-.21.16-.28l.12.02c.69-.49-.28-.23-.32-.39l.56-.24-.52.1c.12-.11.4-.3.52-.28.2-.25-.24.02,0-.24.04-.04.07-.04.09-.05h-.22c.12-.05.36-.24.32-.14.2-.36-.57-.06-.21-.37h.04c-.32-.15-.4.2-.96.28l.88-.7-.4.2s0-.1.16-.19c-.32.06-.16.12-.44.21.28-.34-.37-.24.23-.64-.32.13-.15.25-.44.24.63-.44-.21-.08.02-.38.36-.17.25.04.48-.26-.62.28-.01-.3-.18-.33-.46.27-.32-.09-.57-.16.16-.08.06-.45.13-.71l.08-.04c-.47.26-.48.05-.65,0,.27-.17.4-.21.55-.23l-.07-.1c-.16.07-.26.08-.35.05l.36-.19c-.11-.13-.57-.03-.46-.35-.32.2-.78.71-1.12.66.17-.12.45-.31.55-.31-.03,0-.18.03-.13-.04l.34-.11c.07-.16-.27.11-.28.04.24-.16.14-.16.34-.28.03,0-.06.12.05.08,0-.1.08-.28.24-.43-.13.1-.33.22-.39.18-.11-.13.26-.24.33-.4-.19.08-.07-.13-.44.11-.02-.04.14-.16.23-.24-.21.03-.27-.3-.6.03v.03h-.04c-.51.01-.12-.62-.43-.75l.12-.08c-.23-.04-.29-.26-.61-.17-.03-.04.15-.25.31-.33-.16-.04-.3.04-.21-.25.28-.04.16-.17.23,0,0-.21.17-.37-.25-.29.34-.17.31-.37.17-.37l-.15.25c-.1-.04-.11-.12-.14-.21l.43-.25c.28-.62-1.18.09-.53-.7-.33.13-.09.29-.46.46-.04-.17.43-.71.41-.75.09-.33-.69.26-.68-.03-.12.13-.48.43-.71.39-.04-.16.47-.59.65-.59.03.02,0,.07-.05.1.08,0,.18.01.29-.15l-.15.09c.1-.17-.04-.33.22-.46-.21,0-.26.13-.28.25.08-.31-.18-.26-.17-.52-.06.08-.2.23-.22.2-.01-.37-.35.09-.53-.02.14-.26.53-.35.23-.38.06-.21.35-.3.49-.35-.38.05-.04-.42-.06-.54h.17c-.1,0-.13-.04-.16-.08l-.24.26c0-.08-.02-.12.1-.21-.22.09-.43.39-.75.49.09-.17-.29-.07.05-.38.02.29.35-.31.54-.19-.07,0-.1-.04-.08-.12.03-.04.08-.05.11-.05.18-.44-.48.23-.62.04.23-.14.35-.35.28-.35.06.08-.31.3-.52.36.06-.25-.22-.04-.25-.12l-.02.13c-.23.14-.24.05-.38.02.15-.13.17-.01.22-.09-.43.19.21-.51-.14-.45.09-.17.38-.31.43-.44-.38.06.15-.38-.2-.36-.23.26-.16.22-.52.33l.4.09-.53.16c.06.08.3.02.29.1-.28.1-.21.06-.41.27.32-.43-.41-.01-.23-.35l.68-.54c.15-.43-.61-.04-.64-.41l-.05.17c-.29.19-.16-.11-.33-.1.23-.18.27-.29.38-.44-.16.14-.13-.19-.59.17l.21-.35c-.04-.29-.81.32-.89.07.28-.15.37-.37.65-.39-.05-.06-.05-.15-.21-.02.11-.15-.44.09-.27-.15-.12.06-.36.25-.39.17.04-.04.11-.09.11-.09-.11.09-.24.02-.43.29.52-.77-.49-.45-.05-1.12-.19-.06-.39-.16-.51-.25.07-.05.11-.1.11-.05.06-.34-.71.45-.65.07.26-.41.27-.07.35-.25.69-.67-.29-.13,0-.63h.07c.16-.32-.47,0-.56-.2,0,0,.07-.05.11-.1-.45.22-.75.14-.98.09.31-.21.21-.07.46-.36-.1-.03-.43.44-.63.38.11-.18.15-.4.44-.68l.13.11c.32-.42-.16-.14-.16-.27l.18-.15c-.23-.13-.65.26-.81.03l-.11.14c-.51.29.15-.31-.26-.13l.39-.44c-.17.02-.64.14-.84.09.38-.23.68-.23.95-.31-.06-.07-.26-.21-.5-.05.07-.01.21-.07.17.01-.41.23-.68.27-.81.13.83-.76-.15-.57.37-1.28-.54.05-.37-.61-.7-.85-.51.72-.1-.06-.71.59-.11-.02-.12-.06-.09-.11l.17-.58c.13-.23.2-.08.34-.23-.1-.2.2-.33.27-.6-.2.25-.37.28-.37.11l-.17.42c-.54.14.34-.72-.19-.58l.26-.14c-.22.01-.39-.39-1,.04.05-.09.2-.29.29-.3-.19-.32-1.11.02-1.01-.49l.17-.14c-.09,0-.36.23-.27,0,.06-.06.17-.14.15-.18-.08.04-.39.17-.37.01l.22-.13c-.06-.45-.8.08-1.11,0,.43-.48.37-.83.33-.99l.06-.06c-.26-.32-.88-.05-1.33-.1.28-.68-.41-.73-.44-1.28-.03.13-.33.38-.42.39.01-.16-.47.19-.08-.26v.03c.33-.49.1-.49,0-.59l-.51.58c.43-1.1-1.01-.28-.54-1.19-.19.1-.27.02-.46.12l.26-.32c-.13-.23-.19-.36-.49-.47l.23-.2c-.12-.13-.91.81-1.05.73l.34-.52c-.23-.18-.16-.79-.73-.52.06-.07.18-.21.23-.2-.1-.1-.19-.66-.66.05.33-.45-.22-.23-.49-.13l.26-.31c-.42.34-.51.45-.75.46,0-.07.16-.29.15-.17,0-.26-.32.25-.34-.04l.21-.17c-.11-.12-.18,0-.43.2-.18.07-.17-.26.02-.57-.15.17-.39.37-.4.23.07-.12.15-.17.19-.2-.04-.38-.59.17-.5-.26.07-.11.1-.18.12-.21.16.12.28.23.25.25.22-.31.12-.46.53-.8-.27.16-.82.53-.85.29.01-.03.03-.07.06-.12l.04-.02c0-.05-.06-.04-.12,0,0-.08,0-.14-.04-.17.16-.26-.06-.24-.12-.31-.23.34-.28.23-.39.56,0-.03.04-.03.1-.02.01,0,.03,0,.05-.01l-.02.02s.11.05.19.09c-.18.13-.33.24-.27,0-.19.19-.38.39-.47.48.23-.54.23-.91.41-1.23-.34.05-.58-.21-1.14.34-.11.04.06-.23.1-.35.08-.04.11,0,.19-.08-.23.08-.39-.18-.72.26-.01-.3.36-.36.11-.42l.12-.12c.06-.99-1.42.73-1.27-.49,0,.08,0,.11-.05.2-.26-.74-1.3-.3-1.41-1.27-.07-.22-.26.06-.49.23l.2-.4-.42.35c-.41.19.18-1.16-.46-.71l-.12.28c-.07-.11-.41-.03-.22-.32-.04.04-.19.25-.15.09l.11-.2-.45.2c-.11-.26.49-.78.23-.98-.15.01-.63.41-.67.57.03.04.03.19-.08.39l-.15.05c-.36.58-.77,1.15-.78,1.7l.37-.27-.12.32-.14-.06c-.08.31.1.1.25-.03-.07.16-.12.28-.12.36l.48-.48c-.12.24-.34.42-.31.61.23-.22.23-.56.46-.66-.08.31-.23.52,0,.34-.08.16-.15.24-.23.29.19-.14.25.04.47-.24-.12.38.32.07-.02.62.1-.12.4-.35.48-.33-.53.59.24.2-.22.89.46-.54.51-.06.89-.28-.04.04-.12.13-.11.09.07.11-.01.3-.02.45.31-.48.53-.5.8-.75-.18.55-.43.53-.68,1,.24-.4.45-.26.61-.62-.09.35,0,.19-.22.62.4-.6.15-.05.46-.38-.06.38-.33.59-.07.49-.05.23-.31.36-.31.36l.02.03Zm4,1.18h0s-.06-.01-.08-.02c.02,0,.04,0,.09.02h0Zm.28.19s-.06-.07-.11-.1c.07-.12.17-.24.19-.21-.07.07-.05.18-.08.31h0Zm1.05-2.75c.08-.01.05.06,0,.13-.02-.01-.06-.02-.11-.02,0,.01-.02.02-.03.04.05-.06.1-.12.14-.16Z"/><path class="cls-3" d="m232.48,261.31c-.97-.08-1.64-.25-2.4-.37-.76-.12-1.56-.18-2.59,0,2.53-.46-3.46-1.14-5.61-1.06.46-.06.18-.16-.09-.27-.27-.11-.55-.24.02-.33-1.09-.15-2.16-.26-2.93-.28-.77-.02-1.21.06-1.15.28-.38-.18-.81-.31-1.26-.43-.22-.05-.47-.11-.67-.14-.13-.03-.26-.05-.39-.07-.52-.06-1.03-.05-1.52-.03-.97.02-1.82.03-2.34-.66-1.9-.03-3.72-.09-5.49-.18-.42,1.23-1.19,2.33-2.38,3.19.74,0,1.53.04,2.43.26l-.79-.3c.4-.37,1.59.17,2.44.12-.12.34.37.53.7.8,0-.27,1.87.29,2.21-.37l1.08.62c1.02.24,1.65.08,2.26-.1.31-.09.62-.18.97-.22.09-.01.18-.02.27-.02.08,0,.17,0,.26,0,.15,0,.31.02.48.06-.56.31-.04.63-.93.78.08.01.15.02.23.04.03,0,.06.01.09.02.06.01.11.02.16.02.1,0,.18-.04.25-.15.03.11.29.03.63-.02.33-.06.76-.09.69.07.35-.11.96-.39,1.43-.3-.07.06-.3.13-.3.13.15-.07.44-.08.76-.12.3-.04.66-.11.77-.29-.13.32.07.47.52.57.44.1,1.17.15,1.78.22-.59.28-1.43.61-2.78.81-.39.3-1.18.77-1.92,1.14-.08-.08-.22-.1-.04-.14-.67.12-.51.33-.51.6,0,.27-.07.57-1.04.8-.6-.04-.38-.23-.1-.38.07-.04.14-.08.21-.11.04-.02.08-.05.11-.06.05-.04.04-.06-.08-.06-.1-.11-.14-.21-.26-.24-.11-.03-.24-.03-.38,0-.27.06-.57.24-.9.44-.66.4-1.42.92-2.2.9l.28-.2c-1.14.08-2.21,1.46-3.84,2.1,0,0,.04-.13-.07-.17-.57.69-1.65,1.4-2.74,2.05-.09-.09-.2-.17-.34-.23-.31-1.36.53-.71-.44-1.83-.1-.63.55-.02.75.17-.68-1.12-.86-.19-1.34-.27-1.06-1.44.01-.95,0-1.63-.72-.86-1.65-1.31-2.03-2.05.06-.11.02-.27.23-.17-.54-.4-.98-1.21-1.46-2.02-.31.13-.63.26-.94.39,0,0,0,.01,0,.02-.07.02-.15.04-.22.06-.47.18-.95.34-1.42.51.64.93,1.2,1.99,1.51,3.4-.08-.32-.13-.48-.06-.59.71,1.68,1.64,3.27,2.64,4.83-.85-.11-1.55.8-2.24,1l-.03-.29c-1.96.97-1.69,1.62-3.85,2.53l.3.1c-.88,1.15-1.14.08-2.09,1.07l-.65-.48c-.47.33-1.4,1.04-2.37,1.69-.09-.08-.18-.16-.27-.23.62-.5,1.33-1,1.84-1.42-.53.23-1.55.72-2.22,1.16-.97-.57-1.85-.62-2.04-1.26l.16.05c-2.25-1.19-.51.31-2.45-.21l-.32-1.82-.51.31c-.21-.16-.62-.47-.42-.6-1.02-.22,0,.29-.66.27-.78-1.09-3.03-1.7-2.8-2.57-.61.11.84.91-.45.43.15-.8-.86-.77-1.64-1.25-.19.09-.39.16-.59.25-.35.17-.71.3-1.06.42.31.36.7.78.47.8.97.1,1.04,1.06,2.43,1.19-.05.17.77.52.37.77,1.02.5-.06-.4.14-.53,1.79.46,3.05,2.82,5.59,3.54,1.47.67,2.21.72,3.23,1.05-.65.55-1.46,1.05-2.47,1.49-.29-1.36-4.11,1.46-5.65.99-2.49,1.66-5.43,2.19-8.53,3.66,1.55.47-.9.44-.26,1.34-.71.39-.99.5-1.08.46l-2.49.4c-.66-.05.6-.53.43-.72-1.64.64-.86-.12-2.04.09.38.26-.32.76-1.3,1.03l1.49-.12c-2,1.53-2.31.03-4.33,1.56l.57-.63c-1.08.7-4.27,1.9-5.04,3.2-.26-.02-.65-.17-.17-.47-1.41.56-2.85,1.46-4.24,2.27-.35.2-.69.4-1.03.59-.29.16-.59.31-.86.46-.25.14-.53.22-.67.14.05-.12.1-.24.13-.35-.07.07-.17.25-.3.4-.11.14-.26.25-.26.11.09-.17.25-.4.2-.4-.07.08-.25.29-.47.48-.21.19-.47.36-.47.28.21-.21.41-.4.58-.58-.04-.08-.15-.01-.36.12-.05-.02-.19.04-.33.05-.29.04-.56-.17-.39-.79.49-.14.9-.44,1.15-.58.05-.04.11-.07.17-.11l.07-.04s.01,0,.02-.01l.04-.06.07-.12c.2-.33.37-.64.51-.89l.09.08c1.43-3.08,1.7-5.54,2.71-8.54,1.58-1.43,3.1-5.86,4.9-8.48-.33.37-.53-.34-.35-.87.47-.59.41-2.07,1-1.65l-.12.23c.67-.14,1.11-1,1.52-1.86-1.81.12-3.5.01-5.1-.29-.27.55-.52,1.12-.71,1.64l-.23-.4c-1.18,2.21-2.13,4.82-3.31,7.37.58-.84,1.09-.35.8.41l-.67.06c.1.63.56-.69.5.48-.5.92-.9.37-.82-.26l-.35,1.24c-.19,0-.15-.31-.32-.47.11.62-1.44,1.77-1.18,2.71h-.19c-1.17,2.55-1.47,3.8-2.36,5.9.44.24,0,1.01.1,1.8l-.16.28c-.05.1-.1.16-.19.34-.16.31-.32.62-.49.94-.34.65-.69,1.33-1.05,2.06-.72,1.44-1.49,3.1-2.12,4.69-.26.98-.14.96.04.8.19-.16.44-.45.51-.24-.42.41-.91,1.35-1.31,2.1-.05.1-.1.18-.14.27-.02.04-.05.08-.07.12l-.03.06s.01,0,.01,0c.07,0,.1,0,.09.04-.01.03-.07.09-.2.18-.06.04-.14.09-.24.16-.02.02-.05.03-.08.05-.01,0,0-.02,0-.03v-.09l-.07.17s0,.02.02,0l.05-.02.09-.04c.12-.05.23-.11.35-.16.23-.11.44-.21.65-.3.42-.19.81-.37,1.17-.54.73-.35,1.4-.67,2.09-1,1.37-.67,2.93-1.47,5.17-2.67-.49.01-.97.14-.69-.15.37-.21.78-.34,1.11-.39.33-.05.58-.03.56.1l-.2.14c.3-.18.62-.35.92-.52.23-.13.41-.22.62-.33.41-.19.85-.37,1.3-.53.9-.32,1.85-.57,2.79-.82,1.86-.5,3.63-1,4.69-1.99l-.12.11,2.4-1.61c1.23-.46-.57.63.42.49,2.49-1.94,4.48-1.88,6.58-3.37,2.34.43,6.31-2.92,9.08-3.21l-.27-.22c.5-.56.83-.17,1.32-.31-.17-.19-.8.04-.48-.28,3.14-1.66,6.6-2.95,10.08-4.2.02,0,.03.01.04.02-.26,0-.16.23,0,.57.71.43.82-.2,1.57.63-.27.05-.65.17-1.08.1.89.43,1.88.7,2.79,1.16.04.4-.77.02-1.17-.02,1.01.54,2.56,1.47,3.13,1.28l-.37-.42c.05.17-.25.29-.49.21-1.02-.26-1.05-.94-.99-1.12l.65.33c0-1.26-2.46-1.53-3.62-2.4l.93-.26-1.01-.22c2.08-.75,4.16-1.48,6.18-2.27,2.01-.81.45-1.99,3.26-2.42l-.47.85c.66-.43,1.34-.81,2.04-1.18,1.24,1.89,2.44,3.8,3.31,5.82.67,1.33,1.11,1.23,1.88,1.8l-.27.57c.45.31.92.62,1.39.92,1.63,1.51,1.09,3.86,3.45,5.57l.08-.5c.27.42.78,1.02,1.17,1.53.4.5.68.92.45.98.11.04.5.03.59.45l-.21.2,1.88,1.63c1.01,1.61-1.08.46.62,2.65.73.73,2.48,1.76,2.38,1.34-.25-.33-.53-.94-.33-1.13l.71.63c.75-.39,1.86-.38.89-2.5l-1.39-.92v-.65l.85,1.02c-.18-.82-.74-.99-1.26-1.26.09-.23.06-.49-.06-.79l-1.58-.75c.14-.34.94.16.45-.77-.74-.35-.16.99-1.09.18-.16-.83.22-.83-.58-1.35.1-.23.32-.16.61.06-.7-.47-1.34-1.61-1.94-1.67-.09-.91-1.69-2.08-1-2.47-.3-.09-1.31-.78-1.76-1.35,1.54.54-1.52-2.25-.48-2.54-1.25-.34-2.3-2.72-3.65-3.92.11.05.33.13.38.28-.47-.86-.41-1.24-.61-1.85-.66.27-1.62-.93-2.43-1.4-.06-1.37,1.09.19,1.44-.48-.26.2-.73-.29-1.12-.65,2.42-1.08,4.89-2.06,7.07-3.42-.18.22-.11.39-.5.56,1,.02,3.07-1.34,2.93-1.67.05-.02.1-.04.14-.05.05-.02.1-.04.14-.05.08-.02.15-.04.2-.04.1,0,.14.02.17.06.06.08.07.2.47.12.85-.24,1.76-.8,2.49-1.25.74-.45,1.33-.82,2.04-.9.16-.02.01.1-.18.22,1.15-.64,4.32-1.87,2.58-1.58,1.52-.55,2.66-1.12,3.68-1.62,1.03-.51,1.94-.96,3.45-1.48-.1-.07.01-.18.26-.32Zm-41,14.63c-.04.06-.1.1-.15.16-.04-.02-.08-.05-.11-.08.08-.04.17-.07.26-.08Zm-.7.96c.07.02.14.05.22.08-.2.12-.39.24-.58.35.1-.14.22-.28.36-.42Zm10.81-5.43l1.17-.55c.15.24.31.48.46.72-.57.04-1.35.14-1.63-.17Z"/></g></svg>