<?xml version="1.0" encoding="UTF-8"?><svg id="Layer_2" xmlns="http://www.w3.org/2000/svg" viewBox="0 0 227.11 225.92"><defs><style>.cls-1{fill:#fff;}.cls-2{fill:#a7dff1;}.cls-3{fill:#4eb6ce;}</style></defs><g id="shapes"><path class="cls-1" d="m88.96,5.41C48,18.78,17.12,77.24,8.04,110.13c-8.32,23.05-12.02,45.5-2,63.6,10.02,18.1,83.17,62.92,140.4,49.83,57.23-13.09,95.62-116.24,75.08-169.05C200.97,1.7,129.91-7.97,88.96,5.41Z"/><path class="cls-2" d="m160.97,182.41c-.68.03-.28.67-.4,1.06-.8.24-.41-.46-.71-.79-.5.21-.85.85-1.23.85-.04-.11-.11-.14-.04-.28-.5.56-1.6.13-2.18.83-.05-.05-.08-.11-.09-.16.12.32.16.66.16.91-.31.03-.54.46-.68.03.19,0,.19-.17.27-.32l-.31.21c-.33-.61.43-.25.4-.71-.61.25-1.31.81-1.8.67-.14-.61,1.11-.28.43-.78l.76.19c-.63-.92.46.04-.13-.96-.98-.11-1.07.38-2.06.26-.2.35.1.5-.1.85-1.35.69-1.18-1.47-2.15-.6-.24.42-.29,1.2-1.04.83l.2-.7c-.95-.01-.48,1.03-1.5.62.16-.28.73-.27.58-.35-.67-.51-.43.42-.92.44l-.14-.61c-1,.16-2.08.66-3.19.84.05-.19.23-.39-.04-.56-1.39.39-3.01.1-4.38-.2l-.49.55c-.12,0-.23-.23-.11-.34-.54-.17-.01.34-.25.56-.3.05-.41-.28-.23-.45-.91.49-2.61,1.1-3.62.58l.19-.17c-.77-.17-.81,1.13-1.55.67l.13-.1c-1.67-.14-3.49.43-4.79-.31-.2.77-1.66-.27-1.72.8-.97-.49-.71-.68-2.06-.98-.36-.04-.5.68-.94.82l-.04-.55-.58.61-.35-.65-.41.16c.17.02.36.23.34.4-.64.28-1.59-.32-1.62-.6l-1.51.53c.02-.22.28-.31.47-.46-.79.6-.17-.58-.9-.02.11.12-.04.33-.05.44-.38-.32-1.24-.29-1.86-.13l.11-.38c-1.14-.05-2.39.27-3.66.31.46.16.38.83.01.91l-.17-.58c-.23.37.4.2-.08.67-.48-.05-.34-.65-.08-.86l-.57.22c-.04-.17.09-.27.12-.5-.22.37-1.02-.55-1.34.09l-.04-.17c-1.27.04-1.84.26-2.88.33,0,.5-.41.41-.71.83-.77-.14-1.63-.52-2.54-.44-.64.27-.17.43-.46.74-.06-.46-.98-.39-.51-.73-1.1.11-1.4.13-2.79.55.16.19.33.26.25.42-.25.08-.58-.18-.55-.4l.07-.05c-1.55.73-3.65-1.24-4.87-.25l.07-.05-1.28.53c-.59-.07.35-.35-.1-.63-1.38.8-2.21-.07-3.34.47-.92-1.34-3.15.16-4.37-.68l.07.32c-.31.32-.38-.17-.61-.25.04.25.34.28.15.46-2.62.44-5.43-.4-8.12-.64-.98-.07-.54,1.66-1.79.91l.35-.6c-1.98.74-4.06.02-6.01.63.11-.14.12-.32.31-.31-.41-.43-1.52-.01-1.52.34-.31-.04-.07-.32-.26-.5-.41-.25-1.03.56-1.25.13-.04-.07.11-.14.19-.17-.27.21-1.25-.05-.99.45-.73-.23-1.4.23-1.98-.07-.38.56-1.25-.26-1.37.53.05-.82-1.28-.65-1.75-.27.16-.25-.4-.26-.22-.59-.53.01-1.01.16-.92.58-.97-.98-1.96.78-2.5-.47-1.57.43-3.02.73-4.43.91.05-.81,1.56-.08,1.5-.93-1.34.33-2.11,1.03-3.44.83-.34-.11.2-.35.31-.49-1.34.33-2.58-.1-3.77.34,0-.08.13-.16.25-.22-.23.02-.55-.13-.52.25l.23-.1c.37.54-.94,1.11-.98,1.39.41-1.06-1.17-.28-.53-1.61-.16.07-.35.24-.32.49-.23-.07-.3-.22-.07-.5-.84.19-.55.59-1.31.57,0-.18.16-.25.24-.46-.39.34-.78.69-1.42.53.04-.11-.04-.25.16-.25-1.1.04-1.89.91-3.1.56.37-.77-.41-.26-.46-.93l-.65.19.26.33c-.57-.02-1.08.46-1.57.23l.43-.27-1.07.11.6.26c-.58.34.05.85-.71.65.16-.07-.57-.02-.86-.42-.29.21-.58.43-1,.25-.11-.22.1-.74.03-.89-.29.56-1.34.13-1.7.73.12-.14.13-.49.1-.56l-.24.45c-.26-.15-.3-.22-.25-.5-.79-.1.23.86-.7.47.07-.04.04-.1.2-.17-.94-.21-1.84.26-2.7.02-.24-.68.76-.15.48-.73-1.25.1-2.62.76-3.83.57l.22.08c-.19.95-.89-.49-1.52-.06.15-.07.21-.52.17-.42-.83-.17-1.7.19-2.97.46l.16-.24c-.49-.23-1.28-.16-1.81-.28-.16.24-.47.19-.29.55-1.59-1.44-3.14.68-4.55-.54.17,0,.42-.2.28-.2l-1.24.19c.08.42.16.26.4.59-.16.24-.52.42-.82.41.56-.26.02-.67-.22-.91.04.13-.05.26-.04.4-.62-.76-.13.83-1,.31l.05-.22c-.33.1-.65.38-1,.31-.13-.49.36-.21.4-.61-.5.01-1.01.88-1.45.38.22-.13.52-.12.74-.25-.47-.58-.53-.44-.89-.54h.04s-.83-.27-.83-.27l.21.16c-.67,1.24-1.28.19-2.15.98.85-.75.15-.44.23-.99-.21-.16-.53-.34-.43-.49-.41.43-.65-.37-1.24.26-.02-.17-.43-.03-.32-.47-.52.12.11.31.06.53-.82.58-1.84-.8-3.02-.02-1,.3-1.21.88-2.14,1.14-.3-.29.28-.63.28-.63-.49-.28-.86-.25-1.34-.07.1-.15,0-.28-.13-.49-.38.03-.28.63-.77.35.1-.19.22-.5.41-.69-.45.14-.91.45-1.37.59-.11-.31.3-.45.47-.64-.52.11-1.35.22-1.53.7l.32.19c-.19.02-.08-.42.07-.5.46-.36.63.19.65.37l-.33.1c.29,1.04,1.33-.11,1.98-.02l-.31.74.7-.59c.14.2.22.62-.11.72.46.39.43-.25.82.18.04.07.02.1-.02.13l.47-.2c-.1.16.05.53-.22.41.82.47,1.36-.5,1.65.07l-.07.04c1.16-.2.13-.55,1.02-1.15l.53,1.38.13-.55c.12.02.35.08.3.29.46-.36-.07-.24.2-.59.55.53,1.58-.17,1.68.7.22-.41-.53-.34.08-.61.14.95.71-.14,1.22.31-.18.48-.67.2-.16.66.34-.81,1.01.22,1.46.07.04-.65.97-.24,1.72-.43-.05.22,1.38.41,2.06.67l-.02.11c.16-.65.86-.51,1.38-.63-.03.4-.13.55-.41.71h.49c.12-.2.28-.3.59-.37l-.14.49c.65,0,1.32-.53,2.14-.18.06-.46-.62-1.3.26-1.58.02.25.05.68-.19.77.08-.03.28-.2.43-.09l-.37.41c.37.19.21-.34.51-.3-.02.35.22.26.17.54-.08.03-.26-.16-.38-.02.34.07.75.29.88.56-.02-.2.01-.48.26-.52.65-.01.21.43.58.62.16-.24.57.02.59-.51.19,0,.22.26.29.4.34-.23,1.57-.03,1.21-.6l-.08-.04s.04-.01.05-.02c1.11-.5,2.27.36,3.37.16v.18c.65-.19,1.45-.08,1.91-.46.19,0,.44.34.36.55.5-.12.56-.32,1.27-.01-.5.3.17.28-.52.22.64.17.78.46,1.49-.02-.25.45.47.58.79.45l-.44-.34c.35-.06.65-.01.95.03l-.18.59c1.31.75,2.41-1.19,3.39.04.36-.41-.71-.31-.39-.79.61.09,1.22.96,1.42.97.83.35.79-.86,1.66-.62-.11-.22-.2-.79.45-.98.61.09.73.91.35,1.07-.14.02-.22-.05-.21-.13-.2.07-.46.16-.22.4l.08-.21c.3.22,1.13.22.94.56.46-.2.2-.35-.14-.46.77.32,1.22.04,2.02.25-.13-.12-.24-.37-.11-.37,1.18.28.52-.4,1.33-.49.45.33-.17.77.64.51.49.23.1.57-.1.74.74-.4,1.37.28,1.78.37l-.39.17c.23-.1.42-.1.61-.09l-.22-.43c.23.08.42.08.41.26.23-.28-.17-.71.29-1.09.3.22.92-.22,1.02.34-.95-.2.1.57-.71.65.16-.07.35-.06.57.02.04.07-.04.12-.1.15.91.52.43-.64,1.37-.61-.12.32.21.61.37.54-.38-.01-.17-.53.17-.77.6.26.66-.18.97-.14l-.36-.12c.13-.32.43-.27.85-.37.04.25-.38.17-.23.28.47-.56,1.05.59,1.7.22.3.22.02.6.29.75.73-.41.79.44,1.56.1-.22-.43-.26-.32.28-.74l-1.27.3.82-.62c-.38,0-.8.27-1.03.19.39-.35.35-.24.17-.6.52.65,1.04-.37,1.63.07l-.02,1.06c.91.47,1.61-.54,2.79-.27l-.38-.19c.16-.42.73-.05,1.11-.23-.04.35.2.49.37.71-.02-.26.86.02.97-.68l.52.47c.95.19,1.09-1.01,2-.89-.28.38.14.64-.47.91.31,0,.58.07.58-.17.18.22.85-.47,1.13-.14.13-.16.17-.53.51-.5.04.07,0,.17,0,.17,0-.17.53-.24.23-.63.94,1.1,2.62-.1,3.44.85.67-.12,1.46-.24,2.07-.27-.04.11,0,.18-.11.14.83.32.5-1.02,1.46-.66.49.57-.5.31-.2.53.14,1.17,1.14-.17,1.79.52l-.16.07c.49.4,1.19-.45,1.99-.37,0,0-.04.1,0,.17.54-.59,1.57-.8,2.33-.98-.23.46-.35.25-.2.71.34-.07-.11-.74.58-.88.23.25.72.46.79.95l-.65.04c.34.64.84-.03,1.18.07l-.04.28c.99-.1,1-.81,2.06-.77l-.11-.21c.58-.71.49.39,1.07-.14l.19.71c.38-.17,1.34-.7,2.02-.85-.38.53-1.18.81-1.68,1.13.38,0,1.3-.07,1.49-.42-.15.07-.34.25-.5.14.46-.56,1.07-.85,1.83-.85-.11,1.38,1.98.32,2.55,1.38,1.33-.53,2.67.16,4.23.05-.58-1.06.46-.04.34-1.14.36-.08.5-.06.53,0l1.12.64c.27.32-.34.25-.3.5.8.07.34.46.88.74-.11-.39.26-.57.73-.43l-.65-.49c1.1-.61.98.91,2.09.3l-.35.35c.57-.22,2.13-.04,2.67-.94.11.13.25.42,0,.51,1.38.1,3.04-1.03,4.13-.51l-.1.27c.25-.08.43-.52.76-.26-.01.11-.1.27.02.28.13-.1.67-.49,1.01-.34l-.28.31c1.36.31,2.04-.79,3.16-1.01.02.79,1.09,1.02,1.62,1.13v.11c1.55.04,2.63-.75,4.06-1.11.93.83,3.06.25,4.52.68-.23-.14.01-.62.26-.71.35.15.92-.58.89.14h-.12c.28.69.97.48,1.52.47l.05-.95c1.48,1.32,3.71-.67,4.54.53.34-.25.76-.27,1.09-.52v.51c.96.09,1.44.13,2.61-.04l-.22.37c.67,0,.77-1.51,1.38-1.56l.22.75c1.16-.06,2.36.55,3.47-.2-.01.11-.04.34-.22.37.55,0,2.14.41,1.88-.62.05.68,1.2,0,1.81-.32l-.07.5c.49-.67.5-.84,1.23-1.06.18.05.17.4-.07.28.59.23.43-.5,1.15-.26l-.25.34c.6,0,.55-.16.85-.55.37-.22,1.14.07,1.25.52.07-.28.37-.67.73-.55.05.17-.07.28-.13.34,1.02.29,1.45-.67,2.17-.22.02.16.07.25.13.29-.8.04-1.43.04-1.38,0,.02.46.67.5.2,1.17.5-.38,1.34-1.19,1.97-1.01.03.04.07.08.09.16l-.06.05c.14.04.28-.01.39-.1.2.07.34.11.53.11.1.38.75.16,1.07.16-.05-.5.37-.45-.05-.84.05.03-.06.07-.27.1-.05.02-.1.03-.13.06,0-.01.01-.03.02-.05-.21.02-.48.05-.79.08.24-.27.49-.5.86-.25.14-.34.31-.68.4-.84.48.68,1.34,1.01,1.49,1.44.96-.34,2.29-.32,2.85-1.31.27-.14.34.25.45.4-.16.1-.35.1-.43.24.54-.28,1.64-.19,1.73-.86.72.26-.35.64.6.47l-.12.21c1.96.94,2.96-1.9,5.15-.67-.15-.07-.23-.11-.26-.22,2.43.44,4.88-.88,7.31-.1.68.14.73-.29,1.11-.64l.19.53.65-.68c.96-.53,1.81,1.21,3.01.25l-.19-.35c.46.04,1.41-.32,1.37.1.04-.07.12-.39.31-.22l.04.28,1.07-.57c.88.14-.05,1.13,1.21,1.1.46-.14,1.26-.92,1.07-1.1-.19,0-.49-.14-.53-.43l.41-.18c.01-.84.27-1.72-.82-2.23l-.69.56-.26-.39.61-.07c-.38-.35-.57,0-.8.25-.07-.21-.19-.35-.34-.43l-.65.85c-.11-.32.27-.67-.22-.82-.31.4.38.71-.16,1-.38-.35-.3-.67-.68-.32-.07-.21,0-.35.16-.46-.34.28-.95.18-1.11.64-.4-.44-1.22.21-1.24-.58-.1.2-.59.67-.92.73.54-.99-1.25.04-1.16-.99-.39.89-1.6.5-2.37,1.03.04-.07.12-.22.19-.17-.46-.04-.61-.28-.91-.43,0,.71-.7.91-1.04,1.37-.6-.64.28-.85.06-1.49.07.57-.92.63-.7,1.1-.45-.39-.38-.18-.64-.75-.01.88-.38.17-.7.74-.64-.4-.21-.82-.86-.5-.34-.25.24-.6.24-.6v.06Zm-15.86,2.51h0c.14-.03.25-.05.33-.06-.07.01-.16.03-.33.06Zm-1.34.08c.16.01.37,0,.58-.01.05.17.02.35-.12.35.07-.12-.26-.2-.46-.34h0Zm3.04,3.34c-.21.08-.29-.01-.32-.11.1-.01.22-.04.37-.08,0-.02.02-.04.02-.07-.01.1-.03.19-.07.26h0Z"/><path class="cls-3" d="m20.12,189.01c-.54-.45-1.03-.95-1.44-1.52-.18.17-.46.29-.71.28.56-.26.02-.67-.22-.91.04.13-.05.26-.04.4-.62-.76-.13.83-1,.31l.05-.22c-.33.1-.65.38-1,.31-.13-.49.36-.21.4-.61-.5.01-1.01.88-1.45.38.22-.13.52-.12.74-.25-.47-.58-.53-.44-.89-.54l-.8-.27.21.16c-.67,1.24-1.28.19-2.15.98.85-.75.15-.44.23-.99-.21-.16-.53-.34-.43-.49-.41.43-.65-.37-1.24.26-.02-.17-.43-.03-.32-.47-.52.12.11.31.06.53-.82.58-1.84-.8-3.02-.02-1,.3-1.21.88-2.14,1.14-.3-.29.28-.63.28-.63-.49-.28-.86-.25-1.34-.07.1-.15,0-.28-.13-.49-.38.03-.28.63-.77.35.1-.19.22-.5.41-.69-.45.14-.91.45-1.37.59-.11-.31.3-.45.47-.64-.52.11-1.35.22-1.53.7l.32.19c-.19.02-.08-.42.07-.5.46-.36.63.19.65.37l-.33.1c.29,1.04,1.33-.11,1.98-.02l-.31.74.7-.59c.14.2.22.62-.11.72.46.39.43-.25.82.18.04.07.02.1-.02.13l.47-.2c-.1.16.05.53-.22.41.82.47,1.36-.5,1.65.07l-.07.04c1.16-.2.13-.55,1.02-1.15l.53,1.38.13-.55c.12.02.35.08.3.29.46-.36-.07-.24.2-.59.55.53,1.58-.17,1.68.7.22-.41-.53-.34.08-.61.14.95.71-.14,1.22.31-.18.48-.67.2-.16.66.34-.81,1.01.22,1.46.07.04-.65.97-.24,1.72-.43-.05.22,1.38.41,2.06.67l-.02.11c.16-.65.86-.51,1.38-.63-.03.4-.13.55-.41.71h.49c.12-.2.28-.3.59-.37l-.14.49c.44,0,.89-.24,1.39-.29Z"/></g></svg>