<?xml version="1.0" encoding="UTF-8"?><svg id="Layer_2" xmlns="http://www.w3.org/2000/svg" viewBox="0 0 1014.86 404.82"><defs><style>.cls-1{fill:#fff;}.cls-2{fill:#4eb6ce;}</style></defs><g id="shapes"><path class="cls-1" d="m836.6,371.28c23.64-2.25,68.84-73.17,65.05-112.72,10.23-46.99-11.13-168.05-31.6-187.97C849.59,50.68,698.03-3.77,637.96.21c-60.08,3.98-217.88,100.86-180.09,276.78,29.36,136.65,188.68,106.88,221.14,123.95,32.46,17.06,133.95-27.4,157.59-29.65Z"/><path class="cls-2" d="m203.47,140.72c.28-.34-.43-.62-.7-.97.2-.57.58.15.99.26.07-.37-.25-1.03-.05-1.21.1.07.17.07.24.21-.16-.67.73-.79.57-1.62.07.03.12.06.16.1-.3-.23-.56-.5-.73-.71.16-.16,0-.63.38-.32-.11.08,0,.24.06.39l.04-.31c.61.39-.08.39.26.78.16-.47.23-1.23.62-1.3.47.49-.48.68.25.87l-.57.12c.99.58-.29.14.73.79.64-.24.34-.75,1-.96-.1-.39-.37-.42-.46-.82.42-1.14,1.57,1,1.65-.13-.09-.48-.45-1.26.23-1.12l.22.75c.61-.24-.21-1.17.66-1.02.02.32-.35.46-.22.5.68.33.08-.53.4-.69l.36.58c.57-.41,1.09-1.17,1.8-1.57.03.21-.02.45.23.58.81-.67,2.04-.62,3.05-.45l.21-.66c.09-.01.22.22.15.35.41.13-.07-.37.06-.64.2-.09.35.27.26.47.52-.63,1.67-1.44,2.48-.91l-.11.19c.57.16.46-1.29,1.05-.8l-.09.11c1.22.1,2.55-.52,3.51.33.15-.85,1.21.34,1.27-.83.71.58.51.78,1.47,1.19.26.06.4-.73.73-.84v.62l.45-.63.2.75.3-.14c-.11-.04-.23-.29-.21-.47.49-.26,1.09.51,1.07.82.36-.14.73-.27,1.1-.4-.06.24-.24.3-.4.44.63-.55,0,.65.58.16-.04-.15.09-.36.13-.48.19.41.71.51,1.14.46l-.18.39c.64.27,1.44.22,2.16.58-.17-.3.19-.95.45-.9l-.2.63c.32-.29-.12-.33.39-.63.26.22-.16.75-.4.86l.43-.03c-.07.18-.2.23-.34.44.34-.28.21.86.75.38l-.09.18c.67.42,1.08.49,1.61.88.37-.42.49-.16.96-.37.25.51.36,1.18.77,1.61.49.14.44-.22.82-.28-.37.36.06.79-.43.78.54.5.63.67,1.52,1.22.13-.2.13-.35.32-.39.17.11.02.46-.2.57h-.07c.59.26.61.99.54,1.66-.03.67-.12,1.26.52,1.47l-.07-.03c.27.21.57.41.82.65.03.42-.44-.12-.65.27.53.32.63.7.65,1.06,0,.36-.02.7.34,1.03-.67.44-.6.94-.42,1.47.16.53.34,1.12-.11,1.53l.35-.06c.36.2-.2.26-.28.41.28-.02.32-.23.51-.1.46,1.81-.74,3.66-1.53,5.17-.29.55,1.63.91.57,1.43l-.55-.45c.15.74-.12,1.39-.44,1.99-.17.3-.33.59-.46.91-.15.3-.26.63-.29,1-.09-.15-.26-.25-.19-.36-.54,0-.56.85-.25,1.07-.16.15-.32-.16-.56-.17-.39.06.1.94-.38.77-.08-.03-.07-.15-.08-.22.08.29-.58.62-.03.83-.51.22-.42.91-.95.98.27.61-.79.43-.23,1.1-.62-.66-1.15.09-1.09.63-.1-.27-.39-.02-.56-.39-.27.24-.41.58-.06.9-1.18-.4-.54,1.54-1.68.67-.58,1.03-1.28,1.86-2.06,2.54-.41-.81.91-.64.39-1.42-.59.78-.71,1.74-1.67,1.97-.27,0-.05-.41-.05-.59-.33.39-.76.55-1.17.72-.4.18-.79.35-1.11.72-.03-.08.03-.2.08-.29-.14.09-.4,0-.25.39l.11-.16c.47.46-.2,1.4-.14,1.71-.11-1.2-.91-.02-.94-1.57-.08.11-.15.33-.04.58-.18-.03-.28-.17-.21-.51-.5.39-.17.74-.7.9-.05-.19.03-.3.02-.54-.15.46-.33.88-.82.84,0-.12-.09-.26.04-.29-.74.25-1.11,1.32-2.06,1.09.12-.89-.34-.24-.49-.97-.14.1-.28.2-.43.28l.23.34c-.41.03-.71.62-1.09.41l.28-.34c-.25.08-.5.14-.76.21l.46.25c-.39.41.12.94-.46.77.11-.09-.43.03-.67-.41-.2.24-.41.5-.73.32-.08-.24.05-.83,0-.98-.2.64-.96.16-1.24.83.09-.15.11-.55.08-.63l-.19.5c-.19-.17-.21-.25-.17-.56-.57-.13.14.96-.53.51.06-.04.04-.11.15-.19-.67-.24-1.37.21-1.98-.12-.08-.77.57-.1.44-.76-.88.01-2,.61-2.82.2l.14.12c-.38,1-.51-.66-1.06-.31.13-.04.3-.52.24-.42-.52-.33-1.23-.1-2.21-.15l.21-.21c-.24-.36-.8-.48-1.09-.77-.22.2-.4.06-.45.47-.19-.96-.75-1.03-1.34-1.11-.59-.07-1.2-.17-1.24-.99.1.07.38-.02.3-.08-.29-.09-.57-.21-.85-.33-.23.41-.09.29-.16.69-.26.14-.6.14-.78,0,.52.03.46-.58.5-.88-.07.13-.22.21-.3.33.18-.93-.67.65-.8-.21l.19-.16c-.26-.07-.66.01-.8-.23.3-.46.36,0,.68-.3-.27-.23-1.23.19-1.09-.42.22,0,.38.17.59.18.2-.7.06-.61-.05-.87v.03l-.17-.64-.03.23c-1.36.57-.78-.53-1.88-.47,1.06-.04.46-.22.98-.55.04-.22.06-.51.23-.56-.56.05.06-.59-.75-.52.15-.12-.15-.26.3-.47-.31-.22-.25.25-.47.36-.43-.06-.43-.46-.46-.85-.02-.41-.07-.8-.66-.96-.61-.49-1.3-.35-1.84-.9.21-.32.73-.07.73-.07.15-.45,0-.67-.31-.94.18.02.3-.09.48-.25-.12-.24-.73.02-.56-.4.23,0,.59,0,.83.05-.27-.24-.69-.46-.92-.75.31-.15.55.09.78.14-.22-.31-.5-.84-1.03-.88l-.16.27c-.04-.13.45-.15.56-.07.48.23-.09.48-.28.54l-.17-.21c-1.07.48.38.93.46,1.38l-.86.03.8.29c-.18.17-.6.38-.79.18-.29.48.38.21.05.66-.06.06-.1.05-.14.03l.36.26c-.19,0-.53.26-.49,0-.23.81.97.75.49,1.22l-.07-.03c.63.71.58-.16,1.52.12-.38.35-.76.71-1.14,1.09l.58-.21c.02.09.07.28-.16.37.54.1.2-.18.65-.2-.25.66.83.9.09,1.51.48-.12.06-.55.6-.33-.79.69.45.35.29.95-.52.23-.5-.28-.66.35.89-.34.34.77.7.95.57-.45.73.39,1.31.66-.2.13.47,1.08.73,1.63l-.09.08c.57-.47.89,0,1.32.14-.29.33-.46.42-.76.43l.31.25c.22-.12.39-.14.64-.05l-.41.37c.45.31,1.23.11,1.59.78.3-.42.35-1.46,1.1-1.4-.13.25-.36.66-.57.66.07,0,.3-.08.34.08l-.48.25c.15.33.34-.25.52-.08-.21.33,0,.33-.19.58-.07,0-.09-.25-.25-.17.19.21.36.59.31.89.09-.21.27-.46.47-.41.47.22-.07.5.1.83.24-.18.41.23.68-.3.14.07.04.33.02.5.36-.11,1.19.47,1.16-.23l-.05-.06h.05c1.01-.21,1.55.99,2.47,1l-.06.19c.56-.06,1.15.19,1.6-.14.14.04.26.44.15.65.42-.06.5-.28,1,.16-.45.26.08.33-.45.17.47.27.55.61,1.18.15-.27.47.3.69.57.58l-.31-.41c.28-.03.52.04.76.11l-.21.65c.5.46,1.03.17,1.5-.09.47-.24.88-.44,1.28.24.29-.46-.58-.34-.31-.88.47.1.99,1.06,1.15,1.05.7.34.61-.97,1.31-.77-.11-.23-.22-.86.27-1.12.47.06.67.95.38,1.16-.12.03-.18-.04-.18-.12-.15.1-.35.21-.14.46l.05-.24c.26.23.94.14.82.54.35-.27.12-.41-.17-.5.67.27.98-.09,1.66.03-.12-.11-.26-.38-.16-.39.98.15.34-.5.94-.72.42.29.03.87.61.45.44.16.21.6.09.82.5-.56,1.17.03,1.54.04l-.27.26c.16-.16.32-.19.47-.23l-.3-.42c.2.04.36,0,.41.19.11-.35-.34-.73-.09-1.23.3.16.63-.46.89.11-.8.02.27.58-.34.87.1-.11.25-.15.46-.13.05.06.01.13-.03.18.9.31.13-.78.86-1,.02.37.39.57.48.46-.3.1-.33-.51-.16-.86.56.09.43-.38.68-.44l-.32-.02c-.03-.37.21-.41.48-.63.13.25-.21.28-.06.35.11-.71,1.03.26,1.35-.33.32.12.3.6.57.66.35-.66.8.15,1.21-.48-.38-.34-.35-.23-.18-.84l-.76.76.28-.92c-.27.13-.44.56-.64.57.11-.49.13-.37-.17-.66.68.46.54-.74,1.18-.52l.54,1.05c.91.09.85-1.17,1.8-1.42h-.37c-.14-.47.45-.38.6-.71.2.34.44.36.69.49-.18-.23.6-.38.2-1.07l.65.16c.76-.3,0-1.41.64-1.77.11.47.54.47.36,1.03.19-.16.41-.25.24-.46.27.09.17-.84.59-.71-.04-.2-.3-.53-.08-.69.08.04.13.14.13.14-.13-.14.12-.49-.35-.64,1.42.38,1.37-1.52,2.59-1.3.24-.51.55-1.08.81-1.48.08.1.16.12.07.17.69-.34-.68-1,.08-1.37.75.04.06.52.39.46.57.33.67.11.74-.19.06-.31.08-.68.54-.71v.15c.59-.12.09-1.08.45-1.61,0,0,.09.08.17.09-.37-.7-.22-1.52-.17-2.15.4.37.14.36.66.45.04-.28-.79-.25-.72-.8.33-.05.7-.33,1.23-.19-.04.17-.1.34-.16.5.78,0,.22-.66.42-.87l.28.14c.16-.83-.55-1.05-.3-1.87l-.25.03c-.65-.64.52-.27.06-.86l.81.03c-.11-.35-.57-1.22-.62-1.76.53.38.72,1.08.99,1.55.06-.31.12-1.07-.24-1.29.06.13.22.32.08.42-.55-.48-.77-.98-.72-1.58.76.13.89-.27.98-.74.08-.47.08-1.01.68-1.24-.56-1.1.17-2.24-.12-3.56-1.11.64-.09-.37-1.28-.1-.11-.28-.13-.39-.05-.43l.53-1.03c.3-.29.32.22.59.14-.05-.68.45-.39.66-.92-.4.19-.66-.08-.62-.5l-.39.67c-.88-.72.76-1.07-.14-1.81l.45.17c-.35-.4-.63-1.77-1.73-1.81.09-.13.35-.38.52-.21-.2-.56-.69-1.07-1.18-1.5-.5-.44-.88-.86-.9-1.4l.3-.09c-.2-.14-.69,0-.59-.4.11-.06.3-.1.25-.19-.15-.04-.76-.17-.79-.51h.41c-.18-.59-.66-.8-1.14-.94-.47-.15-1-.18-1.41-.43.63-.6.19-1.49-.09-1.89l.09-.08c-1.02-1-2.29-.91-3.52-1.21-.2-1.24-2.18-1.58-3.3-2.41.15.21-.22.65-.46.68-.25-.25-.92.41-.7-.37l.1.04c-.05-.83-.71-.74-1.17-.83l-.23,1.03c-.48-.85-1.3-.8-2-.68-.71.11-1.32.28-1.61-.42-.28.26-.62.25-.89.51l.02-.57c-.76-.16-1.14-.22-2.08-.07l.18-.41c-.54-.02-.63,1.65-1.1,1.7l-.18-.84c-.91.06-1.93-.61-2.77.25,0-.12,0-.37.15-.42-.44.02-1.78-.36-1.46.77-.12-.75-.97.06-1.4.49l-.02-.56c-.29.78-.27.96-.8,1.27-.15-.04-.21-.41,0-.31-.51-.19-.24.59-.85.42l.13-.39c-.48.06-.4.24-.55.71-.23.29-.9.08-1.1-.38.02.31-.12.78-.42.72-.09-.17-.03-.31,0-.38-.89-.14-.93.98-1.62.63-.07-.17-.14-.25-.2-.28.61-.19,1.11-.33,1.08-.28-.15-.49-.69-.41-.5-1.22-.3.51-.7,1.52-1.25,1.49-.04-.04-.08-.07-.13-.14l.03-.07c-.13,0-.21.08-.27.19-.18-.02-.31-.04-.46.01-.22-.37-.65.03-.9.12.25.5-.1.56.38.85-.05-.02.02-.08.17-.17.03-.03.07-.06.08-.1v.05c.15-.08.35-.19.58-.29-.08.34-.18.65-.56.48.02.38.05.78.05.97-.64-.58-1.44-.64-1.75-1.03-.58.64-1.59,1.1-1.45,2.27-.11.23-.38-.12-.54-.21.05-.16.19-.23.17-.39-.25.46-1.07.84-.72,1.5-.65.06-.14-.74-.7-.18l-.05-.24c-.97.01-1.2.79-1.38,1.54-.21.75-.37,1.46-1.5,1.55.15-.02.22-.04.32.03-.89.48-1.43,1.36-1.91,2.23-.49.87-.94,1.72-1.85,2.34-.45.39-.04.67.15,1.11l-.6-.14.41.79c.09.46-.36.65-.79.9-.43.25-.77.6-.45,1.22l.43-.03c-.19.33,0,1.17-.46,1.02.07.05.39.2.16.3l-.31-.04c.11.33.27.66.41.97-.3.67-1.26-.26-1.4.81.1.42.87,1.15,1.09,1,.02-.15.21-.38.53-.38l.15.33c.93.08,1.87.26,2.55-.4l-.55-.51.46-.12v.4c.43-.2.06-.36-.17-.55.24-.01.42-.06.52-.14-.28-.18-.55-.38-.83-.58.37,0,.69.31.93.04-.37-.28-.85.08-1.05-.33.47-.16.79-.02.49-.36.24.01.38.1.46.22-.23-.29,0-.64-.44-.88.57-.1.1-.84.93-.56-.19-.13-.51-.61-.47-.85.85.75.35-.77,1.37-.23-.38-.31-.37-.61-.29-.9.09-.29.24-.58.14-.95.05.06.16.19.09.21.21-.23.5-.17.76-.24-.66-.43-.56-.93-.83-1.42.84.09.64.7,1.33.99-.56-.33-.17-.88-.68-1.07.55.03.33-.08.94.18-.76-.61,0-.32-.32-.86.64-.04.79.48.84-.06.36.02.39.55.39.55h.13Zm7.85-7.57h0c-.09.06-.16.1-.21.13.04-.03.1-.06.21-.13Zm.91-.33c-.12.02-.26.06-.41.11-.1-.17-.13-.37-.03-.39,0,.14.25.17.44.28Zm-3.45-2.85c.13-.14.23-.07.3.03-.07.04-.15.1-.26.19v.07c-.03-.11-.05-.21-.05-.29h0Z"/><path class="cls-2" d="m151.55,181.07c.12-.32-.64-.37-1.03-.56-.07-.49.58-.03.98-.04-.1-.3-.67-.73-.56-.91.12.03.17.01.3.11-.44-.49.3-.78-.21-1.4.07,0,.13.02.18.04-.35-.12-.7-.28-.93-.41.06-.17-.26-.51.2-.35-.06.09.1.19.21.3l-.1-.26c.69.18.09.33.55.57-.05-.4-.34-1.06-.02-1.19.61.31-.12.65.58.66-.14.07-.29.14-.42.22,1.08.25-.18.17.96.48.41-.33-.02-.66.42-.97-.25-.31-.49-.28-.73-.59-.1-1.03,1.71.55,1.31-.41-.26-.38-.88-1-.27-.99l.48.61c.38-.29-.62-.97.12-.98.14.28-.1.45.02.47.66.19-.14-.47.05-.66l.5.46c.29-.41.43-1.16.85-1.59.08.19.12.41.35.52.4-.68,1.37-.69,2.14-.55,0-.22.02-.43.04-.64.06-.02.2.21.18.34.33.12-.11-.35-.06-.62.14-.09.31.25.27.45.28-.63,1.11-1.45,1.8-.95l-.07.19c.46.15.24-1.28.75-.82l-.06.12c.98.07,2-.6,2.87.2.06-.86,1.01.27.96-.91.59.54.47.75,1.19,1.11.18.05.26-.74.49-.86v.62c.1-.21.2-.43.32-.64.04.25.08.5.11.75l.2-.14c-.07-.04-.14-.29-.12-.47.36-.26.69.52.61.83.23-.13.47-.25.73-.35-.09.23-.22.28-.34.41.49-.51-.16.63.3.18.01-.15.15-.34.2-.45,0,.4.31.54.64.55l-.25.35c.36.32,1.05.4,1.55.85-.06-.3.44-.85.65-.77l-.35.55c.36-.23,0-.32.52-.53.16.23-.35.67-.59.74.12,0,.26,0,.38.02-.12.16-.23.19-.41.36.36-.22-.08.83.53.43l-.12.15c.44.46.82.52,1.18.92.44-.35.48-.11.95-.26.11.46.03,1.06.33,1.45.42.14.46-.17.83-.21-.41.29-.12.69-.56.66.36.48.47.59,1.18,1.1.15-.17.19-.29.37-.33.14.09-.05.39-.28.47h-.06c.53.22.4.85.25,1.41-.14.56-.29,1.06.31,1.23l-.06-.02c.25.17.5.35.73.54,0,.34-.42-.09-.67.22,1.03.54.15,1.19.81,1.71-.71.36-.62.76-.49,1.2.15.43.32.9-.14,1.24l.35-.05c.36.16-.2.21-.28.33.28-.02.32-.19.51-.09.46,1.48-.63,3-1.2,4.35-.2.5,1.74.66.77,1.18l-.61-.34c.53,1.27-.58,2.18-.31,3.43-.12-.11-.31-.18-.27-.28-.53.06-.31.8.05.95-.11.15-.35-.09-.57-.06-.35.11.35.77-.14.71-.08,0-.12-.12-.14-.17.16.23-.33.63.24.71-.41.28-.1.84-.54,1.01.47.47-.58.52.17.97-.8-.43-.98.33-.74.77-.2-.21-.36.07-.64-.2-.13.27-.12.6.31.78-1.22-.05.18,1.43-1.17.99-.05,1.01-.24,1.88-.56,2.63-.69-.57.45-.75-.34-1.28-.11.79.22,1.63-.43,2.03-.22.05-.22-.34-.3-.49-.2.79-.97.89-1.12,1.64-.05-.07-.06-.18-.05-.27-.07.1-.29.06-.03.38l.02-.16c.54.34.36,1.29.5,1.57-.49-1.08-.71.12-1.24-1.31-.02.1,0,.32.16.55-.14,0-.25-.13-.32-.45-.23.39.1.69-.25.88-.09-.18-.06-.28-.13-.51.03.44,0,.88-.39.85-.03-.12-.12-.25-.03-.28-.24.14-.37.47-.57.73-.19.27-.42.51-.79.38,0-.88-.28-.23-.45-.96-.09.09-.18.2-.28.28l.19.34c-.29.02-.51.59-.8.39l.2-.33c-.18.08-.37.13-.56.18l.35.27c-.3.39.1.94-.36.75.09-.08-.35,0-.51-.43-.16.23-.35.47-.59.27-.05-.24.1-.82.07-.98-.19.63-.74.11-1.03.74.09-.15.14-.53.13-.62l-.2.49c-.13-.18-.13-.26-.06-.56-.42-.18-.02.96-.48.45.05-.03.04-.11.14-.17-.48-.3-1.1.08-1.52-.3.09-.75.47-.06.49-.71-.67-.04-1.67.38-2.24-.08l.08.13c-.55.92-.23-.71-.77-.42.12-.03.38-.47.3-.37-.32-.37-.95-.23-1.73-.39l.23-.17c-.09-.35-.5-.55-.64-.83-.24.15-.35,0-.53.38.16-.9-.29-1.02-.76-1.18-.48-.14-.98-.3-.75-1.04.07.07.34.03.28-.03-.22-.12-.43-.25-.64-.39-.33.33-.16.25-.35.59-.27.1-.57.06-.68-.09.45.08.59-.45.71-.71-.1.1-.25.16-.36.25.43-.79-.79.5-.65-.27l.22-.11c-.21-.09-.59-.07-.65-.29.4-.36.33.04.7-.19-.19-.22-1.17.04-.86-.47.19.03.29.19.49.22.38-.58.23-.52.2-.76v.02-.57l-.09.19c-1.39.36-.59-.52-1.62-.56.99.05.48-.15,1.04-.39.09-.19.18-.44.36-.47-.55,0,.18-.5-.6-.5.17-.09-.08-.23.38-.38-.26-.21-.28.2-.51.28-.81-.17.31-1.3-.76-1.6-.56-.42-1.21-.32-1.7-.75.24-.27.73-.07.73-.07.18-.37.07-.57-.23-.78.18,0,.3-.09.49-.23-.11-.2-.73.05-.53-.32.22,0,.57-.04.82,0-.25-.2-.66-.36-.9-.58.31-.16.54.03.78.07-.23-.25-.5-.69-1.04-.66l-.14.24c-.05-.11.44-.17.55-.11.47.16-.08.42-.27.48l-.17-.16c-1.05.48.38.74.43,1.12l-.85.07.78.2c-.18.15-.61.34-.79.18-.31.4.36.16,0,.54-.06.05-.1.05-.14.03l.33.2c-.18,0-.54.23-.49.02-.29.65.85.6.33.99l-.06-.02c.52.59.6-.14,1.46.11l-1.27.88.59-.16c0,.08.02.23-.22.3.49.1.23-.14.65-.14-.38.55.62.79-.23,1.27.47-.08.18-.46.64-.25-.9.54.34.32.06.82-.53.15-.42-.26-.7.25.91-.23.11.68.41.85.65-.34.55.4,1.02.67-.23.1.13.97.18,1.49l-.11.06c.65-.34.8.1,1.13.27-.36.26-.53.31-.8.28l.2.25c.23-.08.39-.08.58.03l-.48.28c.3.32,1.04.25,1.14.9.39-.33.77-1.26,1.39-1.11-.19.2-.52.54-.7.52.06.01.28-.04.26.11l-.49.16c.02.32.37-.18.47,0-.29.27-.1.3-.35.5-.06,0,0-.24-.17-.19.1.21.12.57-.02.85.14-.17.37-.38.53-.3.33.27-.22.44-.17.77.26-.13.28.27.67-.17.09.08-.07.31-.13.46.35-.05.87.62,1.06-.04l-.02-.07h.04c.46-.02.71.25.94.57.24.3.48.64.85.71l-.1.17c.49,0,.91.33,1.36.06.11.05.12.45-.02.64.37-.01.47-.18.79.28-.43.21,0,.33-.41.11.34.31.34.64.96.29-.31.43.12.72.37.62l-.19-.43c.25,0,.43.09.62.19l-.28.61c.35.53.86.27,1.29.08.43-.18.8-.37,1.07.35.29-.43-.46-.39-.17-.9.38.15.75,1.14.9,1.14.6.39.59-.93,1.18-.7-.09-.23-.15-.87.25-1.1.38.08.57.97.31,1.18-.1.02-.15-.05-.15-.13-.13.09-.31.2-.13.45l.04-.24c.22.25.82.15.72.55.31-.26.1-.4-.15-.5.6.27.87-.08,1.48.02-.12-.11-.25-.37-.17-.38.88.11.26-.5.76-.75.4.26.13.86.59.4.41.13.28.57.19.8.38-.58,1.08-.09,1.44-.14l-.21.3c.13-.18.26-.23.41-.29l-.36-.36c.19,0,.33-.05.41.12.02-.36-.46-.65-.35-1.19.31.11.44-.53.83-.03-.72.15.39.51-.1.89.07-.12.2-.19.4-.2.06.05.04.12.02.18.92.13-.08-.77.51-1.14.13.34.52.46.57.33-.24.16-.45-.41-.41-.77.51-.04.25-.45.44-.56l-.28.06c-.15-.33.03-.42.18-.69.2.19-.07.31.08.34-.17-.67.98,0,1.02-.63.32.02.49.46.74.43.02-.69.75-.09.83-.76-.47-.19-.39-.1-.51-.68-.1.29-.2.58-.32.88-.04-.29-.09-.59-.15-.88-.17.19-.13.61-.3.66-.11-.46-.04-.35-.41-.53.77.23.14-.78.75-.76l.91.76c.81-.17.2-1.24.88-1.7l-.31.09c-.32-.35.21-.43.19-.74.32.24.52.18.79.23-.25-.15.33-.47-.31-.94l.62-.02c.5-.42-.62-1.17-.21-1.6.29.36.66.27.73.76.1-.17.25-.29.02-.42.27.02-.21-.73.21-.71-.11-.15-.47-.37-.33-.55.08.02.17.09.17.09-.17-.09-.08-.42-.55-.46,1.37.03.65-1.51,1.82-1.54.05-.45.14-.96.25-1.33.1.07.18.08.12.13.54-.36-.93-.72-.33-1.13.7-.06.21.42.5.33,1.25.38.08-.75.94-.88l.04.12c.52-.16-.22-.89.02-1.35,0,0,.1.06.19.06-.54-.53-.56-1.21-.63-1.73.46.27.21.28.73.32-.02-.23-.82-.14-.86-.6.3-.07.62-.32,1.16-.24l-.07.42c.75-.05.1-.54.26-.73l.3.09c.04-.66-.73-.81-.57-1.48l-.24.03c-.71-.49.49-.24-.04-.69h.8c-.16-.28-.64-.96-.76-1.4.57.29.81.85,1.11,1.22.04-.25.04-.86-.34-1.02.07.11.25.25.12.34-.59-.37-.86-.78-.82-1.25,1.53.17.44-1.25,1.61-1.61-.57-.88.17-1.81-.05-2.88-1.12.52-.08-.3-1.28-.07-.11-.22-.11-.31-.03-.35.21-.27.41-.56.6-.84.31-.24.31.18.58.11-.02-.55.46-.32.71-.75-.41.16-.65-.06-.55-.41l-.46.55c-.78-.59.85-.88.04-1.48l.43.14c-.3-.33-.42-1.45-1.47-1.49.11-.11.39-.31.54-.18-.19-.98-1.73-1.55-1.52-2.45l.3-.07c-.16-.12-.64-.02-.47-.36.11-.05.3-.08.27-.16-.14-.04-.69-.16-.65-.45h.39c-.12-1.02-1.44-.8-2.03-1.28.72-.5.53-1.29.38-1.66l.11-.07c-.63-.95-1.8-.97-2.76-1.37.17-1.15-1.32-1.68-2.01-2.69.06.23-.38.57-.58.55-.14-.29-.89.21-.5-.49l.08.06c.18-.8-.45-.87-.88-1.04l-.42.97c-.27-.92-1.13-.98-1.79-.89-.68.08-1.21.25-1.5-.44-.25.26-.56.27-.78.54v-.57c-.69-.11-1.03-.15-1.78.06l.11-.42c-.43,0-.36,1.68-.73,1.76l-.21-.83c-.72.1-1.6-.53-2.22.35,0-.12-.03-.37.09-.42-.35.03-1.51-.3-1.14.81-.16-.74-.81.1-1.12.53l-.08-.56c-.17.78-.12.97-.53,1.29-.13-.04-.23-.4-.04-.31-.46-.16-.13.59-.66.46l.05-.39c-.4.09-.31.27-.37.73-.15.29-.74.15-1.01-.29.07.31.04.77-.23.74-.11-.16-.08-.3-.07-.37-.8-.04-.6,1.03-1.27.79-.1-.15-.18-.21-.24-.24.49-.28.9-.46.88-.4-.23-.46-.7-.31-.7-1.12-.18.53-.28,1.58-.78,1.62-.05-.03-.09-.06-.15-.11v-.07c-.11.02-.16.11-.18.24-.17.02-.28.02-.4.1-.3-.31-.57.16-.77.29.37.42.09.54.6.72-.05,0,0-.08.09-.19.02-.03.04-.07.04-.11l.02.05c.11-.1.24-.24.42-.37.02.33.04.64-.35.54.14.35.28.71.35.89-.72-.42-1.45-.32-1.85-.6-.29.71-1,1.36-.41,2.35,0,.23-.37-.02-.55-.06-.02-.15.08-.24,0-.38-.03.46-.59.98-.02,1.46-.53.21-.42-.6-.68.01l-.14-.2c-.85.24-.72.97-.57,1.63.14.68.29,1.28-.66,1.66.12-.06.18-.09.3-.06-.6.62-.7,1.47-.78,2.27-.08.81-.16,1.58-.78,2.29-.26.42.2.52.54.81l-.61.04.66.5c.48.63-1.53,1.07-.56,1.91l.41-.11c-.07.29.27.9-.2.88.08.03.43.07.22.2l-.32.03.59.67c-.18.57-1.26.02-1.24.84.15.3,1.02.75,1.21.61,0-.12.16-.33.47-.37l.2.24c.93-.07,1.9-.02,2.47-.69l-.61-.35.44-.18.06.34c.4-.24.02-.32-.25-.44.24-.06.4-.13.48-.22l-.92-.34c.36-.07.73.13.92-.15-.42-.16-.81.24-1.09-.07.41-.23.76-.18.39-.4.24-.04.39,0,.5.09-.3-.19-.14-.53-.64-.63.52-.21-.14-.7.74-.67-.21-.06-.69-.37-.71-.56,1.04.38.09-.7,1.22-.54-.93-.31-.35-.91-.8-1.41.07.04.22.1.16.14.11-.24.4-.26.61-.38-.77-.15-.88-.57-1.31-.88.8-.15.86.37,1.6.41-.63-.1-.52-.63-1.05-.65.51-.12.27-.15.93-.11-.94-.27-.11-.24-.64-.58.56-.19.9.17.72-.26.34-.07.58.32.58.32l-.13-.05Zm3.33-7.56c-.06.05-.1.09-.13.12.03-.03.06-.07.12-.13h.01Zm.61-.39c-.09.03-.19.08-.28.14-.12-.15-.2-.34-.13-.37.03.13.24.14.42.23h0Zm-3.67-2.22c.07-.16.18-.11.27-.03-.05.05-.11.12-.17.22,0,.02.02.04.03.07-.05-.09-.1-.18-.13-.26Z"/><path class="cls-2" d="m985.55,235.07c.12-.32-.64-.37-1.03-.56-.07-.49.58-.03.98-.04-.1-.3-.67-.73-.56-.91.12.03.17.01.3.11-.44-.49.3-.78-.21-1.4.07,0,.13.02.18.04-.35-.12-.7-.28-.93-.41.06-.17-.26-.51.2-.35-.06.09.1.19.21.3l-.1-.26c.69.18.09.33.55.57-.05-.4-.34-1.06-.02-1.19.61.31-.12.65.58.66-.14.07-.29.14-.42.22,1.08.25-.18.17.96.48.41-.33-.02-.66.42-.97-.25-.31-.49-.28-.73-.59-.1-1.03,1.71.55,1.31-.41-.26-.38-.88-1-.27-.99l.48.61c.38-.29-.62-.97.12-.98.14.28-.1.45.02.47.66.19-.14-.47.05-.66l.5.46c.29-.41.43-1.16.85-1.59.08.19.12.41.35.52.4-.68,1.37-.69,2.14-.55,0-.22.02-.43.04-.64.06-.02.2.21.18.34.33.12-.11-.35-.06-.62.14-.09.31.25.27.45.28-.63,1.11-1.45,1.8-.95l-.07.19c.46.15.24-1.28.75-.82l-.06.12c.98.07,2-.6,2.87.2.06-.86,1.01.27.96-.91.59.54.47.75,1.19,1.11.18.05.26-.74.49-.86v.62c.1-.21.2-.43.32-.64.04.25.08.5.11.75l.2-.14c-.07-.04-.14-.29-.12-.47.36-.26.69.52.61.83.23-.13.47-.25.73-.35-.09.23-.22.28-.34.41.49-.51-.16.63.3.18,0-.15.15-.34.2-.45.01.4.31.54.64.55l-.25.35c.36.32,1.05.4,1.55.85-.06-.3.44-.85.65-.77l-.35.55c.36-.23,0-.32.52-.53.16.23-.35.67-.59.74.12,0,.26,0,.38.02-.12.16-.23.19-.41.36.36-.22-.08.83.53.43l-.12.15c.44.46.82.52,1.18.92.44-.35.48-.11.95-.26.11.46.03,1.06.33,1.45.42.14.46-.17.83-.21-.41.29-.12.69-.56.66.36.48.47.59,1.18,1.1.15-.17.19-.29.37-.33.14.09-.05.39-.28.47h-.06c.53.22.4.85.25,1.41-.14.56-.29,1.06.31,1.23l-.06-.02c.25.17.5.35.73.54,0,.34-.42-.09-.67.22,1.03.54.15,1.19.81,1.71-.71.36-.62.76-.49,1.2.15.43.32.9-.14,1.24l.35-.05c.36.16-.2.21-.28.33.28-.02.32-.19.51-.09.46,1.48-.63,3-1.2,4.35-.2.5,1.74.66.77,1.18l-.61-.34c.53,1.27-.58,2.18-.31,3.43-.12-.11-.31-.18-.27-.28-.53.06-.31.8.05.95-.11.15-.35-.09-.57-.06-.35.11.35.77-.14.71-.08,0-.12-.12-.14-.17.16.23-.33.63.24.71-.41.28-.1.84-.54,1.01.47.47-.58.52.17.97-.8-.43-.98.33-.74.77-.2-.21-.36.07-.64-.2-.13.27-.12.6.31.78-1.22-.05.18,1.43-1.17.99-.05,1.01-.24,1.88-.56,2.63-.69-.57.45-.75-.34-1.28-.11.79.22,1.63-.43,2.03-.22.05-.22-.34-.3-.49-.2.79-.97.89-1.12,1.64-.05-.07-.06-.18-.05-.27-.07.1-.29.06-.03.38l.02-.16c.54.34.36,1.29.5,1.57-.49-1.08-.71.12-1.24-1.31-.02.1,0,.32.16.55-.14,0-.25-.13-.32-.45-.23.39.1.69-.25.88-.09-.18-.06-.28-.13-.51.03.44,0,.88-.39.85-.03-.12-.12-.25-.03-.28-.24.14-.37.47-.57.73-.19.27-.42.51-.79.38,0-.88-.28-.23-.45-.96-.09.09-.18.2-.28.28l.19.34c-.29.02-.51.59-.8.39l.2-.33c-.18.08-.37.13-.56.18l.35.27c-.3.39.1.94-.36.75.09-.08-.35,0-.51-.43-.16.23-.35.47-.59.27-.05-.24.1-.82.07-.98-.19.63-.74.11-1.03.74.09-.15.14-.53.13-.62l-.2.49c-.13-.18-.13-.26-.06-.56-.42-.18-.02.96-.48.45.05-.03.04-.11.14-.17-.48-.3-1.1.08-1.52-.3.09-.75.47-.06.49-.71-.67-.04-1.67.38-2.24-.08l.08.13c-.55.92-.23-.71-.77-.42.12-.03.38-.47.3-.37-.32-.37-.95-.23-1.73-.39l.23-.17c-.09-.35-.5-.55-.64-.83-.24.15-.35,0-.53.38.16-.9-.29-1.02-.76-1.18-.48-.14-.98-.3-.75-1.04.07.07.34.03.28-.03-.22-.12-.43-.25-.64-.39-.33.33-.16.25-.35.59-.27.1-.57.06-.68-.09.45.08.59-.45.71-.71-.1.1-.25.16-.36.25.43-.79-.79.5-.65-.27l.22-.11c-.21-.09-.59-.07-.65-.29.4-.36.33.04.7-.19-.19-.22-1.17.04-.86-.47.19.03.29.19.49.22.38-.58.23-.52.2-.76v.02-.57l-.09.19c-1.39.36-.59-.52-1.62-.56.99.05.48-.15,1.04-.39.09-.19.18-.44.36-.47-.55,0,.18-.5-.6-.5.17-.09-.08-.23.38-.38-.26-.21-.28.2-.51.28-.81-.17.31-1.3-.76-1.6-.56-.42-1.21-.32-1.7-.75.24-.27.73-.07.73-.07.18-.37.07-.57-.23-.78.18,0,.3-.09.49-.23-.11-.2-.73.05-.53-.32.22,0,.57-.04.82,0-.25-.2-.66-.36-.9-.58.31-.16.54.03.78.07-.23-.25-.5-.69-1.04-.66l-.14.24c-.05-.11.44-.17.55-.11.47.16-.08.42-.27.48l-.17-.16c-1.05.48.38.74.43,1.12l-.85.07.78.2c-.18.15-.61.34-.79.18-.31.4.36.16,0,.54-.06.05-.1.05-.14.03l.33.2c-.18,0-.54.23-.49.02-.29.65.85.6.33.99l-.06-.02c.52.59.6-.14,1.46.11l-1.27.88.59-.16c0,.08.02.23-.22.3.49.1.23-.14.65-.14-.38.55.62.79-.23,1.27.47-.08.18-.46.64-.25-.9.54.34.32.06.82-.53.15-.42-.26-.7.25.91-.23.11.68.41.85.65-.34.55.4,1.02.67-.23.1.13.97.18,1.49l-.11.06c.65-.34.8.1,1.13.27-.36.26-.53.31-.8.28l.2.25c.23-.08.39-.08.58.03l-.48.28c.3.32,1.04.25,1.14.9.39-.33.77-1.26,1.39-1.11-.19.2-.52.54-.7.52.06,0,.28-.04.26.11l-.49.16c.02.32.37-.18.47,0-.29.27-.1.3-.35.5-.06-.01,0-.24-.17-.19.1.21.12.57-.02.85.14-.17.37-.38.53-.3.33.27-.22.44-.17.77.26-.13.28.27.67-.17.09.08-.07.31-.13.46.35-.05.87.62,1.06-.04l-.02-.07h.04c.46-.02.71.25.94.57.24.3.48.64.85.71l-.1.17c.49,0,.91.33,1.36.06.11.05.12.45-.02.64.37,0,.47-.18.79.28-.43.21,0,.33-.41.11.34.31.34.64.96.29-.31.43.12.72.37.62l-.19-.43c.25,0,.43.09.62.19l-.28.61c.35.53.86.27,1.29.08.43-.18.8-.37,1.07.35.29-.43-.46-.39-.17-.9.38.15.75,1.14.9,1.14.6.39.59-.93,1.18-.7-.09-.23-.15-.87.25-1.1.38.08.57.97.31,1.18-.1.02-.15-.05-.15-.13-.13.09-.31.2-.13.45l.04-.24c.22.25.82.15.72.55.31-.26.1-.4-.15-.5.6.27.87-.08,1.48.02-.12-.11-.25-.37-.17-.38.88.11.26-.5.76-.75.4.26.13.86.59.4.41.13.28.57.19.8.38-.58,1.08-.09,1.44-.14l-.21.3c.13-.18.26-.23.41-.29l-.36-.36c.19,0,.33-.05.41.12.02-.36-.46-.65-.35-1.19.31.11.44-.53.83-.03-.72.15.39.51-.1.89.07-.12.2-.19.4-.2.06.05.04.12.02.18.92.13-.08-.77.51-1.14.13.34.52.46.57.33-.24.16-.45-.41-.41-.77.51-.04.25-.45.44-.56l-.28.06c-.15-.33.03-.42.18-.69.2.19-.07.31.08.34-.17-.67.98,0,1.02-.63.32.02.49.46.74.43.02-.69.75-.09.83-.76-.47-.19-.39-.1-.51-.68-.1.29-.2.58-.32.88-.04-.29-.09-.59-.15-.88-.17.19-.13.61-.3.66-.11-.46-.04-.35-.41-.53.77.23.14-.78.75-.76l.91.76c.81-.17.2-1.24.88-1.7l-.31.09c-.32-.35.21-.43.19-.74.32.24.52.18.79.23-.25-.15.33-.47-.31-.94l.62-.02c.5-.42-.62-1.17-.21-1.6.29.36.66.27.73.76.1-.17.25-.29.02-.42.27.02-.21-.73.21-.71-.11-.15-.47-.37-.33-.55.08.02.17.09.17.09-.17-.09-.08-.42-.55-.46,1.37.03.65-1.51,1.82-1.54.05-.45.14-.96.25-1.33.1.07.18.08.12.13.54-.36-.93-.72-.33-1.13.7-.06.21.42.5.33,1.25.38.08-.75.94-.88l.04.12c.52-.16-.22-.89.02-1.35,0,0,.1.06.19.06-.54-.53-.56-1.21-.63-1.73.46.27.21.28.73.32-.02-.23-.82-.14-.86-.6.3-.07.62-.32,1.16-.24l-.07.42c.75-.05.1-.54.26-.73l.3.09c.04-.66-.73-.81-.57-1.48l-.24.03c-.71-.49.49-.24-.04-.69h.8c-.16-.28-.64-.96-.76-1.4.57.29.81.85,1.11,1.22.04-.25.04-.86-.34-1.02.07.11.25.25.12.34-.59-.37-.86-.78-.82-1.25,1.53.17.44-1.25,1.61-1.61-.57-.88.17-1.81-.05-2.88-1.12.52-.08-.3-1.28-.07-.11-.22-.11-.31-.03-.35.21-.27.41-.56.6-.84.31-.24.31.18.58.11-.02-.55.46-.32.71-.75-.41.16-.65-.06-.55-.41l-.46.55c-.78-.59.85-.88.04-1.48l.43.14c-.3-.33-.42-1.45-1.47-1.49.11-.11.39-.31.54-.18-.19-.98-1.73-1.55-1.52-2.45l.3-.07c-.16-.12-.64-.02-.47-.36.11-.05.3-.08.27-.16-.14-.04-.69-.16-.65-.45h.39c-.12-1.02-1.44-.8-2.03-1.28.72-.5.53-1.29.38-1.66l.11-.07c-.63-.95-1.8-.97-2.76-1.37.17-1.15-1.32-1.68-2.01-2.69.06.23-.38.57-.58.55-.14-.29-.89.21-.5-.49l.08.06c.18-.8-.45-.87-.88-1.04l-.42.97c-.27-.92-1.13-.98-1.79-.89-.68.08-1.21.25-1.5-.44-.25.26-.56.27-.78.54v-.57c-.69-.11-1.03-.15-1.78.06l.11-.42c-.43,0-.36,1.68-.73,1.76l-.21-.83c-.72.1-1.6-.53-2.22.35,0-.12-.03-.37.09-.42-.35.03-1.51-.3-1.14.81-.16-.74-.81.1-1.12.53l-.08-.56c-.17.78-.12.97-.53,1.29-.13-.04-.23-.4-.04-.31-.46-.16-.13.59-.66.46l.05-.39c-.4.09-.31.27-.37.73-.15.29-.74.15-1.01-.29.07.31.04.77-.23.74-.11-.16-.08-.3-.07-.37-.8-.04-.6,1.03-1.27.79-.1-.15-.18-.21-.24-.24.49-.28.9-.46.88-.4-.23-.46-.7-.31-.7-1.12-.18.53-.28,1.58-.78,1.62-.05-.03-.09-.06-.15-.11v-.07c-.11.02-.16.11-.18.24-.17.02-.28.02-.4.1-.3-.31-.57.16-.77.29.37.42.09.54.6.72-.05,0-.01-.08.09-.19.02-.03.04-.07.04-.11l.02.05c.11-.1.24-.24.42-.37.02.33.04.64-.35.54.14.35.28.71.35.89-.72-.42-1.45-.32-1.85-.6-.29.71-1,1.36-.41,2.35,0,.23-.37-.02-.55-.06-.02-.15.08-.24,0-.38-.03.46-.59.98-.02,1.46-.53.21-.42-.6-.68.01l-.14-.2c-.85.24-.72.97-.57,1.63.14.68.29,1.28-.66,1.66.12-.06.18-.09.3-.06-.6.62-.7,1.47-.78,2.27-.08.81-.16,1.58-.78,2.29-.26.42.2.52.54.81l-.61.04.66.5c.48.63-1.53,1.07-.56,1.91l.41-.11c-.07.29.27.9-.2.88.08.03.43.07.22.2l-.32.03.59.67c-.18.57-1.26.02-1.24.84.15.3,1.02.75,1.21.61,0-.12.16-.33.47-.37l.2.24c.93-.07,1.9-.02,2.47-.69l-.61-.35.44-.18.06.34c.4-.24.02-.32-.25-.44.24-.06.4-.13.48-.22l-.92-.34c.36-.07.73.13.92-.15-.42-.16-.81.24-1.09-.07.41-.23.76-.18.39-.4.24-.04.39,0,.5.09-.3-.19-.14-.53-.64-.63.52-.21-.14-.7.74-.67-.21-.06-.69-.37-.71-.56,1.04.38.09-.7,1.22-.54-.93-.31-.35-.91-.8-1.41.07.04.22.1.16.14.11-.24.4-.26.61-.38-.77-.15-.88-.57-1.31-.88.8-.15.86.37,1.6.41-.63-.1-.52-.63-1.05-.65.51-.12.27-.15.93-.11-.94-.27-.11-.24-.64-.58.56-.19.9.17.72-.26.34-.07.58.32.58.32l-.13-.05Zm3.33-7.56c-.06.05-.1.09-.13.12.03-.03.06-.07.12-.13h.01Zm.61-.39c-.09.03-.19.08-.28.14-.12-.15-.2-.34-.13-.37.03.13.24.14.42.23h-.01Zm-3.67-2.22c.07-.16.18-.11.27-.03-.05.05-.11.12-.17.22,0,.02.02.04.03.07-.05-.09-.1-.18-.13-.26Z"/><path class="cls-2" d="m950.55,96.07c.12-.32-.64-.37-1.03-.56-.07-.49.58-.03.98-.04-.1-.3-.67-.73-.56-.91.12.03.17,0,.3.11-.44-.49.3-.78-.21-1.4.07,0,.13.02.18.04-.35-.12-.7-.28-.93-.41.06-.17-.26-.51.2-.35-.06.09.1.19.21.3l-.1-.26c.69.18.09.33.55.57-.05-.4-.34-1.06-.02-1.19.61.31-.12.65.58.66-.14.07-.29.14-.42.22,1.08.25-.18.17.96.48.41-.33-.02-.66.42-.97-.25-.31-.49-.28-.73-.59-.1-1.03,1.71.55,1.31-.41-.26-.38-.88-1-.27-.99l.48.61c.38-.29-.62-.97.12-.98.14.28-.1.45.02.47.66.19-.14-.47.05-.66l.5.46c.29-.41.43-1.16.85-1.59.08.19.12.41.35.52.4-.68,1.37-.69,2.14-.55,0-.22.02-.43.04-.64.06-.02.2.21.18.34.33.12-.11-.35-.06-.62.14-.09.31.25.27.45.28-.63,1.11-1.45,1.8-.95l-.07.19c.46.15.24-1.28.75-.82l-.06.12c.98.07,2-.6,2.87.2.06-.86,1.01.27.96-.91.59.54.47.75,1.19,1.11.18.05.26-.74.49-.86v.62c.1-.21.2-.43.32-.64.04.25.08.5.11.75l.2-.14c-.07-.04-.14-.29-.12-.47.36-.26.69.52.61.83.23-.13.47-.25.73-.35-.09.23-.22.28-.34.41.49-.51-.16.63.3.18,0-.15.15-.34.2-.45.01.4.31.54.64.55l-.25.35c.36.32,1.05.4,1.55.85-.06-.3.44-.85.65-.77l-.35.55c.36-.23,0-.32.52-.53.16.23-.35.67-.59.74.12,0,.26,0,.38.02-.12.16-.23.19-.41.36.36-.22-.08.83.53.43l-.12.15c.44.46.82.52,1.18.92.44-.35.48-.11.95-.26.11.46.03,1.06.33,1.45.42.14.46-.17.83-.21-.41.29-.12.69-.56.66.36.48.47.59,1.18,1.1.15-.17.19-.29.37-.33.14.09-.05.39-.28.47h-.06c.53.22.4.85.25,1.41-.14.56-.29,1.06.31,1.23l-.06-.02c.25.17.5.35.73.54,0,.34-.42-.09-.67.22,1.03.54.15,1.19.81,1.71-.71.36-.62.76-.49,1.2.15.43.32.9-.14,1.24l.35-.05c.36.16-.2.21-.28.33.28-.02.32-.19.51-.09.46,1.48-.63,3-1.2,4.35-.2.5,1.74.66.77,1.18l-.61-.34c.53,1.27-.58,2.18-.31,3.43-.12-.11-.31-.18-.27-.28-.53.06-.31.8.05.95-.11.15-.35-.09-.57-.06-.35.11.35.77-.14.71-.08-.01-.12-.12-.14-.17.16.23-.33.63.24.71-.41.28-.1.84-.54,1.01.47.47-.58.52.17.97-.8-.43-.98.33-.74.77-.2-.21-.36.07-.64-.2-.13.27-.12.6.31.78-1.22-.05.18,1.43-1.17.99-.05,1.01-.24,1.88-.56,2.63-.69-.57.45-.75-.34-1.28-.11.79.22,1.63-.43,2.03-.22.05-.22-.34-.3-.49-.2.79-.97.89-1.12,1.64-.05-.07-.06-.18-.05-.27-.07.1-.29.06-.03.38l.02-.16c.54.34.36,1.29.5,1.57-.49-1.08-.71.12-1.24-1.31-.02.1,0,.32.16.55-.14,0-.25-.13-.32-.45-.23.39.1.69-.25.88-.09-.18-.06-.28-.13-.51.03.44,0,.88-.39.85-.03-.12-.12-.25-.03-.28-.24.14-.37.47-.57.73-.19.27-.42.51-.79.38,0-.88-.28-.23-.45-.96-.09.09-.18.2-.28.28l.19.34c-.29.02-.51.59-.8.39l.2-.33c-.18.08-.37.13-.56.18l.35.27c-.3.39.1.94-.36.75.09-.08-.35,0-.51-.43-.16.23-.35.47-.59.27-.05-.24.1-.82.07-.98-.19.63-.74.11-1.03.74.09-.15.14-.53.13-.62l-.2.49c-.13-.18-.13-.26-.06-.56-.42-.18-.02.96-.48.45.05-.03.04-.11.14-.17-.48-.3-1.1.08-1.52-.3.09-.75.47-.06.49-.71-.67-.04-1.67.38-2.24-.08l.08.13c-.55.92-.23-.71-.77-.42.12-.03.38-.47.3-.37-.32-.37-.95-.23-1.73-.39l.23-.17c-.09-.35-.5-.55-.64-.83-.24.15-.35,0-.53.38.16-.9-.29-1.02-.76-1.18-.48-.14-.98-.3-.75-1.04.07.07.34.03.28-.03-.22-.12-.43-.25-.64-.39-.33.33-.16.25-.35.59-.27.1-.57.06-.68-.09.45.08.59-.45.71-.71-.1.1-.25.16-.36.25.43-.79-.79.5-.65-.27l.22-.11c-.21-.09-.59-.07-.65-.29.4-.36.33.04.7-.19-.19-.22-1.17.04-.86-.47.19.03.29.19.49.22.38-.58.23-.52.2-.76v.02-.57l-.09.19c-1.39.36-.59-.52-1.62-.56.99.05.48-.15,1.04-.39.09-.19.18-.44.36-.47-.55,0,.18-.5-.6-.5.17-.09-.08-.23.38-.38-.26-.21-.28.2-.51.28-.81-.17.31-1.3-.76-1.6-.56-.42-1.21-.32-1.7-.75.24-.27.73-.07.73-.07.18-.37.07-.57-.23-.78.18,0,.3-.09.49-.23-.11-.2-.73.05-.53-.32.22,0,.57-.04.82,0-.25-.2-.66-.36-.9-.58.31-.16.54.03.78.07-.23-.25-.5-.69-1.04-.66l-.14.24c-.05-.11.44-.17.55-.11.47.16-.08.42-.27.48l-.17-.16c-1.05.48.38.74.43,1.12l-.85.07.78.2c-.18.15-.61.34-.79.18-.31.4.36.16,0,.54-.06.05-.1.05-.14.03l.33.2c-.18,0-.54.23-.49.02-.29.65.85.6.33.99l-.06-.02c.52.59.6-.14,1.46.11l-1.27.88.59-.16c0,.08.02.23-.22.3.49.1.23-.14.65-.14-.38.55.62.79-.23,1.27.47-.08.18-.46.64-.25-.9.54.34.32.06.82-.53.15-.42-.26-.7.25.91-.23.11.68.41.85.65-.34.55.4,1.02.67-.23.1.13.97.18,1.49l-.11.06c.65-.34.8.1,1.13.27-.36.26-.53.31-.8.28l.2.25c.23-.08.39-.08.58.03l-.48.28c.3.32,1.04.25,1.14.9.39-.33.77-1.26,1.39-1.11-.19.2-.52.54-.7.52.06,0,.28-.04.26.11l-.49.16c.02.32.37-.18.47,0-.29.27-.1.3-.35.5-.06-.01,0-.24-.17-.19.1.21.12.57-.02.85.14-.17.37-.38.53-.3.33.27-.22.44-.17.77.26-.13.28.27.67-.17.09.08-.07.31-.13.46.35-.05.87.62,1.06-.04l-.02-.07h.04c.46-.02.71.25.94.57.24.3.48.64.85.71l-.1.17c.49,0,.91.33,1.36.06.11.05.12.45-.02.64.37,0,.47-.18.79.28-.43.21,0,.33-.41.11.34.31.34.64.96.29-.31.43.12.72.37.62l-.19-.43c.25,0,.43.09.62.19l-.28.61c.35.53.86.27,1.29.08.43-.18.8-.37,1.07.35.29-.43-.46-.39-.17-.9.38.15.75,1.14.9,1.14.6.39.59-.93,1.18-.7-.09-.23-.15-.87.25-1.1.38.08.57.97.31,1.18-.1.02-.15-.05-.15-.13-.13.09-.31.2-.13.45l.04-.24c.22.25.82.15.72.55.31-.26.1-.4-.15-.5.6.27.87-.08,1.48.02-.12-.11-.25-.37-.17-.38.88.11.26-.5.76-.75.4.26.13.86.59.4.41.13.28.57.19.8.38-.58,1.08-.09,1.44-.14l-.21.3c.13-.18.26-.23.41-.29l-.36-.36c.19,0,.33-.05.41.12.02-.36-.46-.65-.35-1.19.31.11.44-.53.83-.03-.72.15.39.51-.1.89.07-.12.2-.19.4-.2.06.05.04.12.02.18.92.13-.08-.77.51-1.14.13.34.52.46.57.33-.24.16-.45-.41-.41-.77.51-.04.25-.45.44-.56l-.28.06c-.15-.33.03-.42.18-.69.2.19-.07.31.08.34-.17-.67.98,0,1.02-.63.32.02.49.46.74.43.02-.69.75-.09.83-.76-.47-.19-.39-.1-.51-.68-.1.29-.2.58-.32.88-.04-.29-.09-.59-.15-.88-.17.19-.13.61-.3.66-.11-.46-.04-.35-.41-.53.77.23.14-.78.75-.76l.91.76c.81-.17.2-1.24.88-1.7l-.31.09c-.32-.35.21-.43.19-.74.32.24.52.18.79.23-.25-.15.33-.47-.31-.94l.62-.02c.5-.42-.62-1.17-.21-1.6.29.36.66.27.73.76.1-.17.25-.29.02-.42.27.02-.21-.73.21-.71-.11-.15-.47-.37-.33-.55.08.02.17.09.17.09-.17-.09-.08-.42-.55-.46,1.37.03.65-1.51,1.82-1.54.05-.45.14-.96.25-1.33.1.07.18.08.12.13.54-.36-.93-.72-.33-1.13.7-.06.21.42.5.33,1.25.38.08-.75.94-.88l.04.12c.52-.16-.22-.89.02-1.35,0,0,.1.06.19.06-.54-.53-.56-1.21-.63-1.73.46.27.21.28.73.32-.02-.23-.82-.14-.86-.6.3-.07.62-.32,1.16-.24l-.07.42c.75-.05.1-.54.26-.73l.3.09c.04-.66-.73-.81-.57-1.48l-.24.03c-.71-.49.49-.24-.04-.69h.8c-.16-.28-.64-.96-.76-1.4.57.29.81.85,1.11,1.22.04-.25.04-.86-.34-1.02.07.11.25.25.12.34-.59-.37-.86-.78-.82-1.25,1.53.17.44-1.25,1.61-1.61-.57-.88.17-1.81-.05-2.88-1.12.52-.08-.3-1.28-.07-.11-.22-.11-.31-.03-.35.21-.27.41-.56.6-.84.31-.24.31.18.58.11-.02-.55.46-.32.71-.75-.41.16-.65-.06-.55-.41l-.46.55c-.78-.59.85-.88.04-1.48l.43.14c-.3-.33-.42-1.45-1.47-1.49.11-.11.39-.31.54-.18-.19-.98-1.73-1.55-1.52-2.45l.3-.07c-.16-.12-.64-.02-.47-.36.11-.05.3-.08.27-.16-.14-.04-.69-.16-.65-.45h.39c-.12-1.02-1.44-.8-2.03-1.28.72-.5.53-1.29.38-1.66l.11-.07c-.63-.95-1.8-.97-2.76-1.37.17-1.15-1.32-1.68-2.01-2.69.06.23-.38.57-.58.55-.14-.29-.89.21-.5-.49l.08.06c.18-.8-.45-.87-.88-1.04l-.42.97c-.27-.92-1.13-.98-1.79-.89-.68.08-1.21.25-1.5-.44-.25.26-.56.27-.78.54v-.57c-.69-.11-1.03-.15-1.78.06l.11-.42c-.43,0-.36,1.68-.73,1.76l-.21-.83c-.72.1-1.6-.53-2.22.35,0-.12-.03-.37.09-.42-.35.03-1.51-.3-1.14.81-.16-.74-.81.1-1.12.53l-.08-.56c-.17.78-.12.97-.53,1.29-.13-.04-.23-.4-.04-.31-.46-.16-.13.59-.66.46l.05-.39c-.4.09-.31.27-.37.73-.15.29-.74.15-1.01-.29.07.31.04.77-.23.74-.11-.16-.08-.3-.07-.37-.8-.04-.6,1.03-1.27.79-.1-.15-.18-.21-.24-.24.49-.28.9-.46.88-.4-.23-.46-.7-.31-.7-1.12-.18.53-.28,1.58-.78,1.62-.05-.03-.09-.06-.15-.11v-.07c-.11.02-.16.11-.18.24-.17.02-.28.02-.4.1-.3-.31-.57.16-.77.29.37.42.09.54.6.72-.05,0-.01-.08.09-.19.02-.03.04-.07.04-.11l.02.05c.11-.1.24-.24.42-.37.02.33.04.64-.35.54.14.35.28.71.35.89-.72-.42-1.45-.32-1.85-.6-.29.71-1,1.36-.41,2.35,0,.23-.37-.02-.55-.06-.02-.15.08-.24,0-.38-.03.46-.59.98-.02,1.46-.53.21-.42-.6-.68.01l-.14-.2c-.85.24-.72.97-.57,1.63.14.68.29,1.28-.66,1.66.12-.06.18-.09.3-.06-.6.62-.7,1.47-.78,2.27-.08.81-.16,1.58-.78,2.29-.26.42.2.52.54.81l-.61.04.66.5c.48.63-1.53,1.07-.56,1.91l.41-.11c-.07.29.27.9-.2.88.08.03.43.07.22.2l-.32.03.59.67c-.18.57-1.26.02-1.24.84.15.3,1.02.75,1.21.61,0-.12.16-.33.47-.37l.2.24c.93-.07,1.9-.02,2.47-.69l-.61-.35.44-.18.06.34c.4-.24.02-.32-.25-.44.24-.06.4-.13.48-.22l-.92-.34c.36-.07.73.13.92-.15-.42-.16-.81.24-1.09-.07.41-.23.76-.18.39-.4.24-.04.39,0,.5.09-.3-.19-.14-.53-.64-.63.52-.21-.14-.7.74-.67-.21-.06-.69-.37-.71-.56,1.04.38.09-.7,1.22-.54-.93-.31-.35-.91-.8-1.41.07.04.22.1.16.14.11-.24.4-.26.61-.38-.77-.15-.88-.57-1.31-.88.8-.15.86.37,1.6.41-.63-.1-.52-.63-1.05-.65.51-.12.27-.15.93-.11-.94-.27-.11-.24-.64-.58.56-.19.9.17.72-.26.34-.07.58.32.58.32l-.13-.05Zm3.33-7.56c-.06.05-.1.09-.13.12.03-.03.06-.07.12-.13h.01Zm.61-.39c-.09.03-.19.08-.28.14-.12-.15-.2-.34-.13-.37.03.13.24.14.42.23h-.01Zm-3.67-2.22c.07-.16.18-.11.27-.03-.05.05-.11.12-.17.22,0,.02.02.04.03.07-.05-.09-.1-.18-.13-.26Z"/><path class="cls-2" d="m261.54,196.61c-.53-.07-.32.7-.47,1.11-.65.15-.24-.57-.43-.96-.42.16-.78.81-1.07.77-.01-.12-.07-.17,0-.32-.46.55-1.27-.04-1.79.68-.03-.07-.05-.13-.06-.18.07.37.07.75.05,1.02-.24,0-.44.45-.53-.03.14.01.16-.18.23-.33l-.25.21c-.22-.7.34-.24.36-.75-.5.21-1.07.79-1.44.6-.09-.68.88-.24.37-.84l.59.26c-.45-1.08.36.08-.05-1.07-.8-.2-.89.35-1.69.18-.16.39.08.56-.08.94-1.05.74-1.01-1.65-1.77-.67-.17.48-.14,1.33-.78.97l.09-.79c-.79.05-.27,1.15-1.15.78.08-.33.56-.36.42-.43-.63-.51-.29.5-.68.57l-.22-.65c-.81.27-1.57.98-2.38,1.36,0-.21.07-.46-.19-.59-1,.67-2.35.75-3.56.89l-.13.71c-.09.04-.28-.15-.24-.3-.49,0,.15.34.07.65-.2.15-.45-.15-.39-.38-.48.79-1.34,1.99-2.35,1.93l.03-.23c-.66.17.11,1.38-.66,1.28l.03-.15c-1.25.61-1.98,1.99-3.33,2.11.47.71-1.22.76-.38,1.61-.95.24-.98-.09-1.99.65-.23.24.35.81.26,1.19l-.53-.31c.09.27.19.53.3.78l-.78-.09-.03.41c.1-.12.39-.16.54-.05,0,.61-.96,1.06-1.26.97,0,.48,0,.95.04,1.41-.23-.1-.24-.33-.33-.55.37.86-.66-.08-.31.7.16-.04.34.15.45.2-.45.18-.65.86-.62,1.39l-.39-.2c-.35.88-.26,1.95-.44,2.98.26-.34.97-.12.99.19h-.66c.36.27.29-.26.71.21-.14.36-.77.14-.95-.12l.15.5c-.2,0-.28-.13-.52-.19.38.25-.76.73-.1,1.1h-.2c-.12,1.06.07,1.55.07,2.41.56.04.42.37.87.62-.19.61-.62,1.31-.53,2.07.32.51.49.12.84.34-.51.07-.4.82-.8.46.17.9.22,1.16.81,2.21.18-.16.25-.31.43-.27.12.18-.13.49-.37.51l-.06-.04c.49.55.28,1.33.15,2.12-.14.78-.19,1.56.49,1.87l-.07-.04c.31.27.59.55.91.8.11.49-.47-.12-.62.34,1.23.72.68,1.74,1.65,2.32-.46.69-.09,1.28.4,1.81.48.54,1.05,1.01,1.02,1.72l.24-.27c.44-.02.05.38.11.58.19-.2.06-.43.31-.43.89.7,1.59,1.59,2.35,2.52.76.93,1.59,1.88,2.57,2.62.75.52,1.28-1.39,1.86-.17l-.55.47c.96.01,1.75.34,2.56.62.81.28,1.62.54,2.48.39-.13.13-.17.32-.33.28.23.55,1.24.28,1.3-.11.23.09,0,.36.11.58.29.34.93-.47,1.04.03.02.08-.12.14-.18.17.25-.19,1,.2.87-.38.55.34,1.14-.12,1.56.25.35-.59.96.37,1.12-.49-.1.9.96.79,1.33.38-.13.27.3.3.14.67.41,0,.8-.15.74-.62.73,1.11,1.53-.84,1.96.55,1.25-.49,2.38-.87,3.47-1.18.04.91-1.23.19-1.12,1.13,1.07-.44,1.59-1.27,2.67-1.2.29.08-.1.41-.17.57,1.02-.52,2.13-.28,2.96-1.01.02.08-.06.2-.14.29.18-.07.48.01.34-.38l-.15.16c-.44-.49.38-1.41.3-1.72.05,1.23.98-.02.98,1.55.1-.12.19-.36.06-.6.2,0,.32.14.24.5.59-.45.19-.77.77-1.01.08.18-.01.3.02.54.16-.48.28-.96.82-1.04.02.12.15.23,0,.3.82-.47.86-1.63,1.86-1.86.26.88.44.03.93.6.11-.17.21-.34.3-.52l-.39-.15c.38-.29.34-.96.79-1.05l-.05.46c.18-.24.38-.46.55-.7-.18.05-.37.09-.55.13.08-.59-.67-.65-.11-.91-.03.13.32-.3.8-.17-.02-.33-.06-.65.3-.78.24.09.58.59.74.65-.33-.57.56-.95.19-1.58.07.17.38.41.46.43l-.29-.45c.26-.07.33-.05.57.16.44-.47-.89-.38-.13-.76,0,.07.08.09.07.23.61-.51.51-1.38,1.05-1.85.76.18-.13.62.53.72.4-.97.16-2.26.67-3.07l-.14.13c-.94-.51.75-.46.44-1.1.03.14.5.34.4.27.39-.57.19-1.37.11-2.4l.23.19c.34-.31.38-.95.59-1.33-.24-.18-.15-.4-.57-.34.89-.46.79-1.12.64-1.73-.15-.62-.35-1.2.35-1.68,0,.13.2.34.21.24l-.16-.98c-.47.03-.29.1-.67.26-.26-.14-.45-.42-.43-.65.27.44.74.06,1.01-.11-.14.02-.29-.05-.44-.05.85-.43-.92-.15-.32-.77l.24.05c-.11-.26-.42-.5-.33-.77.54-.09.24.28.67.32,0-.39-.98-.79-.43-1.11.14.17.14.4.28.56.64-.35.49-.4.59-.68v.03l.29-.64-.17.16c-1.38-.5-.24-.98-1.15-1.62.86.62.5.1,1.11.15.17-.16.36-.41.53-.34-.49-.3.38-.51-.34-.94.19-.02,0-.33.51-.27-.16-.4-.34.1-.58.07-.68-.59.77-1.48-.2-2.32-.43-.74-1.1-.82-1.49-1.47.28-.27.73.11.73.11.24-.41.16-.7-.11-1.03.18.05.31-.04.51-.19-.09-.29-.73-.09-.51-.51.22.03.58.06.82.17-.24-.32-.65-.6-.89-.92.32-.16.55.12.79.21-.22-.38-.51-.99-1.07-.99l-.13.29c-.06-.14.43-.17.55-.09.49.26-.08.53-.27.58l-.17-.22c-1.07.47.37.95.38,1.48l-.85-.08.76.41c-.2.14-.65.27-.81.05-.36.4.33.27-.08.63-.07.04-.11.03-.14,0l.28.31c-.18-.05-.58.12-.48-.1-.41.65.71.93.1,1.21l-.06-.05c.34.83.62.04,1.37.64l-1.48.51.61.06c-.02.09-.06.27-.3.24.43.31.26-.07.66.11-.54.44.29,1.18-.68,1.29.47.15.35-.41.68.04-1.04.14.18.53-.3.92-.54-.12-.26-.49-.74-.1.91.24-.2.76-.03,1.08.73.03.29.72.52,1.27-.24-.04-.44,1.02-.73,1.5l-.12-.02c.72.14.55.66.67,1.05-.44-.05-.6-.13-.78-.35l-.03.35c.23.1.34.22.4.46l-.54-.14c-.01.46.55,1.01.1,1.57.5.11,1.48-.3,1.73.4-.28,0-.75-.06-.84-.24.03.06.2.23.07.33l-.42-.32c-.24.25.36.2.29.42-.39-.06-.3.12-.61.04-.03-.06.19-.17.05-.27-.11.24-.38.5-.69.54.23.02.52.09.54.27-.05.47-.5.08-.74.31.25.16-.09.39.49.52-.03.13-.3.1-.47.12.21.29-.17,1.11.5.99l.05-.05s0,.03.02.04c.38.93-.75,1.52-.76,2.33l-.19-.07c.06.52-.23,1.02.03,1.49-.06.13-.47.16-.66,0,0,.38.18.52-.34.84-.16-.47-.33-.02-.07-.44-.36.34-.67.28-.42.96-.37-.38-.71,0-.69.25l.47-.1c-.05.25-.2.41-.34.57l-.52-.44c-.57.18-.48.68-.47,1.15.02.47-.04.89-.78.74.22.48.55-.19.86.31-.33.3-1.35,0-1.42.1-.63.15.39,1.04-.22,1.29.22.12.73.5.55,1-.39.25-1.07-.38-1-.69.06-.08.15-.06.2,0,.04-.16.09-.35-.21-.42l.13.21c-.31-.03-.71.35-.87-.03-.07.37.16.38.41.32-.61.08-.62.52-1.19.64.14.06.37.24.3.28-.81.22-.03.57-.43.96-.46-.14-.36-.78-.67-.25-.41-.05-.37-.51-.36-.74-.17.64-.9.15-1.16.18l.13-.28c-.07.16-.18.21-.29.26l.32.37c-.16,0-.27.04-.35-.15-.01.34.43.67.32,1.18-.28-.14-.48.49-.78-.08.67-.03-.29-.56.15-.85-.06.11-.17.16-.34.13-.05-.06-.03-.13,0-.18-.73-.34,0,.76-.6.95-.04-.36-.34-.6-.41-.5.23-.06.29.53.14.86-.46-.14-.37.32-.59.34l.28.06c0,.36-.21.37-.47.55-.09-.26.22-.25.09-.34-.18.7-.86-.47-1.21.03-.25-.2-.14-.65-.35-.78-.42.54-.6-.39-1.06.05.21.45.23.33-.09.84.28-.15.56-.29.82-.45-.15.26-.3.51-.46.77.27-.03.52-.37.69-.32-.21.43-.2.31-.01.68-.47-.65-.68.52-1.18.09l-.12-1.18c-.67-.46-1.07.71-1.93.45l.28.19c-.09.47-.52.09-.79.29.01-.4-.16-.54-.28-.78.02.29-.61,0-.69.77l-.38-.52c-.68-.21-.8,1.12-1.48.96.21-.42-.08-.71.37-1.01-.22,0-.42-.09-.43.18-.12-.25-.64.51-.83.12-.1.17-.15.58-.4.54-.02-.08.01-.2.01-.2-.01.2-.41.24-.21.69-.62-1.26-1.95-.04-2.45-1.16-.49.08-1.08.13-1.52.1.05-.11.03-.19.11-.14-.53-.45-.54,1.06-1.16.54-.23-.69.42-.27.25-.55.15-1.29-.84.02-1.11-.82l.12-.05c-.22-.5-.92.29-1.44.03,0,0,.06-.1.06-.19-.55.54-1.33.5-1.91.46.35-.41.33-.16.42-.68-.25-.02-.24.81-.75.75-.04-.32-.27-.68-.08-1.2l.42.15c.08-.74-.53-.21-.69-.42l.16-.27c-.63-.2-1.02.48-1.63.05l-.06.24c-.77.44-.06-.55-.72-.29l.34-.72c-.32.02-1.21.07-1.69-.14.6-.27,1.21-.16,1.69-.26-.21-.14-.72-.47-1.08-.26.13,0,.35-.06.36.1-.63.3-1.18.24-1.58-.14,1.1-1.04-.74-1.26-.1-2.35-1.02-.31-.94-1.53-1.55-2.33-.81.95-.19-.24-1.2.45-.2-.18-.24-.28-.18-.34.08-.35.18-.69.27-1.03.23-.32.35.08.58-.07-.17-.51.35-.43.49-.88-.36.26-.64.12-.62-.22l-.32.62c-.92-.4.66-1-.22-1.42l.45.06c-.37-.26-.47-1.26-1.52-1.33.11-.11.41-.29.54-.16-.12-.88-1.53-1.76-1.06-2.6l.31.02c-.11-.16-.6-.22-.33-.48.12,0,.31.03.31-.05-.12-.07-.58-.39-.43-.65l.36.16c.28-.93-.94-1.32-1.17-2.13.88-.02,1.16-.74,1.31-1.09l.12.02c.13-1.03-.63-1.83-.84-2.9,1.02-.49.73-2.04,1.5-2.89-.19.11-.66-.19-.7-.39.23-.18-.42-.8.35-.55l-.04.08c.81.04.74-.47.87-.81l-.99-.38c.88-.23.95-.82,1.02-1.38.07-.55.17-1.07.88-.91-.12-.31.03-.53-.06-.86l.45.34c.46-.39.69-.56,1.1-1.22l.2.39c.3-.28-.83-1.52-.54-1.85l.69.51c.55-.58,1.62-.51,1.74-1.59.07.11.2.31.12.42.3-.22,1.45-.37.69-1.24.44.61.7-.39.91-.91l.24.51c-.07-.8-.15-.97.2-1.4.14,0,.31.33.1.29.49.05.03-.62.61-.59v.4c.39-.16.27-.31.3-.79.15-.32.8-.23,1.06.21-.08-.3-.02-.77.27-.74.1.16.07.31.05.38.78.08.75-.99,1.4-.64.07.17.13.25.18.29-.53.16-.95.31-.93.25.19.48.62.41.56,1.19.17-.49.47-1.48.96-1.38.03.04.07.08.11.15l-.03.07c.11.02.18-.05.23-.15.16.04.25.08.38.05.16.39.54.09.75.06-.15-.54.15-.52-.22-.91.04.03-.03.07-.16.13-.03.02-.06.04-.08.08v-.05c-.14.05-.32.11-.52.18.09-.32.21-.61.53-.36.02-.38.06-.77.1-.96.49.68,1.15.99,1.31,1.45.6-.44,1.5-.45,1.84-1.53.19-.15.25.28.34.44-.11.11-.24.11-.29.27.36-.31,1.15-.19,1.21-.93.52.32-.26.69.43.55l-.09.23c.68.57,1.21.1,1.8-.31.58-.41,1.23-.77,1.94.04-.1-.1-.15-.15-.16-.27,1.67.8,3.76-.31,5.23,1.05.41.3.56-.15.93-.43l-.05.61c.21-.18.43-.37.65-.55.41-.15.6.31.79.71.19.41.35.75.93.5l.08-.41c.24.19.97.27.67.64.06-.05.31-.3.29-.06l-.17.26c.3-.02.59,0,.9.02.13.29-.11.49-.3.71-.2.22-.35.43-.17.69.24.06,1.17.05,1.31-.14-.06-.1-.02-.36.23-.56l.31.16c.79-.49,1.84-.66,1.74-1.93-.3-.09-.62-.14-.91-.19.06-.16.12-.32.17-.48.15.14.29.3.44.45.09-.55-.36-.49-.71-.46.13-.21.17-.41.11-.58-.38.04-.76.14-1.11.23.15-.34.7-.37.44-.83-.51.13-.25.83-.82.75-.02-.52.24-.77-.28-.67.08-.23.23-.32.42-.32-.45.05-.87-.37-1.24,0-.07-.63-1.05-.33-.69-1.12-.18.15-.79.44-1.06.39.84-.84-1.01-.38-.58-1.42-.63.81-1.48.08-2.22.49.05-.07.15-.21.2-.15-.35-.14-.41-.44-.62-.65-.17.76-.75.86-1.1,1.31-.34-.8.38-.88.33-1.62-.06.63-.84.54-.75,1.08-.27-.5-.25-.26-.35-.92-.16.97-.32.13-.65.7-.42-.53-.03-.93-.58-.68-.22-.32.28-.62.28-.62v.03Zm-12.67,2.6h0c.1-.06.19-.1.24-.12-.05.02-.12.06-.24.12Zm-1.01.36c.13-.03.28-.08.45-.14.1.17.12.37.02.4,0-.14-.26-.17-.47-.26Zm3.16,3.08c-.12.12-.19.02-.24-.08.06-.03.13-.07.23-.13v-.07c.01.11.02.21.02.29h0Z"/><path class="cls-2" d="m97.08,288.37c.3-.39-.44-.62-.72-.97.24-.64.62.11,1.04.19.08-.41-.2-1.09.04-1.29.1.07.17.06.23.22-.1-.73.91-.85.91-1.75.07.03.12.07.16.11-.28-.25-.51-.55-.65-.78.22-.17.17-.68.52-.34-.15.08-.05.25-.03.42l.12-.34c.59.44-.19.42.1.84.3-.49.58-1.32,1.06-1.37.4.54-.75.7.04.93l-.68.11c.98.65-.36.14.63.87.77-.25.59-.77,1.43-.98,0-.42-.31-.47-.31-.89.84-1.16,1.59,1.13,2.05-.06.04-.51-.2-1.34.6-1.17l.08.8c.83-.25.05-1.21,1.11-1.07-.05.34-.55.49-.4.52.78.35.24-.56.67-.72l.33.6c.83-.42,1.64-1.23,2.58-1.66,0,.21-.1.47.2.59,1.13-.72,2.66-.69,3.91-.54l.33-.66c.11-.01.25.22.15.36.5.13-.05-.37.14-.64.26-.09.41.26.27.47.71-.64,2.22-1.41,3.14-.82l-.16.18c.67.21.72-1.25,1.37-.7l-.12.1c1.46.23,3.15-.13,4.09.97.38-.8,1.31.67,1.69-.44.67.79.38.92,1.38,1.65.28.16.68-.55,1.1-.53l-.2.58.73-.42v.79h.41c-.12-.1-.19-.38-.11-.54.66-.05,1.17.95,1.05,1.24.49.02.99.06,1.49.1-.13.21-.38.19-.62.26.94-.26-.15.64.71.41-.02-.17.2-.31.27-.42.15.48.85.83,1.44.95l-.29.33c.88.57,2.02.81,2.93,1.4-.22-.37.23-.96.55-.84l-.24.62c.4-.22-.16-.39.48-.57.31.3-.18.77-.49.82l.53.09c-.09.18-.24.2-.4.39.41-.22.27.99.9.6l-.1.17c.76.62,1.22.76,1.74,1.33.44-.35.54-.04,1.05-.11.22.61.19,1.4.56,2.06.49.36.5-.07.91.02-.44.25-.08.96-.58.73.45.84.56,1.08,1.37,2.15.15-.2.19-.38.38-.36.16.19-.03.57-.27.62l-.07-.04c.59.56.49,1.47.37,2.32-.11.85-.23,1.63.42,2.06l-.07-.05c.26.34.54.68.79,1.04.02.55-.44-.24-.67.21,1.09,1.09.23,1.98.93,2.93-1.38.96.41,2.84-.53,3.99l.35-.08c.36.27-.19.35-.27.55.28-.04.31-.31.51-.14.49,2.38-.53,5.01-1.41,6.68-.31.6,1.62,1.03.45,1.57-.16-.18-.32-.34-.49-.51.09.79-.34,1.48-.85,2.11s-1.1,1.23-1.48,2.06c-.03-.18-.17-.32-.05-.43-.59-.09-.95.89-.7,1.18-.23.14-.28-.22-.54-.26-.44.02-.28,1.04-.73.8-.07-.04-.02-.18,0-.25-.02.33-.87.62-.36.92-.66.18-.84.92-1.45.93.05.7-1.07.32-.72,1.12-.43-.8-1.32-.08-1.5.46,0-.3-.44-.1-.47-.51-.39.22-.71.52-.44.92-.6-.31-.9.04-1.19.34-.28.31-.56.55-1.01-.03-1.11.89-2.28,1.51-3.48,1.91-.1-.88,1.33-.33,1.09-1.25-1.02.58-1.61,1.47-2.8,1.33-.31-.1.14-.41.23-.57-1.13.46-2.2.02-3.25.41,0-.08.13-.17.24-.23-.2.01-.46-.17-.47.24l.21-.1c.29.63-.94,1.17-1.03,1.46.5-1.12-1.02-.43-.24-1.82-.14.06-.34.22-.35.5-.19-.12-.22-.28.03-.56-.75.08-.59.58-1.24.42.05-.19.19-.24.31-.45-.4.3-.84.62-1.35.29.06-.11.04-.27.2-.22-.93-.2-1.94.51-2.82-.28.63-.68-.24-.4.02-1.11l-.6-.04.05.43c-.45-.21-1.1.05-1.38-.38l.48-.09c-.3-.11-.61-.21-.9-.34.1.18.21.35.33.52-.65.08-.42.86-.92.32.16,0-.46-.29-.45-.8-.34.05-.71.1-.93-.27.06-.25.55-.62.59-.79-.57.36-1.05-.57-1.71-.28.18-.05.44-.34.46-.43l-.49.25c-.08-.28-.05-.36.19-.57-.47-.54-.47.86-.83-.02.08.02.11-.06.26-.02-.46-.74-1.41-.95-1.73-1.74.43-.65.58.4.89-.21-.81-.72-2.16-1.28-2.61-2.33l.04.22c-.99.43,0-.98-.7-1.21.14.08.6-.14.48-.11-.23-.74-.98-1.23-1.79-2.15h.31c.02-.5-.37-1.13-.46-1.63-.31-.03-.37-.31-.67,0,.42-1.01-.04-1.58-.5-2.16-.47-.57-.95-1.15-.54-1.99.05.15.34.29.3.17-.2-.34-.39-.68-.57-1.02-.42.22-.23.22-.5.56-.3-.06-.6-.32-.68-.6.44.42.71-.21.9-.49-.13.07-.3.04-.43.1.64-.8-.93.14-.6-.81l.25-.02c-.19-.27-.57-.48-.59-.82.49-.26.32.27.75.18-.14-.44-1.19-.68-.77-1.21.19.17.25.45.44.61.51-.59.34-.6.37-.96v.04l.12-.82-.13.23c-1.48-.32-.47-1.12-1.48-1.76.97.64.51.05,1.12.02.14-.22.28-.55.46-.49-.53-.3.3-.65-.47-1.08.19-.05-.02-.39.47-.36-.2-.45-.33.15-.57.13-.75-.68.63-1.78-.32-2.77-.4-.89-1.06-1.06-1.36-1.95.32-.28.7.27.7.27.3-.45.27-.79.09-1.24.16.1.31.03.54-.08-.02-.34-.69-.31-.34-.72.2.11.54.25.73.44-.13-.4-.43-.85-.52-1.29.35-.04.45.34.65.52-.08-.47-.06-1.19-.53-1.48l-.26.24c.02-.17.47.03.53.18.31.47-.31.51-.51.49l-.06-.32c-1.2.07-.06,1.25-.18,1.81l-.8-.35c.21.24.41.48.62.71-.22.11-.7.18-.8-.15-.44.43.26.42-.22.79-.07.04-.11.02-.14-.02l.23.46c-.17-.09-.59.06-.46-.22-.51.82.61,1.32-.02,1.63l-.05-.07c.32,1.11.61.1,1.36.89l-1.47.65.62.07c-.02.12-.04.35-.29.32.45.39.26-.09.67.12-.51.6.41,1.47-.55,1.71.48.14.3-.56.68-.02-1.02.29.26.65-.14,1.21-.56-.07-.34-.6-.75-.02.95.17-.05,1.01.2,1.41.72-.1.46.87.85,1.52-.25,0-.1,1.4-.18,2.12h-.12c.75-.05.78.66,1.07,1.09-.43.1-.62.06-.89-.15l.14.46c.26.04.42.15.58.42l-.56.04c.22.61,1,1.02.92,1.91.5-.13,1.14-1.07,1.74-.39-.25.12-.69.31-.87.14.06.06.31.17.24.34l-.55-.16c-.07.41.43.05.49.34-.37.13-.19.3-.5.37-.06-.06.07-.3-.12-.35.05.34-.04.8-.26,1.03.2-.11.5-.19.63.02.26.58-.36.38-.42.8.31.04.21.52.76.31.07.17-.17.31-.29.44.37.2.69,1.38,1.11.78v-.09s.03.03.05.04c.97.71.65,2.15,1.41,2.97l-.17.1c.51.44.84,1.17,1.45,1.31.1.16-.06.57-.3.63.4.33.61.24.77,1.01-.57-.2-.15.32-.51-.27.24.62.09.95.94,1.16-.55.13-.18.79.15.93l-.02-.59c.28.22.45.48.63.74l-.61.32c.16.79.89,1,1.48,1.21.63.18,1.13.38,1.13,1.22.57-.14-.38-.72.23-.94.41.44.36,1.61.53,1.73.52.8,1.21-.32,1.83.35.02-.26.28-.85.93-.71.46.37.17,1.23-.28,1.21-.14-.05-.17-.15-.12-.22-.21-.03-.49-.08-.41.27l.19-.16c.14.37.93.75.57,1,.53.03.36-.25.11-.52.55.7,1.12.58,1.78,1.13-.07-.17-.07-.47.05-.42,1.01.72.66-.21,1.44-.02.31.49-.45.76.43.74.4.4-.09.63-.35.75.86-.18,1.29.71,1.71.91-.15.03-.3.05-.45.08.27-.04.46,0,.67.06l-.11-.51c.21.14.41.18.36.37.31-.25,0-.81.56-1.12.25.32.96-.07.95.57-.93-.39,0,.65-.86.59.18-.04.37,0,.59.12.02.08-.06.12-.13.15.87.72.56-.6,1.53-.47-.17.34.14.7.32.64-.4-.06-.12-.61.27-.84.6.33.69-.15,1.01-.09l-.36-.16c.15-.35.45-.27.88-.36.02.28-.39.17-.25.3.49-.61,1.06.69,1.73.25.32.23.05.67.33.82.75-.48.87.44,1.66,0-.28-.46-.3-.33.2-.85l-1.27.45.77-.76c-.38.02-.79.38-1.03.3.37-.4.33-.29.13-.67.57.66.99-.48,1.62-.09l.13,1.17c1.03.39,1.56-.84,2.78-.83l-.42-.11c.05-.5.7-.22,1.03-.52.07.39.34.46.57.65-.1-.27.87-.23.72-1.02l.67.32c1-.15.63-1.43,1.5-1.67-.08.51.42.59-.03,1.13.29-.12.57-.17.47-.43.28.15.55-.83.97-.63.04-.21-.11-.6.21-.72.07.05.09.17.09.17-.08-.17.34-.49-.12-.73,1.43.64,2.16-1.37,3.4-.97.47-.5,1.03-1.08,1.47-1.49.05.12.12.15,0,.19.89-.25-.34-1.19.62-1.49.79.15-.14.59.25.57.99.88.72-.91,1.7-.82l-.06.16c.67-.05.49-1.21,1.08-1.78,0,0,.06.1.15.13-.14-.86.3-1.81.53-2.57.31.47.04.44.56.59.12-.34-.75-.35-.54-1.01.35-.05.79-.4,1.32-.24-.09.22-.19.43-.29.64.81.01.39-.84.64-1.12l.27.16c.31-1.08-.44-1.33-.11-2.37l-.26.05c-.63-.74.54-.39.08-1.08l.81-.05c-.12-.43-.57-1.46-.68-2.13.56.42.78,1.26,1.05,1.83.07-.4.1-1.35-.28-1.57.06.16.24.37.1.52-.57-.53-.83-1.14-.8-1.88,1.54.18.42-1.92,1.59-2.48-.6-1.32.13-2.67-.12-4.23-1.13.68-.08-.45-1.29-.21-.12-.34-.12-.48-.04-.52.2-.39.39-.78.57-1.18.31-.31.32.3.58.23-.03-.81.46-.41.7-.99-.41.18-.67-.17-.58-.66l-.45.73c-.83-.98.85-1.14,0-2.13l.45.28c-.32-.53-.46-2.12-1.55-2.42.11-.13.4-.35.55-.13-.21-1.4-1.85-2.65-1.63-3.84h.32c-.17-.22-.68-.23-.51-.64.12-.03.32,0,.29-.12-.15-.1-.73-.46-.71-.85l.42.15c-.17-1.46-1.61-1.68-2.37-2.57.78-.44.38-1.61.09-2.19l.11-.06c-1.1-1.56-2.65-1.78-4.05-2.39-.1-.66-.73-1.21-1.44-1.69-.72-.49-1.52-.91-2.04-1.48.12.24-.35.59-.61.56-.22-.31-1.09.14-.69-.56l.1.07c.13-.82-.59-.94-1.07-1.19l-.53.92c-.31-.99-1.23-1.25-2.08-1.42-.85-.18-1.63-.27-1.78-1.05-.42.14-.83-.01-1.24.14l.19-.53c-.89-.43-1.36-.64-2.59-.79l.34-.34c-.69-.2-1.21,1.41-1.81,1.33l-.04-.86c-1.17-.19-2.39-1.04-3.62-.3.02-.12.06-.37.26-.39-.57-.06-2.25-.56-1.99.6-.05-.76-1.25,0-1.83.4l.04-.57c-.46.78-.45.96-1.14,1.26-.18-.04-.22-.42.03-.31-.62-.19-.37.59-1.1.42l.19-.4c-.6.07-.52.25-.75.72-.32.28-1.12.1-1.32-.37,0,.31-.23.79-.6.74-.09-.17,0-.32.05-.39-1.06-.13-1.24,1-2.04.67-.07-.17-.14-.25-.21-.28.75-.22,1.38-.35,1.33-.3-.13-.5-.78-.41-.47-1.23-.41.51-1.01,1.57-1.67,1.53-.04-.04-.09-.08-.13-.14l.04-.07c-.15,0-.26.08-.35.2-.21-.02-.36-.04-.54.01-.21-.38-.77.02-1.07.11.21.52-.2.58.32.88-.06-.02.03-.08.22-.17.04-.03.09-.06.11-.1v.05c.19-.08.44-.19.72-.29-.15.35-.31.66-.74.48-.03.39-.07.8-.1,1-.66-.59-1.59-.7-1.87-1.11-.78.63-2.05,1.04-2.18,2.25-.19.23-.41-.15-.57-.26.1-.17.28-.22.3-.4-.4.47-1.46.8-1.24,1.52-.77.03.04-.79-.76-.23v-.26c-1.13-.06-1.62.79-2.03,1.61-.44.84-.78,1.6-2.08,1.85.17-.05.26-.07.36,0-1.11.65-1.82,1.82-2.34,2.97-.53,1.16-.93,2.3-1.8,3.29-.42.59.03.8.27,1.29h-.62c.16.28.34.56.52.83.29,1.03-1.8,1.4-1.02,2.79l.42-.1c-.14.43.06,1.41-.39,1.28.07.05.4.19.18.34l-.32-.02.43,1.12c-.3.81-1.24-.24-1.4.97.09.46.82,1.35,1.05,1.19.03-.18.23-.45.55-.44l.13.42c.92.14,1.85.52,2.57-.42l-.51-.73.47-.18-.02.57c.45-.29.09-.52-.15-.78.24-.03.42-.12.52-.24l-.82-.74c.37-.04.69.37.93-.06-.38-.35-.84.21-1.06-.33.46-.28.79-.14.47-.56.24-.02.39.07.48.23-.25-.37-.01-.88-.48-1.12.55-.26.04-1.13.9-.95-.2-.14-.58-.68-.56-.99.92.73.29-1.08,1.37-.68-.84-.61-.06-1.44-.33-2.24.06.06.17.18.11.22.21-.33.51-.33.76-.48-.72-.34-.64-.94-.95-1.45.88-.09.71.65,1.44.82-.6-.25-.23-.96-.77-1.07.58-.09.33-.17.99,0-.82-.54.02-.34-.35-.9.68-.14.83.41.89-.18.38,0,.41.55.41.55h.04Zm10.84-7.93c-.12.06-.22.11-.28.14.06-.03.14-.07.28-.14Zm1.19-.37c-.15.02-.33.07-.52.13-.1-.17-.11-.38.01-.41-.03.15.29.16.51.27h0Zm-3.79-2.88c.17-.14.28-.06.34.04-.09.04-.19.1-.33.19v.07c-.02-.11-.03-.21-.01-.29h0Z"/><path class="cls-2" d="m6,165.25c-.53.67.34.75.58,1.14-.39.9-.71.05-1.21.11-.19.63.13,1.38-.12,1.75-.12-.03-.21.02-.28-.15.17.83-.91,1.67-.56,2.66-.08.02-.15.02-.21,0,.38.05.73.2.96.34-.13.32.16.77-.34.69.1-.19-.07-.28-.17-.43l.04.41c-.77.02-.02-.55-.48-.76-.11.75.12,1.73-.25,2.16-.68-.14.25-1.27-.58-.81l.57-.69c-1.24.18.28-.46-1.02-.35-.64,1-.17,1.32-.74,2.33.27.36.56.1.83.46.17,1.69-2.02.7-1.46,2.09.36.41,1.16.73.53,1.42l-.68-.45c-.32,1.05.94.84.21,1.83-.27-.25-.08-.88-.21-.74-.75.6.33.6.23,1.14h-.69c-.11,1.16.23,2.48.24,3.74-.19-.09-.39-.32-.62-.04.21,1.63-.24,3.42-.57,5.03l.62.57c0,.14-.25.27-.37.13-.19.63.37,0,.62.28.07.34-.3.48-.49.28.58,1.05,1.39,2.88,1,4.1l-.21-.18c-.08.92,1.38.72,1.01,1.62l-.13-.13c.18,1.92,1.36,3.71,1.1,5.39.86-.07.43,1.91,1.55,1.51-.04,1.23-.38,1.05.05,2.62.17.39.95.16,1.32.53l-.51.34.93.23-.41.72.4.31c-.08-.18,0-.5.16-.57.64.45.72,1.72.49,1.94.52.36,1.02.72,1.54,1.05-.22.14-.48-.03-.75-.12,1.09.33-.38.56.64.85.03-.18.32-.2.42-.27,0,.58.71,1.31,1.34,1.71l-.4.2c.9,1.02,2.23,1.78,3.44,2.66-.32-.48.23-.99.61-.8l-.24.63c.46-.16-.22-.47.53-.53.39.38-.13.83-.51.81.22.08.46.14.69.2-.08.18-.27.18-.44.36.46-.19.63,1.22,1.37.83l-.07.19c1.31.79,2.04.91,3.18,1.4.26-.5.64-.19,1.15-.46.74.5,1.54,1.26,2.6,1.53.81-.05.34-.39.76-.62-.09.51.97.73.34.95,1.28.22,1.65.28,3.29.11-.14-.23-.32-.35-.19-.51.29-.04.61.3.54.54l-.08.04c1.84-.52,3.94,1.89,5.56.78l-.09.06c.53-.2,1.06-.42,1.58-.67.77-.02-.41.44.2.68.87-.55,1.57-.72,2.24-.88.67-.16,1.31-.33,1.82-.93.86.41,1.76-.16,2.52-.85.78-.69,1.43-1.49,2.28-1.63l-.3-.21c.03-.5.47-.15.73-.28-.22-.17-.52.04-.48-.25.96-1.23,2.1-2.31,3.26-3.44,1.15-1.13,2.3-2.31,3.23-3.6.65-.97-1.28-1.45.12-2.31l.4.66c.35-2.38,2.03-4.23,2.13-6.55.1.17.29.25.21.45.61-.28.59-1.62.21-1.75.15-.31.36.03.61-.11.41-.36-.23-1.3.29-1.39.09-.02.11.17.12.26-.14-.36.45-1.34-.16-1.21.48-.72.17-1.58.64-2.15-.5-.55.6-1.34-.23-1.65.88.25.99-1.33.63-1.92.25.22.34-.43.69-.17.07-.63-.05-1.22-.52-1.15.6-.52.4-1.14.24-1.66-.17-.53-.31-.97.36-1.33-.54-1.91-1.21-3.6-1.96-5.14.43-.12.61.33.77.77.14.44.28.87.74.73-.78-1.59-1.82-2.18-2.35-3.69-.08-.43.45.03.66.09-1.06-1.3-1.57-2.84-2.9-3.6.07-.05.23,0,.38.07-.2-.2-.33-.6-.61-.29.09.04.17.09.26.13-.16.7-1.65.03-1.9.24.57-.25.4-.54.27-.84-.14-.28-.24-.59.54-.87-.19-.07-.49-.08-.65.15-.14-.24-.1-.42.32-.46-.88-.52-.91.07-1.58-.51.13-.15.31-.1.53-.22-.59,0-1.17.04-1.66-.53.11-.07.13-.25.3-.11-1.07-.72-2.33-.37-3.29-1.36.78-.55-.26-.47.04-1.16-.25-.06-.5-.11-.76-.16l.09.46c-.57-.31-1.31-.09-1.69-.54l.56-.07-1.14-.39.48.55c-.74.07-.35.88-1.01.33.18,0-.56-.26-.68-.8-.38.09-.77.2-1.12-.15-.02-.27.41-.73.39-.9-.52.45-1.43-.4-2.03.09.18-.1.32-.46.31-.55l-.42.38c-.21-.25-.22-.34-.07-.62-.79-.39-.07.98-.9.24.09,0,.08-.09.26-.11-.9-.56-1.99-.37-2.82-.9-.04-.8.85.08.74-.62-1.37-.31-2.99,0-4.23-.51l.22.15c-.45.97-.82-.77-1.6-.44.18-.04.35-.52.28-.42-.85-.39-1.88-.19-3.3-.14l.22-.23c-.48-.35-1.36-.42-1.91-.64-.22.24-.54.14-.41.56-.75-.92-1.67-.84-2.54-.68-.88.16-1.67.4-2.52-.23.2,0,.48-.25.32-.25-.48.09-.96.19-1.43.32.15.45.21.26.53.6-.16.28-.52.53-.85.56.57-.37-.08-.74-.4-.96.07.13,0,.3.04.44-.86-.69.03.92-1.02.57v-.25c-.34.2-.58.6-.96.65-.32-.46.29-.36.2-.78-.56.2-.73,1.29-1.37.98.16-.23.48-.35.66-.57-.74-.41-.76-.22-1.18-.15h.04c-.34.04-.68.08-1.01.14l.3.05c-.03,1.55-1.18.87-1.53,2.14.33-1.2-.12-.51-.37-1.06-.29-.02-.71,0-.71-.19-.13.65-.85.07-.99,1.01-.13-.15-.4.24-.59-.22-.39.44.3.21.39.44-.36,1.04-2.15.45-2.68,1.94-.67.94-.45,1.59-1.02,2.46-.46-.03-.22-.73-.22-.73-.61.11-.91.43-1.15.94-.03-.2-.21-.23-.48-.29-.29.33.27.71-.33.89-.08-.22-.24-.56-.23-.86-.26.49-.36,1.11-.57,1.62-.35-.12-.17-.59-.2-.88-.32.54-.81,1.42-.48,1.88l.38-.18c-.11.18-.43-.19-.41-.38,0-.68.63-.45.78-.34l-.15.36c1.09.46.83-1.2,1.46-1.67l.34.82c.02-.34.05-.67.08-1.01.26.06.64.34.46.67.64-.02.15-.52.77-.44.08.03.09.07.08.12l.23-.5c.03.2.43.41.12.5.97-.16.75-1.35,1.4-1.04l-.03.08c.84-.94-.26-.57.1-1.69l1.37.89-.24-.57c.12-.05.35-.16.45.07.16-.61-.22-.18-.21-.66.82.12,1.28-1.16,1.92-.42-.07-.51-.69.02-.31-.61.72.78.54-.56,1.28-.44.13.55-.46.58.26.7-.18-.96,1.02-.37,1.32-.72-.32-.66.74-.73,1.35-1.22.05.22,1.48-.13,2.18.02v.12c-.03-.75.72-.75,1.23-.95.02.44-.05.62-.3.85.15-.02.31-.04.47-.06.09-.25.23-.39.54-.48l-.09.56c.61-.07,1.29-.69,2.12-.27.1-.51-.63-1.47.35-1.75.02.28.01.75-.24.85.08-.03.3-.21.46-.08l-.41.43c.38.23.24-.37.55-.3-.04.39.21.3.13.61-.08.03-.26-.19-.39-.04.35.1.75.38.85.69,0-.23.06-.53.33-.55.67.06.16.5.52.76.2-.25.58.1.69-.48.2.04.19.31.23.49.39-.2,1.63.23,1.36-.46l-.08-.06s.04,0,.06,0c1.27-.35,2.31.82,3.49.85l-.05.19c.73-.06,1.52.25,2.11-.02.2.05.37.48.22.68.55,0,.67-.2,1.31.34-.61.18.09.35-.59.09.61.36.66.7,1.52.41-.39.41.29.76.65.72l-.34-.49c.37.04.66.19.95.33l-.38.57c1.03,1.2,2.84-.46,3.35,1.2.51-.3-.58-.58-.08-.97.57.32.83,1.45,1.01,1.53.65.67,1.12-.58,1.86.02,0-.26.15-.89.88-.8.55.36.28,1.24-.17,1.24-.15-.05-.18-.15-.14-.22-.22,0-.5-.03-.39.31l.17-.18c.18.36.96.71.61.97.52.02.36-.26.1-.52.56.67,1.12.58,1.71,1.19-.05-.18-.02-.48.1-.41.91.85.69-.12,1.46.22.2.56-.6.63.25.83.28.48-.26.58-.53.64.87.02.94,1.01,1.2,1.32l-.41-.07c.24.04.39.15.53.26l.12-.5c.13.2.28.31.15.47.37-.1.35-.73.97-.77.08.38.89.4.54.94-.56-.78-.34.53-1,.11.16.04.31.15.41.36-.02.07-.11.08-.17.06.24,1,.78-.27,1.42.38-.33.17-.34.62-.19.67-.24-.26.3-.54.74-.48.21.61.57.35.76.6l-.13-.36c.35-.14.51.13.87.38-.2.2-.4-.18-.39,0,.79,0,.12,1.21.78,1.49-.05.37-.55.38-.56.67.77.34-.1.86.57,1.28.33-.37.24-.38.85-.09-.24-.33-.55-.62-.81-.92.31.11.64.24.97.38-.17-.34-.61-.56-.65-.79.52.14.39.17.66-.18-.41.79.87.74.64,1.52l-1.1.42c-.18.92,1.08,1.21,1.01,2.4l.13-.39c.49.06.2.68.43,1.02-.4.02-.5.26-.74.44.29-.04.05.81.83.88l-.5.53c-.22.91,1.12,1.1.91,2.04-.41-.31-.71.08-.98-.55-.02.3-.12.57.15.59-.25.15.44.91.03,1.15.16.15.56.25.47.6-.08.03-.19-.03-.19-.03.19.03.18.59.66.35-1.36.75-.45,2.75-1.71,3.33-.05.71-.17,1.56-.32,2.18-.1-.07-.19-.06-.11-.16-.61.73.92.85.23,1.69-.77.29-.16-.61-.49-.39-1.27-.28-.21,1.2-1.16,1.58l-.02-.18c-.59.32.04,1.33-.37,2.07,0,0-.09-.08-.18-.08.4.78.17,1.87-.02,2.68-.35-.45-.08-.45-.62-.53-.09.36.8.26.61.98-.35.1-.81.45-1.33.25l.28-.61c-.79-.01-.37.78-.65,1.04l-.25-.19c-.4.93.29,1.35-.34,2.27l.26.02c.33.93-.63.21-.48,1.03l-.76-.28c-.05.44-.16,1.58-.48,2.26-.22-.69.04-1.52.02-2.15-.21.33-.71,1.1-.52,1.5.03-.17,0-.45.19-.5.22.75.07,1.46-.45,2.07-1.06-1.07-1.65,1.3-2.91.85-.57,1.34-2.1,1.65-3.23,2.45,1.07.73-.34.25.36,1.25-.27.25-.41.3-.47.24-.43-.05-.85-.12-1.25-.22-.35-.24.18-.37.04-.61-.65.17-.46-.37-.95-.53.23.38,0,.67-.39.6.2.14.42.28.65.39-.35.46-.63.25-.87.04-.25-.21-.45-.43-.88-.06.09-.14.17-.28.24-.42-.4.31-1.79.09-2.43,1.03-.1-.15-.22-.49.04-.56-1.37-.2-3.22.81-4.21.03l.15-.28c-.27.05-.54.48-.8.13.04-.12.15-.27.04-.31-.15.08-.77.39-1.06.14l.35-.27c-1.19-.65-2.16.3-3.33.12.29-.84-.57-1.45-.97-1.8l.07-.11c-1.31-.69-2.62-.47-4.05-.97-.24-1.25-2.25-2.09-2.92-3.48.05.26-.49.48-.75.37-.11-.37-1.1-.24-.49-.77l.07.1c.38-.73-.23-1.07-.57-1.49l-.85.63c.1-1.05-.58-1.65-1.2-2.26-.63-.59-1.21-1.16-.83-1.85-.4-.15-.61-.52-1.02-.68l.5-.26c-.32-.9-.47-1.33-1.08-2.33l.47.05c-.24-.59-1.82-.11-2.1-.68l.72-.48c-.42-1.1-.09-2.4-1.1-3.31.12,0,.37-.04.45.13-.14-.53.08-2.15-1.02-1.73.73-.16-.15-1.19-.57-1.79l.56.02c-.77-.43-.98-.42-1.26-1.16.06-.19.43-.2.31.05.23-.63-.57-.42-.34-1.18l.38.24c0-.62-.18-.55-.62-.87-.25-.38.08-1.2.59-1.29-.31-.07-.72-.41-.58-.78.19-.05.31.08.37.15.39-1.02-.63-1.57-.03-2.26.19,0,.28-.04.34-.1-.08.82-.1,1.48-.15,1.41.51,0,.62-.63,1.32-.1-.39-.51-1.16-1.47-.87-2.09.05-.03.1-.05.19-.07l.05.07c.07-.14.03-.28-.04-.41.1-.19.18-.32.21-.51.42-.03.32-.71.39-1.03-.56-.05-.41-.47-.93-.13.05-.05.06.07.05.29,0,.05,0,.11.04.15l-.05-.03c-.02.22-.04.5-.06.82-.26-.29-.46-.6-.1-.92-.33-.22-.68-.46-.83-.59.83-.35,1.42-1.13,1.91-1.15-.13-1.04.29-2.31-.55-3.21-.05-.32.38-.24.57-.29.06.19-.02.37.11.5-.11-.63.39-1.64-.25-2.01.56-.58.51.61.72-.37l.17.2c.89-.69.73-1.56.7-2.49-.04-.91.03-1.9,1.25-2.42-.16.08-.23.12-.35.08.92-.88,1.52-1.96,2.28-2.98.74-1,1.67-1.92,2.94-2.19.66-.22.45-.64.61-1.17l.45.43c.07-.33.16-.64.25-.96.32-.49.91-.35,1.45-.27.56.09,1.08.15,1.5-.51l-.29-.33c.45-.08,1.34-.66,1.38-.17.03-.08.05-.45.27-.29l.08.3c.32-.24.65-.51,1.01-.73.89.13.04,1.23,1.22,1.2.4-.16,1.26-.92,1.11-1.15-.19-.02-.48-.2-.5-.52l.45-.16c.09-.93.59-1.88-.73-2.54-.3.19-.6.41-.88.61l-.33-.43.77-.08c-.46-.39-.73,0-1,.29-.1-.23-.25-.38-.44-.45-.26.33-.51.67-.73,1.02-.18-.34.26-.79-.37-.87-.32.48.54.73-.06,1.12-.49-.32-.47-.68-.86-.21-.13-.21-.07-.39.1-.54-.37.38-1.12.45-1.18.99-.6-.35-1.33.65-1.63-.17-.05.25-.44.94-.77,1.16.09-.64-.25-.48-.67-.3-.41.19-.88.43-1.08-.11,0,1.09-1.49,1.44-1.92,2.48,0-.09-.02-.28.08-.29-.48.27-.78.16-1.17.26.45.64-.05,1.33-.02,1.99-1-.08-.36-.93-1.01-1.31.45.43-.38,1.29.17,1.49-.69.05-.47.16-1.12-.07.68.71-.19.47,0,1.18-.82.27-.84-.42-1.1.4-.47.13-.31-.66-.31-.66l.03.1Zm-4.61,17.91v-.37.37Zm-.08,1.51c.03-.18.05-.41.06-.65.2-.04.39.03.37.18-.12-.09-.26.26-.44.47h0Zm4.14-2.7c.05.22-.07.28-.18.3,0-.1,0-.22-.02-.38-.02,0-.04-.02-.06-.03.1.03.2.07.27.12h-.01Z"/><path class="cls-2" d="m82.3,41.85c.21-.5-.57-.52-.92-.8.1-.72.63-.07,1.07-.11-.02-.45-.44-1.05-.26-1.33.12.04.18,0,.28.15-.29-.71.68-1.12.43-2,.08,0,.14.03.19.06-.35-.16-.65-.38-.85-.56.17-.23,0-.71.42-.48-.12.13.02.26.08.42l.03-.36c.7.25-.07.46.32.79.16-.57.21-1.45.67-1.63.53.41-.53.89.29.89-.21.1-.43.19-.64.31,1.12.34-.3.24.84.66.69-.46.37-.91,1.12-1.33-.11-.41-.42-.37-.53-.78.25-.67.72-.5,1.13-.31.41.19.74.38.84-.24-.08-.49-.5-1.27.32-1.27l.24.76c.74-.4-.2-1.2.86-1.25.02.34-.45.57-.29.58.82.21.12-.59.52-.83l.43.54c.73-.56,1.42-1.47,2.33-2.03.03.21-.04.48.27.56,1.04-.87,2.63-1.08,3.97-1.16l.25-.72c.11-.03.29.17.22.32.54.03-.11-.36.04-.66.26-.13.47.19.36.42.65-.77,2.05-1.84,3.13-1.49l-.12.22c.75.02.46-1.38,1.26-1.03l-.1.13c1.57-.16,3.19-1.01,4.49-.3.12-.87,1.55.18,1.53-.98.93.5.7.73,1.93,1.07.32.04.46-.74.88-.87v.62c.19-.21.38-.44.57-.64l.27.75.38-.14c-.15-.04-.31-.29-.28-.47.62-.27,1.42.52,1.39.84.47-.14.94-.25,1.43-.35-.07.24-.31.29-.51.43.81-.52.04.66.78.18-.07-.15.11-.36.14-.48.26.45.99.55,1.56.56l-.2.39c.92.32,2.05.38,3.08.81-.3-.33.06-.98.41-.92l-.13.65c.36-.28-.23-.37.38-.64.37.25-.04.8-.34.89h.56c-.06.2-.21.24-.34.45.37-.28.49.94,1.06.47l-.07.18c.48.25.84.41,1.19.56.35.14.67.28,1.04.53.34-.44.56-.15,1.05-.34.21.29.39.63.6.96.19.35.4.68.71.93.58.21.45-.22.87-.26-.34.39.24.94-.31.88.37.31.55.54.82.76.28.21.58.45,1.08.83.1-.22.09-.4.28-.44.2.14.11.54-.11.65l-.08-.02c.69.38.76,1.28.74,2.08-.03.81-.09,1.5.55,1.85l-.07-.04c.29.29.53.61.8.94,0,.52-.43-.23-.68.2.53.49.55.99.53,1.43-.03.45-.12.86.17,1.36-.76.38-.76,1.02-.74,1.73,0,.7.05,1.48-.55,1.87l.36.02c.28.34-.26.27-.39.44.28.04.38-.2.53,0-.07,1.17-.6,2.29-1.29,3.27-.7.99-1.56,1.88-2.34,2.75-.56.64,1.24,1.47-.13,1.88l-.34-.65c-.44,1.92-2.34,2.77-3.17,4.47-.03-.19-.16-.33-.03-.45-.59-.09-1.04.92-.79,1.22-.24.15-.28-.22-.54-.26-.46.03-.34,1.09-.8.85-.08-.04-.02-.19.01-.26-.04.34-.94.67-.41.96-.7.21-.89.99-1.52,1.04.07.72-1.12.42-.72,1.21-.46-.77-1.39.04-1.54.63-.02-.31-.47-.05-.52-.46-.41.26-.7.63-.4.99-1.3-.51-1.19,1.64-2.27.62-1.07,1.06-2.19,1.89-3.37,2.5-.25-.87,1.33-.57.93-1.45-.98.77-1.44,1.75-2.69,1.86-.34-.04.07-.42.13-.6-1.08.7-2.28.47-3.27,1.11,0-.08.09-.19.19-.27-.21.06-.51-.06-.43.34l.19-.14c.44.54-.69,1.36-.71,1.66.25-1.2-1.13-.19-.67-1.72-.13.09-.29.3-.24.57-.22-.07-.29-.23-.1-.55-.74.25-.45.69-1.15.7,0-.2.14-.28.2-.51-.33.38-.7.79-1.29.6.04-.12-.02-.28.15-.27-.99.02-1.82.95-2.91.4.46-.81-.34-.33-.27-1.08l-.62.11.17.4c-.51-.1-1.09.32-1.47-.03l.45-.21c-.33-.03-.66-.05-.99-.11.15.15.31.29.47.42-.63.24-.19.94-.83.53.17-.03-.53-.16-.66-.67-.32.14-.68.28-.99-.03-.01-.26.37-.74.37-.91-.46.48-1.2-.3-1.77.15.17-.09.34-.45.34-.53l-.41.36c-.15-.25-.15-.34.03-.6-.61-.41-.23.96-.82.18.08,0,.09-.08.25-.08-.66-.6-1.66-.58-2.17-1.27.25-.75.67.26.81-.42-.98-.51-2.43-.74-3.11-1.69l.09.21c-.88.62-.21-.97-.94-1.06.15.06.57-.25.45-.2-.36-.68-1.19-1.03-2.12-1.85l.31-.03c-.05-.51-.52-1.09-.65-1.58-.31,0-.4-.27-.67.07.32-1.04-.16-1.58-.66-2.15-.5-.56-1.01-1.14-.61-2,.06.15.35.29.31.17-.21-.33-.4-.68-.59-1.03-.42.22-.22.23-.49.57-.3-.06-.61-.33-.69-.62.45.43.71-.21.9-.5-.13.07-.3.04-.43.1.64-.81-.93.14-.6-.83h.25c-.19-.29-.58-.51-.58-.87.49-.25.31.28.75.21-.13-.45-1.19-.73-.74-1.27.18.18.24.47.43.64.52-.58.36-.6.4-.96v.04l.14-.83-.14.23c-1.47-.39-.42-1.16-1.41-1.87.95.7.51.08,1.12.08.14-.22.31-.55.48-.47-.52-.33.32-.65-.42-1.13.19-.04,0-.4.49-.35-.18-.48-.33.13-.58.11-.71-.74.72-1.81-.2-2.89-.38-.95-1.03-1.14-1.34-2.05.32-.29.7.27.7.27.3-.48.26-.84.05-1.31.17.1.31,0,.54-.12-.04-.37-.7-.28-.39-.75.21.09.56.22.76.4-.16-.44-.5-.88-.65-1.34.35-.1.5.3.71.47-.12-.51-.23-1.32-.75-1.51l-.21.31c-.01-.19.47-.06.56.08.39.46-.22.61-.42.62l-.11-.33c-1.16.26.11,1.3.01,1.94l-.82-.31.66.69c-.22.13-.69.21-.8-.11-.43.45.28.42-.19.81-.07.04-.11.02-.14-.02l.24.46c-.17-.09-.59.06-.46-.22-.51.82.6,1.34-.03,1.64l-.05-.07c.29,1.14.61.11,1.33.96l-1.49.6.61.1c-.02.12-.06.35-.3.32.43.43.26-.08.67.16-.54.59.34,1.54-.62,1.73.48.17.32-.56.68.02-1.04.25.23.68-.2,1.24-.55-.11-.31-.63-.74-.06.94.22-.09,1.04.14,1.47.72-.08.43.92.8,1.61-.26,0-.13,1.45-.21,2.2h-.12c.74-.03.79.69,1.08,1.15-.43.1-.63.06-.89-.16l.14.48c.26.05.42.16.6.44l-.56.04c.23.64,1.03,1.06,1,1.99.49-.15,1.09-1.13,1.72-.45-.25.13-.67.34-.86.17.06.06.31.16.26.35l-.57-.15c-.05.43.44.04.51.33-.37.15-.17.32-.48.4-.07-.06.04-.31-.15-.36.07.35.02.83-.19,1.08.19-.12.48-.22.64,0,.31.58-.33.41-.34.85.31.03.27.54.79.27.09.17-.14.33-.24.48.38.19.88,1.38,1.22.72v-.1s.02.02.04.03c1.06.63.99,2.13,1.92,2.85l-.15.13c.6.37,1.1,1.03,1.73,1.06.14.13.09.57-.14.69.48.24.65.12,1.02.84-.62-.07-.06.35-.58-.15.41.55.33.94,1.25.93-.51.26.04.82.4.89l-.18-.58c.33.16.57.37.82.58l-.51.46c.38.74,1.14.78,1.79.81.66.04,1.22.07,1.44.91.52-.27-.56-.61-.03-.97.52.34.79,1.47.99,1.56.73.64,1.1-.61,1.9-.12-.05-.26.05-.89.73-.92.56.25.49,1.15.05,1.24-.15-.02-.2-.11-.18-.19-.22.03-.51.04-.34.36l.14-.2c.24.33,1.12.5.82.84.53-.1.29-.33-.03-.53.73.54,1.26.29,2.05.66-.11-.15-.19-.44-.06-.42,1.18.46.6-.36,1.42-.37.43.4-.26.84.61.62.49.29.07.64-.16.81.81-.39,1.45.39,1.92.48-.14.07-.28.13-.43.18.26-.1.46-.11.67-.1l-.24-.47c.24.08.45.08.45.28.25-.31-.19-.79.29-1.22.32.25.94-.3,1.08.33-1.01-.16.15.63-.72.77.17-.08.37-.09.62-.02.04.07-.03.13-.09.17,1.03.51.41-.72,1.41-.8-.09.37.3.65.46.56-.41.03-.25-.57.07-.88.66.19.65-.3.98-.31l-.39-.08c.07-.37.39-.36.79-.55.08.27-.35.26-.18.35.36-.7,1.2.45,1.77-.13.36.16.18.64.49.74.64-.63.94.26,1.63-.33-.36-.39-.36-.27.04-.88-.38.24-.78.46-1.17.68l.63-.89c-.38.1-.72.51-.97.49.29-.48.27-.35,0-.69.7.55.9-.67,1.61-.4l.34,1.13c1.08.21,1.4-1.11,2.62-1.28l-.44-.05c-.02-.49.67-.34.95-.68.12.38.41.41.66.57-.14-.25.82-.36.58-1.11l.71.23c.98-.26.47-1.51,1.33-1.83-.03.51.48.55.08,1.12.28-.15.56-.22.43-.46.29.12.47-.9.91-.72.02-.21-.16-.59.15-.75.07.05.1.17.1.17-.1-.17.31-.51-.17-.72,1.48.54,2.12-1.53,3.39-1.17.46-.51,1.02-1.11,1.47-1.52.05.12.12.15,0,.19.89-.26-.33-1.2.65-1.5.79.16-.15.59.23.57.96.89.75-.9,1.73-.8l-.06.16c.67-.03.54-1.2,1.16-1.73,0,0,.06.11.14.14-.09-.86.43-1.78.78-2.49.24.51-.02.44.48.66.17-.32-.7-.45-.38-1.08.36,0,.85-.24,1.33.03l-.39.55c.78.18.51-.71.82-.91l.22.22c.52-.91-.12-1.36.51-2.24l-.26-.03c-.36-.91.64-.19.43-1l.77.23c.04-.45,0-1.58.14-2.27.37.6.27,1.49.32,2.12.2-.35.58-1.24.31-1.6,0,.18.09.45-.09.54-.34-.72-.36-1.4-.06-2.1.69.35.96-.1,1.22-.66.25-.56.46-1.22,1.1-1.36-.18-1.52.88-2.77.89-4.53-1.22.53,0-.5-1.24-.44-.06-.38-.04-.52.04-.56.23-.38.49-.78.7-1.19.34-.31.29.37.56.32.04-.9.5-.4.78-1.03-.42.16-.65-.26-.55-.79l-.48.78c-.79-1.13.9-1.22.02-2.37.15.11.32.21.46.32-.33-.6-.59-2.44-1.77-2.68.09-.15.35-.42.53-.18-.19-.78-.82-1.46-1.37-2.09-.57-.62-1.08-1.17-1.18-1.82l.31-.07c-.24-.19-.73-.09-.71-.55.11-.06.31-.09.24-.2-.18-.06-.89-.26-.99-.66l.46.03c-.68-1.43-2.15-1.14-3.14-1.76.59-.66-.13-1.62-.52-2.09l.09-.09c-1.36-1.14-2.86-1.02-4.37-1.4-.45-1.3-2.83-1.68-4.2-2.57.19.21-.22.65-.5.67-.31-.27-1.1.36-.87-.41l.12.04c-.1-.82-.91-.79-1.49-.89l-.26,1.03c-.62-.88-1.66-.85-2.56-.75-.91.11-1.71.28-2.12-.4-.36.26-.81.27-1.16.55v-.66c-1.02-.1-1.54-.13-2.76.14l.21-.43c-.71.06-.68,1.73-1.28,1.85l-.32-.8c-1.18.19-2.54-.28-3.52.75,0-.12-.03-.37.15-.45-.56.09-2.27,0-1.76,1.06-.22-.72-1.21.27-1.7.79l-.08-.56c-.29.85-.25,1.03-.89,1.46-.19-.01-.29-.37-.02-.31-.65-.08-.25.65-1.02.61l.13-.42c-.59.16-.47.33-.63.84-.27.34-1.11.27-1.38-.16.04.32-.11.82-.49.82-.12-.16-.04-.32,0-.39-1.08.03-1.12,1.18-1.97.96-.09-.16-.17-.23-.25-.25.74-.32,1.35-.55,1.31-.49-.2-.47-.84-.3-.64-1.15-.34.57-.81,1.7-1.49,1.76-.05-.03-.1-.06-.15-.12l.04-.08c-.16.02-.26.12-.33.25-.22.02-.37.02-.55.1-.26-.35-.79.15-1.1.29.29.48-.13.61.45.82-.06-.01.02-.09.2-.21.04-.04.08-.07.1-.12v.05c.18-.12.43-.26.71-.41-.1.37-.23.7-.69.6.02.4.04.81.03,1.01-.76-.48-1.73-.41-2.09-.75-.72.78-1.95,1.53-1.81,2.75-.14.28-.44-.03-.63-.1.07-.19.23-.3.21-.48-.3.56-1.29,1.19-.89,1.83-.75.26-.16-.79-.81,0l-.06-.26c-1.16.27-1.39,1.27-1.59,2.18-.18.96-.34,1.79-1.52,2.41.16-.09.23-.14.35-.1-.92.93-1.31,2.24-1.57,3.49-.27,1.26-.46,2.48-1.15,3.62-.29.66.16.8.48,1.24l-.61.09.64.77c.45,1-1.57,1.69-.6,2.98l.41-.16c-.08.46.26,1.42-.21,1.36.08.04.43.14.22.32l-.32.02.59,1.08c-.18.86-1.26-.07-1.26,1.18.15.46,1,1.26,1.2,1.07,0-.19.17-.49.48-.52l.19.41c.93.02,1.91.27,2.49-.79l-.61-.67.44-.25.06.59c.41-.36.02-.55-.25-.77.24-.07.4-.18.48-.32l-.92-.65c.36-.1.74.28.92-.19-.43-.31-.8.34-1.1-.18.41-.35.76-.26.39-.64.24-.06.39.02.5.17-.3-.34-.14-.91-.63-1.08.52-.34-.13-1.16.75-1.11-.21-.11-.68-.62-.7-.93,1.02.61.12-1.16,1.25-.92-.92-.48-.29-1.5-.68-2.27.07.05.21.15.15.21.15-.38.43-.45.67-.66-.75-.19-.82-.85-1.19-1.3.86-.29.82.51,1.56.53-.62-.12-.4-.95-.95-.94.54-.23.31-.25.99-.23-.91-.36-.05-.37-.53-.85.65-.33.91.2.84-.44.37-.13.52.45.52.45l-.02-.02Zm8.84-10.33h0c-.11.08-.21.14-.27.17.06-.04.13-.09.27-.17Zm1.16-.54c-.15.04-.33.12-.52.21-.12-.16-.16-.36-.04-.4,0,.15.31.12.55.2h.01Zm-4.23-2.3c.16-.17.28-.11.36-.02-.09.06-.19.12-.31.24v.07c-.03-.1-.06-.21-.05-.29Z"/><path class="cls-2" d="m504.3,58.85c.21-.5-.57-.52-.92-.8.1-.72.63-.07,1.07-.11-.02-.45-.44-1.05-.26-1.33.12.04.18,0,.28.15-.29-.71.68-1.12.43-2,.08,0,.14.03.19.06-.35-.16-.65-.38-.85-.56.17-.23,0-.71.42-.48-.12.13.02.26.08.42l.03-.36c.7.25-.07.46.32.79.16-.57.21-1.45.67-1.63.53.41-.53.89.29.89-.21.1-.43.19-.64.31,1.12.34-.3.24.84.66.69-.46.37-.91,1.12-1.33-.11-.41-.42-.37-.53-.78.25-.67.72-.5,1.13-.31.41.19.74.38.84-.24-.08-.49-.5-1.27.32-1.27l.24.76c.74-.4-.2-1.2.86-1.25.02.34-.45.57-.29.58.82.21.12-.59.52-.83l.43.54c.73-.56,1.42-1.47,2.33-2.03.03.21-.04.48.27.56,1.04-.87,2.63-1.08,3.97-1.16l.25-.72c.11-.03.29.17.22.32.54.03-.11-.36.04-.66.26-.13.47.19.36.42.65-.77,2.05-1.84,3.13-1.49l-.12.22c.75.02.46-1.38,1.26-1.03l-.1.13c1.57-.16,3.19-1.01,4.49-.3.12-.87,1.55.18,1.53-.98.93.5.7.73,1.93,1.07.32.04.46-.74.88-.87v.62c.19-.21.38-.44.57-.64l.27.75.38-.14c-.15-.04-.31-.29-.28-.47.62-.27,1.42.52,1.39.84.47-.14.94-.25,1.43-.35-.07.24-.31.29-.51.43.81-.52.04.66.78.18-.07-.15.11-.36.14-.48.26.45.99.55,1.56.56l-.2.39c.92.32,2.05.38,3.08.81-.3-.33.06-.98.41-.92l-.13.65c.36-.28-.23-.37.38-.64.37.25-.04.8-.34.89h.56c-.06.2-.21.24-.34.45.37-.28.49.94,1.06.47l-.07.18c.48.25.84.41,1.19.56.35.14.67.28,1.04.53.34-.44.56-.15,1.05-.34.21.29.39.63.6.96.19.35.4.68.71.93.58.21.45-.22.87-.26-.34.39.24.94-.31.88.37.31.55.54.82.76.28.21.58.45,1.08.83.1-.22.09-.4.28-.44.2.14.11.54-.11.65l-.08-.02c.69.38.76,1.28.74,2.08-.03.81-.09,1.5.55,1.85l-.07-.04c.29.29.53.61.8.94,0,.52-.43-.23-.68.2.53.49.55.99.53,1.43-.03.45-.12.86.17,1.36-.76.38-.76,1.02-.74,1.73,0,.7.05,1.48-.55,1.87l.36.02c.28.34-.26.27-.39.44.28.04.38-.2.53,0-.07,1.17-.6,2.29-1.29,3.27-.7.99-1.56,1.88-2.34,2.75-.56.64,1.24,1.47-.13,1.88l-.34-.65c-.44,1.92-2.34,2.77-3.17,4.47-.03-.19-.16-.33-.03-.45-.59-.09-1.04.92-.79,1.22-.24.15-.28-.22-.54-.26-.46.03-.34,1.09-.8.85-.08-.04-.02-.19.01-.26-.04.34-.94.67-.41.96-.7.21-.89.99-1.52,1.04.07.72-1.12.42-.72,1.21-.46-.77-1.39.04-1.54.63-.02-.31-.47-.05-.52-.46-.41.26-.7.63-.4.99-1.3-.51-1.19,1.64-2.27.62-1.07,1.06-2.19,1.89-3.37,2.5-.25-.87,1.33-.57.93-1.45-.98.77-1.44,1.75-2.69,1.86-.34-.04.07-.42.13-.6-1.08.7-2.28.47-3.27,1.11,0-.08.09-.19.19-.27-.21.06-.51-.06-.43.34l.19-.14c.44.54-.69,1.36-.71,1.66.25-1.2-1.13-.19-.67-1.72-.13.09-.29.3-.24.57-.22-.07-.29-.23-.1-.55-.74.25-.45.69-1.15.7,0-.2.14-.28.2-.51-.33.38-.7.79-1.29.6.04-.12-.02-.28.15-.27-.99.02-1.82.95-2.91.4.46-.81-.34-.33-.27-1.08l-.62.11.17.4c-.51-.1-1.09.32-1.47-.03l.45-.21c-.33-.03-.66-.05-.99-.11.15.15.31.29.47.42-.63.24-.19.94-.83.53.17-.03-.53-.16-.66-.67-.32.14-.68.28-.99-.03-.01-.26.37-.74.37-.91-.46.48-1.2-.3-1.77.15.17-.09.34-.45.34-.53l-.41.36c-.15-.25-.15-.34.03-.6-.61-.41-.23.96-.82.18.08,0,.09-.08.25-.08-.66-.6-1.66-.58-2.17-1.27.25-.75.67.26.81-.42-.98-.51-2.43-.74-3.11-1.69l.09.21c-.88.62-.21-.97-.94-1.06.15.06.57-.25.45-.2-.36-.68-1.19-1.03-2.12-1.85l.31-.03c-.05-.51-.52-1.09-.65-1.58-.31,0-.4-.27-.67.07.32-1.04-.16-1.58-.66-2.15-.5-.56-1.01-1.14-.61-2,.06.15.35.29.31.17-.21-.33-.4-.68-.59-1.03-.42.22-.22.23-.49.57-.3-.06-.61-.33-.69-.62.45.43.71-.21.9-.5-.13.07-.3.04-.43.1.64-.81-.93.14-.6-.83h.25c-.19-.29-.58-.51-.58-.87.49-.25.31.28.75.21-.13-.45-1.19-.73-.74-1.27.18.18.24.47.43.64.52-.58.36-.6.4-.96v.04l.14-.83-.14.23c-1.47-.39-.42-1.16-1.41-1.87.95.7.51.08,1.12.08.14-.22.31-.55.48-.47-.52-.33.32-.65-.42-1.13.19-.04,0-.4.49-.35-.18-.48-.33.13-.58.11-.71-.74.72-1.81-.2-2.89-.38-.95-1.03-1.14-1.34-2.05.32-.29.7.27.7.27.3-.48.26-.84.05-1.31.17.1.31,0,.54-.12-.04-.37-.7-.28-.39-.75.21.09.56.22.76.4-.16-.44-.5-.88-.65-1.34.35-.1.5.3.71.47-.12-.51-.23-1.32-.75-1.51l-.21.31c-.01-.19.47-.06.56.08.39.46-.22.61-.42.62l-.11-.33c-1.16.26.11,1.3,0,1.94l-.82-.31.66.69c-.22.13-.69.21-.8-.11-.43.45.28.42-.19.81-.07.04-.11.02-.14-.02l.24.46c-.17-.09-.59.06-.46-.22-.51.82.6,1.34-.03,1.64l-.05-.07c.29,1.14.61.11,1.33.96l-1.49.6.61.1c-.02.12-.06.35-.3.32.43.43.26-.08.67.16-.54.59.34,1.54-.62,1.73.48.17.32-.56.68.02-1.04.25.23.68-.2,1.24-.55-.11-.31-.63-.74-.06.94.22-.09,1.04.14,1.47.72-.08.43.92.8,1.61-.26,0-.13,1.45-.21,2.2h-.12c.74-.03.79.69,1.08,1.15-.43.1-.63.06-.89-.16l.14.48c.26.05.42.16.6.44l-.56.04c.23.64,1.03,1.06,1,1.99.49-.15,1.09-1.13,1.72-.45-.25.13-.67.34-.86.17.06.06.31.16.26.35l-.57-.15c-.05.43.44.04.51.33-.37.15-.17.32-.48.4-.07-.06.04-.31-.15-.36.07.35.02.83-.19,1.08.19-.12.48-.22.64,0,.31.58-.33.41-.34.85.31.03.27.54.79.27.09.17-.14.33-.24.48.38.19.88,1.38,1.22.72v-.1s.02.02.04.03c1.06.63.99,2.13,1.92,2.85l-.15.13c.6.37,1.1,1.03,1.73,1.06.14.13.09.57-.14.69.48.24.65.12,1.02.84-.62-.07-.06.35-.58-.15.41.55.33.94,1.25.93-.51.26.04.82.4.89l-.18-.58c.33.16.57.37.82.58l-.51.46c.38.74,1.14.78,1.79.81.66.04,1.22.07,1.44.91.52-.27-.56-.61-.03-.97.52.34.79,1.47.99,1.56.73.64,1.1-.61,1.9-.12-.05-.26.05-.89.73-.92.56.25.49,1.15.05,1.24-.15-.02-.2-.11-.18-.19-.22.03-.51.04-.34.36l.14-.2c.24.33,1.12.5.82.84.53-.1.29-.33-.03-.53.73.54,1.26.29,2.05.66-.11-.15-.19-.44-.06-.42,1.18.46.6-.36,1.42-.37.43.4-.26.84.61.62.49.29.07.64-.16.81.81-.39,1.45.39,1.92.48-.14.07-.28.13-.43.18.26-.1.46-.11.67-.1l-.24-.47c.24.08.45.08.45.28.25-.31-.19-.79.29-1.22.32.25.94-.3,1.08.33-1.01-.16.15.63-.72.77.17-.08.37-.09.62-.02.04.07-.03.13-.09.17,1.03.51.41-.72,1.41-.8-.09.37.3.65.46.56-.41.03-.25-.57.07-.88.66.19.65-.3.98-.31l-.39-.08c.07-.37.39-.36.79-.55.08.27-.35.26-.18.35.36-.7,1.2.45,1.77-.13.36.16.18.64.49.74.64-.63.94.26,1.63-.33-.36-.39-.36-.27.04-.88-.38.24-.78.46-1.17.68l.63-.89c-.38.1-.72.51-.97.49.29-.48.27-.35,0-.69.7.55.9-.67,1.61-.4l.34,1.13c1.08.21,1.4-1.11,2.62-1.28l-.44-.05c-.02-.49.67-.34.95-.68.12.38.41.41.66.57-.14-.25.82-.36.58-1.11l.71.23c.98-.26.47-1.51,1.33-1.83-.03.51.48.55.08,1.12.28-.15.56-.22.43-.46.29.12.47-.9.91-.72.02-.21-.16-.59.15-.75.07.05.1.17.1.17-.1-.17.31-.51-.17-.72,1.48.54,2.12-1.53,3.39-1.17.46-.51,1.02-1.11,1.47-1.52.05.12.12.15,0,.19.89-.26-.33-1.2.65-1.5.79.16-.15.59.23.57.96.89.75-.9,1.73-.8l-.06.16c.67-.03.54-1.2,1.16-1.73,0,0,.06.11.14.14-.09-.86.43-1.78.78-2.49.24.51-.02.44.48.66.17-.32-.7-.45-.38-1.08.36,0,.85-.24,1.33.03l-.39.55c.78.18.51-.71.82-.91l.22.22c.52-.91-.12-1.36.51-2.24l-.26-.03c-.36-.91.64-.19.43-1l.77.23c.04-.45,0-1.58.14-2.27.37.6.27,1.49.32,2.12.2-.35.58-1.24.31-1.6,0,.18.09.45-.09.54-.34-.72-.36-1.4-.06-2.1.69.35.96-.1,1.22-.66.25-.56.46-1.22,1.1-1.36-.18-1.52.88-2.77.89-4.53-1.22.53-.01-.5-1.24-.44-.06-.38-.04-.52.04-.56.23-.38.49-.78.7-1.19.34-.31.29.37.56.32.04-.9.5-.4.78-1.03-.42.16-.65-.26-.55-.79l-.48.78c-.79-1.13.9-1.22.02-2.37.15.11.32.21.46.32-.33-.6-.59-2.44-1.77-2.68.09-.15.35-.42.53-.18-.19-.78-.82-1.46-1.37-2.09-.57-.62-1.08-1.17-1.18-1.82l.31-.07c-.24-.19-.73-.09-.71-.55.11-.06.31-.09.24-.2-.18-.06-.89-.26-.99-.66l.46.03c-.68-1.43-2.15-1.14-3.14-1.76.59-.66-.13-1.62-.52-2.09l.09-.09c-1.36-1.14-2.86-1.02-4.37-1.4-.45-1.3-2.83-1.68-4.2-2.57.19.21-.22.65-.5.67-.31-.27-1.1.36-.87-.41l.12.04c-.1-.82-.91-.79-1.49-.89l-.26,1.03c-.62-.88-1.66-.85-2.56-.75-.91.11-1.71.28-2.12-.4-.36.26-.81.27-1.16.55v-.66c-1.02-.1-1.54-.13-2.76.14l.21-.43c-.71.06-.68,1.73-1.28,1.85l-.32-.8c-1.18.19-2.54-.28-3.52.75-.01-.12-.03-.37.15-.45-.56.09-2.27,0-1.76,1.06-.22-.72-1.21.27-1.7.79l-.08-.56c-.29.85-.25,1.03-.89,1.46-.19,0-.29-.37-.02-.31-.65-.08-.25.65-1.02.61l.13-.42c-.59.16-.47.33-.63.84-.27.34-1.11.27-1.38-.16.04.32-.11.82-.49.82-.12-.16-.04-.32,0-.39-1.08.03-1.12,1.18-1.97.96-.09-.16-.17-.23-.25-.25.74-.32,1.35-.55,1.31-.49-.2-.47-.84-.3-.64-1.15-.34.57-.81,1.7-1.49,1.76-.05-.03-.1-.06-.15-.12l.04-.08c-.16.02-.26.12-.33.25-.22.02-.37.02-.55.1-.26-.35-.79.15-1.1.29.29.48-.13.61.45.82-.06-.01.02-.09.2-.21.04-.04.08-.07.1-.12v.05c.18-.12.43-.26.71-.41-.1.37-.23.7-.69.6.02.4.04.81.03,1.01-.76-.48-1.73-.41-2.09-.75-.72.78-1.95,1.53-1.81,2.75-.14.28-.44-.03-.63-.1.07-.19.23-.3.21-.48-.3.56-1.29,1.19-.89,1.83-.75.26-.16-.79-.81,0l-.06-.26c-1.16.27-1.39,1.27-1.59,2.18-.18.96-.34,1.79-1.52,2.41.16-.09.23-.14.35-.1-.92.93-1.31,2.24-1.57,3.49-.27,1.26-.46,2.48-1.15,3.62-.29.66.16.8.48,1.24l-.61.09.64.77c.45,1-1.57,1.69-.6,2.98l.41-.16c-.08.46.26,1.42-.21,1.36.08.04.43.14.22.32l-.32.02.59,1.08c-.18.86-1.26-.07-1.26,1.18.15.46,1,1.26,1.2,1.07,0-.19.17-.49.48-.52l.19.41c.93.02,1.91.27,2.49-.79l-.61-.67.44-.25.06.59c.41-.36.02-.55-.25-.77.24-.07.4-.18.48-.32l-.92-.65c.36-.1.74.28.92-.19-.43-.31-.8.34-1.1-.18.41-.35.76-.26.39-.64.24-.06.39.02.5.17-.3-.34-.14-.91-.63-1.08.52-.34-.13-1.16.75-1.11-.21-.11-.68-.62-.7-.93,1.02.61.12-1.16,1.25-.92-.92-.48-.29-1.5-.68-2.27.07.05.21.15.15.21.15-.38.43-.45.67-.66-.75-.19-.82-.85-1.19-1.3.86-.29.82.51,1.56.53-.62-.12-.4-.95-.95-.94.54-.23.31-.25.99-.23-.91-.36-.05-.37-.53-.85.65-.33.91.2.84-.44.37-.13.52.45.52.45l-.02-.02Zm8.84-10.33h0c-.11.08-.21.14-.27.17.06-.04.13-.09.27-.17Zm1.16-.54c-.15.04-.33.12-.52.21-.12-.16-.16-.36-.04-.4-.01.15.31.12.55.2h.01Zm-4.23-2.3c.16-.17.28-.11.36-.02-.09.06-.19.12-.31.24v.07c-.03-.1-.06-.21-.05-.29Z"/><path class="cls-2" d="m275.45,71.72c.15-.45-.62-.43-.99-.66,0-.65.61-.09,1.03-.14-.07-.39-.58-.91-.44-1.16.12.03.18,0,.29.12-.38-.62.47-1.01.1-1.78.07,0,.13.03.19.05-.35-.14-.67-.33-.89-.49.12-.21-.13-.65.32-.44-.1.11.05.23.14.38l-.03-.32c.69.23,0,.41.43.7.06-.49-.04-1.31.37-1.46.55.39-.36.79.4.81-.17.08-.36.16-.53.26,1.09.32-.24.21.89.6.54-.37.17-.78.77-1.11-.16-.38-.43-.36-.58-.75.34-1.22,1.68.79,1.69-.36-.11-.47-.54-1.24.19-1.17l.26.75c.63-.31-.24-1.16.69-1.12.03.33-.37.51-.23.54.73.27.08-.55.43-.75l.4.56c.64-.47,1.21-1.3,1.99-1.78.03.21-.02.46.25.57.89-.74,2.25-.8,3.35-.67l.23-.68c.09-.02.24.22.17.35.45.12-.07-.37.07-.64.22-.1.38.26.28.46.57-.68,1.87-1.46,2.71-.93l-.13.19c.61.16.56-1.26,1.18-.76l-.1.11c1.3.16,2.81-.3,3.68.7.31-.8,1.17.55,1.47-.56.59.75.36.86,1.19,1.53.23.13.6-.6.96-.59l-.2.58.65-.45-.05.77c.12-.02.23-.02.34-.03-.1-.09-.13-.36-.05-.52.57-.06.92.89.77,1.18.41.02.83.04,1.25.1-.15.2-.36.17-.56.23.84-.23-.24.61.53.4.01-.16.23-.29.31-.39.04.47.56.81,1.02.98l-.33.29c.6.57,1.51.95,2.18,1.64-.1-.39.47-.86.73-.69l-.38.54c.42-.15-.04-.39.59-.46.21.32-.36.69-.66.69.16.05.32.1.47.16-.13.15-.27.14-.47.29.42-.13,0,.98.7.72l-.13.14c.6.74,1.04.95,1.51,1.59.47-.3.55.02,1.06-.01.17.61.13,1.4.49,2,.48.32.49-.09.89-.03-.43.26-.08.89-.57.71.43.74.55.94,1.34,1.83.16-.19.19-.35.38-.35.15.16-.04.51-.28.57l-.07-.03c.58.46.46,1.28.32,2.03-.13.75-.27,1.44.35,1.8l-.06-.04c.26.29.51.6.75.9,0,.49-.43-.21-.68.2,1.04.95.17,1.75.83,2.6-1.41.85.32,2.54-.62,3.56l.35-.06c.35.24-.2.31-.28.49.28-.03.32-.28.51-.12.46,2.14-.56,4.5-1.21,6.31-.23.65,1.73.79.68,1.49l-.58-.41c.21.78-.03,1.48-.34,2.08-.3.61-.68,1.16-.83,1.93-.07-.16-.23-.28-.15-.38-.54-.05-.67.84-.38,1.1-.18.14-.3-.19-.54-.21-.4.03-.05.98-.52.77-.08-.03-.05-.17-.04-.24.04.31-.7.62-.17.88-.59.19-.63.9-1.18.96.16.66-.94.36-.48,1.11-.51-.73-1.21,0-1.29.54-.05-.29-.41-.06-.51-.46-.31.24-.55.56-.25.92-.61-.27-.81.1-1.02.43-.21.32-.43.57-.92.05-.85.98-1.81,1.69-2.81,2.25-.24-.87,1.14-.49.77-1.36-.42.34-.71.74-1.04,1.08-.33.32-.71.56-1.24.6-.29-.05.05-.42.1-.59-.93.63-1.97.36-2.82.97,0-.08.08-.19.16-.27-.18.06-.44-.07-.37.33l.16-.14c.38.55-.59,1.34-.61,1.64.21-1.19-.99-.22-.59-1.74-.11.09-.25.29-.21.56-.19-.07-.25-.22-.09-.55-.64.27-.39.69-1,.69,0-.2.12-.28.17-.51-.29.39-.6.78-1.12.62.03-.12-.02-.27.13-.27-.86.02-1.58.99-2.53.47.39-.82-.3-.32-.24-1.07-.18.05-.36.11-.54.15l.15.39c-.44-.09-.94.36-1.29.04l.4-.24c-.29,0-.58,0-.87-.04.13.14.27.26.41.38-.55.28-.16.95-.73.59.14-.04-.46-.14-.58-.62-.29.16-.6.35-.88.06-.01-.26.32-.76.31-.93-.41.53-1.06-.18-1.57.33.15-.11.29-.47.3-.56l-.36.4c-.14-.23-.14-.32.02-.59-.55-.33-.19.96-.73.27.07,0,.08-.09.22-.11-.6-.5-1.48-.37-1.97-.94.21-.74.62.15.73-.52-.89-.35-2.22-.35-2.83-1.14l.08.18c-.82.7-.19-.87-.86-.85.14.03.53-.3.42-.24-.31-.57-1.05-.76-1.88-1.43l.29-.04c0-.44-.38-.92-.44-1.33-.3,0-.35-.23-.66.06.46-.89.09-1.35-.31-1.88-.39-.52-.79-1.07-.26-1.78.03.14.3.29.28.18l-.42-.95c-.44.15-.26.18-.57.45-.29-.08-.55-.34-.59-.6.37.42.73-.12.96-.35-.14.05-.3,0-.44.05.74-.65-.94.04-.49-.78h.25c-.16-.25-.51-.47-.47-.78.52-.18.28.27.72.24-.08-.4-1.09-.73-.59-1.15.16.17.19.42.35.58.59-.47.43-.49.51-.8v.03l.23-.7-.16.18c-1.42-.46-.29-1.02-1.18-1.74.85.71.5.13,1.1.2.17-.17.38-.41.54-.33-.47-.34.41-.47-.25-.97.2,0,.06-.32.53-.19-.1-.4-.35.04-.59-.02-.29-.35-.03-.7.22-1.04.26-.35.48-.69.19-1.24-.1-.83-.65-1.23-.59-2.09.4-.08.54.51.54.51.44-.23.53-.49.54-.94.1.16.26.16.51.2.12-.26-.48-.57,0-.72.13.19.36.46.46.69.04-.36-.04-.85.07-1.24.31.16.24.51.34.73.11-.39.43-.9.17-1.39l-.32.04c.09-.12.37.29.36.43.07.53-.47.21-.63.1l.09-.27c-.51-.31-.67-.06-.73.3s0,.8-.17,1c-.19-.22-.37-.44-.55-.66.08.3.16.58.26.86-.24-.02-.69-.18-.64-.49-.57.15.06.46-.51.55-.08,0-.11-.03-.12-.08,0,.16.01.32.03.48-.12-.15-.56-.2-.33-.38-.79.49.07,1.35-.61,1.38l-.03-.08c-.08,1.07.53.31.99,1.22-.52,0-1.06.04-1.59.1l.57.24c-.04.1-.14.29-.37.2.32.47.27,0,.61.29-.66.39.04,1.37-.93,1.37.44.23.41-.44.67.13-1.06.05.12.62-.38,1.04-.53-.16-.22-.6-.73-.15.9.32-.23.91-.04,1.32.73,0,.32.85.61,1.48-.25-.02-.29,1.25-.47,1.89h-.12c.74.02.69.65.91,1.07-.44.05-.62,0-.85-.22l.07.42c.25.06.39.18.52.43l-.56-.02c.13.57.84,1.02.65,1.83.5-.09,1.26-.88,1.76-.24-.26.09-.71.24-.87.07.05.06.28.17.2.33l-.53-.18c-.12.38.42.07.45.34-.38.1-.22.27-.53.31-.06-.06.09-.27-.08-.33,0,.31-.11.74-.35.96.21-.09.51-.16.63.04.22.55-.39.35-.45.75.3.04.19.52.74.3.07.16-.17.3-.29.43.35.2.76,1.31,1.13.69v-.09s.03.02.05.03c.5.29.69.76.9,1.25.2.49.41,1.01.85,1.28l-.15.13c.56.29,1.04.84,1.63.78.13.11.08.54-.12.68.46.16.61.03.96.66-.57.02-.05.34-.53-.07.38.48.33.84,1.16.72-.46.31.05.79.38.79l-.18-.52c.31.1.53.27.76.45l-.45.51c.36.66,1.04.61,1.63.57.59-.04,1.09-.06,1.29.73.46-.32-.51-.54-.04-.95.47.28.72,1.37.89,1.43.65.59.97-.73,1.67-.28-.04-.26.04-.89.63-.96.49.2.44,1.1.05,1.23-.14,0-.18-.09-.16-.17-.19.04-.45.08-.29.39l.13-.21c.21.3.98.42.72.77.47-.14.25-.35-.03-.53.64.48,1.1.24,1.8.55-.1-.14-.17-.43-.05-.42,1.03.42.52-.38,1.24-.41.38.38-.22.85.53.59.43.27.06.63-.14.82.71-.42,1.27.38,1.67.45l-.37.19c.22-.12.4-.11.59-.11l-.21-.47c.21.08.39.08.39.28.21-.31-.17-.79.25-1.22.28.24.82-.27.94.34-.88-.16.13.64-.62.76.14-.08.32-.07.54,0,.04.07-.02.13-.08.17.89.5.35-.74,1.22-.79-.08.36.27.65.41.57-.36.02-.22-.57.06-.88.58.2.57-.29.86-.29l-.34-.08c.06-.37.34-.36.69-.52.08.27-.31.24-.16.34.31-.66,1.05.48,1.56-.06.32.18.17.65.44.76.56-.58.84.3,1.44-.25-.33-.4-.32-.28.03-.86l-1.03.63.54-.87c-.33.08-.62.49-.85.45.25-.46.24-.34-.01-.68.62.57.77-.64,1.41-.32l.32,1.14c.97.24,1.23-1.02,2.32-1.14l-.39-.06c-.04-.49.58-.31.83-.62.13.38.38.42.62.59-.13-.25.74-.32.48-1.07l.66.25c.89-.2.33-1.46,1.1-1.74,0,.49.48.54.15,1.09.24-.14.5-.2.36-.44.28.14.37-.85.78-.69,0-.21-.2-.57.07-.72.07.05.11.16.11.16-.11-.16.24-.49-.23-.69.7.29,1.15-.12,1.58-.5.43-.38.78-.81,1.42-.67.37-.5.79-1.09,1.14-1.51.06.11.14.14.04.18.79-.32-.52-1.1.33-1.46.77.07-.02.57.34.52,1.09.73.53-.92,1.47-.97l-.02.17c.64-.15.23-1.22.66-1.84,0,0,.08.09.17.1-.33-.78-.16-1.71-.12-2.42.42.37.15.39.68.43.03-.32-.81-.19-.76-.81.32-.1.68-.46,1.23-.39l-.14.59c.78-.1.19-.77.38-1.04l.29.11c.11-.95-.67-1.1-.46-2.03l-.25.06c-.7-.61.49-.37-.02-.95l.8-.07c-.15-.37-.65-1.26-.77-1.86.57.37.82,1.1,1.12,1.58.04-.34.03-1.17-.35-1.37.07.14.25.32.12.45-.59-.46-.87-1-.84-1.65,1.53.16.43-1.71,1.6-2.2-.58-1.18.18-2.38-.03-3.79-1.15.6-.07-.41-1.28-.2-.11-.31-.1-.43-.03-.47.21-.35.41-.7.61-1.06.32-.28.31.27.58.21,0-.73.47-.37.73-.9-.42.16-.65-.16-.56-.6l-.47.66c-.8-.89.88-1.04.05-1.94l.44.25c-.31-.48-.4-1.95-1.49-2.2.11-.12.41-.33.55-.13-.18-1.3-1.8-2.38-1.58-3.49l.31-.02c-.17-.19-.68-.17-.51-.56.12-.03.31-.03.29-.13-.14-.08-.72-.38-.7-.73l.42.11c-.17-1.33-1.57-1.38-2.24-2.15.78-.44.5-1.43.35-1.93l.11-.05c-.74-1.32-2.06-1.64-3.19-2.41.17-1.29-1.68-2.34-2.45-3.59.07.25-.45.52-.7.44-.15-.34-1.06-.03-.56-.65l.09.08c.25-.78-.43-1.01-.87-1.29l-.62.86c-.17-1.01-1.06-1.33-1.86-1.52-.81-.21-1.55-.25-1.67-1.05-.4.14-.79.03-1.18.19l.17-.54c-.42-.21-.75-.33-1.11-.44-.36-.1-.76-.18-1.34-.2l.3-.36c-.65-.13-1.05,1.47-1.6,1.45l-.08-.86c-1.07-.11-2.2-.87-3.27-.07,0-.12.04-.37.21-.41-.51-.04-2.06-.44-1.75.7-.09-.76-1.13.06-1.63.48v-.57c-.37.79-.34.98-.95,1.3-.17-.04-.23-.41,0-.31-.58-.18-.29.6-.97.46l.15-.4c-.54.08-.45.26-.63.73-.26.31-1,.14-1.23-.31.02.31-.13.79-.48.76-.1-.17-.03-.32,0-.39-.99-.07-1.03,1.05-1.8.77-.08-.17-.15-.24-.22-.27.68-.25,1.23-.43,1.19-.37-.17-.49-.76-.36-.56-1.2-.33.55-.77,1.6-1.38,1.62-.05-.03-.09-.07-.14-.13l.03-.08c-.14,0-.23.1-.3.22-.2,0-.34,0-.5.05-.24-.36-.71.1-.99.21.28.49-.1.58.43.83-.06,0,.02-.08.18-.19.03-.03.07-.06.08-.11v.05c.17-.1.38-.23.64-.35-.09.35-.19.68-.61.54.03.39.06.79.06.99-.7-.53-1.58-.53-1.92-.89-.63.71-1.77,1.35-1.57,2.55-.12.26-.42-.06-.6-.12.05-.18.2-.28.18-.45-.26.53-1.15,1.11-.71,1.73-.7.23-.22-.76-.78,0l-.08-.25c-1.08.28-1.22,1.25-1.26,2.1-.05.88-.04,1.65-1.12,2.24.14-.09.2-.13.33-.11-.75.88-.97,2.04-1.1,3.15-.14,1.12-.23,2.19-.82,3.22-.25.6.22.69.56,1.06l-.61.11c.23.22.45.43.69.63.51.84-1.46,1.56-.43,2.63l.4-.17c-.06.4.33,1.22-.14,1.19.08.03.43.09.23.26l-.31.04.63.91c-.15.76-1.26,0-1.21,1.09.16.39,1.03,1.04,1.23.87,0-.16.15-.43.47-.48l.2.35c.93-.03,1.91.14,2.46-.81l-.63-.56.43-.24.08.51c.39-.34,0-.48-.28-.66.23-.07.39-.18.47-.3l-.94-.51c.36-.1.74.2.91-.22-.44-.24-.79.34-1.1-.1.4-.33.75-.27.36-.58.24-.07.39,0,.51.12-.31-.28-.18-.78-.68-.9.5-.33-.19-1,.69-1.01-.21-.08-.71-.49-.75-.76,1.06.47.05-1.01,1.19-.86-.95-.37-.39-1.27-.85-1.93.07.04.22.12.16.17.11-.34.4-.41.61-.6-.78-.14-.88-.69-1.3-1.07.82-.29.86.41,1.6.4-.64-.08-.5-.81-1.04-.78.53-.22.28-.23.95-.24-.95-.28-.09-.32-.61-.72.59-.31.91.14.77-.42.36-.12.56.38.56.38l-.02.02Zm6.81-8.89h0c-.1.07-.18.12-.23.15.05-.03.11-.07.23-.15Zm1.01-.42c-.13.03-.29.08-.45.15-.11-.17-.14-.37-.04-.4,0,.14.28.15.48.25h.01Zm-3.82-2.59c.14-.16.25-.09.32,0-.08.05-.17.12-.28.21v.07c-.03-.1-.06-.2-.05-.29h.01Z"/></g></svg>