<?xml version="1.0" encoding="UTF-8"?><svg id="Layer_2" xmlns="http://www.w3.org/2000/svg" viewBox="0 0 983.45 812.28"><defs><style>.cls-1{fill:#4eb6ce;}</style></defs><g id="shapes"><path class="cls-1" d="m489.48,47.98c-5.07-21.03-65.65-54.38-95.32-46.91-37.35-4.37-126.79,27.31-139.1,47.77-12.31,20.46-32.44,162.37-20.89,216,11.55,53.62,107.91,185.59,236.93,133.49,100.22-40.47,54.92-180.71,63.35-211.66,8.43-30.95-39.9-117.66-44.97-138.69Z"/><path class="cls-1" d="m967.47,361.64c15.47-13.79,19.67-61.44,12.75-65.85,6.04-9.49-4.26-12.41-2.94-29.76,1.32-17.35,17.06-38.25-16.28-47.96-33.34-9.72-110.58-4.95-132.28,29.13-21.7,34.07,16.66,71.24,43.07,101.4,26.41,30.16,80.22,26.84,95.69,13.05Z"/><path class="cls-1" d="m551.84,463.86c-24.3-6.89-76.03,20.04-76.03,30.05-13.71,0-9.97,12.52-28.67,22.54-18.7,10.02-50.48,7.51-38.64,48.21s67.3,117.08,116.53,117.08,62.32-63.86,76.03-110.82c13.71-46.96-24.93-100.18-49.23-107.06Z"/><path class="cls-1" d="m631.5,56.54c-31.61,13.59-39.14,73.12-36.06,106.61.43,23.47,4.73,46.33,19.66,64.78,14.93,18.44,94.53,64.14,140.58,50.85,46.05-13.29,45.14-118.33,9.24-172.13-35.91-53.8-101.82-63.69-133.42-50.1Z"/><path class="cls-1" d="m169.08,317.74c-26.11-22.4-82.88-2.97-111.6,14.53-20.89,10.71-39.52,24.63-49.52,46.16-9.99,21.52-16.01,113.11,16.19,148.62,32.2,35.51,126.12-11.52,158.64-67.44,32.52-55.92,12.4-119.46-13.71-141.86Z"/><path class="cls-1" d="m739.63,504.87c-57.1,18.64-100.15,100.15-112.8,146-11.6,32.14-16.76,63.43-2.79,88.66,13.96,25.24,115.94,87.71,195.72,69.47,79.78-18.24,133.3-162.05,104.66-235.68-28.64-73.62-127.7-87.09-184.79-68.45Z"/><path class="cls-1" d="m144.1,620.07c-15.44,31.07.71,81.81,14.47,105.59,8.54,17.79,19.35,32.59,35.4,37.05,16.05,4.47,83.09-12.25,107.88-52.51,24.79-40.26-12.79-120.54-54.72-138.55-41.93-18.01-87.59,17.34-103.03,48.41Z"/></g></svg>