<svg width="232" height="201" viewBox="0 0 232 201" fill="none" xmlns="http://www.w3.org/2000/svg">
<path d="M49.1728 80.22C46.0728 80.22 43.5128 78.14 43.5128 74.46C43.5128 70.22 46.8928 66.6 51.0128 66.6C53.9328 66.6 55.7328 68.38 55.7328 69.9C55.7328 70.78 55.1328 71.46 54.3928 71.46C53.7128 71.46 53.1928 70.94 53.1928 70.3C53.1928 69.92 53.4128 69.56 53.6928 69.36C53.4528 68.86 52.4728 68.26 50.9528 68.26C47.8528 68.26 45.3928 71.16 45.3928 74.32C45.3928 76.92 46.9328 78.56 49.3328 78.56C50.7728 78.56 52.0528 77.96 53.2328 76.8L54.3328 77.9C52.8528 79.5 51.1328 80.22 49.1728 80.22ZM58.3308 80.14C57.1508 80.14 56.5308 79.44 56.5308 78.38C56.5308 78.12 56.5908 77.8 56.6508 77.48L59.1308 66.84H57.5108L57.8908 65.36H61.2108L58.4108 77.46C58.3308 77.8 58.2708 78.12 58.2708 78.32C58.2708 78.74 58.4508 78.96 58.7908 78.96C59.1908 78.96 59.5508 78.66 59.9708 77.56L60.7308 77.84C60.2108 79.56 59.3708 80.14 58.3308 80.14ZM65.5111 69.92C64.8711 69.92 64.3511 69.4 64.3511 68.76C64.3511 68.12 64.8711 67.6 65.5111 67.6C66.1311 67.6 66.6711 68.12 66.6711 68.76C66.6711 69.4 66.1311 69.92 65.5111 69.92ZM64.4711 80.14C63.3111 80.14 62.6711 79.44 62.6711 78.4C62.6711 78.14 62.7311 77.76 62.8111 77.46L64.0111 72.86H62.3911L62.7711 71.38H66.1511L64.5511 77.48C64.4511 77.82 64.4111 78.16 64.4111 78.36C64.4111 78.74 64.6111 78.96 64.9311 78.96C65.3311 78.96 65.6911 78.66 66.1111 77.56L66.8911 77.84C66.3711 79.56 65.5311 80.14 64.4711 80.14ZM72.3239 80.16C70.0439 80.16 68.2639 78.74 68.2639 76.34C68.2639 73.6 70.5439 71.22 73.2839 71.22C75.1839 71.22 76.4439 72.38 76.4439 73.64C76.4439 74.38 75.9839 75 75.2639 75C74.7239 75 74.2439 74.58 74.2439 73.94C74.2439 73.68 74.3839 73.36 74.6039 73.18C74.3239 72.86 73.8639 72.7 73.2439 72.7C71.6839 72.7 70.0239 74.04 70.0239 76.24C70.0239 77.74 71.0239 78.7 72.4839 78.7C73.4839 78.7 74.5039 78.3 75.3839 77.62L75.3439 79.22C74.5039 79.82 73.4639 80.16 72.3239 80.16ZM79.1966 80H77.4366L80.4766 66.84H78.8566L79.2366 65.36H82.5366L80.1766 75.48C82.5766 74.62 83.7566 73.84 84.1166 73.28C83.7766 73.08 83.5766 72.72 83.5766 72.36C83.5766 71.74 84.0766 71.22 84.7166 71.22C85.3566 71.22 85.8966 71.72 85.8966 72.5C85.8966 73.8 84.6166 74.98 82.5166 75.98L83.3566 77.94C83.5366 78.36 83.6566 78.6 83.7966 78.76C83.9366 78.9 84.0566 78.94 84.1966 78.94C84.4966 78.94 84.7766 78.62 85.1166 77.34L85.9166 77.6C85.4566 79.68 84.6766 80.14 83.7966 80.14C83.3966 80.14 83.0166 80.04 82.6766 79.76C82.3966 79.52 82.1366 79.16 81.9366 78.66L80.9966 76.42C80.6566 76.56 80.2766 76.68 79.9566 76.8L79.1966 80ZM95.5033 80.16C93.0233 80.16 91.6233 78.38 91.6233 76.34C91.6233 73.7 93.6833 71.22 96.5033 71.22C98.9833 71.22 100.383 73 100.383 75.06C100.383 77.68 98.3233 80.16 95.5033 80.16ZM95.5833 78.7C97.2633 78.7 98.6233 77.06 98.6233 75.04C98.6233 73.56 97.6633 72.7 96.4233 72.7C94.7433 72.7 93.3833 74.32 93.3833 76.34C93.3833 77.84 94.3433 78.7 95.5833 78.7ZM109.497 80.14C108.317 80.14 107.657 79.42 107.657 78.42C107.657 78.14 107.717 77.76 107.797 77.44L108.537 74.84C108.637 74.5 108.677 74.24 108.677 73.96C108.677 73.2 108.157 72.7 107.377 72.7C106.317 72.7 105.317 73.6 104.877 75.32L103.717 80H101.957L103.757 72.86H102.157L102.537 71.38H105.617L105.157 73.4C105.837 72.2 106.957 71.24 108.137 71.24C109.457 71.24 110.477 72.14 110.477 73.68C110.477 74.1 110.397 74.58 110.257 75.08L109.517 77.62C109.457 77.88 109.397 78.16 109.397 78.32C109.397 78.72 109.597 78.96 109.937 78.96C110.277 78.96 110.657 78.66 111.057 77.56L111.837 77.84C111.377 79.4 110.557 80.14 109.497 80.14ZM123.37 72.86H120.75L119.65 77.28C119.57 77.58 119.53 77.86 119.53 78.04C119.53 78.52 119.81 78.78 120.21 78.78C120.67 78.78 121.09 78.58 121.93 78.02L122.55 78.86C121.43 79.84 120.49 80.14 119.65 80.14C118.59 80.14 117.75 79.54 117.75 78.32C117.75 78.02 117.81 77.68 117.89 77.28L118.99 72.86H117.43L117.77 71.38H119.35L119.85 69.42L121.77 68.76L121.11 71.38H123.75L123.37 72.86ZM123.901 80L126.941 66.84H125.321L125.701 65.36H129.001L127.201 73.06C127.821 72.1 128.841 71.24 129.981 71.24C131.301 71.24 132.361 72.14 132.361 73.68C132.361 74.1 132.301 74.58 132.141 75.08L131.441 77.64C131.381 77.9 131.341 78.16 131.341 78.32C131.341 78.72 131.541 78.96 131.861 78.96C132.221 78.96 132.581 78.66 132.981 77.56L133.761 77.84C133.301 79.4 132.501 80.14 131.421 80.14C130.241 80.14 129.581 79.42 129.581 78.42C129.581 78.14 129.641 77.78 129.721 77.46L130.441 74.84C130.541 74.5 130.561 74.24 130.561 73.96C130.561 73.2 130.021 72.7 129.241 72.7C128.181 72.7 127.141 73.58 126.741 75.36L125.661 80H123.901ZM142.765 76.24H136.605V76.54C136.605 77.84 137.645 78.7 139.205 78.7C140.125 78.7 140.965 78.5 142.045 77.92L141.705 79.56C140.805 80 140.065 80.16 138.845 80.16C136.785 80.16 134.885 78.86 134.885 76.5C134.885 73.58 137.045 71.22 139.605 71.22C141.705 71.22 143.085 72.42 143.085 74.44C143.085 74.98 142.985 75.58 142.765 76.24ZM139.605 72.68C138.365 72.68 137.305 73.62 136.845 74.98H141.325C141.405 74.74 141.445 74.48 141.445 74.24C141.445 73.34 140.845 72.68 139.605 72.68ZM151.273 80.24L149.893 72.86H148.393L148.773 71.38H151.413L152.413 78.24C153.953 76.58 155.073 74.88 155.413 73.56C154.973 73.4 154.573 73.02 154.573 72.42C154.573 71.76 155.093 71.22 155.773 71.22C156.533 71.22 157.093 71.8 157.093 72.76C157.093 74.58 155.213 77.46 152.413 80.24H151.273ZM161.761 69.92C161.121 69.92 160.601 69.4 160.601 68.76C160.601 68.12 161.121 67.6 161.761 67.6C162.381 67.6 162.921 68.12 162.921 68.76C162.921 69.4 162.381 69.92 161.761 69.92ZM160.721 80.14C159.561 80.14 158.921 79.44 158.921 78.4C158.921 78.14 158.981 77.76 159.061 77.46L160.261 72.86H158.641L159.021 71.38H162.401L160.801 77.48C160.701 77.82 160.661 78.16 160.661 78.36C160.661 78.74 160.861 78.96 161.181 78.96C161.581 78.96 161.941 78.66 162.361 77.56L163.141 77.84C162.621 79.56 161.781 80.14 160.721 80.14ZM164.534 76.72C164.534 73.74 166.594 71.22 169.054 71.22C170.334 71.22 171.334 72.16 171.654 73.2L173.114 66.84H171.514L171.874 65.36H175.194L172.354 77.48C172.274 77.86 172.214 78.16 172.214 78.36C172.214 78.74 172.374 78.96 172.714 78.96C173.054 78.96 173.434 78.66 173.854 77.56L174.634 77.84C174.114 79.56 173.194 80.14 172.254 80.14C171.214 80.14 170.574 79.44 170.574 78.38V78.3C169.854 79.34 168.814 80.16 167.514 80.16C165.794 80.16 164.534 78.8 164.534 76.72ZM168.214 78.66C169.934 78.66 171.294 76.82 171.294 74.9C171.294 73.6 170.594 72.76 169.294 72.76C167.614 72.76 166.354 74.58 166.354 76.52C166.354 77.76 167.014 78.66 168.214 78.66ZM183.565 76.24H177.405V76.54C177.405 77.84 178.445 78.7 180.005 78.7C180.925 78.7 181.765 78.5 182.845 77.92L182.505 79.56C181.605 80 180.865 80.16 179.645 80.16C177.585 80.16 175.685 78.86 175.685 76.5C175.685 73.58 177.845 71.22 180.405 71.22C182.505 71.22 183.885 72.42 183.885 74.44C183.885 74.98 183.785 75.58 183.565 76.24ZM180.405 72.68C179.165 72.68 178.105 73.62 177.645 74.98H182.125C182.205 74.74 182.245 74.48 182.245 74.24C182.245 73.34 181.645 72.68 180.405 72.68ZM189.234 80.16C186.754 80.16 185.354 78.38 185.354 76.34C185.354 73.7 187.414 71.22 190.234 71.22C192.714 71.22 194.114 73 194.114 75.06C194.114 77.68 192.054 80.16 189.234 80.16ZM189.314 78.7C190.994 78.7 192.354 77.06 192.354 75.04C192.354 73.56 191.394 72.7 190.154 72.7C188.474 72.7 187.114 74.32 187.114 76.34C187.114 77.84 188.074 78.7 189.314 78.7ZM34.4483 104L37.4883 90.84H35.8683L36.2483 89.36H39.5483L37.7683 97C38.4283 96.04 39.5083 95.22 40.6683 95.22C42.6683 95.22 43.8283 96.62 43.8283 98.7C43.8283 101.7 41.7483 104.16 39.2483 104.16C37.9683 104.16 36.8883 103.34 36.6083 102.18L36.0883 104H34.4483ZM39.0283 102.62C40.7283 102.62 42.0283 100.84 42.0283 98.94C42.0283 97.64 41.3283 96.72 40.0883 96.72C38.3883 96.72 36.9483 98.6 36.9483 100.52C36.9483 101.78 37.6883 102.62 39.0283 102.62ZM45.9728 95.38H49.3128L47.9928 100.6C47.9328 100.88 47.8728 101.18 47.8728 101.46C47.8728 102.22 48.3328 102.68 49.0728 102.68C50.2128 102.68 51.1728 101.76 51.6128 100.06L52.7728 95.38H54.5328L52.9928 101.48C52.9128 101.84 52.8528 102.16 52.8528 102.36C52.8528 102.74 53.0328 102.96 53.3528 102.96C53.6928 102.96 54.0728 102.66 54.4928 101.56L55.2728 101.84C54.7528 103.56 53.8328 104.14 52.8928 104.14C51.8728 104.14 51.2328 103.44 51.2328 102.36V102.18C50.5328 103.36 49.4728 104.16 48.3128 104.16C47.0928 104.16 46.0728 103.28 46.0728 101.88C46.0728 101.44 46.1528 100.94 46.2728 100.44L47.1928 96.86H45.5928L45.9728 95.38ZM56.2256 104L59.2656 90.84H57.6456L58.0256 89.36H61.3256L59.5456 97C60.2056 96.04 61.2856 95.22 62.4456 95.22C64.4456 95.22 65.6056 96.62 65.6056 98.7C65.6056 101.7 63.5256 104.16 61.0256 104.16C59.7456 104.16 58.6656 103.34 58.3856 102.18L57.8656 104H56.2256ZM60.8056 102.62C62.5056 102.62 63.8056 100.84 63.8056 98.94C63.8056 97.64 63.1056 96.72 61.8656 96.72C60.1656 96.72 58.7256 98.6 58.7256 100.52C58.7256 101.78 59.4656 102.62 60.8056 102.62ZM66.8702 104L69.9102 90.84H68.2902L68.6702 89.36H71.9702L70.1902 97C70.8502 96.04 71.9302 95.22 73.0902 95.22C75.0902 95.22 76.2502 96.62 76.2502 98.7C76.2502 101.7 74.1702 104.16 71.6702 104.16C70.3902 104.16 69.3102 103.34 69.0302 102.18L68.5102 104H66.8702ZM71.4502 102.62C73.1502 102.62 74.4502 100.84 74.4502 98.94C74.4502 97.64 73.7502 96.72 72.5102 96.72C70.8102 96.72 69.3702 98.6 69.3702 100.52C69.3702 101.78 70.1102 102.62 71.4502 102.62ZM79.8347 104.14C78.6547 104.14 78.0347 103.44 78.0347 102.38C78.0347 102.12 78.0947 101.8 78.1547 101.48L80.6347 90.84H79.0147L79.3947 89.36H82.7147L79.9147 101.46C79.8347 101.8 79.7747 102.12 79.7747 102.32C79.7747 102.74 79.9547 102.96 80.2947 102.96C80.6947 102.96 81.0547 102.66 81.4747 101.56L82.2347 101.84C81.7147 103.56 80.8747 104.14 79.8347 104.14ZM91.3778 100.24H85.2178V100.54C85.2178 101.84 86.2578 102.7 87.8178 102.7C88.7378 102.7 89.5778 102.5 90.6578 101.92L90.3178 103.56C89.4178 104 88.6778 104.16 87.4578 104.16C85.3978 104.16 83.4978 102.86 83.4978 100.5C83.4978 97.58 85.6578 95.22 88.2178 95.22C90.3178 95.22 91.6978 96.42 91.6978 98.44C91.6978 98.98 91.5978 99.58 91.3778 100.24ZM88.2178 96.68C86.9778 96.68 85.9178 97.62 85.4578 98.98H89.9378C90.0178 98.74 90.0578 98.48 90.0578 98.24C90.0578 97.34 89.4578 96.68 88.2178 96.68ZM96.4863 104.16C95.1663 104.16 94.0063 103.72 93.3663 103.06C93.0263 102.72 92.8263 102.34 92.8263 101.92C92.8263 101.28 93.2663 100.8 93.8463 100.8C94.4063 100.8 94.8063 101.24 94.8063 101.76C94.8063 101.96 94.7263 102.18 94.6063 102.32C94.6863 102.4 94.7863 102.46 94.9263 102.54C95.3263 102.74 95.9063 102.88 96.5263 102.88C97.4263 102.88 98.1863 102.52 98.1863 101.82C98.1863 101.1 97.3263 100.74 96.3663 100.32C95.1663 99.78 94.0063 99.18 94.0063 97.8C94.0063 96.42 95.1863 95.22 97.3263 95.22C98.5063 95.22 99.5063 95.6 100.066 96.18C100.386 96.5 100.566 96.9 100.566 97.3C100.566 97.96 100.106 98.4 99.5663 98.4C99.0263 98.4 98.5863 97.96 98.5863 97.44C98.5863 97.26 98.6263 97.12 98.7663 96.88C98.7063 96.84 98.6263 96.78 98.4663 96.72C98.1663 96.6 97.7463 96.52 97.3063 96.52C96.4263 96.52 95.7263 96.88 95.7263 97.5C95.7263 98.16 96.5863 98.54 97.5863 99C98.7663 99.54 99.9063 100.18 99.9063 101.52C99.9063 103.22 98.5263 104.16 96.4863 104.16ZM112.179 96.86H109.559L108.459 101.28C108.379 101.58 108.339 101.86 108.339 102.04C108.339 102.52 108.619 102.78 109.019 102.78C109.479 102.78 109.899 102.58 110.739 102.02L111.359 102.86C110.239 103.84 109.299 104.14 108.459 104.14C107.399 104.14 106.559 103.54 106.559 102.32C106.559 102.02 106.619 101.68 106.699 101.28L107.799 96.86H106.239L106.579 95.38H108.159L108.659 93.42L110.579 92.76L109.919 95.38H112.559L112.179 96.86ZM116.89 104.16C114.41 104.16 113.01 102.38 113.01 100.34C113.01 97.7 115.07 95.22 117.89 95.22C120.37 95.22 121.77 97 121.77 99.06C121.77 101.68 119.71 104.16 116.89 104.16ZM116.97 102.7C118.65 102.7 120.01 101.06 120.01 99.04C120.01 97.56 119.05 96.7 117.81 96.7C116.13 96.7 114.77 98.32 114.77 100.34C114.77 101.84 115.73 102.7 116.97 102.7ZM130.764 104.16C129.444 104.16 128.284 103.72 127.644 103.06C127.304 102.72 127.104 102.34 127.104 101.92C127.104 101.28 127.544 100.8 128.124 100.8C128.684 100.8 129.084 101.24 129.084 101.76C129.084 101.96 129.004 102.18 128.884 102.32C128.964 102.4 129.064 102.46 129.204 102.54C129.604 102.74 130.184 102.88 130.804 102.88C131.704 102.88 132.464 102.52 132.464 101.82C132.464 101.1 131.604 100.74 130.644 100.32C129.444 99.78 128.284 99.18 128.284 97.8C128.284 96.42 129.464 95.22 131.604 95.22C132.784 95.22 133.784 95.6 134.344 96.18C134.664 96.5 134.844 96.9 134.844 97.3C134.844 97.96 134.384 98.4 133.844 98.4C133.304 98.4 132.864 97.96 132.864 97.44C132.864 97.26 132.904 97.12 133.044 96.88C132.984 96.84 132.904 96.78 132.744 96.72C132.444 96.6 132.024 96.52 131.584 96.52C130.704 96.52 130.004 96.88 130.004 97.5C130.004 98.16 130.864 98.54 131.864 99C133.044 99.54 134.184 100.18 134.184 101.52C134.184 103.22 132.804 104.16 130.764 104.16ZM143.878 100.24H137.718V100.54C137.718 101.84 138.758 102.7 140.318 102.7C141.238 102.7 142.078 102.5 143.158 101.92L142.818 103.56C141.918 104 141.178 104.16 139.958 104.16C137.898 104.16 135.998 102.86 135.998 100.5C135.998 97.58 138.158 95.22 140.718 95.22C142.818 95.22 144.198 96.42 144.198 98.44C144.198 98.98 144.098 99.58 143.878 100.24ZM140.718 96.68C139.478 96.68 138.418 97.62 137.958 98.98H142.438C142.518 98.74 142.558 98.48 142.558 98.24C142.558 97.34 141.958 96.68 140.718 96.68ZM153.526 100.24H147.366V100.54C147.366 101.84 148.406 102.7 149.966 102.7C150.886 102.7 151.726 102.5 152.806 101.92L152.466 103.56C151.566 104 150.826 104.16 149.606 104.16C147.546 104.16 145.646 102.86 145.646 100.5C145.646 97.58 147.806 95.22 150.366 95.22C152.466 95.22 153.846 96.42 153.846 98.44C153.846 98.98 153.746 99.58 153.526 100.24ZM150.366 96.68C149.126 96.68 148.066 97.62 147.606 98.98H152.086C152.166 98.74 152.206 98.48 152.206 98.24C152.206 97.34 151.606 96.68 150.366 96.68ZM162.795 104.16C161.475 104.16 160.315 103.72 159.675 103.06C159.335 102.72 159.135 102.34 159.135 101.92C159.135 101.28 159.575 100.8 160.155 100.8C160.715 100.8 161.115 101.24 161.115 101.76C161.115 101.96 161.035 102.18 160.915 102.32C160.995 102.4 161.095 102.46 161.235 102.54C161.635 102.74 162.215 102.88 162.835 102.88C163.735 102.88 164.495 102.52 164.495 101.82C164.495 101.1 163.635 100.74 162.675 100.32C161.475 99.78 160.315 99.18 160.315 97.8C160.315 96.42 161.495 95.22 163.635 95.22C164.815 95.22 165.815 95.6 166.375 96.18C166.695 96.5 166.875 96.9 166.875 97.3C166.875 97.96 166.415 98.4 165.875 98.4C165.335 98.4 164.895 97.96 164.895 97.44C164.895 97.26 164.935 97.12 165.075 96.88C165.015 96.84 164.935 96.78 164.775 96.72C164.475 96.6 164.055 96.52 163.615 96.52C162.735 96.52 162.035 96.88 162.035 97.5C162.035 98.16 162.895 98.54 163.895 99C165.075 99.54 166.215 100.18 166.215 101.52C166.215 103.22 164.835 104.16 162.795 104.16ZM171.929 104.16C169.449 104.16 168.049 102.38 168.049 100.34C168.049 97.7 170.109 95.22 172.929 95.22C175.409 95.22 176.809 97 176.809 99.06C176.809 101.68 174.749 104.16 171.929 104.16ZM172.009 102.7C173.689 102.7 175.049 101.06 175.049 99.04C175.049 97.56 174.089 96.7 172.849 96.7C171.169 96.7 169.809 98.32 169.809 100.34C169.809 101.84 170.769 102.7 172.009 102.7ZM178.187 104L179.987 96.86H178.387L178.767 95.38H181.847L181.367 97.4C182.067 96.2 183.107 95.24 184.247 95.24C185.507 95.24 186.327 96.08 186.427 97.38C187.207 96.06 188.307 95.24 189.347 95.24C190.607 95.24 191.587 96.14 191.587 97.68C191.587 98.1 191.507 98.58 191.367 99.08L190.627 101.62C190.567 101.88 190.507 102.16 190.507 102.32C190.507 102.72 190.707 102.96 191.047 102.96C191.387 102.96 191.767 102.66 192.167 101.56L192.947 101.84C192.487 103.4 191.667 104.14 190.607 104.14C189.427 104.14 188.767 103.42 188.767 102.42C188.767 102.14 188.827 101.76 188.907 101.44L189.627 98.92C189.747 98.56 189.787 98.24 189.787 97.96C189.787 97.18 189.267 96.7 188.607 96.7C187.607 96.7 186.647 97.62 186.187 99.44L185.027 104H183.267L184.567 98.94C184.647 98.56 184.707 98.2 184.707 97.92C184.707 97.22 184.227 96.7 183.527 96.7C182.527 96.7 181.527 97.64 181.087 99.42L179.947 104H178.187ZM201.983 100.24H195.823V100.54C195.823 101.84 196.863 102.7 198.423 102.7C199.343 102.7 200.183 102.5 201.263 101.92L200.923 103.56C200.023 104 199.283 104.16 198.063 104.16C196.003 104.16 194.103 102.86 194.103 100.5C194.103 97.58 196.263 95.22 198.823 95.22C200.923 95.22 202.303 96.42 202.303 98.44C202.303 98.98 202.203 99.58 201.983 100.24ZM198.823 96.68C197.583 96.68 196.523 97.62 196.063 98.98H200.543C200.623 98.74 200.663 98.48 200.663 98.24C200.663 97.34 200.063 96.68 198.823 96.68ZM32.0267 128.16C29.5467 128.16 28.1467 126.38 28.1467 124.34C28.1467 121.7 30.2067 119.22 33.0267 119.22C35.5067 119.22 36.9067 121 36.9067 123.06C36.9067 125.68 34.8467 128.16 32.0267 128.16ZM32.1067 126.7C33.7867 126.7 35.1467 125.06 35.1467 123.04C35.1467 121.56 34.1867 120.7 32.9467 120.7C31.2667 120.7 29.9067 122.32 29.9067 124.34C29.9067 125.84 30.8667 126.7 32.1067 126.7ZM38.3644 128L40.0044 120.86H38.5044L38.8644 119.38H40.3444L40.9044 117C41.2044 115.68 41.6644 114.84 42.2844 114.22C42.9444 113.56 43.8444 113.24 44.7444 113.24C45.8844 113.24 46.4644 113.86 46.4644 114.54C46.4644 115.22 45.9244 115.66 45.3444 115.66C44.7644 115.66 44.3044 115.28 44.2444 114.74C43.9644 114.8 43.7044 114.96 43.5244 115.14C43.1244 115.54 42.8244 116.2 42.5844 117.18L42.0844 119.38H44.3444L43.9644 120.86H41.7444L40.1044 128H38.3644ZM52.7494 128.16C50.2694 128.16 48.8694 126.38 48.8694 124.34C48.8694 121.7 50.9294 119.22 53.7494 119.22C56.2294 119.22 57.6294 121 57.6294 123.06C57.6294 125.68 55.5694 128.16 52.7494 128.16ZM52.8294 126.7C54.5094 126.7 55.8694 125.06 55.8694 123.04C55.8694 121.56 54.9094 120.7 53.6694 120.7C51.9894 120.7 50.6294 122.32 50.6294 124.34C50.6294 125.84 51.5894 126.7 52.8294 126.7ZM59.5275 119.38H62.8675L61.5475 124.6C61.4875 124.88 61.4275 125.18 61.4275 125.46C61.4275 126.22 61.8875 126.68 62.6275 126.68C63.7675 126.68 64.7275 125.76 65.1675 124.06L66.3275 119.38H68.0875L66.5475 125.48C66.4675 125.84 66.4075 126.16 66.4075 126.36C66.4075 126.74 66.5875 126.96 66.9075 126.96C67.2475 126.96 67.6275 126.66 68.0475 125.56L68.8275 125.84C68.3075 127.56 67.3875 128.14 66.4475 128.14C65.4275 128.14 64.7875 127.44 64.7875 126.36V126.18C64.0875 127.36 63.0275 128.16 61.8675 128.16C60.6475 128.16 59.6275 127.28 59.6275 125.88C59.6275 125.44 59.7075 124.94 59.8275 124.44L60.7475 120.86H59.1475L59.5275 119.38ZM70.1403 128L71.9403 120.86H70.3403L70.7203 119.38H73.8003L73.2403 121.8C74.3003 120.1 75.3003 119.24 76.2403 119.24C76.9403 119.24 77.5203 119.74 77.5203 120.44C77.5203 121.12 76.9603 121.66 76.3203 121.66C75.7203 121.66 75.2603 121.26 75.1603 120.78C74.5403 121.06 73.3203 122.28 72.8603 124.14L71.9003 128H70.1403ZM82.2878 124.72C82.2878 121.74 84.3478 119.22 86.8078 119.22C88.0878 119.22 89.0878 120.16 89.4078 121.2L90.8678 114.84H89.2678L89.6278 113.36H92.9478L90.1078 125.48C90.0278 125.86 89.9678 126.16 89.9678 126.36C89.9678 126.74 90.1278 126.96 90.4678 126.96C90.8078 126.96 91.1878 126.66 91.6078 125.56L92.3878 125.84C91.8678 127.56 90.9478 128.14 90.0078 128.14C88.9678 128.14 88.3278 127.44 88.3278 126.38V126.3C87.6078 127.34 86.5678 128.16 85.2678 128.16C83.5478 128.16 82.2878 126.8 82.2878 124.72ZM85.9678 126.66C87.6878 126.66 89.0478 124.82 89.0478 122.9C89.0478 121.6 88.3478 120.76 87.0478 120.76C85.3678 120.76 84.1078 122.58 84.1078 124.52C84.1078 125.76 84.7678 126.66 85.9678 126.66ZM97.0345 117.92C96.3945 117.92 95.8745 117.4 95.8745 116.76C95.8745 116.12 96.3945 115.6 97.0345 115.6C97.6545 115.6 98.1945 116.12 98.1945 116.76C98.1945 117.4 97.6545 117.92 97.0345 117.92ZM95.9945 128.14C94.8345 128.14 94.1945 127.44 94.1945 126.4C94.1945 126.14 94.2545 125.76 94.3345 125.46L95.5345 120.86H93.9145L94.2945 119.38H97.6745L96.0745 125.48C95.9745 125.82 95.9345 126.16 95.9345 126.36C95.9345 126.74 96.1345 126.96 96.4545 126.96C96.8545 126.96 97.2145 126.66 97.6345 125.56L98.4145 125.84C97.8945 127.56 97.0545 128.14 95.9945 128.14ZM102.727 132C101.527 132 100.227 131.52 99.7073 131C99.3273 130.62 99.2073 130.3 99.2073 129.88C99.2073 129.18 99.6873 128.7 100.307 128.7C100.927 128.7 101.367 129.2 101.367 129.78C101.367 129.96 101.327 130.16 101.247 130.3C101.507 130.46 102.027 130.62 102.687 130.62C103.507 130.62 104.087 130.4 104.587 129.9C105.047 129.46 105.327 128.76 105.547 127.82L105.927 126.2C105.187 127.24 104.147 127.9 102.967 127.9C101.027 127.9 99.8273 126.52 99.8273 124.44C99.8273 121.64 101.767 119.22 104.387 119.22C105.867 119.22 106.747 120.22 107.047 121.18L107.587 119.34H109.207L107.147 128.22C106.887 129.38 106.527 130.24 105.887 130.9C105.127 131.64 104.127 132 102.727 132ZM103.687 126.4C105.407 126.4 106.687 124.68 106.687 122.82C106.687 121.54 105.847 120.76 104.607 120.76C102.927 120.76 101.647 122.36 101.647 124.32C101.647 125.6 102.487 126.4 103.687 126.4ZM113.792 117.92C113.152 117.92 112.632 117.4 112.632 116.76C112.632 116.12 113.152 115.6 113.792 115.6C114.412 115.6 114.952 116.12 114.952 116.76C114.952 117.4 114.412 117.92 113.792 117.92ZM112.752 128.14C111.592 128.14 110.952 127.44 110.952 126.4C110.952 126.14 111.012 125.76 111.092 125.46L112.292 120.86H110.672L111.052 119.38H114.432L112.832 125.48C112.732 125.82 112.692 126.16 112.692 126.36C112.692 126.74 112.892 126.96 113.212 126.96C113.612 126.96 113.972 126.66 114.392 125.56L115.172 125.84C114.652 127.56 113.812 128.14 112.752 128.14ZM122.745 120.86H120.125L119.025 125.28C118.945 125.58 118.905 125.86 118.905 126.04C118.905 126.52 119.185 126.78 119.585 126.78C120.045 126.78 120.465 126.58 121.305 126.02L121.925 126.86C120.805 127.84 119.865 128.14 119.025 128.14C117.965 128.14 117.125 127.54 117.125 126.32C117.125 126.02 117.185 125.68 117.265 125.28L118.365 120.86H116.805L117.145 119.38H118.725L119.225 117.42L121.145 116.76L120.485 119.38H123.125L122.745 120.86ZM126.536 128.16C124.816 128.16 123.596 126.82 123.596 124.72C123.596 121.78 125.636 119.22 128.136 119.22C129.436 119.22 130.416 120.16 130.716 121.26L131.276 119.34H132.916L131.396 125.48C131.296 125.84 131.236 126.16 131.236 126.36C131.236 126.74 131.416 126.96 131.756 126.96C132.076 126.96 132.476 126.66 132.876 125.56L133.656 125.84C133.136 127.56 132.236 128.14 131.276 128.14C130.256 128.14 129.616 127.44 129.616 126.4V126.3C128.876 127.32 127.836 128.16 126.536 128.16ZM127.236 126.66C128.996 126.66 130.316 124.76 130.316 122.88C130.316 121.6 129.676 120.76 128.356 120.76C126.676 120.76 125.416 122.58 125.416 124.52C125.416 125.78 126.036 126.66 127.236 126.66ZM136.964 128.14C135.784 128.14 135.164 127.44 135.164 126.38C135.164 126.12 135.224 125.8 135.284 125.48L137.764 114.84H136.144L136.524 113.36H139.844L137.044 125.46C136.964 125.8 136.904 126.12 136.904 126.32C136.904 126.74 137.084 126.96 137.424 126.96C137.824 126.96 138.184 126.66 138.604 125.56L139.364 125.84C138.844 127.56 138.004 128.14 136.964 128.14ZM148.984 128.16C146.704 128.16 144.924 126.74 144.924 124.34C144.924 121.6 147.204 119.22 149.944 119.22C151.844 119.22 153.104 120.38 153.104 121.64C153.104 122.38 152.644 123 151.924 123C151.384 123 150.904 122.58 150.904 121.94C150.904 121.68 151.044 121.36 151.264 121.18C150.984 120.86 150.524 120.7 149.904 120.7C148.344 120.7 146.684 122.04 146.684 124.24C146.684 125.74 147.684 126.7 149.144 126.7C150.144 126.7 151.164 126.3 152.044 125.62L152.004 127.22C151.164 127.82 150.124 128.16 148.984 128.16ZM158.277 128.16C155.797 128.16 154.397 126.38 154.397 124.34C154.397 121.7 156.457 119.22 159.277 119.22C161.757 119.22 163.157 121 163.157 123.06C163.157 125.68 161.097 128.16 158.277 128.16ZM158.357 126.7C160.037 126.7 161.397 125.06 161.397 123.04C161.397 121.56 160.437 120.7 159.197 120.7C157.517 120.7 156.157 122.32 156.157 124.34C156.157 125.84 157.117 126.7 158.357 126.7ZM172.27 128.14C171.09 128.14 170.43 127.42 170.43 126.42C170.43 126.14 170.49 125.76 170.57 125.44L171.31 122.84C171.41 122.5 171.45 122.24 171.45 121.96C171.45 121.2 170.93 120.7 170.15 120.7C169.09 120.7 168.09 121.6 167.65 123.32L166.49 128H164.73L166.53 120.86H164.93L165.31 119.38H168.39L167.93 121.4C168.61 120.2 169.73 119.24 170.91 119.24C172.23 119.24 173.25 120.14 173.25 121.68C173.25 122.1 173.17 122.58 173.03 123.08L172.29 125.62C172.23 125.88 172.17 126.16 172.17 126.32C172.17 126.72 172.37 126.96 172.71 126.96C173.05 126.96 173.43 126.66 173.83 125.56L174.61 125.84C174.15 127.4 173.33 128.14 172.27 128.14ZM181.866 120.86H179.246L178.146 125.28C178.066 125.58 178.026 125.86 178.026 126.04C178.026 126.52 178.306 126.78 178.706 126.78C179.166 126.78 179.586 126.58 180.426 126.02L181.046 126.86C179.926 127.84 178.986 128.14 178.146 128.14C177.086 128.14 176.246 127.54 176.246 126.32C176.246 126.02 176.306 125.68 176.386 125.28L177.486 120.86H175.926L176.266 119.38H177.846L178.346 117.42L180.266 116.76L179.606 119.38H182.246L181.866 120.86ZM190.558 124.24H184.398V124.54C184.398 125.84 185.438 126.7 186.998 126.7C187.918 126.7 188.758 126.5 189.838 125.92L189.498 127.56C188.598 128 187.858 128.16 186.638 128.16C184.577 128.16 182.678 126.86 182.678 124.5C182.678 121.58 184.838 119.22 187.398 119.22C189.498 119.22 190.878 120.42 190.878 122.44C190.878 122.98 190.778 123.58 190.558 124.24ZM187.398 120.68C186.158 120.68 185.098 121.62 184.638 122.98H189.118C189.198 122.74 189.238 122.48 189.238 122.24C189.238 121.34 188.638 120.68 187.398 120.68ZM199.946 128.14C198.766 128.14 198.106 127.42 198.106 126.42C198.106 126.14 198.166 125.76 198.246 125.44L198.986 122.84C199.086 122.5 199.126 122.24 199.126 121.96C199.126 121.2 198.606 120.7 197.826 120.7C196.766 120.7 195.766 121.6 195.326 123.32L194.166 128H192.406L194.206 120.86H192.606L192.986 119.38H196.066L195.606 121.4C196.286 120.2 197.406 119.24 198.586 119.24C199.906 119.24 200.926 120.14 200.926 121.68C200.926 122.1 200.846 122.58 200.706 123.08L199.966 125.62C199.906 125.88 199.846 126.16 199.846 126.32C199.846 126.72 200.046 126.96 200.386 126.96C200.726 126.96 201.106 126.66 201.506 125.56L202.286 125.84C201.826 127.4 201.006 128.14 199.946 128.14ZM209.542 120.86H206.922L205.822 125.28C205.742 125.58 205.702 125.86 205.702 126.04C205.702 126.52 205.982 126.78 206.382 126.78C206.842 126.78 207.262 126.58 208.102 126.02L208.722 126.86C207.602 127.84 206.662 128.14 205.822 128.14C204.762 128.14 203.922 127.54 203.922 126.32C203.922 126.02 203.982 125.68 204.062 125.28L205.162 120.86H203.602L203.942 119.38H205.522L206.022 117.42L207.942 116.76L207.282 119.38H209.922L209.542 120.86Z" fill="#03A2D6"/>
<path d="M59.6131 11.7899C61.8698 10.7171 60.5692 11.0512 60.9895 10.6884C61.6533 10.3366 62.0773 10.1554 62.3517 10.0722C62.623 9.97956 62.7385 9.96636 62.8009 9.98156C62.9196 10.009 62.8233 10.1567 63.3223 10.0282C65.0275 9.26886 66.255 8.4845 67.5676 8.00007C67.68 8.00872 67.942 7.93499 67.6584 8.08398C69.4632 7.26451 73.1867 6.11937 75.3568 5.33192C75.5253 5.30577 75.6189 5.30515 75.6626 5.31112C75.2693 5.28868 75.1784 5.17346 75.2249 5.0636C76.3102 4.75595 77.2017 4.3369 77.6513 4.38715C76.9839 4.5731 76.9467 4.64846 76.6443 4.78818L77.7637 4.39579C78.8466 4.34483 76.2327 4.91297 76.28 5.08481C78.4595 4.32547 81.0638 3.65097 82.7951 3.31088C83.2013 3.4647 78.7871 4.27636 81.1272 3.97921L78.4475 4.47579C80.5634 4.38044 76.8348 4.82761 78.7854 4.78344C80.5386 4.43069 81.5054 4.18955 82.4754 3.94214C82.962 3.82311 83.4486 3.70409 84.0256 3.55943C84.6152 3.45224 85.2984 3.34444 86.1845 3.21965C86.9578 2.96101 85.8907 3.07448 86.6671 2.80956C87.9148 2.55091 88.7915 2.41367 89.4561 2.34355C90.1239 2.2828 90.5922 2.32666 91.0105 2.34581C91.8565 2.39657 92.5246 2.46102 94.3651 2.10456C94.8392 1.97936 95.1633 1.81133 95.7061 1.70445C96.2458 1.60386 97.0071 1.52684 98.3399 1.53682L97.445 1.85261C99.1768 1.77857 99.6668 1.65327 100.182 1.55597C100.693 1.4493 101.233 1.34871 103.05 1.4494C102.728 1.5016 102.048 1.52487 101.511 1.54093C100.974 1.557 100.588 1.60024 100.847 1.5954C103.207 1.76137 102.51 1.42479 104.32 1.41284L104.692 1.6514C105.616 1.65469 106.565 1.59209 107.523 1.6202C108.487 1.63574 109.474 1.65427 110.466 1.67589C112.461 1.66898 114.499 1.82455 116.544 1.98321C116.31 2.0317 115.605 2.04262 116.551 2.2054C117.197 2.25121 117.85 2.30012 118.509 2.35211C119.167 2.4354 119.832 2.52178 120.507 2.60497C121.846 2.7902 123.211 2.95647 124.55 3.18865C127.236 3.70303 129.897 4.18941 132.308 4.81828L134.209 5.01545C134.644 5.11274 134.991 5.27635 134.516 5.21375C136.393 5.69591 134.64 5.10338 135.574 5.22868C136.645 5.48453 136.961 5.69529 136.268 5.58718C139.634 6.21915 145.822 7.67448 149.172 9.06403L148.481 8.90269C151.128 9.85866 151.648 9.45146 154.042 10.525L153.558 10.3873C159.309 12.4402 165.609 14.8964 169.741 17.079C170.206 17.1291 171.572 17.7805 172.885 18.3979C174.201 19.009 175.435 19.6425 175.707 19.5343C178.758 21.245 177.845 20.841 182.15 23.2102C183.31 23.8223 184.012 23.8647 185.462 24.5969L185.397 24.807L187.444 25.6543L188.342 26.4497L189.693 27.1482C189.177 26.8386 188.623 26.4322 188.729 26.4221C190.867 27.4785 193.651 29.4633 193.642 29.5917C195.261 30.5169 196.862 31.4798 198.435 32.4836C198.288 32.4814 197.491 31.9858 196.847 31.6207C199.441 33.106 197.179 32.0975 199.53 33.4936C199.258 33.2419 199.767 33.5014 199.842 33.5072C200.878 34.4018 203.343 36.2761 205.101 37.7387L204.673 37.5663C207.795 40.2501 211.069 43.4618 213.892 47.146C212.917 45.7971 213.358 45.9288 214.216 46.9936L214.368 47.5686C215.012 48.1841 213.568 46.3844 214.808 47.7159C215.817 49.1366 215.292 48.8145 214.64 48.0551C215.076 48.6062 215.511 49.1574 215.934 49.718C215.95 49.8587 215.634 49.4758 215.49 49.4204C216.119 50.036 217.353 52.5445 218.195 53.4842L218.199 53.6187C220.595 57.5844 221.549 59.478 223.135 62.9106C223.344 62.8967 223.882 64.2798 224.471 65.2587C224.924 66.5766 225.412 67.9663 225.863 69.447C226.279 70.9341 226.773 72.4677 227.187 74.102C227.892 76.3573 227.526 74.7227 227.916 75.728C227.81 75.9415 228.525 79.2171 228.03 77.5426C228.245 78.5241 228.453 79.3303 228.587 80.0681C228.726 80.809 228.85 81.4717 228.976 82.1752C229.116 82.8691 229.258 83.6037 229.376 84.4825C229.501 85.3644 229.694 86.3741 229.844 87.6439C229.88 87.0834 229.822 86.4609 229.926 86.7701C230.053 87.6926 230.038 88.8884 229.947 88.7575L229.912 88.5136C230.011 89.2266 230.088 89.9679 230.162 90.7312C230.205 91.4946 230.229 92.2801 230.25 93.0719C230.323 94.6552 230.212 96.2805 230.176 97.8645C230.071 99.4459 229.969 100.99 229.877 102.421C229.737 103.852 229.697 105.177 229.654 106.319L229.662 106.066C229.53 107.641 229.469 109.228 229.261 110.798C228.896 112.954 229.326 109.486 228.974 111.063C228.461 116.162 227.477 119.004 226.537 123.111C226.208 123.87 225.818 124.928 225.394 126.164C224.998 127.406 224.515 128.808 224.016 130.242C223.552 131.685 222.945 133.119 222.424 134.472C221.872 135.809 221.28 137.024 220.767 137.998L220.982 137.815C220.636 138.91 220.327 139.031 219.945 139.772C220.086 139.708 220.585 138.713 220.337 139.372C216.355 148.172 210.343 156.656 203.577 163.8C201.072 166.383 202.665 165.771 199.187 168.734L199.955 167.667C198.736 169.018 197.306 170.195 195.933 171.431C194.535 172.639 193.175 173.913 191.649 174.971C190.16 176.08 188.68 177.185 187.214 178.281C185.687 179.293 184.164 180.282 182.696 181.3C183.026 181.026 182.998 180.957 183.587 180.584C182.908 180.92 181.736 181.669 180.739 182.349C179.699 182.96 178.839 183.52 178.861 183.585C177.879 184.108 178.574 183.6 177.944 183.867C176.569 184.492 174.729 185.904 173.927 186.094C173.793 186.129 174.292 185.875 174.525 185.717C173.687 186.249 170.364 187.638 171.306 187.432C170.068 187.953 168.921 188.512 167.827 189.042C166.724 189.544 165.648 189.942 164.631 190.284C163.404 190.974 160.335 191.88 159.999 192.261C160.076 191.901 155.442 193.44 153.874 194.095C154.133 193.965 153.774 194.046 153.428 194.132C153.082 194.204 152.735 194.243 153.038 194.104C151.169 194.579 149.467 195.066 149.832 195.145C148.946 195.27 148.076 195.457 147.23 195.673C146.809 195.785 146.395 195.9 145.992 196.006C145.581 196.1 145.184 196.193 144.791 196.28C143.238 196.638 141.866 196.944 140.842 196.892C140.143 197.047 139.447 197.195 138.758 197.347C138.062 197.48 137.373 197.569 136.687 197.683C135.314 197.895 133.969 198.098 132.64 198.301C131.311 198.535 129.985 198.638 128.677 198.75C127.37 198.862 126.069 198.977 124.777 199.089C124.941 198.756 130.475 198.653 130.224 198.342C127.791 198.577 125.869 198.815 123.953 199.025C122.034 199.179 120.105 199.21 117.677 199.214C116.422 199.188 118.394 199.068 118.812 199.009C117.592 199.039 116.387 199.131 115.204 199.07C114.024 199.019 112.86 198.967 111.708 198.921C110.556 198.876 109.429 198.827 108.315 198.784C107.206 198.682 106.108 198.592 105.021 198.524C105.037 198.493 105.508 198.515 105.951 198.531C105.096 198.452 103.972 198.287 104.053 198.437L104.887 198.481C106.233 198.826 101.444 198.57 101.273 198.665C102.031 198.516 100.951 198.435 100.001 198.216C99.0456 198.025 98.2054 197.837 99.3848 197.763C98.8231 197.704 98.1144 197.659 98.2302 197.771C97.4058 197.613 97.1527 197.512 98.0111 197.537C94.9636 197.126 96.0164 197.451 93.2653 197.005C93.2901 196.94 93.849 197.005 94.1485 196.965C93.4399 196.935 92.7374 196.846 91.9192 196.708C91.1073 196.572 90.1798 196.387 89.0367 196.104C89.1833 196.09 88.9271 195.979 89.6142 196.131C87.6434 195.697 85.923 195.464 84.202 195.028C82.4748 194.62 80.6821 194.234 78.595 193.468C79.9343 193.575 77.1858 192.92 77.0413 192.599C76.2791 192.379 75.5044 192.183 74.7546 191.922C75.0422 192.064 75.3267 192.228 75.6173 192.364C73.649 191.657 71.8499 191.206 70.1905 190.503C70.6872 190.663 71.1901 190.794 71.6868 190.938C70.4434 190.527 69.2434 190.027 68.0248 189.55L70.0438 190.485C68.038 189.807 70.1292 190.879 67.5759 189.75C68.1164 189.932 65.6261 188.975 64.6943 188.373L64.7005 188.377C63.7257 188.02 62.7196 187.648 61.3411 186.943C61.0096 186.701 61.7621 186.815 61.5432 186.66C61.2902 186.606 60.8778 186.449 60.3934 186.248C59.9121 186.026 59.3558 185.751 58.7932 185.473C57.6617 184.914 56.5052 184.343 55.8773 184.15C56.2866 184.297 56.3706 184.19 56.2611 184.097L55.4146 183.859C54.5953 183.329 54.4858 183.236 54.6824 183.215C52.1656 181.745 55.3243 183.962 52.3883 182.129C52.6321 182.249 52.5351 182.162 53.0384 182.419C52.2942 181.973 51.5471 181.549 50.8186 181.134C50.1026 180.695 49.3898 180.264 48.6925 179.834C47.2856 178.982 45.9036 178.159 44.6337 177.188C44.0104 176.434 46.9602 178.728 46.1964 177.928C45.2426 177.293 44.2669 176.639 43.2882 175.991C42.7941 175.669 42.3 175.347 41.809 175.018L40.3703 173.979C39.4164 173.281 38.4624 172.583 37.5304 171.904C36.6294 171.177 35.7534 170.432 34.9148 169.705L35.5313 170.268C35.1784 170.21 34.5682 169.635 33.8264 168.917C33.0691 168.215 32.261 167.253 31.3727 166.564C31.795 166.921 32.0447 166.904 31.9072 166.836C30.8273 165.763 29.6259 164.763 28.402 163.51C27.1624 162.272 25.7042 160.958 24.173 159.225L24.6204 159.594C24.0597 158.887 23.2924 157.985 22.5127 157.076C21.736 156.161 21.0184 155.173 20.4263 154.404C19.9976 154.012 19.324 153.125 19.6285 153.736C18.7885 152.493 18.0234 151.24 17.2023 150.068C16.7949 149.476 16.3812 148.897 15.9676 148.333C15.5477 147.766 15.1933 147.161 14.8078 146.588C14.0523 145.425 13.2781 144.3 12.6069 143.125C11.9667 141.933 11.3609 140.735 10.8362 139.515C11.1343 140.076 11.6202 140.809 11.388 140.366C11.024 139.702 10.6445 139.053 10.2962 138.389L9.31338 136.348C9.32078 136.742 9.47108 136.926 9.76088 137.851C9.43808 137.371 8.83243 136.235 8.35822 135.212C9.30598 137.024 8.58259 135.088 8.30243 134.254C8.31848 134.411 8.13985 134.158 8.12762 134.246C7.47188 131.953 7.66814 134.011 6.6512 130.922L6.7889 131.053C6.32378 129.932 5.74982 128.953 5.40288 127.688C5.41684 127.109 5.86513 128.893 6.06805 128.907C5.46074 127.177 4.60408 125.574 4.26233 123.936C4.55468 124.667 4.90103 125.729 5.18713 126.456C4.84183 124.668 4.71025 124.494 4.35387 123.2L4.38234 123.331L3.6933 120.303L3.83598 121.084C3.32736 120.036 2.96212 118.918 2.70577 117.674C2.45876 116.427 2.21149 115.085 1.75155 113.592C2.63685 116.491 2.01814 114.044 2.27461 114.234C2.1694 113.455 2.02242 112.257 2.1482 112.585C1.78211 111.169 1.94778 110.157 1.42084 108.154C1.44567 108.104 1.39463 107.72 1.36559 107.385C1.35525 107.044 1.36381 106.759 1.45789 106.915C1.26213 105.029 1.37179 107.372 1.27461 107.223C1.04889 105.775 0.99092 104.051 0.90445 102.179C0.93342 100.295 0.92453 98.2665 0.78432 96.1578C0.85827 92.5296 0.5504 91.8305 0.8654 88.4542C1.10253 87.3289 1.00857 89.4079 1.00857 89.4079C1.16204 88.4992 1.27526 87.7034 1.36352 86.9109C1.40298 86.5163 1.44868 86.1247 1.48813 85.73C1.5463 85.329 1.60446 84.928 1.66878 84.4987C1.66355 84.8556 1.78117 84.5074 1.94826 83.9961C2.18158 82.6267 1.87062 83.0357 2.2994 81.255C2.31905 81.5772 2.36706 81.9995 2.31591 82.6696C2.44159 81.8644 2.51105 81.047 2.65234 80.2416C2.80923 79.4362 2.96922 78.6244 3.14788 77.7906C3.37145 77.3854 3.07279 78.824 2.99645 79.4193C3.20605 78.4914 3.47417 77.2877 3.70842 76.2469C3.90206 75.194 4.18052 74.3314 4.17027 74.0216L3.72096 75.167C3.93132 74.5052 3.98231 74.8742 3.86199 75.3695C3.59817 76.9895 3.21921 77.6305 3.1289 77.7031L3.38771 76.5182C3.03969 77.0652 2.75592 78.2533 2.4757 79.5917C2.41111 79.9271 2.32781 80.2688 2.27887 80.6197C2.22993 80.9706 2.18723 81.3246 2.1414 81.6692C2.04662 82.3647 1.94555 83.0414 1.838 83.6368L1.73513 82.5858L1.51752 85.0882C1.35043 85.5995 1.12353 85.9328 1.29181 84.7422C1.05703 85.5952 1.02378 85.9772 1.01545 86.3404C1.00087 86.7004 0.97995 87.0261 0.81973 87.7596C0.77961 87.9195 0.77628 87.8475 0.77584 87.691L0.66835 89.4039C0.64866 89.066 0.42877 89.6684 0.59434 88.625C0.33337 90.1448 0.22764 91.3819 0.2586 92.3895C0.2552 93.388 0.26048 94.1486 0.12168 94.7286L0.11782 94.4688C0.058348 96.6039 0.108581 96.7069 0.18652 96.6751C0.25511 96.6464 0.34829 96.4893 0.49639 98.0784L0 100.232L0.21653 100.644C0.21778 101.082 0.21402 101.956 0.12305 101.793C0.36176 103.419 0.18467 101.511 0.39021 102.449C0.36191 104.568 0.89987 108.249 0.69842 108.751C0.95956 109.482 0.54597 106.73 0.96429 108.953C0.70406 109.637 1.34618 111.532 1.51396 113.459C1.18468 112.914 1.07334 111.077 1.16314 113.02C1.7062 114.109 1.82602 116.731 2.2082 118.319C2.34245 118.33 2.59144 119.18 2.90379 120.358C3.05529 120.949 3.23197 121.614 3.41184 122.305C3.59172 122.995 3.77163 123.702 4.02315 124.342C3.91036 124.192 5.40126 129.312 6.34747 131.679L6.28177 131.623C6.48828 131.803 6.82115 132.515 7.19508 133.395C7.55965 134.278 8.07753 135.292 8.48573 136.15C8.31717 136.145 8.1166 135.858 7.62084 134.941L8.37459 136.58C8.62841 136.932 8.89824 137.424 9.41618 138.47L9.05635 138.143C9.53078 139.245 10.2078 140.252 10.8322 141.381C11.4877 142.494 12.0998 143.726 12.8839 145.051C13.1244 145.1 12.0376 142.719 13.8306 145.417C13.8092 145.571 13.7317 145.759 13.2553 145.055C13.412 145.289 13.8444 145.862 14.0986 146.355L13.2811 145.333C13.9494 146.562 13.7789 145.884 14.3528 146.847C14.225 146.901 14.7014 147.606 14.5296 147.529C14.3666 147.292 14.0683 146.668 13.7989 146.332C14.4356 147.42 15.1574 148.777 15.3834 149.232C15.3861 149.101 15.536 149.128 16.0844 149.875C17.4601 151.829 16.4143 150.64 17.1574 151.828C17.364 152.039 17.6648 152.469 17.9343 152.837C18.21 153.207 18.4855 153.484 18.5759 153.443C19.005 153.991 19.0086 154.157 19.1279 154.403C19.5475 154.861 20.4402 155.997 21.1481 156.863C21.859 157.722 22.4318 158.263 22.0524 157.677L21.8551 157.431C21.8958 157.474 21.9428 157.521 21.9929 157.577C24.7697 160.52 27.4825 163.954 30.5051 166.62L30.4522 166.664C31.3658 167.444 32.3204 168.376 33.2809 169.171C34.2445 169.96 35.1517 170.69 35.8554 171.186C36.3935 171.639 37.0542 172.364 36.7697 172.231C38.2429 173.327 38.4616 173.372 40.4858 175.083C38.9473 174.058 40.9273 175.559 38.9347 174.004C39.8607 174.759 40.4238 175.225 41.0057 175.7C41.6032 176.159 42.2629 176.571 43.3603 177.23C42.5385 176.879 44.7059 178.442 45.6689 179.043L44.3644 177.984C44.8898 178.338 45.3839 178.676 45.8686 179.001C46.3595 179.314 46.8254 179.615 47.3007 179.928L46.6574 179.797C47.6519 180.507 48.6338 181.133 49.5874 181.706C50.5348 182.291 51.513 182.736 52.4226 183.208C53.3416 183.678 54.223 184.129 55.0609 184.606C55.9236 185.048 56.7364 185.512 57.5089 186.042C58.7274 186.488 55.2017 184.73 56.317 185.086C58.2957 186.134 60.2223 187.523 60.8785 187.785C62.2507 188.487 62.9411 188.711 63.6471 188.934C64.3501 189.165 65.0686 189.395 66.5436 190.03C66.1934 189.794 65.9239 189.442 68.1674 190.285C70.2236 191.16 70.587 191.652 69.2498 191.179C68.7499 190.979 68.5217 190.859 68.5559 190.836C67.8779 190.587 66.9812 190.261 67.769 190.682L68.0718 190.714C68.5719 190.961 69.5314 191.396 70.2969 191.704C71.0562 192.009 71.6031 192.24 71.2377 192.177C72.8622 192.683 71.9653 192.294 70.8029 191.829C73.4747 192.923 75.0179 193.404 77.8359 194.343C77.3984 194.159 77.017 193.939 77.4637 194.074C81.5846 195.477 79.3284 194.534 82.1708 195.282C83.7517 195.844 81.5126 195.418 84.3985 196.094C86.1293 196.652 84.7178 196.408 83.9996 196.287C85.3207 196.588 86.5513 196.884 87.632 197.168C88.7159 197.461 89.6531 197.737 90.4027 197.92L88.9912 197.675C89.8375 197.82 90.5183 197.969 91.2116 198.124L90.4522 197.788C91.2675 197.995 91.9546 198.147 91.9298 198.213C92.7946 198.289 91.3418 197.798 93.0372 198.018C94.121 198.28 96.4001 198.468 96.7442 198.748C93.2903 198.12 97.0883 199.027 94.1469 198.59C94.7214 198.655 95.4053 198.766 96.2359 198.926C96.3547 198.969 96.1143 198.952 95.8833 198.932C99.1748 199.652 97.447 198.947 100.891 199.469C100.433 199.547 101.66 199.786 102.238 199.813C100.839 199.669 101.594 199.542 102.883 199.577C105.091 199.895 105.302 199.749 106.461 199.876L105.14 199.7C105.599 199.622 106.71 199.749 108.252 199.871C108.377 199.979 106.844 199.792 107.394 199.892C108.256 199.896 109.226 199.961 110.285 200.086C111.34 200.201 112.48 200.319 113.684 200.304C114.793 200.438 113.785 200.542 114.762 200.642C116.114 200.645 116.844 200.631 117.59 200.679C118.342 200.715 119.107 200.757 120.527 200.669C119.703 200.512 119.566 200.553 121.563 200.368L116.9 200.549L119.892 200.27C118.485 200.285 116.928 200.414 116.082 200.395C117.511 200.242 117.358 200.283 116.69 200.156C118.61 200.378 120.497 199.959 122.72 200.104L122.665 200.514C123.501 200.568 124.294 200.507 125.071 200.445C125.851 200.377 126.622 200.297 127.427 200.21C128.229 200.13 129.065 200.043 129.967 199.95C130.422 199.909 130.887 199.865 131.38 199.828C131.867 199.771 132.379 199.711 132.925 199.645L131.533 199.755C132.094 199.516 134.194 199.39 135.576 199.143C135.461 199.297 136.341 199.231 136.95 199.243C136.909 199.199 137.699 199.097 138.541 198.966C139.383 198.82 140.269 198.586 140.443 198.422L142.384 198.24C144.122 197.95 145.086 197.668 146.034 197.386C146.972 197.077 147.883 196.714 149.523 196.337C148.576 196.728 150.082 196.449 147.915 197.105C149.007 196.832 149.995 196.609 149.995 196.515C150.653 196.426 152.986 195.594 154.015 195.431C154.449 195.231 154.557 195.042 155.767 194.671C155.908 194.654 155.78 194.74 155.78 194.74C155.767 194.671 157.638 194.048 156.54 194.24C157.398 194.078 158.405 193.818 159.475 193.495C160.008 193.328 160.573 193.178 161.118 192.97C161.667 192.757 162.219 192.538 162.771 192.318C164.969 191.427 167.129 190.627 168.583 190.173C169.689 189.634 170.914 189.043 172.111 188.463C172.712 188.174 173.302 187.894 173.872 187.622C174.439 187.355 174.988 187.095 175.471 186.81C175.365 186.914 175.493 186.875 175.119 187.066C177.887 185.698 176.598 185.804 179.73 184.249C181.414 183.581 178.157 185.246 179.176 184.788C179.501 184.871 180.42 184.348 181.539 183.69C182.614 182.963 183.866 182.081 184.935 181.554L184.468 181.886C185.269 181.461 186.178 180.833 187.197 180.109C187.449 179.929 187.711 179.746 187.979 179.55C188.237 179.342 188.496 179.133 188.767 178.916C189.305 178.486 189.872 178.047 190.467 177.615C190.467 177.615 190.377 177.734 190.495 177.683C191.236 176.987 192.36 176.05 193.581 175.074C194.767 174.059 195.972 172.911 197.03 171.965C196.477 172.677 196.119 172.882 196.639 172.663C197.582 171.808 196.168 172.688 198.051 170.985C198.388 170.745 198.93 170.357 199.413 170.009C199.902 169.665 200.303 169.34 200.466 169.326C199.909 169.903 199.298 170.414 198.694 170.943C199.819 170.351 200.973 168.834 201.913 167.986L201.873 168.177C202.533 167.535 202.997 167.021 203.376 166.568C203.746 166.118 204.051 165.753 204.362 165.375C204.991 164.639 205.597 163.837 206.904 162.357L206.577 162.609C207.795 160.82 207.868 161.333 209.068 159.535L209.691 159.202C210.534 158.048 212.501 155.074 213.868 152.921C213.546 153.574 212.98 154.529 212.378 155.528C211.734 156.5 211.066 157.506 210.556 158.285C210.976 157.719 211.694 156.754 212.341 155.839C212.975 154.917 213.512 154.034 213.671 153.698C213.369 154.182 213.018 154.814 212.67 155.251C213.071 154.472 213.571 153.602 214.173 152.634C214.764 151.66 215.4 150.56 216.162 149.381C216.272 149.74 217.235 148.184 218.325 146.324C219.384 144.449 220.552 142.275 221.161 141.435C223.18 136.877 225.333 132.44 227.078 126.879C226.066 128.723 227.576 125.257 227.058 125.471C227.448 124.178 227.556 123.677 227.624 123.57C228.054 122.274 228.534 120.988 228.905 119.671C229.249 118.755 228.703 120.946 228.827 120.851C229.537 117.967 229.289 119.681 229.843 117.79C229.721 117.972 229.727 117.709 229.819 117.192C229.889 116.672 230.034 115.907 230.225 115.08L229.57 117.382C229.87 115.326 230.117 114.464 230.374 113.598C230.612 112.723 230.831 111.839 231.043 109.756L230.972 111.081C231.125 110.016 231.335 108.049 231.529 106.082C231.648 104.109 231.774 102.139 231.612 101.082C231.673 100.706 231.809 100.211 231.808 101.156C231.948 98.5915 231.89 95.7341 231.701 93.031C231.607 91.6794 231.525 90.3654 231.39 89.1424C231.287 87.9192 231.193 86.7868 231.109 85.792L231.26 86.1634C231.104 85.2192 230.85 84.5385 230.799 83.3338C230.85 83.3898 230.953 83.699 230.899 83.258C230.788 82.7579 230.287 80.783 230.13 79.5258L230.43 80.5724C230.273 79.3308 230.005 78.2527 229.771 77.262C229.537 76.2713 229.291 75.3683 228.992 74.5095C228.703 73.6475 228.425 72.8074 228.139 71.9391C227.818 71.0773 227.488 70.1874 227.16 69.1974C227.232 69.1781 227.219 68.9216 227.149 68.5276C227.07 68.1369 226.913 67.6058 226.736 67.0185C226.377 65.8409 225.902 64.4417 225.518 63.5334L225.587 63.583C223.334 58.1954 221.148 54.7167 218.099 50.2953C217.314 48.8137 215.716 46.461 213.743 44.0796C211.791 41.6854 209.441 39.2814 207.5 37.4162C208.07 38.0102 207.238 37.5055 206.509 36.8875C205.598 36.0077 203.704 34.8214 204.034 34.7347L204.381 35.0235C203.827 34.1945 201.716 32.6747 200.064 31.515L199.581 31.6277C197.578 29.8881 194.624 28.0765 191.876 26.5547C189.128 25.0172 186.593 23.7412 185.436 22.8568C184.273 22.3449 182.873 21.6373 181.716 21.1441L181.866 20.9992C180.315 20.1705 179.153 19.5647 177.871 18.9472C176.587 18.3359 175.233 17.6437 173.245 16.771L174.108 17.0095C171.882 15.9881 171.053 16.2502 168.997 15.3279L168.493 14.7898C164.571 13.1098 160.654 11.2294 156.59 10.0418C156.668 10.0256 156.821 9.98386 157.474 10.2049C156.527 9.85436 154.706 9.18087 153.203 8.61799C151.688 8.09588 150.46 7.77845 150.748 8.07704C150.782 7.82015 146.571 6.66165 144.304 6.18207L144.706 6.09177C143.738 5.94166 143.232 5.87926 142.642 5.76735C142.052 5.65543 141.38 5.48771 140.047 5.19603C139.428 5.01544 139.537 4.90516 140.359 5.16266C138.303 4.5377 138.691 4.93265 136.192 4.19793L137.163 4.31047C135.03 3.74862 135.174 3.89791 133.953 3.77137C132.576 3.56762 129.874 2.83424 129.58 2.62647C129.265 2.68176 128.045 2.61782 126.78 2.34447C126.617 2.24851 127.095 2.28918 127.332 2.31265C123.715 1.51019 121.868 1.7227 119.376 1.17887C119.332 1.1103 119.173 1.05501 118.964 1.00631C121.877 1.39086 124.222 1.71343 123.997 1.69613C124.024 1.51441 121.67 1.17938 123.583 1.17927C121.667 1.07611 118.408 0.887907 116.103 0.655836C115.994 0.625257 115.888 0.604049 115.804 0.570175L116.044 0.571718C115.516 0.506339 115.032 0.478233 114.583 0.47494C113.849 0.385881 113.381 0.310721 112.675 0.259037C112.413 0.098008 109.95 0.061052 108.767 0C108.855 0.199744 107.309 0.100392 108.752 0.328755C108.568 0.30806 108.977 0.31475 109.763 0.343988C109.941 0.345944 110.147 0.353975 110.269 0.343782C110.244 0.347076 110.219 0.350371 110.185 0.356858C110.962 0.389288 111.977 0.413893 113.125 0.481431C112.183 0.515823 111.206 0.572351 109.904 0.405662C109.293 0.50986 108.622 0.608188 108.244 0.648241C107.445 0.456325 106.261 0.348324 105.222 0.264414C104.185 0.174224 103.296 0.101845 103.074 0.015667C99.4538 0.133465 94.5414 0.425683 92.3241 1.08824C91.307 1.24207 91.1412 1.10544 90.7447 1.08928C91.3312 0.988377 92.0333 0.921137 92.3483 0.834547C91.3282 1.0103 89.8084 1.11111 88.5046 1.3889C87.1944 1.6323 86.087 1.85872 85.869 2.03231C83.2917 2.33729 87.2691 1.55982 83.7595 2.17769C83.9122 2.12034 84.0682 2.07237 84.2178 2.0213C80.7485 2.54188 77.9696 3.27074 75.1946 4.27503C73.8008 4.75061 72.3725 5.18573 70.8604 5.75912C70.1027 6.03331 69.3107 6.29833 68.4749 6.55738C67.6392 6.81643 66.7535 7.06642 65.8368 7.39487C66.3481 7.2256 66.6038 7.13314 66.7193 7.13551C65.6873 7.53984 64.6429 7.93799 63.6016 8.34551C62.5603 8.76868 61.5002 9.15129 60.4904 9.66815C59.468 10.1632 58.4457 10.6583 57.4233 11.1533C56.9153 11.4102 56.3916 11.6359 55.8961 11.9146L54.4066 12.757C53.4156 13.3145 52.4246 13.8719 51.4337 14.4293C50.4552 14.9929 49.5145 15.6377 48.5548 16.2262C47.6077 16.8366 46.6323 17.3939 45.7165 18.0197C44.8038 18.6549 43.8942 19.2837 42.9783 19.8939C40.9066 21.2848 40.839 21.6421 39.7465 22.7041L39.1977 22.8861L37.3645 24.7387C36.0605 26.04 34.8555 27.0778 33.5321 28.182C32.8532 28.7218 32.2277 29.3582 31.5743 30.0667C30.9115 30.7785 30.2333 31.5686 29.5118 32.4936L30.0227 32.1366C29.7427 32.4514 29.3817 32.8513 29.0021 33.2733C28.6539 33.7263 28.2901 34.2107 27.9635 34.6354C27.3043 35.4974 26.7818 36.1457 26.8032 35.9921C26.7194 36.1461 26.5831 36.5163 26.1225 36.992L26.0038 36.9646L25.4163 37.8073L24.8913 38.6966L23.8445 40.4689C22.94 41.7801 22.9114 41.6175 22.796 41.6151C22.7366 41.6093 22.6556 41.6474 22.4223 41.9306C22.3135 42.0722 22.1455 42.2705 21.9591 42.5691C21.7789 42.8708 21.5522 43.2666 21.2696 43.7756C20.4719 45.3271 19.1818 48.2685 19.5579 47.7276C19.8995 47.115 20.4712 46.1941 20.5992 46.2027L19.9009 47.6158C20.0457 48.0155 19.7712 49.2005 21.8126 45.9505L22.9168 43.5112C23.091 43.2847 23.287 43.0611 23.4955 42.8594C23.0791 43.4819 22.7657 44.1632 22.3962 44.8167C22.763 44.2947 23.0177 43.8423 23.2224 43.4121C23.4397 42.9881 23.6353 42.6081 23.8495 42.206C24.0395 42.0733 24.2946 41.7931 24.6087 41.3622L25.7786 38.9944C26.0652 38.8078 25.3511 40.1271 26.3708 38.6931C26.967 37.6124 25.4335 39.4724 26.5711 37.7841C27.4736 36.8547 27.3373 37.225 28.1546 35.9644C28.3509 35.8505 28.1956 36.1332 27.8662 36.6268C28.6153 35.5201 29.9556 33.7834 30.3316 33.1956C31.3591 32.3281 33.312 29.808 33.4471 30.117C33.652 29.7338 34.9558 28.3072 35.821 27.4376C35.14 28.3436 35.9711 27.5587 36.9548 26.6226C37.9071 25.6554 39.1592 24.7269 39.0477 25.0469C39.5734 24.3924 40.6942 23.399 41.9552 22.3264C43.2601 21.3068 44.7428 20.2578 45.8668 19.3051C45.7455 19.4249 45.5214 19.658 45.2971 19.7972C45.9761 19.3201 46.4216 19.0323 46.8142 18.7887C47.2225 18.5763 47.5622 18.3925 48.0359 18.1421C48.0661 17.7976 50.2063 16.3624 51.2931 15.4694C52.2377 15.0688 52.0136 15.3019 51.6336 15.5987C51.2694 15.9266 50.7525 16.3432 51.0863 16.2815C50.8516 16.0952 54.0209 14.3403 53.3347 14.5169C54.7719 13.9065 54.5441 13.9424 55.3457 13.7525C55.4288 13.3325 56.5608 12.9619 57.6418 12.2536C59.7401 11.4385 58.3005 12.29 60.4789 11.1394C61.5764 10.7284 59.6568 11.7802 59.6568 11.7802L59.6131 11.7899ZM116.563 1.92987C116.06 1.8925 115.626 1.8578 115.355 1.84082C115.608 1.86419 115.954 1.88694 116.563 1.92987ZM121.458 2.48914C120.862 2.40544 120.125 2.30701 119.338 2.19952C119.173 2.10984 119.366 2.06474 119.862 2.13033C119.591 2.14464 120.737 2.32801 121.462 2.48286L121.458 2.48914ZM111.155 0.156389C111.945 0.163697 112.207 0.215178 112.31 0.258318C111.936 0.24514 111.505 0.235462 110.93 0.217343C110.905 0.220638 110.862 0.230316 110.834 0.239891C110.912 0.208076 110.999 0.173071 111.149 0.153302L111.155 0.156389Z" fill="#03A2D6"/>
</svg>
