<?xml version="1.0" encoding="UTF-8"?><svg id="Layer_2" xmlns="http://www.w3.org/2000/svg" viewBox="0 0 396.85 376.53"><defs><style>.cls-1{fill:#fff;}.cls-2{fill:#a7dff1;}.cls-3{fill:#4eb6ce;}</style></defs><g id="shapes"><path class="cls-1" d="m166.59,9.01C98.33,31.29,46.86,128.74,31.73,183.55c-13.87,38.42-20.04,75.83-3.34,106,16.69,30.17,138.61,104.86,233.99,83.05,95.38-21.81,159.37-193.74,125.13-281.76C353.27,2.83,234.85-13.28,166.59,9.01Z"/><path class="cls-2" d="m266.62,304.02c-1.14.05-.46,1.12-.66,1.77-1.34.4-.68-.77-1.18-1.31-.83.35-1.41,1.41-2.05,1.41-.06-.18-.19-.24-.06-.47-.84.94-2.66.22-3.63,1.39-.08-.09-.13-.18-.15-.26.2.54.27,1.1.26,1.51-.51.05-.9.76-1.14.05.31,0,.32-.29.45-.53l-.52.35c-.55-1.01.71-.41.66-1.18-1.02.41-2.18,1.35-3,1.11-.23-1.01,1.85-.47.72-1.3l1.26.31c-1.05-1.54.76.06-.22-1.6-1.64-.19-1.79.64-3.43.44-.33.59.17.83-.16,1.42-2.25,1.15-1.97-2.45-3.59-1-.4.7-.49,2-1.74,1.39l.34-1.17c-1.58-.02-.8,1.71-2.5,1.03.27-.47,1.22-.45.97-.58-1.12-.85-.72.7-1.54.74l-.23-1.01c-1.67.26-3.47,1.1-5.32,1.4.09-.31.39-.65-.07-.93-2.31.65-5.01.17-7.3-.33l-.82.92c-.2,0-.39-.38-.19-.56-.9-.29-.02.56-.42.93-.5.09-.69-.47-.38-.75-1.52.82-4.35,1.83-6.03.97l.31-.28c-1.29-.29-1.35,1.88-2.58,1.12l.22-.17c-2.79-.24-5.81.72-7.99-.52-.34,1.28-2.77-.45-2.87,1.33-1.62-.81-1.18-1.14-3.44-1.64-.6-.06-.84,1.14-1.57,1.36l-.06-.92-.96,1.01-.58-1.08-.68.27c.28.04.6.39.57.66-1.06.46-2.65-.53-2.7-1l-2.52.89c.04-.37.46-.52.79-.77-1.32,1-.29-.96-1.5-.04.18.2-.07.55-.09.74-.64-.53-2.06-.49-3.1-.22l.18-.64c-1.9-.09-3.98.45-6.1.51.77.27.64,1.38.02,1.51l-.28-.97c-.38.62.66.34-.14,1.11-.8-.08-.57-1.09-.13-1.43l-.95.37c-.07-.29.15-.45.2-.83-.37.62-1.7-.92-2.23.15l-.06-.29c-2.12.07-3.07.44-4.8.55,0,.84-.69.68-1.18,1.38-1.28-.23-2.71-.86-4.24-.74-1.06.45-.29.72-.76,1.24-.1-.77-1.63-.65-.85-1.22-1.83.18-2.34.22-4.65.91.26.31.55.44.41.7-.42.14-.97-.3-.92-.67l.11-.08c-2.58,1.22-6.08-2.07-8.12-.42l.11-.08-2.14.88c-.99-.11.58-.59-.16-1.05-2.3,1.33-3.68-.11-5.57.78-1.53-2.24-5.25.27-7.28-1.14l.12.53c-.51.53-.63-.29-1.01-.41.06.41.57.47.25.76-4.37.73-9.05-.66-13.54-1.07-1.64-.12-.9,2.77-2.98,1.52l.58-1c-3.3,1.24-6.77.04-10.01,1.05.19-.23.2-.53.51-.52-.69-.72-2.53-.02-2.54.57-.51-.06-.12-.53-.43-.83-.69-.42-1.72.93-2.09.21-.06-.12.19-.23.32-.29-.45.35-2.09-.08-1.65.75-1.22-.39-2.33.38-3.3-.11-.63.93-2.09-.44-2.28.88.08-1.36-2.14-1.08-2.91-.45.26-.41-.67-.43-.37-.99-.88.02-1.68.27-1.53.96-1.62-1.63-3.26,1.3-4.16-.79-2.61.72-5.03,1.21-7.38,1.52.09-1.35,2.6-.13,2.5-1.55-2.23.55-3.52,1.71-5.73,1.38-.57-.19.33-.59.52-.82-2.23.55-4.3-.16-6.29.56,0-.13.22-.26.42-.36-.39.04-.91-.21-.87.41l.38-.16c.62.9-1.57,1.85-1.64,2.32.68-1.76-1.95-.46-.88-2.68-.26.11-.58.4-.53.81-.38-.12-.5-.37-.11-.83-1.4.32-.91.98-2.18.95,0-.3.26-.41.4-.76-.65.57-1.3,1.15-2.37.89.07-.18-.06-.41.26-.41-1.84.07-3.15,1.51-5.16.93.61-1.29-.68-.43-.77-1.55l-1.09.32.43.55c-.95-.04-1.8.76-2.61.38l.71-.45-1.78.18,1,.44c-.97.56.08,1.42-1.18,1.08.26-.11-.95-.03-1.44-.7-.48.35-.97.71-1.66.42-.18-.36.17-1.24.05-1.48-.48.93-2.23.22-2.84,1.21.2-.23.22-.82.16-.94l-.4.75c-.44-.25-.5-.37-.42-.84-1.32-.16.39,1.43-1.17.79.12-.06.07-.17.33-.28-1.57-.35-3.06.43-4.5.03-.4-1.13,1.27-.25.8-1.21-2.09.17-4.36,1.27-6.38.95l.37.13c-.32,1.58-1.49-.82-2.53-.1.25-.11.35-.87.28-.7-1.38-.29-2.84.32-4.95.77l.27-.4c-.81-.39-2.14-.27-3.02-.47-.27.4-.78.32-.49.92-2.65-2.4-5.23,1.13-7.58-.9.29,0,.7-.33.47-.34l-2.07.31c.14.7.26.43.67.98-.27.4-.86.7-1.37.68.94-.43.03-1.11-.36-1.51.06.21-.08.44-.06.66-1.03-1.27-.22,1.39-1.66.51l.09-.36c-.55.17-1.08.63-1.66.51-.22-.81.6-.35.66-1.01-.83.02-1.69,1.46-2.42.64.36-.21.87-.2,1.23-.41-.79-.97-.89-.73-1.49-.9l.06.02-1.39-.47.35.27c-1.11,2.06-2.13.31-3.58,1.63,1.41-1.25.25-.74.39-1.65-.35-.26-.88-.56-.72-.81-.69.71-1.08-.61-2.06.43-.03-.29-.71-.05-.53-.78-.87.2.18.52.1.88-1.36.96-3.07-1.33-5.03-.04-1.67.5-2.01,1.47-3.56,1.9-.5-.49.46-1.05.46-1.05-.81-.46-1.44-.41-2.24-.11.17-.25.01-.47-.21-.81-.63.05-.46,1.05-1.28.58.16-.32.36-.83.68-1.15-.75.24-1.51.75-2.28.99-.18-.52.5-.75.78-1.07-.87.19-2.25.37-2.55,1.16l.54.31c-.32.03-.13-.7.11-.84.77-.6,1.05.32,1.08.62l-.55.16c.49,1.74,2.21-.19,3.3-.04l-.51,1.23,1.17-.99c.23.33.36,1.04-.19,1.2.76.65.72-.41,1.37.3.07.11.03.17-.04.21l.79-.34c-.16.26.09.89-.37.69,1.36.78,2.27-.84,2.75.12l-.12.07c1.94-.34.22-.91,1.7-1.92l.88,2.3.22-.91c.2.04.59.13.5.49.76-.6-.11-.4.34-.98.92.88,2.64-.29,2.8,1.17.37-.68-.89-.57.14-1.02.23,1.58,1.19-.23,2.03.52-.3.8-1.11.34-.26,1.1.57-1.35,1.69.36,2.43.12.07-1.09,1.61-.4,2.86-.72-.09.36,2.3.68,3.44,1.11l-.04.18c.26-1.09,1.43-.85,2.3-1.05-.05.66-.22.91-.69,1.19l.81.02c.2-.35.46-.52.99-.63l-.23.82c1.08-.01,2.2-.89,3.57-.3.1-.77-1.04-2.17.44-2.64.04.42.08,1.13-.31,1.29.13-.05.46-.33.71-.15l-.61.68c.62.32.35-.57.85-.5-.03.59.36.43.28.9-.13.05-.43-.26-.63-.03.57.12,1.25.49,1.46.94-.04-.34.02-.8.44-.86,1.08-.02.35.72.97,1.04.27-.4.95.04.99-.85.32.01.36.43.48.67.57-.38,2.61-.05,2.01-1l-.14-.07s.06-.02.09-.04c1.85-.83,3.79.6,5.61.27v.3c1.08-.31,2.41-.14,3.19-.76.32,0,.74.56.6.91.83-.2.93-.53,2.12-.02-.84.5.28.47-.86.36,1.07.28,1.3.76,2.48-.03-.41.75.79.97,1.31.75l-.74-.56c.58-.1,1.08-.02,1.59.05l-.3.99c2.18,1.25,4.01-1.99,5.65.07.6-.69-1.19-.51-.65-1.32,1.01.15,2.04,1.6,2.36,1.61,1.38.58,1.32-1.43,2.77-1.03-.18-.36-.34-1.31.75-1.63,1.01.15,1.22,1.52.58,1.79-.24.03-.36-.09-.35-.21-.33.12-.76.27-.37.66l.14-.35c.5.37,1.89.36,1.56.94.77-.33.34-.58-.23-.77,1.29.54,2.03.06,3.37.41-.21-.2-.4-.62-.19-.61,1.96.46.87-.67,2.21-.81.75.55-.29,1.29,1.06.85.81.38.16.95-.17,1.23,1.23-.67,2.28.47,2.97.61l-.65.28c.39-.17.7-.16,1.02-.15l-.36-.72c.38.13.7.13.69.43.39-.46-.28-1.19.49-1.82.5.37,1.54-.37,1.7.57-1.58-.34.17.95-1.18,1.09.26-.11.58-.1.95.03.06.11-.06.2-.16.25,1.51.86.71-1.06,2.28-1.02-.2.53.35,1.01.61.9-.63-.02-.29-.89.29-1.29,1,.43,1.1-.3,1.62-.24l-.6-.2c.21-.53.71-.45,1.41-.62.06.42-.64.28-.39.46.79-.93,1.75.99,2.84.37.5.37.04,1,.48,1.25,1.22-.68,1.31.74,2.6.17-.36-.72-.43-.54.47-1.24l-2.11.5,1.36-1.04c-.63-.01-1.34.45-1.72.32.65-.58.58-.4.28-1,.86,1.08,1.73-.62,2.72.11l-.04,1.77c1.51.79,2.69-.9,4.65-.45l-.63-.31c.27-.7,1.21-.09,1.85-.38-.06.59.34.81.61,1.18-.03-.44,1.44.04,1.62-1.14l.87.78c1.58.32,1.81-1.68,3.33-1.48-.46.64.23,1.06-.79,1.52.51,0,.97.12.97-.29.3.37,1.41-.79,1.88-.23.21-.26.28-.88.85-.83.06.12,0,.29,0,.29,0-.29.89-.4.39-1.05,1.57,1.84,4.37-.16,5.74,1.42,1.11-.2,2.44-.4,3.45-.45-.06.18,0,.3-.19.23,1.39.54.84-1.7,2.43-1.1.81.95-.84.52-.33.88.23,1.95,1.9-.28,2.98.86l-.26.12c.82.66,1.98-.75,3.31-.62,0,0-.06.17,0,.29.9-.99,2.62-1.34,3.89-1.64-.39.77-.58.41-.33,1.18.57-.12-.18-1.24.96-1.47.38.41,1.2.77,1.32,1.59l-1.08.06c.56,1.06,1.4-.05,1.97.12l-.07.47c1.65-.17,1.66-1.35,3.44-1.29l-.19-.35c.96-1.18.82.65,1.78-.23l.31,1.18c.64-.29,2.23-1.17,3.37-1.41-.64.89-1.97,1.35-2.8,1.88.64,0,2.16-.11,2.48-.7-.25.12-.57.41-.83.23.77-.94,1.78-1.41,3.05-1.41-.19,2.3,3.3.54,4.25,2.3,2.22-.89,4.45.27,7.05.08-.96-1.77.76-.07.56-1.9.6-.13.84-.1.89,0l1.86,1.06c.45.53-.57.42-.5.83,1.33.11.57.77,1.47,1.24-.19-.65.44-.95,1.21-.71l-1.09-.82c1.84-1.01,1.64,1.51,3.49.5l-.58.59c.95-.36,3.55-.06,4.45-1.57.18.21.41.7,0,.85,2.3.16,5.07-1.71,6.88-.85l-.16.45c.42-.14.72-.86,1.27-.43-.02.19-.16.45.04.47.22-.16,1.12-.82,1.69-.57l-.47.52c2.26.52,3.4-1.32,5.27-1.68.04,1.32,1.81,1.7,2.7,1.89l-.02.19c2.61.07,4.4-1.25,6.79-1.85,1.55,1.38,5.1.42,7.54,1.14-.38-.23.02-1.03.44-1.18.58.25,1.53-.97,1.48.24l-.2-.02c.47,1.17,1.62.82,2.53.81l.09-1.59c2.47,2.2,6.18-1.11,7.56.89.56-.42,1.27-.45,1.82-.87v.85c1.6.15,2.4.22,4.35-.07l-.37.62c1.11,0,1.29-2.51,2.3-2.6l.37,1.25c1.93-.1,3.93.91,5.78-.34-.02.19-.06.56-.37.62.91-.01,3.56.68,3.14-1.04.08,1.13,2,0,3.01-.54l-.12.84c.82-1.11.84-1.4,2.05-1.76.3.09.29.66-.11.46.99.39.71-.83,1.91-.44l-.41.56c1,.01.91-.27,1.42-.92.61-.37,1.9.11,2.09.86.11-.47.62-1.11,1.22-.92.09.28-.11.47-.21.56,1.7.48,2.42-1.11,3.62-.36.04.27.12.41.22.49-1.33.06-2.39.07-2.3,0,.04.77,1.12.84.33,1.95.83-.63,2.23-1.98,3.29-1.68.05.07.11.14.15.26l-.1.09c.24.06.46-.02.65-.16.34.11.56.19.88.18.16.63,1.25.27,1.78.27-.09-.84.61-.75-.08-1.4.09.05-.1.11-.45.16-.08.03-.17.05-.22.1,0-.02.02-.05.03-.08-.35.04-.8.09-1.32.13.4-.45.82-.84,1.43-.41.24-.56.51-1.13.67-1.4.8,1.13,2.24,1.68,2.48,2.4,1.6-.57,3.82-.54,4.75-2.18.45-.23.56.42.75.66-.26.17-.58.17-.71.4.9-.46,2.73-.32,2.89-1.44,1.2.43-.59,1.06,1,.78l-.2.35c3.27,1.56,4.94-3.16,8.58-1.12-.25-.12-.38-.18-.44-.36,4.05.73,8.14-1.46,12.18-.17,1.14.24,1.21-.48,1.85-1.06l.31.89,1.09-1.13c1.6-.89,3.02,2.01,5.01.41l-.31-.59c.76.06,2.35-.53,2.28.17.07-.12.2-.65.52-.36l.06.47,1.78-.95c1.46.24-.08,1.89,2.01,1.83.76-.24,2.1-1.54,1.79-1.83-.32,0-.82-.24-.88-.71l.69-.3c.02-1.4.45-2.87-1.36-3.71l-1.15.94-.44-.65,1.02-.12c-.63-.59-.95,0-1.33.41-.12-.35-.31-.59-.56-.71l-1.09,1.42c-.19-.54.45-1.12-.37-1.36-.51.66.63,1.18-.27,1.66-.63-.59-.5-1.12-1.14-.53-.12-.35,0-.59.26-.77-.57.47-1.59.3-1.85,1.06-.66-.74-2.03.35-2.07-.97-.17.33-.99,1.11-1.54,1.21.9-1.65-2.09.06-1.94-1.65-.65,1.48-2.67.83-3.95,1.72.07-.12.2-.36.32-.29-.76-.06-1.01-.47-1.51-.71-.01,1.18-1.16,1.52-1.74,2.29-1-1.07.46-1.41.1-2.48.11.95-1.53,1.05-1.16,1.83-.75-.65-.63-.3-1.06-1.25-.02,1.47-.64.29-1.16,1.23-1.07-.66-.35-1.36-1.44-.84-.56-.41.4-1,.4-1l.02.1Zm-26.44,4.18v-.02c.23-.03.42-.06.55-.08-.11.02-.27.05-.55.1Zm-2.24.14c.27.02.61,0,.97-.02.09.29.03.59-.2.59.11-.2-.43-.34-.77-.56h0Zm5.06,5.56c-.35.14-.48-.02-.53-.19.17-.02.36-.06.61-.14,0-.03.03-.07.04-.11-.02.16-.05.32-.12.43h0Z"/><path class="cls-3" d="m52.7,314.1c-.97-.61-1.73-1.33-2.33-2.11-.73.13-1.45.19-2.14.08l.37.13c-.32,1.58-1.49-.82-2.53-.1.25-.11.35-.87.28-.7-1.38-.29-2.84.32-4.95.77l.27-.4c-.81-.39-2.14-.27-3.02-.47-.27.4-.78.32-.49.92-2.65-2.4-5.23,1.13-7.58-.9.29,0,.7-.33.47-.34l-2.07.31c.14.7.26.43.67.98-.27.4-.86.7-1.37.68.94-.43.03-1.11-.36-1.51.06.21-.08.44-.06.66-1.03-1.27-.22,1.39-1.66.51l.09-.36c-.55.17-1.08.63-1.66.51-.22-.81.6-.35.66-1.01-.83.02-1.69,1.46-2.42.64.36-.21.87-.2,1.23-.41-.79-.97-.89-.73-1.49-.9l-1.33-.45.35.27c-1.11,2.06-2.13.31-3.58,1.63,1.41-1.25.25-.74.39-1.65-.35-.26-.88-.56-.72-.81-.69.71-1.08-.61-2.06.43-.03-.29-.71-.05-.53-.78-.87.2.18.52.1.88-1.36.96-3.07-1.33-5.03-.04-1.67.5-2.01,1.47-3.56,1.9-.5-.49.46-1.05.46-1.05-.81-.46-1.44-.41-2.24-.11.17-.25.01-.47-.21-.81-.63.05-.46,1.05-1.28.58.16-.32.36-.83.68-1.15-.75.24-1.51.75-2.28.99-.18-.52.5-.75.78-1.07-.87.19-2.25.37-2.55,1.16l.4.23c-.09-.19.06-.65.25-.76.77-.6,1.05.32,1.08.62l-.55.16c.49,1.74,2.21-.19,3.3-.04l-.51,1.23,1.17-.99c.23.33.36,1.04-.19,1.2.76.65.72-.41,1.37.3.07.11.03.17-.04.21l.79-.34c-.16.26.09.89-.37.69,1.36.78,2.27-.84,2.75.12l-.12.07c1.94-.34.22-.91,1.7-1.92l.88,2.3.22-.91c.2.04.59.13.5.49.76-.6-.11-.4.34-.98.92.88,2.64-.29,2.8,1.17.37-.68-.89-.57.14-1.02.23,1.58,1.19-.23,2.03.52-.3.8-1.11.34-.26,1.1.57-1.35,1.69.36,2.43.12.07-1.09,1.61-.4,2.86-.72-.09.36,2.3.68,3.44,1.11l-.04.18c.26-1.09,1.43-.85,2.3-1.05-.05.66-.22.91-.69,1.19l.81.02c.2-.35.46-.52.99-.63l-.23.82c1.08-.01,2.2-.89,3.57-.3.1-.77-1.04-2.17.44-2.64.04.42.08,1.13-.31,1.29.13-.05.46-.33.71-.15l-.61.68c.62.32.35-.57.85-.5-.03.59.36.43.28.9-.13.05-.43-.26-.63-.03.57.12,1.25.49,1.46.94-.04-.34.02-.8.44-.86,1.08-.02.35.72.97,1.04.27-.4.95.04.99-.85.32.01.36.43.48.67.57-.38,2.61-.05,2.01-1l-.14-.07s.06-.02.09-.04c1.85-.83,3.79.6,5.61.27v.3c1.08-.31,2.41-.14,3.19-.76.32,0,.74.56.6.91.83-.2.93-.53,2.12-.02-.84.5.28.47-.86.36,1.07.28,1.3.76,2.48-.03-.41.75.79.97,1.31.75l-.74-.56c.58-.1,1.08-.02,1.59.05l-.3.99c.92.53,1.78.25,2.59-.09-1.74-.77-3.43-1.63-5.05-2.65Z"/></g></svg>