<?xml version="1.0" encoding="UTF-8"?><svg id="Layer_2" xmlns="http://www.w3.org/2000/svg" viewBox="0 0 903.46 341.55"><defs><style>.cls-1{fill:#fff;}.cls-2{fill:#4eb6ce;}</style></defs><g id="shapes"><path class="cls-1" d="m1.21,194.44c9.36,40.21,88.7,92.99,103.01,85.08,10.83,19.62,25.77,4.39,54.85,23.24,29.08,18.85,50.62,66.3,99.4,17.25,48.79-49.05,114.09-188.67,75.19-259.12C294.77-9.56,193.19,22.1,115.27,39.53,37.35,56.95-8.15,154.23,1.21,194.44Z"/><path class="cls-2" d="m813.1,81.68c.01-2.69-.79-1.27-1.25-1.83-.23-3.21.59-1.49,1-2.58-.22-2-.96-3.54-.93-5.04.13-.11.18-.41.35-.07-.65-2.12-.04-6.29-.85-8.76.07-.18.14-.27.2-.33-.4.4-.81.46-1.1.38-.01-1.21-.51-2.24.02-2.69-.02.74.2.8.36,1.14l-.23-1.27c.75-1.14.26,1.72.83,1.72-.25-2.47-.88-5.34-.67-7.23.74-.4.25,4.41.91,1.9l-.28,2.92c1.16-2.24-.08,1.77,1.17-.27.21-3.85-.38-4.3-.17-8.14-.41-.86-.61.29-1.02-.58-.75-5.45,1.85-4.3.86-8.31-.49-1.03-1.43-1.44-.94-4.29l.83.97c.08-3.73-1.2-2.13-.65-6.03.33.69.28,2.92.38,2.37.65-2.52-.48-1.79-.48-3.73l.74-.41c-.12-3.96-.67-8.33-.8-12.72.22.25.45.99.67-.04-.02-.4-.04-.8-.07-1.22l-.02-.3c0-.11,0-.09-.01-.14l-.02-.2c-.02-.27-.03-.55-.02-.82,0-.54.07-1.01.16-1.26.13-.38.32-.28.5.24l-.32-1.64c-.12-.66-.17-1.01-.23-1.41.07.19.35,1.52.41,1.98.18.72.1.27-.04-.43-.13-.72-.36-1.79-.38-2.15.08.12.2.64.3,1.16.09.53.17,1.08.2,1.39-.01-.57.15-.78.47-.42.53.63,1.49,2.69,1.56,3.88-.09-.07-.19-.12-.28-.17.04.16.08.28.15.38.03.05.07.09.1.14.02,0,.04.06.09.12l.11.17c.29.42.59.75.89,1.07.59.64,1.12,1.28,1.4,2.68l-.31-.45c2.33,6.11,5.67,12.54,6.72,17.51,1.22.52,2.12,6.12,3.46,6.03.84,3.69.22,2.79,1.83,7.81.48,1.32,1.54,1.63,2.32,3.19l-.6.29,1.54,1.92-.27,1.46.77,1.45c-.21-.61-.24-1.39-.02-1.37,1.24,2.24,1.9,5.92,1.6,6.11l2.78,5.37c-.3-.02-.76-.93-1.22-1.6,1.83,2.73-.43.8,1.24,3.3,0-.42.45.05.6.06.17,1.51,1.41,4.61,2.48,6.84l-.6-.27c1.54,4.19,3.66,8.67,5.48,13.33-.46-1.75.44-1.66,1.05-.32l-.44.8c.75.72-.3-1.53.9.09.6,1.77-.3,1.46-.9.54l1.05,2.03c-.15.2-.45-.25-.75-.29.75.71.75,3.91,1.96,4.9l-.15.19c1.79,4.67,2.83,6.71,4.32,10.5.6-.14,1.04,1.4,1.93,2.36.88,2.87,1.61,6.15,2.91,9.51,1.17,2.27.75.51,1.49,1.45-.06.04-.09.14-.09.26-.02.11.02.33,0,.37-.03.16-.03.32-.04.43-.02.25-.09.3-.4.05.24.52.41.89.67,1.4.16.3.33.62.53,1.01.12.24.26.49.41.77l.06.12h-.12c-.06-.01-.12-.03-.19-.04.57.65,1.07,1.1,1.26,1.45-.15-.04-.53-.36-.86-.71-.34-.35-.64-.72-.79-.98v-.06c-.22.1-.97-.39-1.59-.92-.32-.27-.61-.56-.85-.82l-.17-.19s-.12-.11-.2-.17l-.25-.21c-.33-.28-.65-.56-.98-.83-2.61-2.18-5.05-4.31-7.39-5.24l.26.11c-1.5-.8-3-1.61-4.49-2.44-1.84-1.44,1.38.48.18-.81-4.99-2.42-6.9-5.19-10.89-7.36-.9-1.71-3.36-3.56-6.01-5.44-2.62-1.92-5.41-3.86-6.91-5.74l-.03.47c-1.18-.46-1.01-1.09-1.65-1.73-.09.31.81,1.1.09.79-8.34-6.08-16.05-13.94-23.66-21.23-2.79-2.66-2.98.02-5.96-3.93l1.5.41c-6.33-4.63-11.63-10.86-17.56-15.71.44.2.6.06,1.13.58-.2-.38-.56-.82-1-1.28-.11-.12-.22-.22-.34-.35l-.18-.17c-.07-.07-.04-.04-.07-.07-.06-.04-.13-.09-.21-.12-.3-.14-.85-.37-1.15-.37-.13-.16,0-.17.17-.17.17,0,.38.01.49-.03.07-.07-.05-.14-.28-.27-.23-.12-.57-.3-.81-.47.05-.08.25-.11.69.03.2.07.17.15.18.19-.11-.12.29-.14.54-.2.24-.06.42-.14-.08-.39.71.07,1.07-.04,1.64-.17,1.29-.2,2.5-.38,3.66-.33,1.41-.83,4.92-.22,5.3-1.21-.1,1,5.09.26,6.86-.39-.57.36,1.6.14.93.62,2.06-.22,3.94-.59,3.52-1.06,3.91.78,7.55-1.71,9.83-.41,6.08-1.12,11.73-1.99,17.23-2.7-.12.99-6.09.63-5.76,1.64,5.2-.87,8.15-1.98,13.36-2.17,1.36.02-.73.48-1.17.69,5.2-.85,10.12-.74,14.74-1.63,0,.09-.5.23-.97.34.91-.1,2.15-.02,2.01-.46l-.88.19c-1.52-.54,3.54-1.62,3.69-1.97-1.46,1.39,4.63-.02,2.27,1.77.6-.13,1.34-.4,1.18-.68.91.02,1.2.17.32.58,3.28-.48,2.07-.87,5.05-1.06,0,.22-.59.34-.88.61,1.48-.52,2.97-1.05,5.5-1.04-.15.14.16.29-.59.34,4.33-.35,7.3-1.61,12.09-1.49-1.34,1.02,1.64.21,1.93,1.01l2.54-.4-1.05-.33c2.24-.12,4.18-.82,6.12-.67l-1.65.43,4.19-.39-2.39-.17c2.24-.54-.3-1.01,2.7-.95-.6.12,2.24-.12,3.43.3h0c1.09-.31,2.22-.64,3.88-.53.44.24-.3.91-.01,1.07,1.06-.73,5.23-.46,6.59-1.24-.46.19-.46.61-.3.69l.89-.59c1.04.13,1.2.2,1.05.55,3.12-.04-1.04-.98,2.69-.71-.29.06-.14.13-.75.25.96.01,1.89-.02,2.81-.09l-.46-2.23c-2.57,1.02-4.81,2.4-7.17,3.5-1.31-.22,2.59-1.64,1.23-1.68-4.5,2.51-8.39,6.34-12.22,9.22l.75-.49c.2,1.3-3.14,1.83-4.62,3.86.39-.46.17-1,.13-.8-2.62,2.03-4.83,4.69-8.23,8.3l.25-.64c-1.6,1.11-3.85,3.31-5.47,4.62-.25.64-1.17,1.4-.34,1.23-5.87,3.1-8.39,8.96-13.52,11.81.5-.46,1.02-1.29.62-.93l-3.37,3.5c.62.11.67-.21,1.69-.62-.25.64-1.09,1.74-1.97,2.55,1.37-1.73-.57-.58-1.44-.14.22,0,.1.35.27.41-2.47,1.08.38,1.03-2.56,2.95l-.04-.32c-.86.98-1.49,2.05-2.56,2.95-.82-.03.82-1.14.56-1.55-1.41,1.37-2.07,3.45-3.76,4.24.5-.69,1.37-1.51,1.87-2.19-1.88.82-1.92,1.11-3.04,2.01l.12-.09-2.63,2.05.75-.45c-.75,2.79-3.46,3.62-5.17,6.62,1.69-2.89.01-.76-.26-1.4-.74.45-1.81,1.18-1.67.8-.77,1.46-2.19,1.49-3.25,3.57-.22-.09-1.22,1.14-1.34.51-1.36,1.52.6-.07.66.25-1.78,2.68-5.95,4.43-8.52,8.26-2.52,2.98-2.55,3.99-4.91,6.74-1.12.6.18-1.24.18-1.24-1.63,1.14-2.66,2.2-3.83,3.65.14-.39-.25-.24-.82-.02-1.03,1.07-.18,1.24-1.8,2.38.08-.4.12-.98.48-1.64-1.12,1.35-2.09,2.84-3.27,4.23-.6.07.4-1.16.69-1.78-1.35,1.53-3.56,3.91-3.61,4.76l1.09-.76c-.52.54-.62-.09-.3-.55.93-1.54,1.95-1.61,2.17-1.52l-.83.99c1.82-.03,3.59-3.74,5.51-5.49l-.15,1.4,1.4-2.39c.57-.22,1.2-.13.37.85,1.65-.97.96-1.38,2.46-2.12.18-.07.15.02.06.16l1.12-1.45c-.12.38.66.25-.24.93,2.72-1.88,3.33-4.12,4.7-4.48l-.16.23c3.07-3.35-.15-.78,1.78-3.69l2.78-.39-.14-.79c.36-.3,1.06-.9,1.12-.59.94-1.53-.41,0,.02-1.01,2.04-1.11,4.31-4.47,5.4-4.05.24-.92-1.83,1.19-.33-.71,1.28.35,1.89-2.05,3.73-3.08-.06.86-1.68,1.97.17.94.22-1.57,3.06-2.59,4.19-3.91-.48-.63,2.52-2.82,4.46-5,.05.32,4.28-3.43,6.46-5.06l.03.15c-.16-.94,1.98-2.73,3.35-4.24.27.41.13.79-.53,1.69l1.4-1.3c.15-.49.5-1,1.34-1.91l.06.76c1.83-1.76,3.27-3.99,5.94-5.92-.25-.54-2.97.63-.67-1.99.3.13.74.43.16,1.13.19-.23.61-.9,1.13-1.22l-.67,1.31c1.25-.85.28-.84,1.19-1.61.28.33.86-.38.96,0-.2.24-.88.57-1.1,1.01,1.04-.85,2.41-1.77,3.02-1.9-.25-.1-.39-.43.29-1.13,1.85-1.74.99-.21,2.23-1.06.25-.64,1.65-1.5,1.25-2,.55-.5.86-.38,1.18-.44.77-1.1,4.47-4.21,2.91-3.71l-.28.2c.04-.05.09-.11.14-.17,2.76-3.37,6.84-5.79,9.85-8.82l.14.17c1.74-1.87,4.18-3.79,5.33-5.26.59-.48,1.65-.77,1.54-.38.71-.65,1.09-1.05,1.59-1.45.49-.41,1.12-.82,2.38-1.46-1.38,1.4.73-.11-1.47,1.35,2.16-1.27,2.78-1.3,4.76-3.17-.25.47.24.38.9.09.67-.27,1.52-.76,2-1.09-.57.13-1.13.31-1.7.47,1.11-.72,2.17-1.19,3.24-1.65-.09.3-.17.61-.25.92.73-.21,1.43-.44,2.07-.73.65-.26,1.28-.54,1.87-.85l-.91-4.49c-3.23.46-6.04,1.43-8.85.54-1.35.57,2.84.22,1.64.87-2.39.01-4.94-.88-5.68-.85-3.29-.22-3,1.2-6.44,1.12.45.23.9.9-1.64,1.28-2.39.04-3-.91-1.5-1.21.57-.05.85.01.83.1.77-.14,1.78-.3.81-.53l-.3.27c-1.2-.2-4.49.01-3.74-.45-1.79.35-.75.46.59.52-3.09-.2-4.79.27-7.96.21.51.11.99.38.49.41-4.65-.04-2.01.61-5.13.92-1.8-.27.58-.98-2.56-.44-1.94-.14-.45-.66.3-.91-2.84.68-5.39.02-7.05.05l1.5-.31c-.9.19-1.64.23-2.39.28l.9.46c-.89-.03-1.65.02-1.65-.2-.89.4.76.8-1.02,1.39-1.2-.18-3.59.53-4.04-.12,3.74-.03-.46-.66,2.69-.99-.6.12-1.35.17-2.25.14-.14-.07.12-.15.35-.21-3.61-.35-1.59.89-5.28,1.15.44-.42-.91-.67-1.51-.54,1.49-.1.76.59-.58.98-2.39-.13-2.56.42-3.8.48l1.43.03c-.45.42-1.64.46-3.28.72-.17-.29,1.49-.33.88-.41-1.78.82-4.2-.38-6.71.28-1.2-.16-.17-.71-1.22-.8-2.82.74-3.15-.27-6.12.39.91.45,1.05.3-1.02.99l4.91-.77-3.11,1.01c1.49-.12,3.12-.59,4.02-.57-1.48.54-1.33.41-.58.77-2.11-.6-4.01.78-6.41.47l-.04-1.28c-3.6-.26-6.25,1.2-10.89,1.3l1.5.09c-.57.56-2.84.33-4.31.67.1-.44-.85-.51-1.51-.72.11.31-3.38.3-3.71,1.19l-2.11-.36c-3.74.12-4.12,1.63-7.7,1.84,1.03-.57-.62-.71,1.73-1.28-1.2.12-2.28.14-2.26.44-.73-.2-3.25.9-4.39.61-.49.24-.6.7-1.94.81-.15-.07-.01-.21-.01-.21.01.21-2.07.51-.85.85-1.91-.47-4.47-.18-6.97.14-1.25.16-2.49.33-3.62.41-.57.04-1.1.05-1.6.04-.25,0-.49-.03-.73-.06-.26-.04-.51-.07-.74-.11-3.59.56-7.54,1.14-10.54,1.52-.07-.12-.43-.17.26-.2-.51.02-.93.05-1.23.08,1.09,1.11,2.08,1.67,3.02,2.24.47.29.93.58,1.4.95.47.38.93.84,1.5,1.55.38.87-.13.5-.73-.05-.59-.54-1.2-1.16-.83-.61-.78.22.57,1.5,2.1,2.88.65.58,1.35,1.21,2.05,1.83.54.51,1.01,1.05,1.31,1.63l-.49-.37c1.04,1.68,3.7,2.92,5.91,5.14,0,0-.2-.01-.16.14,2.06.95,5.14,3.6,7.5,5.48-1.07-.23-1.2-.72-1.17.08,1.04.86.33-.93,2.41.79.43.82,1.69,2.33,1.47,2.95l-1.89-1.71c.43,1.45,2.43,2.22,3.35,3.21l-.35.14c2.99,2.52,3.57,1.95,6.67,4.77l-.15-.48c2.28.88,1.13,1.62,3.26,2.65l-.04,1.1c1.26.85,4.56,2.83,6.72,4.46-1.58-.51-4.21-2.31-5.94-3.32,1.13.99,3.92,3.26,4.78,3.45-.52-.33-1.23-.67-1.6-1.15,1.85.67,3.88,2.01,6.18,3.91-1.48.94,5.72,5.29,6.62,7.63,1.13.71,2.19,1.49,3.23,2.32,1.05.82,2.07,1.68,3.11,2.57,1.04.9,2.09,1.81,3.18,2.75,1.11.92,2.27,1.85,3.51,2.76-.96-2.35,1.46,1.06,1.96-.22,1.19.8,1.61,1.15,1.67,1.29l3.02,3.22c.6.93-1.27-.58-1.34-.26,2.47,1.95.72,1.24,2.19,2.76-.06-.64,1.28.12,2.63,1.3-.57-.66-1.13-1.31-1.68-1.98,3.96,2.02,2.43,3.12,6.43,5.15l-1.38-.48c1.97,1.15,6.87,4.83,9.3,5.24.25.35.48.95-.41.46,1.1.79,2.32,1.56,3.57,2.3l.96.56,1.59.98c1.02.61,2.04,1.22,3.05,1.82,1.97,1.17,3.76,2.23,5.46,3.31.85.54,1.69,1.1,2.53,1.69.43.31.86.61,1.27.91.22.17.43.33.65.48l.33.25.08.07v-.04l-.03-.12c.41.63.29.6.33.77l.22.12s.08.05.09.04l-.09-.19c-.12-.25-.24-.51-.36-.75-.24-.49-.48-.98-.73-1.48-.46-.96-.81-1.78-.89-2.47.27.33.8,1.24.55.51-.26-.54-.9-1.87-1.51-3.21-.61-1.35-1.18-2.71-1.43-3.68l1.17,2.13c-.64-2.07-1.39-4.07-2.12-5.85-.36-.9-.73-1.74-1.09-2.53-.23-.45-.47-.88-.71-1.3-.96-1.69-1.95-3.26-2.83-5.29.9-.33-.28-4.32-.87-6.32l.15.02c-2.07-5.79-4.46-9.48-6.87-14.64-.3-3.67-3.93-11.31-5.49-16.8.16.87-.75.14-1.21-.76-.31-1.31-1.98-3.18-1.08-3.31l.16.45c.43-1.25-.8-3.71-1.58-5.7l-1.2.1c-.53-5.82-6.07-13.35-5.84-16.73-.78-1.14-1.41-2.69-2.18-3.82l.6-.17c-1.29-3.52-1.93-5.27-3.84-9.48l.77.7c-.97-2.42-2.91-2.35-3.88-4.56l.57-1.02c-1.78-4.19-2.83-8.74-5.36-12.55.15.01.45.04.78.69-.82-1.98-2.69-7.86-3.54-6.65.09-.04.13-.15.13-.3,0-.09,0-.14-.04-.27-.04-.15-.1-.32-.17-.5-.27-.73-.73-1.71-1.25-2.74-1.04-2.08-2.26-4.2-3.02-5.47.12-.22.26-.41.4-.59-1.15-1.19-1.35-.99-2.12-2.31-.17-.07-.38-.22-.67-.5-.28-.54-.26-1.27.11-.56-.46-.85-.64-.72-.83-.75-.2,0-.42-.19-.98-1.1.13.07.26.09.4.08-.94-1.04-.86-.69-1.36-1.31l-.03-.04s0,.03,0,.04v.11c-.03.08-.04.16-.05.24-.03.16-.06.33-.09.51-.06.35-.13.69-.22.97-.17.56-.43.75-.64.44.07.32.11.84.12,1.42.01.57,0,1.21-.17,1.51-.22-.34-.26-.94-.26-1.21-.13.17-.24.35-.33.56-.04,2.21.15,4.36.28,6.08.13,1.77.2,3.11-.06,4.7-.2,0-.3.24-.36.57,0-4.78.04-8.54.08-8.1-.28-.51-.44.22-.63.59-.19.33-.41.39-.8-2.11.22,2.05.51,4.82.8,7.7.06.61.12,1.23.17,1.84.04.53.08,1.06.12,1.58.06.7.07,1.38,0,1.99-.05.12-.11.24-.2.33l-.07-.25c-.06.56,0,1.08.09,1.56-.09.78-.16,1.28-.17,2.03-.46.29-.25,2.89-.27,4.15.61-.11.51,1.54,1.02,0-.04.2-.07-.24-.1-1.07-.02-.19-.03-.41-.07-.54.01.02.04.05.05.09-.02-.82-.03-1.9-.04-3.13.31.99.57,2.03.24,3.42.39.64.8,1.35.99,1.75-.85,1.72-1.3,5.04-1.83,5.5.35,3.83.24,9.04,1.39,11.45.15,1.09-.33,1.26-.51,1.66-.11-.63-.1-1.38-.27-1.72.3,2.18.12,6.47.93,6.98-.36,2.75-.74-1.54-.6,2.24l-.25-.51c-1.27,7.44,2.07,12.08.43,20.33.1-.57.15-.85.28-.98-.71,9.4.71,19.36-.43,28.63-.23,2.63.28,2.92.67,4.53l-.65.57.76,2.75c.56,3.9-1.6,6.76-.54,11.69l.44-.64c-.08,1.77.27,5.61-.24,5.32.08.18.46.58.23,1.27l-.34.06.6,4.35c-.25,3.38-1.36-.53-1.42,4.4.14,1.83,1.01,5.22,1.24,4.53.02-.74.21-1.89.56-1.95l.18,1.68c1.01.3,2.05,1.59,2.75-2.52l-.62-2.87.49-.93.04,2.41c.46-1.37.05-2.24-.23-3.21.26-.23.44-.64.54-1.2l-.97-2.81c.4-.34.79,1.26,1.01-.63-.45-1.32-.88,1.27-1.18-.92.46-1.38.83-.97.43-2.58.26-.22.43.12.54.75-.31-1.43-.14-3.79-.67-4.53.57-1.43-.15-4.83.81-4.69-.23-.45-.75-2.53-.8-3.83,1.15,2.4.06-4.93,1.29-4.29-1.04-1.78-.47-6.42-1.04-9.57.08.17.25.52.2.8.08-1.77.39-2.29.59-3.43-.86-.22-1.05-2.99-1.58-4.48.82-2.18,1,1.32,1.79.64-.69.11-.7-3.78-1.27-3.04.51-1.66.25-1.43.95-2.29-1.07-.29-.18-1.55-.84-2.92.52-2.41,1-.62.67-3.26.33-1.26.7,1.09.7,1.09l-.04.07Zm-1.94-62.84h.02c.01.54.03,1.01.04,1.29,0-.27-.02-.64-.05-1.29Zm-.01-3.59c-.02.33-.03.76-.02,1.23-.21.03-.43-.17-.42-.53.14.25.26-.48.44-.7Zm-4.22,9.48c-.09-.84.03-1.11.16-1.23.02.4.04.85.07,1.46.02.02.05.07.07.1-.12-.08-.22-.17-.3-.33Z"/><path class="cls-2" d="m639.8,150.29c.1-1.67-.66-.82-1.05-1.2-.08-2.01.59-.9,1-1.56-.11-1.25-.72-2.25-.63-3.18.12-.06.18-.24.31-.02-.47-1.36.27-3.91-.31-5.51.07-.11.14-.16.2-.19-.38.22-.76.23-1.01.15.06-.75-.32-1.43.18-1.68-.06.46.13.52.25.75l-.13-.81c.74-.65.13,1.09.63,1.14-.07-1.55-.47-3.39-.16-4.55.68-.19-.05,2.77.69,1.25l-.42,1.79c1.17-1.3-.18,1.1,1.06-.08.42-2.36-.09-2.7.38-5.05-.31-.57-.56.12-.87-.45-.28-3.46,1.97-2.48,1.41-5.05-.35-.69-1.16-1.05-.48-2.76l.66.69c.4-2.29-.88-1.45-.03-3.79.23.47-.02,1.84.12,1.51.82-1.48-.26-1.16-.08-2.36l.7-.15c.12-1.23.21-2.53.27-3.87.07-1.34.14-2.71.35-4.07.17.18.29.68.61.08.22-2.82,1.07-5.85,1.93-8.59l-4.96-.19c0,.67.02,1.31.03,1.93l.73,1.21c.03.3-.19.58-.34.27-.05,1.32.37.02.67.63.13.73-.21,1.01-.44.56.77,2.23,1.85,6.4,1.54,8.88l-.23-.45c0,1.9,1.43,1.98,1.12,3.79l-.14-.32c.26,4.11,1.35,8.55.88,11.75.89.5.14,4.07,1.32,4.21-.27,2.39-.56,1.75-.53,5.07.06.88.88,1.22,1.13,2.29l-.59.09.81,1.4-.62.86.28,1c-.01-.41.16-.89.34-.85.47,1.56.07,3.91-.23,3.99l.98,3.7c-.25-.06-.41-.68-.62-1.15.86,1.93-.59.43.2,2.21.1-.26.37.09.5.12-.25.96.01,3.04.35,4.56l-.45-.25c.24,2.79.93,5.84,1.32,8.97.05-1.14.8-.97.98-.06l-.59.44c.46.55.12-.99.75.17.07,1.17-.62.87-.91.22l.4,1.4c-.17.1-.32-.22-.57-.27.46.54-.33,2.52.46,3.28l-.18.1c.39,3.12.78,4.51,1.13,7.05.55-.01.55,1,1.09,1.71.14,2.57-.32,2.31-.19,2.99.19.39.33.63.48.83.15.2.3.34.51.78-.26-.33-.38-.33-.47-.35-.12-.02-.2-.09-.47-.68.08.39.14.67.25,1.08.15.56.31,1.17.55,2.11.03.09.02.13,0,.16.37.91.64,1.47.83,2.05-.04.01-.23-.37-.43-.83-.2-.46-.41-1.01-.55-1.43l-.03-.13c.02.31-.22,0-.48-.5-.27-.5-.58-1.17-.8-1.74-.3-.76-.45-1.34-.54-1.62-.05-.14-.09-.22-.17-.27-.04-.02-.09-.04-.15-.06-.07-.03-.1.03-.33-.17l.14.12c-.77-.8-1.56-1.58-2.34-2.37-.8-1.27.83.53.44-.54-1.37-1.21-2.15-2.35-2.88-3.44-.73-1.09-1.37-2.15-2.47-3.14-.15-2.62-4.91-6.28-6.07-9.17l-.17.33c-.76-.41-.44-.85-.74-1.35-.16.22.29.84-.17.58-4.49-4.93-8.35-10.87-12.69-16.16-1.61-1.92-2.32.07-3.82-2.77l1.09.25c-1.99-1.62-3.76-3.5-5.51-5.37l-1.15-1.21c-.09-.1-.19-.19-.3-.28-.23-.19-.52-.39-1.12-.76.36.17.75.28.81.35.18.02.27.03.27,0,0-.01-.02-.03-.07-.06-.02-.02-.01-.03-.04-.05-.1-.09-.27-.29-.55-.46.29.04.59.32.94.5.25.13.12-.01.14-.14,0-.12.13-.22.26,0,.04.08,0,.14,0,.18,0-.06.03-.08.07-.09.02,0,.05-.01.08-.01.02,0,.01,0,.06,0,.08,0,.17,0,.25-.01.64-.03,1.11-.1.77-.35,1.89.23,3.61-.28,5.12.03.98-.58,3.23.26,3.54-.56-.13.84,3.31.66,4.51.27-.4.26,1.04.26.57.61,1.36-.01,2.61-.17,2.38-.6,2.51,1.02,5.05-.79,6.45.51,4.05-.42,7.8-.68,11.44-.81-.15.84-4.02.03-3.89.9,3.46-.3,5.46-.98,8.89-.7.89.13-.51.35-.81.49,3.46-.27,6.66.24,9.74-.13-.01.08-.34.15-.66.2.6,0,1.4.17,1.35-.22l-.59.09c-.95-.58,2.44-1.08,2.56-1.37-1.07,1.06,3.02.37,1.34,1.7.4-.06.91-.22.83-.48.58.1.77.25.16.52,2.17-.13,1.42-.56,3.39-.48-.01.19-.42.24-.62.45,1.01-.32,2.02-.65,3.67-.43-.1.1.09.26-.41.24,2.85.07,4.9-.76,8.01-.26-.96.76,1.05.32,1.18,1.02l1.69-.12-.66-.37c1.47.08,2.8-.35,4.05-.06l-1.11.23h2.77s-1.54-.34-1.54-.34c1.51-.28-.11-.89,1.84-.59-.4.05,1.47.08,2.21.54.36-.09.76-.18,1.15-.22.35-.04.77-.04,1.18.07.05.11-.11.3-.26.47-.15.17-.28.34-.27.42.34-.27.95-.27,1.58-.28.64,0,1.3-.02,2.27-.27-.53.11-1.2.44-1.29.51.42-.13.87-.26,1.35-.39.18.16.04.23-.7.48.48.07.97-.12,1.37-.28.38-.16.74-.29,1.13-.07-.25.02-.4.09-.87.12.38.17,2.19-.02,1.08.45-.47.33-1.07.74-2.04,1.12-1.91.24.65-.54-1.22-.2-.24.17-.42.34-.64.55-.29.25-.62.54-1,.85-.38.31-.84.65-1.33.97l-.38.24-.44.25c-.35.2-.69.38-1.04.55l.55-.22c.14,1.06-2.28.71-3.4,1.87.3-.25.15-.72.12-.57-1.95.89-3.66,2.35-6.3,4.2l.21-.42c-1.21.43-2.94,1.53-4.17,2.11-.21.42-.91.77-.29.85-4.41.86-6.45,4.67-10.29,5.54.38-.23.79-.73.48-.55l-2.58,1.82c.46.24.5,0,1.26-.05-.2.42-.85,1.05-1.52,1.45,1.05-.97-.4-.58-1.05-.47.16.06.07.29.18.38-1.84.2.25.87-1.97,1.59l-.03-.25c-.65.53-1.15,1.19-1.95,1.61-.6-.22.63-.66.45-1.04-1.07.69-1.61,2.1-2.88,2.29.39-.4,1.05-.81,1.43-1.2-1.4.16-1.45.37-2.29.78l.08-.04-1.99.91.56-.15c-.61,1.93-2.62,1.9-3.96,3.76,1.3-1.78.03-.57-.16-1.13-.55.16-1.36.46-1.25.2-.6.92-1.64.61-2.47,1.92-.16-.12-.93.56-1,.06-1.03.82.45.09.49.35-1.35,1.61-4.47,1.94-6.43,4.24-1.91,1.66-1.94,2.42-3.72,3.94-.83.19.15-.9.15-.9-1.22.48-1.99,1.05-2.87,1.88.11-.27-.18-.24-.6-.21-.78.57-.14.9-1.36,1.38.06-.29.1-.71.36-1.13-.85.76-1.58,1.66-2.45,2.45-.45-.09.3-.79.52-1.18-1.02.85-2.67,2.13-2.71,2.77l.81-.32c-.38.29-.46-.22-.23-.48.7-.95,1.46-.76,1.63-.65l-.62.56c1.35.4,2.68-2.01,4.13-2.88l-.12,1.02,1.06-1.48c.43-.04.89.18.27.73,1.24-.35.73-.81,1.85-1.03.14,0,.11.05.05.14l.85-.84c-.1.26.49.34-.18.65,2.03-.79,2.51-2.34,3.53-2.29l-.12.14c2.3-1.81-.1-.63,1.36-2.38l2.07.37-.09-.63c.27-.15.79-.43.83-.19.72-.93-.31-.1.03-.76,1.53-.36,3.25-2.36,4.06-1.78.2-.64-1.37.47-.23-.61.94.58,1.42-1.1,2.81-1.43-.06.64-1.28,1.09.11.75.19-1.14,2.3-1.22,3.16-1.95-.34-.59,1.91-1.53,3.39-2.7.03.25,3.23-1.54,4.88-2.24l.02.12c-.09-.75,1.53-1.57,2.58-2.38.18.37.07.63-.44,1.15l1.06-.64c.13-.33.4-.63,1.04-1.11l.02.6c1.4-.87,2.52-2.2,4.53-3-.16-.46-2.19-.27-.43-1.68.21.17.53.51.08.9.15-.12.47-.53.87-.63l-.53.82c.94-.33.23-.56.92-.92.19.32.64-.07.7.24-.15.13-.66.21-.84.48.79-.38,1.82-.73,2.27-.67-.18-.14-.27-.42.25-.78,1.41-.86.73.09,1.66-.23.21-.41,1.26-.72.98-1.2.42-.24.64-.06.88-.03.6-.63,3.42-2.05,2.26-2.07l-.21.07s.07-.06.11-.09c2.13-1.87,5.22-2.61,7.51-4.17l.09.16c1.33-.99,3.16-1.9,3.98-2.82.41-.23,1.36-.36,1.29-.07.66-.44.96-.7,1.37-.97.42-.27.94-.53,2.16-1.02-.99.91.9-.16-1.17.91,2.05-.94,3.13-1.18,4.31-2.41.1.22.77.02,1.59-.33.8-.35,1.71-.85,2.04-1.12l-2.32.87c.93-.58,1.96-1.1,3.06-1.65.44,0,.85.01,1.24.04.87-.37,1.63-.72,2.28-1.05.33-.17.62-.33.9-.48l.39-.22.18-.11s.2-.09.03-.07c-1.53-.03-3.21,0-4.68.04-1.48.04-2.76.07-3.76,0-1.01-.06-1.73-.22-2.32-.57-1.02.15-.38.27.18.39.59.12,1.08.25.07.44-.97-.11-1.71-.39-2.5-.68-.76-.28-1.52-.55-1.94-.58-.86-.14-1.55-.16-2.11-.13-.14,0-.27.02-.39.04-.13.01-.16.04-.24.06-.14.04-.27.09-.4.15-.53.21-1.07.43-2.19.25.27.24.51.84-1.18.96-1.56-.17-1.88-1.03-.87-1.15.38,0,.55.08.53.16.51-.06,1.18-.11.58-.38l-.22.21c-.77-.27-2.93-.36-2.4-.7-1.2.15-.53.34.35.5-2-.43-3.15-.17-5.21-.48.33.14.61.41.29.39-3.03-.41-1.36.35-3.43.35-1.16-.38.46-.79-1.63-.59-1.26-.28-.24-.6.27-.76-1.91.35-3.53-.43-4.6-.55l1.01-.14c-.6.08-1.09.06-1.59.04l.55.46c-.58-.1-1.08-.12-1.06-.3-.62.27.43.75-.78,1.1-.77-.25-2.39.15-2.63-.44,2.45.29-.25-.6,1.84-.61-.4.06-.89.04-1.48-.06-.09-.07.09-.12.25-.15-2.33-.61-1.11.62-3.54.53.32-.32-.54-.65-.94-.58.98.04.45.56-.46.79-1.55-.3-1.71.14-2.52.08l.93.15c-.33.32-1.11.25-2.2.33-.08-.26,1-.15.61-.27-1.22.55-2.71-.67-4.41-.32-.77-.24-.06-.62-.74-.79-1.9.38-2.04-.5-4.03-.19.56.45.66.35-.74.75l3.27-.24-2.11.6c.98.02,2.08-.24,2.67-.15-1.01.34-.9.24-.44.61-1.33-.7-2.68.34-4.22-.15l.07-1.1c-2.34-.54-4.17.5-7.21.17l.98.21c-.42.43-1.88.04-2.86.2.1-.37-.52-.51-.94-.74.05.27-2.23-.05-2.51.68l-1.35-.5c-2.45-.21-2.81,1.04-5.17.9.71-.4-.36-.66,1.22-.94-.79,0-1.5-.08-1.51.18-.46-.23-2.19.5-2.91.15-.33.16-.44.55-1.33.51-.1-.07,0-.18,0-.18,0,.18-1.39.25-.61.65-2.43-1.14-6.78.11-8.91-.84-.86.07-1.81.14-2.73.2-.23.01-.46.03-.69.04-.29.01-.58.03-.86.04-.6.03-1.18.04-1.71.06.07-.11-.1-.18.34-.15-1.65-.14-1.96.12-2.14.38-.1.13-.19.26-.45.33-.27.07-.7.1-1.59.02-1.3-.27-1.08-.36-.61-.4.45-.04,1.07-.04.37-.14-1.17-.58-2.34-.52-3.5-.4-.14.02-.29.03-.44.05l-.22.03s-.1,0-.09.02l.12.1c.31.27.6.54.85.79.51.51.89.95.99,1.32l-.57-.47c.28.58,1.4,1.55,2.54,2.49,1.16.96,2.34,1.86,3.3,2.93,0,0-.19-.04-.16.11.27.17.42.22.62.33.2.11.39.22.59.35.4.26.83.57,1.26.9.85.67,1.69,1.43,2.42,2.08-.78-.12-.79-.47-.92.12.65.58.43-.7,1.72.47.18.58.85,1.64.55,2.1l-1.12-1.17c.05,1.04,1.43,1.53,1.92,2.23l-.31.11c1.75,1.77,2.36,1.31,4.09,3.34v-.35c1.54.63.48,1.17,1.87,1.92l-.31.81c.77.61,2.79,2.08,4.02,3.32-1.07-.41-2.63-1.75-3.7-2.49.62.73,2.17,2.41,2.78,2.56-.31-.25-.77-.5-.92-.86,1.24.51,2.45,1.52,3.67,2.98-1.37.62,2.86,4.04,2.81,5.78,2.54,2.29,3.95,5.32,6.38,8.37.1-1.75.71.89,1.54.03.61.68.81.97.79,1.08.36.86.72,1.73,1.06,2.6.1.71-.73-.55-.9-.34,1.1,1.65.08.95.6,2.18.19-.45.91.22,1.45,1.22l-.5-1.58c2.17,1.89.58,2.48,2.73,4.4l-.83-.51c.25.26.57.66.93,1.12.36.47.78,1.01,1.19,1.54.74.99,1.48,1.92,2.13,2.67.65.76,1.2,1.28,1.58,1.41.2.53.5,1.56-.16.73,1,1.56,2.08,3.1,3.1,4.44.37-.11.74-.21,1.09-.27.29-.03.45.02.69.09.44.15.91.49,1.3.74.05-.04.08-.13.13-.18,0,.07-.02.13-.03.19.09-.12.14-.28.2-.45.05-.17.1-.36.26-.42.05.11.05.31.15.22.03-.09.09-.35.16-.66.07-.3.14-.64.32-.71.04.26.07.5.08.72.4-.19.68-.45.79-.91-.34-1.84-.77-3.58-1.17-5.13-.4-1.56-.77-2.94-1.02-4.35.23.07.38-.12.48-.52.05-.2.08-.45.11-.74,0-.15.02-.3.03-.46,0-.07,0-.19.01-.23l.02-.15c.09-.83.08-1.81.07-2.46l.12.03c-.37-3.84-1.52-6.41-2.3-9.92.65-2.3-.54-7.49-.46-11.08-.09.56-.68-.01-.84-.63.07-.85-.88-2.23-.08-2.18l.02.3c.69-.71.27-2.39.13-3.73l-1.05-.1c1.05-3.65-1.68-9.05-.59-11.11-.36-.81-.49-1.85-.85-2.65l.55-.02c-.15-2.35-.23-3.51-.72-6.38l.47.54c-.17-1.62-1.84-1.87-2.06-3.36l.76-.55c-.36-2.83,0-5.77-1.1-8.49.12.03.37.09.46.54-.14-1.33-.09-5.21-1.15-4.6.73-.12-.29-2.93-.81-4.42l.57.17c-.85-1.21-1.05-1.23-1.46-3.01.02-.43.38-.42.32.16.1-1.46-.65-1.05-.58-2.81l.42.6c-.14-1.47-.31-1.33-.81-2.09-.29-.77-.23-2.27.07-2.85l-2.86-.11c-.09.09-.16.14-.24.15.25.25.49,1.12.18,1.95-.21.08-.25-.25-.28-.42-.85,2.37-.12,3.72-.94,5.31-.18,0-.29.1-.37.23.36-1.94.71-3.49.72-3.34-.49-.09-.89,1.46-1.33.09.1,1.32.55,3.62.03,5.1-.06.07-.12.13-.21.17l-.03-.17c-.12.35-.12.67-.1.98-.18.47-.28.77-.36,1.25-.44.12-.52,1.77-.67,2.55.55.02.3,1.03.9.14-.06.12-.04-.16.03-.68,0-.12.02-.26,0-.34.01.02.03.04.04.06.08-.51.17-1.19.29-1.95.18.66.3,1.34-.15,2.16.28.45.57.95.7,1.22-.94.95-1.65,2.97-2.17,3.19-.07,2.44-.61,5.69.23,7.31.04.69-.4.75-.59.99-.05-.4.03-.87-.09-1.1.07,1.4-.38,4.06.3,4.46-.52,1.69-.55-1.04-.7,1.35l-.18-.34c-.84,2.28-.53,4.22-.31,6.21.25,2,.47,4.04-.45,6.58.11-.35.16-.53.29-.59-1.05,5.88-.03,12.18-1.13,18-.22,1.66.23,1.84.58,2.85l-.59.36.7,1.73c.26,1.22-.09,2.29-.39,3.43-.28,1.15-.49,2.38.01,3.93l.38-.41c-.06,1.12.35,3.52-.11,3.35.08.11.43.35.24.79l-.31.04.64,2.72c-.1,2.13-1.25-.27-1.12,2.83.19,1.15,1.09,3.23,1.28,2.78-.01-.46.12-1.2.43-1.25l.22,1.04c.92.14,1.89.88,2.38-1.72l-.66-1.76.4-.6.12,1.5c.36-.88-.04-1.4-.33-1.99.23-.15.37-.42.44-.77l-.94-1.71c.34-.23.74.76.89-.43-.44-.81-.76.82-1.09-.53.38-.88.72-.63.33-1.62.23-.15.38.06.51.45-.33-.88-.21-2.36-.7-2.8.49-.91-.21-3.01.65-2.94-.22-.27-.71-1.56-.75-2.38,1.04,1.49.03-3.07,1.15-2.68-.96-1.1-.38-4-.89-5.97.07.11.22.33.17.5.08-1.1.38-1.42.57-2.13-.76-.15-.89-1.88-1.34-2.83.77-1.33.88.85,1.59.44-.62.05-.55-2.37-1.08-1.92.5-1.02.26-.89.92-1.4-.95-.22-.12-.97-.67-1.85.54-1.48.91-.35.7-2,.34-.77.6.71.6.71l-.02-.03Zm2.84-39.07h.01c-.04.34-.09.62-.12.81.02-.17.05-.4.1-.81Zm.59-3.25c-.09.39-.19.89-.28,1.41-.21.08-.38-.07-.31-.4.09.2.34-.55.59-1h0Zm-4.99,6.31c.01-.53.14-.69.27-.74-.03.25-.06.54-.08.92.02.02.03.06.06.07-.1-.07-.18-.14-.24-.25h0Z"/><path class="cls-2" d="m747.97,165.1c.05.62,1.11.15,1.76.2.4.69-.77.44-1.3.76.35.42,1.4.64,1.4.99-.18.05-.24.12-.47.07.94.37.22,1.43,1.39,1.85-.09.05-.18.09-.26.11.54-.16,1.1-.25,1.5-.28.05.27.76.42.05.61,0-.17-.29-.15-.53-.2l.35.25c-1,.39-.41-.35-1.17-.25.41.52,1.34,1.06,1.11,1.53-1,.22-.47-.96-1.29-.27l.3-.71c-1.53.71.06-.42-1.59.27-.18.91.64.91.46,1.82.59.12.82-.17,1.41-.05,1.17,1.11-2.41,1.31-.95,2.04.7.15,1.99.07,1.4.81l-1.17-.07c0,.86,1.71.27,1.05,1.25-.47-.1-.47-.61-.59-.47-.83.69.7.32.76.76l-1,.23c.28.88,1.14,1.77,1.46,2.75-.31,0-.65-.14-.93.13.67,1.19.23,2.7-.2,3.99l.94.34c0,.11-.37.25-.55.16-.27.52.56-.05.93.13.1.26-.45.42-.74.29.85.73,1.92,2.15,1.11,3.16l-.28-.14c-.26.73,1.89.52,1.17,1.27l-.17-.1c-.17,1.54.85,3.06-.3,4.38,1.29.04-.35,1.55,1.42,1.39-.75.97-1.09.77-1.5,2.05-.03.33,1.16.32,1.4.68l-.91.14,1.04.4-1.05.44.29.34c.03-.16.37-.37.63-.39.5.52-.44,1.5-.9,1.58l.97,1.25c-.37.02-.53-.19-.79-.33,1.04.59-.94.27,0,.82.19-.12.55-.03.74-.04-.5.41-.39,1.17-.08,1.7h-.65c0,1.02.62,2.07.78,3.21.23-.45,1.34-.52,1.49-.2l-.94.28c.63.13.31-.4,1.11-.07-.05.44-1.06.45-1.41.25l.41.47c-.28.07-.45-.02-.83,0,.63.12-.84,1.04.25,1.18l-.28.07c.16,1.14.57,1.6.76,2.52.84-.11.71.28,1.42.45-.16.72-.7,1.57-.5,2.38.5.51.73.06,1.27.24-.75.16-.55.97-1.16.63.28.96.35,1.23,1.16,2.38.29-.18.4-.36.67-.32.16.21-.24.56-.61.59l-.09-.05c1.36,1.21-1.71,3.57.05,4.42l-.09-.05,1.01,1.02c-.05.55-.62-.23-1.03.24,1.47,1.04.13,1.99,1.14,2.87-2.11,1.15.61,2.78-.64,4.08l.52-.15c.56.19-.25.38-.34.61.4-.1.42-.38.74-.25,1.01,2.23.04,4.94-.04,7.42,0,.9,2.81.04,1.74,1.35l-1.03-.15c1.47,1.57.57,3.62,1.87,5.18-.24-.06-.54-.02-.56-.19-.65.49.2,1.36.78,1.26-.02.28-.51.15-.78.37-.35.44,1.07.76.39,1.08-.11.05-.25-.06-.31-.12.38.18.11,1.13.88.76-.28.72.58,1.18.18,1.78.97.18-.25,1.19,1.06,1.07-1.34.19-.88,1.33-.18,1.62-.43-.07-.35.43-.94.37.1.46.43.85,1.1.64-1.44,1.15,1.6,1.5-.36,2.35.97,1.26,1.68,2.46,2.22,3.65-1.34.2-.38-1.36-1.77-1.05.76,1.09,2.03,1.56,1.92,2.79-.13.34-.61-.07-.85-.13.76,1.08.3,2.31,1.22,3.23-.12.02-.28-.07-.4-.16.08.2-.1.52.49.38l-.2-.17c.82-.49,1.99.48,2.46.44-1.8-.03-.24,1.12-2.54.97.14.12.46.23.86.13-.08.22-.3.33-.8.21.47.68,1.06.3,1.17.97-.29.05-.43-.06-.79-.07.63.23,1.27.47,1.13,1.08-.18,0-.4.11-.43-.06.27.96,1.83,1.38,1.48,2.55-1.33-.08-.35.44-1.44.71l.44.51.49-.33c.08.51.96.8.69,1.3l-.53-.29.39.9.31-.61c.66.4,1.38-.32,1.2.41-.14-.11.08.51-.52.89.4.18.82.37.61.79-.33.16-1.23.15-1.45.26.97.07.48,1.13,1.52,1.25-.25-.06-.83.05-.94.1l.79.06c-.19.28-.3.34-.77.39,0,.73,1.35-.49.91.46-.07-.05-.18,0-.32-.12-.15.9.78,1.52.56,2.36-1.06.44-.4-.62-1.28-.18.41,1.07,1.77,2.04,1.72,3.16l.08-.22c1.59-.16-.61.95.23,1.35-.14-.11-.9,0-.72,0-.11.78.68,1.42,1.39,2.44l-.43-.06c-.27.5.02,1.18-.07,1.68.43.06.42.34.97.06-2,1.89,1.76,2.5.12,4.16-.04-.15-.42-.29-.4-.17l.59,1.01c.66-.22.38-.23.86-.56.43.06.81.3.86.57-.55-.4-1.09.22-1.43.51.2-.08.45-.05.65-.11-1.09.81,1.39-.18.73.76l-.36.03c.24.25.77.42.73.76-.76.29-.43-.23-1.08-.12.13.43,1.67.56.96,1.12-.26-.14-.32-.41-.57-.55-.83.62-.59.62-.67.97v-.04l-.25.83.21-.24c2.16.13.6,1.04,2.09,1.51-1.42-.46-.76.03-1.66.16-.21.24-.43.58-.69.55.79.2-.45.7.7.98-.28.08.05.38-.69.45.32.41.48-.21.84-.25,1.12.5-.84,1.89.71,2.62.73.75,1.73.71,2.38,1.42-.4.37-1.09,0-1.09,0-.33.53-.18.84.23,1.19-.27-.03-.46.1-.76.29.14.32,1.09,0,.76.53-.33,0-.87,0-1.22-.09.35.34.96.61,1.3.96-.48.21-.81-.08-1.16-.16.32.41.7,1.08,1.52,1.06l.22-.35c.07.16-.66.23-.83.14-.7-.26.16-.62.44-.7l.24.25c1.62-.65-.51-1.1-.54-1.7h1.27l-1.14-.4c.29-.19.96-.42,1.2-.17.52-.54-.51-.28.09-.78.1-.06.16-.06.21-.03l-.45-.33c.27.03.85-.25.72.04.55-.88-1.16-.98-.29-1.45l.09.05c-.63-.93-.92.09-2.13-.45l2.11-.97-.92.09c.01-.11.03-.33.4-.37-.7-.26-.38.15-1,.04.71-.67-.67-1.31.74-1.72-.72-.04-.43.59-1.01.15,1.51-.47-.39-.57.22-1.17.82-.02.49.5,1.11-.11-1.4,0,.11-.95-.22-1.29-1.07.2-.62-.75-1.1-1.33.37-.03.34-1.34.6-2.03l.18-.02c-1.1.1-1.03-.56-1.34-.97.65-.11.92-.08,1.26.1l-.09-.43c-.37-.03-.58-.13-.76-.38l.83-.06c-.16-.56-1.19-.95-.79-1.79-.76.11-1.98,1-2.64.33.4-.11,1.09-.28,1.3-.11-.07-.06-.39-.17-.24-.34l.75.17c.23-.39-.61-.06-.6-.34.58-.11.38-.28.84-.33.07.06-.19.28.05.34.04-.32.32-.75.73-.96-.33.09-.78.16-.9-.05-.16-.56.66-.33.89-.73-.43-.06-.08-.5-.95-.34-.03-.17.37-.28.59-.39-.44-.22-.38-1.35-1.24-.84l-.05.09s-.02-.03-.05-.04c-1.05-.79.1-2.1-.46-2.99l.29-.06c-.45-.51-.45-1.23-1.15-1.52-.03-.17.45-.5.81-.5-.3-.39-.64-.38-.28-1.1.59.34.42-.24.46.38.14-.62.58-.84-.33-1.29.78.06.86-.61.58-.84l-.46.5c-.17-.28-.15-.56-.14-.84l1.01-.04c.97-1.39-2.43-1.71-.6-2.97-.74-.18-.36.72-1.22.6.03-.56,1.33-1.39,1.3-1.55.4-.84-1.56-.41-1.34-1.25-.33.16-1.25.43-1.69-.08.03-.56,1.34-.94,1.69-.65.05.12-.04.21-.16.22.16.15.35.35.69.06h-.36c.31-.34.13-1.07.74-1-.41-.34-.61-.06-.73.27.38-.78-.19-1.07.02-1.85-.17.15-.56.33-.58.22.24-1.12-.75-.33-1.03-1.01.46-.5,1.3-.1.72-.72.28-.5.91-.27,1.23-.15-.79-.52.22-1.29.28-1.68l.35.29c-.21-.17-.23-.34-.26-.51l-.66.32c.08-.22.06-.39.35-.44-.5-.12-1.14.37-1.84.08.31-.33-.53-.74.38-1-.16.89.92-.27,1.2.41-.14-.12-.16-.28-.08-.51.1-.05.2,0,.26.04.68-.95-1.12-.17-1.25-1.01.54,0,.96-.38.82-.49.05.34-.84.32-1.3.09.31-.61-.41-.52-.41-.81l-.13.35c-.54-.01-.52-.29-.76-.63.4-.11.34.29.5.12-1-.24.78-1.1.05-1.56.31-.33.98-.21,1.18-.48-.8-.52.59-.83-.09-1.4-.67.32-.49.33-1.26-.03l.7,1.02-1.15-.53c.05.34.57.63.49.85-.64-.24-.45-.23-1.01.04.97-.65-.78-.8-.16-1.46l1.75-.3c.63-.94-1.15-1.26-.9-2.37l-.24.39c-.72,0-.21-.62-.55-.91.59-.07.76-.32,1.1-.53-.43.1-.1-.77-1.28-.65l.68-.6c.16-.89-1.83-.66-1.78-1.5.68.13,1.02-.31,1.58.15-.04-.27.02-.53-.38-.46.34-.22-.92-.61-.41-.95-.28-.07-.89,0-.9-.31.11-.05.29-.05.29-.05-.29.05-.48-.4-1.08-.03,1.68-1.15-.53-2.29.9-3.29-.3-.55-.61-1.23-.74-1.75.18,0,.29-.05.25.06.41-.83-1.75-.16-1.29-1.1.87-.59.59.36.9.03,1.9-.45-.44-.96.59-1.72l.14.12c.58-.54-.91-.92-.9-1.65,0,0,.18,0,.29-.05-1.06-.31-1.54-1.17-1.93-1.8.79.08.45.24,1.19-.02-.16-.28-1.21.3-1.53-.27.38-.27.66-.77,1.47-.96l.14.56c1.01-.47-.16-.73-.03-1.07l.47-.04c-.3-.85-1.46-.67-1.54-1.62l-.33.16c-1.24-.32.57-.54-.37-.91l1.14-.35c-.34-.29-1.33-1-1.65-1.57.92.2,1.49.84,2.07,1.19-.05-.34-.28-1.13-.88-1.21.14.12.45.24.29.4-.99-.26-1.53-.73-1.62-1.4,2.28-.26.28-1.84,1.96-2.62-1.03-1.05-.02-2.41-.38-3.77-1.68.78-.12-.4-1.91-.02-.17-.3-.16-.43-.04-.48l.92-1.15c.49-.32.45.24.85.15.02-.73.72-.42,1.13-.96-.63.2-.97-.1-.79-.54l-.74.7c-1.12-.83,1.38-1.09.27-1.93l.62.22c-.42-.46-.29-1.88-1.82-2.15.2-.12.67-.32.84-.12.03-1.25-1.97-2.47-1.22-3.56l.46.02c-.16-.21-.89-.27-.49-.62.19,0,.46.02.47-.09-.17-.1-.87-.48-.66-.82l.54.18c.4-1.28-1.5-1.64-1.96-2.59,1.31-.2,1.58-1.2,1.72-1.7h.19c-.05-1.42-1.44-2.2-2.14-3.4,1.3-1.01.19-2.79.79-4.18-.21.23-1.02.12-1.19-.09.22-.34-1.03-.7.17-.83v.11c1.14-.4.73-.97.69-1.46l-1.58.15c2.1-1.6-1.31-3.18.63-4.17-.44-.25-.49-.63-.92-.87l.84-.1c.09-.87.14-1.31-.21-2.32l.63.13c-.03-.6-2.53-.4-2.66-.93l1.23-.34c-.17-1.02.79-2.22-.49-3.07.19,0,.55-.03.63.13-.03-.49.59-1.99-1.11-1.57,1.12-.17-.04-1.07-.61-1.56l.84-.03c-1.12-.32-1.41-.3-1.8-.91.09-.17.64-.23.46,0,.36-.58-.84-.29-.49-.98l.56.16c0-.54-.29-.46-.94-.67-.38-.29.07-1.04.81-1.22-.47,0-1.12-.22-.95-.56.28-.08.47,0,.56.06.44-.96-1.14-1.19-.41-1.91.27-.05.4-.11.48-.17.07.71.1,1.28.04,1.24.76-.1.82-.69,1.94-.38-.64-.38-1.99-.99-1.71-1.6.07-.04.14-.07.25-.11l.09.05c.06-.14-.03-.24-.17-.33.1-.19.18-.32.17-.49.62-.15.25-.7.25-.99-.83.14-.75-.26-1.39.19.05-.05.11.04.17.23.03.04.05.09.1.11h-.08c.05.18.1.42.15.7-.45-.17-.84-.36-.42-.73-.56-.07-1.13-.16-1.4-.22,1.11-.54,1.65-1.38,2.35-1.58-.58-.81-.58-2-2.22-2.35-.23-.22.41-.34.65-.47.18.12.17.29.41.34-.47-.44-.35-1.44-1.46-1.42.41-.69,1.06.22.77-.61l.35.07c1.54-1.91-3.15-2.38-1.13-4.53-.12.15-.18.22-.36.27.73-2.25-1.49-4.27-.17-6.57.25-.64-.46-.61-1.04-.91l.88-.24-1.11-.5c-.87-.79,2.02-1.8.45-2.74l-.59.22c.07-.42-.51-1.23.19-1.25-.12-.03-.65-.06-.35-.25l.47-.07-.93-.89c.25-.81,1.88-.1,1.84-1.23-.23-.39-1.51-1.02-1.81-.83,0,.17-.24.46-.71.53l-.29-.35c-1.4.09-2.85-.03-3.71,1.02l.93.55-.65.29-.11-.54c-.6.39-.01.52.4.69-.35.09-.59.22-.71.36l1.4.48c-.53.14-1.11-.16-1.36.31.65.23,1.18-.43,1.65.02-.59.39-1.12.36-.54.66-.35.09-.59.04-.76-.08.47.27.29.84,1.04.92-.74.42.33,1.07-.98,1.2.33.06,1.1.45,1.19.74-1.64-.36.04,1.13-1.66,1.19,1.46.23.8,1.39,1.67,2-.12-.03-.35-.08-.29-.15-.07.42-.48.59-.71.88,1.17-.09,1.52.5,2.28.75-1.06.63-1.41-.13-2.47.16.94-.14,1.05.74,1.82.47-.65.46-.3.37-1.24.68,1.47-.12.29.32,1.23.52-.65.64-1.35.31-.83.86-.41.34-1-.13-1-.13v.03Zm4.37,13.95h-.02c-.04-.12-.07-.22-.09-.29.02.06.05.14.1.29h.01Zm.17,1.2c.01-.15,0-.33-.04-.52.28-.08.59-.08.59.05-.2-.04-.33.27-.55.48h0Zm5.46-3.31c.14.17-.01.26-.18.31-.03-.09-.07-.19-.14-.32h-.11c.16,0,.31,0,.43.02h0Z"/><path class="cls-2" d="m717.11,270.83c.45-.44-.59-.95-.97-1.49.28-.76.83.3,1.42.5.1-.54-.39-1.5-.12-1.72.15.11.25.1.36.32-.31-.96.97-1.1.56-2.28.1.04.18.08.25.13-.47-.31-.89-.69-1.17-.98.18-.22-.15-.86.45-.44-.13.11.07.32.18.54l-.03-.43c.94.52-.01.54.55,1.07.15-.65-.02-1.74.49-1.86.8.63-.46.99.6,1.18l-.75.23c1.53.72-.36.23,1.21,1.06.83-.45.3-1.09,1.14-1.54-.27-.54-.65-.53-.92-1.06.15-1.62,2.55,1.04,2.22-.57-.32-.64-1.19-1.6-.23-1.61l.67.96c.68-.55-.85-1.5.34-1.62.21.43-.2.76,0,.76,1.07.2-.18-.75.13-1.08l.8.64c.53-.78.7-2.03,1.28-2.9.18.25.29.6.68.65.53-1.29,2.01-1.9,3.32-2.36l-.29-.96c.09-.07.43.13.47.34.58-.11-.38-.41-.46-.82.15-.24.62.1.68.41.07-1.13.58-2.87,1.89-2.85l.06.31c.75-.25-.72-1.84.32-1.72l.02.2c1.35-.82,1.97-2.59,3.74-2.46-.73-1.06,1.48-.65.31-1.98,1.24,0,1.28.41,2.57-.02.29-.17-.42-1.13-.26-1.55l.65.65-.28-1.08.98.59.11-.44c-.15.07-.52-.07-.69-.28.13-.72,1.49-.55,1.83-.22l.46-1.55c.24.29.16.55.19.85-.12-1.2.77.61.66-.5-.21-.09-.35-.43-.47-.58.64.16,1.21-.37,1.46-.94l.36.54c.87-.6,1.38-1.73,2.24-2.53-.51.07-1.2-.79-1.02-1.11l.77.61c-.25-.59-.51-.02-.69-.87.4-.22.98.6,1.01,1.01l.15-.61c.22.19.24.39.47.68-.26-.59,1.34.08.84-.9l.22.19c.85-.8,1.01-1.41,1.66-2.1-.56-.63-.17-.75-.42-1.44.7-.28,1.72-.32,2.3-.94.15-.71-.36-.64-.5-1.19.55.53,1.13-.09,1.18.61.66-.78.85-.99,1.37-2.32-.32-.14-.52-.13-.64-.38.09-.25.61-.12.83.17v.1c.29-1.82,3.96-.6,3.73-2.55v.1l.33-1.41c.5-.27.14.65.76.73.1-1.81,1.63-1.21,1.85-2.55,2.12,1.15,2.05-2.05,3.84-1.7l-.4-.36c-.13-.58.46,0,.7-.05-.3-.29-.55-.15-.61-.49,1.37-2.09,4.27-2.68,6.44-3.94.78-.48-1.42-2.43.28-2.21l.4.96c.6-2.11,2.85-2.41,3.57-4.32.07.24.26.47.12.58.75.31,1.09-.87.72-1.32.26-.13.39.36.72.48.56.08.13-1.31.75-.9.1.07.07.25.05.33-.04-.43.94-.67.22-1.16.77-.13.74-1.11,1.47-1.08-.33-.94,1.16-.4.41-1.48.83,1.08,1.6.08,1.52-.67.15.41.56.09.79.64.36-.32.55-.79.04-1.28,1.72.69.56-2.14,2.27-.85.65-1.47,1.37-2.7,2.18-3.76.82,1.08-1.02,1.01-.09,2.08.6-1.21.42-2.56,1.57-3.08.36-.06.23.57.29.82.6-1.21,1.93-1.38,2.33-2.64.08.1.07.28.05.43.14-.17.52-.16.11-.62l-.06.26c-.83-.48-.49-1.99-.75-2.38.81,1.61,1.12-.32,2.05,1.78.04-.18,0-.52-.28-.82.24-.04.44.11.56.61.4-.74-.22-1.08.33-1.51.18.24.14.41.3.73-.08-.68-.16-1.35.46-1.52.08.16.28.3.14.41.74-.7.4-2.29,1.62-2.54.54,1.22.56.1,1.29.95l.27-.63-.52-.28c.43-.3.29-1.23.88-1.21l-.03.6.65-.77h-.7c.07-.78-.91-1.08-.17-1.26-.04.18.43-.31,1.05.05-.01-.44-.03-.9.45-.91.3.22.69,1.03.89,1.18-.37-.9.82-.95.47-1.94.06.25.41.72.51.79l-.29-.73c.34.05.44.12.69.51.66-.33-1.05-.99,0-1.03-.02.09.08.16.04.34.89-.28,1.04-1.41,1.91-1.6.87.75-.39.65.4,1.24.79-.87,1.08-2.53,2.14-2.98l-.24.02c-.83-1.36,1.14.13,1.14-.8-.04.18.38.82.31.65.77-.25,1.02-1.25,1.65-2.34l.13.41c.58.02,1.08-.54,1.58-.68-.13-.41.14-.53-.35-.9,2.59.98,1.56-2.73,3.79-1.93-.13.1-.1.51,0,.44l.7-.97c-.48-.51-.37-.25-.88-.55-.13-.42-.05-.86.18-1.03-.15.67.66.9,1.06,1.08-.15-.15-.23-.38-.37-.55,1.21.65-.74-1.19.41-.99l.18.32c.14-.33.08-.88.41-.99.58.57-.04.49.33,1.04.34-.31-.15-1.76.65-1.36-.03.3-.25.46-.28.76.92.5.82.27,1.18.2h-.04l.88-.11-.31-.09c-.75-2.03.73-.99.56-2.56.14,1.5.33.68.82,1.46.31.09.71.14.79.4-.13-.81.83.11.63-1.06.19.22.33-.21.69.44.25-.46-.39-.35-.57-.67.01-1.25,2.11,0,2.18-1.72.42-.98,0-1.89.4-2.77.5.22.42,1.01.42,1.01.62.09.86-.17,1.03-.69.07.26.27.38.57.58.24-.26-.42-1.01.2-.91.12.31.34.8.39,1.16.18-.45.2-1.13.4-1.59.38.35.23.78.3,1.14.26-.46.75-1.08.41-1.83l-.41-.06c.12-.13.47.52.45.71.03.75-.64.11-.83-.12l.14-.33c-1.23-1.23-.84.92-1.39,1.19l-.51-1.17.08,1.21c-.29-.19-.77-.71-.63-1.04-.71-.26-.06.58-.76.24-.1-.06-.11-.12-.11-.19l-.14.55c-.08-.26-.56-.68-.25-.68-1.04-.15-.48,1.47-1.26.86v-.1c-.62.95.45.81.42,2.14l-1.74-1.54.44.81c-.11.04-.33.1-.51-.22.03.75.29.29.43.9-.92-.38-.96,1.16-1.9.04.25.68.72.14.54.87-1.04-1.19-.37.6-1.18.29-.35-.75.27-.66-.54-.97.56,1.29-.94.31-1.12.76.62.9-.45.89-.8,1.58-.18-.32-1.39.27-2.14.32l-.09-.16c.55.96-.11,1.18-.36,1.64-.37-.55-.46-.81-.42-1.2l-.36.27c.12.35.12.58-.04.85l-.39-.73c-.46.39-.41,1.48-1.35,1.5.42.65,1.75,1.36,1.41,2.26-.27-.32-.71-.87-.64-1.14-.02.08,0,.43-.21.37l-.15-.76c-.46-.04.2.58-.06.69-.35-.48-.42-.22-.66-.62.02-.09.34.05.29-.2-.32.1-.83.05-1.2-.24.22.26.47.64.33.84-.45.39-.59-.45-1.05-.49.13.42-.43.3.09,1.02-.14.1-.41-.21-.61-.37-.02.5-1.09.95-.25,1.5h.1s-.01.04-.02.06c-.29,1.31-1.99.85-2.57,1.76l-.18-.24c-.28.63-.95.96-.91,1.72-.14.1-.66-.18-.81-.51-.23.45-.08.74-.9.76.06-.69-.4-.27.15-.59-.63.15-1.02-.14-1.04.9-.29-.74-.93-.49-1.02-.13l.66.18c-.19.28-.45.4-.71.52l-.48-.89c-1.71-.22-.49,2.98-2.47,1.94.17.75.83-.01,1.09.81-.53.23-1.86-.54-2.01-.44-.95.03.32,1.59-.55,1.78.3.22.96.91.69,1.54-.53.24-1.46-.76-1.36-1.2.09-.11.21-.06.28.04.06-.21.16-.48-.25-.65l.16.33c-.44-.12-1.03.38-1.25-.19-.13.53.21.57.58.53-.89.03-.91.67-1.7.86.21.08.56.34.46.41-1.13.33.04.83-.44,1.41-.66-.17-.68-1.11-.98-.29-.58,0-.66-.68-.7-1.02-.11.96-1.27.43-1.65.57l.1-.45c-.06.27-.2.37-.34.48l.6.43c-.24.03-.38.14-.56-.09.12.5.86.83.92,1.59-.44-.11-.43.83-1.09.15.89-.29-.67-.68-.18-1.27-.04.18-.18.28-.43.31-.09-.06-.1-.17-.09-.25-1.18-.14.36,1.08-.34,1.6-.24-.49-.79-.67-.83-.49.28-.21.68.59.69,1.11-.7.02-.28.62-.54.76l.38-.05c.24.49-.02.6-.22.98-.28-.3.1-.44-.12-.5.25,1-1.37-.15-1.45.71-.44-.11-.65-.76-.99-.8-.1.96-1.03-.11-1.22.78.61.43.53.27.58,1.13l.59-1.13.07,1.28c.28-.21.29-.82.53-.86.09.68,0,.52.51.88-1.05-.53-.35,1.09-1.23.88l-1.1-1.39c-1.15-.08-.58,1.65-1.7,1.99l.47.02c.33.64-.46.5-.55.94-.35-.48-.66-.51-1.01-.7.29.33-.64.47.03,1.45l-.87-.3c-.88.31.29,1.94-.49,2.31-.21-.66-.78-.74-.63-1.45-.22.17-.49.25-.23.57-.36-.18-.1,1.11-.66.84.07.28.44.78.16.94-.1-.07-.19-.23-.19-.23.18.23-.13.62.5.95-1.84-.86-1.77,1.66-3.36.93-.34.55-.79,1.17-1.19,1.56-.09-.16-.19-.23-.07-.25-.94.07.73,1.6-.33,1.7-.96-.44.02-.69-.43-.79-1.35-1.41-.64.88-1.82.39l.03-.18c-.77-.21-.36,1.27-1.02,1.64,0,0-.08-.15-.19-.23.26,1.08-.25,1.95-.6,2.62-.33-.72-.02-.52-.63-1.02-.17.29.88.88.54,1.46-.43-.18-1.01-.16-1.59-.75l.42-.43c-.93-.61-.56.53-.92.6l-.27-.38c-.59.72.17,1.62-.63,2.2l.31.2c.36,1.23-.77-.2-.61.81l-.9-.79c-.08.45-.19,1.68-.52,2.26-.31-.9-.04-1.72-.03-2.42-.27.22-.85.85-.6,1.41.03-.18-.02-.51.2-.47.29.98.16,1.7-.38,2.14-1.42-1.81-1.76.76-3.32-.23-.36,1.46-2.08,1.37-3.07,2.44,1.57.99-.28.32,1.01,1.63-.17.31-.29.37-.39.31l-1.49-.14c-.54-.24-.03-.51-.33-.8-.64.39-.75-.37-1.44-.41.51.42.44.87-.04.96l1.01.23c-.11,1.41-1.7-.55-1.82.86l-.14-.65c-.17.61-1.48,1.31-.87,2.76-.21-.09-.64-.38-.56-.64-1.09.7-1.03,3.08-2.37,3.08l-.23-.4c-.09.26.27.9-.26.77-.11-.15-.23-.39-.33-.34.01.2.07,1.01-.34,1.03l-.14-.55c-1.31.41-.57,2.2-1.12,3.12-.9-.97-1.91-.62-2.41-.44l-.12-.15c-1.16.88-1.04,2.49-1.65,3.79-1.59-.47-2.46,1.51-3.98,1.85.31.03.69.77.61,1.03-.41.02,0,1.26-.8.35l.1-.06c-.99-.69-1.25-.02-1.63.31l1.04,1.2c-2.54-.73-1.88,3.02-3.83,2.04.05.51-.24.78-.18,1.28l-.58-.62c-.78.46-1.17.69-1.81,1.6l-.27-.59c-.48.39,1.17,2.29.8,2.72l-1.01-.78c-.76.76-2.3.75-2.23,2.31-.12-.14-.36-.43-.27-.58-.38.33-1.98.78-.62,1.88-.81-.79-.86.71-.91,1.47l-.53-.65c.41,1.1.61,1.31.34,2.01-.19.04-.58-.37-.27-.37-.69.07.27.85-.51,1l-.21-.55c-.44.35-.2.52.03,1.17,0,.48-.89.6-1.49.13.28.38.5,1.02.12,1.1-.24-.17-.28-.38-.3-.48-1.06.26-.26,1.67-1.29,1.55-.21-.18-.34-.25-.43-.27.52-.52.97-.91.97-.83-.55-.54-1.06-.2-1.49-1.29.08.75.42,2.22-.24,2.38-.07-.03-.14-.06-.24-.13l-.02-.1c-.15.04-.18.18-.16.35-.22.05-.37.06-.5.18-.51-.39-.72.25-.95.44.62.57.26.75,1.01.97-.08,0-.03-.11.08-.28.01-.05.04-.1.02-.15.01.02.03.04.04.07.12-.16.28-.35.47-.57.15.47.24.89-.33.8.28.49.57.99.69,1.24-1.13-.53-2.13-.4-2.73-.83-.29.98-1.25,1.75-.5,3.26-.03.33-.53-.1-.78-.2-.01-.22.13-.33.02-.54-.06.65-.94,1.21-.22,2.06-.81.12-.49-.97-.97-.2l-.16-.32c-2.48.07.11,4.02-2.86,3.88.19,0,.29,0,.44.1-2.24.94-2.43,3.96-5.06,4.5-.65.24-.18.77-.03,1.41l-.76-.51.34,1.18c-.05,1.19-2.71-.32-2.42,1.52l.55.3c-.37.23-.62,1.22-1.09.7.05.11.38.53.03.43l-.36-.31-.08,1.3c-.79.36-1.32-1.35-2.17-.55-.15.44.2,1.83.55,1.92.13-.11.52-.13.88.17l-.08.46c.99.98,1.86,2.16,3.23,2.1l-.19-1.07.65.29-.35.45c.69.19.41-.34.27-.76.3.2.55.3.74.29l-.55-1.38c.46.31.61.94,1.13.82-.25-.64-1.11-.6-1.07-1.25.69.19,1.01.6.86-.04.3.2.42.41.44.63-.1-.54.46-.78.02-1.4.81.28.61-.97,1.57-.06-.16-.29-.37-1.13-.21-1.4.79,1.48.84-.79,2,.46-.77-1.27.54-1.54.45-2.62.06.11.17.32.07.32.37-.23.76-.03,1.14-.04-.83-.83-.59-1.49-.88-2.24,1.18.4.8,1.16,1.71,1.78-.72-.63-.1-1.29-.8-1.7.78.19.48-.01,1.33.5-1.03-1.05.06-.43-.38-1.28.91.08,1.11.83,1.2.08.53.09.54.85.54.85l-.08.09Zm8.26-12.4h0c-.07.12-.14.2-.18.26.03-.05.08-.13.16-.26h.01Zm.85-.9c-.13.09-.26.22-.4.36-.24-.17-.42-.41-.32-.49.09.18.42.09.72.13Zm-6.01-2.18c.05-.23.22-.16.36-.06-.05.08-.11.18-.17.32.02.03.04.06.06.09-.1-.13-.2-.25-.25-.35Z"/><path class="cls-2" d="m701.15,202.26c.4.12.45-1.01.69-1.6.57-.18.03.85.05,1.44.37-.2.87-1.12,1.09-1.02-.03.18,0,.26-.12.46.56-.76.97.22,1.66-.73,0,.1-.01.2-.03.28.09-.55.24-1.1.37-1.48.19.04.55-.57.42.15-.11-.06-.2.22-.32.42l.29-.24c-.12,1.05-.37.26-.59,1,.48-.21,1.18-.91,1.39-.53-.24.99-.79.12-.66,1.1l-.34-.51c-.12,1.64-.24-.19-.42,1.55.5.45.81-.3,1.3.17.3-.5.21-.81.52-1.31,1.16-.69-.14,2.64.9,1.56.38-.59.86-1.79,1.08-.99l-.53,1.04c.53.3.87-1.46,1.21-.51-.26.39-.58.2-.54.36.08.99.49-.52.79-.41l-.28.98c.66.07,1.58-.38,2.32-.3-.15.27-.37.52-.33.88,1.03-.16,1.76.82,2.34,1.7l.64-.69c.07.04-.01.42-.16.55.19.44.23-.51.51-.77.2.02.05.57-.17.76.84-.47,2.21-.83,2.44.29l-.22.19c.32.52,1.22-1.45,1.33-.51l-.14.11c.85.77,2.28.51,2.52,2.06.64-1.1.77.94,1.53-.65.23,1.05-.06,1.27.51,2.16.18.17.76-.88,1.1-.93l-.36.85.75-.74-.25,1.1.34-.11c-.08-.09-.05-.47.07-.71.56-.21.69,1.01.51,1.44l1.23-.32c-.17.33-.37.38-.59.55.87-.65-.3.93.49.33.02-.22.25-.49.34-.66,0,.61.51.84.98.79l-.33.55c.62.45,1.56.34,2.32.7-.15-.39.36-1.38.62-1.37l-.31.93c.39-.49-.08-.44.51-.98.24.23-.26,1.1-.55,1.32l.48-.16c-.1.28-.24.38-.41.71.39-.49.2,1.16.83.29l-.1.27c.76.35,1.24.19,1.88.43.36-.76.52-.49.99-1.03.35.45.58,1.28,1.16,1.46.56-.21.41-.6.79-.98-.29.71.29.9-.22,1.27.71.19.9.24,1.99.05.04-.33,0-.5.16-.71.2-.05.21.45.04.78l-.07.05c1.41-.62,1.22,3.01,2.63,1.91l-.07.05,1.12-.4c.3.28-.45.43-.39.98,1.37-.78,1.23.78,2.27.32-.43,2.3,1.94.73,2.04,2.38l.19-.5c.41-.39.09.38.17.56.16-.38,0-.53.24-.74,1.83.16,2.88,2.22,4.25,3.42.52.41,1.53-2.33,1.71-.83l-.64.79c1.69-.5,2.38,1.19,3.96.85-.17.17-.3.44-.41.38-.07.77.88.47,1.14-.06.15.15-.19.5-.21.82.05.5,1.01-.53.83.18-.03.12-.17.18-.24.2.31-.24.7.44.91-.38.25.57.99.07,1.11.68.64-.72.54.76,1.19-.38-.63,1.2.26,1.35.82.92-.27.32.05.5-.31.95.32.14.71.05.97-.6-.16,1.74,1.73-.59,1.12,1.43,1.24-.19,2.32-.21,3.28-.07-.64,1.19-.97-.34-1.58.94,1.03-.1,2.01-.91,2.63-.22.12.27-.38.46-.55.64,1.03-.1,1.45.88,2.48.58-.06.11-.2.2-.31.25.16.03.23.34.49-.22l-.21.08c.19-.91,1.4-1.38,1.64-1.79-1.04,1.45.48.74-.91,2.54.14-.06.39-.26.56-.64.08.18.01.41-.34.76.64-.04.77-.72,1.2-.47-.14.26-.28.32-.49.61.49-.4.98-.8,1.24-.38-.11.15-.17.38-.28.32.68.25,1.81-.8,2.25.06-.81,1.04.04.5-.44,1.51l.53-.1.1-.56c.32.19.99-.38,1.11.09l-.46.28.72.14-.15-.56c.6-.34.62-1.27.92-.77-.14.05.32.19.19.86.33-.23.67-.47.79-.09-.1.35-.63,1.07-.7,1.3.6-.74.9.18,1.57-.59-.18.17-.46.69-.49.81l.49-.6c.04.3,0,.41-.24.81.4.37.52-1.33.78-.5-.07.03-.1.14-.25.2.4.57,1.29.14,1.62.74-.38,1.07-.57,0-.85.94.82.2,2.14-.39,2.72.22l-.07-.18c.85-1.35.15.97.86.51-.14.06-.53.72-.43.57.36.48,1.17.19,2.13.14l-.29.31c.11.47.64.59.86.92.29-.31.43-.16.61-.74-.18,2.56,2.39-.11,2.29,2.05-.1-.05-.41.18-.33.23l.89.06c.28-.64.11-.42.22-.97.29-.31.64-.48.82-.38-.54.23-.53.98-.58,1.39.08-.2.24-.38.33-.57-.23,1.28.74-1.19.84-.18l-.2.3c.28-.06.69-.38.84-.18-.3.75-.38.22-.72.79.31.12,1.3-1.02,1.17-.17-.23.13-.41.03-.64.16-.17.98-.03.79.11,1.04v-.03l.27.64v-.29c1.38-1.63.91.07,2.06-.85-1.1.87-.44.61-.92,1.38,0,.29.05.64-.13.83.59-.51.1.72.94-.04-.13.26.23.16-.18.77.41-.04.18-.48.38-.79.95-.62.48,1.66,1.8.83.84-.17,1.43-.97,2.2-1.1-.05.51-.67.84-.67.84.07.54.32.59.76.45-.18.19-.23.41-.31.74.25.06.67-.84.74-.31-.21.26-.53.67-.8.9.39-.09.91-.42,1.3-.5-.18.48-.54.58-.8.82.41-.03.99.03,1.48-.61l-.05-.36c.13.03-.29.63-.44.72-.57.41-.23-.45-.09-.71l.28-.06c.66-1.6-.89-.19-1.22-.49l.77-.99-.9.68c.08-.33.37-.97.65-1.02.03-.69-.46.25-.35-.48.03-.11.07-.15.12-.18l-.45.17c.18-.2.39-.79.46-.54-.12-.9-1.23.38-.94-.55l.08-.04c-.87,0-.51.76-1.54,1.42l.78-2.16-.51.76c-.05-.07-.15-.2.05-.51-.56.4-.15.37-.59.8.08-.91-1.1-.17-.46-1.48-.46.54.05.64-.54.87.67-1.43-.54,0-.48-.79.49-.66.56-.12.62-.92-.85,1.09-.44-.59-.82-.5-.54.95-.77.09-1.37.17.21-.31-.51-.97-.72-1.53l.1-.15c-.61.92-.92.51-1.33.55.33-.57.51-.77.81-.94l-.28-.15c-.24.27-.41.39-.66.4l.47-.68c-.4-.17-1.22.44-1.43-.31-.4.66-.65,2.08-1.4,2.26.18-.37.5-1.01.72-1.08-.07.02-.32.22-.32,0l.54-.5c-.07-.39-.4.45-.54.3.29-.52.07-.44.32-.84.07-.03.03.3.21.13-.15-.2-.22-.64-.08-1.08-.14.31-.38.7-.56.69-.39-.17.21-.7.14-1.08-.29.31-.32-.19-.75.58-.11-.06.07-.44.14-.67-.38.24-.96-.39-1.19.55l.02.08s-.03,0-.05.02c-1.06.43-1.08-1.15-1.89-1.16l.14-.26c-.54.09-.93-.28-1.5.14-.11-.06,0-.62.21-.9-.39.04-.58.32-.77-.34.53-.3.12-.46.48-.17-.25-.43-.12-.89-.9-.39.5-.6.17-.99-.12-.89v.62c-.25,0-.39-.16-.54-.31l.57-.83c-.2-1.48-2.36,1.09-1.99-1.02-.53.51.19.66-.38,1.28-.29-.31.01-1.77-.1-1.83-.23-.75-1.13,1.05-1.46.45-.1.35-.48,1.22-1.02,1.32-.29-.3.26-1.55.61-1.69.1.02.09.14.03.24.18-.06.4-.11.44-.53l-.21.29c0-.41-.51-.63-.13-1.09-.43.16-.39.46-.27.73-.22-.69-.71-.38-1.01-.94-.02.21-.14.62-.21.58-.48-.75-.62.44-1.15.34-.01-.62.69-1.1,0-.94-.12-.48.38-.87.62-1.07-.74.39-.59-.82-.78-1.06l.36-.14c-.21.08-.32.02-.43-.04l-.2.7c-.08-.18-.19-.24-.05-.5-.35.34-.44,1.11-1,1.53-.01-.41-.72.07-.34-.81.41.57.37-.88.91-.77-.14.05-.25,0-.33-.19.03-.1.11-.16.17-.19-.15-1.03-.74.82-1.28.52.31-.44.33-.96.19-.91.22.12-.3.84-.69,1.1-.16-.55-.53.08-.69-.06l.12.28c-.31.44-.46.28-.78.31.17-.38.35-.14.35-.35-.7.69-.18-1.18-.85-.81-.01-.41.44-.9.39-1.2-.74.4-.13-.89-.84-.61-.19.7-.09.56-.73,1.02l.97-.07-.95.68c.22.12.68-.16.75.02-.49.4-.39.26-.55.84.18-1.11-.89.25-.91-.58l.81-1.57c-.18-.98-1.36.33-1.85-.42l.08.39c-.41.58-.47-.13-.82.02.29-.52.24-.78.31-1.16-.19.4-.49-.29-1.08.73l.04-.85c-.42-.57-1.39,1.19-1.84.74.45-.49.39-.99.96-1.22-.18-.1-.29-.27-.48.09.06-.38-.85.46-.77-.12-.19.19-.49.74-.67.59.03-.12.13-.26.13-.26-.13.26-.49.2-.61.87.27-1.93-1.61-.64-1.39-2.3-.48-.02-1.04-.08-1.41-.21.1-.15.13-.26.17-.18-.25-.74-1.05,1.38-1.34.55.14-1,.52-.32.51-.73.78-1.79-.79-.09-.67-1.3l.14-.06c0-.74-1.03.32-1.44-.03,0,0,.1-.14.13-.26-.76.74-1.51.74-2.09.77.47-.62.38-.26.63-1-.25,0-.48,1.15-.98,1.15.05-.44-.08-.91.24-1.67l.4.14c.27-1.06-.51-.21-.63-.47l.23-.41c-.65-.15-1.17.91-1.77.53l-.09.35c-.85.89,0-.73-.72-.11l.41-1.12c-.35.15-1.29.65-1.8.66.61-.68,1.28-.86,1.8-1.19-.22-.12-.81-.29-1.18.19.14-.06.38-.27.39-.06-.68.71-1.24.95-1.68.72,1.06-2.04-.93-1.08-.49-2.85-1.16.39-1.43-1.08-2.43-1.39-.42,1.77-.29-.08-1.01,1.61-.27,0-.34-.06-.31-.18l-.2-1.3c.07-.56.38-.27.53-.65-.42-.35.13-.8.02-1.39-.21.63-.56.78-.73.42l.03.95c-1.08.58.07-1.66-1.01-1.1l.45-.43c-.49.15-1.27-.6-2.22.58.03-.22.16-.71.36-.76-.74-.58-2.49.59-2.76-.53l.25-.38c-.21.05-.62.64-.62.15.09-.16.25-.38.19-.44-.15.1-.73.53-.83.2l.38-.38c-.57-.9-1.74.55-2.55.53.54-1.2.08-1.88-.15-2.22l.09-.17c-.88-.57-2.05.28-3.13.37.04-1.55-1.59-1.37-2.15-2.48.04.28-.44.93-.64.99-.1-.34-.93.59-.42-.5l.06.05c.32-1.16-.23-1.05-.54-1.22l-.69,1.43c.06-2.49-2.59-.21-2.24-2.3-.37.27-.62.16-.98.44l.35-.78c-.49-.45-.74-.67-1.53-.79l.38-.5c-.38-.22-1.47,2.04-1.86,1.92l.39-1.21c-.71-.28-.99-1.61-2.13-.85.08-.17.25-.5.38-.49-.32-.17-.96-1.33-1.51.32.43-1.05-.69-.41-1.26-.1l.38-.75c-.73.85-.85,1.12-1.42,1.21-.07-.14.16-.66.22-.4-.19-.55-.58.62-.84.03l.36-.43c-.34-.21-.42.07-.86.56-.36.22-.62-.48-.4-1.2-.22.41-.65.9-.79.61.08-.28.22-.41.29-.48-.42-.77-1.27.54-1.41-.39.09-.26.11-.4.11-.49.49.21.87.41.81.45.28-.72-.07-1,.63-1.87-.53.41-1.54,1.38-1.81.89,0-.08,0-.15.04-.27l.07-.07c-.06-.11-.17-.07-.29.02-.08-.17-.13-.28-.25-.34.18-.62-.35-.5-.54-.6-.27.8-.49.57-.48,1.32-.01-.07.07-.08.22-.06.04-.01.08-.01.12-.05l-.04.06c.14.02.32.07.52.13-.31.34-.6.62-.66.1-.29.47-.6.95-.75,1.18.13-1.2-.19-2-.02-2.71-.78.22-1.59-.22-2.48,1.15-.24.13-.06-.5-.05-.76.15-.12.27-.05.4-.25-.48.26-1.11-.19-1.53.83-.3-.62.56-.89-.11-.92l.19-.3c-.73-2.08-2.78,2.1-3.52-.45.06.16.09.24.06.42-1.33-1.4-3.41.11-4.68-1.73-.4-.4-.57.29-.93.77l.05-.91-.64.95c-.76.67-.85-2.38-1.9-1.04l.04.62c-.29-.15-1,.26-.88-.43-.04.11-.16.62-.25.29l.04-.47c-.28.24-.55.48-.82.74-.56-.38.24-1.87-.63-2.02-.34.16-.99,1.32-.88,1.65.13.03.31.32.3.79l-.29.23c-.12,1.39-.36,2.81.22,3.82l.49-.82.1.68-.37.02c.17.65.34.1.52-.28.01.36.05.62.13.76l.54-1.3c0,.55-.29,1.06-.02,1.39.26-.6-.09-1.24.29-1.61.16.66.04,1.16.35.65,0,.36-.08.58-.19.73.26-.41.6-.12.8-.85.13.79.78-.1.59,1.2.11-.3.53-.97.74-1-.6,1.52.75.2.39,1.87.5-1.36,1.08-.45,1.71-1.14-.05.11-.15.32-.17.24.25.16.25.61.37.91.27-1.15.75-1.32,1.14-1.98.1,1.18-.5,1.31-.62,2.39.18-.94.78-.81.84-1.61.1.74.15.38.06,1.36.37-1.42.29-.18.71-1.01.2.79-.23,1.36.28,1.02.08.48-.4.9-.4.9l.04.02Zm10.35.64v.02c-.09-.01-.17-.02-.22-.03.05,0,.11,0,.22.02h0Zm.82.3c-.09-.07-.21-.12-.34-.17.08-.28.21-.55.29-.51-.11.16.02.39.05.67h0Zm.32-6.13c.18-.06.16.11.12.28-.07,0-.15,0-.27,0-.02.03-.03.06-.05.09.07-.15.14-.28.2-.38h0Z"/></g></svg>