<?xml version="1.0" encoding="UTF-8"?><svg id="Layer_2" xmlns="http://www.w3.org/2000/svg" viewBox="0 0 284.45 310.06"><defs><style>.cls-1{fill:#fff;}.cls-2{fill:#a7dff1;}.cls-3{fill:#4eb6ce;}</style></defs><g id="shapes"><path class="cls-1" d="m1,145.96c7.71,33.1,73.02,76.55,84.81,70.05,8.92,16.15,21.21,3.61,45.16,19.13,23.95,15.52,41.67,54.59,81.84,14.21,40.16-40.38,93.93-155.33,61.9-213.33C242.67-21.98,159.05,4.08,94.9,18.43,30.75,32.77-6.71,112.86,1,145.96Z"/><path class="cls-2" d="m152.43,270.25c0-1.81-.53-.85-.84-1.23-.16-2.15.39-1,.67-1.73-.15-1.35-.64-2.38-.62-3.38.09-.07.12-.27.23-.04-.43-1.42-.03-4.22-.57-5.88.05-.12.09-.18.13-.22-.27.27-.54.31-.74.26,0-.81-.35-1.5,0-1.81,0,.49.13.54.24.77l-.16-.85c.51-.76.18,1.16.55,1.16-.16-1.66-.59-3.58-.45-4.85.5-.27.17,2.96.61,1.27l-.19,1.96c.78-1.5-.05,1.19.78-.18.14-2.58-.26-2.89-.12-5.46-.28-.58-.41.19-.69-.39-.5-3.66,1.24-2.88.58-5.57-.33-.69-.96-.97-.63-2.88l.56.65c.05-2.5-.81-1.43-.43-4.04.22.47.19,1.96.25,1.59.44-1.7-.32-1.2-.32-2.5l.5-.27c-.08-2.66-.45-5.59-.54-8.54.15.16.3.66.45-.02-.01-.27-.03-.54-.05-.82v-.2c-.01-.07-.01-.06-.02-.09v-.13c-.03-.18-.03-.37-.03-.55,0-.36.05-.68.11-.85.09-.26.21-.19.33.16l-.21-1.1c-.08-.44-.12-.68-.15-.95.05.13.23,1.02.28,1.32.12.49.07.18-.02-.29-.09-.48-.24-1.2-.25-1.44.05.08.14.43.2.78.06.35.12.72.14.93,0-.38.1-.52.32-.28.35.42,1,1.81,1.04,2.6-.06-.04-.13-.08-.18-.11.02.11.05.19.1.26.02.03.04.06.07.09,0,0,.03.04.06.08l.07.11c.2.28.4.5.6.72.39.43.75.86.94,1.8l-.21-.3c1.56,4.1,3.81,8.42,4.51,11.75.82.35,1.43,4.11,2.32,4.04.56,2.48.15,1.87,1.23,5.24.32.88,1.03,1.1,1.56,2.14l-.4.19,1.04,1.29-.18.98.51.97c-.14-.41-.16-.93-.01-.92.83,1.51,1.27,3.97,1.07,4.1l1.86,3.6c-.2-.01-.51-.62-.82-1.07,1.23,1.83-.29.54.83,2.21,0-.28.3.03.4.04.12,1.01.94,3.09,1.66,4.59l-.4-.18c1.04,2.81,2.46,5.82,3.68,8.94-.31-1.17.3-1.11.71-.21l-.3.54c.51.48-.2-1.03.6.06.4,1.19-.2.98-.6.36l.71,1.36c-.1.14-.3-.17-.5-.19.5.48.51,2.63,1.31,3.29l-.1.13c1.2,3.14,1.9,4.5,2.9,7.05.4-.1.7.94,1.29,1.58.59,1.93,1.08,4.13,1.96,6.38.79,1.53.5.35,1,.98-.04.03-.06.09-.06.17,0,.07.01.22,0,.25-.02.11-.02.21-.03.29-.01.17-.06.2-.27.03.16.35.27.6.45.94.11.2.22.42.35.67.08.16.18.33.28.52l.04.08h-.08s-.08-.02-.13-.02c.38.44.71.74.85.98-.1-.03-.36-.24-.58-.48-.23-.23-.43-.49-.53-.66v-.04c-.15.07-.65-.26-1.07-.62-.21-.18-.41-.37-.57-.55l-.11-.13s-.08-.07-.13-.12l-.17-.14c-.22-.18-.44-.37-.66-.56-1.75-1.47-3.39-2.89-4.96-3.52l.18.07c-1.01-.53-2.01-1.08-3.01-1.64-1.24-.97.92.32.12-.54-3.35-1.63-4.63-3.48-7.31-4.94-.6-1.15-2.26-2.39-4.03-3.65-1.76-1.29-3.63-2.59-4.64-3.85l-.02.32c-.79-.31-.68-.73-1.1-1.16-.06.21.54.74.06.53-5.6-4.08-10.77-9.36-15.88-14.24-1.87-1.79-2,.01-4-2.64l1.01.27c-4.25-3.11-7.81-7.29-11.78-10.54.3.14.4.04.76.39-.13-.25-.38-.55-.67-.86-.07-.08-.15-.15-.23-.23l-.12-.12s-.03-.02-.05-.04c-.04-.03-.09-.06-.14-.08-.21-.1-.57-.25-.77-.25-.09-.11,0-.12.12-.11.12,0,.25,0,.33-.02.05-.04-.03-.1-.19-.18-.15-.08-.38-.2-.54-.32.03-.05.17-.07.46.02.13.04.12.1.12.13-.07-.08.19-.1.36-.14.16-.04.28-.1-.05-.26.48.04.72-.03,1.1-.11.87-.14,1.68-.26,2.46-.22.95-.56,3.3-.15,3.56-.81-.07.67,3.42.18,4.6-.26-.38.24,1.07.09.63.42,1.38-.15,2.64-.4,2.36-.71,2.63.52,5.07-1.15,6.6-.27,4.08-.75,7.87-1.34,11.56-1.81-.08.67-4.09.42-3.87,1.1,3.49-.58,5.47-1.32,8.97-1.46.91.01-.49.33-.78.46,3.49-.57,6.79-.5,9.89-1.09,0,.06-.34.16-.65.23.61-.07,1.44-.01,1.35-.31l-.59.13c-1.02-.36,2.38-1.09,2.48-1.32-.98.93,3.11-.01,1.52,1.19.4-.09.9-.27.79-.46.61.01.81.12.21.39,2.2-.33,1.39-.58,3.39-.71,0,.15-.4.23-.59.41.99-.35,1.99-.7,3.69-.7-.1.09.11.19-.4.23,2.9-.24,4.9-1.08,8.11-1-.9.68,1.1.14,1.3.68l1.7-.27-.71-.22c1.5-.08,2.81-.55,4.11-.45l-1.1.29,2.81-.26-1.61-.12c1.5-.36-.2-.68,1.81-.64-.4.08,1.5-.08,2.31.2h0c.73-.21,1.49-.43,2.61-.35.3.16-.2.61-.01.72.71-.49,3.51-.3,4.42-.83-.31.13-.31.41-.2.47l.6-.4c.7.09.81.14.71.37,2.1-.03-.7-.65,1.8-.48-.19.04-.1.09-.5.17.64,0,1.27-.01,1.89-.06l-.31-1.5c-1.73.68-3.23,1.61-4.81,2.35-.88-.15,1.74-1.1.83-1.13-3.02,1.68-5.63,4.25-8.2,6.19l.51-.33c.14.87-2.11,1.23-3.1,2.59.26-.31.11-.67.09-.53-1.76,1.36-3.24,3.15-5.52,5.57l.17-.43c-1.07.74-2.58,2.22-3.67,3.1-.17.43-.78.94-.23.83-3.94,2.08-5.63,6.01-9.08,7.92.34-.31.68-.87.41-.62l-2.26,2.35c.42.07.45-.14,1.13-.42-.17.43-.73,1.16-1.32,1.71.92-1.16-.38-.39-.97-.09.15,0,.07.23.18.27-1.65.72.25.69-1.72,1.98l-.03-.21c-.57.66-1,1.37-1.72,1.98-.55-.02.55-.77.37-1.04-.94.92-1.39,2.32-2.52,2.85.34-.46.92-1.02,1.26-1.47-1.26.55-1.29.74-2.04,1.35l.08-.06-1.77,1.37.5-.3c-.5,1.87-2.32,2.43-3.47,4.44,1.13-1.94,0-.51-.18-.94-.5.3-1.22.79-1.12.53-.52.98-1.47,1-2.18,2.39-.15-.06-.82.76-.9.34-.91,1.02.4-.04.44.17-1.19,1.8-3.99,2.98-5.72,5.54-1.69,2-1.71,2.67-3.29,4.52-.75.4.12-.83.12-.83-1.1.76-1.79,1.48-2.57,2.45.1-.26-.17-.16-.55-.02-.69.72-.12.84-1.21,1.6.05-.27.08-.65.32-1.1-.75.91-1.41,1.9-2.19,2.84-.4.04.27-.78.46-1.19-.91,1.02-2.39,2.62-2.42,3.19l.73-.51c-.35.36-.42-.06-.2-.37.63-1.03,1.31-1.08,1.45-1.02l-.56.67c1.22-.02,2.41-2.51,3.7-3.68l-.1.94.94-1.6c.38-.15.81-.09.25.57,1.11-.65.65-.92,1.65-1.42.12-.04.1.01.04.11l.75-.98c-.08.26.44.17-.16.62,1.82-1.26,2.24-2.77,3.15-3.01l-.11.15c2.06-2.25-.1-.52,1.19-2.48l1.87-.26-.09-.53c.24-.2.71-.61.75-.4.63-1.03-.28,0,.01-.68,1.37-.75,2.89-3,3.62-2.72.16-.62-1.22.8-.22-.48.86.24,1.26-1.37,2.5-2.07-.04.58-1.13,1.32.12.63.15-1.05,2.05-1.74,2.81-2.63-.32-.42,1.69-1.89,2.99-3.35.03.21,2.87-2.3,4.33-3.39l.02.1c-.11-.63,1.33-1.83,2.25-2.85.18.27.09.53-.36,1.14l.94-.87c.1-.33.34-.67.9-1.28l.04.51c1.23-1.18,2.19-2.68,3.99-3.98-.16-.36-1.99.42-.45-1.34.2.09.5.29.11.76.13-.16.41-.61.76-.82l-.45.88c.84-.57.19-.56.8-1.08.18.22.57-.25.65,0-.13.16-.59.38-.74.67.7-.57,1.62-1.18,2.03-1.27-.17-.07-.26-.29.19-.76,1.24-1.17.67-.14,1.5-.71.17-.43,1.11-1.01.84-1.34.37-.34.57-.25.79-.3.52-.74,3-2.83,1.96-2.49l-.19.13s.06-.07.09-.11c1.85-2.26,4.59-3.89,6.61-5.92l.09.11c1.17-1.25,2.81-2.54,3.58-3.53.39-.32,1.1-.51,1.04-.25.48-.44.73-.7,1.07-.97.33-.28.75-.55,1.6-.98-.92.94.49-.07-.99.91,1.45-.85,1.87-.87,3.19-2.13-.16.32.16.25.6.06.45-.18,1.02-.51,1.34-.73-.38.09-.76.21-1.14.32.74-.49,1.45-.8,2.17-1.11-.06.2-.12.41-.17.62.49-.14.96-.3,1.39-.49.44-.18.86-.36,1.25-.57l-.61-3.01c-2.17.31-4.06.96-5.94.36-.9.38,1.91.15,1.1.58-1.6,0-3.31-.59-3.81-.57-2.21-.15-2.01.81-4.32.75.3.16.6.6-1.1.86-1.61.02-2.01-.61-1.01-.81.38-.03.57.01.56.07.52-.09,1.19-.2.55-.35l-.2.18c-.81-.13-3.01,0-2.51-.3-1.2.23-.5.31.4.35-2.07-.14-3.21.18-5.34.14.34.07.67.26.33.28-3.12-.02-1.35.41-3.44.62-1.21-.18.39-.66-1.72-.3-1.3-.09-.3-.44.2-.61-1.91.46-3.62.01-4.73.03l1.01-.21c-.6.13-1.1.15-1.6.19l.6.31c-.6-.02-1.1.01-1.1-.13-.6.27.51.54-.68.93-.81-.12-2.41.35-2.71-.08,2.51-.02-.31-.44,1.8-.66-.4.08-.9.12-1.51.1-.09-.04.08-.1.24-.14-2.42-.23-1.07.6-3.54.77.3-.28-.61-.45-1.01-.36,1-.07.51.39-.39.66-1.61-.09-1.72.28-2.55.32l.96.02c-.3.28-1.1.31-2.2.48-.11-.2,1-.22.59-.27-1.19.55-2.82-.26-4.5.19-.81-.11-.12-.48-.82-.54-1.89.5-2.11-.18-4.11.26.61.3.71.2-.69.66l3.3-.52-2.09.68c1-.08,2.1-.39,2.7-.38-.99.36-.9.27-.39.52-1.41-.4-2.69.52-4.3.32l-.02-.86c-2.42-.18-4.19.81-7.31.87l1.01.06c-.38.38-1.91.22-2.89.45.07-.3-.57-.34-1.01-.48.07.21-2.27.2-2.49.8l-1.42-.24c-2.51.08-2.77,1.1-5.17,1.24.69-.38-.42-.48,1.16-.86-.8.08-1.53.1-1.52.3-.49-.13-2.18.61-2.94.41-.33.16-.4.47-1.3.54-.1-.05,0-.14,0-.14,0,.14-1.39.34-.57.57-1.28-.32-3-.12-4.67.1-.84.11-1.67.22-2.43.27-.38.02-.74.03-1.07.02-.17,0-.33-.02-.49-.04-.18-.02-.34-.05-.5-.07-2.41.37-5.06.77-7.07,1.02-.04-.08-.29-.11.17-.14-.34.01-.63.03-.83.05.73.75,1.4,1.12,2.03,1.51.32.2.63.39.94.64.32.26.63.56,1.01,1.04.25.58-.09.33-.49-.03-.39-.36-.8-.78-.56-.41-.52.15.38,1.01,1.41,1.93.44.39.91.81,1.38,1.23.36.34.68.7.88,1.1l-.33-.25c.7,1.13,2.49,1.96,3.97,3.45,0,0-.13,0-.11.09,1.38.64,3.45,2.41,5.03,3.68-.71-.15-.81-.48-.78.05.7.58.22-.62,1.62.53.29.55,1.13,1.56.99,1.98l-1.27-1.14c.29.98,1.63,1.49,2.25,2.15l-.24.09c2,1.7,2.4,1.31,4.48,3.2l-.1-.32c1.53.59.76,1.09,2.19,1.78l-.03.74c.85.57,3.06,1.9,4.51,3-1.06-.35-2.83-1.55-3.99-2.23.76.67,2.63,2.19,3.21,2.32-.35-.22-.83-.45-1.07-.77,1.24.45,2.6,1.35,4.14,2.63-.99.63,3.84,3.55,4.44,5.12.76.48,1.47,1,2.17,1.55.71.55,1.39,1.13,2.09,1.73.7.6,1.41,1.21,2.14,1.85.74.62,1.52,1.24,2.35,1.85-.64-1.58.98.71,1.31-.15.8.54,1.08.77,1.12.87l2.03,2.16c.4.62-.85-.39-.9-.17,1.66,1.31.49.83,1.47,1.85-.04-.43.86.08,1.76.87-.38-.44-.76-.88-1.13-1.33,2.66,1.35,1.63,2.1,4.31,3.46l-.93-.32c1.32.77,4.61,3.24,6.24,3.51.17.24.32.64-.27.31.74.53,1.56,1.05,2.4,1.54l.65.38,1.07.66c.68.41,1.37.82,2.05,1.22,1.32.78,2.52,1.49,3.66,2.22.57.36,1.13.74,1.7,1.13.29.21.58.41.86.61.15.11.29.22.44.32l.22.17.05.04v-.02l-.02-.08c.28.42.19.4.22.51l.15.08s.05.03.06.02l-.06-.13c-.08-.17-.16-.34-.24-.51-.16-.33-.32-.66-.49-.99-.31-.64-.54-1.2-.6-1.66.18.22.54.83.37.34-.18-.36-.6-1.26-1.01-2.16-.41-.91-.79-1.82-.96-2.47l.79,1.43c-.43-1.39-.93-2.73-1.42-3.93-.24-.6-.49-1.17-.73-1.7-.16-.3-.32-.59-.48-.87-.64-1.14-1.31-2.18-1.9-3.55.6-.22-.19-2.9-.58-4.24h.1c-1.39-3.87-2.99-6.35-4.61-9.81-.2-2.46-2.64-7.59-3.69-11.27.11.58-.5.1-.81-.51-.21-.88-1.33-2.13-.73-2.22l.11.3c.29-.84-.54-2.49-1.06-3.83l-.8.07c-.36-3.9-4.07-8.96-3.92-11.23-.52-.77-.95-1.81-1.46-2.56l.4-.11c-.87-2.36-1.29-3.54-2.58-6.37l.52.47c-.65-1.63-1.96-1.58-2.6-3.06l.38-.68c-1.19-2.81-1.9-5.86-3.6-8.42.1,0,.3.02.52.47-.55-1.32-1.8-5.27-2.38-4.46.06-.03.09-.1.09-.2,0-.06,0-.09-.03-.18-.03-.1-.07-.21-.11-.33-.18-.49-.49-1.15-.84-1.84-.7-1.39-1.52-2.82-2.02-3.67.08-.15.17-.28.27-.4-.77-.8-.9-.67-1.43-1.55-.12-.04-.26-.15-.45-.34-.18-.36-.18-.85.07-.37-.31-.57-.43-.48-.56-.51-.13,0-.28-.13-.66-.74.09.04.18.06.27.05-.63-.7-.58-.47-.91-.88l-.02-.02s0,.02,0,.03v.07c-.02.05-.02.11-.03.16-.02.11-.04.22-.06.34-.04.23-.09.47-.15.65-.12.37-.29.51-.43.3.04.21.07.56.08.95,0,.38,0,.81-.11,1.01-.15-.23-.18-.63-.18-.81-.09.12-.16.24-.22.37-.02,1.48.1,2.93.18,4.08.09,1.18.14,2.09-.04,3.15-.14,0-.2.16-.24.38,0-3.21.02-5.73.05-5.44-.19-.34-.3.15-.42.39-.13.22-.27.26-.54-1.42.15,1.37.34,3.23.54,5.17.04.41.08.83.11,1.24.02.35.05.71.08,1.06.04.47.04.93,0,1.33-.04.08-.07.16-.13.22l-.04-.17c-.04.38,0,.72.06,1.04-.06.52-.11.86-.11,1.36-.31.19-.17,1.94-.18,2.78.41-.07.35,1.03.68,0-.03.14-.05-.16-.07-.72-.01-.13-.02-.28-.04-.36.01.01.02.03.03.06-.01-.55-.02-1.28-.03-2.1.21.67.38,1.37.16,2.3.26.43.54.91.66,1.18-.57,1.15-.88,3.38-1.23,3.69.23,2.57.16,6.07.93,7.69.1.73-.22.85-.34,1.12-.08-.42-.07-.93-.18-1.15.2,1.47.08,4.34.62,4.68-.24,1.85-.5-1.03-.4,1.5l-.17-.34c-.85,4.99,1.39,8.11.29,13.64.07-.38.1-.57.19-.66-.48,6.31.48,12.99-.29,19.22-.15,1.77.19,1.96.45,3.04l-.44.38.51,1.85c.37,2.62-1.07,4.53-.36,7.85l.3-.43c-.05,1.19.18,3.77-.16,3.57.05.12.31.39.16.86l-.23.04.4,2.92c-.16,2.27-.91-.35-.95,2.95.09,1.23.68,3.5.83,3.04,0-.49.14-1.27.37-1.31l.12,1.13c.68.2,1.38,1.07,1.85-1.7l-.42-1.92.33-.62.02,1.62c.31-.92.03-1.5-.16-2.15.18-.15.3-.43.36-.81l-.65-1.89c.27-.23.53.85.68-.42-.3-.88-.59.85-.79-.62.31-.92.56-.65.29-1.73.17-.15.29.08.36.51-.21-.96-.09-2.54-.45-3.04.38-.96-.1-3.24.54-3.15-.16-.3-.51-1.7-.53-2.57.77,1.61.04-3.31.86-2.88-.69-1.19-.32-4.31-.7-6.42.05.12.17.35.13.54.05-1.19.26-1.53.39-2.3-.57-.15-.7-2.01-1.06-3.01.55-1.46.67.88,1.2.43-.46.07-.47-2.53-.85-2.04.34-1.12.17-.96.64-1.54-.71-.19-.12-1.04-.56-1.96.35-1.62.67-.42.45-2.19.22-.85.47.73.47.73l-.02.05Zm-1.3-42.17h0c.01.36.02.68.03.87,0-.18-.01-.43-.03-.87Zm0-2.41c-.01.22-.02.51-.01.83-.14.02-.29-.11-.28-.35.09.17.18-.32.3-.47Zm-2.83,6.36c-.06-.56.02-.75.11-.82,0,.27.02.57.05.98.01.01.03.05.05.07-.08-.05-.15-.12-.2-.22Z"/><path class="cls-3" d="m189.56,309.43c-.16-.33-.32-.66-.49-.99-.31-.64-.54-1.2-.6-1.66.18.22.54.83.37.34-.18-.36-.6-1.26-1.01-2.16-.41-.91-.79-1.82-.96-2.47l.79,1.43c-.43-1.39-.93-2.73-1.42-3.93-.24-.6-.49-1.17-.73-1.7-.16-.3-.32-.59-.48-.87-.64-1.14-1.31-2.18-1.9-3.55.6-.22-.19-2.9-.58-4.24l.1.02c-1.39-3.88-2.99-6.36-4.61-9.83-.12-1.4-.96-3.67-1.86-6.05.47-.61,1.27-1.34,1.87-1.99.18.27.09.53-.36,1.14l.94-.87c.1-.33.34-.67.9-1.28l.04.51c1.23-1.18,2.19-2.68,3.99-3.98-.17-.36-1.99.42-.45-1.34.2.09.5.29.11.76.13-.16.41-.61.76-.82l-.45.88c.84-.57.19-.56.8-1.08.18.22.57-.25.65,0-.13.16-.59.38-.74.67.38-.31.81-.62,1.21-.87-.92.18-1.83.31-2.75.39-1.05,1.13-2.12,2.18-3.46,2.92.34-.31.68-.87.41-.62l-2.26,2.35c.42.07.45-.14,1.13-.42-.17.43-.73,1.17-1.32,1.71.92-1.16-.38-.39-.97-.09.15,0,.07.23.18.27-.46.2-.64.34-.71.47-.51-1.37-1.01-2.73-1.35-3.94.11.58-.5.1-.81-.51-.21-.88-1.33-2.13-.73-2.22l.11.3c.11-.31.06-.74-.07-1.22-1.55-.47-3.08-1.09-4.57-1.86l.06.12c-.07,0-.16-.1-.25-.22-.03-.02-.07-.04-.1-.05.24.61-.51.1.37,1.42,0-.28.3.03.4.04.12,1.01.94,3.09,1.66,4.59l-.4-.18c.78,2.11,1.77,4.33,2.74,6.63-.61.83-1.08,1.77-1.96,2.18.33-.46.92-1.02,1.25-1.47-1.26.55-1.29.74-2.04,1.35l.08-.06-1.77,1.37.5-.3c-.5,1.87-2.32,2.43-3.47,4.44,1.13-1.94.01-.51-.17-.94-.5.3-1.22.79-1.12.53-.52.98-1.47,1-2.18,2.39-.12-.05-.56.45-.78.45-.03-.02-.07-.05-.1-.07,0-.01-.02-.02-.02-.04,0,0,0,0-.01.01-1.67-1.22-3.4-2.45-4.36-3.64l-.02.32c-.79-.31-.68-.73-1.1-1.16-.06.21.54.74.06.53-1.39-1.01-2.75-2.09-4.09-3.23-.1-.47-.2-.94-.33-1.3.55-1.46.67.88,1.2.43-.46.07-.47-2.53-.85-2.04.34-1.12.17-.96.64-1.54-.72-.19-.12-1.04-.56-1.96.35-1.62.67-.42.45-2.19.18-.68.37.21.44.58-.03-1.52-.54-.67-.84-1.03-.16-2.15.39-1,.67-1.73-.15-1.35-.64-2.38-.62-3.38.09-.07.12-.27.23-.04-.43-1.42-.03-4.22-.57-5.88.05-.12.09-.18.13-.22-.27.27-.54.31-.74.26,0-.81-.35-1.5,0-1.81,0,.5.13.54.24.77l-.16-.85c.51-.76.17,1.16.55,1.16-.17-1.66-.59-3.58-.45-4.85.5-.27.17,2.96.61,1.27l-.18,1.96c.78-1.5-.05,1.19.78-.18.14-2.54-.24-2.89-.12-5.33-.1-.11-.2-.22-.3-.34-.12.05-.22.14-.38-.18-.01-.1-.02-.19-.03-.28-.81-.93-1.58-1.88-2.28-2.88,0,0,0,0-.01,0,0,0,0,0,0-.01-.03-.04-.06-.07-.08-.11,0,.03,0,.07,0,.1-.2-.06-.45-.1-.66-.17.07.21-2.27.2-2.49.8l-1.42-.24c-2.51.08-2.77,1.1-5.17,1.24.69-.38-.42-.48,1.16-.86-.8.08-1.53.1-1.52.3-.49-.13-2.18.61-2.94.41-.33.16-.4.47-1.3.54-.1-.05-.01-.14-.01-.14.01.14-1.39.34-.57.57-1.28-.32-3-.12-4.67.1-.84.11-1.67.22-2.43.27-.38.02-.74.03-1.07.02-.17,0-.33-.02-.49-.04-.18-.02-.34-.05-.5-.07-2.41.37-5.06.77-7.07,1.02-.04-.08-.29-.11.17-.14-.34.01-.63.03-.83.05.73.75,1.4,1.12,2.03,1.51.32.19.63.39.94.64.32.26.63.56,1.01,1.04.25.58-.09.33-.49-.03-.39-.36-.8-.78-.56-.41-.52.15.38,1.01,1.41,1.93.44.39.91.81,1.38,1.23.36.34.68.7.88,1.1l-.33-.25c.7,1.13,2.49,1.96,3.97,3.45,0,0-.13-.01-.11.09,1.38.64,3.45,2.41,5.03,3.68-.71-.16-.81-.48-.78.05.7.58.22-.62,1.61.53.29.55,1.13,1.56.99,1.98l-1.27-1.15c.29.97,1.63,1.49,2.25,2.15l-.24.09c2,1.69,2.4,1.31,4.48,3.2l-.1-.32c1.53.59.76,1.09,2.19,1.78l-.03.74c.85.57,3.06,1.9,4.51,3-1.06-.34-2.83-1.55-3.99-2.23.76.67,2.63,2.19,3.21,2.32-.35-.22-.83-.45-1.07-.77,1.24.45,2.6,1.35,4.14,2.63-.43.27.23.97,1.16,1.8-.04,1.2-.11,2.4-.26,3.57-.15,1.77.19,1.96.45,3.04l-.44.38.51,1.84c.37,2.62-1.08,4.53-.37,7.85l.3-.43c-.01.25,0,.56,0,.9-.04.01-.07.03-.11.04-.69.72-.12.83-1.21,1.6.05-.27.08-.65.32-1.1-.75.91-1.41,1.9-2.19,2.84-.4.04.27-.78.46-1.19-.91,1.02-2.39,2.62-2.42,3.2l.55-.38c-.18.05-.19-.25-.02-.49.63-1.03,1.31-1.08,1.45-1.02l-.56.66c1.22-.02,2.41-2.51,3.7-3.68l-.1.94.17-.29c.02.9,0,1.67-.18,1.56.05.12.31.39.16.85l-.23.04.4,2.92c-.16,2.27-.91-.35-.95,2.95.09,1.23.68,3.5.83,3.04,0-.5.14-1.27.37-1.31l.12,1.13c.68.2,1.38,1.07,1.85-1.69l-.42-1.92.33-.62.02,1.62c.31-.92.03-1.5-.16-2.15.17-.15.3-.43.36-.81l-.65-1.89c.27-.23.53.84.68-.42-.3-.88-.59.85-.79-.62.31-.92.56-.65.29-1.73.18-.15.29.08.37.5-.21-.96-.09-2.54-.45-3.04,0,0,0,0,0,0,.13-.18.29-.36.73-.57.12-.04.1.01.04.11l.75-.97c-.08.26.44.17-.16.62,1.82-1.26,2.24-2.77,3.15-3l-.11.15c2.06-2.25-.1-.52,1.19-2.48l1.87-.26-.09-.53c.24-.2.71-.61.75-.4.07-.12.12-.2.16-.27.51.41,1.03.82,1.58,1.23-.64-1.58.98.71,1.31-.15.8.54,1.08.77,1.12.87l2.03,2.16c.4.62-.85-.39-.9-.17,1.66,1.31.49.83,1.47,1.85-.04-.43.86.08,1.76.87-.38-.44-.76-.88-1.13-1.33,2.66,1.35,1.63,2.1,4.31,3.46l-.93-.32c1.32.77,4.61,3.24,6.24,3.51.17.24.32.64-.27.31.74.53,1.56,1.05,2.4,1.54l.65.38,1.07.66c.69.41,1.37.81,2.05,1.22,1.32.78,2.52,1.5,3.66,2.22.57.36,1.13.74,1.7,1.13.29.21.58.41.86.61.15.11.29.22.44.33l.22.17.05.04v-.02l-.02-.08c.28.42.19.4.22.51l.15.08s.05.03.06.02l-.06-.13c-.08-.17-.16-.34-.24-.51Zm-16.66-33.67c-.12-.02-.13-.09-.07-.18.02.06.05.12.07.18Zm-11.5,9.64s-.06.08-.09.11c-.03-.02-.05-.04-.08-.06-.01,0-.03-.02-.04-.03.11-.05.2-.08.21-.03Zm-21.76-18.35c-1.87-1.79-2,.02-4-2.64l1.01.27c-4.25-3.11-7.81-7.29-11.79-10.54.3.14.4.04.76.39-.13-.25-.38-.55-.67-.86-.07-.08-.15-.15-.23-.23l-.12-.12s-.03-.02-.05-.04c-.04-.03-.09-.06-.14-.08-.21-.1-.57-.25-.77-.25-.09-.11,0-.12.12-.11.12,0,.25,0,.33-.02.05-.04-.03-.1-.19-.18-.15-.08-.38-.2-.54-.32.03-.05.17-.07.46.02.13.04.12.1.12.13-.07-.08.19-.1.36-.14.16-.04.28-.1-.05-.26.48.04.72-.03,1.1-.11.87-.14,1.68-.26,2.46-.22.95-.56,3.3-.15,3.56-.81-.07.67,3.42.18,4.6-.26-.38.24,1.07.09.63.42,1.38-.15,2.64-.4,2.36-.71,2.63.52,5.07-1.15,6.6-.27,1.23-.23,2.42-.43,3.6-.63.07.31.16.54.28.62-.24,1.85-.5-1.03-.4,1.5l-.17-.34c-.85,4.99,1.39,8.11.29,13.64.07-.38.1-.57.19-.66-.3,3.93-.04,8,.01,12.02-3.32-2.96-6.53-6.16-9.71-9.2Zm16.04,23.9c-1.69,2-1.71,2.67-3.29,4.52-.75.4.12-.83.12-.83-.32.23-.61.45-.87.67.02-.96-.05-1.96.38-1.9-.16-.3-.51-1.7-.54-2.57.77,1.61.04-3.31.87-2.88-.64-1.1-.37-3.85-.63-5.93.42.43.75.83.88,1.16.76.48,1.47,1,2.17,1.55.71.55,1.39,1.13,2.09,1.73.57.5,1.16,1,1.76,1.52-1.02.81-2.1,1.72-2.92,2.95Zm27.8,11.53c-.23-.23-.43-.48-.53-.66v-.04c-.15.07-.65-.26-1.07-.62-.21-.18-.41-.37-.57-.55l-.11-.13s-.08-.07-.13-.12l-.17-.14c-.22-.19-.44-.37-.66-.56-1.75-1.47-3.39-2.89-4.96-3.51l.17.07c-1.01-.53-2.01-1.08-3.01-1.64-1.23-.97.92.32.12-.54-3.35-1.63-4.63-3.48-7.31-4.94-.48-.91-1.63-1.89-2.98-2.89.38-.31.71-.5.95-.41.16-.62-1.22.8-.22-.48.86.24,1.26-1.37,2.5-2.07-.04.58-1.13,1.32.12.63.15-1.05,2.05-1.74,2.81-2.63-.32-.42,1.69-1.89,2.99-3.36.02.11.82-.54,1.79-1.34.15.38.31.75.46,1.13-.31-1.17.3-1.11.71-.21l-.3.54c.51.48-.2-1.02.6.06.4,1.19-.2.98-.6.36l.71,1.36c-.1.14-.3-.17-.5-.19.5.48.51,2.63,1.31,3.29l-.1.13c1.2,3.14,1.9,4.5,2.9,7.05.4-.1.7.94,1.29,1.58.59,1.93,1.08,4.13,1.96,6.38.79,1.53.5.35,1,.98-.04.03-.06.09-.06.18-.01.07.02.22,0,.25-.02.11-.02.21-.03.29-.02.17-.06.2-.27.03.16.35.27.6.45.94.11.2.22.42.35.67.08.16.18.33.28.52l.04.08h-.08s-.08-.02-.13-.02c.38.44.72.74.85.98-.1-.03-.35-.24-.58-.48Z"/></g></svg>