<?xml version="1.0" encoding="UTF-8"?><svg id="Layer_2" xmlns="http://www.w3.org/2000/svg" viewBox="0 0 331 372.52"><defs><style>.cls-1{fill:#fff;}.cls-2{fill:#4eb6ce;}</style></defs><g id="shapes"><path class="cls-1" d="m62.71,136.9c-32.8,31.52-17.54,107.85-.07,147.35,10.15,28.5,24.74,54.42,50.43,69.93,25.69,15.51,141.08,33.86,191.55-4.1,50.47-37.96,6.3-165.96-59.36-214.82-65.66-48.86-149.74-29.88-182.55,1.64Z"/><path class="cls-2" d="m0,212.9c0,.87.15.98.35.81.32-.26.48-.59.9-.83,2.02-.28.4.54.83.9.75-.12,1.45-.37,2.04-.58.59-.21,1.06-.39,1.5-.39.04.12.22.16-.01.32.18-.08.36-.14.56-.19.09-.03.2-.05.3-.07.09-.01.18-.03.27-.05.26-.05.53-.07.82-.09.57-.05,1.15-.11,1.58-.5.07.06.1.13.12.18-.15-.37-.19-.75-.17-1.02.42-.03.77-.5.95-.01-.26,0-.28.19-.39.34l.44-.22c.42.69-.6.26-.59.78.86-.26,1.85-.86,2.53-.69.16.68-1.55.28-.64.86l-1.04-.23c.82,1.06-.63-.05.13,1.08,1.36.16,1.5-.4,2.86-.24.29-.39-.11-.56.18-.95,1.9-.74,1.56,1.68,2.94.73.35-.47.47-1.34,1.49-.91l-.32.79c1.31.04.72-1.14,2.1-.65-.24.31-1.02.28-.82.37.9.59.62-.46,1.3-.48l.16.68c1.39-.15,2.92-.67,4.46-.83-.08.21-.34.43.03.63,1.94-.39,4.16,0,6.05.36l.71-.61c.17,0,.32.26.13.38.73.21.03-.38.38-.62.42-.05.56.33.3.51,1.28-.52,3.66-1.14,5.03-.54l-.26.18c1.06.22,1.18-1.24,2.17-.7l-.19.11c2.3.22,4.84-.36,6.61.52.32-.85,2.28.36,2.42-.84,1.32.58.95.79,2.8,1.17.49.05.73-.75,1.34-.88l.02.62.82-.66.44.74.57-.16c-.23-.03-.48-.28-.45-.46.9-.29,2.19.42,2.21.73l2.11-.54c-.05.25-.4.34-.68.5,1.12-.64.21.65,1.24.07-.14-.14.07-.37.09-.5.52.38,1.69.37,2.56.21l-.17.43c1.57.1,3.31-.22,5.07-.21-.63-.2-.49-.94.03-1.02l.21.66c.33-.4-.54-.25.14-.75.66.07.44.75.07.96l.8-.23c.05.2-.14.3-.19.55.33-.41,1.38.66,1.86-.05l.05.2c1.76,0,2.56-.22,3.99-.25.03-.57.59-.44,1.02-.9,1.06.18,2.22.64,3.5.59.9-.28.26-.48.67-.81.06.52,1.33.48.67.84,1.53-.08,1.95-.09,3.88-.5-.21-.21-.44-.31-.32-.48.35-.08.79.22.74.47l-.09.05c2.18-.76,4.98,1.55,6.72.49l-.09.05,1.8-.55c.82.1-.5.38.11.71.97-.42,1.73-.38,2.45-.3.18.02.36.04.53.06.06,0,.22.01.38.02h.46c.61.02,1.25-.01,1.84-.15.69.39,1.59.59,2.57.67.24.02.49.04.74.05.12,0,.25,0,.38.01.11,0,.3.05.24-.13-.03-.51-.07-1.06-.13-1.6-.1-1.1-.22-2.19-.27-3.17-.02-.5-.03-.97,0-1.43v-.17s.03-.1.03-.1c.01-.06.03-.12.05-.18.03-.11.08-.23.14-.34l-.36.11c-.38-.41.18-.53.24-.85-.28.06-.3.49-.51.23-.64-3.62.06-7.56.09-11.33-.01-1.37-1.91-.63-1.2-2.42l.71.44c-1.02-2.69-.45-5.64-1.39-8.28.17.15.37.14.39.4.43-.61-.18-2.11-.58-2.08,0-.42.34-.13.52-.41.23-.6-.76-1.37-.31-1.72.07-.06.18.14.22.24-.27-.35-.12-1.74-.64-1.33.04-.26.03-.51,0-.75-.01-.12-.03-.24-.06-.36-.03-.12-.05-.21-.09-.44-.13-.79-.26-1.48-.18-2.26-.34-.28-.35-1.02-.38-1.72,0-.17-.02-.34-.03-.49,0-.07-.02-.14-.03-.21-.05-.03-.14,0-.2,0-.28.05-.55.16-.79.37.92-.91-2.74-.75-3.78-.33.09-.07.08-.12.02-.17-.05-.05-.2-.09-.25-.13-.13-.09-.26-.18-.13-.38-.73,0-1.4.18-1.28.65-1.33-1.1-2.71.87-3.45-.54-2.18.48-4.18.8-6.14,1,.08-.91,2.16-.08,2.08-1.04-1.85.36-2.93,1.15-4.76.92-.47-.13.28-.39.44-.54-1.85.36-3.58-.1-5.23.38,0-.09.18-.18.35-.24-.32.03-.75-.13-.72.28l.32-.11c.51.61-1.3,1.25-1.36,1.57.56-1.19-1.62-.31-.73-1.81-.22.07-.48.27-.44.55-.32-.08-.42-.24-.09-.56-1.17.22-.75.66-1.8.65,0-.2.22-.28.33-.51-.54.39-1.07.77-1.96.6.05-.12-.05-.28.22-.28-1.53.05-2.61,1.03-4.28.64.5-.87-.57-.29-.65-1.04l-.9.22.36.37c-.79-.02-1.49.53-2.17.28l.59-.31-1.48.14.84.29c-.8.38.08.96-.97.74.22-.07-.79-.01-1.2-.46-.39.24-.79.49-1.38.3-.15-.24.13-.84.03-1-.39.63-1.85.17-2.34.84.16-.16.18-.55.12-.63l-.32.51c-.36-.17-.42-.24-.36-.56-1.1-.1.34.96-.96.54.1-.04.05-.11.27-.19-1.31-.22-2.53.31-3.74.05-.35-.76,1.05-.18.65-.82-1.74.13-3.6.89-5.28.71l.31.09c-.24,1.07-1.25-.53-2.1-.03.21-.08.28-.59.22-.47-1.15-.18-2.36.25-4.1.58l.22-.28c-.68-.25-1.78-.15-2.52-.28-.22.28-.64.23-.38.63-2.26-1.57-4.31.82-6.31-.5.24,0,.57-.24.38-.24l-1.71.24c.13.46.22.28.58.65-.22.28-.7.49-1.12.49.77-.3,0-.75-.34-1.01.05.14-.06.3-.03.44-.89-.84-.15.94-1.37.37l.07-.24c-.46.12-.88.44-1.37.37-.2-.54.48-.25.52-.69-.69.03-1.37,1.02-1.99.48.3-.15.71-.15,1.01-.3-.68-.64-.76-.48-1.27-.58h.05s-1.17-.28-1.17-.28l.3.17c-.87,1.4-1.76.25-2.92,1.17,1.13-.87.19-.51.28-1.12-.3-.17-.75-.36-.62-.54-.55.49-.92-.39-1.7.32-.03-.19-.59-.02-.46-.52-.71.15.17.34.11.59-1.1.67-2.59-.83-4.18.09-1.37.37-1.62,1.04-2.89,1.36-.43-.32.35-.71.35-.71-.69-.3-1.21-.24-1.86-.02.13-.17,0-.32-.2-.54-.53.05-.35.71-1.04.42.12-.21.27-.57.53-.79-.61.17-1.23.55-1.86.72-.17-.34.38-.52.61-.74-.71.15-1.86.3-2.07.84l.46.2c-.26.03-.13-.46.06-.57.61-.43.88.19.92.39l-.45.12c.46,1.16,1.83-.18,2.73-.11l-.38.84.94-.69c.2.22.34.69-.11.82.65.42.58-.3,1.14.17.06.07.03.11-.03.15l.64-.25c-.13.17.11.59-.29.47,1.14.49,1.85-.62,2.28.02l-.09.05c1.6-.28.15-.62,1.35-1.33l.8,1.53.15-.61c.16.02.49.07.43.32.61-.42-.1-.27.25-.67.79.56,2.18-.25,2.36.73.28-.46-.75-.36.09-.69.24,1.06.98-.18,1.7.31-.22.54-.91.25-.18.74.44-.92,1.41.21,2.01.03.03-.73,1.33-.3,2.35-.54-.07.24,1.93.41,2.88.68l-.03.12c.19-.74,1.17-.6,1.89-.75-.03.44-.16.62-.55.82h.67c.16-.24.37-.36.81-.44l-.17.55c.9-.03,1.8-.65,2.95-.27.07-.52-.91-1.45.31-1.78.05.28.09.76-.23.87.1-.03.37-.23.58-.11l-.48.47c.53.21.28-.39.69-.34,0,.4.31.29.25.6-.11.04-.36-.17-.53-.01.47.07,1.04.32,1.23.62-.04-.23,0-.54.35-.59.9-.03.3.48.83.69.22-.28.79.01.8-.58.26,0,.31.28.41.44.46-.26,2.16-.07,1.64-.7l-.12-.04s.05-.01.07-.03c1.52-.59,3.15.36,4.65.11v.2c.9-.22,2-.13,2.64-.55.26,0,.63.37.51.61.69-.15.77-.37,1.76-.03-.69.34.24.31-.71.25.89.18,1.09.5,2.05-.04-.33.51.67.65,1.09.5l-.63-.37c.48-.07.9-.03,1.32.02l-.24.67c1.82.83,3.3-1.37,4.68,0,.48-.46-.99-.34-.55-.88.84.09,1.71,1.06,1.97,1.07,1.14.38,1.08-.98,2.28-.71-.15-.24-.3-.88.61-1.1.84.1,1.02,1.01.49,1.2-.2.02-.3-.05-.29-.14-.27.09-.63.19-.3.45l.11-.24c.42.25,1.57.23,1.3.62.64-.23.28-.39-.2-.52,1.08.35,1.68.02,2.79.26-.18-.13-.34-.42-.16-.41,1.62.3.72-.45,1.83-.55.63.37-.23.87.88.57.67.25.14.64-.13.83,1.02-.46,1.89.32,2.46.4l-.53.19c.32-.12.58-.11.85-.11l-.3-.48c.31.09.58.09.57.29.32-.31-.24-.8.4-1.23.42.24,1.27-.26,1.41.38-1.31-.22.14.64-.97.73.22-.07.48-.07.79.01.05.07-.05.13-.13.17,1.25.57.58-.71,1.89-.69-.17.36.3.68.51.61-.53,0-.25-.6.24-.87.84.28.91-.2,1.35-.17l-.5-.14c.18-.36.59-.31,1.17-.42.05.28-.53.19-.32.32.65-.63,1.45.66,2.36.24.42.24.03.67.4.84,1.01-.46,1.09.5,2.16.12-.3-.49-.36-.36.4-.83l-1.74.33,1.12-.69c-.53,0-1.11.3-1.43.22.54-.39.48-.27.23-.67.71.73,1.43-.41,2.26.08l-.03,1.19c1.25.54,2.23-.6,3.85-.29l-.52-.21c.22-.47,1-.06,1.53-.25-.05.4.28.55.5.79-.03-.3,1.19.03,1.35-.76l.72.53c1.31.22,1.51-1.13,2.77-.99-.38.43.19.71-.66,1.02.42,0,.8.08.81-.2.24.25,1.18-.53,1.55-.15.09-.18.16-.59.49-.56.01.08-.05.2-.05.2.03-.2.6-.26.44-.71.17.31.36.46.59.53.12.03.25.05.4.05.1-.03.06.1.09.15l.04.21c.1.52.24,1.21-.25,1.59.23.86.47,1.97.59,2.79-.12-.04-.2.02-.18-.14-.25,1.18,1.21.58.93,1.93-.58.73-.42-.65-.62-.21-1.29.31.34,1.55-.35,2.5l-.09-.2c-.38.71.65,1.58.65,2.69,0,0-.12-.04-.2.01.73.69,1.08,2.09,1.35,3.12-.54-.28-.31-.46-.81-.21.11.46.82-.21,1.05.72-.26.33-.44,1.03-.99,1.17l-.1-.89c-.68.51.12,1.14.03,1.62l-.32-.03c.21,1.35,1,1.31,1.06,2.78l.23-.17c.84.74-.39.71.25,1.46l-.78.3c.23.51.9,1.8,1.11,2.73-.63-.5-1-1.58-1.4-2.24.03.53.18,1.77.59,2.02-.09-.21-.3-.46-.2-.67.67.6,1.03,1.43,1.09,2.47-1.56-.09-.22,2.75-1.37,3.58.17.45.26.91.28,1.37,0,.11.01.25.01.32,0,.05,0,.09-.01.13-.01.09-.03.17-.06.24-.05.15-.12.27-.18.38-.03.05-.05.11-.05.16,0,.05-.03.03-.07.03h-.1c1.35,1.22-.18.03.76,1.28-.28.07-.44.05-.5-.03-.45-.25-.79-.51-1.01-.75-.13-.36.17-.27.11-.55-.08-.03-.1-.07-.16-.13-.11-.06-.15-.13-.18-.22-.07-.16-.09-.35-.45-.52.14.45-.39.63-1.02.45l.88.58c-1.55.63-1.32-1.06-2.88-.43l.5-.38c-.8.22-2.94-.04-3.74.94-.14-.14-.32-.49.03-.57-1.91-.18-4.25,1.02-5.72.4l.15-.3c-.36.09-.62.57-1.06.26.03-.13.15-.3-.02-.32-.19.1-.95.52-1.42.34l.4-.34c-1.86-.4-2.86.82-4.42,1.02,0-.89-1.45-1.19-2.18-1.33l.03-.13c-2.17-.11-3.68.73-5.68,1.08-1.25-.96-4.22-.4-6.22-.93.3.16-.05.69-.4.78-.47-.18-1.29.63-1.23-.19h.17c-.36-.79-1.32-.57-2.07-.59l-.12,1.07c-1.98-1.54-5.15.61-6.24-.77-.47.27-1.06.27-1.53.54l.02-.57c-1.32-.14-1.98-.2-3.6-.04l.33-.41c-.92-.03-1.14,1.66-1.99,1.7l-.26-.85c-1.6.03-3.23-.69-4.8.11.03-.13.07-.37.32-.41-.75-.01-2.93-.53-2.63.63-.03-.76-1.66-.05-2.51.3l.13-.57c-.72.74-.73.93-1.75,1.15-.24-.07-.22-.44.1-.31-.81-.28-.62.54-1.6.26l.36-.36c-.83-.03-.76.17-1.21.59-.52.24-1.58-.11-1.7-.62-.11.31-.55.73-1.04.6-.07-.19.11-.32.2-.38-1.39-.36-2.05.69-3.01.17-.03-.19-.09-.28-.17-.33,1.1-.01,1.99,0,1.91.04-.01-.52-.9-.59-.21-1.32-.71.4-1.91,1.29-2.77,1.06-.04-.05-.09-.1-.12-.18l.09-.06c-.2-.05-.38,0-.55.09-.28-.08-.46-.13-.72-.14-.11-.42-1.02-.21-1.47-.22.05.57-.53.49.02.94-.07-.04.08-.07.38-.1.07-.02.14-.03.19-.06,0,.01-.02.03-.03.05.29-.02.67-.05,1.1-.06-.34.3-.7.55-1.2.24-.22.37-.46.76-.59.93-.63-.78-1.8-1.17-1.98-1.66-1.35.36-3.18.3-4,1.39-.38.15-.45-.3-.6-.46.22-.11.48-.1.6-.26-.76.3-2.28.18-2.44.92-.98-.31.53-.7-.8-.54l.18-.24c-1.33-.56-2.38-.05-3.46.42-.55.24-1.1.46-1.7.53-.28.04-.65.04-.9-.01-.23-.05-.46-.17-.61-.36.09.09.15.13.15.26-.53-.15-.98-.18-1.52-.15,0-.38-.05-.74-.09-1.13l-.06-.61-.03-.32-.02-.46c-.04-1.27.03-2.52.42-3.74.22-.93-.26-1.03-.63-1.6l.61-.2-.71-.97c-.52-1.37,1.5-2.38.52-4.12l-.41.22c.07-.63-.24-1.98.23-1.87-.07-.06-.42-.2-.22-.45l.32-.02-.55-1.54c.23-1.19,1.27.18,1.33-1.55-.12-.65-.93-1.84-1.14-1.6-.01.26-.2.67-.52.69l-.17-.59c-.94-.11-1.91-.56-2.56.89l.58,1.01-.46.32-.03-.85c-.43.48-.05.79.22,1.13-.24.08-.41.22-.51.42l.9.99c-.37.12-.73-.44-.94.22.42.46.82-.44,1.1.32-.42.49-.77.34-.41.91-.24.08-.4-.04-.51-.26.29.51.13,1.33.63,1.6-.53.5.14,1.7-.75,1.66.22.15.7.89.74,1.35-1.06-.84-.06,1.74-1.21,1.51.96.63.43,2.26.96,3.37-.07-.06-.23-.18-.18-.28-.08.63-.37.81-.55,1.21.79.08.98,1.05,1.46,1.58-.76.77-.93-.46-1.66-.22.32-.02.48.31.63.62.07.15.14.28.23.46.09.15.19.2.32.09-.24.48-.29.71-.37.88-.08.18-.18.28-.51.65.49-.05.54.15.53.46,0,.3-.06.74.25.95-.48,1.71-.92,1.06-.62,2.44-.15.54-.32.55-.44.38-.16-.17-.25-.51-.25-.51Zm24.8-1.27h0c-.19.03-.35.05-.46.05.09-.01.23-.03.46-.05Zm1.86-.05c-.23-.02-.51-.01-.81,0-.07-.19,0-.4.18-.39-.1.13.34.24.63.4h0Zm-4.03-3.84c.29-.09.4.02.44.13-.14.01-.3.03-.51.08,0,.02-.03.05-.03.07.03-.11.05-.21.11-.29h0Z"/><path class="cls-2" d="m90.34,13.39c-1.61-.07-.78.71-1.14,1.12-1.93.15-.87-.58-1.51-.98-1.21.15-2.16.79-3.05.72-.06-.13-.24-.18-.02-.32-.65.27-1.59.23-2.56.22-.97-.03-1.96-.05-2.73.28-.11-.07-.15-.14-.18-.2.22.39.23.77.16,1.04-.73-.03-1.37.39-1.62-.11.44.04.49-.15.71-.29l-.77.16c-.63-.74,1.05-.18,1.08-.69-1.49.15-3.25.6-4.36.3-.18-.7,2.66-.02,1.2-.75.57.13,1.15.27,1.72.39-1.26-1.17,1.06.14-.09-1.09-2.28-.36-2.59.15-4.86-.23-.55.34.12.58-.42.92-3.32.38-2.39-1.97-4.86-1.29-.66.39-1,1.25-2.65.57l.67-.7c-2.2-.34-1.39.95-3.64.15.45-.25,1.77-.04,1.45-.18-1.42-.79-1.11.31-2.27.17l-.15-.71c-2.34-.25-5.01-.08-7.61-.44.18-.18.65-.31.09-.63-1.66-.11-3.39-.42-5.07-.9-.84-.23-1.68-.48-2.49-.74-.4-.13-.81-.26-1.2-.4-.2-.07-.39-.14-.58-.22l-.28-.11-.14-.05-.07-.03-.13-.04c-.78.02-1.49.05-2.13.11-.46-.11-.96-.5-.44-.5-1.13-.38-1.14-.28-.96-.09.18.2.48.48.05.5-1.07-.21-1.73-.75-1.06-.78-.43-.04-.9-.09-1.41-.13l-.19-.02c-.02.05,0,.15-.01.22v.47c0,.31,0,.63,0,.96-.01,1.29-.05,2.57-.1,3.81-.08,1.41-.1,1.98-.2,2.77-.09.75-.24,1.43-.45,2l-.13-.47c-.4,1.8,1.04,2.16.35,3.79l-.08-.33c-.57,3.93-.3,8.32-1.35,11.29.81.62-.59,3.89.6,4.2-.69,2.23-.88,1.58-1.4,4.74-.09.85.69,1.29.78,2.34h-.63l.61,1.45-.77.73.13.99c.05-.39.31-.82.48-.76.23,1.54-.54,3.73-.86,3.76l.44,3.65c-.25-.09-.32-.7-.47-1.19.59,1.95-.67.34-.12,2.13.15-.24.37.13.49.18-.4.88-.44,2.9-.31,4.39l-.42-.3c-.15,2.69.11,5.68.06,8.71.22-1.08.96-.82,1.02.07l-.66.34c.4.58.26-.92.74.26-.09,1.12-.76.75-.96.1l.21,1.37c-.2.08-.3-.24-.55-.33.4.57-.69,2.36,0,3.19l-.2.07c-.04,3.02.17,4.39.17,6.85.57.05.43,1.02.88,1.75-.2,1.8-.67,3.81-.65,5.99.26,1.54.48.45.8,1.14-.52.11-.5,2.28-.86,1.15.05,2.61.06,3.34.44,6.65.22-.36.32-.76.48-.55.08.6-.24,1.36-.48,1.27l-.05-.16c.73,3.72-1.62,8.55-.57,11.51l-.05-.17.53,3.07c-.11,1.41-.38-.85-.71.19.82,3.31-.19,5.22.35,7.95-1.56,2.09.01,7.47-1,10.31l.36-.16c.34.74-.22.89-.3,1.43.28-.07.33-.79.53-.34.08,1.38.09,2.78.05,4.2-.03,1.06-.07,2.13-.1,3.2-.05,1.27-.11,2.55-.16,3.83,1.56-.07,3.12-.15,4.69-.22l1.23-.05h.31s.24-.01.24-.01h.34s1.35,0,1.35,0c1.8-.03,3.6-.04,5.38-.11,2.34-.11,1.16-1.97,4.16-1.37l-.77.74c4.62-1.21,9.6-.82,14.14-1.9-.26.18-.25.38-.7.42,1.01.4,3.59-.3,3.57-.69.72-.02.2.34.65.5,1,.2,2.39-.83,2.95-.4.09.07-.26.18-.44.24.61-.29,2.96-.2,2.3-.71,1.75.11,3.28-.54,4.68-.33.84-.7,2.98.04,3.19-.86-.05.92,3.08.47,4.13-.05-.34.3.97.2.58.62,1.24-.11,2.36-.38,2.11-.83,2.38.9,4.53-1.25,5.93.05,3.65-.77,7.04-1.35,10.35-1.77-.06.92-3.66.33-3.46,1.28,1.56-.3,2.78-.67,4.01-.96.61-.15,1.23-.28,1.88-.36.33-.04.67-.08,1.02-.1.37-.02.64-.02,1.02,0,.73.13-.43.38-.63.56,1.31-.24,2.82-.07,4.27.07,1.46.15,2.92.3,4.4.14-.01.08-.34.15-.63.2.57.01,1.33.22,1.29-.2l-.57.08c-.44-.34.15-.6.85-.84.71-.24,1.52-.48,1.58-.63-.49.59.22.67.89.77.66.09,1.29.19.51,1,.4-.1.9-.34.78-.61.6.02.83.15.24.54,1.12-.24,1.48-.52,1.79-.73.15-.1.3-.21.55-.33.25-.11.58-.26,1.08-.49.08.2-.32.45-.46.75.49-.39.95-.83,1.47-1.33.5-.52,1.08-1.12,1.65-2.01.04.17.32.03-.03.59.24-.4.43-.82.54-1.23.13-.42.14-.73.2-1.09.05-.68.03-1.32-.02-1.95-.1-1.25-.26-2.44-.14-3.92.92.83.24-1.02.97-1.21l-.34-1.55-.32.65c-.09-1.36-.75-2.5-.57-3.65l.38.96c-.11-.82-.21-1.64-.26-2.42-.09.44-.17.91-.24,1.38-.44-1.31-.97.19-.8-1.58.07.36,0-1.35.45-2.06-.24-.67-.49-1.35-.3-2.35.24-.26.84.21,1,.04-.63-.66-.18-3.17-.85-3.99.15.28.55.29.63.2l-.51-.55c.16-.63.24-.71.56-.61.09-1.88-.96.6-.55-1.64.04.18.12.09.2.46.22-2.24-.32-4.33-.07-6.39.76-.61.19,1.8.83,1.1-.14-2.97-.91-6.16-.73-9.02l-.08.54c-1.07-.4.53-2.14.03-3.6.08.36.59.46.48.37.18-1.97-.26-4.03-.6-7.01l.28.37c.24-1.16.14-3.06.27-4.31-.28-.37-.23-1.09-.63-.65,1.57-3.87-.84-7.37.46-10.8,0,.41.24.98.24.65l-.26-2.92c-.46.23-.28.38-.65,1-.28-.37-.49-1.19-.49-1.92.31,1.31.75-.01,1.01-.58-.14.09-.3-.1-.44-.05.83-1.53-.94-.26-.38-2.34l.24.11c-.13-.78-.45-1.5-.38-2.34.54-.35.25.83.69.88-.03-1.18-1.02-2.33-.49-3.4.15.5.15,1.23.3,1.72.63-1.17.47-1.3.57-2.16v.09s.28-2,.28-2l-.17.51c-1.41-1.47-.26-3.01-1.18-5,.88,1.93.51.32,1.12.46.17-.51.36-1.28.53-1.06-.49-.94.39-1.58-.34-2.9.19-.06.02-1,.51-.79-.15-1.23-.34.29-.59.19-.67-1.89.81-4.43-.11-7.15-.38-2.34-1.05-2.77-1.38-4.94.32-.73.72.6.72.6.29-1.19.24-2.07,0-3.19.17.22.32,0,.54-.34-.05-.9-.72-.6-.43-1.78.22.2.57.46.8.89-.18-1.05-.55-2.09-.73-3.19.34-.29.52.66.75,1.04-.15-1.23-.31-3.17-.85-3.55l-.2.79c-.03-.44.47-.23.57.1.42,1.05-.19,1.52-.38,1.58l-.13-.77c-1.16.79.19,3.12.12,4.68l-.84-.65.7,1.6c-.22.34-.69.57-.82-.2-.41,1.12.3.99-.16,1.95-.07.11-.11.06-.15-.04l.25,1.1c-.18-.22-.59.18-.47-.49-.49,1.97.63,3.17,0,3.91l-.05-.16c.29,2.73.62.26,1.35,2.31l-1.52,1.38.62.27c-.02.28-.07.84-.32.73.42,1.04.27-.18.67.43-.56,1.35.27,3.73-.71,4.04.47.48.36-1.29.69.15-1.06.41.18,1.67-.3,2.91-.55-.38-.26-1.55-.74-.32.92.75-.2,2.41-.03,3.45.73.05.3,2.27.55,4.02-.25-.11-.4,3.29-.67,4.92l-.12-.05c.74.32.6,1.99.76,3.22-.44-.05-.62-.27-.82-.93v1.15c.24.27.36.63.45,1.37l-.55-.29c.03,1.53.65,3.08.28,5.05.52.11,1.44-1.57,1.78.52-.28.07-.76.15-.88-.39.03.18.24.64.11,1l-.47-.83c-.21.9.39.47.35,1.19-.4-.01-.28.53-.6.43-.04-.18.16-.63,0-.9-.07.81-.31,1.78-.61,2.11.23-.07.54,0,.59.59.03,1.53-.48.53-.69,1.41.28.37-.01,1.35.59,1.37,0,.45-.28.53-.44.7.26.79.07,3.7.71,2.81l.04-.2s.01.08.03.13c.59,2.59-.34,5.39-.08,7.97h-.2c.23,1.54.14,3.42.57,4.52,0,.46-.36,1.07-.6.88.15,1.18.38,1.31.05,3-.35-1.18-.31.41-.26-1.21-.18,1.53-.49,1.87.05,3.52-.51-.56-.65,1.15-.49,1.88l.36-1.07c.07.81.03,1.53-.01,2.26l-.67-.39c-.81,3.12,1.39,5.64.02,8.01.47.83.33-1.7.88-.96-.09,1.43-1.06,2.94-1.06,3.39-.37,1.97.98,1.84.73,3.9.24-.26.87-.52,1.11,1.04-.04,1.45-.92,1.86-1.17.93-.03-.36.03-.54.11-.53-.1-.49-.21-1.14-.46-.53l.24.2c-.24.78-.06,2.8-.49,2.35.31,1.09.43.44.49-.38-.21,1.9.24,2.9.11,4.75.12-.3.38-.59.4-.3-.18,2.7.52,1.17.63,2.99-.4,1-.83-.37-.65,1.37-.37.98-.65.12-.81-.27.16.75-.05,1.4-.33,1.82-.25.28-.54.28-.67.35.03-.11,0-.21,0-.3.02.17-.04.27-.17.36.15.09.31.17.46.23-.2.1-.38.2-.49.03-.02.2.11.35.25.52.12.17.27.38,0,.75-.28,0-.65.21-1.04.33-.39.12-.77.14-.92-.15.95-.06.83-.24.71-.4-.15-.18-.25-.37.34-.61-.21.14-.51.24-.94.22-.07-.06.03-.14.14-.19-.84-.14-1.04.04-1.22.31-.2.26-.4.61-1.43.62.26-.36-.47-.68-.8-.61.82.01.4.61-.4.86-1.35-.34-1.5.12-2.23.03l.82.2c-.3.34-1,.24-1.99.26-.05-.28.91-.11.57-.26-1.14.53-2.4-.9-4.01-.61-.71-.3-.01-.68-.65-.89-.92.17-1.42.03-1.96-.11-.27-.07-.55-.13-.91-.15-.36-.01-.67.02-1.13.14.55.45.63.33-.61.87l1.48-.26c.54-.09,1.12-.15,1.66-.19-.35.1-.7.22-1.06.34-.37.13-.69.26-.99.4.42-.02.97-.13,1.43-.19.46-.07.88-.11,1.16-.05-.98.36-.87.24-.43.65-.61-.39-1.33-.27-1.95-.09-.63.18-1.27.37-2,.18l-.03-1.19c-2.18-.4-3.77.85-6.57.75l.91.15c-.34.5-1.71.19-2.6.44.05-.4-.52-.5-.92-.73.07.29-2.03.12-2.23.94l-1.28-.43c-2.26-.04-2.47,1.33-4.63,1.37.61-.49-.39-.69,1.03-1.11-.72.05-1.37.03-1.36.31-.44-.22-1.95.7-2.64.38-.29.2-.35.63-1.16.66-.09-.07-.01-.19-.01-.19.01.19-1.24.38-.5.75-2.32-1.05-6.18.63-8.2-.27-1.56.27-3.43.57-4.85.72.08-.13-.01-.2.26-.18-1.99-.19-1.1,1.25-3.37,1.03-1.2-.54,1.15-.45.42-.63-.42-1.28-2.68.42-4.25-.22l.36-.11c-1.19-.34-2.76.74-4.64.82,0,0,.08-.12,0-.2-1.23.78-3.64,1.21-5.42,1.56.52-.56.79-.34.41-.83-.8.15.31.81-1.29,1.1-.55-.24-1.74-.38-1.94-.92l1.52-.16c-.84-.65-1.97.2-2.78.14l.07-.32c-2.32.31-2.29,1.1-4.8,1.27l.28.21c-1.3.9-1.19-.34-2.51.36l-.48-.76c-.44.14-1.22.39-2.09.66-.25.07-.37.13-.54.19-.17.06-.34.12-.53.18-.36.11-.75.21-1.1.28.57-.35,1.14-.62,1.6-.86.12-.06.21-.11.33-.17.18-.06.36-.12.53-.18.35-.12.68-.24.97-.34-.22.02-.53.05-.86.09-.31.04-.79.1-.86.14-.32.09-.68.24-.92.46.26-.1.53-.32.69-.21-.46.48-1.33.84-2.34,1.06-.05-.31-.07-.7-.06-1.14.39-.19.61-.51.74-.82.07-.15.11-.32.14-.48.01-.08.03-.17.04-.26v-.15s.03-.26.03-.26c.07-1.37.1-2.94.71-3.59-.53-3.18.32-6.29.28-9.99-1.22,1.3-.02-1.08-1.26-.87-.07-.86-.04-1.19.04-1.27l.77-2.6c.37-.61.26.82.54.75.12-1.89.53-.79.88-2.03-.44.25-.63-.67-.44-1.74l-.59,1.51c-.63-2.64,1.06-2.26.44-4.93l.38.84c-.22-1.37.07-5.02-.91-6.38.15-.24.48-.55.57.05.19-3.25-.97-7.26-.32-9.79l.3.25c-.08-.61-.55-1.06-.24-1.82.12.04.3.25.32-.03-.1-.32-.51-1.62-.32-2.42l.33.69c.44-3.17-.77-4.88-.94-7.55.89.02,1.21-2.48,1.37-3.72l.13.05c.15-3.7-.66-6.29-.96-9.72.99-2.11.5-7.19,1.1-10.59-.17.52-.69-.09-.77-.71.2-.79-.57-2.22.24-2.08l-.02.28c.81-.59.63-2.24.68-3.52l-1.06-.24c1.62-3.32-.33-8.82,1.12-10.6-.24-.82-.2-1.82-.43-2.63l.57.07c.23-2.24.36-3.35.35-6.12l.38.59c.12-1.56-1.54-2.05-1.5-3.5l.88-.38c.14-2.73,1.07-5.42.49-8.16.12.05.36.15.36.59.11-1.28.96-4.89-.24-4.53.76.03.32-2.79.12-4.28.18.08.36.18.54.28-.64-.84-.84-.86-.9-2.18.09-.2.43.21.27.38.18-.26.07-.51-.03-.86-.09-.23,0-.22.1-.24.11,0,.31.05.6.19-.07.11-.11.22-.13.34.72.22.53-.03,1-.35.14-.03.34,0,.54.06.08.03.26.08.4.13.15.05.29.11.42.18.55.26.99.59,1.04.86.26-.26,1.1-.52,1.9-.2.07.21-.25.27-.42.3,2.27.84,3.6.09,5.11.9,0,.19.09.3.22.38-1.87-.32-3.35-.69-3.21-.69-.1.51,1.39.9.05,1.37,1.29-.11,3.52-.62,4.95-.11.06.06.12.12.16.21l-.16.03c.33.11.65.11.94.08.46.16.75.29,1.2.36.11.45,1.71.48,2.46.62.02-.57,1-.34.13-.94.11.05-.15.05-.66,0-.11,0-.25-.01-.33.01.02-.01.04-.03.06-.04-.5-.06-1.14-.15-1.89-.24.64-.2,1.3-.34,2.09.09.44-.3.92-.61,1.19-.75.92.94,2.85,1.65,3.07,2.16,1.18-.01,2.55.1,3.83.11,1.27.01,2.45-.13,3.23-.59.67-.07.73.38.96.57-.39.07-.84,0-1.06.14,1.35-.13,3.91.28,4.29-.45,1.63.46-.99.61,1.3.67l-.32.2c1.1.38,2.11.5,3.1.48.98-.03,1.93-.21,2.88-.36,1.91-.3,3.87-.6,6.33.28-.34-.11-.51-.16-.58-.29,5.66.93,11.7-.23,17.29.87,1.59.24,1.76-.24,2.74-.61l.34.61,1.66-.7c2.35-.51,4.08,1.5,7.06.51l-.38-.41c1.07.07,3.39-.27,3.21.21.11-.07.35-.43.77-.22l.03.32,2.62-.57c2.04.21-.3,1.27,2.67,1.3,1.1-.13,3.13-.96,2.72-1.17-.44-.01-1.14-.19-1.18-.51l1.01-.18c.18-.94.94-1.91-1.55-2.55l-1.72.59-.56-.45,1.45-.05c-.83-.42-1.35-.03-1.93.23-.14-.24-.38-.41-.73-.5l-1.68.92c-.21-.36.75-.73-.38-.93-.79.42.77.82-.55,1.1-.83-.42-.59-.77-1.56-.4-.14-.24.07-.4.45-.51-.86.3-2.28.14-2.72.64-.86-.53-2.91.15-2.83-.74-.27.22-1.52.71-2.31.74,1.44-1.06-2.96-.07-2.58-1.21-1.07.96-3.86.41-5.76.92.11-.07.32-.23.48-.18-1.06-.09-1.37-.38-2.05-.57-.15.79-1.8.94-2.71,1.41-1.29-.79.81-.92.41-1.66.05.64-2.28.59-1.85,1.14-.99-.49-.86-.25-1.35-.91-.2.99-.93.15-1.77.73-1.43-.53-.34-.94-1.93-.69-.74-.33.67-.63.67-.63l-.03-.07Zm-37.53-1.77h0c.32.03.59.07.77.09-.16-.02-.38-.05-.77-.09h0Zm-3.11-.53c.38.09.85.18,1.35.26.07.22-.08.39-.39.32.2-.1-.52-.34-.96-.59h0Zm5.99,5c-.52,0-.67-.13-.72-.26.24.03.52.05.89.06.02-.02.05-.04.07-.06-.07.1-.13.2-.24.25h0Z"/><path class="cls-2" d="m211.69,165.13c-.07-1.38-.77-.6-1.21-.86-.31-1.64.51-.8.85-1.39-.26-1.02-.99-1.76-1-2.54.12-.07.15-.22.32-.05-.65-1.06-.24-3.23-1.02-4.47.06-.1.12-.15.18-.18-.36.22-.74.27-1.02.24-.04-.62-.52-1.14-.04-1.39,0,.38.2.4.36.58l-.24-.65c.68-.62.28.88.79.86-.28-1.26-.92-2.72-.76-3.7.68-.23.32,2.27.88.94l-.2,1.51c1.04-1.2-.04.92,1.08-.19.12-1.99-.44-2.2-.32-4.18-.4-.43-.56.17-.96-.27-.77-2.79,1.67-2.26.7-4.3-.47-.53-1.34-.71-.92-2.2l.79.49c.03-1.92-1.15-1.07-.66-3.1.3.35.29,1.51.37,1.21.58-1.31-.46-.92-.47-1.92l.69-.22c-.13-2.05-.66-4.3-.81-6.56.21.12.42.51.63-.02-.36-2.86.05-6.11.44-8.88l-.59-1.06c0-.24.27-.46.38-.19.22-1.08-.38-.05-.61-.57-.04-.61.34-.81.52-.42-.5-1.9-1.09-5.42-.46-7.42l.18.39c.24-1.56-1.22-1.76-.67-3.21l.11.28c.26-3.39-.32-7.13.56-9.73-.85-.49.36-3.36-.85-3.57.56-1.95.78-1.39,1.14-4.13.05-.73-.76-1.08-.9-1.97l.62-.03-.68-1.21.73-.67-.18-.84c-.03.34-.26.72-.44.67-.32-1.31.34-3.23.67-3.27l-.61-3.11c.25.06.35.58.53.99-.68-1.65.65-.32.02-1.84-.14.21-.38-.1-.51-.13.34-.77.27-2.52.05-3.8l.44.23c.01-2.33-.41-4.89-.59-7.5-.14.95-.9.77-1.02.02l.63-.34c-.44-.46-.19.81-.75-.17.01-.98.71-.7.96-.15l-.3-1.17c.2-.08.31.19.57.24-.44-.46.53-2.09-.22-2.74l.19-.08c-.08-1.31-.24-2.25-.38-3.13-.07-.44-.13-.87-.2-1.31-.03-.22-.06-.45-.1-.69-.01-.14-.03-.28-.05-.43-.02-.23-.05-.46-.07-.71-.57.06-.57-1.43-1.09-2.12v-2.05c.14-.53-.35-.31-.63-.36-.32,0-.65,0-.98.01-.68.01-1.41.04-2.17.09-.38.03-.77.06-1.17.09l-.56.05-.34.04c-1.27.43-.33.52-.88.92-.15-.51-2.01-.24-1.08-.72-2.22.34-2.84.42-5.62,1.17.33.18.69.23.53.42-.51.14-1.19-.08-1.15-.34l.13-.07c-3.08,1.13-7.48-.67-9.88.69l.14-.07-2.55.86c-1.21.05.68-.47-.25-.69-2.73,1.18-4.47.38-6.73,1.22-1.97-1.31-6.37.84-8.91.14l.18.34c-.59.42-.78-.12-1.25-.15.1.27.72.24.35.48-1.4.28-2.84.46-4.29.58-.73.06-1.46.11-2.2.14l-1.13.05-1.99.13-.82.18-.21.05c-.06.02-.12.05-.17.07l-.33.16c-.22.09-.44.26-.63.45-.18.19-.34.4-.47.63-.56.9-.75,2.12-.88,3.34l-.14,1.25-.09,1.03c-.05.68-.1,1.35-.12,2.01-.04,2.07,1.88,1.11,1.13,3.7l-.7-.7c.98,4.06.45,8.35,1.43,12.27-.18-.22-.37-.22-.4-.61-.42.88.22,3.1.62,3.08,0,.62-.34.18-.51.57-.22.86.79,2.05.35,2.54-.07.08-.18-.22-.23-.37.28.53.16,2.55.67,1.98-.13,1.51.5,2.82.28,4.03.69.71-.07,2.57.84,2.73-.92-.02-.49,2.67.03,3.57-.3-.29-.21.84-.62.51.11,1.07.38,2.03.83,1.8-.89,2.08,1.27,3.87-.01,5.12.81,3.12,1.44,6.03,1.95,8.86-.92,0-.42-3.14-1.36-2.92.65,2.67,1.6,4.15,1.66,6.86-.05.71-.44-.35-.61-.57.66,2.67.48,5.24,1.23,7.59-.09,0-.2-.25-.3-.49.08.47-.01,1.12.39,1.02l-.16-.45c.52-.82,1.45,1.74,1.77,1.8-1.26-.69-.06,2.4-1.68,1.28.11.3.34.67.61.58-.03.47-.18.63-.54.19.39,1.67.77,1.03.91,2.57-.2.01-.31-.29-.56-.42.46.74.93,1.48.88,2.8-.13-.07-.27.1-.3-.29.27,2.22,1.39,3.71,1.23,6.19-.93-.65-.22.85-.96,1.05l.33,1.3.32-.56c.08,1.15.71,2.13.54,3.14l-.38-.84.3,2.15.2-1.25c.47,1.14.94-.2.85,1.36-.09-.31.07,1.16-.33,1.79.28.55.57,1.12.44,1.99-.23.24-.84-.13-1,.03.67.52.34,2.69,1.04,3.37-.17-.23-.57-.22-.64-.13l.54.44c-.13.55-.21.63-.53.56-.01,1.62.93-.56.61,1.37-.05-.15-.12-.07-.22-.38-.13,1.93.49,3.7.29,5.47-.74.55-.24-1.54-.85-.92.23,2.53,1.06,5.24.9,7.7l.08-.46c1.08.34-.51,1.84-.01,3.08-.08-.3-.59-.4-.48-.32-.18,1.68.25,3.43.52,6l-.27-.32c-.27.98-.22,2.61-.4,3.66.26.32.18.94.6.59-.44.8-.63,1.6-.68,2.44-.02.85.04,1.67.42,2.72.36.97,1.08,1.69,1.92,2.11l.63.31c.21.08.42.16.63.26.42.19.77.33,1.16.57-.38-.06-.98.07-.67.13.98.11,1.85.06,2.74.02-.19-.48-.33-.3-.85-.69.34-.26,1.06-.43,1.68-.43-1.14.28-.01.75.47,1.02-.08-.15.09-.3.05-.44,1.29.86.24-.93,2.02-.34l-.1.24c.67-.11,1.29-.42,2.02-.34.29.54-.72.24-.77.68,1.02-.01,2.02-1,2.93-.44-.43.15-1.05.14-1.49.28,1,.65,1.11.49,1.86.6h-.07s1.72.29,1.72.29l-.44-.18c1.28-1.39,2.59-.24,4.3-1.16-1.66.87-.28.51-.4,1.12.44.17,1.1.36.92.53.81-.49,1.35.39,2.49-.34.05.2.87.01.69.51,1.05-.16-.25-.34-.16-.59,1.62-.68,3.82.79,6.14-.14,2.01-.4,2.37-1.06,4.24-1.41.63.31-.51.72-.51.72,1.02.28,1.78.22,2.73-.01-.2.18,0,.32.3.54.77-.06.51-.72,1.52-.44-.18.22-.39.57-.76.79.9-.19,1.79-.57,2.73-.75.25.34-.56.53-.89.75,1.05-.16,2.72-.33,3.04-.88l-.67-.19c.38-.03.2.46-.08.57-.9.43-1.3-.18-1.35-.38l.67-.13c-.69-1.15-2.68.2-4.02.15l.55-.84-1.37.71c-.3-.22-.5-.69.16-.82-.96-.4-.85.3-1.68-.15-.09-.07-.05-.11.03-.15l-.94.26c.18-.17-.16-.59.42-.48-1.69-.47-2.71.65-3.36.02l.14-.05c-2.34.3-.22.62-1.97,1.35l-1.19-1.52-.23.62c-.24-.02-.72-.07-.63-.31-.9.42.15.27-.36.67-1.16-.55-3.21.28-3.47-.71-.42.47,1.11.36-.13.69-.36-1.06-1.43.18-2.5-.3.32-.55,1.33-.26.27-.74-.64.92-2.07-.21-2.96-.03-.05.73-1.95.3-3.46.53.09-.24-2.82-.44-4.21-.73l.04-.12c-.28.74-1.72.56-2.77.69.05-.44.25-.61.81-.8l-.98-.03c-.23.22-.53.34-1.15.38l.27-.53c-.3-.01-.6,0-.91.02-.31.02-.59.03-.91.03-.51-.01-1.07-.14-1.26-.67-.23.13-.37.57-.5.9-.13.3-.47.62-1.19-.14.2-.22.58-.49.9-.22-.07-.03-.17-.11-.27-.21-.11-.1-.2-.24-.18-.4.19.15.46.24.67.31-.09-.62-.5-.07-.64-.61.37-.12.22-.44.53-.44.04.09-.08.42.12.53-.05-.24-.02-.53.05-.75.09-.28.21-.52.36-.64-.23.06-.54.01-.59-.46,0-1.26.49-.41.73-1.14-.26-.33.07-1.14-.52-1.2.03-.38.31-.44.48-.58-.21-.71.06-3.22-.61-2.46l-.05.18s-.01-.07-.02-.11c-.52-2.25.46-4.64.21-6.87h.2c-.22-1.32-.14-2.95-.58-3.89,0-.39.35-.93.59-.77-.17-1.01-.39-1.12-.09-2.59.37,1.01.3-.36.28,1.04.15-1.32.46-1.63-.13-3.03.53.47.61-1.01.44-1.64l-.34.94c-.09-.7-.07-1.32-.05-1.95l.69.32c.72-2.74-1.6-4.79-.35-6.92-.51-.69-.25,1.48-.83.88.02-1.24.91-2.59.88-2.98.26-1.72-1.08-1.52-.95-3.31-.22.24-.84.5-1.17-.8,0-1.24.89-1.6,1.14-.83.04.3-.02.44-.11.44.11.39.26.91.48.4l-.25-.14c.2-.63.05-2.33.46-1.96-.3-.92-.42-.37-.49.33.22-1.62-.18-2.48-.09-4.13-.11.27-.37.53-.39.28.09-2.42-.55-1.02-.79-2.63.28-.95.9.25.44-1.35.15-1.02.61-.27.84.11-.59-1.45.05-2.8.05-3.66l.27.77c-.15-.46-.2-.84-.23-1.23l-.44.49c.04-.47,0-.86.2-.87-.36-.44-.76.44-1.28-.46.18-.63-.44-1.84.17-2.11-.03,1.95.61-.28.88,1.34-.11-.31-.14-.69-.1-1.16.06-.07.14.05.19.18.38-1.9-.8-.77-.98-2.68.38.21.63-.51.52-.82.07.78-.56.43-.9-.25.15-1.25-.35-1.31-.38-1.95l-.05.74c-.38-.21-.4-.82-.61-1.66.27-.1.28.75.36.44-.73-.88.42-2.2-.14-3.47.18-.63.67-.13.77-.68-.62-1.43.32-1.65-.23-3.16-.43.5-.31.57-.89-.48l.61,2.51-.87-1.56c.07.77.47,1.59.44,2.06-.47-.73-.34-.67-.71-.26.61-1.13-.64-2.04-.28-3.31l1.19-.09c.34-1.89-.95-3.19-.9-5.59l-.13.78c-.51-.27-.22-1.46-.48-2.21.4.03.5-.46.71-.81-.29.07-.15-1.74-.96-1.88l.42-1.11c.02-1.94-1.35-2.07-1.39-3.93.49.51.69-.35,1.12.86-.05-.61-.04-1.18-.32-1.16.22-.38-.7-1.66-.38-2.26-.2-.24-.63-.29-.65-.98.07-.08.2-.01.2-.01-.2.01-.37-1.06-.75-.41,1.06-2.01-.59-5.29.33-7.04-.26-1.33-.53-2.94-.65-4.16.13.07.19-.01.17.22.23-1.72-1.23-.94-.98-2.89.57-1.03.43.99.63.36,1.29-.37-.36-2.3.3-3.64l.1.3c.37-1.02-.68-2.36-.69-3.98,0,0,.12.07.2,0-.75-1.05-1.1-3.12-1.37-4.67.54.45.31.69.82.36-.11-.69-.83.25-1.04-1.13.26-.46.45-1.47,1-1.64l.09,1.3c.69-.7-.11-1.68,0-2.38l.32.07c-.17-1.98-.98-1.99-.93-4.13l-.24.22c-.78-1.17.44-.99-.11-2.11.27-.07.54-.11.81-.13-.07-.2-.22-.59-.3-1.13-.01-.13-.03-.28-.01-.43,0-.15.06-.3.17-.32.2-.1.43-.2.67-.28.13-.03.23-.07.33-.09-.07.1-.15.19-.24.28-.1.12-.21.23-.31.34-.09.11-.23.15-.22.39.01.41.14.77.26,1.01.03-.16.01-.44.09-.74.02-.08.09-.09.13-.12.05-.03.09-.06.14-.09.08-.07.15-.15.17-.25,0,0,0-.01,0-.02h-.01c-.14.11-.21.3-.44.2,0-.2.1-.37.28-.53.2-.18.45-.31.85-.43.45-.12.94-.22,1.47-.27-.09,1.57,4.03-.07,5.28,1,2.65-.88,5.4-.37,8.55-.82-1.25-1.07.92-.14.59-1.35.73-.16,1.01-.18,1.08-.1l2.31.48c.57.3-.67.35-.57.62,1.62-.09.73.44,1.84.65-.27-.42.49-.69,1.43-.63l-1.35-.42c2.18-.91,2.06.81,4.26-.09l-.67.46c1.14-.36,4.3-.48,5.32-1.6.22.12.53.42.03.57,2.79-.17,6.07-1.75,8.3-1.39l-.17.32c.51-.15.84-.67,1.52-.44-.02.13-.17.32.07.32.26-.13,1.32-.68,2.03-.59l-.55.4c1.38.04,2.4-.28,3.35-.67.24-.1.47-.2.71-.3.15-.05.17-.09.22-.13.05-.04.11-.09.17-.13.24-.17.55-.32.9-.41-.24.48-.17.75-.22.98-.17.4-.26.6-.32.72l-.12.05c0,.05,0,.09.01.13.05.31.1.61.15.91.13.69.3,1.33.47,1.98.18.64.36,1.28.55,1.93.17.66.33,1.33.46,2.06-.85,1.88.02,6.16-.43,9.11.14-.45.69.04.81.56-.15.69.7,1.87-.12,1.79v-.24c-.77.55-.5,1.95-.47,3.04l1.07.15c-1.48,2.93.79,7.54-.59,9.15.28.69.29,1.56.57,2.24l-.57-.03c-.12,1.93-.17,2.89,0,5.27l-.41-.49c-.03,1.35,1.66,1.68,1.7,2.93l-.85.38c.03,2.35-.7,4.73.07,7.05-.13-.04-.37-.11-.41-.49-.02,1.1-.57,4.28.61,3.88-.76.03-.07,2.42.27,3.7l-.57-.2c.72,1.07.92,1.1,1.12,2.6-.07.36-.45.31-.31-.16-.29,1.18.53.92.24,2.36l-.36-.53c-.04,1.22.15,1.12.57,1.79.22.76-.13,2.31-.64,2.49.31.16.73.83.59,1.55-.19.1-.31-.16-.37-.3-.37,2.04.67,3.02.13,4.43-.19.03-.28.12-.34.24,0-1.62.03-2.92.07-2.8-.52,0-.61,1.31-1.33.28.4,1.05,1.25,2.84,1.02,4.12-.05.06-.1.12-.18.17l-.06-.14c-.05.3,0,.56.09.81-.08.41-.14.67-.14,1.06-.43.15-.22,1.5-.22,2.15.57-.06.49.79.94-.01-.04.1-.07-.12-.1-.56-.02-.1-.03-.22-.06-.28.01.01.03.03.05.05-.01-.43-.03-.98-.06-1.62.3.51.55,1.04.24,1.77.37.33.75.69.93.89-.78.9-1.18,2.63-1.67,2.88.36,1.99.32,4.69,1.41,5.92.15.56-.29.66-.45.88-.11-.32-.11-.71-.26-.89.3,1.12.19,3.35.95,3.6-.28,1.44-.72-.78-.52,1.18l-.24-.26c-1.03,3.92,2.12,6.18.87,10.53.07-.3.11-.45.23-.52-.2,2.46.09,4.96.44,7.45.33,2.49.54,4.98.3,7.42-.06,1.39.43,1.48.88,2.28l-.57.36.86,1.34c.71,1.95-1.06,3.68.27,6.1l.36-.38c.05.92.65,2.85.16,2.77.09.08.46.24.3.63l-.31.07.43,1.08c.15.34.28.67.38.98-.06.36-.21.46-.34.49-.14.01-.28-.04-.43-.07-.14-.04-.28-.06-.38-.1-.02,0,.05.03.05.03h.01s-.07-.03-.04-.01h.01s-.01,0-.01,0c-.01-.01-.03-.03-.05-.05-.03-.04-.06-.07-.09-.12h-.01c.02.08-.32.42-.74.69-.4.27-.77.51-.59.62.36.02.9.16.97.47-.26.09-.54.15-.83.21-.07.47-.28.95-.2,1.39.04.22.15.43.43.63.28.18.71.38,1.54.39.7-.34,1.56-.85,2.13-1.71.34-.12.67-.31.98-.56-.44.85-1.26,1.51-1.97,1.82.71-.08,1.33-.52,1.67-1.05.35-.53.46-1.14.47-1.65.3-.15.57-.57.68-1.08-.27-.87-.69-1.39-1.05-1.82.34-.23.82.52.88-.47-.5-.61-.72.78-1.15-.3.32-.76.69-.61.22-1.37.22-.15.4,0,.55.31-.39-.69-.4-1.91-.94-2.21.42-.8-.49-2.44.4-2.49-.24-.2-.89-1.19-1-1.86,1.19,1.1-.21-2.52.96-2.33-1.05-.79-.79-3.23-1.49-4.78.09.08.26.24.23.39-.03-.92.24-1.21.38-1.81-.79-.04-1.1-1.44-1.64-2.17.67-1.18.98.6,1.68.18-.63.12-.8-1.88-1.3-1.45.4-.89.17-.75.79-1.25-1-.07-.23-.78-.9-1.44.39-1.27.88-.38.5-1.72.26-.67.69.52.69.52l.02-.02Zm-2.82-32.31h.01c.02.28.03.52.04.67-.01-.14-.03-.33-.05-.67Zm-.03-2.73c-.02.33-.02.75-.01,1.19-.2.09-.4,0-.39-.28.13.15.24-.5.4-.9Zm-3.88,5.83c-.09-.43.03-.58.14-.64.01.2.03.44.08.76.02.01.05.04.07.05-.11-.04-.21-.09-.29-.17Z"/><path class="cls-2" d="m237.75,59.29c-.02,1.52.73.71,1.16,1.03.21,1.8-.55.84-.93,1.45.19,1.12.88,1.99.85,2.84-.12.06-.17.23-.32.03.59,1.19.03,3.54.77,4.93-.07.1-.13.15-.18.18.38-.22.75-.26,1.02-.22.01.68.47,1.26-.02,1.52.01-.42-.18-.45-.34-.65l.21.71c-.7.64-.24-.97-.76-.97.23,1.39.81,3,.61,4.06-.69.22-.23-2.49-.84-1.06l.26-1.64c-1.08,1.25.07-1-1.08.15-.2,2.16.35,2.42.15,4.57.38.48.56-.16.94.32.68,3.06-1.72,2.41-.81,4.67.46.59,1.33.81.86,2.41l-.77-.55c-.08,2.09,1.12,1.19.59,3.39-.3-.39-.26-1.64-.35-1.33-.61,1.42.44,1,.44,2.09l-.69.23c.11,2.23.6,4.68.73,7.15-.2-.13-.42-.56-.63.02.34,3.11-.09,6.65-.5,9.64l.59,1.14c0,.27-.27.49-.38.21-.22,1.17.38.06.61.63.04.67-.34.88-.52.46.5,2.07,1.08,5.88.44,8.05l-.17-.42c-.24,1.7,1.21,1.91.66,3.48l-.11-.3c-.26,3.68.28,7.74-.61,10.55.85.53-.38,3.64.81,3.87-.3,1.05-.5,1.42-.67,1.91-.09.15-.17.72-.26,1.39-.09.7-.18,1.64-.28,3.06-.04,1.16.42,1.43.7,2.04.34-.14.69-.26,1.06-.36l-.47.71c.94-.38,1.79-.75,2.56-1.11.26.21.56.4.92.6l1.59-.44c-.63.07-1.28-.06-1.15-.26.28-.09.57-.15.88-.21.15-.03.3-.05.45-.08.14-.02.34-.05.41-.05.39-.03.79-.03,1.15,0,.71.06,1.27.25,1.31.4l3.23-1.03c-.04.26-.58.43-1,.65,1.68-.9.42.6,1.95-.22-.24-.11.07-.38.08-.52.86.26,2.71.02,4.05-.32l-.21.46c1.24-.12,2.53-.32,3.86-.53,1.33-.21,2.7-.46,4.09-.58-1.02-.11-.86-.87-.05-1.02l.39.63c.49-.45-.88-.17.15-.76,1.05-.02.77.68.2.95l1.24-.34c.1.19-.2.32-.25.57.49-.45,2.23.46,2.92-.32l.09.19c2.77-.18,4.02-.52,6.29-.68.01-.57.91-.49,1.56-.98,1.68.09,3.55.45,5.56.36,1.41-.32.4-.49,1.03-.85.12.51,2.13.4,1.09.81,2.41-.13,3.08-.14,6.14-.59-.33-.21-.71-.3-.51-.48.56-.1,1.27.22,1.19.47l-.15.05c1.72-.36,3.7.02,5.58.4,1.89.4,3.67.75,5.06.27l-.15.05,2.85-.42c1.3.15-.8.35.15.72,3.1-.73,4.81.44,7.35.03,1.8,1.68,6.9.51,9.4,1.81l-.11-.38c.71-.28.79.3,1.28.44-.03-.28-.69-.4-.25-.55l.77.04h.1l.15.02.3.03.6.07c.79.09,1.6.19,2.4.3,1.6.22,3.24.47,4.95.76-.09-1.64-.19-3.29-.28-4.94l-.07-1.29c-.02-.4-.05-.98-.05-1.13v-1.46c-.03-1.94-.04-3.88-.11-5.79-.11-2.17-1.97-1.06-1.36-3.86l.73.71c-1.2-4.3-.77-8.94-1.8-13.15.18.24.38.24.4.65.41-.94-.26-3.34-.65-3.33,0-.67.34-.18.51-.61.22-.93-.79-2.23-.34-2.75.07-.09.18.24.23.4-.28-.57-.15-2.75-.67-2.15.15-1.62-.46-3.05-.22-4.36-.68-.79.11-2.77-.78-2.98.92.06.57-2.86.08-3.85.3.32.24-.9.64-.52-.09-1.16-.3-2.21-.76-1.98.99-2.19-1.09-4.25.26-5.52-.31-1.71-.57-3.36-.81-4.97-.22-1.61-.38-3.18-.53-4.73.92.09.17,3.42,1.12,3.27-.44-2.92-1.29-4.61-1.08-7.52.11-.75.4.42.56.67-.2-1.46-.2-2.88-.2-4.26.01-1.38.01-2.71-.23-4.02.09,0,.18.29.24.56-.03-.51.14-1.19-.28-1.14l.11.51c-.61.82-1.25-2.06-1.56-2.16,1.17.9.36-2.58,1.83-1.17-.07-.34-.26-.77-.54-.69.1-.5.26-.65.56-.14-.18-1.85-.64-1.21-.59-2.88.2.01.27.35.5.53-.38-.86-.75-1.72-.51-3.12.11.09.28-.07.26.35.05-2.42-.9-4.18-.34-6.82.41.42.5.2.57-.14,0-.05.02-.09.03-.14l.03-.21c.03-.14.06-.28.1-.41.08-.26.2-.48.39-.58l-.09-2.24c-.15.38-.29.73-.43,1.07.06-.94-.03-1.72-.09-2.41l-.02-.26c-.1,0-.22.03-.32.04-.22.03-.42.05-.61.07-.39.03-.75.04-1.08,0l1.58-.38-3.52.3,1.74.21c-.97.24-.98.48-1.08.65-.09.17-.18.26-1.09.2.2-.05-.15-.03-.65-.06-.44-.03-1.01-.1-1.35-.3-.61.26-1.24.55-2.18.4-.25-.23.16-.84,0-1-.59.66-2.94.31-3.69,1.01.26-.17.25-.57.16-.64l-.49.53c-.59-.13-.68-.22-.6-.53-1.76-.01.6.93-1.5.61.16-.05.08-.12.42-.22-2.1-.12-4.02.51-5.95.34-.6-.73,1.67-.26,1-.87-2.76.26-5.69,1.17-8.38,1.1l.51.06c-.32,1.08-2.02-.44-3.35.13.33-.09.41-.61.32-.49-1.85-.09-3.74.43-6.51.89l.33-.29c-1.09-.2-2.86-.01-4.03-.09-.34.29-1,.28-.58.66-3.67-1.41-6.83,1.14-10.08-.01.38-.02.9-.28.59-.27l-2.71.38c.24.46.37.27.96.61-.33.29-1.09.54-1.76.57,1.21-.36-.05-.75-.59-.98.09.14-.08.3-.03.45-1.46-.77-.2.95-2.16.48l.1-.25c-.72.15-1.37.51-2.16.48-.35-.53.76-.29.79-.73-1.1.08-2.12,1.12-3.14.63.46-.17,1.13-.2,1.6-.38-1.11-.59-1.23-.42-2.04-.48h.08s-1.88-.19-1.88-.19l.49.15c-1.31,1.47-2.8.38-4.61,1.39,1.76-.95.28-.52.38-1.14-.48-.15-1.21-.31-1.01-.48-.86.53-1.48-.32-2.69.45-.07-.2-.94.02-.76-.48-1.13.21.28.33.2.58-1.72.75-4.17-.63-6.65.4-2.16.48-2.53,1.16-4.54,1.58-.7-.28.53-.74.53-.74-1.12-.24-1.94-.15-2.97.12.2-.18-.02-.32-.35-.53-.83.09-.53.74-1.64.5.18-.23.4-.59.79-.83-.97.22-1.93.63-2.93.86-.28-.33.59-.55.94-.79-1.13.2-2.94.44-3.27,1l.74.16c-.42.05-.24-.46.07-.57.96-.47,1.42.13,1.49.32l-.72.16c.8,1.12,2.9-.32,4.36-.32l-.57.87,1.46-.76c.33.2.57.67-.15.82,1.06.37.91-.34,1.83.08.1.07.06.11-.03.15l1.01-.3c-.19.19.2.59-.44.49,1.85.4,2.92-.76,3.64-.15l-.15.06c2.53-.4.22-.63,2.09-1.43l1.35,1.46.22-.63c.26.01.78.03.7.28.96-.46-.18-.26.37-.69,1.29.51,3.47-.42,3.8.55.43-.49-1.23-.31.11-.69.43,1.04,1.55-.25,2.72.18-.33.56-1.43.32-.26.75.65-.95,2.26.1,3.22-.12.01-.73,2.1-.4,3.72-.71-.09.25,3.08.26,4.61.46l-.04.13c.26-.75,1.83-.69,2.96-.89-.03.44-.22.63-.83.86l1.07-.05c.24-.25.57-.39,1.26-.51l-.24.57c1.42-.09,2.84-.78,4.69-.49.08-.52-1.52-1.37.4-1.8.09.28.18.75-.32.89.16-.04.59-.26.92-.15l-.75.51c.84.17.42-.41,1.09-.4,0,.4.5.26.42.59-.17.05-.59-.14-.84.03.75.04,1.68.24,1.99.52-.07-.22-.03-.54.53-.61,1.43-.09.51.46,1.35.63.33-.29,1.25-.05,1.25-.64.42-.01.51.26.67.41.73-.3,3.44-.23,2.59-.83l-.19-.03s.07-.01.12-.03c2.39-.7,5.04.11,7.43-.25v.2c1.43-.29,3.19-.28,4.19-.75.43-.02,1.02.32.84.57,1.09-.2,1.2-.43,2.8-.17-1.08.4.39.29-1.12.3,1.43.11,1.76.41,3.27-.2-.5.53,1.1.59,1.77.41l-1.01-.32c.75-.11,1.42-.09,2.1-.08l-.34.69c2.94.69,5.19-1.62,7.47-.36.75-.51-1.6-.26-.93-.84,1.34.03,2.78.93,3.2.92,1.84.29,1.7-1.06,3.58-.89-.2-.23-.47-.86.82-1.14.59.02.8.26.72.53-.07.27-.36.56-.62.67-.18.03-.22-.05-.19-.13-.29.1-.55.22-.36.46.04-.08.09-.16.14-.25.27.24,1,.18.46.59.55-.26.59-.42.32-.53.38.03.12.5.17.73,0,.27,0,.57-.14.94.14-.11.43-.26.42-.11-.01.04-.02.08-.03.12-.01.07-.02.13-.03.2-.01.13-.03.25-.04.36-.02.22-.03.38-.02.51.01.26.07.38.15.48.15.19.36.28.36,1.17-.4.98-.86-.4-.63,1.39-.29,1.08-.65.2-.82-.24.4,1.64-.43,3.02-.55,3.95l-.15-.86c.1.52.07.94.05,1.37l.5-.47c-.11.5-.12.92-.32.91.3.53.81-.37,1.21.67-.26.66.22,2.04-.42,2.26.26-2.1-.65.22-.71-1.57.07.34.05.77-.04,1.27-.07.07-.13-.07-.16-.22-.61,2.01.7.94.63,3.03-.35-.27-.69.47-.61.81.01-.84.6-.39.87.38-.29,1.33.2,1.45.16,2.16l.14-.8c.36.28.3.94.41,1.87-.28.08-.19-.85-.31-.51.63,1.04-.68,2.34-.23,3.78-.24.67-.67.07-.84.66.48,1.62-.47,1.76-.07,3.46.48-.5.36-.58.84.61l-.36-2.79.72,1.78c0-.84-.32-1.78-.24-2.28.4.85.28.76.68.36-.71,1.16.44,2.28-.03,3.62l-1.19-.02c-.48,2.02.69,3.55.46,6.16l.18-.84c.48.34.12,1.6.34,2.44-.4-.07-.52.46-.76.83.3-.05.04,1.91.85,2.11l-.48,1.19c-.12,2.11,1.25,2.34,1.21,4.36-.47-.59-.7.34-1.08-.99.03.67-.01,1.29.26,1.28-.24.4.63,1.84.29,2.48.19.28.61.34.63,1.1-.07.09-.2,0-.2,0,.2,0,.34,1.17.74.48-1.13,2.15.45,5.77-.49,7.64.23,1.46.49,3.21.63,4.54-.13-.07-.19.01-.17-.24-.23,1.86,1.23,1.04.97,3.16-.56,1.12-.43-1.08-.63-.4-1.29.39.38,2.51-.27,3.97l-.11-.34c-.35,1.11.71,2.58.77,4.34,0,0-.12-.07-.2,0,.77,1.14,1.19,3.39,1.52,5.06-.56-.48-.34-.74-.83-.38.14.75.81-.3,1.1,1.2-.23.51-.38,1.62-.92,1.82l-.16-1.42c-.65.8.2,1.84.14,2.6l-.32-.07c.3,2.17,1.09,2.13,1.26,4.47l.22-.26c.9,1.21-.34,1.11.36,2.33l-.76.46c.27.79,1.06,3.02,1.31,4.1-.17-.23-.32-.46-.46-.69-.06-.1-.13-.22-.2-.32-.03-.06-.06-.09-.09-.17l-.1-.25c-.26-.67-.49-1.37-.71-1.9.03.42.12,1.12.25,1.78.03.15.07.34.1.46.03.07.06.14.1.21.07.13.16.26.27.34-.05-.11-.13-.22-.18-.32-.05-.11-.07-.16-.03-.32.34.29.61.69.82,1.27.21.56.35,1.25.4,1.92-.23-.26-.4-.39-.53-.46-.73-.5-1.42-.61-2.18-.76-.74-.15-1.53-.33-1.73-.88-3,.24-5.84-.93-9.31-1.13,1.12,1.31-1.01-.06-.91,1.19-.81,0-1.11-.04-1.18-.13l-2.38-.91c-.55-.4.79-.21.73-.5-1.77-.22-.71-.57-1.86-.99.21.46-.66.59-1.66.34l1.39.67c-2.51.47-2.07-1.16-4.61-.65l.81-.35c-.65.08-1.83.02-3.02.05-1.19.05-2.37.21-3.01.68-.22-.15-.51-.5.05-.57-1.53-.13-3.25.09-4.86.29-1.62.2-3.15.3-4.34.02l.23-.3c-.57.09-.99.58-1.71.28.03-.13.23-.3-.04-.32-.3.11-1.51.54-2.27.38l.64-.34c-3-.36-4.57.94-7.05,1.22-.03-.89-2.39-1.06-3.58-1.14l.03-.13c-1.74.02-3.21.32-4.64.66-1.43.34-2.82.73-4.4,1.06-1.04-.38-2.73-.35-4.58-.2-1.84.16-3.83.37-5.45.3.5.09,0,.7-.55.86-.77-.08-1.99.88-1.97.06l.27-.02c-.67-.71-2.18-.32-3.39-.15l-.04,1.08c-1.67-.52-3.71-.09-5.55.4l-.34.09c-.1.03-.27.07-.27.07-.08.03-.16.06-.24.09-.16.06-.33.1-.46.11-.28.03-.44-.07-.2-.47,0,0-.01.01-.03.02-.25.11-.26-.17-.52-.32l.57-.25c.03-.12.07-.21.09-.3,0,.02.01-.14.02-.23v-.32c.02-.21.03-.42.03-.63.02-.85,0-1.76-.06-3.06l.41.53c.04-1.46-1.65-1.85-1.68-3.2l.85-.4c-.01-2.55.74-5.14-.03-7.66.13.04.37.12.4.53.02-1.2.58-4.65-.59-4.22.76-.03.07-2.63-.26-4.01l.57.22c-.72-1.17-.92-1.2-1.11-2.83.07-.38.45-.34.31.18.3-1.29-.53-1-.23-2.56l.36.58c.05-1.32-.15-1.22-.57-1.95-.22-.83.14-2.51.65-2.7-.31-.18-.73-.9-.58-1.68.19-.11.31.17.37.32.38-2.21-.65-3.29-.1-4.8.19-.03.28-.13.34-.26-.01,1.75-.05,3.17-.09,3.04.52,0,.61-1.41,1.33-.29-.39-1.14-1.24-3.08-1-4.46.05-.07.1-.13.18-.18l.06.14c.05-.32,0-.61-.08-.88.09-.44.15-.72.15-1.14.43-.16.24-1.62.26-2.33-.57.06-.48-.87-.94,0,.04-.11.07.13.09.61.01.11.03.23.06.3-.01-.01-.03-.03-.05-.05,0,.46.02,1.07.03,1.76-.29-.56-.53-1.14-.22-1.93-.36-.36-.74-.76-.92-.99.79-.97,1.22-2.83,1.71-3.09-.32-2.16-.21-5.08-1.27-6.44-.13-.61.3-.71.47-.94.11.36.09.77.24.97-.28-1.23-.11-3.64-.85-3.93.34-1.55.69.87.57-1.25l.23.29c1.19-4.18-1.9-6.8-.37-11.43-.1.32-.14.48-.26.55.68-5.28-.63-10.88.44-16.1.22-1.48-.26-1.64-.62-2.55l.61-.32-.7-1.55c-.51-2.2,1.5-3.8.53-6.57l-.41.36c.08-1-.24-3.16.23-2.99-.07-.1-.42-.33-.22-.71l.32-.03-.55-2.45c.23-1.9,1.27.3,1.33-2.47-.12-1.03-.93-2.93-1.15-2.55-.01.42-.2,1.06-.52,1.09l-.17-.94c-.94-.17-1.91-.9-2.56,1.41l.57,1.61-.46.52-.03-1.35c-.43.77-.05,1.26.21,1.8-.24.13-.41.36-.51.67l.9,1.58c-.37.19-.73-.71-.94.35.42.74.83-.71,1.1.52-.43.77-.77.55-.41,1.45-.24.13-.4-.07-.51-.42.29.81.12,2.13.62,2.55-.52.8.13,2.72-.75,2.64.21.26.7,1.42.73,2.15-1.06-1.35-.07,2.77-1.21,2.41.96,1,.43,3.61.96,5.38-.07-.1-.23-.3-.18-.45-.08,1-.37,1.29-.55,1.93.79.13.97,1.68,1.46,2.52-.77,1.22-.93-.74-1.66-.36.64-.06.64,2.12,1.17,1.71-.47.94-.23.81-.89,1.29.99.16.17.87.78,1.64-.49,1.35-.93.35-.63,1.83-.3.71-.65-.61-.65-.61h.02Zm1.69,35.33h-.01c-.01-.3-.03-.57-.03-.73,0,.15.02.36.04.73h0Zm0,2.97c.02-.36.03-.81.02-1.29.2-.1.4,0,.39.31-.13-.16-.24.54-.41.98h0Zm3.94-6.28c.08.47-.03.63-.15.69,0-.22-.03-.48-.07-.82-.02-.01-.05-.04-.07-.05.11.05.21.09.28.19h0Z"/><path class="cls-2" d="m275.64,38.79c.09-.09-.33-.36-.53-.57,0-.2.32.19.55.32-.04-.15-.34-.51-.28-.55.07.05.09.06.16.14-.23-.34.17-.23-.11-.64.04.02.07.05.1.07-.2-.15-.39-.32-.52-.44.03-.05-.16-.29.09-.09-.03.02.07.11.13.19l-.07-.14c.38.28.07.17.32.4-.04-.19-.23-.55-.08-.52.35.3-.02.26.36.44l-.22-.02c.61.4-.09.03.55.47.21-.04-.04-.3.18-.34-.16-.2-.29-.24-.45-.44-.17-.49.98.63.66.09-.2-.24-.61-.65-.29-.54l.35.38c.15-.09-.48-.58-.1-.47.13.16.03.22.09.24.38.2-.16-.26-.1-.32l.34.3c.07-.18-.03-.55.05-.75.09.1.17.23.3.29,0-.34.42-.35.78-.34l-.21-.34s.15.09.2.17c.17.04-.18-.18-.26-.32.02-.06.21.11.27.22-.12-.36-.18-.86.25-.67l.06.11c.21.02-.46-.69-.11-.51l.03.07c.34-.09.32-.59.9-.31-.36-.44.39-.02-.14-.61.4.17.46.3.82.33.07-.02-.27-.42-.27-.54l.28.3-.22-.39.38.32-.02-.13s-.17-.09-.25-.18c-.04-.22.4.02.55.17l-.03-.44c.11.13.11.2.15.3-.17-.41.32.3.15-.07-.07-.06-.16-.19-.22-.26.22.14.34.04.35-.11l.18.23c.2-.08.23-.39.4-.54-.15-.05-.46-.43-.44-.51l.31.31c-.15-.23-.16-.07-.32-.38.1-.02.37.34.43.48l-.02-.18c.09.09.12.16.22.29-.15-.24.42.22.16-.18l.09.09c.17-.15.15-.33.28-.46-.24-.29-.13-.28-.29-.55.18,0,.49.13.6,0-.03-.22-.18-.27-.28-.47.23.26.34.13.42.37.11-.17.15-.22.17-.59-.11-.09-.17-.12-.24-.22,0-.07.18.05.28.18v.03c-.04-.29.25-.2.51-.12.14.04.26.07.33.05.08-.02.11-.09,0-.24l.02.03c-.06-.11-.11-.23-.15-.36.06.03.11.24.25.4-.12-.27-.07-.28-.03-.26.04.02.08.08.05-.13.17.51.15.5.17.41,0-.08.04-.25.05.15v-.3c.01-.3,0,.17,0,.24,0-.24,0-.27,0-.44.03-.1.07-.18.08-.12.02.06.03.16.03.28,0,.23-.07.48-.13.57-.04.05.67-1.12.4-.56-.1.12-.18.24-.27.37.17-.22.21-.16.22-.12.07.1.2.3.48.27-.1.05-.2.13-.22.11-.2.27.17.22.37.05.01.06-.17.17-.25.28-.09.18.44-.13.22.11-.03.04-.1.05-.12.06.15-.07.12.2.37-.08-.05.22.3.09.2.31.36-.22,0,.3.46-.06-.47.39-.21.5.05.38-.15.1-.09.18-.31.32.07.07.22.06.44-.15-.44.61.68-.11.04.57.44,0,.78.06,1.06.17-.46.39-.24-.18-.71.25.35.02.83-.21.89.07-.02.1-.22.14-.32.2.35.02.27.4.66.34-.04.03-.11.06-.15.07.04.02,0,.13.2-.05l-.08.02c.26-.32.75-.42.91-.55-.65.46,0,.3-.84.86.06-.01.18-.07.32-.2-.01.07-.09.15-.28.25.22.02.4-.22.49-.1-.1.09-.16.1-.29.19.24-.11.48-.24.48-.07-.07.05-.14.13-.15.1.16.13.75-.19.71.14-.49.33-.1.18-.47.52h.19l.15-.2c.06.09.4-.08.34.09l-.21.07.2.09.07-.21c.26-.09.47-.42.46-.23-.05.01.06.08-.13.32.15-.07.32-.13.28,0-.11.12-.43.35-.51.43.35-.24.25.11.63-.13-.09.05-.3.22-.33.26l.29-.19c-.05.11-.09.15-.25.28.05.15.45-.45.36-.14-.03,0-.07.05-.12.06,0,.23.38.11.36.34-.35.36-.19-.03-.47.3.22.11.77-.03.83.22v-.07c.57-.44-.15.36.18.22-.06.01-.32.23-.26.18.01.19.34.12.66.15l-.15.1c-.07.18.08.24.08.37.15-.1.17-.03.35-.24-.59.91.8.07.31.84-.02-.02-.17.05-.15.07l.28.06c.22-.22.12-.15.28-.34.16-.1.31-.14.34-.1-.22.05-.38.33-.48.47.07-.07.15-.13.23-.19-.34.45.48-.39.31-.03l-.13.1c.1,0,.3-.11.31-.03-.26.26-.17.06-.4.25.07.05.63-.31.42-.01-.1.03-.14,0-.24.03-.26.34-.17.28-.18.38h0s-.04.23-.04.23l.06-.11c.79-.53.28.07.85-.22-.54.26-.27.2-.59.46-.06.1-.11.23-.21.3.3-.16-.12.26.32.03-.09.09.04.07-.22.27.14,0,.16-.17.29-.27.44-.18-.19.62.42.38.31-.03.67-.29.94-.31-.12.18-.39.28-.39.28-.09.2-.01.22.15.2-.1.06-.16.14-.26.26.07.03.39-.28.3-.08-.12.08-.31.22-.45.29.15-.01.38-.11.53-.13-.16.17-.3.19-.43.26.14,0,.32.05.61-.16l.06-.13s-.22.22-.29.24c-.27.12.02-.17.11-.26h.1c.55-.56-.25-.11-.3-.24l.46-.33-.43.21c.09-.11.32-.33.42-.34.15-.25-.2.07-.01-.19.03-.04.05-.05.07-.06l-.18.05c.1-.07.29-.27.26-.18.15-.33-.48.09-.2-.24h.03c-.28-.05-.32.24-.79.43l.7-.74-.32.26s0-.08.12-.18c-.27.12-.13.13-.36.26.21-.32-.32-.11.16-.55-.26.18-.11.24-.36.29.51-.48-.17-.02,0-.3.3-.22.21-.02.39-.3-.51.36-.02-.23-.16-.22-.37.32-.27,0-.49,0,.13-.1.03-.37.09-.58l.07-.05c-.39.3-.4.14-.55.14.23-.19.32-.26.46-.3l-.06-.07c-.13.09-.21.12-.3.11l.3-.22c-.09-.07-.48.1-.4-.18-.27.22-.65.72-.93.75.13-.13.38-.34.46-.36-.03,0-.15.06-.11,0l.28-.15c.06-.14-.22.14-.24.08.2-.18.11-.15.28-.29.03,0-.05.11.04.05,0-.08.07-.24.2-.39-.11.1-.27.24-.33.22-.09-.08.22-.24.28-.38-.16.1-.06-.08-.36.18-.02-.03.11-.15.19-.24-.17.07-.23-.19-.5.14v.03h-.03c-.43.11-.1-.46-.36-.51l.1-.09c-.2,0-.24-.14-.51-.02-.02-.03.13-.22.26-.32-.14,0-.26.09-.18-.15.24-.08.13-.15.19-.04,0-.16.15-.32-.2-.18.29-.19.27-.35.15-.32l-.13.22c-.08-.01-.09-.07-.11-.14l.36-.27c.26-.54-.99.28-.42-.46-.28.15-.08.24-.4.44-.03-.12.38-.63.36-.66.09-.28-.59.32-.57.09-.11.12-.42.41-.61.42-.03-.12.42-.54.56-.57.03.01,0,.05-.05.09.07-.01.15-.02.26-.17l-.13.09c.09-.15-.03-.26.2-.4-.17.03-.22.14-.24.24.08-.26-.14-.18-.12-.39-.05.07-.18.22-.19.2,0-.3-.29.13-.44.06.13-.22.46-.36.21-.34.07-.18.31-.29.43-.35-.32.1-.01-.32-.02-.42l.14-.03c-.09.02-.11,0-.13-.04l-.22.24c.01-.07,0-.09.1-.18-.19.1-.38.37-.65.49.09-.15-.24-.01.07-.3,0,.23.31-.29.46-.22-.05.01-.08-.01-.06-.09.03-.03.07-.05.09-.06.18-.38-.41.26-.52.11.19-.14.32-.32.26-.32.04.05-.28.28-.46.36.07-.21-.18,0-.2-.06l-.02.11c-.2.14-.21.07-.32.07.13-.13.14-.03.19-.11-.38.21.2-.43-.09-.34.09-.15.34-.3.39-.4-.32.1.15-.32-.13-.26-.22.24-.15.2-.46.32l.32.03-.45.2c.04.05.25-.02.24.05-.24.11-.18.07-.36.27.3-.38-.34.04-.16-.26l.61-.52c.16-.36-.51.04-.49-.25l-.06.14c-.26.18-.12-.07-.26-.04.21-.17.25-.26.36-.4-.15.13-.09-.13-.5.2l.2-.3c0-.23-.71.34-.75.15.25-.15.34-.33.57-.38-.03-.05-.03-.11-.17,0,.11-.13-.37.11-.22-.09-.1.06-.32.24-.34.18.03-.04.1-.09.1-.09-.1.09-.2.04-.38.28.52-.67-.36-.32.08-.9-.15-.03-.31-.09-.4-.16.07-.05.1-.09.09-.05.09-.28-.64.42-.54.11.27-.35.24-.08.32-.23.65-.59-.23-.08.08-.51h.06c.17-.28-.39.03-.45-.11,0,0,.06-.05.1-.09-.2.11-.37.14-.52.13-.14,0-.26-.03-.35-.04.26-.22.18-.07.38-.37-.09-.03-.36.44-.52.4.09-.18.11-.4.32-.73l.13.11c.24-.46-.16-.16-.17-.3l.13-.18c-.23-.17-.5.34-.65.1l-.05.18c-.32.44.05-.39-.2-.09l.18-.61c-.12.05-.41.32-.52.33.16-.41.36-.48.55-.63-.07-.09-.26-.24-.37.04.04-.03.11-.14.11-.02-.21.39-.35.55-.46.41.12-.65.05-.83-.05-1-.04-.13-.11-.05-.17-.08-.05-.03-.1-.12-.12-.36-.18.37-.32.43-.49.46-.17.03-.38.03-.57.22.31.77-.11.11.12.97-.05.11-.09.11-.11.07-.12-.11-.25-.22-.39-.32-.15-.19.02-.24-.05-.42-.23.09-.21-.28-.44-.38.14.26.09.46-.07.45.11.07.22.15.32.23-.07.61-.56-.44-.65.18l-.04-.3c-.04.13-.19.24-.29.4-.1.16-.05.29.1.59-.07-.06-.24-.22-.24-.3-.26.09,0,.91-.42.72l-.11-.17c0,.07.17.34,0,.23-.05-.07-.11-.17-.14-.16.03.07.13.36,0,.3l-.1-.21c-.36-.04.05.67-.01.92-.38-.45-.66-.47-.8-.48l-.05-.07c-.27.14-.06.7-.11,1.06-.55-.38-.61.18-1.05.09.1.05.3.35.31.42-.13-.05.14.42-.21.01h.03c-.39-.37-.4-.18-.48-.12l.46.54c-.89-.58-.26.75-1,.18.07.18.01.23.09.4l-.26-.28c-.2.05-.3.08-.39.3l-.15-.23c-.11.07.65.9.58,1l-.42-.38c-.15.15-.66-.05-.45.47-.05-.06-.17-.18-.15-.22-.08.06-.55,0,.02.53-.36-.36-.2.12-.12.36l-.26-.28c.27.41.36.51.36.69-.06-.01-.23-.19-.13-.15-.22-.06.2.31-.04.26l-.14-.2c-.1.06,0,.14.15.38.06.15-.21.08-.47-.14.13.15.29.39.17.37-.1-.08-.14-.15-.15-.19-.32-.04.12.51-.24.34-.09-.08-.14-.12-.18-.14.11-.1.21-.18.22-.15-.25-.24-.38-.2-.65-.6.12.25.42.77.21.73-.03-.02-.05-.04-.09-.07l-.02-.03s-.04.03-.01.09c-.07-.01-.11-.03-.14,0-.22-.19-.21,0-.26.03.28.26.18.27.46.43-.03-.01-.03-.04,0-.08,0-.01,0-.03-.01-.05l.02.03s.05-.08.09-.13c.11.17.19.32,0,.22.15.19.31.38.38.48-.44-.3-.76-.38-1.01-.59.03.28-.2.42.26.98.03.1-.19-.09-.28-.15-.03-.07,0-.09-.07-.17.06.2-.15.28.2.63-.26-.05-.29-.36-.35-.18l-.09-.12c-.83-.26.56,1.27-.46.89.07.02.09.03.16.08-.63.04-.28.96-1.11.84-.19,0,.04.22.18.43l-.33-.24.28.4c.15.36-.98-.39-.62.2l.23.15c-.09.03-.04.31-.28.1.03.04.2.2.07.13l-.17-.13.15.39c-.22.03-.64-.55-.82-.39,0,.12.33.58.46.65.03-.02.16.01.33.15l.03.13c.48.4.95.85,1.41.98l-.22-.34.26.15-.05.1c.26.13.09-.06-.02-.2.14.09.23.15.3.17l-.38-.48c.2.14.34.35.5.37-.17-.22-.46-.3-.54-.5.26.13.43.29.29.08.13.09.2.17.23.24-.11-.18.05-.19-.19-.42.31.18.07-.23.52.15-.09-.11-.28-.38-.26-.45.48.54.17-.15.74.36-.44-.47-.03-.4-.21-.75.03.04.1.12.07.11.09-.03.26.08.38.11-.4-.35-.4-.53-.61-.79.45.26.43.45.82.75-.33-.28-.21-.41-.51-.61.29.15.16.05.52.31-.49-.44-.04-.13-.3-.44.32.13.48.38.41.16.19.09.3.32.3.32l-.04.07Zm1.1-2.89s-.02.05-.03.06c0-.01,0-.03.02-.06h0Zm.16-.18s-.06.03-.08.07c-.1-.09-.19-.18-.17-.2.05.07.15.08.26.13h0Zm-2.26-1.43c-.01-.07.05-.03.11.03,0,.02-.01.04-.01.08l.03.03c-.05-.05-.1-.1-.13-.14h0Z"/><path class="cls-2" d="m72.71,12.04c.11-.07-.24-.42-.4-.67.03-.2.28.25.47.42,0-.16-.22-.57-.15-.6.05.06.08.08.13.17-.16-.38.22-.19.01-.66.03.03.06.06.09.09-.17-.19-.32-.38-.42-.53.04-.04-.11-.31.11-.07-.03.01.05.12.09.21l-.04-.15c.32.34.03.18.24.45,0-.19-.13-.58.02-.53.29.35-.07.25.27.5l-.22-.05c.52.51-.09.01.45.57.22,0,.02-.31.24-.31-.12-.23-.24-.29-.36-.52-.08-.52.86.79.63.2-.15-.27-.49-.74-.2-.58l.28.44c.17-.07-.38-.65-.02-.48.1.18,0,.22.05.25.34.25-.11-.28-.05-.34l.3.35c.1-.17.05-.55.16-.75.07.11.13.25.26.33.06-.34.46-.3.83-.24l-.18-.37s.14.11.18.19c.17.05-.15-.2-.22-.35.03-.05.2.13.25.24-.08-.37-.08-.87.33-.65l.05.11c.21.03-.39-.73-.06-.53l.03.07c.34-.06.37-.55.93-.24-.33-.46.39,0-.1-.62.38.19.44.33.8.37.07-.01-.25-.44-.24-.56l.27.32-.2-.4.37.34v-.13c-.05,0-.18-.1-.26-.2-.03-.22.4.03.55.19l-.02-.45c.11.13.11.2.15.31-.16-.42.31.31.15-.07-.07-.06-.15-.2-.21-.26.22.14.34.04.35-.11l.18.23c.2-.08.24-.39.42-.55-.15-.05-.46-.43-.44-.51l.31.31c-.15-.23-.16-.07-.32-.38.1-.02.38.34.43.47l-.02-.18c.09.09.12.16.22.29-.15-.23.43.21.16-.19l.09.09c.18-.15.15-.34.28-.48-.25-.28-.14-.27-.3-.54.17,0,.55.07.51.05-.09-.18-.19-.26-.3-.46.21.28.23.22.35.44.01-.09,0-.09-.04-.44-.06-.13-.1-.18-.14-.3,0-.07.09.11.15.28v.04c-.04-.3.11-.11.2.13.09.22.11.48.09,0v.05c0-.18.02-.36.04-.55.03.05-.01.36,0,.64,0-.09.01-.16.01-.23.07-.34.04.31.13-.08-.08.64-.08.61-.04.56.03-.06.11-.13-.03.19l.11-.24c.11-.22-.05.14-.07.2.09-.18.09-.21.16-.33.11-.09.14.06.07.2.05.27.09.6.18.85.08.17.95-.81.7-.24l-.36.27c.63-.12.51.53,1.07.46-.09.06-.18.15-.2.13-.18.28.18.2.37.02.02.06-.16.18-.23.3-.08.19.42-.16.22.09-.03.04-.09.06-.11.07.15-.07.13.19.36-.11-.03.22.3.06.22.29.34-.25.02.3.45-.1-.44.42-.18.51.07.36-.15.11-.08.19-.29.34.07.06.22.04.42-.19-.39.64.67-.17.07.57.43-.03.77,0,1.05.07-.44.42-.24-.15-.69.3.35,0,.81-.28.88,0-.01.1-.21.16-.3.22.35,0,.29.37.67.28-.04.04-.1.07-.15.08.05.01,0,.13.2-.07l-.08.03c.24-.33.71-.47.87-.62-.61.51,0,.29-.78.92.05-.02.18-.09.3-.22,0,.07-.07.15-.26.27.22,0,.38-.24.48-.14-.09.09-.15.11-.27.22.24-.13.46-.27.47-.11-.06.05-.13.13-.15.11.17.11.73-.25.71.08-.46.36-.08.19-.43.55l.19-.02.14-.21c.07.08.39-.11.34.06l-.2.09.2.07.06-.21c.26-.11.44-.46.44-.26-.05.01.07.07-.1.32.15-.07.3-.16.27-.02-.1.13-.4.38-.47.46.33-.26.25.09.61-.18-.09.06-.28.24-.31.29l.27-.21c-.04.11-.07.15-.23.3.05.15.42-.48.34-.17-.03.01-.06.05-.11.07.02.22.38.08.38.31-.32.39-.18,0-.45.33.22.09.76-.1.83.14v-.07c.54-.48-.12.36.2.2-.05.02-.3.26-.24.2.03.19.34.09.66.09l-.15.11c-.05.18.09.23.11.36.15-.11.17-.05.33-.26-.53.95.79,0,.36.8-.02-.02-.17.06-.15.08l.28.04c.21-.23.11-.15.25-.36.15-.11.3-.17.34-.13-.22.07-.35.36-.44.5.06-.07.15-.13.22-.21-.31.47.46-.43.3-.05l-.12.11c.1-.02.29-.13.3-.05-.24.28-.16.07-.38.28.08.05.61-.36.41-.05-.1.05-.13,0-.24.05-.24.36-.15.29-.15.38h0s-.03.23-.03.23l.05-.11c.74-.59.28.04.82-.29-.52.31-.26.22-.55.5-.05.11-.1.24-.2.31.28-.18-.1.27.31,0-.09.09.05.06-.2.28.14,0,.15-.18.27-.29.42-.22-.15.62.43.34.3-.05.64-.34.92-.38-.11.19-.37.3-.37.3-.07.2,0,.22.17.18-.09.07-.15.15-.24.27.07.03.37-.3.3-.11-.11.09-.3.24-.42.32.14-.03.37-.15.51-.17-.15.18-.28.21-.4.3.14,0,.32.03.59-.21l.05-.13s-.21.23-.27.26c-.26.14,0-.17.1-.27l.1-.02c.51-.59-.26-.08-.31-.2l.43-.36-.42.24c.09-.12.3-.36.4-.37.13-.26-.2.09-.03-.18.03-.04.05-.05.07-.07l-.18.06c.09-.07.27-.29.25-.2.12-.34-.46.13-.21-.22h.03c-.28-.03-.3.26-.75.49l.65-.79-.3.28s-.01-.07.11-.19c-.26.14-.11.13-.34.29.2-.34-.32-.07.12-.56-.25.2-.1.24-.33.32.48-.52-.18,0-.01-.3.28-.24.2-.04.37-.34-.48.4-.03-.22-.18-.2-.35.34-.27.02-.48.04.12-.11.01-.36.05-.58l.06-.05c-.36.33-.39.18-.53.18.22-.21.31-.28.44-.34l-.06-.06c-.13.09-.2.13-.28.13l.28-.24c-.09-.07-.47.14-.4-.14-.25.24-.59.76-.87.81.13-.13.35-.36.43-.39-.03,0-.14.07-.11,0l.27-.18c.05-.15-.21.16-.23.1.19-.19.11-.16.26-.3.03,0-.05.11.05.05,0-.07.05-.24.18-.4-.1.11-.26.26-.31.24-.09-.07.2-.26.25-.4-.15.11-.07-.07-.35.2-.02-.03.1-.16.17-.25-.17.08-.24-.16-.48.18v.03h-.03c-.42.14-.13-.45-.39-.46l.09-.09c-.19.03-.25-.12-.51.02-.03-.03.11-.23.24-.33-.13,0-.25.11-.18-.14.23-.1.12-.17.19-.05,0-.16.13-.33-.22-.16.27-.21.24-.36.13-.33l-.11.23c-.08,0-.09-.07-.11-.13l.34-.3c.22-.55-.96.35-.44-.42-.27.18-.07.25-.36.46-.03-.12.34-.65.32-.68.07-.28-.56.36-.55.13-.1.13-.39.44-.58.46-.03-.12.38-.57.52-.61.03,0,0,.05-.04.09.07-.01.15-.03.24-.18l-.12.1c.07-.15-.04-.25.17-.41-.17.05-.21.16-.23.26.07-.26-.15-.16-.14-.37-.05.08-.16.23-.18.21,0-.29-.28.15-.43.09.11-.23.43-.39.19-.35.05-.18.29-.31.4-.38-.31.13-.03-.32-.04-.41l.14-.04c-.08.03-.11,0-.13-.03l-.2.26c.01-.07-.01-.09.08-.19-.18.12-.36.4-.61.54.07-.15-.24,0,.05-.31.02.22.29-.32.44-.26-.05.01-.08,0-.07-.08.03-.04.07-.06.09-.07.15-.38-.39.28-.51.16.18-.15.3-.35.24-.33.05.05-.26.3-.43.39.05-.21-.18.01-.21-.04v.11c-.2.15-.22.09-.32.09.13-.13.14-.04.18-.12-.36.24.18-.44-.11-.32.07-.15.32-.32.36-.43-.31.13.13-.33-.15-.25-.2.26-.14.2-.43.36h.32l-.43.23c.05.05.24-.04.24.03-.24.13-.18.09-.34.3.28-.4-.33.07-.18-.24l.57-.56c.13-.36-.49.08-.5-.21l-.05.15c-.24.2-.12-.06-.26-.02.2-.18.23-.28.33-.42-.13.14-.09-.12-.48.24l.18-.32c-.02-.22-.67.4-.73.22.24-.17.32-.36.55-.42-.03-.04-.04-.11-.17.02.09-.14-.36.15-.22-.07-.1.07-.3.26-.33.2.03-.04.09-.09.09-.09-.09.09-.2.06-.36.3.47-.71-.38-.29.03-.9-.15-.02-.31-.06-.4-.13.06-.05.09-.09.09-.06.07-.28-.61.47-.53.16.24-.36.23-.1.3-.26.6-.63-.23-.06.05-.51h.05c.15-.28-.38.07-.44-.07,0,0,.06-.05.09-.09-.38.25-.62.22-.81.21.27-.21.18-.08.4-.35-.08,0-.38.41-.54.39.11-.16.15-.34.41-.61l.09.07c.3-.38-.11-.09-.1-.2l.15-.14c-.18-.08-.55.3-.66.13l-.1.13c-.44.3.15-.27-.2-.07l.36-.4c-.14.04-.53.2-.69.18.33-.23.57-.27.8-.37-.05-.05-.19-.13-.4.02.05-.01.18-.08.13,0-.35.24-.59.29-.69.17.34-.38.3-.53.21-.67-.09-.14-.2-.27-.07-.69-.24.03-.34-.13-.46-.36-.11-.23-.24-.52-.42-.66-.09,1.05-.1-.07-.27.93-.07,0-.09-.04-.09-.11-.03-.26-.07-.54-.12-.82-.02-.36.09-.16.11-.4-.17-.26-.03-.52-.13-.94,0,.41-.11.49-.2.24l.11.65c-.16.22-.18-.25-.25-.58-.04-.13-.11-.16-.21.17l.08-.43c-.13.34-.55.52-.57,1.43-.04-.09-.11-.34-.06-.46-.18.09-.32.47-.43.77-.12.3-.22.53-.42.44l-.06-.22c-.04.11.07.46-.09.33-.03-.08-.07-.21-.1-.2,0,.1.02.46-.11.43l-.05-.26c-.46.07-.19.93-.24,1.16-.4-.44-.67-.46-.8-.46l-.05-.07c-.25.13-.02.68-.05,1.02-.55-.38-.58.15-1.01.05.1.05.3.35.3.42-.12-.05.15.42-.2,0h.02c-.38-.38-.38-.19-.46-.14l.46.55c-.87-.62-.26.72-.96.11.07.18.01.22.08.4l-.24-.29c-.19.03-.28.05-.38.26l-.14-.24c-.11.05.59.94.53,1.02l-.39-.42c-.15.14-.63-.11-.46.41-.05-.07-.15-.2-.14-.24-.08.05-.53-.06,0,.52-.32-.39-.2.09-.14.34l-.22-.3c.23.43.31.53.3.72-.05-.02-.21-.22-.12-.17-.2-.09.16.33-.06.25l-.11-.22c-.1.05-.01.14.11.39.04.16-.22.05-.44-.2.12.17.25.42.13.38-.09-.09-.12-.17-.13-.21-.3-.09.07.51-.26.3-.08-.09-.12-.14-.15-.16.11-.08.22-.13.23-.11-.22-.27-.34-.25-.57-.67.09.26.32.8.13.74-.03-.03-.05-.05-.09-.09v-.04c-.05-.01-.05.03-.03.09-.06-.02-.11-.04-.13-.03-.19-.22-.2-.04-.25-.02.24.3.14.29.39.5-.03-.01-.02-.04,0-.08v-.05l.02.03s.05-.07.09-.11c.08.18.15.34-.03.21.13.21.26.42.32.53-.39-.36-.68-.5-.9-.74,0,.28-.24.36.11.99.01.1-.17-.13-.26-.2-.02-.07.01-.09-.04-.18.03.2-.19.24.09.64-.24-.1-.22-.4-.31-.24l-.07-.13c-.75-.42.33,1.34-.59.75.06.03.09.05.14.11-.61-.1-.46.86-1.22.54-.18-.05,0,.22.08.46l-.26-.32.18.45c.05.38-.84-.63-.63.03l.18.21c-.09,0-.11.28-.29.01.02.05.14.25.03.15l-.13-.18.05.41c-.22-.03-.47-.7-.67-.61-.02.11.16.64.27.74.03-.01.15.06.27.23v.13c.35.52.67,1.08,1.08,1.33l-.11-.39.21.22-.08.08c.22.2.1-.03.04-.2.1.13.18.21.24.24l-.24-.57c.15.19.24.43.38.49-.11-.26-.36-.41-.39-.62.22.2.34.4.26.15.1.13.15.22.17.3-.06-.2.09-.17-.07-.46.26.25.13-.21.47.28-.07-.13-.18-.44-.14-.51.32.64.21-.1.63.53-.31-.57.07-.4-.01-.78.02.05.07.14.04.12.1,0,.23.13.34.2-.3-.43-.27-.61-.41-.91.38.35.32.53.63.91-.26-.34-.11-.45-.35-.71.25.21.14.08.44.41-.38-.54,0-.13-.2-.5.28.2.39.48.37.24.17.13.22.38.22.38l-.04.12Zm1.62-2.69s-.03.04-.03.05c0-.01.01-.03.03-.06h0Zm.19-.15s-.06.03-.09.05c-.09-.09-.16-.21-.14-.22.05.07.13.1.24.16Zm-2.03-1.74c0-.07.05-.01.11.04,0,.01-.02.04-.03.07,0,.01.01.03.03.04-.04-.06-.08-.11-.11-.16h0Z"/><path class="cls-2" d="m171.39,58c.09-.09-.33-.36-.53-.57,0-.21.33.18.56.3-.03-.16-.34-.51-.27-.56.07.05.1.05.17.13-.24-.34.19-.25-.11-.66.04.02.07.05.11.07-.2-.15-.4-.31-.53-.42.03-.05-.17-.29.09-.09-.03.02.07.11.14.19l-.07-.14c.39.26.07.17.33.39-.03-.19-.24-.55-.07-.53.36.28-.03.26.36.43h-.23c.63.38-.09.03.56.45.23-.06-.04-.31.19-.37-.17-.2-.3-.24-.46-.43-.17-.5,1.02.59.68.04-.2-.24-.63-.63-.3-.54l.36.37c.16-.11-.5-.56-.11-.48.13.15.03.22.1.24.39.17-.17-.26-.1-.33l.36.28c.07-.2-.03-.57.05-.79.1.1.18.22.32.27,0-.36.42-.41.81-.43l-.24-.34s.16.08.21.15c.18.02-.19-.17-.27-.3.02-.06.22.09.29.2-.13-.36-.21-.86.24-.73l.07.11c.22,0-.51-.65-.14-.52l.03.07c.34-.13.3-.64.92-.44-.4-.41.4-.07-.18-.61.42.11.49.25.86.23.07-.03-.31-.4-.31-.53l.32.27-.25-.38.42.28-.03-.13s-.19-.07-.28-.15c-.06-.22.42-.04.59.09l-.07-.46c.12.11.13.19.19.29-.21-.4.35.26.15-.1-.08-.05-.18-.17-.24-.23.24.11.35-.01.35-.18l.2.21c.2-.12.2-.44.37-.63-.16-.02-.52-.36-.51-.45l.35.27c-.18-.22-.18-.05-.36-.34.1-.04.42.28.49.42l-.04-.19c.1.08.13.15.26.26-.18-.22.46.14.15-.22l.1.08c.17-.19.13-.37.24-.54-.28-.26-.17-.26-.36-.51.19-.03.52.04.61-.12-.06-.22-.22-.24-.35-.43.26.22.36.06.49.3.1-.2.13-.26.09-.65-.13-.07-.19-.09-.27-.18-.01-.07.18.01.3.13l.02.03c-.19-.57,1.22.13.84-.53l.02.03-.11-.44c.12-.05.15.22.36.3-.13-.28-.02-.38.04-.39.05,0,.12.04.01-.13.35.38.33.36.32.28-.02-.07-.03-.23.11.11l-.09-.26c-.08-.26.07.13.09.2-.07-.21-.09-.23-.13-.38,0-.2.08-.2.14-.06.06.13.09.39.08.59v.09c-.02.09.18-1.86.13-.95l-.1.63c.06-.37.1-.3.12-.26.02.05.03.1.17-.09-.05.1-.12.24-.12.23-.15.34.01.05.18-.18,0,.04-.13.22-.2.35-.12.17.27-.32.08-.05-.03.03-.07.07-.09.1.11-.12,0,.05.24-.24-.11.15.17-.05.02.12.34-.25-.03.3.45-.05-.49.36-.24.5.04.4-.17.09-.11.18-.33.3.07.08.22.09.46-.11-.46.59.7-.05.02.61.45.05.8.14,1.08.28-.49.36-.24-.21-.73.19.36.06.86-.13.91.16-.03.1-.23.13-.33.18.36.05.27.44.67.42-.05.03-.11.05-.16.06.05.03,0,.14.21-.03h-.09c.27-.29.77-.36.94-.48-.67.42-.01.3-.88.82.06,0,.19-.06.33-.18-.01.07-.09.15-.28.24.22.04.42-.19.51-.07-.11.08-.16.09-.3.18.25-.1.5-.2.49-.03-.07.04-.14.12-.16.09.17.15.77-.14.73.2-.5.3-.1.18-.49.51h.19l.16-.18c.06.09.41-.05.34.12l-.21.06.21.11.07-.22c.28-.07.49-.4.47-.2-.06,0,.07.09-.13.32.16-.05.33-.12.28.03-.12.11-.44.34-.52.41.36-.22.26.13.65-.09-.1.05-.3.22-.34.26l.3-.18c-.05.11-.09.15-.26.28.05.16.46-.44.37-.12-.03,0-.07.04-.13.05,0,.24.4.14.37.38-.36.36-.19-.04-.49.28.23.13.79.01.86.28v-.07c.59-.43-.15.36.19.24-.06.01-.33.22-.26.18.01.2.35.15.68.2l-.16.09c-.07.18.09.26.09.39.16-.09.18-.03.36-.23-.59.92.82.11.34.89-.02-.03-.18.04-.15.06l.28.07c.22-.22.12-.15.28-.34.16-.09.32-.13.35-.09-.23.05-.38.32-.49.47.07-.07.16-.12.23-.19-.34.46.49-.39.32-.01l-.13.1c.11,0,.31-.1.32-.01-.26.26-.18.05-.4.24.08.06.65-.3.43,0-.1.03-.14-.01-.25.02-.26.35-.17.29-.18.38h0s-.03.24-.03.24l.06-.11c.79-.52.3.07.87-.2-.55.26-.27.2-.59.46-.06.11-.11.24-.21.3.3-.15-.11.27.32.04-.09.09.05.07-.21.28.14,0,.15-.17.29-.27.44-.18-.17.63.44.4.32-.02.67-.28.96-.3-.12.18-.39.28-.39.28-.08.2,0,.24.17.2-.1.06-.16.14-.25.26.07.03.39-.28.31-.08-.12.09-.31.22-.45.3.15-.01.39-.11.54-.12-.15.17-.3.19-.43.26.15,0,.33.06.62-.15l.05-.13s-.22.22-.29.24c-.27.12.01-.18.11-.27h.11c.53-.57-.26-.12-.32-.24l.46-.33-.44.21c.09-.11.31-.34.42-.34.15-.25-.2.07-.03-.2.03-.04.05-.05.07-.06l-.18.04c.1-.07.29-.27.26-.18.13-.34-.48.08-.21-.24h.03c-.29-.06-.32.24-.8.43l.69-.75-.32.26s-.01-.08.12-.18c-.27.12-.13.13-.36.26.21-.33-.34-.12.15-.57-.26.18-.11.24-.36.29.51-.48-.18-.03,0-.32.3-.22.22-.01.39-.3-.51.36-.03-.24-.18-.23-.37.32-.28,0-.49-.01.13-.1.03-.38.07-.6l.07-.05c-.39.3-.41.13-.56.12.23-.19.33-.25.46-.3l-.06-.07c-.13.09-.22.11-.3.11l.3-.22c-.09-.08-.5.09-.41-.2-.27.22-.65.72-.94.73.14-.13.38-.34.47-.35-.03,0-.15.06-.11-.01l.28-.15c.06-.15-.22.14-.24.07.2-.17.12-.15.28-.28.03,0-.05.11.04.06,0-.08.06-.24.2-.4-.12.1-.28.23-.33.22-.1-.08.21-.24.28-.38-.16.09-.07-.09-.37.16-.02-.03.12-.15.19-.24-.18.06-.24-.2-.51.13v.03h-.03c-.44.09-.11-.48-.38-.54l.1-.08c-.2,0-.25-.16-.52-.05-.02-.03.13-.22.26-.31-.14-.01-.26.07-.18-.18.24-.07.14-.15.2-.03,0-.17.15-.32-.21-.2.3-.18.27-.34.15-.32l-.13.22c-.08-.02-.1-.09-.11-.15l.37-.26c.26-.54-1.01.22-.42-.5-.29.14-.09.25-.41.43-.03-.13.4-.63.38-.66.1-.28-.61.3-.58.05-.11.11-.43.4-.63.39-.03-.13.43-.53.58-.55.03.01,0,.05-.05.09.07,0,.15,0,.26-.15l-.13.09c.09-.15-.02-.26.21-.4-.18.03-.23.13-.26.24.09-.26-.14-.19-.11-.41-.05.07-.19.21-.2.19.01-.3-.3.11-.45.03.13-.22.48-.34.22-.33.07-.18.32-.28.44-.33-.33.08,0-.34,0-.43l.15-.02c-.09.01-.11-.02-.13-.05l-.22.23c.01-.07,0-.1.1-.18-.19.09-.4.36-.68.46.09-.15-.25-.03.07-.31,0,.24.32-.28.47-.2-.06,0-.08-.02-.06-.09.03-.03.07-.05.1-.05.19-.37-.43.23-.53.08.2-.13.33-.31.28-.3.04.06-.3.28-.48.33.07-.21-.19-.01-.21-.07l-.03.11c-.2.13-.22.06-.32.04.14-.12.15-.02.19-.09-.39.19.22-.43-.08-.36.09-.15.35-.28.41-.38-.33.08.17-.32-.13-.28-.23.23-.16.19-.47.3l.33.05-.46.16c.04.06.26,0,.24.07-.26.1-.19.06-.38.25.32-.38-.34.01-.16-.28l.63-.48c.18-.36-.51,0-.49-.3l-.07.14c-.27.17-.12-.09-.27-.07.22-.15.26-.25.38-.38-.15.12-.09-.14-.52.16l.21-.29c0-.24-.73.29-.77.09.26-.13.36-.31.6-.34-.03-.05-.03-.12-.18-.01.11-.13-.38.08-.21-.11-.11.05-.34.21-.36.14.04-.04.11-.08.11-.08-.11.08-.21.03-.4.25.55-.65-.33-.34.05-1.02-.18-.09-.36-.2-.47-.32.05-.06.08-.11.09-.06,0-.4-.55.55-.51.13.17-.51.21-.11.25-.32.24-.42.17-.46.07-.48s-.23.02-.16-.32h.05c.04-.46-.36.05-.46-.2,0,0,.03-.08.05-.15-.26.4-.45.39-.59.41.12-.42.1-.18.17-.67-.07,0-.13.77-.25.77.01-.3-.02-.63.03-1.19l.11.12c.05-.76-.15-.18-.19-.38l.04-.3c-.17-.14-.24.53-.37.44-.01,0-.03.04-.05.05v.23c-.1.93-.06-.37-.16.34l-.03-.77c-.07.28-.21,1.04-.3,1.29,0-.61.14-1.07.23-1.54-.07.08-.26.36-.26.77.02-.1.05-.33.08-.25-.05.7-.11,1.08-.22,1.2-.09-.69-.2-.66-.32-.58s-.24.22-.44-.17c-.07.38-.21.48-.4.57-.18.09-.4.16-.56.39.59.55-.08.13.44.79-.03.11-.06.13-.1.09-.17-.05-.35-.1-.54-.13-.22-.11-.05-.22-.19-.34-.22.16-.32-.16-.61-.16.12.08.18.18.19.25.02.06,0,.09-.07.09.13.05.24.11.37.15.17.47-.65-.31-.46.15l-.15-.22c.04.19-.28.31.15.84-.09-.05-.27-.18-.28-.26-.25.14.13.92-.31.81l-.13-.15c.01.07.23.32.03.23-.06-.06-.13-.15-.16-.14.03.07.18.34.05.31l-.14-.2c-.37.03.15.67.11.93-.44-.39-.73-.36-.87-.34l-.06-.06c-.26.18.03.72.02,1.08-.6-.29-.59.28-1.05.25.11.04.34.31.36.38-.13-.03.19.41-.21.05h.02c-.44-.32-.42-.13-.5-.06l.53.48c-.96-.46-.19.8-.99.31.09.17.03.23.13.4l-.28-.25c-.19.07-.3.11-.38.35l-.18-.22c-.11.08.73.84.66.95l-.45-.34c-.14.18-.67.03-.42.53-.06-.05-.18-.17-.18-.22-.08.07-.57.06.05.54-.39-.33-.19.15-.1.38l-.27-.26c.3.39.39.48.4.67-.06,0-.25-.18-.15-.15-.22-.04.21.3-.03.28l-.15-.2c-.1.07,0,.15.18.38.07.15-.22.11-.49-.1.15.15.32.38.2.36-.1-.07-.15-.15-.17-.18-.32-.02.14.51-.23.36-.09-.08-.15-.11-.18-.13.11-.11.21-.2.22-.17-.26-.22-.39-.17-.69-.56.13.25.45.75.24.73-.03-.02-.06-.03-.1-.07l-.02-.03s-.03.04,0,.09c-.07,0-.11-.01-.15,0-.23-.18-.21,0-.26.05.29.24.19.26.48.41-.03,0-.03-.04-.01-.08,0-.01,0-.03-.01-.05l.02.03s.05-.09.08-.13c.12.16.2.31,0,.22.16.18.33.37.4.46-.46-.28-.78-.34-1.04-.53.03.28-.19.43.28.98.03.1-.2-.09-.3-.14-.03-.07,0-.09-.07-.17.07.2-.16.29.2.63-.26-.04-.3-.36-.36-.16l-.1-.11c-.85-.24.57,1.28-.47.93.07.02.1.03.17.07-.65.07-.31,1-1.16.9-.19,0,.04.22.17.44l-.33-.24.27.4c.13.37-.98-.38-.65.22l.23.15c-.1.03-.06.32-.29.1.03.04.2.2.07.14l-.16-.13.14.4c-.23.03-.63-.56-.82-.4,0,.12.3.59.44.66.03-.02.16.01.33.15l.03.13c.47.41.92.88,1.39,1l-.2-.36.26.16-.06.1c.26.13.1-.06,0-.21.13.09.23.15.3.17l-.37-.49c.2.15.33.36.5.38-.17-.23-.46-.3-.53-.51.26.13.43.3.3.08.13.09.2.18.24.24-.1-.18.06-.2-.17-.44.32.18.09-.24.54.15-.09-.11-.28-.4-.25-.46.46.55.2-.16.75.36-.43-.48,0-.42-.17-.77.03.04.1.12.07.11.1-.03.26.07.39.11-.4-.35-.4-.53-.6-.79.46.25.43.45.83.74-.33-.27-.2-.42-.5-.62.3.14.16.05.52.3-.49-.44-.03-.13-.3-.44.33.12.49.38.42.15.2.08.3.32.3.32l-.07.02Zm1.17-3.1s-.02.05-.03.06c0-.01,0-.03.02-.07h0Zm.17-.2s-.06.04-.09.07c-.11-.08-.2-.18-.18-.19.05.07.15.07.26.11h0Zm-2.36-1.29c-.01-.07.05-.03.11.02,0,.02-.01.05-.01.09l.03.03c-.05-.05-.1-.09-.13-.13h0Z"/><path class="cls-2" d="m45.11,172.3c.07-.07-.36-.33-.58-.51-.04-.18.33.17.56.29-.06-.14-.4-.46-.34-.49.07.05.1.05.18.13-.27-.3.13-.21-.22-.58.04.02.07.04.11.06-.21-.14-.42-.28-.56-.39.02-.04-.2-.26.07-.07-.03.02.08.09.15.17l-.09-.12c.4.24.09.15.37.35-.07-.17-.32-.48-.16-.46.38.26.03.23.41.39h-.21c.63.34-.08.01.59.4.2-.04-.09-.27.1-.31-.19-.18-.31-.22-.5-.39-.24-.44,1.02.55.63.06-.22-.21-.68-.57-.37-.47l.4.34c.13-.09-.55-.5-.18-.42.15.14.07.19.13.21.38.16-.2-.23-.15-.29l.38.26c.03-.17-.13-.5-.1-.68.1.09.2.2.34.25-.06-.31.32-.34.65-.34l-.27-.3s.16.08.22.14c.17.03-.2-.15-.3-.28,0-.05.22.09.3.18-.19-.31-.34-.75.09-.62l.08.09c.2,0-.58-.59-.22-.45l.05.06c.29-.1.16-.54.75-.34-.44-.36.35-.05-.28-.53.4.12.49.24.83.23.06-.02-.35-.36-.38-.46l.34.24-.3-.33.43.26-.05-.12s-.18-.07-.28-.14c-.09-.19.38-.02.55.1l-.15-.4c.13.1.15.17.22.26-.27-.35.36.24.12-.08-.09-.04-.2-.15-.26-.2.23.11.32-.01.28-.13l.23.18c.07.03-.07-.13-.05-.16-.09-.09-.43-.48-.44-.54l.29.34c-.17-.23-.12-.11-.32-.4.05,0,.33.4.42.52l-.08-.15c.08.11.12.17.23.31-.16-.24.27.38,0-.05l.07.12s-.06-.17-.05-.21c-.17-.41-.12-.33-.24-.69.09.09.22.42.22.35-.04-.26-.09-.41-.15-.71.11.44.12.36.18.71.01-.11,0-.13,0-.6-.03-.2-.05-.28-.06-.46,0-.1.05.15.07.4v.08-.03c0-.3.09.11.12.44.03.33.02.57.07.14v.04c.02-.15.05-.28.09-.42.01.1-.05.3-.07.57.07-.33.09-.28.09-.21,0,.07,0,.15.08-.03-.15.55-.15.53-.11.48.04-.05.13-.12-.05.16l.13-.2c.14-.19-.07.12-.1.17.11-.15.12-.18.2-.28.07-.03.07-.06.13.03.06.09.1.2.13.32.05.25.07.55.15.77.07.15.88-.88.65-.32l-.34.3c.58-.2.46.43.98.28-.08.07-.17.17-.19.15-.16.28.17.16.34-.03.01.05-.15.19-.22.31-.07.19.39-.21.2.05-.03.04-.08.07-.11.08.13-.09.12.15.33-.15-.03.21.27.01.2.24.32-.28.01.28.41-.16-.4.46-.17.5.07.33-.13.13-.07.19-.26.36.07.05.2,0,.39-.24-.36.65.61-.26.07.51.4-.1.71-.12.96-.1-.4.46-.22-.11-.63.39.32-.06.74-.38.8-.15-.01.09-.19.18-.27.25.32-.06.27.3.62.15-.03.04-.09.08-.13.1.04,0,0,.12.18-.09l-.07.03c.21-.34.64-.56.78-.71-.55.57.01.27-.7.98.05-.03.15-.11.27-.26,0,.06-.07.15-.23.3.2-.03.34-.29.43-.21-.09.1-.13.13-.24.24.21-.16.42-.33.42-.18-.05.06-.11.15-.13.13.15.07.66-.36.65-.05-.41.42-.07.19-.38.59l.17-.05.12-.21c.06.06.35-.18.3,0l-.18.12.19.03.05-.21c.23-.15.39-.5.39-.32-.05.03.06.06-.09.32.13-.09.28-.2.24-.06-.09.13-.36.43-.42.52.3-.3.23.03.55-.28-.08.07-.24.28-.28.32l.24-.24c-.03.11-.07.15-.2.32.05.12.37-.53.31-.22-.03.01-.05.06-.1.08.02.2.35,0,.35.21-.28.42-.17.03-.4.38.21.05.69-.23.75-.02v-.07c.47-.55-.1.36.18.15-.05.03-.27.3-.22.24.03.17.31.02.6-.04l-.13.13c-.04.18.09.19.11.31.13-.13.15-.08.29-.3-.44.98.71-.15.36.67-.02-.01-.15.09-.13.1l.25-.02c.18-.26.09-.16.22-.38.13-.13.26-.22.3-.18-.2.12-.3.4-.38.56.05-.08.13-.15.18-.24-.26.5.4-.49.28-.11l-.11.13c.09-.03.26-.18.27-.11-.2.3-.14.1-.33.34.07.03.53-.45.37-.13-.09.06-.12.03-.21.09-.2.38-.13.3-.12.39h0s-.01.22-.01.22l.04-.11c.65-.69.26-.02.73-.43-.45.39-.22.26-.47.57-.04.11-.08.24-.16.32.25-.23-.07.27.28-.07-.07.11.05.05-.17.3.13-.03.12-.2.23-.32.36-.28-.1.61.41.22.27-.12.56-.45.8-.55-.09.2-.32.36-.32.36-.05.2.01.21.16.13-.08.08-.13.17-.2.3.07,0,.32-.36.26-.16-.1.11-.25.29-.36.39.13-.05.32-.22.45-.27-.12.2-.24.26-.35.36.12-.03.29-.05.53-.32l.03-.14s-.18.26-.23.3c-.22.19,0-.16.07-.27l.09-.04c.42-.65-.24-.02-.29-.11l.37-.42-.36.31c.07-.13.24-.39.34-.42.11-.26-.17.12-.03-.16.02-.04.04-.06.06-.07l-.15.1c.08-.09.23-.32.22-.24.09-.34-.41.22-.2-.15l.03-.02c-.25.05-.26.32-.65.63l.54-.86-.26.32s-.01-.07.09-.2c-.22.18-.1.15-.29.34.15-.35-.3,0,.09-.54-.22.23-.08.24-.28.36.4-.58-.15.03-.03-.28.24-.28.18-.07.32-.38-.41.46-.04-.2-.16-.15-.3.39-.24.07-.42.14.11-.13,0-.34.02-.55l.05-.06c-.32.38-.34.24-.47.28.18-.24.26-.32.38-.4l-.06-.04c-.11.12-.18.17-.25.18l.24-.28c-.09-.04-.42.22-.37-.05-.22.27-.51.82-.75.92.11-.15.3-.4.38-.44-.03.01-.13.1-.09.02l.24-.21c.04-.14-.18.19-.2.14.16-.21.09-.17.22-.34.03-.01-.03.11.04.04-.01-.07.03-.23.14-.4-.09.12-.22.28-.27.29-.09-.05.17-.28.21-.42-.13.13-.06-.06-.31.26-.02-.02.09-.17.15-.26-.15.11-.22-.11-.43.26v.03s-.01,0-.03,0c-.37.21-.13-.39-.36-.36l.08-.1c-.17.06-.23-.06-.46.12-.02-.02.09-.24.2-.35-.12.03-.22.14-.17-.09.2-.13.11-.18.17-.09,0-.15.11-.33-.2-.11.24-.24.21-.38.11-.33l-.1.24c-.07,0-.09-.05-.11-.09l.3-.34c.19-.55-.86.5-.4-.3-.24.21-.05.24-.32.5-.03-.1.3-.67.28-.69.06-.27-.5.44-.5.22-.09.13-.34.48-.51.53-.03-.1.34-.59.46-.65.03,0,0,.05-.03.1.06-.03.13-.05.22-.22l-.11.12c.07-.15-.04-.22.15-.4-.15.07-.19.19-.2.28.05-.26-.13-.12-.13-.32-.04.08-.15.24-.16.22-.01-.26-.25.19-.39.17.1-.23.38-.44.16-.36.05-.18.26-.34.36-.43-.28.17-.03-.28-.04-.37l.13-.06c-.07.04-.09.02-.11,0l-.18.27c0-.07-.01-.08.07-.19-.16.14-.32.43-.55.61.07-.15-.22.05.04-.29.02.2.26-.34.4-.32-.05.03-.07,0-.06-.06.03-.04.06-.07.08-.08.13-.38-.35.33-.46.24.17-.18.26-.37.22-.34.04.04-.24.32-.39.43.05-.2-.16.05-.19,0v.1c-.18.17-.2.12-.29.13.11-.15.13-.06.16-.14-.32.28.15-.44-.1-.28.07-.15.28-.35.32-.46-.28.17.12-.33-.13-.2-.18.27-.13.21-.39.4l.29-.05-.39.28s.22-.08.22-.01c-.21.16-.15.11-.3.33.25-.42-.3.11-.16-.19l.51-.61c.12-.36-.44.16-.45-.11l-.05.14c-.22.23-.11-.03-.24.03.18-.2.21-.3.3-.44-.13.15-.09-.1-.44.3l.17-.32c-.01-.2-.61.47-.66.32.22-.19.29-.38.5-.48-.03-.03-.03-.09-.15.05.09-.14-.33.19-.2-.03-.09.07-.28.28-.3.24.03-.05.09-.1.09-.1-.09.1-.18.09-.34.34.43-.72-.34-.21.03-.83-.13,0-.28,0-.36-.05.05-.05.09-.1.08-.07.07-.27-.56.53-.48.23.23-.37.21-.13.28-.28.56-.67-.21-.02.05-.47l.05-.03c.14-.27-.35.13-.4,0,0,0,.05-.05.09-.1-.36.28-.57.3-.73.31.25-.24.16-.1.37-.38-.07,0-.36.43-.5.44.1-.16.15-.34.38-.62l.09.05c.28-.4-.11-.07-.09-.17l.14-.15c-.15-.05-.51.35-.6.22l-.09.13c-.41.34.14-.27-.18-.03l.33-.42c-.13.06-.49.25-.63.26.3-.26.53-.33.74-.45-.04-.04-.17-.1-.36.08.05-.02.16-.1.12-.03-.33.27-.53.36-.61.28.35-.38.34-.48.3-.56-.04-.09-.17-.21.03-.57-.46.1-.4-.59-.75-.82-.21.89-.09-.05-.38.8-.07,0-.09-.03-.07-.09,0-.22,0-.45-.03-.69.02-.31.11-.14.16-.34-.14-.21.03-.44-.03-.79-.05.35-.16.43-.23.21l.04.55c-.3.32-.05-.98-.36-.67l.11-.25c-.14.08-.47-.44-.59.35-.01-.14-.04-.47.01-.51-.23-.32-.44.13-.61,0-.04.05-.08.06-.13-.02l-.02-.31c-.03.14,0,.63-.08.41-.01-.12-.03-.3-.05-.3,0,.13-.03.63-.1.54v-.37c-.3-.05-.18,1.16-.26,1.5-.22-.71-.46-.71-.59-.69l-.03-.09c-.3.3-.2,1.11-.26,1.58-.26-.2-.42-.09-.57.07s-.29.34-.55.39c.12.02.36.3.37.38-.15,0,.24.37-.2.05h.02c-.45-.29-.4-.12-.46-.07l.57.43c-.96-.44-.03.68-.84.22.11.15.07.2.19.34l-.3-.23c-.16.06-.24.09-.28.28l-.2-.19c-.08.07.81.75.77.84l-.48-.32c-.09.15-.61,0-.29.44-.07-.05-.2-.15-.2-.19-.06.06-.5.03.15.46-.41-.3-.15.12-.02.32l-.3-.24c.34.35.44.42.48.59-.05,0-.26-.16-.15-.13-.21-.05.25.26.02.24l-.17-.18c-.07.05.03.13.23.33.09.13-.17.08-.46-.11.16.13.36.34.24.32-.11-.07-.16-.13-.19-.16-.3-.03.22.44-.14.3-.1-.07-.15-.1-.19-.12.08-.1.15-.15.17-.13-.28-.2-.38-.16-.73-.51.16.22.55.66.36.64-.03-.02-.06-.03-.1-.06l-.03-.03s-.03.03,0,.08c-.06,0-.11-.02-.13,0-.24-.16-.19,0-.23.03.31.22.22.24.51.37-.03,0-.03-.03-.03-.07,0-.01,0-.02-.02-.04l.03.02s.03-.07.05-.11c.13.14.24.27.04.19.18.16.36.34.45.42-.46-.26-.77-.32-1.04-.51.09.24-.09.36.42.85.05.09-.2-.08-.29-.13-.04-.06-.02-.08-.09-.15.1.17-.09.24.3.55-.24-.05-.34-.32-.36-.15l-.11-.11c-.81-.24.75,1.12-.26.77.06.02.09.03.16.07-.58.03-.1.85-.88.71-.18,0,.07.2.23.38l-.34-.22.32.36c.19.32-.96-.38-.55.15l.24.14c-.08.03,0,.27-.24.07.03.03.22.19.09.12l-.18-.12.2.35c-.2.01-.67-.52-.81-.38.03.11.38.53.51.59.03-.01.15.02.32.14l.05.11c.5.38.99.8,1.43.93l-.24-.32.27.15-.04.09c.26.13.08-.05-.04-.18.13.09.24.14.3.16l-.42-.44c.21.13.36.33.52.35-.2-.2-.47-.28-.57-.46.26.13.44.28.28.08.13.09.21.16.26.22-.12-.16.02-.17-.23-.38.32.16.03-.2.51.15-.11-.1-.32-.35-.31-.41.52.49.15-.13.75.34-.48-.43-.08-.36-.3-.67.03.03.11.11.08.1.08-.02.25.07.37.11-.42-.32-.46-.48-.69-.71.46.24.47.4.88.67-.35-.25-.26-.37-.57-.56.29.14.15.05.53.28-.53-.4-.05-.11-.35-.4.32.11.51.34.41.15.19.08.33.29.33.29l-.03.06Zm.51-2.62s0,.04-.01.05v-.05h.01Zm.11-.17s-.05.03-.06.06c-.11-.07-.22-.15-.2-.17.06.06.15.07.26.11h0Zm-2.37-1.21c-.03-.06.04-.02.11.02v.07l.03.03c-.05-.05-.11-.09-.15-.12h0Z"/></g></svg>