<?xml version="1.0" encoding="UTF-8"?><svg id="Layer_2" xmlns="http://www.w3.org/2000/svg" viewBox="0 0 354.41 327.78"><defs><style>.cls-1{fill:#fff;}.cls-2{fill:#4eb6ce;}</style></defs><g id="shapes"><path class="cls-1" d="m305.24,305.22c15.9-1.52,46.3-49.21,43.75-75.81,6.88-31.6-7.49-113.02-21.25-126.42-13.77-13.39-115.7-50.02-156.1-47.34-40.4,2.68-146.54,67.83-121.12,186.15,19.75,91.91,126.9,71.89,148.73,83.36,21.83,11.47,90.09-18.43,105.99-19.94Z"/><path class="cls-2" d="m129.72,92.21c.18-.27-.27-.48-.45-.76.13-.44.37.12.63.2.05-.29-.16-.8-.03-.94.06.05.11.05.15.16-.1-.52.47-.62.36-1.26.04.02.08.05.1.08-.19-.18-.36-.39-.47-.55.1-.12,0-.49.24-.25-.07.06,0,.19.04.3l.02-.24c.39.3-.05.3.17.61.1-.37.15-.96.4-1.01.3.38-.31.53.16.68l-.36.09c.63.45-.18.11.46.62.41-.19.22-.59.64-.75-.06-.3-.24-.33-.29-.64.27-.89,1,.78,1.05-.1-.06-.37-.29-.98.15-.87l.14.59c.39-.19-.13-.91.42-.8.01.25-.22.36-.14.39.43.26.05-.41.25-.54l.23.45c.36-.32.69-.91,1.15-1.23.02.16-.01.35.15.45.52-.52,1.3-.48,1.95-.35l.13-.52c.06,0,.14.17.09.27.26.1-.04-.29.04-.5.13-.07.22.21.17.37.33-.49,1.07-1.12,1.58-.71l-.07.15c.36.12.29-1.01.67-.62l-.06.09c.78.08,1.63-.41,2.24.26.1-.66.77.27.81-.65.45.45.33.61.94.93.16.05.25-.57.46-.66v.48l.29-.49.13.59.19-.11c-.07-.03-.15-.23-.13-.37.31-.2.69.4.68.64.23-.11.47-.21.7-.31-.04.19-.15.23-.25.34.4-.43,0,.51.37.12-.03-.12.06-.28.08-.37.12.32.45.4.73.36l-.12.3c.41.21.92.17,1.38.45-.11-.23.12-.74.29-.7l-.13.49c.2-.23-.08-.26.25-.49.17.17-.1.59-.26.67l.27-.02c-.04.14-.13.18-.22.34.22-.22.13.67.48.3l-.06.14c.43.33.69.38,1.03.69.24-.33.31-.12.61-.29.16.4.23.92.49,1.26.31.11.28-.17.52-.22-.24.28.04.62-.27.61.34.39.4.52.97.95.08-.16.08-.27.2-.3.11.09.01.36-.13.44h-.04c.38.2.39.77.34,1.3-.02.52-.08.98.33,1.15l-.04-.02c.17.16.36.32.52.51.02.33-.28-.09-.41.21.34.25.4.55.41.83,0,.28-.01.55.22.8-.43.34-.38.73-.27,1.15.1.41.22.87-.07,1.19l.22-.05c.23.16-.13.2-.18.32.18-.02.2-.18.33-.08.29,1.41-.47,2.86-.98,4.04-.18.43,1.04.71.36,1.12l-.35-.35c.1.58-.08,1.09-.28,1.55-.11.23-.21.46-.29.71-.1.24-.17.49-.18.78-.06-.12-.17-.19-.12-.28-.34,0-.36.66-.16.83-.1.12-.2-.12-.36-.13-.25.05.06.73-.24.6-.05-.02-.04-.12-.05-.17.05.23-.37.48-.02.65-.33.17-.27.71-.61.76.17.48-.5.33-.15.86-.4-.51-.73.07-.7.49-.06-.21-.25-.02-.36-.3-.17.19-.26.45-.04.7-.75-.31-.34,1.2-1.07.52-.37.8-.82,1.45-1.31,1.98-.26-.63.58-.5.25-1.11-.38.61-.45,1.36-1.06,1.54-.17,0-.03-.32-.03-.46-.21.31-.49.43-.75.56-.26.14-.5.27-.71.56-.02-.06.02-.16.05-.23-.09.07-.26,0-.16.3l.07-.12c.3.36-.13,1.09-.09,1.33-.07-.94-.58-.01-.6-1.22-.05.09-.1.26-.02.45-.12-.02-.18-.13-.13-.4-.32.31-.11.58-.45.7-.03-.15.02-.23.01-.42-.1.36-.21.69-.52.66,0-.09-.06-.2.03-.23-.47.19-.71,1.03-1.31.85.08-.69-.22-.19-.31-.76-.09.08-.18.16-.27.22l.15.26c-.26.02-.45.48-.69.32l.18-.26c-.16.06-.32.11-.49.16l.29.19c-.25.32.08.73-.29.6.07-.07-.27.02-.43-.32-.13.19-.26.39-.47.25-.05-.19.03-.65,0-.76-.13.5-.61.12-.79.65.06-.12.07-.43.05-.49l-.12.39c-.12-.13-.13-.19-.11-.44-.36-.1.09.75-.34.4.04-.03.02-.09.1-.15-.43-.19-.87.16-1.26-.09-.05-.6.36-.08.28-.59-.56,0-1.27.48-1.8.16l.09.09c-.24.78-.32-.51-.68-.24.08-.03.19-.41.15-.33-.33-.26-.78-.08-1.41-.12l.13-.16c-.15-.28-.51-.38-.69-.6-.14.16-.26.05-.29.37-.12-.75-.48-.8-.85-.87-.38-.05-.76-.13-.79-.77.06.05.24-.02.19-.06-.18-.07-.36-.16-.54-.26-.15.32-.06.23-.1.54-.17.11-.38.11-.5,0,.33.02.29-.45.32-.69-.04.1-.14.16-.19.26.11-.73-.43.51-.51-.16l.12-.12c-.17-.05-.42,0-.51-.18.19-.36.23,0,.43-.24-.17-.18-.78.15-.69-.33.14,0,.24.13.38.14.13-.55.04-.48-.03-.68v.02l-.11-.5-.02.18c-.87.44-.5-.41-1.2-.37.68-.03.29-.17.62-.43.03-.17.04-.4.15-.44-.36.04.04-.46-.48-.41.1-.09-.1-.2.19-.37-.2-.17-.16.2-.3.28-.27-.05-.27-.36-.29-.66-.01-.32-.04-.62-.42-.75-.39-.38-.83-.27-1.17-.7.13-.25.47-.05.47-.05.1-.35,0-.52-.2-.73.11.01.19-.07.31-.19-.08-.19-.47.01-.36-.31.15,0,.38,0,.53.04-.17-.19-.44-.36-.59-.58.2-.12.35.07.5.11-.14-.24-.32-.65-.66-.69l-.1.21c-.03-.1.29-.12.36-.05.31.18-.06.37-.18.42l-.11-.16c-.68.38.24.73.29,1.08l-.55.02.51.23c-.11.13-.38.3-.5.14-.18.37.24.16.03.51-.04.05-.06.04-.09.02l.23.2c-.12,0-.34.2-.31,0-.15.63.62.59.31.95l-.04-.02c.4.55.37-.12.97.09-.24.27-.49.55-.73.85l.37-.16c.01.07.04.22-.1.29.34.08.13-.14.41-.16-.16.51.53.7.06,1.18.31-.09.04-.43.38-.26-.5.54.29.27.18.74-.33.18-.32-.22-.42.27.57-.26.22.6.45.74.36-.35.47.31.84.52-.13.1.3.84.46,1.27l-.06.06c.36-.37.57,0,.84.11-.18.26-.29.33-.48.33l.2.19c.14-.09.25-.11.41-.04l-.26.29c.29.24.78.09,1.01.61.19-.33.22-1.14.7-1.09-.08.19-.23.51-.36.51.05,0,.19-.06.22.06l-.31.19c.1.26.22-.19.33-.06-.13.26,0,.26-.12.45-.04,0-.06-.19-.16-.13.12.16.23.46.2.69.06-.16.17-.36.3-.32.3.17-.04.39.06.65.15-.14.26.18.43-.23.09.06.03.26.01.39.23-.09.76.37.74-.18l-.03-.05h.03c.64-.16.99.77,1.57.78l-.04.15c.36-.05.73.15,1.02-.11.09.03.17.34.1.51.27-.05.32-.22.64.12-.29.2.05.26-.29.13.3.21.35.48.75.12-.17.37.19.54.36.45l-.2-.32c.18-.02.33.03.48.09l-.13.51c.32.36.66.13.96-.07.3-.19.56-.34.82.19.18-.36-.37-.26-.2-.69.3.08.63.83.73.82.45.26.39-.76.83-.6-.07-.18-.14-.67.17-.87.3.05.43.74.24.9-.08.02-.12-.03-.12-.09-.1.08-.22.16-.09.36l.03-.19c.16.18.6.11.52.42.22-.21.08-.32-.11-.39.43.21.62-.07,1.06.02-.08-.09-.17-.3-.1-.3.62.12.22-.39.6-.56.27.23.02.68.39.35.28.12.13.47.06.64.32-.44.75.02.98.03l-.17.2c.1-.12.2-.15.3-.18l-.19-.33c.13.03.23,0,.26.15.07-.27-.22-.57-.06-.96.19.12.4-.36.57.09-.51.01.17.45-.22.68.06-.09.16-.12.29-.1.03.05,0,.1-.02.14.57.24.08-.61.55-.78.01.29.25.44.31.36-.19.08-.21-.4-.1-.67.36.07.27-.3.43-.34l-.2-.02c-.02-.29.13-.32.31-.49.08.19-.13.22-.04.27.07-.56.66.2.86-.26.2.09.19.47.36.51.22-.51.51.12.77-.38-.24-.26-.22-.18-.11-.65l-.49.59.18-.72c-.17.1-.28.44-.41.44.07-.38.08-.29-.11-.51.43.36.34-.58.75-.41l.34.82c.58.07.54-.91,1.15-1.11h-.24c-.09-.37.29-.3.38-.55.13.26.28.28.44.38-.12-.18.38-.3.13-.83l.41.12c.48-.23,0-1.1.41-1.38.07.37.34.37.23.8.12-.12.26-.19.15-.36.17.07.11-.65.38-.55-.03-.16-.19-.41-.05-.54.05.03.08.11.08.11-.08-.11.08-.38-.22-.5.91.3.87-1.19,1.65-1.01.15-.4.35-.84.52-1.16.05.08.1.09.04.13.44-.26-.43-.78.05-1.07.48.03.04.41.25.36.36.26.43.09.47-.15.04-.24.05-.53.34-.55v.12c.38-.09.06-.84.29-1.26,0,0,.06.06.11.07-.24-.55-.14-1.19-.11-1.68.25.29.09.28.42.35.03-.22-.5-.19-.46-.62.21-.04.45-.26.78-.15-.03.13-.06.27-.1.39.5,0,.14-.52.27-.68l.18.11c.1-.65-.35-.82-.19-1.46l-.16.02c-.41-.5.33-.21.04-.67l.52.02c-.07-.27-.36-.95-.39-1.37.34.3.46.84.63,1.21.04-.24.08-.83-.15-1.01.04.1.14.25.05.33-.35-.38-.49-.76-.46-1.23.49.1.57-.21.62-.58.05-.37.05-.79.43-.97-.36-.86.11-1.75-.08-2.78-.71.5-.06-.29-.82-.08-.07-.22-.08-.3-.03-.34l.34-.8c.19-.23.2.17.38.11-.03-.53.29-.3.42-.72-.25.15-.42-.06-.39-.39l-.25.52c-.56-.56.49-.84-.09-1.41l.29.13c-.22-.31-.4-1.38-1.1-1.41.06-.1.22-.3.33-.16-.13-.44-.44-.84-.75-1.17-.32-.34-.56-.67-.57-1.09l.19-.07c-.13-.11-.44,0-.38-.31.07-.05.19-.08.16-.15-.1-.03-.49-.13-.5-.4h.26c-.11-.46-.42-.62-.73-.73-.3-.12-.64-.14-.9-.34.4-.47.12-1.16-.06-1.48l.06-.06c-.65-.78-1.46-.71-2.24-.94-.13-.97-1.39-1.23-2.1-1.88.09.16-.14.51-.29.53-.16-.2-.59.32-.45-.29l.06.03c-.03-.65-.45-.58-.75-.65l-.15.8c-.31-.66-.83-.62-1.28-.53-.45.09-.84.22-1.03-.33-.18.2-.39.2-.57.4v-.44c-.47-.12-.71-.17-1.31-.05l.12-.32c-.34-.02-.4,1.29-.7,1.33l-.12-.66c-.58.05-1.23-.48-1.77.2,0-.09,0-.29.1-.33-.28.02-1.13-.28-.93.6-.08-.59-.62.05-.89.38v-.44c-.2.61-.18.75-.52.99-.1-.03-.13-.32,0-.24-.32-.15-.15.46-.54.33l.08-.3c-.31.05-.26.19-.35.55-.15.23-.57.06-.7-.3.01.24-.08.61-.27.56-.06-.13-.02-.24,0-.3-.57-.11-.59.76-1.03.49-.04-.13-.09-.2-.13-.22.39-.15.71-.26.69-.22-.1-.38-.44-.32-.32-.95-.19.4-.45,1.19-.8,1.16-.03-.03-.05-.05-.08-.11l.02-.05c-.08,0-.13.06-.17.15-.12-.02-.2-.03-.29,0-.14-.29-.41.02-.57.09.16.39-.06.44.24.66-.03-.02.01-.06.11-.13.02-.02.04-.05.05-.08v.04c.1-.06.22-.15.37-.23-.05.27-.12.51-.36.37.01.3.03.61.03.76-.41-.45-.92-.5-1.12-.8-.37.5-1.01.86-.92,1.77-.07.18-.24-.09-.34-.16.03-.12.12-.18.11-.3-.16.36-.68.66-.46,1.17-.41.05-.09-.58-.45-.14l-.03-.19c-.62,0-.76.62-.88,1.2-.13.59-.24,1.14-.96,1.21.1-.02.14-.03.2.02-.57.37-.91,1.06-1.22,1.74-.31.68-.6,1.34-1.18,1.83-.29.3-.03.52.1.87l-.38-.11.26.62c.06.36-.23.51-.5.7-.27.2-.49.47-.29.95l.27-.02c-.12.26,0,.91-.29.8.04.04.25.16.1.23l-.2-.03c.07.26.17.52.26.76-.19.52-.8-.2-.89.63.06.33.55.9.69.78.01-.12.13-.3.34-.3l.1.26c.59.06,1.19.2,1.63-.31l-.35-.4.29-.09v.31c.27-.16.04-.28-.11-.43.15,0,.27-.05.33-.11-.18-.14-.35-.3-.53-.45.24,0,.44.24.59.03-.24-.22-.54.06-.67-.26.3-.12.5-.02.31-.28.15,0,.24.08.29.17-.15-.23,0-.5-.28-.69.36-.08.06-.66.59-.44-.12-.1-.33-.48-.3-.66.54.59.22-.6.87-.18-.24-.24-.24-.48-.18-.7.06-.23.15-.45.09-.74.03.05.1.15.06.16.13-.18.32-.13.49-.19-.42-.34-.36-.73-.53-1.11.54.07.41.55.85.77-.36-.26-.11-.69-.43-.84.35.02.21-.06.6.14-.48-.48,0-.25-.2-.67.41-.03.5.37.54-.05.23.02.25.43.25.43h.08Zm5.01-5.91h0c-.06.05-.1.08-.13.1.03-.02.06-.05.13-.1Zm.58-.26c-.08.02-.17.05-.26.09-.06-.13-.08-.29-.02-.3,0,.11.16.13.28.22Zm-2.2-2.22c.08-.11.15-.05.19.02-.05.03-.1.08-.17.15v.05c-.02-.09-.03-.16-.03-.23h0Z"/><path class="cls-2" d="m96.62,123.71c.08-.25-.41-.29-.66-.44-.04-.38.37-.02.62-.03-.06-.24-.43-.57-.36-.71.08.02.11,0,.19.09-.28-.38.19-.61-.13-1.09.04,0,.08.02.11.03-.22-.09-.45-.22-.59-.32.04-.13-.17-.4.13-.27-.04.07.06.15.13.23l-.06-.2c.44.14.06.26.35.44-.03-.31-.22-.83-.01-.93.39.24-.08.51.37.51-.09.05-.18.11-.27.17.69.2-.11.13.61.37.26-.26-.01-.51.27-.76-.16-.24-.31-.22-.47-.46-.06-.8,1.09.43.84-.32-.17-.3-.56-.78-.17-.77l.31.48c.24-.23-.4-.76.08-.76.09.22-.06.35.01.37.42.15-.09-.37.03-.51l.32.36c.18-.32.27-.91.54-1.24.05.15.08.32.22.41.25-.53.87-.54,1.36-.43,0-.17.01-.33.02-.5.04-.02.13.16.12.27.21.09-.07-.27-.04-.48.09-.07.2.19.17.35.18-.49.71-1.13,1.15-.74l-.04.15c.29.12.15-1,.48-.64l-.04.09c.62.05,1.28-.47,1.83.16.04-.67.64.21.61-.71.38.42.3.58.76.87.11.04.17-.58.31-.67v.48c.06-.16.13-.34.2-.5.03.19.05.39.07.59l.13-.11s-.09-.23-.08-.37c.23-.2.44.41.39.65.15-.1.3-.19.46-.27-.06.18-.14.22-.22.32.31-.4-.1.49.19.14,0-.12.1-.27.13-.35,0,.31.2.42.41.43l-.16.27c.23.25.67.31.99.66-.04-.23.28-.66.41-.6l-.22.43c.23-.18,0-.25.33-.41.1.18-.22.52-.38.58.08,0,.17,0,.24.01-.08.12-.15.15-.26.28.23-.17-.05.65.34.34l-.08.12c.28.36.52.41.75.72.28-.27.31-.09.61-.2.07.36.02.83.21,1.13.27.11.29-.13.53-.16-.26.23-.08.54-.36.51.23.38.3.46.75.86.1-.13.12-.23.24-.26.09.07-.03.3-.18.37h-.04c.34.17.25.66.16,1.1-.09.44-.18.83.2.96l-.04-.02c.16.13.32.27.47.42,0,.27-.27-.07-.43.17.66.42.1.93.52,1.33-.45.28-.39.59-.31.94.1.33.2.7-.09.97l.22-.04c.23.12-.13.16-.18.26.18-.02.2-.15.32-.07.29,1.15-.4,2.34-.76,3.4-.13.39,1.11.51.49.92l-.39-.26c.34.99-.37,1.7-.2,2.68-.08-.09-.2-.14-.17-.22-.34.05-.2.62.03.74-.07.12-.22-.07-.36-.05-.22.09.22.6-.09.55-.05,0-.08-.09-.09-.13.1.18-.21.49.15.55-.26.22-.06.65-.34.79.3.37-.37.41.11.76-.51-.34-.62.26-.47.6-.13-.16-.23.05-.41-.16-.08.21-.08.47.2.61-.78-.04.11,1.12-.75.77-.03.79-.15,1.47-.36,2.05-.44-.44.29-.59-.22-1-.07.62.14,1.27-.28,1.58-.14.04-.14-.26-.19-.38-.13.62-.62.69-.71,1.28-.03-.05-.04-.14-.03-.21-.04.08-.19.05-.02.3v-.12c.36.26.24,1.01.33,1.23-.31-.84-.45.09-.79-1.02-.01.08,0,.25.1.43-.09,0-.16-.1-.2-.35-.15.3.06.54-.16.69-.06-.14-.04-.22-.08-.4.02.34,0,.69-.25.66-.02-.09-.08-.19-.02-.22-.15.11-.24.37-.36.57-.12.21-.27.4-.5.3,0-.69-.18-.18-.29-.75-.06.07-.11.16-.18.22l.12.26c-.18.02-.32.46-.51.3l.13-.26c-.11.06-.24.1-.36.14l.22.21c-.19.31.06.73-.23.59.06-.06-.22,0-.32-.34-.1.18-.22.37-.38.21-.03-.19.06-.64.04-.76-.12.49-.47.09-.66.58.06-.12.09-.41.08-.48l-.13.38c-.08-.14-.08-.2-.04-.44-.27-.14-.01.75-.31.35.03-.02.03-.09.09-.13-.31-.24-.7.06-.97-.24.06-.59.3-.05.31-.55-.43-.03-1.06.3-1.43-.06l.05.1c-.35.72-.15-.55-.49-.33.08-.02.24-.37.19-.29-.2-.29-.61-.18-1.1-.3l.15-.13c-.06-.27-.32-.43-.41-.65-.15.12-.22,0-.34.3.1-.7-.18-.8-.48-.92-.31-.11-.62-.23-.48-.81.04.05.22.02.18-.02-.14-.09-.27-.19-.41-.3-.21.26-.1.2-.22.46-.17.08-.36.05-.43-.07.29.06.38-.35.45-.55-.06.08-.16.12-.23.2.27-.62-.5.39-.41-.21l.14-.09c-.13-.07-.38-.05-.41-.23.26-.28.21.03.45-.15-.12-.17-.75.03-.55-.37.12.02.18.15.31.17.24-.45.15-.4.13-.59v.02-.45l-.06.15c-.89.28-.38-.41-1.03-.44.63.04.31-.12.66-.3.06-.15.11-.34.23-.37-.35,0,.11-.39-.38-.39.11-.07-.05-.18.24-.3-.17-.16-.18.16-.33.22-.52-.13.2-1.01-.48-1.25-.36-.33-.77-.25-1.08-.59.15-.21.47-.05.47-.05.11-.29.04-.44-.15-.61.11,0,.19-.07.31-.18-.07-.16-.47.04-.34-.25.14,0,.36-.03.52,0-.16-.16-.42-.28-.57-.45.2-.12.34.02.5.05-.15-.19-.32-.54-.66-.51l-.09.19c-.03-.09.28-.13.35-.09.3.12-.05.33-.17.37l-.11-.12c-.67.37.24.58.27.87l-.54.05.5.16c-.11.12-.39.27-.5.14-.2.31.23.12,0,.42-.04.04-.06.04-.09.02l.21.16c-.11,0-.34.18-.31.02-.18.51.54.47.21.77h-.04c.33.44.38-.12.93.07l-.81.69.38-.12c0,.06.01.18-.14.23.31.08.15-.11.41-.11-.24.43.4.62-.15.99.3-.06.11-.36.41-.19-.57.42.22.25.04.64-.34.12-.27-.2-.45.19.58-.18.07.53.26.66.41-.26.35.31.65.52-.15.08.08.76.11,1.16l-.07.05c.41-.26.51.08.72.21-.23.2-.34.24-.51.22l.13.2c.15-.06.25-.06.37.02l-.31.22c.19.25.66.2.73.7.25-.26.49-.98.89-.87-.12.16-.33.42-.45.4.04,0,.18-.03.17.09l-.31.12c.01.25.24-.14.3,0-.18.21-.06.23-.22.39-.04,0,0-.19-.11-.15.06.16.08.45-.01.66.09-.13.24-.3.34-.24.21.21-.14.34-.11.6.17-.1.18.21.43-.13.06.06-.04.24-.08.36.22-.04.55.48.68-.03v-.06s0,0,.01,0c.29-.02.45.2.6.45.15.23.31.5.54.55l-.06.13c.31,0,.58.26.87.05.07.04.08.35-.01.5.24,0,.3-.14.5.22-.28.16,0,.26-.26.09.22.24.22.5.61.23-.2.34.08.56.24.48l-.12-.34c.16,0,.27.07.4.15l-.18.48c.22.41.55.21.82.06.27-.14.51-.29.68.27.19-.34-.29-.3-.11-.7.24.12.48.89.57.89.38.3.38-.73.75-.55-.06-.18-.1-.68.16-.86.24.06.36.76.2.92-.06.01-.1-.04-.1-.1-.08.07-.2.16-.08.35l.03-.19c.14.19.52.12.46.43.2-.2.06-.31-.1-.39.38.21.56-.06.94.02-.08-.09-.16-.29-.11-.3.56.09.17-.39.48-.59.25.2.08.67.38.31.26.1.18.44.12.62.24-.45.69-.07.92-.11l-.13.23c.08-.14.17-.18.26-.23l-.23-.28c.12,0,.21-.04.26.09.01-.28-.29-.51-.22-.93.2.09.28-.41.53-.02-.46.12.25.4-.06.69.04-.09.13-.15.25-.16.04.04.03.09.01.14.59.1-.05-.6.32-.89.08.26.33.36.36.26-.15.12-.29-.32-.26-.6.32-.03.16-.35.28-.44l-.18.05c-.1-.26.02-.33.11-.54.13.15-.04.24.05.27-.11-.52.62,0,.65-.49.2.02.31.36.47.34.01-.54.48-.07.53-.59-.3-.15-.25-.08-.32-.53-.06.23-.13.45-.2.69-.03-.23-.06-.46-.1-.69-.11.15-.08.48-.19.51-.07-.36-.03-.27-.26-.41.49.18.09-.61.48-.59l.58.59c.52-.13.13-.97.56-1.33l-.2.07c-.2-.27.13-.34.12-.58.2.19.33.14.5.18-.16-.12.21-.37-.2-.73l.4-.02c.32-.33-.4-.91-.13-1.25.19.28.42.21.47.59.06-.13.16-.23.01-.33.17.01-.13-.57.13-.55-.07-.12-.3-.29-.21-.43.05.02.11.07.11.07-.11-.07-.05-.33-.35-.36.87.02.41-1.18,1.16-1.2.03-.35.09-.75.16-1.04.06.06.11.06.08.1.34-.28-.59-.56-.21-.88.45-.05.13.33.32.26.8.3.05-.59.6-.69l.03.09c.33-.12-.14-.7.01-1.05,0,0,.06.05.12.05-.34-.41-.36-.94-.4-1.35.29.21.13.22.46.25-.01-.18-.52-.11-.55-.47.19-.05.39-.25.74-.19l-.04.33c.48-.04.06-.42.17-.57l.19.07c.02-.51-.47-.63-.36-1.15l-.15.02c-.45-.38.31-.19-.02-.54h.51c-.1-.22-.41-.75-.49-1.09.36.23.52.66.71.95.03-.19.03-.67-.22-.8.04.09.16.2.08.27-.38-.29-.55-.61-.52-.98.97.13.28-.98,1.03-1.26-.36-.69.11-1.41-.03-2.25-.71.41-.05-.23-.82-.05-.07-.17-.07-.24-.02-.27.13-.21.26-.44.38-.65.2-.19.2.14.37.08-.01-.43.29-.25.45-.58-.26.12-.41-.05-.35-.32l-.29.43c-.5-.46.54-.69.03-1.16l.27.11c-.19-.26-.27-1.13-.94-1.16.07-.09.25-.24.34-.14-.12-.76-1.1-1.21-.97-1.91l.19-.06c-.1-.09-.41-.02-.3-.28.07-.04.19-.06.17-.12-.09-.03-.44-.12-.42-.35h.25c-.08-.8-.92-.62-1.29-1,.46-.39.34-1.01.24-1.3l.07-.06c-.4-.74-1.15-.76-1.76-1.07.11-.9-.84-1.31-1.28-2.1.04.18-.24.44-.37.43-.09-.23-.57.16-.32-.38l.05.05c.11-.62-.29-.68-.56-.81l-.27.76c-.17-.72-.72-.76-1.14-.69-.43.06-.77.19-.96-.34-.16.2-.36.21-.5.42v-.44c-.44-.09-.66-.12-1.14.05l.07-.33c-.27,0-.23,1.31-.47,1.37l-.13-.65c-.46.08-1.02-.41-1.41.27,0-.09-.02-.29.06-.33-.22.02-.96-.23-.73.63-.1-.58-.52.08-.71.41l-.05-.44c-.11.61-.08.76-.34,1.01-.08-.03-.15-.31-.03-.24-.29-.12-.08.46-.42.36l.03-.31c-.25.07-.2.21-.24.57-.1.23-.47.12-.64-.23.04.24.03.6-.15.58-.07-.12-.05-.24-.04-.29-.51-.03-.38.8-.81.62-.06-.12-.11-.16-.15-.19.31-.22.57-.36.56-.31-.15-.36-.45-.24-.45-.87-.11.41-.18,1.23-.5,1.26-.03-.02-.06-.05-.1-.09v-.05c-.07.01-.1.08-.11.19-.11.02-.18.02-.26.08-.19-.24-.36.12-.49.23.24.33.06.42.38.56-.03,0,0-.06.06-.15.01-.02.03-.06.03-.09v.04c.08-.08.17-.19.28-.29.01.26.03.5-.22.42.09.27.18.55.22.69-.46-.33-.92-.25-1.18-.47-.18.55-.64,1.06-.26,1.83,0,.18-.24-.01-.35-.05-.01-.12.05-.19,0-.3-.02.36-.38.76-.01,1.14-.34.16-.27-.47-.43,0l-.09-.16c-.54.19-.46.76-.36,1.27.09.53.18,1-.42,1.29.08-.05.11-.07.19-.05-.38.48-.45,1.15-.5,1.77-.05.63-.1,1.23-.5,1.79-.17.33.13.41.34.63l-.39.03.42.39c.31.49-.98.83-.36,1.49l.26-.09c-.04.23.17.7-.13.69.05.02.27.05.14.16l-.2.02.38.52c-.11.44-.8.01-.79.66.1.23.65.59.77.48,0-.09.1-.26.3-.29l.13.19c.59-.05,1.21-.01,1.57-.54l-.39-.27.28-.14.04.26c.26-.19.01-.25-.16-.34.15-.05.26-.1.31-.17l-.59-.27c.23-.05.47.1.59-.12-.27-.12-.52.19-.69-.06.26-.18.48-.14.25-.31.15-.03.25,0,.32.07-.19-.15-.09-.41-.41-.49.33-.16-.09-.55.47-.52-.13-.05-.44-.29-.45-.44.66.3.06-.55.78-.42-.59-.24-.22-.71-.51-1.1.04.03.14.08.1.11.07-.19.26-.2.39-.3-.49-.12-.56-.44-.84-.69.51-.12.55.29,1.02.32-.4-.08-.33-.49-.67-.51.33-.09.17-.12.59-.09-.6-.21-.07-.19-.41-.45.36-.15.57.13.46-.2.22-.05.37.25.37.25l-.08-.04Zm2.12-5.9s-.06.07-.08.09c.02-.02.04-.06.08-.1h0Zm.39-.3c-.06.02-.12.06-.18.11-.08-.12-.13-.27-.08-.29.02.1.15.11.27.18h0Zm-2.34-1.73c.04-.12.11-.09.17-.02-.03.04-.07.09-.11.17,0,.02.01.03.02.06-.03-.07-.06-.14-.08-.2Z"/><path class="cls-2" d="m166.74,135.84c-.34-.05-.2.55-.3.87-.41.12-.15-.44-.27-.75-.27.12-.5.63-.68.6,0-.09-.04-.13,0-.25-.29.43-.81-.03-1.14.53-.02-.05-.03-.1-.04-.14.05.29.05.58.03.8-.15,0-.28.35-.34-.02.09,0,.1-.14.15-.26l-.16.16c-.14-.55.22-.19.23-.59-.32.16-.68.62-.92.47-.06-.53.56-.19.24-.66l.38.2c-.29-.84.23.06-.03-.83-.51-.16-.57.27-1.08.14-.1.3.05.44-.05.73-.67.58-.64-1.29-1.13-.52-.11.38-.09,1.04-.5.76l.06-.62c-.5.04-.17.9-.73.61.05-.26.36-.28.27-.33-.4-.4-.18.39-.43.44l-.14-.51c-.52.21-1,.76-1.52,1.06,0-.16.04-.36-.12-.46-.64.52-1.5.59-2.27.7l-.08.55c-.06.03-.18-.12-.15-.23-.31,0,.1.27.04.51-.13.12-.29-.12-.25-.3-.31.62-.85,1.55-1.5,1.51l.02-.18c-.42.13.07,1.08-.42,1l.02-.12c-.8.48-1.26,1.55-2.12,1.65.3.55-.78.59-.24,1.26-.61.19-.62-.07-1.27.51-.15.19.22.63.16.93l-.34-.24c.06.21.12.41.19.61l-.5-.07-.02.32c.06-.09.25-.12.35-.04,0,.48-.61.83-.8.76,0,.38,0,.74.03,1.1-.15-.08-.15-.26-.21-.43.24.67-.42-.06-.2.55.1-.03.22.12.29.16-.29.14-.41.67-.4,1.09l-.25-.16c-.22.69-.17,1.52-.28,2.33.17-.26.62-.09.63.15h-.42c.23.21.18-.2.45.16-.09.28-.49.11-.61-.09l.1.39c-.13,0-.18-.1-.33-.15.24.19-.49.57-.06.86h-.13c-.08.83.04,1.21.04,1.88.36.03.27.29.56.48-.12.48-.4,1.02-.34,1.62.2.4.31.09.54.26-.32.06-.25.64-.51.36.11.7.14.91.52,1.72.11-.12.16-.24.27-.21.08.14-.08.38-.24.4l-.04-.03c.31.43.18,1.04.1,1.65-.09.61-.12,1.22.31,1.46l-.04-.03c.2.21.38.43.58.62.07.38-.3-.09-.39.26.78.56.43,1.36,1.05,1.81-.29.54-.06,1,.25,1.41.31.42.67.79.65,1.34l.15-.21c.28-.02.03.3.07.45.12-.16.04-.34.2-.34.57.55,1.01,1.24,1.5,1.97.49.73,1.01,1.47,1.64,2.05.48.41.82-1.09,1.18-.13l-.35.37c.61,0,1.12.27,1.63.48.52.22,1.03.42,1.58.31-.08.1-.11.25-.21.22.15.43.79.22.83-.09.15.07,0,.28.07.45.18.27.59-.37.66.02.01.06-.08.11-.11.13.16-.15.64.16.55-.3.35.27.73-.09,1,.2.22-.46.61.29.71-.38-.06.7.61.62.85.3-.08.21.19.23.09.52.26,0,.51-.12.47-.48.46.87.97-.66,1.25.43.8-.38,1.52-.68,2.21-.92.03.71-.78.15-.71.88.68-.34,1.01-.99,1.7-.94.18.06-.06.32-.11.44.65-.41,1.36-.22,1.89-.79.01.06-.04.16-.09.23.12-.05.31,0,.22-.3l-.1.12c-.28-.38.24-1.1.19-1.34.03.96.62-.02.62,1.21.06-.09.12-.28.04-.47.13,0,.2.11.15.39.38-.35.12-.6.49-.79.05.14,0,.24.01.42.1-.38.18-.75.52-.81.01.09.1.18,0,.23.52-.37.55-1.27,1.19-1.45.17.69.28.02.59.47.07-.13.13-.27.19-.41l-.25-.12c.24-.23.22-.75.5-.82l-.03.36c.11-.19.24-.36.35-.55-.12.04-.24.07-.35.1.05-.46-.43-.51-.07-.71-.02.1.2-.23.51-.13-.01-.26-.04-.51.19-.61.15.07.37.46.47.51-.21-.45.36-.74.12-1.23.04.13.24.32.29.33l-.18-.35c.17-.05.21-.04.36.12.28-.37-.57-.3-.08-.59,0,.05.05.07.04.18.39-.4.33-1.08.67-1.44.49.14-.08.48.34.56.26-.76.1-1.76.43-2.4l-.09.1c-.6-.4.48-.36.28-.86.02.11.32.26.26.21.25-.45.12-1.07.07-1.87l.15.15c.22-.24.24-.74.38-1.04-.15-.14-.1-.31-.36-.27.57-.36.5-.87.41-1.35-.1-.48-.22-.94.22-1.31,0,.1.13.27.13.19l-.1-.76c-.3.02-.18.08-.43.2-.17-.11-.29-.33-.27-.51.17.34.47.05.64-.09-.09.01-.18-.04-.28-.04.54-.34-.59-.12-.2-.6l.15.04c-.07-.2-.27-.39-.21-.6.34-.07.15.22.43.25,0-.3-.62-.62-.27-.87.09.13.09.31.18.44.41-.27.31-.31.38-.53v.02l.18-.5-.11.12c-.88-.39-.15-.76-.73-1.26.55.48.32.08.71.12.11-.12.23-.32.34-.27-.31-.23.24-.4-.22-.73.12-.02,0-.26.33-.21-.1-.31-.22.08-.37.05-.43-.46.49-1.15-.13-1.81-.27-.58-.7-.64-.95-1.15.18-.21.47.09.47.09.15-.32.1-.55-.07-.8.11.04.2-.03.32-.15-.06-.23-.47-.07-.32-.4.14.02.37.05.52.13-.15-.25-.41-.47-.57-.72.2-.12.35.09.5.16-.14-.3-.33-.77-.68-.77l-.08.23c-.04-.11.27-.13.35-.07.31.2-.05.41-.17.45l-.11-.17c-.68.37.24.74.24,1.15l-.54-.06.49.32c-.13.11-.41.21-.52.04-.23.31.21.21-.05.49-.04.03-.07.02-.09,0l.18.24c-.12-.04-.37.09-.31-.08-.26.51.45.73.06.94l-.04-.04c.22.65.39.03.87.5l-.94.4.39.05c-.01.07-.04.21-.19.19.27.24.17-.05.42.09-.34.34.18.92-.43,1.01.3.12.22-.32.43.03-.66.11.12.41-.19.72-.34-.09-.17-.38-.47-.08.58.19-.13.59-.02.84.47.02.18.56.33.99-.15-.03-.28.8-.47,1.17h-.08c.46.09.35.5.43.8-.28-.04-.38-.1-.5-.27l-.02.27c.15.08.22.17.26.36l-.35-.11c0,.36.35.79.06,1.23.32.08.94-.24,1.1.31-.18,0-.48-.05-.54-.19.02.05.13.18.05.26l-.27-.25c-.15.19.23.16.18.33-.25-.05-.19.09-.39.03-.02-.05.12-.13.03-.21-.07.19-.24.39-.44.42.15.02.33.07.35.21-.03.37-.32.06-.47.24.16.12-.06.3.31.41-.02.1-.19.08-.3.09.13.23-.11.87.32.77l.03-.04s0,.02.01.03c.24.73-.48,1.19-.49,1.82l-.12-.05c.04.41-.15.8.02,1.16-.04.1-.3.12-.42,0,0,.3.11.41-.22.66-.1-.37-.21-.02-.04-.34-.23.27-.43.22-.27.75-.23-.3-.45,0-.44.19l.3-.08c-.03.19-.13.32-.22.44l-.33-.34c-.36.14-.31.53-.3.9.01.37-.02.69-.5.58.14.38.35-.15.55.24-.21.24-.86,0-.9.08-.4.12.25.81-.14,1.01.14.09.46.39.35.78-.25.2-.68-.3-.64-.54.04-.06.1-.05.13,0,.03-.12.06-.27-.13-.33l.08.16c-.2-.02-.45.27-.55-.02-.04.29.1.3.26.25-.39.06-.4.41-.76.5.09.05.24.19.19.22-.52.17-.02.44-.27.75-.29-.11-.23-.61-.43-.19-.26-.04-.24-.4-.23-.58-.11.5-.57.12-.74.14l.08-.22c-.04.12-.12.16-.18.2l.2.29c-.1,0-.17.03-.22-.12,0,.26.27.52.2.92-.18-.11-.31.38-.5-.06.43-.02-.19-.44.1-.66-.04.09-.11.12-.22.1-.03-.05-.02-.1,0-.14-.47-.26,0,.59-.38.74-.02-.28-.22-.47-.26-.39.15-.05.19.41.09.67-.29-.11-.24.25-.38.26l.18.05c0,.28-.13.29-.3.43-.06-.2.14-.19.06-.26-.11.55-.55-.37-.77.02-.16-.16-.09-.51-.22-.61-.27.42-.38-.3-.68.04.13.35.15.26-.06.66.18-.12.36-.23.52-.35-.09.2-.19.4-.29.6.17-.02.33-.29.44-.25-.13.34-.13.24,0,.53-.3-.51-.43.41-.75.07l-.08-.92c-.43-.36-.68.55-1.23.35l.18.15c-.06.37-.33.07-.5.23,0-.31-.1-.42-.18-.61.01.23-.39,0-.44.6l-.24-.41c-.43-.16-.51.87-.94.75.13-.33-.05-.55.24-.79-.14,0-.27-.07-.27.14-.08-.19-.41.4-.53.09-.06.13-.1.45-.26.42-.01-.06,0-.16,0-.16,0,.16-.26.19-.13.54-.4-.98-1.24-.03-1.56-.9-.31.06-.69.1-.97.08.03-.09.02-.15.07-.11-.34-.35-.34.83-.74.42-.15-.54.27-.21.16-.43.1-1.01-.54.02-.71-.64l.08-.04c-.14-.39-.59.23-.92.02,0,0,.04-.08.04-.15-.35.42-.85.39-1.22.36.22-.32.21-.12.27-.53-.16-.01-.15.63-.48.59-.02-.25-.17-.53-.05-.94l.27.12c.05-.58-.34-.16-.44-.33l.1-.21c-.4-.16-.65.38-1.04.04l-.04.19c-.49.34-.04-.43-.46-.23l.22-.56c-.2.02-.77.06-1.08-.11.38-.21.77-.12,1.08-.2-.13-.11-.46-.37-.69-.2.08,0,.22-.05.23.08-.4.24-.75.19-1.01-.11.7-.81-.47-.98-.06-1.83-.65-.24-.6-1.19-.99-1.82-.52.74-.12-.19-.76.35-.13-.14-.15-.22-.11-.26.05-.27.11-.54.17-.8.15-.25.22.06.37-.06-.11-.4.22-.33.31-.69-.23.2-.41.09-.4-.17l-.2.48c-.59-.31.42-.78-.14-1.11l.29.05c-.24-.2-.3-.98-.97-1.04.07-.09.26-.23.34-.12-.08-.69-.98-1.37-.68-2.03h.2c-.07-.11-.38-.16-.21-.36.08,0,.2.02.2-.04-.08-.05-.37-.3-.27-.51l.23.12c.18-.73-.6-1.03-.75-1.66.56-.02.74-.58.84-.85h.08c.08-.79-.4-1.41-.54-2.25.65-.38.46-1.59.96-2.26-.12.09-.42-.15-.45-.3.15-.14-.27-.62.22-.43l-.03.06c.52.03.47-.37.55-.63l-.63-.3c.56-.18.61-.64.65-1.08.04-.43.11-.84.56-.71-.08-.24.02-.41-.04-.67l.29.27c.29-.31.44-.44.7-.95l.13.3c.19-.22-.53-1.19-.34-1.44l.44.4c.35-.45,1.03-.4,1.11-1.24.04.09.13.24.08.33.19-.17.92-.29.44-.97.28.48.45-.31.58-.71l.15.4c-.04-.62-.1-.76.13-1.09.09,0,.2.26.06.23.31.04.02-.48.39-.46v.31c.25-.12.17-.24.19-.62.1-.25.51-.18.68.16-.05-.23-.01-.6.17-.58.06.12.04.24.03.3.5.06.48-.77.89-.5.04.13.08.2.12.23-.34.12-.61.24-.59.19.12.38.39.32.36.93.11-.38.3-1.15.61-1.08.02.03.04.06.07.12l-.02.05c.07.01.12-.04.15-.12.1.03.16.06.24.04.1.3.34.07.48.05-.1-.42.1-.41-.14-.71.03.02-.02.06-.1.1-.02.02-.04.03-.05.06v-.04c-.09.04-.2.09-.33.14.06-.25.13-.48.34-.28.01-.3.04-.6.06-.75.31.53.73.77.83,1.13.38-.34.96-.35,1.17-1.19.12-.12.16.22.22.34-.07.09-.15.09-.18.21.23-.24.73-.15.77-.73.33.25-.16.54.27.43l-.06.18c.43.45.77.08,1.15-.24.37-.32.78-.6,1.24.03-.06-.08-.1-.12-.1-.21,1.07.62,2.4-.24,3.33.82.26.23.36-.12.59-.34l-.03.48c.13-.14.27-.29.41-.43.26-.12.38.24.5.55.12.32.22.59.59.39l.05-.32c.15.15.62.21.43.5.04-.04.2-.23.18-.05l-.11.2c.19-.02.38,0,.57.02.08.23-.07.38-.19.55-.13.17-.22.34-.11.54.15.05.75.04.84-.11-.04-.08-.01-.28.15-.44l.2.12c.5-.38,1.17-.51,1.11-1.51-.19-.07-.4-.11-.58-.15.04-.12.08-.25.11-.37.1.11.18.23.28.35.06-.43-.23-.38-.45-.36.08-.16.11-.32.07-.45-.24.03-.48.11-.71.18.1-.27.45-.29.28-.65-.32.1-.16.65-.52.59-.01-.41.15-.6-.18-.52.05-.18.15-.25.27-.25-.29.04-.55-.29-.79,0-.04-.49-.67-.26-.44-.87-.11.12-.5.34-.68.31.54-.66-.64-.3-.37-1.11-.4.63-.94.06-1.42.38.03-.06.1-.16.13-.12-.22-.11-.26-.34-.4-.51-.11.59-.48.67-.7,1.02-.22-.62.24-.69.21-1.26-.04.49-.54.42-.48.84-.17-.39-.16-.2-.22-.72-.1.76-.2.1-.41.55-.27-.41-.02-.73-.37-.53-.14-.25.18-.48.18-.48v.02Zm-8.08,2.03h0c.06-.05.12-.08.15-.09-.03.02-.08.05-.15.09Zm-.64.28c.08-.02.18-.06.29-.11.06.13.08.29.01.31,0-.11-.17-.13-.3-.2Zm2.01,2.4c-.08.09-.12.01-.15-.06.04-.02.08-.05.15-.1v-.06c0,.09.01.16.01.23h0Z"/><path class="cls-2" d="m61.89,207.46c.19-.3-.28-.48-.46-.76.15-.5.4.09.66.15.05-.32-.13-.85.03-1.01.06.05.11.05.15.17-.06-.57.58-.66.58-1.37.04.02.08.05.1.09-.18-.2-.33-.43-.41-.61.14-.13.11-.53.33-.27-.1.06-.03.2-.02.33l.08-.26c.38.34-.12.33.06.65.19-.38.37-1.03.68-1.07.26.42-.48.55.03.73l-.43.09c.62.51-.23.11.4.68.49-.19.38-.6.91-.76,0-.33-.2-.37-.2-.69.54-.9,1.01.88,1.31-.05.03-.4-.13-1.05.38-.91l.05.62c.53-.2.03-.94.71-.84-.03.27-.35.38-.25.41.5.27.15-.44.43-.56l.21.47c.53-.33,1.05-.96,1.64-1.3,0,.16-.06.37.13.46.72-.56,1.7-.54,2.49-.42l.21-.51c.07,0,.16.17.1.28.32.1-.03-.29.09-.5.17-.07.26.2.17.37.45-.5,1.42-1.1,2-.64l-.1.14c.43.16.46-.98.87-.55l-.08.08c.93.18,2.01-.1,2.61.76.24-.62.84.52,1.08-.34.43.62.24.72.88,1.29.18.12.43-.43.7-.41l-.13.45.47-.33v.62h.26c-.08-.08-.12-.3-.07-.42.42-.04.75.74.67.97.31.02.63.05.95.08-.08.16-.24.15-.4.2.6-.2-.1.5.45.32-.01-.13.13-.24.17-.33.1.38.54.65.92.74l-.18.26c.56.44,1.29.63,1.87,1.09-.14-.29.15-.75.35-.66l-.15.48c.25-.17-.1-.3.31-.45.2.24-.11.6-.31.64l.34.07c-.06.14-.15.16-.25.3.26-.17.17.77.57.47l-.06.13c.48.48.78.59,1.11,1.04.28-.27.34-.03.67-.09.14.48.12,1.09.36,1.61.31.28.32-.05.58.02-.28.2-.05.75-.37.57.29.65.36.84.87,1.68.1-.16.12-.3.24-.28.1.15-.02.45-.17.48l-.04-.03c.38.44.31,1.15.24,1.81-.07.66-.15,1.27.27,1.61l-.04-.04c.17.27.34.53.5.81.01.43-.28-.19-.43.16.69.85.15,1.55.59,2.29-.88.75.26,2.22-.34,3.11l.22-.06c.23.21-.12.27-.17.43.18-.03.2-.24.33-.11.31,1.86-.34,3.91-.9,5.21-.2.47,1.03.8.29,1.23-.1-.14-.2-.27-.31-.4.06.62-.22,1.16-.54,1.65-.33.49-.7.96-.94,1.61-.02-.14-.11-.25-.03-.33-.38-.07-.61.69-.45.92-.15.11-.18-.17-.34-.2-.28.01-.18.81-.47.62-.04-.03-.01-.14,0-.19-.01.26-.55.48-.23.72-.42.14-.54.72-.92.73.03.55-.68.25-.46.87-.27-.62-.84-.06-.96.36,0-.23-.28-.08-.3-.4-.25.17-.45.41-.28.72-.38-.24-.57.03-.76.27-.18.24-.36.43-.64-.02-.71.69-1.45,1.18-2.22,1.49-.06-.69.85-.26.69-.98-.65.45-1.03,1.15-1.79,1.04-.2-.08.09-.32.15-.45-.72.36-1.4.01-2.07.32,0-.06.08-.13.15-.18-.13,0-.29-.13-.3.19l.13-.08c.18.49-.6.91-.66,1.14.32-.87-.65-.34-.15-1.42-.09.05-.22.17-.22.39-.12-.09-.14-.22.02-.44-.48.06-.38.45-.79.33.03-.15.12-.19.2-.35-.26.23-.54.48-.86.23.04-.09.03-.21.13-.17-.59-.16-1.24.4-1.8-.22.4-.53-.15-.31.01-.87l-.38-.03.03.33c-.29-.16-.7.04-.88-.3l.31-.07c-.19-.09-.39-.16-.57-.27.06.14.13.27.21.41-.41.06-.27.67-.59.25.1,0-.29-.23-.29-.62-.22.04-.45.08-.59-.21.04-.2.35-.48.38-.62-.36.28-.67-.45-1.09-.22.11-.04.28-.26.29-.33l-.31.19c-.05-.22-.03-.28.12-.44-.3-.42-.3.67-.53-.02.05.02.07-.05.17-.01-.29-.58-.9-.74-1.1-1.36.27-.51.37.31.57-.16-.52-.56-1.38-1-1.66-1.82l.03.17c-.63.33,0-.76-.45-.95.09.06.38-.11.31-.09-.15-.58-.62-.96-1.14-1.68h.2c.01-.39-.24-.88-.29-1.27-.2-.02-.24-.24-.43,0,.27-.79-.03-1.23-.32-1.69-.3-.44-.61-.9-.34-1.55.03.12.22.23.19.13-.13-.27-.25-.53-.36-.8-.27.17-.15.17-.32.44-.19-.05-.38-.25-.43-.47.28.33.45-.16.57-.38-.08.05-.19.03-.27.08.41-.62-.59.11-.38-.63h.16c-.12-.23-.36-.39-.38-.65.31-.2.2.21.48.14-.09-.34-.76-.53-.49-.94.12.13.16.35.28.48.33-.46.22-.47.24-.75v.03l.08-.64-.08.18c-.94-.25-.3-.87-.94-1.37.62.5.33.04.71.01.09-.17.18-.43.29-.38-.34-.24.19-.51-.3-.84.12-.04-.01-.31.3-.28-.13-.35-.21.12-.36.1-.48-.53.4-1.39-.2-2.16-.25-.69-.68-.83-.87-1.52.2-.22.45.21.45.21.19-.35.17-.62.06-.97.1.08.2.02.34-.06-.01-.26-.44-.24-.22-.56.13.09.34.2.47.34-.08-.31-.27-.66-.33-1.01.22-.03.29.27.41.41-.05-.37-.04-.93-.34-1.15l-.17.19c.01-.13.3.02.34.14.2.37-.2.4-.33.38l-.04-.25c-.77.05-.04.98-.11,1.41l-.51-.27c.13.19.26.37.4.55-.14.09-.45.14-.51-.12-.28.33.17.33-.14.62-.04.03-.07.02-.09-.01l.15.36c-.11-.07-.38.05-.29-.17-.33.64.39,1.03-.01,1.27l-.03-.05c.2.87.39.08.87.7l-.94.51.4.06c-.01.09-.03.27-.18.25.29.31.17-.07.43.09-.33.47.26,1.15-.35,1.33.31.11.19-.44.43-.02-.65.23.17.51-.09.94-.36-.05-.22-.47-.48-.02.61.13-.03.79.13,1.1.46-.08.29.68.54,1.19-.16,0-.06,1.09-.11,1.65h-.08c.48-.04.5.52.68.85-.27.08-.4.05-.57-.12l.09.36c.17.03.27.12.37.33l-.36.03c.14.48.64.8.59,1.49.32-.1.73-.83,1.11-.3-.16.09-.44.24-.55.11.04.05.2.13.15.27l-.35-.12c-.04.32.27.04.31.27-.24.1-.12.23-.32.29-.04-.05.04-.23-.08-.27.03.26-.03.62-.17.8.13-.09.32-.15.4.01.17.45-.23.3-.27.62.2.03.13.41.48.24.04.13-.11.24-.18.34.24.16.44,1.08.71.61v-.07s.02.02.03.03c.62.55.41,1.68.9,2.32l-.11.08c.33.34.54.91.92,1.02.06.12-.04.44-.19.49.25.26.39.19.49.79-.36-.16-.1.25-.33-.21.15.48.06.74.6.9-.35.1-.11.62.1.73v-.46c.17.17.27.38.39.58l-.39.25c.1.62.57.78.94.94.4.14.72.3.72.95.36-.11-.24-.56.15-.73.26.34.23,1.26.34,1.35.33.62.77-.25,1.17.27.01-.2.18-.66.59-.55.29.29.11.96-.18.94-.09-.04-.11-.12-.08-.17-.13-.02-.31-.06-.26.21l.12-.12c.09.29.59.59.36.78.34.02.23-.19.07-.41.35.55.71.45,1.13.88-.04-.13-.04-.37.03-.33.64.56.42-.16.92-.02.2.38-.29.59.27.58.25.31-.06.49-.22.58.55-.14.82.56,1.09.71-.1.02-.19.04-.29.06.17-.03.29,0,.43.05l-.07-.4c.13.11.26.14.23.29.2-.19,0-.63.36-.87.16.25.61-.06.61.44-.59-.3,0,.51-.55.46.11-.03.24,0,.38.09.01.06-.04.09-.08.12.55.56.36-.47.98-.37-.11.26.09.55.2.5-.25-.05-.08-.48.17-.65.38.26.44-.12.64-.07l-.23-.12c.1-.27.29-.21.56-.28.01.22-.25.13-.16.23.31-.48.68.54,1.1.19.2.18.03.52.21.64.48-.38.55.34,1.06,0-.18-.36-.19-.26.13-.66l-.81.35.49-.59c-.24.01-.5.3-.66.23.24-.31.21-.23.08-.52.36.52.63-.38,1.03-.07l.08.91c.66.3.99-.66,1.77-.65l-.27-.09c.03-.39.45-.17.66-.41.04.31.22.36.36.51-.06-.21.55-.18.46-.8l.43.25c.64-.12.4-1.12.96-1.3-.05.4.27.46-.02.88.18-.09.36-.13.3-.34.18.12.35-.65.62-.49.03-.16-.07-.47.13-.56.04.04.06.13.06.13-.05-.13.22-.38-.08-.57.91.5,1.38-1.07,2.17-.76.3-.39.66-.84.94-1.16.03.09.08.12,0,.15.57-.2-.22-.93.4-1.16.5.12-.09.46.16.45.63.69.46-.71,1.08-.64l-.04.12c.43-.04.31-.94.69-1.39,0,0,.04.08.1.1-.09-.67.19-1.41.34-2.01.2.37.03.34.36.46.08-.27-.48-.27-.34-.79.22-.04.5-.31.84-.19-.06.17-.12.34-.18.5.52,0,.25-.66.41-.88l.17.12c.2-.84-.28-1.04-.07-1.85l-.17.04c-.4-.58.34-.3.05-.84l.52-.04c-.08-.34-.36-1.14-.43-1.66.36.33.5.98.67,1.43.04-.31.06-1.05-.18-1.22.04.12.15.29.06.41-.36-.41-.53-.89-.51-1.47.98.14.27-1.5,1.01-1.94-.38-1.03.08-2.08-.08-3.3-.72.53-.05-.35-.82-.16-.08-.27-.08-.38-.03-.41.13-.31.25-.61.36-.92.2-.24.2.23.37.18-.02-.63.29-.32.45-.77-.26.14-.43-.13-.37-.52l-.29.57c-.53-.76.54-.89,0-1.66l.29.22c-.2-.41-.29-1.65-.99-1.89.07-.1.25-.27.35-.1-.13-1.09-1.18-2.07-1.04-3h.2c-.11-.17-.43-.18-.33-.5.08-.02.2,0,.18-.09-.1-.08-.47-.36-.45-.66l.27.12c-.11-1.14-1.03-1.31-1.51-2.01.5-.34.24-1.26.06-1.71l.07-.05c-.7-1.22-1.69-1.39-2.58-1.87-.06-.51-.47-.94-.92-1.32-.46-.38-.97-.71-1.3-1.15.08.19-.22.46-.39.44-.14-.24-.69.11-.44-.44l.06.05c.08-.64-.38-.73-.68-.93l-.34.72c-.2-.77-.78-.98-1.33-1.11-.54-.14-1.04-.21-1.13-.82-.27.11-.53,0-.79.11l.12-.41c-.57-.33-.87-.5-1.65-.62l.22-.27c-.44-.16-.77,1.1-1.15,1.04l-.03-.67c-.75-.15-1.52-.81-2.31-.23.01-.09.04-.29.17-.3-.36-.05-1.43-.44-1.27.47-.03-.59-.8,0-1.17.31l.03-.45c-.29.61-.29.75-.73.98-.11-.03-.14-.33.02-.24-.4-.15-.24.46-.7.33l.12-.31c-.38.06-.33.2-.48.56-.2.22-.71.08-.84-.29,0,.24-.15.62-.38.58-.06-.13,0-.25.03-.3-.68-.1-.79.78-1.3.52-.04-.13-.09-.2-.13-.22.48-.17.88-.27.85-.23-.08-.39-.5-.32-.3-.96-.26.4-.64,1.23-1.06,1.19-.03-.03-.06-.06-.08-.11l.03-.06c-.1,0-.17.06-.22.16-.13-.01-.23-.03-.34,0-.13-.3-.49.02-.68.09.13.41-.13.45.2.69-.04-.02.02-.06.14-.13.03-.02.06-.05.07-.08v.04c.12-.06.28-.15.46-.23-.1.27-.2.51-.47.38-.02.3-.04.62-.06.78-.42-.46-1.01-.55-1.19-.87-.5.49-1.31.81-1.39,1.76-.12.18-.26-.12-.36-.2.06-.13.18-.17.19-.31-.25.37-.93.62-.79,1.19-.49.02.03-.62-.48-.18v-.2c-.72-.05-1.03.62-1.29,1.26-.28.66-.5,1.25-1.33,1.44.11-.04.17-.05.23,0-.71.51-1.16,1.42-1.49,2.32-.34.9-.59,1.79-1.15,2.57-.27.46.02.62.17,1.01h-.4c.1.22.22.44.33.65.18.8-1.15,1.09-.65,2.18l.27-.08c-.09.34.04,1.1-.25,1,.04.04.26.15.11.27l-.2-.02.27.87c-.19.63-.79-.19-.89.76.06.36.52,1.05.67.93.02-.14.15-.35.35-.34l.08.33c.59.11,1.18.4,1.64-.33l-.33-.57.3-.14v.44c.27-.23.04-.41-.11-.61.15-.02.27-.09.33-.19l-.52-.58c.24-.03.44.29.59-.05-.24-.27-.54.16-.68-.26.29-.22.5-.11.3-.44.15-.02.25.05.31.18-.16-.29,0-.69-.31-.88.35-.2.03-.88.57-.74-.13-.11-.37-.53-.36-.77.59.57.18-.84.87-.53-.54-.48-.04-1.12-.21-1.75.04.05.11.14.07.17.13-.26.33-.26.48-.38-.46-.26-.41-.73-.61-1.13.56-.07.45.51.92.64-.38-.19-.15-.75-.49-.83.37-.07.21-.13.63,0-.52-.42.01-.26-.22-.7.43-.11.53.32.57-.14.24,0,.26.43.26.43h.03Zm6.91-6.19c-.08.05-.14.09-.18.11.04-.02.09-.06.18-.11Zm.76-.29c-.1.02-.21.06-.33.1-.06-.13-.07-.3,0-.32-.02.12.18.12.33.21h0Zm-2.42-2.25c.11-.11.18-.05.22.03-.06.03-.12.08-.21.15v.05c-.01-.09-.02-.16,0-.23h0Z"/><path class="cls-2" d="m3.83,111.36c-.34.52.22.58.37.89-.25.7-.45.04-.77.09-.12.49.08,1.08-.08,1.37-.08-.02-.13.02-.18-.12.11.65-.58,1.3-.36,2.08-.05.02-.1.02-.13,0,.24.04.47.16.61.27-.08.25.1.6-.22.54.06-.15-.04-.22-.11-.34l.03.32c-.49.02-.01-.43-.31-.59-.07.58.08,1.35-.16,1.69-.43-.11.16-.99-.37-.63l.36-.54c-.79.14.18-.36-.65-.27-.41.78-.11,1.03-.47,1.82.17.28.36.08.53.36.11,1.32-1.29.55-.93,1.63.23.32.74.57.34,1.11l-.43-.35c-.2.82.6.65.13,1.43-.17-.19-.05-.69-.13-.58-.48.47.21.47.15.89h-.44c-.07.91.15,1.94.15,2.92-.12-.07-.25-.25-.4-.03.13,1.27-.15,2.67-.36,3.93l.4.44c0,.11-.16.21-.24.1-.12.49.24,0,.4.22.04.27-.19.38-.31.22.37.82.89,2.25.64,3.2l-.13-.14c-.05.72.88.56.64,1.26l-.08-.1c.11,1.5.87,2.9.7,4.21.55-.05.27,1.49.99,1.18-.03.96-.24.82.03,2.04.11.3.61.12.84.41l-.33.27.59.18-.26.56.26.24c-.05-.14,0-.39.1-.44.41.35.46,1.34.31,1.51.33.28.65.56.98.82-.14.11-.31-.02-.48-.09.69.26-.24.44.41.66.02-.14.2-.16.27-.21,0,.45.45,1.02.85,1.34l-.26.16c.57.8,1.42,1.39,2.19,2.08-.2-.37.15-.77.39-.62l-.15.49c.29-.12-.14-.37.34-.41.25.3-.08.65-.33.63.14.06.29.11.44.16-.05.14-.17.14-.28.28.29-.15.4.95.87.65l-.04.15c.84.62,1.3.71,2.03,1.09.17-.39.41-.15.73-.36.47.39.98.98,1.66,1.19.52-.04.22-.3.48-.48-.06.4.62.57.22.74.82.17,1.05.22,2.1.09-.09-.18-.2-.27-.12-.4.18-.03.39.23.34.42l-.05.03c1.17-.41,2.51,1.48,3.54.61l-.06.05c.34-.16.68-.33,1.01-.52.49-.02-.26.34.13.53.55-.43,1-.56,1.43-.69.43-.12.84-.26,1.16-.73.55.32,1.12-.12,1.61-.66.5-.54.91-1.16,1.45-1.27l-.19-.16c.02-.39.3-.12.47-.22-.14-.13-.33.03-.31-.2.61-.96,1.34-1.8,2.08-2.68.73-.88,1.47-1.8,2.06-2.81.41-.76-.82-1.13.08-1.8l.25.51c.22-1.86,1.29-3.3,1.36-5.11.06.13.18.2.13.35.39-.22.38-1.26.13-1.37.1-.24.23.02.39-.08.26-.28-.15-1.02.18-1.09.06-.02.07.13.08.2-.09-.28.29-1.05-.1-.95.31-.56.11-1.23.41-1.68-.32-.43.38-1.05-.15-1.29.56.2.63-1.04.4-1.5.16.17.22-.34.44-.13.04-.49-.03-.95-.33-.9.38-.41.26-.89.15-1.3-.11-.41-.2-.76.23-1.04-.34-1.49-.77-2.81-1.25-4.01.27-.09.39.26.49.6.09.34.18.68.47.57-.5-1.24-1.16-1.7-1.5-2.88-.05-.34.29.02.42.07-.68-1.01-1-2.22-1.85-2.81.04-.04.15,0,.24.06-.13-.16-.21-.47-.39-.23.06.03.11.07.17.1-.1.55-1.05.02-1.21.19.36-.19.26-.42.17-.65-.09-.22-.15-.46.34-.68-.12-.05-.31-.06-.41.12-.09-.19-.06-.33.2-.36-.56-.4-.58.06-1.01-.4.08-.12.2-.08.34-.17-.38,0-.75.03-1.06-.41.07-.06.08-.19.19-.09-.68-.56-1.49-.29-2.1-1.06.5-.43-.17-.37.03-.91-.16-.05-.32-.09-.48-.12l.06.36c-.36-.24-.84-.07-1.08-.42l.36-.06-.73-.3.31.43c-.47.06-.22.69-.64.26.11,0-.36-.2-.43-.62-.24.07-.49.16-.71-.12-.01-.21.26-.57.25-.7-.33.35-.91-.31-1.29.07.11-.08.2-.36.2-.43l-.27.3c-.13-.2-.14-.27-.04-.48-.5-.3-.04.76-.57.19.06,0,.05-.07.17-.09-.57-.44-1.27-.29-1.8-.7-.03-.62.54.06.47-.48-.87-.24-1.91,0-2.7-.4l.14.12c-.29.76-.52-.6-1.02-.34.11-.03.22-.41.18-.33-.54-.3-1.2-.15-2.1-.11l.14-.18c-.31-.27-.87-.33-1.22-.5-.14.19-.34.11-.26.44-.48-.72-1.06-.66-1.62-.53-.56.12-1.06.31-1.61-.18.13,0,.31-.2.2-.2-.31.07-.61.15-.91.25.1.35.13.2.34.47-.1.22-.33.41-.54.44.36-.29-.05-.58-.26-.75.04.1,0,.23.03.34-.55-.54.02.72-.65.44v-.2c-.22.16-.37.47-.61.51-.2-.36.18-.28.13-.61-.36.16-.47,1.01-.87.76.1-.18.31-.27.42-.44-.47-.32-.48-.17-.75-.12h.03c-.22.03-.43.06-.64.11l.19.04c-.02,1.21-.75.68-.98,1.67.21-.94-.08-.4-.24-.83-.18-.01-.45,0-.45-.15-.08.51-.54.06-.63.79-.08-.12-.26.19-.38-.17-.25.34.19.16.25.34-.23.81-1.37.35-1.71,1.51-.43.73-.29,1.24-.65,1.92-.29-.02-.14-.57-.14-.57-.39.08-.58.33-.73.73-.02-.16-.13-.18-.31-.23-.18.26.17.55-.21.69-.05-.17-.15-.44-.15-.67-.17.38-.23.87-.36,1.26-.22-.09-.11-.46-.13-.69-.2.42-.52,1.11-.31,1.47l.24-.14c-.07.14-.27-.15-.26-.3,0-.53.4-.35.5-.26l-.1.28c.69.36.53-.94.93-1.3l.22.64c.01-.26.03-.52.05-.79.17.05.41.26.29.52.41-.02.1-.41.49-.34.05.02.06.05.05.09l.15-.39c.02.16.27.32.08.39.62-.12.48-1.05.89-.81l-.02.06c.54-.73-.17-.44.06-1.32l.87.69-.15-.44c.08-.04.22-.12.29.05.1-.48-.14-.14-.13-.51.52.09.82-.9,1.22-.33-.04-.4-.44.02-.2-.48.46.61.34-.44.82-.34.08.43-.29.45.17.55-.11-.75.65-.29.84-.56-.2-.51.47-.57.86-.95.03.17.94-.1,1.39.01v.09c-.02-.59.46-.59.78-.74.01.34-.03.48-.19.66.1-.02.2-.03.3-.05.06-.19.15-.3.34-.37l-.06.44c.39-.06.82-.54,1.35-.21.06-.4-.4-1.15.22-1.37.01.22,0,.58-.15.66.05-.02.19-.16.29-.06l-.26.34c.24.18.15-.29.35-.24-.03.31.13.24.08.48-.05.02-.17-.15-.25-.03.22.08.48.3.54.54,0-.18.04-.41.21-.43.43.05.1.39.33.59.13-.19.37.08.44-.38.13.03.12.24.15.38.25-.16,1.04.18.87-.36l-.05-.05s.03,0,.04,0c.81-.27,1.47.64,2.23.66l-.03.15c.47-.05.97.19,1.35-.02.13.04.24.38.14.53.35,0,.43-.16.84.26-.39.14.06.27-.38.07.39.28.42.55.97.32-.25.32.18.59.41.56l-.22-.38c.24.03.42.15.61.26l-.24.44c.66.94,1.81-.36,2.14.94.33-.23-.37-.45-.05-.76.36.25.53,1.13.64,1.19.41.52.71-.45,1.19.02,0-.2.1-.69.56-.62.35.28.18.97-.11.97-.1-.04-.11-.12-.09-.17-.14,0-.32-.02-.25.24l.11-.14c.11.28.61.55.39.76.33.02.23-.2.06-.41.36.52.71.45,1.09.93-.03-.14-.01-.37.06-.32.58.66.44-.09.93.17.13.44-.38.49.16.65.18.37-.17.45-.34.5.55.02.6.79.77,1.03l-.26-.06c.15.03.25.12.34.2l.08-.39c.08.16.18.24.1.37.24-.08.22-.57.62-.6.05.3.57.31.34.73-.36-.61-.22.41-.64.09.1.03.2.12.26.28-.01.06-.07.06-.11.05.15.78.5-.21.91.3-.21.13-.22.48-.12.52-.15-.2.19-.42.47-.37.13.48.36.27.48.47l-.08-.28c.22-.11.33.1.55.3-.13.16-.26-.14-.25,0,.5,0,.08.94.5,1.16-.03.29-.35.3-.36.52.49.26-.06.67.36,1,.21-.29.15-.3.54-.07-.15-.26-.35-.48-.52-.72.2.09.41.19.62.3-.11-.27-.39-.44-.41-.62.33.11.25.13.42-.14-.26.62.55.58.41,1.19l-.7.33c-.11.72.69.94.64,1.87l.08-.3c.31.05.13.53.27.8-.25.02-.32.2-.47.34.18-.03.03.63.53.69l-.32.41c-.14.71.71.86.58,1.59-.26-.24-.45.06-.62-.43-.01.23-.08.44.1.46-.16.12.28.71.02.9.1.12.36.19.3.47-.05.02-.12-.02-.12-.02.12.02.11.46.42.27-.87.59-.29,2.15-1.09,2.6-.03.55-.11,1.22-.2,1.7-.06-.05-.12-.05-.07-.12-.39.57.59.66.15,1.32-.49.23-.1-.48-.31-.3-.81-.22-.13.94-.74,1.23v-.14c-.39.25.01,1.04-.25,1.62,0,0-.06-.06-.11-.06.25.61.11,1.46-.01,2.09-.22-.35-.05-.35-.4-.41-.06.28.51.2.39.76-.22.08-.52.35-.85.19l.18-.48c-.5,0-.24.61-.41.81l-.16-.15c-.25.73.18,1.05-.22,1.77l.17.02c.21.73-.4.16-.31.8l-.48-.22c-.03.34-.1,1.23-.31,1.76-.14-.54.03-1.19.01-1.68-.13.26-.45.86-.33,1.17.02-.13,0-.35.12-.39.14.59.04,1.14-.29,1.62-.68-.84-1.05,1.01-1.86.66-.36,1.05-1.34,1.29-2.06,1.91.68.57-.22.2.23.98-.17.19-.26.23-.3.19-.27-.04-.54-.09-.8-.17-.22-.19.11-.29.03-.48-.41.13-.29-.29-.61-.41.15.3,0,.52-.25.47.13.11.27.22.41.31-.22.36-.4.19-.55.03-.16-.16-.29-.34-.56-.05.06-.11.11-.22.15-.33-.26.24-1.14.07-1.55.8-.06-.12-.14-.38.03-.44-.87-.16-2.05.63-2.68.02l.1-.22c-.17.04-.34.38-.51.1.03-.09.1-.21.03-.24-.1.06-.49.3-.68.11l.22-.21c-.76-.51-1.38.23-2.12.09.18-.66-.36-1.13-.62-1.4l.04-.09c-.84-.54-1.67-.37-2.58-.76-.15-.98-1.43-1.63-1.86-2.72.03.2-.31.38-.48.29-.07-.29-.7-.19-.31-.6l.04.08c.24-.57-.15-.83-.36-1.16l-.54.49c.06-.82-.37-1.29-.77-1.76-.4-.46-.77-.91-.53-1.44-.26-.12-.39-.41-.65-.53l.32-.2c-.2-.7-.3-1.04-.69-1.82l.3.04c-.15-.46-1.16-.09-1.34-.53l.46-.38c-.27-.86-.06-1.87-.7-2.58.08,0,.24-.03.29.1-.09-.41.05-1.68-.65-1.35.47-.12-.1-.93-.36-1.4l.36.02c-.49-.34-.62-.33-.8-.9.04-.15.27-.16.2.04.15-.49-.36-.33-.22-.92l.24.19c0-.48-.11-.43-.4-.68-.16-.3.05-.94.38-1.01-.2-.06-.46-.32-.37-.61.12-.04.2.06.24.12.25-.8-.4-1.22-.02-1.76.12,0,.18-.03.22-.08-.05.64-.06,1.15-.1,1.1.33,0,.4-.49.84-.08-.25-.4-.74-1.15-.55-1.63.03-.02.06-.04.12-.05l.03.05c.04-.11.02-.22-.03-.32.06-.15.11-.25.13-.4.27-.02.2-.55.25-.8-.36-.04-.26-.37-.59-.1.03-.04.04.05.03.23,0,.04,0,.09.03.12l-.03-.02c-.01.17-.03.39-.04.64-.17-.23-.29-.47-.06-.72-.21-.17-.43-.36-.53-.46.53-.27.91-.88,1.22-.9-.08-.81.18-1.8-.35-2.51-.03-.25.24-.19.36-.23.04.15-.01.29.07.39-.07-.49.25-1.28-.16-1.57.36-.45.33.48.46-.29l.11.16c.57-.54.47-1.22.45-1.94-.03-.71.02-1.48.8-1.89-.1.06-.15.09-.22.06.59-.69.97-1.53,1.45-2.33.47-.78,1.06-1.5,1.87-1.71.42-.17.29-.5.39-.91l.29.33c.04-.26.1-.5.16-.75.2-.38.58-.27.92-.21.36.07.69.12.96-.4l-.18-.26c.29-.06.85-.52.88-.13.02-.06.03-.35.17-.23l.05.24c.2-.19.41-.4.64-.57.57.1.03.96.78.94.26-.12.8-.72.71-.9-.12-.02-.31-.16-.32-.41l.29-.12c.06-.73.38-1.47-.47-1.98-.19.15-.38.32-.56.48l-.21-.34.49-.06c-.29-.31-.47,0-.64.23-.06-.18-.16-.3-.28-.35-.17.26-.33.52-.47.8-.11-.27.17-.62-.24-.68-.2.37.34.57-.04.87-.31-.25-.3-.53-.55-.16-.08-.16-.04-.3.06-.42-.24.3-.71.35-.75.77-.38-.27-.85.51-1.04-.13-.03.19-.28.73-.49.9.06-.5-.16-.38-.43-.23-.26.15-.56.34-.69-.09,0,.85-.95,1.12-1.22,1.94,0-.07-.01-.22.05-.23-.31.21-.5.12-.75.2.29.5-.03,1.04-.01,1.55-.64-.06-.23-.73-.64-1.02.29.34-.24,1.01.11,1.16-.44.04-.3.12-.71-.06.43.56-.12.37,0,.92-.52.21-.54-.33-.7.31-.3.1-.2-.52-.2-.52l.02.08Zm-2.94,13.98v-.29.29Zm-.05,1.18c.02-.14.03-.32.04-.51.13-.03.25.02.24.14-.08-.07-.17.2-.28.37h0Zm2.64-2.11c.03.17-.04.22-.11.24,0-.08,0-.17-.01-.3-.01,0-.03-.02-.04-.02.06.02.13.05.17.09h0Z"/><path class="cls-2" d="m52.47,15.04c.13-.39-.36-.41-.59-.62.06-.56.4-.05.68-.09-.01-.35-.28-.82-.17-1.04.08.03.11,0,.18.12-.18-.55.43-.87.27-1.56.05,0,.09.02.12.05-.22-.12-.41-.3-.54-.44.11-.18,0-.55.27-.37-.08.1.01.2.05.33l.02-.28c.45.2-.04.36.2.62.1-.44.13-1.13.43-1.27.34.32-.34.69.18.69-.13.08-.27.15-.41.24.71.27-.19.19.54.52.44-.36.24-.71.71-1.04-.07-.32-.27-.29-.34-.61.16-.52.46-.39.72-.24.26.15.47.3.54-.19-.05-.38-.32-.99.2-.99l.15.59c.47-.31-.13-.94.55-.98.01.27-.29.44-.18.45.52.16.08-.46.33-.65l.27.42c.47-.44.91-1.15,1.49-1.58.02.16-.03.37.17.44.66-.68,1.68-.84,2.53-.91l.16-.56c.07-.02.18.13.14.25.34.02-.07-.28.03-.52.17-.1.3.15.23.33.41-.6,1.31-1.44,2-1.16l-.08.17c.48.02.29-1.08.8-.8l-.06.1c1-.12,2.03-.79,2.86-.23.08-.68.99.14.98-.76.59.39.45.57,1.23.84.2.03.29-.58.56-.68v.48c.12-.16.24-.34.36-.5l.17.59.24-.11c-.1-.03-.2-.23-.18-.37.4-.21.91.41.89.66.3-.11.6-.2.91-.27-.04.19-.2.23-.33.34.52-.41.03.52.5.14-.04-.12.07-.28.09-.37.17.35.63.43.99.44l-.13.3c.59.25,1.31.3,1.96.63-.19-.26.04-.76.26-.72l-.08.51c.23-.22-.15-.29.24-.5.24.2-.03.62-.22.69h.36c-.04.16-.13.19-.22.35.24-.22.31.73.68.37l-.04.14c.31.2.54.32.76.44.22.11.43.22.66.41.22-.34.36-.12.67-.27.13.23.25.49.38.75.12.27.25.53.45.73.37.16.29-.17.55-.2-.22.3.15.73-.2.69.24.24.35.42.52.59.18.16.37.35.69.65.06-.17.06-.31.18-.34.13.11.07.42-.07.51l-.05-.02c.44.3.48,1,.47,1.62-.02.63-.06,1.17.35,1.44l-.04-.03c.18.23.34.48.51.73,0,.41-.27-.18-.43.16.34.38.35.77.34,1.12-.02.35-.08.67.11,1.06-.48.3-.48.8-.47,1.35,0,.55.03,1.16-.35,1.46l.23.02c.18.27-.17.21-.25.34.18.03.24-.16.34,0-.04.91-.38,1.79-.82,2.55-.45.77-.99,1.47-1.49,2.15-.36.5.79,1.15-.08,1.47l-.22-.51c-.28,1.5-1.49,2.16-2.02,3.49-.02-.15-.1-.26-.02-.35-.38-.07-.66.72-.5.95-.15.12-.18-.17-.34-.2-.29.02-.22.85-.51.66-.05-.03-.01-.15,0-.2-.03.27-.6.52-.26.75-.45.16-.57.77-.97.81.04.56-.71.33-.46.94-.29-.6-.89.03-.98.49-.01-.24-.3-.04-.33-.36-.26.2-.45.49-.25.77-.83-.4-.76,1.28-1.45.48-.68.83-1.4,1.48-2.15,1.95-.16-.68.85-.44.59-1.13-.62.6-.92,1.37-1.71,1.45-.22-.03.04-.33.08-.47-.69.55-1.45.37-2.08.87,0-.06.06-.15.12-.21-.13.05-.33-.05-.27.27l.12-.11c.28.42-.44,1.06-.45,1.3.16-.94-.72-.15-.43-1.34-.08.07-.18.23-.15.44-.14-.05-.18-.18-.06-.43-.47.2-.29.54-.73.55,0-.16.09-.22.13-.4-.21.3-.45.62-.82.47.03-.09-.01-.22.1-.21-.63.02-1.16.74-1.86.31.29-.63-.22-.26-.17-.84l-.4.09.11.31c-.33-.08-.69.25-.94-.02l.29-.16c-.21-.02-.42-.04-.63-.09.1.12.2.23.3.33-.4.19-.12.73-.53.41.11-.02-.34-.12-.42-.52-.2.11-.43.22-.63-.02,0-.2.24-.58.24-.71-.29.37-.76-.23-1.13.12.11-.07.22-.35.22-.41l-.26.28c-.1-.2-.1-.27.02-.47-.39-.32-.15.75-.52.14.05,0,.06-.06.16-.06-.42-.47-1.06-.45-1.38-.99.16-.59.43.2.52-.33-.62-.4-1.55-.58-1.98-1.32l.06.16c-.56.48-.13-.76-.6-.83.1.05.36-.2.29-.16-.23-.53-.76-.8-1.35-1.44l.2-.02c-.03-.4-.33-.85-.41-1.23-.2,0-.26-.21-.43.05.2-.81-.1-1.23-.42-1.68-.32-.44-.64-.89-.39-1.56.04.12.22.23.2.13-.13-.26-.26-.53-.38-.8-.27.17-.14.18-.31.44-.19-.05-.39-.26-.44-.48.29.34.45-.16.57-.39-.08.05-.19.03-.27.08.41-.63-.59.11-.38-.65h.16c-.12-.23-.37-.4-.37-.68.31-.2.2.22.48.16-.08-.35-.76-.57-.47-.99.11.14.15.37.27.5.33-.45.23-.47.25-.75v.03l.09-.65-.09.18c-.94-.3-.27-.91-.9-1.46.61.55.33.06.71.06.09-.17.2-.43.31-.37-.33-.26.2-.51-.27-.88.12-.03,0-.31.31-.27-.11-.37-.21.1-.37.09-.45-.58.46-1.41-.13-2.26-.24-.74-.66-.89-.85-1.6.2-.23.45.21.45.21.19-.37.17-.66.03-1.02.11.08.2,0,.34-.09-.03-.29-.45-.22-.25-.59.13.07.36.17.48.31-.1-.34-.32-.69-.41-1.05.22-.08.32.23.45.37-.08-.4-.15-1.03-.48-1.18l-.13.24c0-.15.3-.05.36.06.25.36-.14.48-.27.48l-.07-.26c-.74.2.07,1.01,0,1.51l-.52-.24.42.54c-.14.1-.44.16-.51-.09-.27.35.18.33-.12.63-.04.03-.07.02-.09-.02l.15.36c-.11-.07-.38.05-.29-.17-.33.64.38,1.05-.02,1.28l-.03-.05c.18.89.39.09.85.75l-.95.47.39.08c-.01.09-.04.27-.19.25.27.34.17-.06.43.12-.34.46.22,1.2-.4,1.35.31.13.2-.44.43.02-.66.2.15.53-.13.97-.35-.09-.2-.49-.47-.05.6.17-.06.81.09,1.15.46-.06.27.72.51,1.26-.17,0-.08,1.13-.13,1.72h-.08c.47-.02.5.54.69.9-.27.08-.4.05-.57-.12l.09.37c.17.04.27.12.38.34l-.36.03c.15.5.66.83.64,1.55.31-.12.69-.88,1.1-.35-.16.1-.43.27-.55.13.04.05.2.12.17.27l-.36-.12c-.03.34.28.03.33.26-.24.12-.11.25-.31.31-.04-.05.03-.24-.1-.28.04.27.01.65-.12.84.12-.09.31-.17.41,0,.2.45-.21.32-.22.66.2.02.17.42.5.21.06.13-.09.26-.15.37.24.15.56,1.08.78.56v-.08s.01.02.03.02c.68.49.63,1.66,1.22,2.22l-.1.1c.38.29.7.8,1.1.83.09.1.06.44-.09.54.31.19.41.09.65.66-.4-.05-.04.27-.37-.12.26.43.21.73.8.73-.33.2.03.64.26.69l-.11-.45c.21.12.36.29.52.45l-.33.36c.24.58.73.61,1.14.63.42.03.78.05.92.71.33-.21-.36-.48-.02-.76.33.27.5,1.15.63,1.22.47.5.7-.48,1.21-.09-.03-.2.03-.69.47-.72.36.2.31.9.03.97-.1-.02-.13-.09-.11-.15-.14.02-.33.03-.22.28l.09-.16c.15.26.71.39.52.66.34-.08.18-.26-.02-.41.47.42.8.23,1.31.52-.07-.12-.12-.34-.04-.33.75.36.38-.28.91-.29.27.31-.17.66.39.48.31.23.04.5-.1.63.52-.3.92.3,1.22.37-.09.05-.18.1-.27.14.17-.08.29-.09.43-.08l-.15-.37c.15.06.29.06.29.22.16-.24-.12-.62.18-.95.2.2.6-.23.69.26-.64-.12.1.49-.46.6.11-.06.24-.07.4-.02.03.05-.02.1-.06.13.66.4.26-.56.9-.62-.06.29.19.51.29.44-.26.02-.16-.44.04-.69.42.15.41-.23.62-.24l-.25-.06c.04-.29.25-.28.5-.43.05.21-.22.2-.11.27.23-.55.76.35,1.13-.1.23.12.11.5.31.58.41-.49.6.2,1.04-.26-.23-.3-.23-.21.03-.69-.24.19-.5.36-.75.53l.4-.69c-.24.08-.46.4-.62.38.18-.37.17-.27,0-.54.45.43.57-.52,1.03-.31l.22.88c.69.16.89-.87,1.67-1l-.28-.04c-.01-.38.43-.27.61-.53.08.3.26.32.42.44-.09-.2.52-.28.37-.87l.45.18c.62-.2.3-1.18.85-1.43-.02.4.31.43.05.87.18-.12.36-.17.27-.36.18.09.3-.7.58-.56.01-.16-.1-.46.1-.59.04.04.06.13.06.13-.06-.13.2-.4-.11-.56.94.42,1.35-1.19,2.16-.91.29-.4.65-.87.94-1.19.03.09.08.12,0,.15.57-.2-.21-.94.41-1.17.5.12-.1.46.15.44.61.69.48-.7,1.1-.62l-.04.12c.43-.02.34-.94.74-1.35,0,0,.04.09.09.11-.06-.67.27-1.39.5-1.94.15.4-.01.34.31.52.11-.25-.45-.35-.24-.84.23,0,.54-.19.85.02l-.25.43c.5.14.33-.55.52-.71l.14.17c.33-.71-.08-1.06.33-1.75l-.17-.02c-.23-.71.41-.15.27-.78l.49.18c.03-.35,0-1.23.09-1.77.24.47.17,1.16.2,1.65.13-.27.37-.97.2-1.25,0,.14.06.35-.06.42-.22-.56-.23-1.09-.04-1.64.44.27.61-.08.78-.52.16-.44.29-.95.7-1.06-.11-1.19.56-2.16.57-3.54-.78.41,0-.39-.79-.34-.04-.3-.03-.41.03-.44.15-.3.31-.61.45-.93.22-.24.18.29.36.25.03-.7.32-.31.5-.8-.27.12-.41-.2-.35-.62l-.31.61c-.5-.88.57-.95.01-1.85.1.09.2.16.29.25-.21-.47-.38-1.9-1.13-2.09.06-.12.22-.33.34-.14-.12-.61-.52-1.14-.87-1.63-.36-.48-.69-.91-.75-1.42l.2-.05c-.15-.15-.47-.07-.45-.43.07-.05.2-.07.15-.16-.11-.05-.57-.2-.63-.52l.29.02c-.43-1.12-1.37-.89-2-1.37.38-.52-.08-1.26-.33-1.63l.06-.07c-.87-.89-1.82-.8-2.79-1.09-.29-1.01-1.8-1.31-2.68-2.01.12.16-.14.51-.32.52-.2-.21-.7.28-.55-.32l.08.03c-.06-.64-.58-.62-.95-.69l-.17.8c-.4-.69-1.06-.66-1.63-.59-.58.09-1.09.22-1.35-.31-.23.2-.52.21-.74.43V.23c-.65-.08-.98-.1-1.76.11l.13-.34c-.45.05-.43,1.35-.82,1.44l-.2-.62c-.75.15-1.62-.22-2.24.59,0-.09-.02-.29.1-.35-.36.07-1.45,0-1.12.83-.14-.56-.77.21-1.08.62l-.05-.44c-.18.66-.16.8-.57,1.14-.12,0-.18-.29-.01-.24-.41-.06-.16.51-.65.48l.08-.33c-.38.12-.3.26-.4.66-.17.27-.71.21-.88-.12.03.25-.07.64-.31.64-.08-.12-.03-.25,0-.3-.69.02-.71.92-1.26.75-.06-.12-.11-.18-.16-.2.47-.25.86-.43.84-.38-.13-.37-.54-.23-.41-.9-.22.44-.52,1.33-.95,1.37-.03-.02-.06-.05-.1-.09l.03-.06c-.1.02-.17.09-.21.2-.14.02-.24.02-.35.08-.17-.27-.5.12-.7.23.18.37-.08.48.29.64-.04,0,.01-.07.13-.16.03-.03.05-.05.06-.09v.04c.11-.09.27-.2.45-.32-.06.29-.15.55-.44.47.01.31.03.63.02.79-.48-.37-1.1-.32-1.33-.59-.46.61-1.24,1.19-1.15,2.15-.09.22-.28-.02-.4-.08.04-.15.15-.23.13-.37-.19.44-.82.93-.57,1.43-.48.2-.1-.62-.52,0l-.04-.2c-.74.21-.89.99-1.01,1.7-.11.75-.22,1.4-.97,1.88.1-.07.15-.11.22-.08-.59.73-.84,1.75-1,2.72-.17.98-.29,1.94-.73,2.83-.18.52.1.62.31.97l-.39.07.41.6c.29.78-1,1.32-.38,2.33l.26-.12c-.05.36.17,1.11-.13,1.06.05.03.27.11.14.25l-.2.02.38.84c-.11.67-.8-.05-.8.92.1.36.64.98.76.84,0-.15.11-.38.31-.41l.12.32c.59.02,1.22.21,1.59-.62l-.39-.52.28-.2.04.46c.26-.28.01-.43-.16-.6.15-.05.25-.14.31-.25l-.59-.51c.23-.08.47.22.59-.15-.27-.24-.51.27-.7-.14.26-.27.48-.2.25-.5.15-.05.25.02.32.13-.19-.27-.09-.71-.4-.84.33-.27-.08-.91.48-.87-.13-.09-.43-.48-.45-.73.65.48.08-.91.8-.72-.59-.37-.18-1.17-.43-1.77.04.04.13.12.1.16.1-.3.27-.35.43-.52-.48-.15-.52-.66-.76-1.01.55-.23.52.4.99.41-.4-.09-.25-.74-.61-.73.34-.18.2-.2.63-.18-.58-.28-.03-.29-.34-.66.41-.26.58.16.54-.34.24-.1.33.35.33.35v-.02Zm5.64-8.06h0c-.07.06-.13.11-.17.13.04-.03.08-.07.17-.13Zm.74-.42c-.1.03-.21.09-.33.16-.08-.12-.1-.28-.03-.31,0,.12.2.09.35.16h0Zm-2.7-1.8c.1-.13.18-.09.23-.02-.06.05-.12.09-.2.19v.05c-.02-.08-.04-.16-.03-.23Z"/><path class="cls-2" d="m321.51,28.31c.13-.39-.36-.41-.59-.62.06-.56.4-.05.68-.09-.01-.35-.28-.82-.17-1.04.08.03.12,0,.18.12-.18-.55.43-.87.27-1.56.05,0,.09.02.12.05-.22-.12-.41-.3-.54-.44.11-.18,0-.55.27-.37-.08.1.01.2.05.33l.02-.28c.45.2-.04.36.2.62.1-.44.13-1.13.43-1.27.34.32-.34.69.18.69-.13.08-.27.15-.41.24.71.27-.19.19.54.52.44-.36.24-.71.71-1.04-.07-.32-.27-.29-.34-.61.16-.52.46-.39.72-.24.26.15.47.3.54-.19-.05-.38-.32-.99.2-.99l.15.59c.47-.31-.13-.94.55-.98.01.27-.29.44-.18.45.52.16.08-.46.33-.65l.27.42c.46-.44.9-1.15,1.49-1.58.02.16-.03.37.17.44.66-.68,1.68-.84,2.53-.91l.16-.56c.07-.02.19.13.14.25.34.02-.07-.28.02-.52.17-.1.3.15.23.33.41-.6,1.31-1.44,1.99-1.16l-.08.17c.48.02.29-1.08.8-.8l-.06.1c1-.12,2.03-.79,2.86-.23.08-.68.99.14.98-.76.59.39.45.57,1.23.84.2.03.29-.58.56-.68v.48c.12-.16.24-.34.36-.5l.17.59.24-.11c-.1-.03-.2-.23-.18-.37.39-.21.9.41.89.66.3-.11.6-.2.91-.27-.05.19-.2.23-.33.34.52-.41.03.52.5.14-.05-.12.07-.28.09-.37.17.35.63.43,1,.44l-.13.3c.59.25,1.31.3,1.96.63-.19-.26.04-.76.26-.72l-.08.51c.23-.22-.15-.29.24-.5.24.2-.03.62-.22.69h.36c-.04.16-.13.19-.22.35.24-.22.31.73.68.37l-.05.14c.31.2.54.32.76.44.22.11.43.22.66.41.22-.34.36-.12.67-.27.13.23.25.49.38.75.12.27.26.53.45.73.37.16.29-.17.55-.2-.22.3.15.73-.2.69.24.24.35.42.52.59.18.16.37.35.69.65.06-.17.06-.31.18-.34.13.11.07.42-.07.51l-.05-.02c.44.3.49,1,.47,1.62-.02.63-.06,1.17.35,1.44l-.04-.03c.18.23.34.48.51.73,0,.41-.27-.18-.43.16.34.38.35.77.34,1.12-.02.35-.08.67.11,1.06-.48.3-.48.8-.47,1.35,0,.55.03,1.16-.35,1.46l.23.02c.18.27-.17.21-.25.34.18.03.24-.16.34,0-.04.91-.38,1.79-.82,2.55-.45.77-.99,1.47-1.49,2.15-.36.5.79,1.15-.08,1.47l-.22-.51c-.28,1.5-1.49,2.16-2.02,3.49-.02-.15-.1-.26-.02-.35-.38-.07-.66.72-.5.95-.15.12-.18-.17-.35-.2-.29.02-.22.85-.51.66-.05-.03-.01-.15,0-.2-.03.27-.6.52-.26.75-.45.16-.57.77-.97.81.05.56-.71.33-.46.94-.29-.6-.89.03-.98.49-.01-.24-.3-.04-.33-.36-.26.2-.45.49-.26.77-.83-.4-.76,1.28-1.45.48-.68.83-1.4,1.48-2.15,1.95-.16-.68.85-.44.59-1.13-.62.6-.92,1.37-1.71,1.45-.22-.03.05-.33.08-.47-.69.55-1.45.37-2.09.87,0-.06.06-.15.12-.21-.13.05-.33-.05-.27.27l.12-.11c.28.42-.44,1.06-.45,1.3.16-.94-.72-.15-.43-1.34-.08.07-.18.23-.15.44-.14-.05-.18-.18-.06-.43-.47.2-.29.54-.73.55,0-.16.09-.22.13-.4-.21.3-.45.62-.82.47.03-.09-.01-.22.1-.21-.63.02-1.16.74-1.86.31.29-.63-.22-.26-.17-.84l-.4.09.11.31c-.32-.08-.7.25-.94-.02l.29-.16c-.21-.02-.42-.04-.63-.09.1.12.2.23.3.33-.4.19-.12.73-.53.41.11-.02-.34-.12-.42-.52-.2.11-.43.22-.63-.02,0-.2.24-.58.24-.71-.29.37-.76-.23-1.13.12.11-.07.22-.35.22-.41l-.26.28c-.1-.2-.1-.27.02-.47-.39-.32-.15.75-.52.14.05,0,.06-.06.16-.06-.42-.47-1.06-.45-1.38-.99.16-.59.43.2.52-.33-.62-.4-1.55-.58-1.98-1.32l.06.16c-.56.48-.13-.76-.6-.83.1.05.36-.2.29-.16-.23-.53-.76-.8-1.35-1.44l.2-.02c-.03-.4-.33-.85-.41-1.23-.2,0-.26-.21-.43.05.2-.81-.1-1.23-.42-1.68-.32-.44-.64-.89-.39-1.56.04.12.22.23.2.13-.13-.26-.26-.53-.38-.8-.27.17-.14.18-.31.44-.19-.05-.39-.26-.44-.48.29.34.45-.16.57-.39-.08.05-.19.03-.27.08.41-.63-.59.11-.38-.65h.16c-.12-.23-.37-.4-.37-.68.31-.2.2.22.48.16-.08-.35-.76-.57-.47-.99.11.14.15.37.27.5.33-.45.23-.47.26-.75v.03l.09-.65-.09.18c-.94-.3-.27-.91-.9-1.46.61.55.33.06.71.06.09-.17.2-.43.31-.37-.33-.26.2-.51-.27-.88.12-.03,0-.31.31-.27-.11-.37-.21.1-.37.09-.45-.58.46-1.41-.13-2.26-.24-.74-.66-.89-.85-1.6.2-.23.45.21.45.21.19-.37.17-.66.03-1.02.11.08.2,0,.34-.09-.02-.29-.45-.22-.25-.59.13.07.36.17.48.31-.1-.34-.32-.69-.41-1.05.22-.08.32.23.45.37-.08-.4-.15-1.03-.48-1.18l-.13.24c0-.15.3-.05.36.06.25.36-.14.48-.27.48l-.07-.26c-.74.2.07,1.01,0,1.51l-.52-.24.42.54c-.14.1-.44.16-.51-.09-.27.35.18.33-.12.63-.05.03-.07.02-.09-.02l.15.36c-.11-.07-.38.05-.29-.17-.33.64.38,1.05-.02,1.28l-.03-.05c.18.89.39.09.85.75l-.95.47.39.08c-.01.09-.04.27-.19.25.27.34.17-.06.43.12-.34.46.22,1.2-.4,1.35.31.13.2-.44.43.02-.66.2.15.53-.13.97-.35-.09-.2-.49-.47-.05.6.17-.06.81.09,1.15.46-.06.27.72.51,1.26-.17,0-.08,1.13-.13,1.72h-.08c.47-.02.5.54.69.9-.27.08-.4.05-.57-.12l.09.37c.17.04.27.12.38.34l-.36.03c.15.5.66.83.64,1.55.31-.12.7-.88,1.1-.35-.16.1-.43.27-.55.13.04.05.2.12.16.27l-.36-.12c-.03.34.28.03.33.26-.24.12-.11.25-.31.31-.04-.05.03-.24-.1-.28.05.27.01.65-.12.84.12-.09.31-.17.41,0,.2.45-.21.32-.22.66.2.02.17.42.5.21.06.13-.09.26-.15.37.24.15.56,1.08.78.56v-.08s.01.02.02.02c.68.49.63,1.66,1.23,2.22l-.1.1c.38.29.7.8,1.1.83.09.1.06.44-.09.54.31.19.41.09.65.66-.39-.05-.04.27-.37-.12.26.43.21.73.8.73-.32.2.03.64.26.69l-.11-.45c.21.12.36.29.52.45l-.33.36c.24.58.73.61,1.14.63.42.03.78.05.92.71.33-.21-.36-.48-.02-.76.33.27.5,1.15.63,1.22.46.5.7-.48,1.21-.09-.03-.2.03-.69.47-.72.36.2.31.9.03.97-.1-.02-.13-.09-.12-.15-.14.02-.32.03-.22.28l.09-.16c.15.26.71.39.52.66.34-.08.18-.26-.02-.41.46.42.8.23,1.31.52-.07-.12-.12-.34-.04-.33.75.36.38-.28.9-.29.27.31-.17.66.39.48.31.23.04.5-.1.63.52-.3.92.3,1.22.37-.09.05-.18.1-.27.14.17-.08.29-.09.43-.08l-.15-.37c.15.06.29.06.29.22.16-.24-.12-.62.18-.95.2.2.6-.23.69.26-.64-.12.1.49-.46.6.11-.06.24-.07.4-.02.02.05-.02.1-.06.13.66.4.26-.56.9-.62-.06.29.19.51.29.44-.26.02-.16-.44.04-.69.42.15.41-.23.62-.24l-.25-.06c.05-.29.25-.28.5-.43.05.21-.22.2-.11.27.23-.55.76.35,1.13-.1.23.12.11.5.31.58.41-.49.6.2,1.04-.26-.23-.3-.23-.21.03-.69-.24.19-.5.36-.75.53l.4-.69c-.24.08-.46.4-.62.38.18-.37.17-.27,0-.54.45.43.57-.52,1.03-.31l.22.88c.69.16.89-.87,1.67-1l-.28-.04c-.01-.38.43-.27.61-.53.08.3.26.32.42.44-.09-.2.52-.28.37-.87l.45.18c.62-.2.3-1.18.85-1.43-.02.4.31.43.05.87.18-.12.36-.17.27-.36.18.09.3-.7.58-.56.01-.16-.1-.46.1-.59.05.04.06.13.06.13-.06-.13.2-.4-.11-.56.94.42,1.35-1.19,2.16-.91.29-.4.65-.87.94-1.19.03.09.08.12,0,.15.57-.2-.21-.94.41-1.17.5.12-.1.46.15.44.61.69.48-.7,1.1-.62l-.04.12c.43-.02.34-.94.74-1.35,0,0,.04.09.09.11-.06-.67.27-1.39.5-1.94.15.4-.01.34.31.52.11-.25-.45-.35-.24-.84.23,0,.54-.19.85.02l-.25.43c.5.14.33-.55.52-.71l.14.17c.33-.71-.08-1.06.33-1.75l-.17-.02c-.23-.71.41-.15.27-.78l.49.18c.03-.35,0-1.23.09-1.77.24.47.17,1.16.2,1.65.13-.27.37-.97.2-1.25,0,.14.06.35-.06.42-.22-.56-.23-1.09-.04-1.64.44.27.61-.08.78-.52.16-.44.29-.95.7-1.06-.11-1.19.56-2.16.57-3.54-.78.41,0-.39-.79-.34-.04-.3-.03-.41.02-.44.15-.3.31-.61.45-.93.22-.24.18.29.36.25.03-.7.32-.31.5-.8-.27.12-.42-.2-.35-.62l-.31.61c-.5-.88.57-.95.01-1.85.1.09.2.16.29.25-.21-.47-.38-1.9-1.13-2.09.06-.12.22-.33.34-.14-.12-.61-.52-1.14-.87-1.63-.36-.48-.69-.91-.75-1.42l.2-.05c-.15-.15-.46-.07-.45-.43.07-.05.2-.07.15-.16-.12-.05-.57-.2-.63-.52l.29.02c-.43-1.12-1.37-.89-2-1.37.38-.52-.08-1.26-.33-1.63l.06-.07c-.87-.89-1.82-.8-2.79-1.09-.29-1.01-1.8-1.31-2.68-2.01.12.16-.14.51-.32.52-.2-.21-.7.28-.55-.32l.08.03c-.06-.64-.58-.62-.95-.69l-.17.8c-.4-.69-1.06-.66-1.63-.59-.58.09-1.09.22-1.35-.31-.23.2-.52.21-.74.43v-.52c-.65-.08-.98-.1-1.76.11l.13-.34c-.45.05-.43,1.35-.82,1.44l-.2-.62c-.75.15-1.62-.22-2.24.59,0-.09-.02-.29.1-.35-.36.07-1.45,0-1.12.83-.14-.56-.77.21-1.08.62l-.05-.44c-.18.66-.16.8-.57,1.14-.12,0-.18-.29-.01-.24-.41-.06-.16.51-.65.48l.08-.33c-.38.12-.3.26-.4.66-.17.27-.71.21-.88-.12.03.25-.07.64-.31.64-.08-.12-.02-.25,0-.3-.69.02-.71.92-1.26.75-.06-.12-.11-.18-.16-.2.47-.25.86-.43.84-.38-.13-.37-.54-.23-.41-.9-.22.44-.52,1.33-.95,1.37-.03-.02-.06-.05-.1-.09l.03-.06c-.1.02-.17.09-.21.2-.14.02-.24.02-.35.08-.17-.27-.5.12-.7.23.18.37-.08.48.29.64-.04,0,.01-.07.13-.16.03-.03.05-.05.06-.09v.04c.11-.09.27-.2.45-.32-.06.29-.15.55-.44.47.01.31.02.63.02.79-.48-.37-1.1-.32-1.33-.59-.46.61-1.24,1.19-1.15,2.15-.09.22-.28-.02-.4-.08.04-.15.15-.23.13-.37-.19.44-.82.93-.57,1.43-.48.2-.1-.62-.52,0l-.04-.2c-.74.21-.89.99-1.01,1.7-.12.75-.22,1.4-.97,1.88.1-.07.15-.11.22-.08-.59.73-.83,1.75-1,2.72-.17.98-.29,1.94-.73,2.83-.18.52.1.62.31.97l-.39.07.41.6c.29.78-1,1.32-.38,2.33l.26-.12c-.05.36.17,1.11-.13,1.06.05.03.27.11.14.25l-.2.02.38.84c-.11.67-.8-.05-.8.92.1.36.64.98.76.84,0-.15.11-.38.31-.41l.12.32c.59.02,1.22.21,1.59-.62l-.39-.52.28-.2.04.46c.26-.28.01-.43-.16-.6.15-.05.26-.14.31-.25l-.59-.51c.23-.08.47.22.59-.15-.27-.24-.51.27-.7-.14.26-.27.48-.2.25-.5.15-.05.25.02.32.13-.19-.27-.09-.71-.4-.84.33-.27-.08-.91.48-.87-.13-.09-.43-.48-.45-.73.65.48.08-.91.8-.72-.59-.37-.18-1.17-.43-1.77.04.04.13.12.1.16.1-.3.27-.35.43-.52-.48-.15-.52-.66-.76-1.01.55-.23.52.4,1,.41-.4-.09-.26-.74-.61-.73.34-.18.2-.2.63-.18-.58-.28-.03-.29-.34-.66.42-.26.58.16.54-.34.24-.1.33.35.33.35v-.02Zm5.64-8.06h0c-.07.06-.13.11-.17.13.04-.03.08-.07.17-.13Zm.74-.42c-.1.03-.21.09-.33.16-.08-.12-.1-.28-.02-.31,0,.12.2.09.35.16h0Zm-2.7-1.8c.1-.13.18-.09.23-.02-.06.05-.12.09-.2.19v.05c-.02-.08-.04-.16-.03-.23Z"/><path class="cls-2" d="m175.61,38.36c.1-.35-.4-.34-.63-.52,0-.51.39-.07.66-.11-.04-.3-.37-.71-.28-.91.08.02.11,0,.18.09-.24-.48.3-.79.06-1.39.04,0,.08.02.12.04-.22-.11-.43-.26-.57-.38.08-.16-.08-.51.2-.34-.06.09.03.18.09.3l-.02-.25c.44.18,0,.32.27.55.04-.38-.03-1.02.24-1.14.35.3-.23.62.26.63-.11.06-.23.12-.34.2.69.25-.15.16.57.47.34-.29.11-.61.49-.87-.1-.3-.27-.28-.37-.59.22-.95,1.07.62,1.08-.28-.07-.37-.34-.97.12-.91l.17.59c.4-.24-.15-.91.44-.87.02.26-.24.4-.15.42.47.21.05-.43.28-.59l.25.44c.41-.37.77-1.01,1.27-1.39.02.16-.01.36.16.44.57-.58,1.43-.62,2.13-.52l.15-.53c.06-.02.15.17.11.27.29.09-.04-.29.04-.5.14-.08.24.2.18.36.36-.53,1.19-1.14,1.73-.73l-.08.15c.39.12.36-.98.75-.59l-.06.09c.83.12,1.79-.23,2.35.55.2-.62.75.43.94-.44.38.59.23.67.76,1.19.15.1.38-.47.61-.46l-.13.45.42-.35-.03.6c.08-.02.15-.02.22-.02-.06-.07-.08-.28-.03-.41.36-.05.59.69.49.92.26.02.53.03.8.08-.1.16-.23.13-.36.18.54-.18-.15.48.34.31,0-.12.15-.23.2-.3.02.37.36.63.65.76l-.21.23c.38.44.96.74,1.39,1.28-.06-.3.3-.67.47-.54l-.24.42c.27-.12-.03-.3.38-.36.13.25-.23.54-.42.54.1.04.2.08.3.12-.08.12-.17.11-.3.23.27-.1,0,.76.45.56l-.08.11c.38.58.66.74.96,1.24.3-.23.35.02.68,0,.11.48.08,1.09.31,1.56.31.25.31-.07.57-.02-.27.2-.05.69-.36.55.28.58.35.73.86,1.43.1-.15.12-.27.24-.27.1.12-.03.4-.18.44l-.04-.02c.37.36.29,1,.2,1.58-.08.59-.17,1.12.22,1.41l-.04-.03c.17.23.33.47.48.7,0,.38-.27-.16-.43.16.66.74.11,1.37.53,2.03-.9.66.2,1.98-.4,2.78l.22-.05c.22.19-.13.24-.18.38.18-.02.2-.22.32-.09.29,1.67-.36,3.51-.77,4.93-.15.51,1.1.62.43,1.16l-.37-.32c.13.61-.02,1.16-.22,1.62-.19.48-.43.91-.53,1.51-.04-.12-.15-.22-.1-.3-.34-.04-.43.66-.24.86-.11.11-.19-.15-.35-.16-.25.02-.03.76-.33.6-.05-.02-.03-.13-.03-.19.03.24-.45.48-.11.69-.38.15-.4.7-.75.75.1.52-.6.28-.31.87-.33-.57-.77,0-.82.42-.03-.23-.26-.05-.32-.36-.2.19-.35.44-.16.72-.39-.21-.52.08-.65.34-.13.25-.27.44-.59.04-.54.76-1.15,1.32-1.79,1.76-.15-.68.73-.38.49-1.06-.27.27-.45.58-.66.84-.21.25-.45.44-.79.47-.18-.04.03-.33.06-.46-.59.49-1.26.28-1.8.76,0-.06.05-.15.1-.21-.11.05-.28-.05-.24.26l.1-.11c.24.43-.38,1.05-.39,1.28.13-.93-.63-.17-.38-1.36-.07.07-.16.23-.13.44-.12-.05-.16-.17-.06-.43-.41.21-.25.54-.64.54,0-.16.08-.22.11-.4-.18.3-.38.61-.71.48.02-.09-.01-.21.08-.21-.55.02-1.01.77-1.61.37.25-.64-.19-.25-.15-.84-.11.04-.23.09-.34.12l.1.3c-.28-.07-.6.28-.82.03l.26-.19c-.18,0-.37,0-.55-.03.08.11.17.2.26.3-.35.22-.1.74-.46.46.09-.03-.29-.11-.37-.48-.18.12-.38.27-.56.05,0-.2.2-.59.2-.73-.26.41-.68-.14-1,.26.1-.09.18-.37.19-.44l-.23.31c-.09-.18-.09-.25.01-.46-.35-.26-.12.75-.46.21.04,0,.05-.07.14-.09-.38-.39-.94-.29-1.26-.73.13-.58.4.12.46-.41-.57-.27-1.41-.27-1.8-.89l.05.14c-.52.55-.12-.68-.55-.66.09.02.34-.23.27-.19-.2-.44-.67-.59-1.2-1.12l.18-.03c0-.34-.24-.72-.28-1.04-.19,0-.22-.18-.42.05.29-.69.06-1.05-.2-1.47-.25-.41-.5-.84-.17-1.39.02.11.19.23.18.14l-.27-.74c-.28.12-.17.14-.36.35-.18-.06-.35-.27-.38-.47.24.33.47-.09.61-.27-.09.04-.19,0-.28.04.47-.51-.6.03-.31-.61h.16c-.1-.2-.33-.37-.3-.61.33-.14.18.21.46.19-.05-.31-.7-.57-.38-.9.1.13.12.33.22.45.38-.37.27-.38.33-.62v.02l.15-.55-.1.14c-.9-.36-.18-.8-.75-1.36.54.55.32.1.7.16.11-.13.24-.32.34-.26-.3-.27.26-.37-.16-.76.13,0,.04-.25.34-.15-.06-.31-.22.03-.38-.02-.18-.27-.02-.55.14-.81.17-.27.31-.54.12-.97-.06-.65-.41-.96-.38-1.63.26-.06.34.4.34.4.28-.18.34-.38.35-.73.06.12.17.12.33.16.08-.2-.31-.44,0-.56.08.15.23.36.29.54.02-.28-.03-.66.04-.97.2.12.15.4.22.57.07-.3.27-.7.11-1.08l-.2.03c.06-.09.24.23.23.34.04.41-.3.16-.4.08l.06-.21c-.32-.24-.43-.05-.46.23-.04.28,0,.62-.11.78-.12-.17-.24-.34-.35-.52.05.23.1.45.16.67-.15-.02-.44-.14-.41-.38-.36.12.04.36-.32.43-.05,0-.07-.02-.08-.06,0,.12,0,.25.02.37-.08-.12-.36-.16-.21-.3-.5.38.04,1.05-.39,1.08l-.02-.06c-.05.84.34.24.63.95-.33,0-.68.03-1.01.08l.36.19c-.03.08-.09.23-.24.16.2.37.17,0,.39.23-.42.3.03,1.07-.59,1.07.28.18.26-.34.43.1-.68.04.08.48-.24.81-.34-.12-.14-.47-.46-.12.57.25-.15.71-.03,1.03.47,0,.2.66.39,1.16-.16-.02-.18.98-.3,1.48h-.08c.47.02.44.51.58.84-.28.04-.4,0-.54-.17l.04.33c.16.05.25.14.33.34l-.36-.02c.08.44.54.8.42,1.43.32-.07.8-.69,1.12-.19-.17.07-.45.19-.55.05.03.05.18.13.13.26l-.34-.14c-.08.3.27.05.29.27-.24.08-.14.21-.34.24-.04-.05.06-.21-.05-.26,0,.24-.07.58-.22.75.13-.07.32-.12.4.03.14.43-.25.27-.29.59.19.03.12.41.47.23.04.12-.11.23-.18.34.22.16.49,1.02.72.54v-.07s.02.02.03.02c.32.23.44.59.57.98.13.38.26.79.54,1l-.1.1c.36.23.66.66,1.04.61.08.09.05.42-.08.53.29.12.39.02.61.52-.36.02-.03.27-.34-.05.24.37.21.66.74.56-.29.24.03.62.24.62l-.11-.41c.2.08.34.21.48.35l-.29.4c.23.52.66.48,1.04.44.38-.03.7-.05.82.57.29-.25-.33-.42-.03-.74.3.22.46,1.07.57,1.12.41.46.62-.57,1.06-.22-.02-.2.03-.69.4-.75.31.16.28.86.03.96-.09,0-.12-.07-.1-.13-.12.03-.29.06-.18.3l.08-.16c.13.23.62.33.46.6.3-.11.16-.27-.02-.41.41.37.7.19,1.15.43-.06-.11-.11-.34-.03-.33.66.33.33-.3.79-.32.24.3-.14.66.34.46.27.21.04.49-.09.64.45-.33.81.3,1.06.35l-.24.15c.14-.09.26-.09.38-.09l-.13-.37c.13.06.25.06.25.22.13-.24-.11-.62.16-.95.18.19.52-.21.6.27-.56-.12.08.5-.39.59.09-.06.2-.05.34,0,.02.05-.01.1-.05.13.57.39.22-.58.78-.62-.05.28.17.51.26.44-.23.02-.14-.44.04-.69.37.16.36-.23.55-.23l-.22-.06c.04-.29.22-.28.44-.41.05.21-.2.19-.1.27.2-.52.67.37.99-.05.2.14.11.51.28.59.36-.45.53.23.92-.2-.21-.31-.2-.22.02-.67l-.66.49.35-.68c-.21.06-.4.38-.54.35.16-.36.15-.27,0-.53.4.44.49-.5.9-.25l.2.89c.62.19.78-.8,1.48-.89l-.25-.05c-.03-.38.37-.24.53-.48.08.3.24.33.4.46-.08-.2.47-.25.31-.84l.42.2c.57-.16.21-1.14.7-1.36,0,.38.31.42.1.85.15-.11.32-.16.23-.34.18.11.24-.66.5-.54,0-.16-.13-.44.04-.56.04.04.07.12.07.12-.07-.12.15-.38-.15-.54.45.23.73-.09,1.01-.39s.5-.63.9-.52c.24-.39.5-.85.73-1.18.04.09.09.11.03.14.5-.25-.33-.86.21-1.14.49.05-.01.44.22.41.69.57.34-.72.94-.76v.13c.4-.12.13-.95.41-1.44,0,0,.05.07.11.08-.21-.61-.1-1.33-.08-1.89.27.29.1.3.43.34.02-.25-.52-.15-.48-.63.2-.08.43-.36.78-.3l-.09.46c.5-.08.12-.6.24-.81l.18.09c.07-.74-.43-.86-.29-1.58l-.16.05c-.45-.48.31-.29-.01-.74l.51-.05c-.1-.29-.41-.98-.49-1.45.36.29.52.86.71,1.23.03-.27.02-.91-.22-1.07.04.11.16.25.08.35-.38-.36-.55-.78-.54-1.29.98.12.27-1.33,1.02-1.72-.37-.92.11-1.86-.02-2.96-.73.47-.04-.32-.82-.16-.07-.24-.06-.34-.02-.37.13-.27.26-.55.39-.83.2-.22.2.21.37.16,0-.57.3-.29.46-.7-.27.12-.41-.12-.36-.47l-.3.52c-.51-.69.56-.81.03-1.51l.28.2c-.2-.37-.26-1.52-.95-1.72.07-.09.26-.26.35-.1-.12-1.01-1.15-1.86-1.01-2.72l.2-.02c-.11-.15-.43-.13-.32-.44.08-.02.2-.02.18-.1-.09-.06-.46-.3-.45-.57l.27.09c-.11-1.04-1-1.08-1.43-1.68.5-.34.32-1.12.22-1.51l.07-.04c-.47-1.03-1.31-1.28-2.03-1.88.11-1.01-1.07-1.83-1.56-2.8.04.2-.29.41-.45.34-.1-.27-.68-.02-.36-.51l.06.06c.16-.61-.27-.79-.55-1.01l-.4.67c-.11-.79-.68-1.04-1.19-1.19-.52-.16-.99-.2-1.06-.82-.26.11-.5.02-.75.15l.11-.42c-.27-.16-.48-.26-.71-.34-.23-.08-.49-.14-.85-.16l.19-.28c-.41-.1-.67,1.15-1.02,1.13l-.05-.67c-.68-.09-1.4-.68-2.09-.05,0-.09.03-.29.13-.32-.32-.03-1.31-.34-1.12.55-.06-.59-.72.05-1.04.37v-.44c-.24.62-.22.76-.61,1.01-.11-.03-.15-.32,0-.24-.37-.14-.18.47-.62.36l.1-.31c-.35.06-.29.2-.4.57-.17.24-.64.11-.78-.24.01.24-.08.62-.31.59-.06-.13-.02-.25,0-.3-.63-.05-.66.82-1.15.6-.05-.13-.09-.19-.14-.21.43-.2.78-.34.76-.29-.11-.38-.49-.28-.36-.94-.21.43-.49,1.25-.88,1.26-.03-.02-.06-.05-.09-.1l.02-.06c-.09,0-.15.08-.19.17-.13,0-.22,0-.32.04-.15-.28-.45.08-.63.16.18.38-.06.45.27.65-.04,0,.01-.06.12-.15.02-.02.04-.05.05-.09v.04c.11-.08.24-.18.41-.27-.06.27-.12.53-.39.42.02.3.04.62.04.77-.45-.41-1.01-.41-1.22-.69-.4.55-1.13,1.05-1,1.99-.08.2-.27-.05-.38-.09.03-.14.13-.22.11-.35-.17.41-.73.87-.45,1.35-.45.18-.14-.59-.5,0l-.05-.2c-.69.22-.78.98-.8,1.64-.03.69-.03,1.29-.71,1.75.09-.07.13-.1.21-.09-.48.69-.62,1.59-.7,2.46-.09.87-.15,1.71-.52,2.51-.16.47.14.54.36.83l-.39.09c.15.17.29.34.44.49.32.66-.93,1.22-.27,2.05l.26-.13c-.04.31.21.95-.09.93.05.02.27.07.15.2l-.2.03.4.71c-.1.59-.8,0-.77.85.1.3.66.81.78.68,0-.12.1-.34.3-.37l.13.27c.59-.02,1.22.11,1.57-.63l-.4-.44.27-.19.05.4c.25-.27,0-.37-.18-.52.15-.05.25-.14.3-.23l-.6-.4c.23-.08.47.16.58-.17-.28-.19-.5.27-.7-.08.26-.26.48-.21.23-.45.15-.05.25,0,.33.09-.2-.22-.12-.61-.43-.7.32-.26-.12-.78.44-.79-.13-.06-.45-.38-.48-.59.68.37.03-.79.76-.67-.61-.29-.25-.99-.54-1.51.04.03.14.09.1.13.07-.27.25-.32.39-.47-.5-.11-.56-.54-.83-.84.52-.23.55.32,1.02.31-.41-.06-.32-.63-.66-.61.34-.17.18-.18.6-.19-.6-.22-.06-.25-.39-.56.38-.24.58.11.49-.33.23-.09.36.3.36.3v.02Zm4.34-6.94h0c-.06.05-.12.09-.15.12.03-.02.07-.05.15-.12Zm.64-.33c-.08.02-.18.06-.29.12-.07-.13-.09-.29-.02-.31,0,.11.18.12.31.2h0Zm-2.43-2.02c.09-.12.16-.07.2,0-.05.04-.11.09-.18.16v.05c-.02-.08-.04-.16-.03-.23h0Z"/></g></svg>