<?xml version="1.0" encoding="UTF-8"?><svg id="Layer_2" xmlns="http://www.w3.org/2000/svg" viewBox="0 0 282.37 516.18"><defs><style>.cls-1{fill:#fff;}.cls-2{fill:#a7dff1;}.cls-3{fill:#4eb6ce;}</style></defs><g id="shapes"><path class="cls-1" d="m107.64,103.56C58.08,119.74,20.71,190.49,9.73,230.28c-10.07,27.89-14.55,55.05-2.43,76.96,12.12,21.91,100.63,76.13,169.88,60.3,69.25-15.84,115.7-140.66,90.84-204.56-24.86-63.9-110.84-75.59-160.39-59.41Z"/><path class="cls-3" d="m101.13,32.41c.07-1.12-.45-.55-.71-.8-.06-1.35.39-.6.67-1.04-.07-.84-.49-1.51-.42-2.13.08-.04.12-.16.21-.01-.32-.91.18-2.63-.21-3.7.05-.07.1-.11.13-.12-.26.15-.51.15-.68.1.04-.5-.21-.96.12-1.12-.04.31.09.35.17.5l-.09-.54c.5-.44.09.73.42.76-.05-1.04-.32-2.28-.1-3.05.45-.12-.03,1.86.46.84l-.28,1.2c.79-.87-.12.74.71-.05.28-1.59-.06-1.81.26-3.39-.21-.38-.38.08-.58-.3-.19-2.32,1.32-1.66.94-3.39-.24-.47-.78-.7-.32-1.85l.44.47c.27-1.54-.59-.97-.02-2.55.15.31-.01,1.24.08,1.01.55-.99-.18-.78-.05-1.59l.47-.1c.08-.83.14-1.7.18-2.6.05-.9.1-1.82.23-2.73.11.12.19.45.41.05.15-1.89.72-3.93,1.3-5.76l-3.33-.12c0,.45.01.88.02,1.29l.49.81c.02.2-.13.39-.23.18-.03.89.25.02.45.42.09.49-.14.68-.29.38.52,1.5,1.24,4.29,1.04,5.96l-.15-.3c0,1.28.96,1.33.75,2.54l-.1-.22c.17,2.76.9,5.73.59,7.89.6.33.09,2.73.88,2.82-.18,1.61-.38,1.17-.36,3.4.04.59.59.82.76,1.54l-.4.06.55.94-.42.58.19.67c0-.27.11-.6.23-.57.31,1.04.04,2.63-.16,2.68l.66,2.48c-.17-.04-.28-.45-.42-.77.58,1.3-.39.29.14,1.48.07-.18.25.06.34.08-.17.64,0,2.04.24,3.06l-.3-.17c.16,1.87.62,3.92.88,6.02.03-.77.54-.65.66-.04l-.39.29c.31.37.08-.66.5.12.05.79-.42.58-.61.15l.27.94c-.12.07-.21-.15-.39-.18.31.36-.22,1.69.31,2.2l-.12.07c.26,2.09.52,3.03.76,4.73.37,0,.37.67.73,1.14.1,1.73-.21,1.55-.13,2.01.13.26.22.43.32.55.1.13.2.23.35.52-.18-.22-.25-.22-.32-.24-.08-.01-.14-.06-.32-.46.06.26.1.45.17.72.1.38.2.79.37,1.42.02.06.01.09,0,.11.25.61.43.99.56,1.37-.03,0-.15-.25-.29-.56-.14-.31-.28-.68-.37-.96l-.02-.09c.01.21-.14,0-.32-.34-.18-.34-.39-.79-.54-1.17-.2-.51-.3-.9-.36-1.09-.03-.1-.06-.15-.11-.18-.03-.02-.06-.03-.1-.04-.05-.02-.07.02-.22-.12l.1.08c-.51-.54-1.04-1.06-1.57-1.59-.54-.85.56.35.3-.36-.92-.81-1.45-1.58-1.93-2.31-.49-.73-.92-1.44-1.66-2.11-.1-1.76-3.29-4.21-4.07-6.15l-.11.22c-.51-.28-.29-.57-.49-.91-.11.15.19.57-.11.39-3.01-3.31-5.6-7.3-8.51-10.85-1.08-1.29-1.56.05-2.56-1.86l.73.17c-1.34-1.09-2.52-2.35-3.7-3.6l-.77-.81c-.06-.07-.13-.13-.2-.19-.16-.13-.35-.26-.75-.51.24.11.5.19.54.23.12.02.18.02.18,0,0,0-.01-.02-.04-.04-.01-.01,0-.02-.03-.04-.07-.06-.18-.2-.37-.31.2.03.39.22.63.34.17.09.08,0,.09-.09,0-.08.09-.15.17,0,.03.05,0,.1,0,.12,0-.04.02-.05.05-.06.01,0,.03,0,.05,0,.01,0,0,0,.04,0,.06,0,.11,0,.17,0,.43-.02.74-.07.52-.24,1.27.15,2.42-.19,3.43.02.66-.39,2.17.17,2.38-.37-.09.56,2.22.45,3.02.18-.27.17.69.17.38.41.91,0,1.75-.11,1.59-.4,1.68.68,3.39-.53,4.33.34,2.72-.28,5.23-.45,7.68-.55-.1.56-2.7.02-2.61.61,2.32-.2,3.67-.66,5.96-.47.59.09-.35.24-.55.33,2.32-.18,4.47.16,6.54-.09,0,.05-.23.1-.44.14.41,0,.94.11.9-.15l-.4.06c-.64-.39,1.64-.72,1.72-.92-.72.71,2.03.25.9,1.14.27-.04.61-.15.55-.32.39.07.52.17.11.35,1.46-.09.95-.38,2.27-.32,0,.12-.28.16-.42.3.68-.22,1.36-.44,2.46-.29-.07.07.06.17-.27.16,1.91.05,3.29-.51,5.37-.17-.65.51.7.21.79.68l1.14-.08-.44-.25c.99.05,1.88-.24,2.72-.04l-.74.15h1.86s-1.04-.22-1.04-.22c1.01-.19-.07-.6,1.24-.4-.27.03.99.05,1.49.36.25-.06.51-.12.77-.15.24-.03.52-.03.79.05.03.07-.07.2-.17.32-.1.12-.19.23-.18.28.23-.18.64-.18,1.06-.19.43,0,.87-.01,1.53-.18-.35.07-.81.3-.87.34.28-.09.59-.17.91-.26.12.11.03.15-.47.32.32.05.65-.08.92-.19.25-.11.5-.19.76-.05-.17.02-.27.06-.58.08.26.12,1.47-.02.72.3-.32.22-.72.5-1.37.75-1.28.16.44-.37-.82-.14-.16.11-.28.23-.43.37-.19.17-.41.37-.67.57-.26.21-.56.44-.9.65l-.25.16-.29.17c-.23.13-.46.26-.7.37l.37-.15c.1.71-1.53.47-2.28,1.26.2-.17.1-.48.08-.38-1.31.6-2.46,1.58-4.23,2.82l.14-.28c-.81.29-1.97,1.03-2.8,1.41-.14.28-.61.52-.2.57-2.96.58-4.33,3.13-6.91,3.72.25-.15.53-.49.32-.37l-1.73,1.22c.31.16.34,0,.84-.03-.13.28-.57.7-1.02.97.71-.65-.27-.39-.71-.31.11.04.04.19.12.25-1.24.14.17.59-1.32,1.07l-.02-.17c-.44.36-.77.8-1.31,1.08-.41-.15.42-.44.3-.69-.72.46-1.08,1.41-1.93,1.54.26-.27.7-.54.96-.81-.94.11-.97.24-1.54.52l.06-.03-1.33.61.38-.1c-.41,1.29-1.76,1.28-2.66,2.52.87-1.2.02-.38-.11-.76-.37.11-.91.31-.84.13-.4.62-1.1.41-1.65,1.29-.11-.08-.62.38-.67.04-.69.55.3.06.33.23-.91,1.08-3,1.3-4.32,2.84-1.28,1.11-1.3,1.62-2.49,2.65-.56.13.1-.6.1-.6-.82.32-1.34.7-1.93,1.26.07-.18-.12-.16-.41-.14-.52.38-.1.6-.91.92.04-.19.07-.47.24-.76-.57.51-1.06,1.11-1.65,1.64-.3-.06.2-.53.35-.79-.68.57-1.8,1.43-1.82,1.86l.55-.22c-.26.19-.31-.15-.15-.32.47-.64.98-.51,1.09-.44l-.42.38c.91.27,1.8-1.35,2.77-1.93l-.08.69.71-.99c.29-.03.6.12.18.49.83-.23.49-.54,1.24-.69.09,0,.07.03.03.09l.57-.56c-.07.18.33.23-.12.44,1.36-.53,1.69-1.57,2.37-1.54l-.08.09c1.55-1.22-.07-.42.91-1.59l1.39.25-.06-.42c.18-.1.53-.29.56-.12.49-.62-.21-.07.02-.51,1.03-.24,2.18-1.59,2.72-1.19.13-.43-.92.31-.15-.41.63.39.96-.74,1.89-.96-.04.43-.86.73.07.5.13-.76,1.55-.81,2.12-1.31-.23-.4,1.28-1.02,2.28-1.81.02.17,2.17-1.03,3.27-1.51v.08c-.05-.5,1.04-1.06,1.74-1.59.12.25.05.42-.29.77l.71-.43c.09-.22.27-.42.7-.74v.4c.95-.58,1.7-1.48,3.05-2.01-.11-.31-1.47-.18-.29-1.13.14.12.35.34.05.6.1-.08.31-.36.58-.42l-.36.55c.63-.22.16-.38.62-.62.13.22.43-.05.47.16-.1.09-.45.14-.56.32.53-.26,1.22-.49,1.53-.45-.12-.1-.18-.28.17-.52.95-.58.49.06,1.11-.15.14-.28.84-.49.66-.81.28-.16.43-.04.59-.02.41-.42,2.29-1.37,1.52-1.39l-.14.05s.05-.04.07-.06c1.43-1.25,3.5-1.75,5.04-2.8l.06.11c.9-.66,2.12-1.28,2.67-1.89.28-.15.91-.24.87-.05.44-.3.64-.47.92-.65.28-.18.63-.35,1.45-.68-.66.61.6-.11-.79.61,1.38-.63,2.1-.79,2.89-1.62.07.15.52.02,1.07-.22.54-.24,1.14-.57,1.37-.75l-1.56.58c.62-.39,1.32-.74,2.05-1.11.29,0,.57,0,.84.02.58-.25,1.09-.48,1.53-.71.22-.11.42-.22.6-.32l.26-.15.12-.07s.13-.06.02-.05c-1.03-.02-2.15,0-3.14.03-.99.02-1.85.05-2.53,0-.68-.04-1.16-.15-1.56-.38-.69.1-.26.18.12.26.39.08.73.17.04.3-.65-.07-1.15-.26-1.68-.45-.51-.19-1.02-.37-1.3-.39-.58-.09-1.04-.11-1.41-.09-.09,0-.18.01-.26.03-.09,0-.11.02-.16.04-.09.03-.18.06-.27.1-.35.14-.72.29-1.47.17.18.16.34.56-.79.64-1.05-.11-1.26-.69-.59-.77.25,0,.37.05.36.1.35-.04.8-.07.39-.26l-.14.14c-.51-.18-1.96-.24-1.61-.47-.8.1-.35.22.23.33-1.34-.29-2.11-.11-3.5-.32.22.09.41.27.19.26-2.04-.28-.91.24-2.3.24-.78-.26.31-.53-1.1-.4-.84-.19-.16-.4.18-.51-1.28.23-2.37-.29-3.09-.37l.68-.09c-.4.05-.73.04-1.07.03l.37.31c-.39-.07-.72-.08-.71-.2-.42.18.29.5-.52.74-.52-.17-1.6.1-1.76-.3,1.64.2-.17-.4,1.23-.41-.27.04-.6.03-.99-.04-.06-.05.06-.08.17-.1-1.56-.41-.74.42-2.38.35.21-.22-.36-.43-.63-.39.66.03.3.38-.31.53-1.04-.2-1.14.09-1.69.05l.62.1c-.22.22-.74.17-1.48.22-.06-.17.67-.1.41-.18-.82.37-1.82-.45-2.96-.22-.52-.16-.04-.42-.5-.53-1.28.26-1.37-.33-2.7-.12.38.3.44.23-.5.5l2.2-.16-1.42.4c.66.02,1.4-.16,1.8-.1-.68.23-.6.16-.3.41-.9-.47-1.8.22-2.83-.1l.05-.74c-1.57-.36-2.8.33-4.84.12l.65.14c-.28.29-1.26.03-1.92.14.07-.25-.35-.34-.63-.5.03.18-1.49-.03-1.69.46l-.91-.33c-1.65-.14-1.89.69-3.47.6.48-.27-.24-.45.82-.63-.53,0-1-.05-1.01.12-.31-.15-1.47.33-1.95.1-.22.11-.3.37-.89.35-.07-.05,0-.12,0-.12,0,.12-.93.17-.41.44-1.63-.77-4.55.07-5.98-.57-.58.05-1.21.1-1.83.13-.16,0-.31.02-.46.03-.2,0-.39.02-.58.03-.4.02-.79.03-1.15.04.05-.07-.07-.12.23-.1-1.11-.1-1.31.08-1.43.26-.07.09-.13.17-.3.22-.18.05-.47.07-1.07.01-.87-.18-.73-.24-.41-.27.3-.03.72-.03.25-.1-.78-.39-1.57-.35-2.35-.27-.1.01-.19.02-.29.03l-.15.02s-.07,0-.06.02l.08.07c.21.18.4.36.57.53.35.34.59.64.66.88l-.38-.32c.19.39.94,1.04,1.7,1.67.78.64,1.57,1.25,2.21,1.96,0,0-.13-.03-.11.07.18.11.28.15.42.22.13.07.26.15.4.24.27.17.56.38.84.6.57.45,1.13.96,1.62,1.39-.52-.08-.53-.32-.62.08.43.39.29-.47,1.15.31.12.39.57,1.1.37,1.41l-.75-.79c.03.7.96,1.03,1.29,1.5l-.21.07c1.17,1.19,1.58.88,2.74,2.24v-.23c1.04.42.32.79,1.26,1.29l-.21.54c.52.41,1.87,1.4,2.7,2.23-.72-.28-1.76-1.17-2.49-1.67.42.49,1.45,1.61,1.87,1.72-.21-.17-.52-.34-.62-.57.83.35,1.65,1.02,2.46,2-.92.42,1.92,2.71,1.88,3.88,1.7,1.54,2.65,3.57,4.28,5.61.07-1.17.48.6,1.03.02.41.46.54.65.53.72.25.58.48,1.16.71,1.74.07.48-.49-.37-.6-.23.74,1.11.05.64.4,1.46.13-.3.61.15.97.82l-.33-1.06c1.46,1.27.39,1.67,1.83,2.96l-.56-.35c.17.18.39.44.62.75.25.32.52.68.8,1.04.49.66.99,1.29,1.43,1.79.44.51.81.86,1.06.95.13.35.34,1.04-.11.49.67,1.04,1.4,2.08,2.08,2.98.25-.07.49-.14.73-.18.19-.02.3.02.46.06.3.1.61.33.87.5.03-.02.06-.09.09-.12,0,.04-.01.09-.02.12.06-.08.1-.19.13-.3.03-.11.07-.24.17-.28.03.08.04.21.1.15.02-.06.06-.24.1-.44.04-.2.09-.43.21-.47.03.17.04.34.05.48.27-.13.46-.3.53-.61-.23-1.24-.52-2.4-.79-3.44-.27-1.05-.52-1.97-.68-2.92.15.04.26-.08.32-.35.03-.13.06-.3.07-.5,0-.1.01-.2.02-.31,0-.05,0-.12,0-.15v-.1c.07-.56.07-1.22.06-1.65l.08.02c-.25-2.58-1.02-4.3-1.54-6.65.44-1.54-.36-5.03-.31-7.44-.06.37-.45,0-.56-.43.05-.57-.59-1.49-.05-1.46v.2c.48-.48.2-1.61.1-2.5l-.71-.07c.71-2.45-1.13-6.08-.4-7.45-.24-.55-.33-1.24-.57-1.78h.37c-.1-1.59-.15-2.37-.48-4.29l.31.36c-.11-1.09-1.24-1.25-1.38-2.26l.51-.37c-.24-1.9,0-3.87-.74-5.7.08.02.25.06.31.37-.1-.89-.06-3.5-.77-3.09.49-.08-.2-1.96-.54-2.97l.39.12c-.57-.81-.7-.83-.98-2.02.01-.29.26-.28.21.11.07-.98-.44-.7-.39-1.89l.28.4c-.1-.99-.21-.89-.55-1.4-.19-.52-.16-1.52.05-1.91l-1.92-.07c-.06.06-.11.09-.16.1.17.17.33.75.12,1.31-.14.05-.17-.17-.19-.28-.57,1.59-.08,2.5-.63,3.56-.12,0-.2.07-.25.15.24-1.3.48-2.34.49-2.24-.33-.06-.6.98-.89.06.07.89.37,2.43.02,3.43-.04.05-.08.09-.14.12l-.02-.11c-.08.23-.08.45-.06.66-.12.32-.19.52-.25.84-.3.08-.35,1.19-.45,1.71.37.01.2.69.61.09-.04.08-.03-.1.02-.46,0-.08.01-.17,0-.23,0,.01.02.03.03.04.05-.35.12-.8.19-1.31.12.45.2.9-.1,1.45.19.3.38.64.47.82-.63.64-1.11,1.99-1.45,2.14-.05,1.64-.41,3.82.16,4.91.03.47-.27.5-.4.66-.03-.27.02-.59-.06-.74.04.94-.25,2.73.2,2.99-.35,1.13-.37-.69-.47.9l-.12-.23c-.56,1.53-.36,2.83-.21,4.17.17,1.34.31,2.71-.3,4.42.07-.24.11-.35.2-.4-.71,3.95-.02,8.18-.76,12.08-.15,1.12.16,1.24.39,1.91l-.4.24.47,1.16c.17.82-.06,1.54-.26,2.31-.19.77-.33,1.6,0,2.64l.26-.28c-.04.75.23,2.36-.07,2.25.05.08.29.24.16.53l-.21.03.43,1.82c-.07,1.43-.84-.18-.75,1.9.13.77.73,2.17.86,1.87,0-.31.08-.8.29-.84l.15.7c.62.09,1.27.59,1.59-1.16l-.44-1.18.27-.4.08,1.01c.24-.59-.03-.94-.22-1.33.15-.1.25-.28.3-.52l-.63-1.15c.23-.15.5.51.6-.29-.29-.54-.51.55-.73-.35.25-.59.49-.43.22-1.09.15-.1.26.04.34.3-.22-.59-.14-1.58-.47-1.88.33-.61-.14-2.02.44-1.97-.15-.18-.48-1.05-.5-1.6.7,1,.02-2.06.77-1.8-.64-.74-.26-2.68-.6-4,.05.07.15.22.11.34.06-.74.25-.95.39-1.43-.51-.1-.6-1.26-.9-1.9.52-.9.59.57,1.07.29-.42.03-.37-1.59-.72-1.29.34-.69.18-.6.62-.94-.64-.15-.08-.65-.45-1.25.36-.99.61-.23.47-1.34.23-.52.4.47.4.47v-.02Zm1.91-26.22h0c-.03.22-.06.42-.08.54.01-.11.04-.27.07-.54Zm.39-2.18c-.06.26-.13.6-.19.94-.14.05-.25-.05-.21-.27.06.13.23-.37.39-.67h0Zm-3.35,4.23c0-.36.1-.47.18-.5-.02.17-.04.36-.06.62.01.01.02.04.04.05-.07-.05-.12-.09-.16-.17h0Z"/><path class="cls-2" d="m173.72,42.34c.03.42.74.1,1.18.13.27.46-.52.3-.87.51.24.28.94.43.94.66-.12.03-.16.08-.32.05.63.25.15.96.93,1.24-.06.03-.12.06-.17.07.36-.11.74-.17,1.01-.19.03.18.51.28.03.41,0-.11-.19-.1-.36-.14l.24.17c-.67.26-.27-.24-.79-.17.28.35.9.71.75,1.03-.67.15-.32-.64-.87-.18l.2-.48c-1.03.48.04-.28-1.07.18-.12.61.43.61.31,1.22.4.08.55-.11.95-.03.79.75-1.62.88-.64,1.37.47.1,1.33.05.94.54l-.79-.05c0,.58,1.15.18.71.84-.32-.07-.32-.41-.4-.32-.56.46.47.21.51.51l-.67.15c.19.59.77,1.19.98,1.85-.21,0-.44-.09-.62.09.45.8.15,1.81-.13,2.68l.63.23c0,.07-.25.17-.37.11-.18.35.38-.03.62.09.07.18-.3.28-.5.19.57.49,1.29,1.44.74,2.12l-.19-.09c-.18.49,1.27.35.78.85l-.11-.07c-.11,1.03.57,2.05-.2,2.94.87.03-.24,1.04.95.93-.5.65-.73.52-1.01,1.38-.02.22.78.21.94.46l-.61.09.7.27-.7.29.19.23c.02-.11.25-.25.42-.26.34.35-.29,1.01-.6,1.06l.65.84c-.25.01-.36-.13-.53-.22.7.4-.63.18,0,.55.13-.08.37-.02.5-.03-.34.28-.26.79-.05,1.14h-.44c0,.68.42,1.39.52,2.15.15-.3.9-.35,1-.13l-.63.19c.42.09.21-.27.74-.05-.03.3-.71.3-.95.17l.27.32c-.19.05-.3-.01-.56,0,.42.08-.56.7.17.79l-.19.05c.11.76.38,1.07.51,1.69.56-.07.48.19.95.3-.11.48-.47,1.05-.34,1.6.34.34.49.04.85.16-.5.11-.37.65-.78.42.19.64.24.82.78,1.6.19-.12.27-.24.45-.22.11.14-.16.38-.41.4l-.06-.03c.91.81-1.15,2.4.03,2.97l-.06-.03.68.68c-.03.37-.42-.15-.69.16.99.7.09,1.34.76,1.93-1.42.77.41,1.87-.43,2.74l.35-.1c.38.13-.17.25-.23.41.27-.07.28-.26.5-.17.68,1.5.03,3.31-.03,4.98,0,.6,1.89.03,1.17.91l-.69-.1c.99,1.05.38,2.43,1.25,3.48-.16-.04-.36-.01-.38-.13-.44.33.13.91.52.85-.01.19-.34.1-.52.25-.24.3.72.51.26.73-.07.03-.17-.04-.21-.08.26.12.07.76.59.51-.19.48.39.79.12,1.19.65.12-.17.8.71.72-.9.13-.59.89-.12,1.09-.29-.05-.24.29-.63.25.07.31.29.57.74.43-.97.77,1.07,1.01-.24,1.58.65.85,1.13,1.65,1.49,2.45-.9.13-.26-.91-1.19-.71.51.73,1.36,1.05,1.29,1.87-.09.23-.41-.05-.57-.09.51.73.2,1.55.82,2.17-.08.01-.19-.05-.27-.11.05.13-.07.35.33.25l-.14-.11c.55-.33,1.34.32,1.65.3-1.21-.02-.16.75-1.7.65.09.08.31.15.58.09-.05.15-.2.22-.54.14.32.46.71.2.79.65-.19.03-.29-.04-.53-.05.42.15.85.32.76.72-.12,0-.27.07-.29-.04.18.65,1.23.93.99,1.71-.89-.05-.24.29-.97.48l.29.34.33-.22c.05.34.64.54.46.87l-.36-.19.26.6.21-.41c.44.27.93-.21.81.28-.09-.07.05.34-.35.6.27.12.55.25.41.53-.22.11-.83.1-.97.17.65.05.32.76,1.02.84-.17-.04-.56.03-.63.07l.53.04c-.13.19-.2.23-.52.26,0,.49.91-.33.61.31-.05-.03-.12,0-.21-.08-.1.6.52,1.02.38,1.58-.71.3-.27-.42-.86-.12.27.72,1.19,1.37,1.15,2.12l.05-.15c1.07-.11-.41.64.15.91-.09-.07-.6,0-.48,0-.07.52.46.95.93,1.64l-.29-.04c-.18.34.01.79-.05,1.13.29.04.28.23.65.04-1.34,1.27,1.18,1.68.08,2.79-.03-.1-.28-.19-.27-.11l.4.68c.44-.15.26-.15.58-.38.29.04.54.2.58.38-.37-.27-.73.15-.96.34.13-.05.3-.03.44-.07-.73.54.93-.12.49.51l-.24.02c.16.17.52.28.49.51-.51.2-.29-.15-.72-.08.09.29,1.12.38.64.75-.18-.09-.21-.27-.38-.37-.56.42-.4.42-.45.65v-.03l-.17.56.14-.16c1.45.09.4.7,1.4,1.01-.95-.31-.51.02-1.11.11-.14.16-.29.39-.46.37.53.13-.3.47.47.66-.19.05.03.26-.46.3.21.28.32-.14.56-.17.75.34-.56,1.27.48,1.76.49.5,1.16.48,1.6.95-.27.25-.73,0-.73,0-.22.36-.12.56.15.8-.18-.02-.31.07-.51.2.09.21.73,0,.51.35-.22,0-.58,0-.82-.06.23.23.64.41.87.64-.32.14-.54-.05-.78-.11.22.27.47.72,1.02.71l.15-.24c.05.11-.44.15-.56.09-.47-.17.11-.42.29-.47l.16.17c1.09-.44-.34-.74-.36-1.14h.85l-.76-.27c.19-.13.65-.28.81-.11.35-.36-.34-.19.06-.52.07-.04.11-.04.14-.02l-.3-.22c.18.02.57-.17.48.03.37-.59-.78-.66-.19-.97l.06.03c-.42-.62-.62.06-1.43-.3l1.42-.65-.62.06c0-.07.02-.22.27-.25-.47-.17-.26.1-.67.03.48-.45-.45-.88.5-1.15-.48-.03-.29.4-.68.1,1.01-.32-.26-.38.15-.79.55-.01.33.34.74-.07-.94,0,.07-.64-.15-.86-.72.13-.42-.5-.74-.89.25-.02.23-.9.4-1.36h.12c-.74.05-.69-.39-.9-.66.44-.07.62-.05.85.07l-.06-.29c-.25-.02-.39-.09-.51-.25l.56-.04c-.11-.38-.8-.64-.53-1.2-.51.07-1.33.67-1.77.22.27-.07.73-.19.87-.07-.05-.04-.26-.11-.16-.23l.5.11c.15-.26-.41-.04-.4-.23.39-.07.25-.19.56-.22.05.04-.13.19.03.23.03-.21.21-.5.49-.64-.22.06-.52.11-.6-.03-.11-.38.44-.22.6-.49-.29-.04-.05-.34-.64-.23-.02-.11.25-.19.4-.26-.29-.15-.26-.91-.83-.56l-.03.06s-.01-.02-.03-.03c-.71-.53.07-1.41-.31-2.01l.2-.04c-.3-.34-.3-.83-.77-1.02-.02-.11.3-.34.54-.34-.2-.26-.43-.26-.19-.74.4.23.28-.16.31.26.09-.42.39-.56-.22-.87.52.04.58-.41.39-.56l-.31.34c-.11-.19-.1-.38-.09-.56l.68-.03c.65-.93-1.63-1.15-.4-1.99-.5-.12-.24.48-.82.4.02-.38.89-.93.87-1.04.27-.56-1.05-.27-.9-.84-.22.11-.84.29-1.13-.05.02-.38.9-.63,1.13-.44.03.08-.03.14-.11.15.11.1.24.24.46.04h-.24c.21-.23.09-.72.5-.67-.27-.23-.41-.04-.49.18.26-.52-.13-.72.01-1.24-.12.1-.38.22-.39.15.16-.75-.5-.22-.69-.68.31-.34.87-.07.48-.48.19-.33.61-.18.83-.1-.53-.35.15-.87.19-1.13l.24.19c-.14-.11-.15-.23-.18-.34l-.44.21c.05-.15.04-.26.24-.29-.34-.08-.76.25-1.24.05.21-.22-.35-.5.26-.67-.11.6.62-.18.81.27-.09-.08-.11-.19-.05-.34.07-.03.13,0,.17.03.46-.64-.75-.11-.84-.68.36,0,.64-.26.55-.33.03.23-.56.21-.87.06.21-.41-.27-.35-.27-.54l-.09.24c-.36,0-.35-.19-.51-.42.27-.07.23.19.33.08-.67-.16.52-.74.03-1.05.21-.22.66-.14.79-.32-.54-.35.4-.56-.06-.94-.45.22-.33.22-.85-.02l.47.68-.77-.36c.03.23.38.42.33.57-.43-.16-.3-.15-.68.03.65-.44-.52-.54-.11-.98l1.17-.2c.42-.63-.77-.85-.6-1.59l-.16.26c-.48,0-.14-.42-.37-.61.4-.05.51-.21.74-.36-.29.07-.07-.52-.86-.44l.46-.4c.11-.6-1.23-.44-1.19-1.01.46.09.68-.21,1.06.1-.03-.18.01-.36-.25-.31.23-.15-.62-.41-.28-.64-.19-.05-.6,0-.6-.21.07-.03.19-.03.19-.03-.19.03-.32-.27-.73-.02,1.13-.77-.36-1.54.6-2.21-.2-.37-.41-.83-.5-1.17.12,0,.19-.03.17.04.27-.56-1.17-.11-.87-.74.58-.4.4.24.6.02,1.28-.3-.29-.64.4-1.15l.09.08c.39-.36-.61-.62-.6-1.11,0,0,.12,0,.2-.03-.71-.21-1.03-.79-1.29-1.21.53.05.3.16.8-.01-.11-.19-.81.2-1.03-.18.26-.18.44-.52.99-.64l.09.38c.68-.32-.11-.49-.02-.72l.32-.03c-.2-.57-.98-.45-1.03-1.09l-.22.11c-.83-.21.38-.36-.25-.61l.76-.24c-.23-.19-.89-.67-1.11-1.05.62.13,1,.56,1.39.8-.03-.23-.19-.76-.59-.81.09.08.3.16.2.27-.67-.18-1.03-.49-1.09-.94,1.53-.17.19-1.24,1.32-1.76-.69-.71-.01-1.62-.26-2.53-1.13.52-.08-.27-1.28-.01-.11-.2-.11-.29-.03-.32l.62-.77c.33-.21.3.16.57.1.01-.49.48-.28.76-.64-.42.13-.65-.07-.53-.36l-.5.47c-.75-.56.93-.73.18-1.29l.42.15c-.28-.31-.2-1.26-1.22-1.44.13-.08.45-.21.56-.08.02-.84-1.32-1.66-.82-2.39h.31c-.11-.13-.6-.17-.33-.4.13,0,.31.01.32-.06-.11-.07-.58-.32-.44-.55l.36.12c.27-.86-1.01-1.1-1.31-1.74.88-.13,1.06-.81,1.15-1.14h.13c-.03-.95-.97-1.48-1.44-2.28.87-.68.13-1.87.53-2.8-.14.15-.68.08-.8-.06.15-.23-.69-.47.11-.56v.07c.76-.27.49-.65.46-.98l-1.06.1c1.41-1.07-.88-2.13.42-2.8-.29-.17-.33-.42-.62-.58l.56-.07c.06-.58.09-.88-.14-1.56l.42.09c-.02-.4-1.7-.27-1.79-.62l.82-.23c-.11-.68.53-1.49-.33-2.06.13,0,.37-.02.42.09-.02-.33.4-1.34-.75-1.05.75-.11-.03-.72-.41-1.05l.56-.02c-.75-.21-.95-.2-1.21-.61.06-.11.43-.15.31,0,.24-.39-.56-.19-.33-.66l.38.11c0-.36-.19-.31-.63-.45-.26-.19.05-.7.54-.82-.32,0-.75-.15-.64-.38.19-.05.32,0,.38.04.3-.64-.76-.8-.27-1.28.18-.03.27-.07.32-.11.05.48.07.86.03.83.51-.07.55-.46,1.3-.26-.43-.25-1.34-.66-1.15-1.07.05-.03.09-.05.17-.07l.06.03c.04-.09-.02-.16-.11-.22.07-.13.12-.21.11-.33.42-.1.17-.47.17-.66-.56.09-.5-.18-.93.13.03-.03.07.03.11.15.02.03.03.06.07.07h-.05c.03.12.07.28.1.47-.3-.11-.56-.24-.28-.49-.38-.05-.76-.11-.94-.15.74-.36,1.11-.93,1.58-1.06-.39-.54-.39-1.34-1.49-1.58-.16-.15.27-.23.44-.32.12.08.11.19.28.23-.32-.29-.24-.97-.98-.95.28-.46.71.15.52-.41l.24.05c1.03-1.28-2.11-1.6-.76-3.04-.08.1-.12.15-.24.18.49-1.51-1-2.87-.11-4.41.17-.43-.31-.41-.7-.61l.59-.16-.74-.34c-.58-.53,1.35-1.21.3-1.84l-.4.15c.05-.28-.34-.82.13-.84-.08-.02-.44-.04-.24-.17l.32-.05-.62-.6c.17-.54,1.26-.07,1.23-.83-.15-.26-1.01-.68-1.21-.56,0,.11-.16.31-.48.36l-.19-.24c-.94.06-1.91-.02-2.49.68l.62.37-.44.19-.07-.36c-.4.26,0,.35.27.46-.23.06-.4.15-.48.24l.94.32c-.36.09-.74-.11-.91.21.44.15.79-.29,1.11.01-.4.26-.75.24-.36.44-.24.06-.4.03-.51-.05.32.18.19.56.7.62-.5.28.22.72-.66.81.22.04.74.3.8.5-1.1-.24.03.76-1.11.8.98.15.54.93,1.12,1.34-.08-.02-.24-.05-.19-.1-.05.28-.32.4-.48.59.79-.06,1.02.33,1.53.5-.71.42-.95-.09-1.66.11.63-.09.7.5,1.22.32-.44.31-.2.25-.83.46.99-.08.2.22.83.35-.44.43-.91.21-.56.58-.27.23-.67-.09-.67-.09v.02Zm2.93,9.36h-.01c-.03-.08-.05-.15-.06-.19.01.04.03.09.07.19h0Zm.11.81c0-.1,0-.22-.03-.35.19-.05.4-.05.4.03-.13-.03-.22.18-.37.32h0Zm3.66-2.22c.09.11,0,.18-.12.21-.02-.06-.05-.13-.09-.21h-.07c.11,0,.21,0,.29.01h0Z"/><path class="cls-2" d="m153.01,113.3c.3-.29-.4-.64-.65-1,.19-.51.56.2.95.34.07-.36-.26-1.01-.08-1.15.1.07.17.07.24.21-.21-.64.65-.74.38-1.53.07.03.12.05.17.09-.32-.21-.6-.46-.78-.66.12-.15-.1-.58.3-.29-.09.07.05.21.12.36l-.02-.29c.63.35,0,.36.37.72.1-.44-.01-1.17.33-1.25.54.42-.31.66.4.79l-.5.15c1.03.48-.24.15.81.71.56-.3.2-.73.76-1.03-.18-.36-.44-.35-.62-.71.1-1.09,1.71.7,1.49-.38-.21-.43-.8-1.07-.15-1.08l.45.64c.46-.37-.57-1.01.23-1.09.14.29-.13.51,0,.51.72.13-.12-.5.09-.73l.54.43c.35-.52.47-1.36.86-1.95.12.17.19.4.46.44.36-.87,1.35-1.28,2.23-1.58l-.2-.64c.06-.05.29.09.32.23.39-.07-.26-.28-.31-.55.1-.16.42.07.46.27.05-.76.39-1.93,1.27-1.91l.04.21c.5-.17-.48-1.24.21-1.15v.13c.92-.55,1.34-1.74,2.52-1.65-.49-.71.99-.44.21-1.33.83,0,.86.28,1.73-.01.19-.11-.28-.76-.18-1.04l.44.44-.19-.73.66.4.07-.29c-.1.05-.35-.05-.46-.19.09-.48,1-.37,1.23-.15l.31-1.04c.16.19.11.37.13.57-.08-.81.52.41.44-.34-.14-.06-.24-.29-.32-.39.43.11.81-.25.98-.63l.24.36c.58-.4.93-1.16,1.5-1.7-.34.05-.81-.53-.68-.74l.52.41c-.17-.4-.34-.01-.46-.58.27-.15.66.4.68.68l.1-.41c.15.13.16.26.32.46-.18-.4.9.05.56-.6l.15.13c.57-.54.68-.95,1.11-1.41-.38-.42-.11-.5-.28-.97.47-.19,1.15-.21,1.54-.63.1-.48-.24-.43-.34-.8.37.36.76-.06.79.41.44-.52.57-.66.92-1.56-.21-.09-.35-.09-.43-.26.06-.17.41-.08.56.11v.07c.2-1.22,2.66-.4,2.5-1.71v.07l.22-.95c.34-.18.09.44.51.49.07-1.21,1.09-.81,1.24-1.71,1.42.77,1.38-1.38,2.58-1.14l-.27-.24c-.09-.39.31,0,.47-.03-.2-.2-.37-.1-.41-.33.92-1.4,2.87-1.8,4.32-2.64.52-.32-.95-1.63.19-1.48l.27.64c.4-1.42,1.91-1.62,2.4-2.9.05.16.17.32.08.39.5.21.73-.58.48-.88.17-.09.26.24.48.32.38.05.09-.88.5-.6.07.05.05.17.03.22-.03-.29.63-.45.15-.78.52-.09.5-.74.99-.72-.22-.63.78-.27.28-.99.56.72,1.07.05,1.02-.45.1.28.38.06.53.43.24-.22.37-.53.03-.86,1.15.46.38-1.44,1.52-.57.44-.99.92-1.81,1.46-2.52.55.72-.68.68-.06,1.4.4-.81.28-1.72,1.05-2.07.24-.04.15.38.2.55.4-.81,1.29-.93,1.56-1.77.05.07.05.19.03.29.09-.11.35-.11.07-.42l-.04.17c-.56-.32-.33-1.33-.5-1.6.54,1.08.75-.21,1.38,1.2.03-.12,0-.35-.19-.55.16-.03.29.07.38.41.27-.5-.15-.72.22-1.01.12.16.09.27.2.49-.05-.46-.11-.91.31-1.02.05.11.19.2.09.27.5-.47.27-1.54,1.09-1.7.36.82.38.07.87.64l.18-.42-.35-.19c.29-.2.2-.83.59-.81l-.02.4.44-.52h-.47c.05-.52-.61-.72-.11-.85-.03.12.29-.21.71.03,0-.29-.02-.6.3-.61.2.15.46.69.6.79-.25-.6.55-.64.32-1.3.04.17.28.48.34.53l-.19-.49c.23.03.29.08.46.34.44-.22-.71-.66,0-.69-.01.06.05.11.03.23.6-.19.7-.95,1.28-1.07.58.5-.26.44.27.83.53-.58.73-1.7,1.44-2h-.16c-.56-.9.76.1.76-.52-.03.12.25.55.21.44.52-.17.68-.84,1.11-1.57l.09.28c.39.01.72-.36,1.06-.46-.09-.28.09-.36-.24-.6,1.74.66,1.05-1.83,2.54-1.3-.09.07-.07.34,0,.3l.47-.65c-.32-.34-.25-.17-.59-.37-.09-.28-.03-.58.12-.69-.1.45.44.6.71.72-.1-.1-.15-.26-.25-.37.81.44-.5-.8.27-.66l.12.22c.09-.22.05-.59.28-.67.39.38-.03.33.22.7.23-.21-.1-1.18.44-.91-.02.2-.17.31-.19.51.62.33.55.18.79.13h-.03l.59-.07-.21-.06c-.5-1.36.49-.67.38-1.72.09,1.01.22.46.55.98.21.06.48.09.53.27-.09-.54.56.07.42-.71.13.15.22-.14.46.3.17-.31-.26-.24-.38-.45,0-.84,1.42,0,1.46-1.15.28-.66,0-1.27.27-1.86.34.15.28.68.28.68.42.06.58-.11.69-.46.05.17.18.26.38.39.16-.17-.28-.68.13-.61.08.21.23.54.26.78.12-.3.13-.76.27-1.07.26.23.15.52.2.76.18-.31.5-.72.27-1.23l-.27-.04c.08-.09.32.35.3.48.02.5-.43.07-.56-.08l.09-.22c-.82-.83-.56.62-.93.8l-.34-.78.05.81c-.2-.13-.52-.48-.42-.7-.48-.17-.04.39-.51.16-.07-.04-.07-.08-.07-.13l-.09.37c-.05-.17-.38-.46-.17-.46-.7-.1-.32.99-.85.58v-.07c-.42.64.3.54.28,1.44l-1.17-1.03.29.54c-.07.03-.22.07-.34-.15.02.5.19.19.29.6-.62-.25-.65.78-1.28.03.17.46.48.09.36.58-.7-.8-.25.4-.79.19-.24-.5.18-.44-.36-.65.38.86-.63.21-.75.51.42.6-.3.6-.54,1.06-.12-.21-.93.18-1.44.22l-.06-.11c.37.64-.07.79-.24,1.1-.25-.37-.31-.54-.28-.81l-.24.18c.08.24.08.39-.03.57l-.26-.49c-.31.26-.27.99-.91,1.01.28.44,1.17.91.95,1.52-.18-.22-.48-.58-.43-.76-.01.05,0,.29-.14.25l-.1-.51c-.31-.03.13.39-.04.46-.24-.32-.28-.15-.44-.42.01-.06.23.03.19-.13-.21.07-.56.03-.81-.16.15.17.32.43.22.56-.3.26-.4-.3-.7-.33.09.28-.29.2.06.68-.09.07-.28-.14-.41-.25-.01.33-.73.64-.17,1.01h.07s0,.03-.01.04c-.19.88-1.33.57-1.72,1.18l-.12-.16c-.19.42-.64.64-.61,1.15-.09.07-.44-.12-.54-.34-.15.3-.05.5-.6.51.04-.46-.27-.18.1-.4-.42.1-.68-.09-.7.6-.2-.5-.62-.33-.68-.09l.44.12c-.13.19-.3.27-.48.35l-.32-.6c-1.15-.15-.33,2-1.66,1.3.11.5.56,0,.73.54-.36.15-1.25-.36-1.35-.3-.64.02.21,1.07-.37,1.19.2.15.64.61.46,1.03-.36.16-.98-.51-.91-.81.06-.07.14-.04.19.03.04-.14.11-.32-.17-.44l.11.22c-.3-.08-.69.25-.84-.13-.09.35.14.38.39.35-.6.02-.61.45-1.14.58.14.05.38.23.31.28-.76.22.03.56-.3.95-.44-.11-.46-.74-.66-.19-.39,0-.44-.46-.47-.68-.07.64-.85.29-1.11.38l.07-.3c-.04.18-.13.25-.23.32l.4.29c-.16.02-.25.09-.38-.06.08.34.58.56.62,1.07-.29-.07-.29.56-.73.1.6-.19-.45-.46-.12-.85-.03.12-.12.19-.29.21-.06-.04-.07-.11-.06-.17-.79-.09.24.73-.23,1.07-.16-.33-.53-.45-.56-.33.19-.14.46.4.46.74-.47.01-.19.42-.36.51l.26-.03c.16.33-.01.4-.15.66-.19-.2.07-.29-.08-.34.17.67-.92-.1-.97.48-.29-.07-.44-.51-.66-.54-.07.64-.69-.07-.82.52.41.29.36.18.39.76l.4-.76.05.86c.19-.14.2-.55.36-.58.06.46,0,.35.34.59-.71-.36-.24.73-.83.59l-.74-.93c-.77-.05-.39,1.11-1.14,1.33h.32c.22.44-.31.35-.37.65-.24-.32-.44-.34-.68-.47.19.22-.43.32.02.97l-.58-.2c-.59.21.2,1.3-.33,1.55-.14-.44-.52-.5-.42-.97-.15.11-.33.17-.15.38-.24-.12-.07.74-.44.56.05.19.29.52.11.63-.07-.05-.13-.15-.13-.15.12.15-.09.42.34.64-1.24-.58-1.19,1.11-2.26.62-.23.37-.53.78-.8,1.05-.06-.11-.13-.15-.05-.17-.63.05.49,1.07-.22,1.14-.65-.29.01-.46-.29-.53-.91-.95-.43.59-1.22.26l.02-.12c-.52-.14-.24.85-.68,1.1,0,0-.05-.1-.13-.15.17.73-.17,1.31-.4,1.76-.22-.48-.01-.35-.42-.68-.11.19.59.59.36.98-.29-.12-.68-.11-1.07-.5l.28-.29c-.62-.41-.38.36-.62.4l-.18-.26c-.4.48.11,1.09-.42,1.48l.21.13c.24.82-.52-.13-.41.54l-.6-.53c-.05.3-.13,1.13-.35,1.52-.21-.6-.03-1.15-.02-1.62-.18.15-.57.57-.4.95.02-.12-.01-.34.13-.32.19.66.11,1.14-.26,1.44-.95-1.21-1.18.51-2.23-.15-.24.98-1.4.92-2.06,1.64,1.05.67-.19.21.68,1.09-.11.21-.19.25-.26.21l-1-.09c-.36-.16-.02-.34-.22-.54-.43.26-.5-.25-.97-.28.34.28.3.58-.03.64l.68.15c-.07.95-1.14-.37-1.22.58l-.09-.44c-.11.41-.99.88-.58,1.85-.14-.06-.43-.26-.38-.43-.73.47-.69,2.07-1.59,2.07l-.15-.27c-.06.17.18.6-.17.52-.07-.1-.15-.26-.22-.23,0,.13.05.68-.23.69l-.09-.37c-.88.28-.38,1.48-.75,2.09-.6-.65-1.28-.42-1.62-.29l-.08-.1c-.78.59-.7,1.67-1.11,2.54-1.07-.32-1.65,1.01-2.67,1.24.21.02.46.52.41.69-.27.01,0,.85-.54.24l.07-.04c-.66-.46-.84-.01-1.09.21l.7.81c-1.7-.49-1.26,2.03-2.57,1.37.03.34-.16.52-.12.86l-.39-.42c-.52.31-.79.46-1.21,1.07l-.18-.4c-.32.26.78,1.54.54,1.83l-.68-.52c-.51.51-1.54.5-1.5,1.55-.08-.09-.24-.29-.18-.39-.26.22-1.33.52-.42,1.26-.54-.53-.58.48-.61.99l-.36-.44c.27.74.41.88.23,1.35-.13.03-.39-.25-.18-.25-.46.05.18.57-.34.67l-.14-.37c-.3.24-.13.35.02.79,0,.32-.6.4-1,.09.19.25.33.68.08.74-.16-.12-.19-.26-.2-.32-.71.18-.17,1.12-.87,1.04-.14-.12-.23-.17-.29-.18.35-.35.65-.61.65-.56-.37-.36-.71-.13-1-.87.05.5.28,1.49-.16,1.6-.05-.02-.09-.04-.16-.09v-.07c-.11.03-.14.12-.12.23-.15.03-.25.04-.34.12-.34-.26-.48.17-.64.29.42.38.17.5.68.65-.05,0-.02-.07.05-.19,0-.03.03-.07.01-.1,0,.01.02.03.03.05.08-.11.19-.24.32-.38.1.32.16.6-.22.54.19.33.38.67.46.83-.76-.35-1.43-.27-1.83-.56-.19.66-.84,1.17-.33,2.19-.02.22-.36-.07-.52-.13,0-.15.09-.22.01-.36-.04.44-.63.81-.15,1.38-.54.08-.33-.65-.65-.13l-.11-.21c-1.66.05.07,2.7-1.92,2.6.13,0,.19,0,.29.07-1.5.63-1.63,2.66-3.4,3.02-.44.16-.12.52-.02.95l-.51-.34.23.79c-.03.8-1.82-.21-1.62,1.02l.37.2c-.25.15-.42.82-.73.47.03.07.25.36.02.29l-.24-.21-.05.87c-.53.24-.89-.91-1.46-.37-.1.29.13,1.23.37,1.29.09-.07.35-.09.59.11l-.05.31c.66.66,1.25,1.45,2.17,1.41l-.13-.72.44.19-.24.3c.46.13.27-.23.18-.51.2.13.37.2.5.19l-.37-.93c.31.21.41.63.76.55-.17-.43-.75-.4-.72-.84.46.13.68.4.58-.03.2.13.28.28.29.42-.07-.36.31-.52.01-.94.54.19.41-.65,1.05-.04-.11-.2-.25-.76-.14-.94.53.99.56-.53,1.34.31-.52-.85.36-1.03.3-1.76.04.07.11.22.05.22.25-.15.51-.02.76-.03-.56-.56-.4-1-.59-1.5.79.27.54.78,1.15,1.19-.48-.42-.07-.87-.54-1.14.52.13.32,0,.89.34-.69-.71.04-.29-.25-.86.61.05.74.56.8.05.36.06.36.57.36.57l-.05.06Zm5.54-8.32h0c-.05.08-.09.13-.12.17.02-.03.05-.09.11-.17h0Zm.57-.6c-.09.06-.18.15-.27.24-.16-.11-.28-.28-.21-.33.06.12.28.06.48.09Zm-4.03-1.46c.03-.15.15-.11.24-.04-.03.05-.07.12-.11.22.01.02.03.04.04.06-.07-.09-.13-.17-.17-.24Z"/><path class="cls-2" d="m142.3,67.29c.27.08.3-.68.46-1.07.38-.12.02.57.03.97.25-.14.58-.75.73-.68-.02.12,0,.17-.08.31.38-.51.65.15,1.11-.49,0,.07,0,.13-.02.19.06-.37.16-.74.25-.99.13.03.37-.38.28.1-.07-.04-.13.15-.21.28l.19-.16c-.08.71-.25.17-.4.67.32-.14.79-.61.93-.36-.16.67-.53.08-.44.74l-.23-.34c-.08,1.1-.16-.13-.28,1.04.34.3.54-.2.87.11.2-.34.14-.54.35-.88.78-.46-.09,1.77.6,1.05.26-.39.58-1.2.72-.66l-.35.7c.35.2.58-.98.81-.34-.18.26-.39.13-.36.24.05.67.33-.35.53-.27l-.19.66c.44.05,1.06-.26,1.56-.2-.1.18-.25.35-.22.59.69-.11,1.18.55,1.57,1.14l.43-.46s0,.28-.11.37c.13.3.15-.34.34-.52.13.01.03.38-.11.51.56-.32,1.48-.56,1.64.19l-.15.13c.21.35.82-.97.89-.34l-.09.07c.57.52,1.53.34,1.69,1.38.43-.74.52.63,1.03-.44.15.71-.04.85.34,1.45.12.11.51-.59.74-.62l-.24.57.5-.5-.17.74.23-.07c-.05-.06-.03-.32.05-.48.38-.14.46.68.34.97l.82-.22c-.11.22-.25.26-.4.37.58-.44-.2.62.33.22.01-.15.17-.33.23-.44,0,.41.34.56.66.53l-.22.37c.42.3,1.05.23,1.56.47-.1-.26.24-.93.42-.92l-.21.62c.26-.33-.05-.29.34-.66.16.15-.17.74-.37.89l.32-.11c-.07.19-.16.25-.27.48.26-.33.13.78.56.19l-.07.18c.51.23.83.13,1.26.29.24-.51.35-.33.67-.69.24.3.39.86.78.98.38-.14.27-.4.53-.66-.19.48.19.6-.15.85.48.13.6.16,1.34.03.03-.22,0-.34.11-.48.13-.03.14.3.03.52l-.05.03c.95-.42.82,2.02,1.76,1.28l-.05.03.75-.27c.2.19-.3.29-.26.66.92-.52.83.52,1.52.21-.29,1.54,1.3.49,1.37,1.6l.13-.34c.28-.26.06.26.11.38.11-.26,0-.36.16-.5,1.23.11,1.93,1.49,2.85,2.29.35.27,1.03-1.56,1.15-.56l-.43.53c1.13-.34,1.6.8,2.66.57-.11.11-.2.3-.27.26-.05.52.59.32.76-.04.1.1-.13.34-.14.55.03.34.68-.35.56.12-.02.08-.11.12-.16.13.21-.16.47.3.61-.26.17.38.66.05.74.46.43-.48.36.51.8-.26-.42.81.18.91.55.62-.18.21.03.34-.21.64.21.09.48.03.65-.4-.11,1.17,1.16-.4.75.96.83-.13,1.56-.14,2.2-.05-.43.8-.65-.23-1.06.63.69-.07,1.35-.61,1.76-.15.08.18-.26.31-.37.43.69-.07.97.59,1.66.39-.04.07-.13.13-.21.17.11.02.16.23.33-.15l-.14.05c.13-.61.94-.93,1.1-1.2-.7.97.32.5-.61,1.71.09-.04.26-.18.38-.43.05.12,0,.28-.23.51.43-.03.52-.48.81-.31-.09.17-.19.21-.33.41.33-.27.66-.54.83-.26-.07.1-.11.26-.19.21.46.17,1.21-.54,1.51.04-.54.7.03.34-.29,1.01l.36-.07.07-.38c.21.13.66-.26.74.06l-.31.19.48.09-.1-.38c.4-.23.42-.85.62-.52-.09.03.21.13.13.58.22-.15.45-.32.53-.06-.07.24-.42.72-.47.87.4-.5.6.12,1.05-.4-.12.11-.31.46-.33.54l.33-.4c.03.2,0,.27-.16.54.27.25.35-.89.52-.34-.05.02-.07.09-.17.13.27.38.87.09,1.09.5-.26.72-.38,0-.57.63.55.13,1.44-.26,1.82.15l-.05-.12c.57-.91.1.65.58.34-.09.04-.36.48-.29.38.24.32.79.13,1.43.09l-.19.21c.07.32.43.4.58.62.2-.21.29-.11.41-.5-.12,1.72,1.6-.07,1.54,1.38-.07-.03-.27.12-.22.15l.6.04c.19-.43.07-.28.15-.65.19-.21.43-.32.55-.26-.36.15-.36.66-.39.93.05-.13.16-.26.22-.38-.15.86.5-.8.56-.12l-.13.2c.19-.04.46-.25.56-.12-.2.5-.26.15-.48.53.21.08.87-.68.79-.11-.15.09-.27.02-.43.11-.11.66-.02.53.07.7v-.02l.18.43v-.2c.93-1.09.61.05,1.38-.57-.74.58-.29.41-.62.93,0,.19.03.43-.09.56.4-.34.07.48.63-.03-.09.18.15.11-.12.52.28-.03.12-.32.26-.53.64-.42.32,1.11,1.21.56.56-.11.96-.65,1.48-.74-.03.34-.45.56-.45.56.05.36.21.4.51.3-.12.13-.15.27-.21.5.17.04.45-.56.5-.21-.14.17-.36.45-.54.6.26-.06.61-.28.87-.34-.12.32-.36.39-.54.55.27-.02.66.02.99-.41l-.03-.24c.09.02-.19.42-.29.48-.38.28-.15-.3-.06-.48l.19-.04c.44-1.07-.6-.13-.82-.33l.52-.66-.6.46c.05-.22.25-.65.44-.68.02-.46-.31.17-.24-.32.02-.07.05-.1.08-.12l-.3.11c.12-.14.26-.53.31-.36-.08-.6-.82.26-.63-.37l.05-.03c-.58,0-.34.51-1.03.95l.52-1.45-.34.51s-.1-.13.03-.34c-.38.27-.1.25-.4.54.05-.61-.74-.11-.31-.99-.31.36.03.43-.36.58.45-.96-.36,0-.32-.53.33-.44.38-.08.42-.62-.57.73-.3-.4-.55-.34-.36.64-.52.06-.92.11.14-.21-.34-.65-.48-1.03l.07-.1c-.41.62-.62.34-.89.37.22-.38.34-.52.54-.63l-.19-.1c-.16.18-.28.26-.44.27l.32-.46c-.27-.11-.82.3-.96-.21-.27.44-.44,1.4-.94,1.52.12-.25.33-.68.48-.72-.05.01-.21.15-.21,0l.36-.34c-.05-.26-.27.3-.36.2.19-.35.05-.3.21-.56.05-.02.02.2.14.09-.1-.13-.15-.43-.05-.73-.09.21-.25.47-.38.46-.26-.11.14-.47.09-.72-.19.21-.21-.13-.5.39-.07-.04.05-.29.09-.45-.26.16-.64-.26-.8.37v.05s0,0-.02.01c-.71.29-.72-.77-1.27-.78l.09-.18c-.36.06-.62-.19-1.01.09-.07-.04,0-.42.14-.6-.26.03-.39.22-.52-.23.36-.2.08-.31.32-.11-.17-.29-.08-.6-.6-.26.33-.4.11-.66-.08-.6v.42c-.17,0-.26-.11-.36-.21l.38-.56c-.13-.99-1.58.73-1.33-.68-.36.34.13.44-.26.86-.2-.21,0-1.19-.07-1.23-.15-.5-.76.7-.98.3-.07.23-.32.82-.68.88-.19-.2.17-1.04.41-1.13.07.01.06.09.02.16.12-.04.27-.07.29-.35l-.14.19c0-.28-.34-.42-.09-.73-.29.11-.26.31-.18.49-.15-.46-.48-.25-.68-.63-.01.14-.09.42-.14.39-.32-.5-.42.29-.77.23,0-.42.46-.74,0-.63-.08-.32.26-.58.42-.72-.5.26-.4-.55-.52-.71l.24-.09c-.14.05-.21.01-.29-.03l-.13.47c-.05-.12-.13-.16-.03-.34-.24.23-.3.74-.67,1.03,0-.27-.48.05-.23-.54.28.38.25-.59.61-.52-.09.03-.17,0-.22-.13.02-.07.07-.11.11-.13-.1-.69-.5.55-.86.35.21-.29.22-.64.13-.61.15.08-.2.56-.46.74-.11-.37-.36.05-.46-.04l.08.19c-.21.29-.31.19-.52.21.11-.25.24-.09.24-.24-.47.46-.12-.79-.57-.54,0-.28.3-.6.26-.81-.5.27-.09-.6-.56-.41-.13.47-.06.38-.49.68l.65-.05-.64.46c.15.08.46-.11.5.01-.33.27-.26.18-.37.56.12-.75-.6.17-.61-.39l.54-1.05c-.12-.66-.91.22-1.24-.28l.05.26c-.27.39-.32-.09-.55.01.2-.35.16-.52.21-.78-.13.27-.33-.2-.73.49l.03-.57c-.28-.38-.93.8-1.24.5.3-.33.26-.66.64-.82-.12-.07-.19-.18-.32.06.04-.25-.57.31-.52-.08-.13.13-.33.5-.45.4.02-.08.09-.17.09-.17-.09.17-.33.13-.41.58.18-1.29-1.08-.43-.93-1.54-.32-.01-.7-.05-.95-.14.07-.1.09-.18.11-.12-.17-.5-.71.93-.9.37.09-.67.35-.22.34-.49.52-1.2-.53-.06-.45-.87l.09-.04c0-.5-.69.21-.97-.02,0,0,.07-.09.09-.17-.51.5-1.01.5-1.4.52.32-.42.25-.18.42-.67-.17,0-.32.77-.66.77.03-.29-.05-.61.16-1.12l.27.09c.18-.71-.34-.14-.42-.32l.15-.27c-.44-.1-.79.61-1.19.36l-.06.24c-.57.6,0-.49-.48-.07l.28-.75c-.24.1-.87.44-1.21.44.41-.46.86-.58,1.21-.8-.15-.08-.54-.19-.79.13.09-.04.26-.18.26-.04-.46.48-.83.64-1.13.48.71-1.37-.62-.73-.33-1.91-.78.26-.96-.72-1.63-.93-.28,1.19-.19-.05-.68,1.08-.18,0-.23-.04-.21-.12l-.13-.87c.05-.38.25-.18.36-.44-.28-.24.09-.54.01-.93-.14.42-.38.52-.49.28l.02.64c-.72.39.05-1.11-.68-.74l.3-.29c-.33.1-.85-.4-1.49.39.02-.15.11-.48.24-.51-.5-.39-1.67.39-1.85-.36l.17-.26c-.14.03-.42.43-.42.1.06-.11.17-.26.13-.29-.1.07-.49.36-.56.13l.25-.25c-.38-.6-1.17.37-1.71.36.36-.81.05-1.26-.1-1.49l.06-.11c-.59-.38-1.38.19-2.1.25.03-1.04-1.07-.92-1.44-1.66.03.19-.3.62-.43.66-.07-.23-.62.4-.28-.34l.04.03c.21-.78-.16-.7-.36-.82l-.46.96c.04-1.67-1.74-.14-1.5-1.54-.25.18-.42.11-.66.29l.24-.52c-.33-.3-.5-.45-1.03-.53l.26-.34c-.26-.15-.99,1.37-1.25,1.29l.26-.81c-.48-.19-.66-1.08-1.43-.57.05-.11.17-.34.25-.33-.21-.11-.64-.89-1.01.22.29-.71-.46-.28-.85-.07l.26-.5c-.49.57-.57.75-.95.81-.05-.09.11-.44.15-.27-.13-.37-.39.42-.56.02l.24-.29c-.23-.14-.28.05-.58.38-.24.15-.42-.32-.27-.81-.15.27-.44.6-.53.41.05-.19.15-.28.2-.32-.28-.52-.85.36-.95-.26.06-.18.07-.27.07-.33.33.14.58.28.54.3.19-.48-.05-.67.42-1.26-.36.28-1.03.93-1.21.6,0-.05,0-.1.03-.18l.05-.05c-.04-.07-.11-.05-.19.01-.05-.11-.09-.19-.17-.23.12-.42-.24-.34-.36-.4-.18.54-.33.38-.32.89,0-.05.05-.05.15-.04.03,0,.05,0,.08-.03l-.03.04c.09.01.21.05.35.09-.21.23-.4.42-.44.07-.19.32-.4.64-.5.79.09-.8-.13-1.34-.01-1.82-.52.15-1.07-.15-1.67.77-.16.09-.04-.33-.03-.51.1-.08.18-.03.27-.17-.32.17-.74-.13-1.03.56-.2-.42.38-.6-.07-.62l.13-.2c-.49-1.4-1.87,1.41-2.36-.3.04.11.06.16.04.28-.89-.94-2.29.07-3.14-1.16-.27-.27-.38.19-.62.52l.03-.61-.43.64c-.51.45-.57-1.6-1.27-.7l.03.42c-.19-.1-.67.17-.59-.29-.03.07-.11.42-.17.19l.03-.32c-.19.16-.37.32-.55.5-.38-.26.16-1.26-.42-1.36-.23.11-.67.89-.59,1.11.09.02.21.22.2.53l-.19.16c-.08.93-.24,1.89.15,2.56l.33-.55.07.46h-.25c.11.45.23.08.35-.17,0,.24.03.42.09.51l.36-.87c0,.37-.19.71-.01.93.17-.4-.06-.83.19-1.08.11.44.03.78.24.44,0,.24-.05.39-.13.49.18-.28.4-.08.54-.57.09.53.52-.07.4.81.07-.2.36-.65.5-.67-.4,1.02.5.13.26,1.26.34-.91.72-.3,1.15-.76-.03.07-.1.21-.11.16.17.11.17.41.25.61.18-.77.5-.89.76-1.33.07.79-.34.88-.42,1.6.12-.63.52-.54.56-1.08.07.5.1.26.04.91.25-.95.19-.12.48-.68.13.53-.15.91.19.68.05.32-.27.6-.27.6h.03Zm6.95.43h0c-.06,0-.11,0-.15,0,.03,0,.07,0,.15.01h0Zm.55.2c-.06-.05-.14-.08-.23-.11.05-.19.14-.37.19-.34-.07.11.01.26.03.45h0Zm.22-4.11c.12-.04.11.07.08.19-.05,0-.1,0-.18,0-.01.02-.02.04-.03.06.05-.1.09-.19.13-.25h0Z"/><path class="cls-2" d="m141.56,397.45c.01-1.17-.61-.55-.97-.8-.17-1.4.46-.64.77-1.12-.16-.87-.73-1.54-.71-2.19.1-.05.14-.17.27-.03-.49-.92-.02-2.74-.64-3.82.06-.08.11-.12.15-.14-.31.17-.63.2-.85.16-.01-.53-.39-.97.01-1.17-.01.32.15.35.28.5l-.17-.55c.58-.49.2.75.63.75-.19-1.07-.67-2.33-.51-3.14.57-.17.19,1.92.7.82l-.22,1.27c.9-.97-.06.77.9-.12.17-1.68-.29-1.87-.12-3.54-.32-.38-.47.12-.79-.25-.57-2.38,1.44-1.87.67-3.61-.38-.45-1.11-.63-.72-1.87l.65.43c.06-1.62-.93-.93-.49-2.62.25.3.21,1.27.29,1.03.51-1.1-.37-.78-.37-1.62l.57-.17c-.09-1.73-.5-3.63-.61-5.54.17.11.35.43.52-.01-.29-2.41.07-5.14.41-7.47l-.49-.89c0-.21.23-.38.32-.16.18-.91-.31-.05-.51-.48-.03-.52.29-.68.43-.35-.42-1.6-.9-4.56-.38-6.24l.15.33c.2-1.31-1.02-1.48-.55-2.7l.09.23c.21-2.85-.24-6,.51-8.17-.71-.41.32-2.82-.67-3,.49-1.62.67-1.16,1-3.45.04-.61-.62-.91-.72-1.67l.52-.02-.54-1.03.62-.54-.13-.71c-.03.28-.24.6-.38.55-.13-.64,0-1.43.2-2l-3.58-.26c-.2.48-.41.82-.52.82.07,1.07.27,2.09.56,3.04-.21-.03-.37-.52-.52-.92.33.79.23.86.09.95-.13.07-.29.15.1.83.08-.21.32.05.43.06-.18.77.26,2.36.8,3.38l-.42-.08c.64,2.04,1.85,3.91,2.74,5.87-.17-.78.46-.87.79-.32l-.39.46c.48.23-.1-.7.64-.1.29.77-.34.76-.7.41l.59.82c-.12.12-.3-.06-.52-.02.48.22.22,1.78,1,2.07l-.12.12c.91,1.99,1.5,2.8,2.27,4.41.44-.17.64.51,1.21.83.41,1.25.68,2.72,1.38,4.13.68.91.5.12.96.46-.36.25.34,1.66-.29,1.05.85,1.69,1.09,2.15,2.41,4.18.05-.31,0-.61.2-.53.25.36.25.97.03,1l-.09-.08c1.71,2.16,1.45,6.14,3.16,7.71l-.09-.09,1.35,1.82c.36.96-.55-.42-.48.38,1.65,1.87,1.49,3.47,2.75,5.06-.03.11-.05.23-.06.35,0,.06,0,.12,0,.18,0,.06.01.14-.01.14-.06.08-.1.14-.11.18-.04.08,0,.14.09.25.08.1.21.25.28.38.07.12.07.2-.16.02-.06-.04-.13-.1-.22-.18l.58.54c.63.67-.29-.21-.43-.35.49.51.52.48.89.89.25.37.43.7.53.92.04.11.07.2.08.25,0,.03,0,.04-.01.06,0,0-.01.01-.02.01,0,0,0,.02-.06-.06-.43-.51-.87-1.06-1.21-1.5-.34-.44-.58-.79-.69-1-.04-.07-.07-.13-.08-.17,0-.06.16.56.16.95,0,.2-.01.35-.09.36-.07.01-.21-.14-.32-.45.1-.16.16-.35.19-.55-.05.07-.14.08-.23.07-.04,0-.1-.02-.14-.04-.13-.08-.37-.22-.54-.34-.75-.48-1.47-1-2.19-1.53-1.48-.99-2.95-1.99-4.59-2.59.24,0,.33-.15.62.02-.21-.36-.79-.7-1.33-.92-.54-.22-1.07-.28-1.16-.15-.46-.29.03-.32-.17-.62-.53-.56-1.85-.4-2.01-.94-.03-.09.24-.03.38.01-.51-.05-1.97-1.01-1.76-.4-.53-.38-1.11-.6-1.65-.81-.56-.19-1.07-.37-1.49-.7-.81.21-1.93-1.09-2.41-.47.36-.67-1.89-1.39-2.77-1.3.34-.13-.59-.45-.18-.65-.89-.29-1.74-.42-1.71,0-.67-.72-1.56-.76-2.33-.82-.78-.06-1.45-.14-1.77-.82-2.79-.26-5.32-.52-7.78-.69.1-.37.78-.29,1.44-.21.65.1,1.28.19,1.3-.21-.46-.03-.88-.03-1.27-.03-.4.02-.78.04-1.14.07-.74.04-1.43.08-2.19.03l.21,2.91c.42-.14.88-.26,1.39-.35.59-.05-.24.4-.39.58,1.06-.44,2.11-.7,3.15-.94,1.03-.25,2.03-.49,2.97-.9.01.07-.18.19-.38.29.38-.11.93-.09.81-.42l-.36.17c-.73-.35,1.32-1.37,1.34-1.63-.46,1.1,2.01-.16,1.21,1.28.24-.12.53-.34.43-.55.39-.01.54.1.21.43,1.36-.47.79-.72,2.07-.95.03.16-.22.27-.31.49.58-.43,1.17-.89,2.27-.93-.04.11.1.22-.22.27.92-.18,1.67-.52,2.46-.82.79-.29,1.61-.54,2.65-.53-.5.8.72.13.92.75l1.07-.33-.48-.25c.96-.11,1.76-.68,2.61-.56l-.68.34,1.79-.32-1.05-.12c.94-.43-.19-.78,1.12-.74-.26.09.97-.1,1.51.23.46-.24.94-.5,1.67-.41.2.18-.09.71.05.83.43-.57,2.25-.32,2.81-.92-.19.15-.18.48-.11.54l.37-.45c.46.11.53.17.47.44,1.35,0-.48-.77,1.14-.52-.12.04-.06.1-.32.18,1.62.08,3.1-.42,4.59-.27.46.62-1.29.2-.77.72,1.06-.11,2.16-.3,3.26-.48.15-.02.25-.04.32-.06l.27-.05c.18-.03.38-.06.57-.08.39-.04.78-.06,1.09-.02l-.2-.07c.53-.45.8-.34.94-.16.17.17.11.41.85.2-.31.06-1.13.49-.91.39.07.02.14.03.24.03h.23s-.01.03-.01.04c-.1.14-.15.26-.21.4-.12.3-.24.64-.62,1.32-.05-.06-.1-.12-.16-.17-.32.22-.59.49-.85.77-.13.14-.25.28-.38.41l-.09.1-.13.15c-.08.1-.17.18-.25.26,0,.36-.35.74.11.7-.7.34-1.22.8-1.66,1.32-.43.52-.75,1.11-1.07,1.69-.65,1.15-1.19,2.3-2.37,2.99.17-.24.26-.69.12-.5-.37.61-.73,1.23-1.07,1.85.42.08.35-.1.85-.28.03.35-.16.95-.46,1.37.33-.92-.52-.35-.93-.13.14.01.16.2.29.24-1.2.52.53.59-.7,1.58l-.12-.18c-.23.53-.29,1.11-.67,1.59-.52-.04.16-.62-.13-.85-.45.74-.23,1.87-1.01,2.28.09-.38.37-.82.47-1.19-.92.41-.84.58-1.25,1.07l.05-.05-.98,1.1.32-.24c.42,1.52-.96,1.98-1.05,3.61.1-1.57-.24-.41-.63-.76-.32.25-.74.65-.78.44,0,.8-.85.83-.81,1.97-.16-.05-.38.63-.66.3-.33.84.35-.04.49.12-.1.73-.63,1.36-1.17,2.07-.54.71-1.11,1.5-1.21,2.56-.49,1.66-.15,2.18-.57,3.72-.47.36-.35-.65-.35-.65-.59.67-.83,1.27-1,2.08-.06-.21-.24-.11-.51.04-.23.61.36.64-.21,1.32-.11-.21-.3-.5-.33-.86-.18.76-.21,1.58-.4,2.36-.35.08-.21-.61-.26-.94-.26.86-.67,2.23-.37,2.66l.37-.46c-.11.31-.42,0-.4-.25-.03-.84.57-.95.74-.92l-.12.56c1.1-.15.78-2.12,1.29-3.15l.44.72-.04-1.3c.27-.15.7-.13.56.42.66-.58.08-.75.74-1.21.09-.05.1,0,.1.08l.15-.8c.07.2.5.1.2.49.97-1.1.54-2.28,1.25-2.52l-.02.12c.68-1.85-.38-.4-.24-2l1.59-.28-.37-.41c.11-.17.34-.5.48-.34.04-.83-.26,0-.34-.54.86-.65,1.11-2.47,1.94-2.25-.17-.5-.72.66-.44-.38.91.18.45-1.13,1.27-1.69.25.47-.39,1.07.42.51-.39-.85,1.03-1.39,1.29-2.11-.52-.35.65-1.51,1.15-2.69.12.17,1.58-1.8,2.41-2.64l.07.08c-.39-.54.4-1.46.8-2.25.29.24.31.45.17.94l.47-.68c-.05-.27.01-.54.26-1.03l.26.44c.62-.9.86-2.11,1.95-3.05-.29-.32-1.64.18-.96-1.19.22.1.57.29.41.66.06-.12.12-.48.36-.63l-.06.71c.53-.41-.06-.46.29-.85.26.21.42-.16.58.06-.06.12-.38.27-.4.51.4-.43.99-.86,1.32-.89-.18-.08-.35-.27-.13-.64.66-.88.55-.05,1.08-.44-.01-.35.61-.74.24-1.07.2-.25.42-.15.61-.16.01-.41,2.11-2.6,1-2.11l-.15.12s.04-.06.05-.1c.48-.94,1.2-1.7,2.16-2.62.47-.45.97-.94,1.44-1.41.23-.24.46-.48.65-.7l.14-.17s.05-.06.06-.08h-.12l-.5.02.33-.16c-.91.08-1.74.1-2.54.13-.79.03-1.54.1-2.14.28-.35,0-.72-.3-.44-.5-.6.06-.93.14-1.3.16-.34.02-.84,0-1.42-.12.43-.15.35-.22.32-.24-.02-.01-.02-.01.05,0,.09,0,.27,0,.64.02-.18-.02-.35-.04-.51-.06-.12-.02-.23-.04-.32-.05-.2-.03-.38-.06-.55-.07-.35-.02-.71.03-1.3.27.4-.44-.85-.52-1.38-.36l.79.27c-.6.08-1.11.07-1.64.05l.26-.57c-1.16-.3-2.18.04-3.12.33-.95.28-1.82.51-2.73.02-.57.44,1.26.18.75.68-1.04,0-2.2-.72-2.53-.69-1.46-.17-1.26.94-2.78.87.21.18.44.69-.65,1-1.04.04-1.37-.69-.73-.92.25-.04.38,0,.37.07.33-.11.76-.24.33-.42l-.11.21c-.54-.15-1.97.03-1.68-.33-.77.28-.3.36.3.4-1.38-.14-2.09.25-3.49.24.24.08.46.29.25.31-2.05.04-.83.5-2.18.79-.82-.18.17-.76-1.16-.3-.87-.07-.26-.49.04-.71-1.19.59-2.38.14-3.11.2l.63-.27c-.38.16-.7.22-1.03.27l.44.32c-.4,0-.72.06-.75-.1-.35.33.42.6-.3,1.09-.55-.11-1.51.5-1.8.02,1.64-.14-.28-.49,1.07-.83-.25.11-.58.16-.98.17-.07-.04.03-.12.14-.17-1.64-.15-.6.73-2.19,1.04.14-.33-.49-.48-.74-.36.64-.12.41.42-.13.77-1.07,0-1.07.42-1.6.5l.63-.03c-.14.34-.66.41-1.34.66-.11-.21.61-.3.33-.34-.67.68-1.9-.11-2.91.5-.56-.07-.18-.53-.66-.55-1.13.7-1.43-.05-2.64.59.4.24.49.21,0,.55l.22,3.11c.07-.03.2-.07.35-.11h-.34l-.2-2.89,1.71-.69-1.2.92c.63-.16,1.27-.59,1.67-.63-.56.48-.52.37-.14.62-.71-.25-1.23.24-1.85.5l.1,1.43c.28,0,.57.04.85.2l-.16.98c.72.33,1.39.3,2.14.26.74-.03,1.55-.04,2.49.26l-.59-.29c.34-.33,1.21.16,1.87.16-.13.31.24.52.45.78.02-.25,1.39.35,1.73-.25.25.21.5.41.74.64,1.47.62,2.01-.44,3.46.14-.55.2.04.63-1.01.58.49.14.9.36.98.13.22.29,1.49.02,1.83.47.25-.07.44-.39.97-.16.03.08-.06.15-.06.15.06-.15.93.11.58-.42.57.78,1.61,1.12,2.63,1.51,1.01.39,2.01.76,2.45,1.44,1.05.39,2.33.86,3.24,1.31-.1.06-.08.14-.23.02,1.09.93,1.21-.44,2.46.62.46.85-.89-.14-.54.28-.17.54.28.71.83.93.55.21,1.23.44,1.53.98l-.26-.08c.25.37.74.52,1.29.7.54.18,1.17.38,1.71.78,0,0-.11.05-.1.14,1.09,0,2.61.89,3.77,1.51-.58.11-.61-.16-.67.34.25.14.32-.02.45-.15.07-.07.15-.12.27-.12.13,0,.3.03.58.22.2.46.98,1.33,1.06,2.01l-1.28-.99c.19.54.67.92,1.11,1.19.46.28.88.44,1.22.79l-.06.29c.25.18.47.34.66.46.19.12.35.21.52.33.31.21.54.31.74.39.41.17.74.25,1.57.99.05.02.12.05.21.08l-.38-.54c-.02-.61.26-.25.52.08.27.35.53.66.6.44l.85,1.28c.11-.06.29-.16.56-.1.25.06.55.34.89.63-.1-.04-.27-.14-.43-.17-.06-.03-.17-.01-.25.02-.08.03-.16.09-.2.17.16.06.48.1.67.16.17.08.32.14.32.09-.1-.06-.14-.01-.32-.18.01-.21.44.14,1.07.71l.07.07s-.02-.07-.03-.09c-.02-.07-.05-.14-.07-.21.08.11.07.02.08-.14,0-.16,0-.41-.02-.69-.01-.53-.12-1.24.63-.79-.12-.43-.18-.8-.15-1.09-.58-1.25-1.01-2.4-1.53-3.7-.51-1.3-1.1-2.76-1.85-4.32-.1.39-.2.47-.29.43-.09-.04-.17-.21-.27-.42-.2-.41-.47-.95-.92-.69-.1-.18-.18-.34-.25-.47-.06-.12-.1-.19-.12-.25-.06-.14-.07-.21-.05-.25l-.23-1.97c.08-.53.45.44.64.29-.5-1.27.16-.7.03-1.64-.26.32-.68-.21-.88-.98l.03,1.19c-1.3-1.5.1-1.86-1.2-3.37l.55.41c-.59-.81-1.51-3.3-2.67-3.83.03-.21.2-.53.44-.17-.88-2.19-3-4.39-3.3-6.26l.3.06c-.25-.37-.75-.5-.75-1.1.11-.02.3.06.23-.14-.17-.17-.89-.87-1-1.46l.47.33c-.66-2.22-2.11-2.91-3.07-4.58.67-.31.14-2.05-.13-2.92l.11-.02c-1.04-2.47-2.46-3.87-3.76-5.99.04-.86-.43-2.09-.98-3.39-.56-1.31-1.19-2.67-1.4-3.82.01.38-.57.16-.78-.2-.06-.56-.98-1.26-.3-1.39l.04.18c.51-.59.05-1.53-.06-2.31h-.9c.39-.98.35-2,.4-3.02l-3.74-.27c.13,1.73.44,3.38-.23,4.15.23.59.22,1.31.44,1.89l-.48-.03c-.12,1.63-.18,2.44-.07,4.45l-.34-.41c-.03,1.13,1.38,1.43,1.4,2.48l-.71.31c.01,1.98-.61,3.98.03,5.94-.11-.03-.31-.09-.34-.41-.02.93-.48,3.6.49,3.26-.63.02-.06,2.04.22,3.11l-.47-.17c.6.9.76.93.93,2.19-.06.3-.38.26-.26-.13-.25.99.44.77.2,1.98l-.3-.45c-.03,1.02.12.94.47,1.5.19.64-.12,1.94-.54,2.09.26.14.61.7.48,1.3-.16.08-.26-.14-.31-.25-.32,1.71.54,2.54.08,3.72-.16.02-.24.1-.28.2.01-1.36.04-2.45.07-2.35-.43,0-.51,1.1-1.1.22.32.88,1.03,2.39.83,3.46-.04.05-.08.1-.15.14l-.05-.11c-.04.25,0,.47.07.68-.07.34-.12.56-.13.88-.36.13-.19,1.26-.21,1.81.47-.05.4.67.79,0-.03.09-.06-.1-.08-.46-.01-.08-.02-.18-.05-.24.01.01.03.02.04.04,0-.36-.02-.83-.03-1.36.24.43.44.89.18,1.49.3.28.62.59.76.76-.66.75-1.01,2.19-1.43,2.39.26,1.67.17,3.93,1.07,4.99.11.48-.25.54-.39.72-.09-.27-.07-.6-.2-.75.23.95.09,2.81.71,3.04-.28,1.2-.57-.67-.47.98l-.19-.22c-.99,3.24,1.59,5.26.31,8.85.08-.25.11-.38.22-.43-.56,4.09.53,8.43-.37,12.47-.18,1.15.22,1.27.52,1.97l-.51.25.59,1.2c.43,1.7-1.25,2.94-.44,5.09l.34-.27c-.07.77.2,2.44-.19,2.32.06.08.35.25.18.55l-.26.02.45,1.89c-.19,1.47-1.05-.23-1.1,1.92.1.8.77,2.27.95,1.97.01-.32.17-.82.43-.85l.14.73c.79.13,1.59.69,2.13-1.1l-.48-1.25.38-.4.02,1.05c.36-.59.04-.97-.17-1.4.2-.1.34-.27.42-.52l-.75-1.23c.31-.15.61.55.78-.27-.35-.57-.69.55-.91-.4.36-.59.65-.42.34-1.12.2-.1.33.05.42.33-.24-.62-.1-1.65-.52-1.97.44-.62-.11-2.11.63-2.04-.18-.2-.58-1.1-.61-1.67.89,1.05.05-2.15,1-1.87-.8-.77-.35-2.8-.8-4.17.06.08.19.23.15.35.07-.77.31-1,.46-1.49-.66-.1-.81-1.3-1.22-1.95.63-.95.77.58,1.39.28-.53.05-.53-1.64-.98-1.32.39-.72.19-.62.74-1-.82-.13-.14-.67-.65-1.27.4-1.05.77-.27.52-1.42.25-.55.54.48.54.48l-.06-.02Zm-1.43-27.36h.01c.01.24.02.44.03.57,0-.12-.02-.28-.03-.57h0Zm0-2.3c-.02.28-.02.63-.02,1-.16.08-.33,0-.33-.24.11.12.2-.41.34-.76Zm-3.28,4.87c-.07-.36.03-.49.12-.54,0,.17.02.38.06.64.02.01.04.03.06.05-.09-.03-.17-.07-.24-.15Z"/><path class="cls-3" d="m219.83,480.78c.44-1.66-.7-1.01-1.15-1.49.24-2.05.91-.75,1.55-1.31.07-1.31-.54-2.46-.28-3.38.17-.03.27-.19.41.06-.4-1.49.94-3.9.41-5.65.11-.1.21-.13.28-.14-.53.13-1,.05-1.32-.09.18-.74-.23-1.53.45-1.66-.13.45.1.55.23.82l-.06-.85c1.05-.48.03,1.14.67,1.3.11-1.59-.16-3.55.39-4.64.91-.02-.41,2.8.74,1.44l-.79,1.72c1.69-1.03-.38,1.07,1.38.17.85-2.3.24-2.76,1.12-5.04-.33-.65-.74-.01-1.07-.67.06-3.56,2.81-2.06,2.37-4.8-.38-.78-1.38-1.33-.31-2.91l.78.86c.74-2.23-1-1.69.32-3.88.25.53-.2,1.87.02,1.57,1.19-1.31-.23-1.25.13-2.42h.92c.63-2.4.78-5.25,1.57-7.9.19.23.3.76.76.24.38-1.7.95-3.48,1.76-5.13.8-1.67,1.69-3.26,2.53-4.73l-.2-1.46c.12-.27.54-.37.54-.02.78-1.08-.41-.24-.44-.94.25-.71.79-.72.81-.21.17-1.17.47-2.83,1.02-4.4.28-.77.62-1.54.99-2.21.22-.37.42-.55.67-.58.03.12.05.23.08.33.23-.11.04-.62-.02-1.26-.07-.6,0-1.34.34-1.19l-.04.36c.27-.31.5-.69.74-1.11l.36-.66.09-.16c.01-.05.02-.01.03.02l.03.08.11.35c.26.91.51,2.14.22,3.25.42-.52.46.07.5.45.02.21.04.36.17.51.17.31.42.54.79.5-.15,2.47-.56,1.89-.27,5.22.13.88,1.23,1.05,1.63,2.08l-.77.21,1.15,1.25-.76.98.41.96c-.04-.41.17-.93.41-.92.68,1.48.27,3.94-.12,4.05l1.37,3.58c-.33-.02-.56-.62-.85-1.07,1.18,1.83-.76.52.32,2.19.13-.28.49.04.65.05-.31,1,.04,3.06.49,4.56l-.59-.21c.3,2.78,1.17,5.78,1.54,8.91.11-1.15,1.08-1.03,1.29-.12l-.79.48c.59.53.19-1,.98.14.05,1.19-.85.9-1.2.27.15.46.32.92.46,1.39-.24.11-.4-.21-.73-.25.58.52-.57,2.54.42,3.28l-.24.11c.32,3.12.71,4.51.95,7.06.73,0,.63,1,1.27,1.72-.09,1.9-.56,4.02-.4,6.29.43,1.58.64.43,1.1,1.13-.66.15-.54,2.41-1.04,1.26.05.68.09,1.23.12,1.75.02.25.05.49.06.73.02.16.04.17.06.27.1.31.24.65.51,1.62.28.12.39-.02.62.3.11.48-.27.49-.6.03l-.07-.15c.26.7.25,1.28.13,1.52-.06.13-.15.16-.26.14-.05-.01-.1-.05-.16-.09-.03-.03-.06-.05-.08-.08l-.04-.05s-.05-.1-.08-.14c-.28-.58-.56-1.14-.82-1.67-.15-.26-.17-.18-.28.22l.02-.08c-.15.19-.42.25-.81.16-.18-.3-.05-.33.08-.43.13-.09.25-.27.25-.58-.12.07-.25.08-.37.06-.06-.02-.12-.03-.17-.06,0,.03-.17-.14-.31-.26-.51-.51-.94-1.03-1.34-1.55-.8-1.03-1.51-2.04-2.76-2.84-.06-2.98-5.43-5.72-6.6-8.76l-.22.44c-.86-.24-.46-.86-.78-1.35-.21.31.28.9-.24.73-4.92-4.37-8.96-10.21-13.52-15.21-1.69-1.8-2.64.76-4.13-2.19l1.23-.02c-4.31-2.67-7.38-7.01-11.58-9.61.34.04.52-.14.88.18-.35-1.16-2.81-2.57-3.16-2.19-.53-.55.17-.47,0-.97-.26-.48-.88-.76-1.43-1.02-.27-.13-.53-.26-.72-.4-.17-.13-.36-.36-.24-.46.03-.05.07-.07.12-.09.11.03.24.1.32.15-.09-.03-.19-.08-.3-.15-.06-.02-.07-.02-.11-.03-.06-.03-.12-.07-.18-.1-.12-.06-.29-.1-.6.11-.03-.25-.28-.36-.58-.54-.29-.17-.58-.33-.33-.39-.85-.2-.9-.36-.92-.46-.04-.11-.12-.19-1.59-.7,1.35.44,2.16.64,2.41.64.25,0,.11-.18-.1-.45.46.33.81.32,1.39.79.02-.02.36-.26-.3-.83.59.32.85.41,1.06.39.2-.02.36-.16.55-.28.17-.25,1.44-.46,2.07.42,3.82-.75,7.39-1.2,10.86-1.45-.14,1.15-3.84.11-3.69,1.35,3.27-.52,5.19-1.45,8.46-1.13.84.19-.5.49-.79.69,3.3-.39,6.34.29,9.3-.19-.01.1-.34.21-.64.29.57,0,1.33.24,1.29-.3l-.57.12c-.88-.82,2.38-1.5,2.51-1.91-1.07,1.46,2.88.56,1.19,2.39.39-.08.88-.3.81-.66.56.14.72.36.12.73,2.08-.16,1.39-.77,3.25-.64-.03.25-.41.34-.62.62.99-.45,1.97-.88,3.54-.54-.1.15.06.36-.41.32,2.72.12,4.74-.98,7.68-.23-.98,1.04.98.46,1.04,1.44l1.63-.14-.6-.53c1.4.16,2.71-.43,3.88,0l-1.08.3,2.65.07-1.45-.51c1.47-.36-.03-1.24,1.82-.79-.39.06,1.4.16,2.07.81.73-.23,1.48-.48,2.49-.13.23.34-.33,1.04-.18,1.27.77-.74,3.31.13,4.28-.63-.32.17-.39.67-.31.79l.65-.59c.63.28.71.39.56.79,1.94.34-.48-1.29,1.78-.5-.19.03-.11.14-.5.2,2.3.54,4.55.11,6.65.68.51,1.04-1.9.02-1.27.92,3.1.19,6.53-.4,9.49.2l-.54-.17c.53-1.18,1.84.53,3.26.54l-.23-2.71c-.14.07-.27.15-.4.25.33-.21.24-.89.19-.7-2.04.45-3.96,1.63-6.78,3.1l.26-.47c-1.26.1-3.11.9-4.39,1.22-.25.47-.98.68-.37,1.01-4.54-.46-6.84,3.84-10.8,3.7.4-.17.84-.68.51-.55-.91.49-1.8,1.03-2.71,1.53.46.45.51.17,1.29.33-.22.49-.9,1.09-1.6,1.39,1.1-.92-.39-.88-1.08-.94.17.13.06.4.18.55-1.9-.32.24,1.2-2.04,1.47l-.02-.33c-.68.49-1.19,1.19-2.03,1.48-.62-.48.65-.66.47-1.2-1.12.55-1.67,2.24-2.97,2.11.39-.4,1.07-.75,1.46-1.15-1.44-.2-1.49.05-2.37.34l.09-.02-2.06.6.58-.04c-.61,2.31-2.69,1.75-4.03,3.75,1.3-1.93,0-.73-.21-1.5-.58.05-1.41.22-1.31-.09-.58,1.03-1.7.35-2.51,1.84-.18-.2-.95.49-1.05-.18-1.05.79.48.24.53.58-.68.84-1.81,1.21-3.04,1.64-1.23.43-2.53.97-3.47,2.22-1.89,1.68-1.85,2.65-3.57,4.21-.86.06.06-1.12.06-1.12-1.25.34-2.03.88-2.86,1.76.09-.32-.22-.34-.67-.39-.76.57-.04,1.12-1.29,1.48.03-.35.02-.89.26-1.37-.81.81-1.49,1.79-2.33,2.62-.5-.2.22-.95.4-1.41-.99.87-2.59,2.21-2.53,3l.82-.26c-.37.29-.53-.36-.31-.67.62-1.08,1.47-.69,1.65-.51l-.59.6c1.49.76,2.62-2,4.06-2.83v1.29s.94-1.68.94-1.68c.45.05.97.43.37,1,1.27-.18.69-.88,1.86-.9.15.02.13.09.06.18l.81-.88c-.07.31.55.56-.13.78,2.06-.56,2.43-2.43,3.51-2.12l-.11.15c2.28-1.76-.16-.82,1.23-2.72l2.21.97-.14-.82c.27-.12.81-.36.86-.02.69-1.01-.33-.21-.02-.97.79-.03,1.6-.59,2.33-1.02.73-.41,1.38-.71,1.81-.22.17-.77-1.42.23-.27-.85,1.01.99,1.43-1.04,2.87-1.1-.03.8-1.28,1.06.14,1,.15-1.42,2.35-.92,3.22-1.62-.38-.87,1.94-1.43,3.46-2.5.01.17.84-.1,1.88-.45,1.04-.34,2.29-.77,3.13-.97v.17c-.08-1.01,1.59-1.58,2.69-2.27.18.55.06.85-.47,1.36l1.1-.49c.14-.39.42-.69,1.08-1.11v.78c1.43-.69,2.64-2.03,4.71-2.4-.13-.66-2.21-1.08-.35-2.34.21.3.51.84.03,1.2.16-.12.5-.54.91-.53l-.59.89c.96-.11.27-.65.99-.88.17.48.65.13.7.55-.16.12-.68.05-.88.33.82-.22,1.88-.32,2.33-.08-.17-.25-.25-.64.3-.93,1.47-.62.73.37,1.68.27.23-.47,1.32-.48,1.08-1.21.44-.16.64.15.88.28.66-.61,3.58-1.43,2.44-1.88l-.22.02s.08-.04.12-.07c1.15-.81,2.52-1.17,3.9-1.49,1.39-.3,2.78-.52,4.01-1.1l.07.25c.24-.14.5-.26.78-.38l-.21-2.42c-1.41-.02-2.92-.2-3.92.13-.47-.06-1.06-.6-.82-.88-1.24.04-1.42.32-3.13-.32,1.28-.3-.37-.44,1.3-.18-1.56-.41-1.87-.86-3.66-.37.66-.59-1.1-.97-1.88-.86l1.06.6c-.86,0-1.6-.15-2.35-.29l.51-.81c-3.14-1.43-6.08,1.1-8.36-.93-.93.5,1.73.62.87,1.24-1.48-.28-2.91-1.7-3.38-1.74-2.01-.69-2.06,1.05-4.17.5.24.34.41,1.18-1.22,1.3-1.49-.26-1.71-1.46-.74-1.62.36.01.53.12.5.22.5-.06,1.15-.13.59-.53l-.22.29c-.71-.38-2.79-.55-2.25-1.01-1.17.18-.53.46.29.7-1.88-.63-3.01-.32-4.97-.78.3.19.56.58.24.56-2.88-.63-1.34.47-3.32.43-1.08-.56.5-1.08-1.52-.86-1.19-.41-.19-.84.32-1.05-1.87.46-3.37-.65-4.4-.83l.98-.17c-.58.1-1.05.06-1.53.02l.5.66c-.55-.16-1.03-.19-1-.45-.61.37.37,1.05-.82,1.53-.73-.36-2.3.19-2.5-.64,2.34.43-.21-.84,1.8-.85-.4.08-.86.04-1.41-.11-.08-.1.09-.16.24-.2-2.21-.88-1.1.86-3.44.69.32-.45-.49-.9-.88-.82.95.05.41.79-.48,1.1-1.49-.42-1.64.19-2.43.11l.89.21c-.32.45-1.07.35-2.13.45-.07-.36.96-.2.6-.38-1.19.74-2.59-.95-4.24-.45-.74-.34-.04-.87-.69-1.1-1.84.54-1.96-.7-3.89-.24.53.63.64.48-.72,1.06,1.05-.12,2.1-.27,3.16-.38l-2.04.86c.95.02,2.01-.35,2.57-.23-.98.48-.87.32-.43.85-1.26-.97-2.58.5-4.06-.16l.07-1.54c-2.25-.74-4.03.75-6.96.38l.94.27c-.39.61-1.81.08-2.75.35.08-.52-.51-.69-.92-.99.05.38-2.16.01-2.4,1.05l-1.33-.64c-.31-.03-.56-.02-.81,0-.35.04-.66.1-.95.18-.56.15-.98.36-1.36.57-.77.42-1.31.83-2.74.82.2-.29-.08-.5-.22-.69-.13-.2-.13-.39.86-.65-1.12.06-2.21.02-1.9.36-.45-.13-1.07.07-1.67.25-.65.2-1.29.37-2.15.2-.15.24.55.73-.6.77-.31-.09-.44-.23-.44-.23.22.11-.07.22-.14.35-.07.13.1.29,1.07.5-1.43-.3-2.76-.39-3.94-.4h-.44c-.06,0-.16,0-.2,0l.13.12c.18.16.36.33.55.49.41.34.83.69,1.24,1.04.85.7,1.68,1.36,2.29,1.96.61.6,1,1.13,1.05,1.64.98.74,2.04,1.56,3.1,2.36.49.38.98.77,1.44,1.12.39.32.77.63,1.12.91-.17.05-.17.19-.35-.04,1.23,1.72,1.91-.27,3.32,1.69.35,1.42-1.23-.49-.87.25-.87,1.48,2.26,1.7,2.78,3.5l-.35-.18c.5,1.24,2.61,1.49,3.97,2.92,0,0-.17.04-.18.18,1.56.27,3.64,1.8,5.17,2.93-.88.08-.86-.34-1.05.4.68.51.55-.96,1.91.07.16.64.83,1.72.45,2.35l-1.18-1.07c-.04,1.23,1.52,1.39,2.01,2.1l-.36.22c1.85,1.6,2.59.88,4.42,2.78l.02-.41c1.73.29.46,1.25,2.01,1.73l-.4,1.04c.85.48,3.05,1.64,4.38,2.71-1.22-.14-2.88-1.29-4.08-1.83.67.66,2.31,2.21,3.01,2.19-.34-.19-.85-.36-1-.74,1.38.25,2.74,1.04,4.04,2.4-1.65,1.16,3.07,3.85,2.88,5.93,2.82,1.89,4.29,4.99,6.98,7.75.21-2.06.79.8,1.79-.45.68.6.9.87.88,1l1.13,2.67c.09.79-.83-.4-1.03-.1,1.22,1.55.05,1.07.6,2.32.25-.58,1.06-.04,1.64.95l-.51-1.67c.62.38.96.73,1.17,1.07.11.18.17.34.23.52.14.26.25.51.37.77.23.53.5,1.08.94,1.71.45.62,1.09,1.34,1.98,2.04-.39-.2-.81-.42-1.25-.67.96.88,2.6,2.79,4.21,4.46,1.58,1.67,3.08,3.04,3.39,2.43.37.72,1.1,2.23.43,1.63.82,1.01,1.64,1.92,2.41,2.73.03-.25,0-.68-.01-1.04l-.05-1.12-.13-2.25c-.08-1.42-.17-2.83-.24-4.18-.13-2.58-.2-4.58.12-6.09l.38.73c-.05-.6-.23-1.2-.35-1.76-.11-.57-.17-1.08.03-1.66.16.12.38.59.4.08-.06-.32-.23-1.1-.38-1.93-.15-.96-.24-1.34-.13-1.81l.45.72c.43-3.42-1.22-5.17-1.62-7.99,1.15-.06,1.34-2.75,1.43-4.1l.16.04c-.14-3.98-1.47-6.64-2.31-10.21,1-2.41-.43-7.69-.32-11.41-.12.59-.88.05-1.1-.57.08-.89-1.18-2.2-.13-2.24l.03.31c.89-.81.35-2.52.11-3.86l-1.38.04c.63-1.95.03-4.24-.64-6.29-.63-2.06-1.3-3.9-.67-5.05-.53-.77-.77-1.81-1.29-2.56l.72-.14c-.21-1.19-.36-2.08-.58-3.02-.11-.47-.23-.96-.39-1.51-.05-.18-.22-.8-.4-1.33-.18-.54-.36-1.11-.56-1.74.25.23.5.49.76.77-.42-1.55-1.14-2.15-1.79-2.46-.65-.33-1.23-.39-1.54-1.38.18-.68.35-1.4.5-2.16-.68-2.24-1.27-4.95-1.97-7.62l-.26-.98c-.1-.25-.15-.9-.33-.38-.31.54-.61,1.1-.93,1.7-.61,1.21-1.23,2.57-1.78,4.06.02-.37.05-1.07.46-1.88-.57,1-1.75,2.75-2.71,4.48-.97,1.75-1.55,3.23-.91,3.62-.27-.48-.94.57-1.51,2.15-.14.38-.29.79-.42,1.2l-.2.6c-.05.17-.06.27-.1.4-.1.51-.2,1.01-.28,1.41l-.54-.53c.24,1.6.43,1.74-.07,3.55-.26.37-.68.12-.28-.34-.93,1.2.16,1.33-.89,2.81l-.16-.79c-.65,1.38-.38,1.36-.22,2.33-.14.97-1.22,2.59-1.91,2.57.3.34.49,1.3,0,2.07-.27.02-.3-.33-.31-.51-.68,1.09-.83,2.05-.95,2.89-.1.86-.2,1.6-.81,2.31-.24-.04-.38.03-.5.14.66-1.9,1.25-3.4,1.26-3.24-.62-.23-1.31,1.26-1.71-.27.02,1.41.33,3.88-.48,5.27-.09.05-.17.1-.29.12l-.02-.18c-.18.33-.23.65-.23.98-.26.45-.46.72-.61,1.18-.57,0-.84,1.69-1.1,2.45.71.16.28,1.13,1.15.36-.09.11-.04-.17.09-.7.02-.12.05-.27.03-.35.01.02.03.05.04.08.15-.51.33-1.18.55-1.93.16.72.26,1.45-.39,2.18.32.53.64,1.11.78,1.42-1.29.75-2.45,2.62-3.13,2.73-.29,2.49-1.35,5.67-.45,7.51,0,.72-.59.67-.85.86-.03-.42.12-.89-.01-1.15-.03,1.44-.94,4.03-.11,4.6-.87,1.59-.59-1.18-1.06,1.19l-.19-.39c-2.67,4.22.41,8.08-2.74,12.69.21-.32.3-.49.48-.52-2.3,5.6-2.21,12.17-5.07,17.5-.7,1.54-.16,1.88.01,2.98l-.85.15.4,1.93c-.07,2.56-3,3.59-2.74,6.92l.62-.23c-.43,1.04-.79,3.49-1.3,3.13.06.14.4.52.01.85l-.39-.09c-.06.95-.11,1.9-.21,2.84-.99,1.92-1.42-.84-2.52,2.07-.24,1.13.02,3.51.42,3.2.18-.44.64-1.04,1.03-.93l-.16,1.07c1.06.59,1.94,1.82,3.6-.41l-.08-1.99.75-.37-.48,1.49c.81-.65.54-1.34.43-2.04.34-.04.63-.22.86-.53-.17-.7-.31-1.39-.5-2.08.51-.06.64,1.07,1.25-.01-.25-.97-1.24.45-1.15-1,.78-.67,1.13-.29,1-1.42.34-.05.46.22.46.66-.07-.99.59-2.38.12-3.02.93-.68.73-3.02,1.79-2.61-.18-.36-.4-1.81-.21-2.63.87,1.85.96-3.02,2.24-2.23-.88-1.43.56-4.13.43-6.26.06.14.2.4.09.56.4-1.07.84-1.29,1.24-1.94-.94-.4-.72-2.16-1.08-3.24,1.29-1.1.93,1.11,1.95.93-.81-.14-.18-2.54-.96-2.25.85-.89.51-.82,1.46-1.14-1.18-.49.03-1.01-.5-2.06.98-1.34,1.24-.1,1.28-1.83.57-.68.64.88.64.88v.02Zm8.52-38.96h.02c-.09.33-.17.61-.23.8.05-.17.11-.39.22-.8h0Zm1.07-3.16c-.16.38-.32.86-.49,1.36-.28.03-.48-.18-.35-.49.1.23.49-.46.85-.86h0Zm-7.03,5.14c.07-.55.26-.68.42-.7-.07.24-.13.54-.2.92.02.02.04.07.06.09-.12-.09-.22-.19-.29-.32h0Z"/><path class="cls-3" d="m173.42,38.27c.98.15.54.93,1.12,1.34-.08-.02-.23-.05-.19-.1-.05.28-.32.4-.48.59.79-.06,1.02.33,1.53.5-.71.42-.95-.09-1.66.11.63-.09.7.5,1.22.32-.44.31-.2.25-.83.46.99-.08.19.21.82.35-.44.43-.91.21-.56.58-.27.23-.67-.09-.67-.09v.02c.03.42.74.1,1.18.13.27.46-.52.3-.87.51.23.28.94.43.94.66-.12.03-.16.08-.32.05.63.25.15.96.93,1.24-.06.03-.12.06-.17.07.36-.11.74-.17,1.01-.19.03.18.51.28.03.41,0-.11-.19-.1-.36-.13l.23.17c-.67.26-.27-.24-.78-.17.27.35.9.71.74,1.03-.67.15-.32-.64-.87-.18l.2-.48c-1.03.48.04-.28-1.07.18-.12.61.43.61.31,1.22.4.08.55-.11.95-.03.79.75-1.62.88-.64,1.37.47.1,1.33.05.94.54l-.79-.05c0,.58,1.15.18.71.84-.32-.07-.32-.41-.4-.31-.56.46.47.21.51.51l-.67.15c.19.59.77,1.19.98,1.85-.21,0-.44-.09-.62.09.45.8.15,1.81-.13,2.68l.63.23c0,.07-.25.17-.37.11-.18.35.38-.03.62.09.07.18-.3.28-.5.2.57.49,1.29,1.44.74,2.12l-.19-.09c-.17.49,1.27.35.79.85l-.11-.07c-.11,1.03.57,2.05-.2,2.94.87.03-.23,1.04.95.93-.5.65-.73.52-1.01,1.38-.02.22.78.21.94.46l-.61.09.7.27-.7.29.19.23c.02-.11.25-.25.42-.26.34.35-.3,1.01-.6,1.06l.65.84c-.25.01-.36-.13-.53-.22.7.4-.63.18,0,.55.13-.08.37-.02.5-.03-.34.28-.26.79-.05,1.14h-.44c0,.69.42,1.39.52,2.15.15-.3.9-.35,1-.13l-.63.19c.42.09.21-.27.74-.05-.03.3-.71.3-.95.17l.27.31c-.19.05-.3-.01-.56,0,.42.08-.56.7.17.79l-.19.05c.11.77.38,1.07.51,1.69.56-.07.48.19.95.3-.11.48-.47,1.05-.34,1.6.34.34.49.04.85.16-.5.11-.37.65-.78.42.19.64.23.83.78,1.6.19-.12.27-.24.45-.21.11.14-.16.38-.41.4l-.06-.03c.91.81-1.15,2.4.03,2.97l-.06-.03.68.69c-.03.37-.42-.16-.69.16.99.7.09,1.34.76,1.93-1.42.77.41,1.86-.43,2.74l.35-.1c.38.13-.17.25-.23.41.27-.07.28-.25.5-.17.68,1.5.03,3.31-.03,4.98,0,.6,1.89.03,1.17.91l-.69-.1c.99,1.05.38,2.43,1.25,3.48-.16-.04-.36-.01-.38-.13-.44.33.13.91.52.85-.01.19-.34.1-.52.25-.23.3.72.51.26.73-.07.03-.17-.04-.21-.08.25.12.07.76.59.51-.19.48.39.79.12,1.19.65.12-.17.8.71.72-.9.13-.59.89-.12,1.09-.29-.05-.23.29-.63.25.07.31.29.57.74.43-.45.36-.25.6-.03.82,1.63.39,3.2.93,4.61,1.7-.07-.13-.11-.27-.07-.44l-.16.26c-.48,0-.14-.42-.37-.61.4-.05.51-.22.74-.36-.29.07-.07-.52-.86-.44l.46-.4c.11-.6-1.23-.44-1.19-1.01.46.09.68-.21,1.06.1-.03-.18.01-.35-.26-.31.23-.15-.62-.41-.27-.64-.19-.05-.6,0-.6-.21.07-.03.19-.03.19-.03-.19.03-.32-.27-.72-.02,1.13-.77-.36-1.54.6-2.21-.2-.37-.41-.83-.5-1.17.12,0,.19-.03.17.04.27-.56-1.17-.11-.87-.74.58-.4.4.24.6.02,1.28-.3-.29-.64.4-1.15l.09.08c.39-.36-.61-.62-.6-1.11,0,0,.12,0,.19-.03-.71-.21-1.03-.79-1.29-1.21.53.05.3.16.8-.01-.11-.19-.81.2-1.03-.18.25-.18.44-.52.99-.64l.09.38c.68-.32-.11-.49-.02-.72l.31-.03c-.2-.57-.98-.45-1.03-1.09l-.22.11c-.83-.21.38-.36-.25-.61l.77-.23c-.23-.19-.89-.67-1.11-1.05.62.13,1,.56,1.39.8-.03-.23-.19-.76-.59-.81.09.08.3.16.19.27-.67-.18-1.03-.49-1.09-.94,1.53-.17.19-1.24,1.31-1.76-.69-.7-.01-1.62-.25-2.53-1.13.52-.08-.27-1.28-.01-.11-.2-.11-.29-.03-.32l.62-.77c.33-.22.3.16.57.1.01-.49.48-.28.76-.64-.42.13-.65-.07-.53-.36l-.5.47c-.75-.56.93-.73.18-1.29l.42.15c-.28-.31-.19-1.26-1.22-1.44.13-.08.45-.22.56-.08.02-.84-1.32-1.66-.82-2.39h.31c-.11-.13-.6-.17-.33-.4.13,0,.31.01.31-.06-.11-.07-.58-.32-.44-.55l.36.12c.27-.86-1.01-1.1-1.31-1.74.88-.14,1.06-.81,1.15-1.14h.13c-.03-.95-.97-1.48-1.44-2.28.87-.68.13-1.87.53-2.8-.14.15-.69.08-.8-.06.15-.23-.69-.47.11-.56v.07c.77-.27.49-.65.46-.98l-1.06.1c1.41-1.07-.88-2.13.42-2.8-.29-.17-.33-.42-.62-.58l.56-.07c.06-.58.09-.88-.14-1.56l.42.09c-.02-.4-1.7-.27-1.79-.62l.83-.23c-.11-.68.53-1.49-.33-2.06.13,0,.37-.02.42.09-.02-.33.4-1.34-.74-1.05.75-.11-.03-.72-.41-1.05l.56-.02c-.75-.21-.95-.2-1.21-.61.06-.11.43-.15.31,0,.24-.39-.56-.19-.33-.66l.38.11c0-.36-.19-.31-.63-.45-.25-.19.05-.7.54-.82-.31,0-.75-.15-.64-.38.19-.05.31,0,.38.04.3-.64-.76-.8-.27-1.28.18-.03.27-.07.32-.11.05.48.07.86.03.83.51-.07.55-.46,1.3-.25-.43-.25-1.34-.66-1.15-1.07.05-.03.09-.05.17-.07l.06.03c.04-.09-.02-.16-.11-.22.07-.13.12-.21.11-.33.42-.1.17-.47.17-.66-.56.09-.5-.17-.93.13.03-.03.07.03.11.15.02.03.03.06.07.07h-.05c.03.12.07.28.1.47-.3-.11-.56-.24-.28-.49-.38-.05-.76-.11-.94-.15.74-.36,1.11-.93,1.58-1.06-.39-.54-.39-1.34-1.49-1.58-.15-.15.27-.23.44-.31.12.08.11.19.27.23-.31-.29-.23-.97-.98-.95.28-.46.71.15.52-.41l.23.05c1.03-1.28-2.11-1.6-.76-3.04-.08.1-.12.15-.24.18.49-1.51-1-2.87-.11-4.41.17-.43-.31-.41-.7-.61l.59-.16-.75-.34c-.58-.53,1.35-1.21.3-1.84l-.4.15c.05-.28-.34-.83.13-.84-.08-.02-.44-.04-.24-.17l.32-.05-.62-.6c.17-.54,1.26-.07,1.23-.83-.15-.26-1.01-.69-1.21-.56,0,.11-.16.31-.48.36l-.19-.24c-.94.06-1.91-.02-2.49.69l.62.37-.44.19-.07-.36c-.4.26,0,.35.27.46-.23.06-.4.15-.48.24l.94.32c-.36.09-.74-.11-.91.21.44.15.79-.29,1.11.01-.4.26-.75.24-.36.44-.23.06-.4.03-.51-.05.31.18.19.56.7.62-.5.28.22.72-.66.81.22.04.74.3.8.5-1.1-.24.03.76-1.11.8Zm3.72,13.92c-.13-.03-.22.18-.37.32h0c0-.11,0-.23-.03-.36.19-.05.4-.05.4.03Z"/><path class="cls-3" d="m176.65,51.7h-.01c-.03-.08-.05-.15-.06-.19.01.04.03.09.07.19h0Z"/><path class="cls-3" d="m180.43,50.29c.09.11,0,.18-.12.21-.02-.06-.05-.13-.09-.21h-.07c.11,0,.21,0,.29.01h0Z"/><path class="cls-3" d="m225.88,46.94l-.27-.04c.08-.09.32.35.3.48.02.5-.43.07-.56-.08l.09-.22c-.83-.83-.56.62-.93.8l-.34-.79.05.81c-.19-.13-.52-.48-.42-.7-.48-.17-.04.39-.51.16-.07-.04-.07-.08-.07-.13l-.09.37c-.05-.17-.38-.46-.17-.46-.7-.1-.32.99-.85.58v-.07c-.42.64.3.54.28,1.44l-1.17-1.03.29.54c-.07.03-.22.07-.34-.15.02.5.2.19.29.6-.62-.25-.65.78-1.27.03.17.46.48.09.36.58-.7-.8-.25.4-.79.19-.23-.5.18-.44-.36-.65.38.87-.63.21-.75.51.42.6-.3.6-.54,1.06-.12-.22-.93.18-1.44.21l-.06-.11c.37.65-.07.79-.24,1.1-.25-.37-.31-.54-.28-.8l-.24.18c.08.23.08.39-.03.57l-.26-.49c-.31.26-.27.99-.91,1.01.28.44,1.17.91.95,1.52-.18-.22-.48-.58-.43-.77-.01.05,0,.29-.14.25l-.1-.51c-.31-.03.13.39-.04.46-.23-.32-.28-.15-.44-.42.01-.06.23.03.19-.13-.21.07-.56.03-.81-.16.15.17.32.43.22.56-.3.26-.4-.3-.71-.33.09.28-.29.2.06.68-.09.07-.28-.14-.41-.25-.01.33-.73.64-.17,1.01h.07s0,.03-.01.04c-.19.88-1.33.57-1.72,1.18l-.12-.16c-.19.42-.64.64-.61,1.15-.09.07-.44-.12-.54-.34-.15.3-.05.5-.6.51.04-.46-.27-.18.1-.4-.42.1-.69-.09-.7.6-.2-.5-.62-.33-.69-.09l.44.12c-.13.19-.3.27-.48.35l-.32-.6c-1.15-.15-.33,2-1.66,1.3.11.5.56,0,.73.54-.36.15-1.25-.36-1.35-.3-.64.02.21,1.07-.37,1.2.2.15.64.61.46,1.03-.36.16-.98-.51-.91-.8.06-.07.14-.04.19.03.04-.14.11-.32-.17-.44l.11.22c-.3-.08-.69.25-.84-.13-.09.36.14.38.39.36-.6.02-.61.45-1.14.58.14.05.38.23.31.27-.76.22.03.56-.3.95-.44-.11-.46-.75-.66-.19-.39,0-.44-.46-.47-.68-.07.64-.85.29-1.11.38l.07-.3c-.04.18-.13.25-.23.32l.4.29c-.16.02-.25.09-.38-.06.08.34.58.56.62,1.07-.3-.07-.29.56-.73.1.6-.19-.45-.46-.12-.85-.03.12-.12.19-.29.21-.06-.04-.07-.11-.06-.17-.79-.09.24.73-.23,1.07-.16-.33-.53-.45-.56-.33.19-.14.46.4.46.75-.47.01-.19.42-.36.51l.25-.03c.16.33-.01.4-.15.66-.19-.2.07-.29-.08-.33.17.67-.92-.1-.97.48-.3-.07-.44-.51-.67-.54-.07.64-.69-.07-.82.52.41.29.35.18.39.76l.4-.76.05.86c.19-.14.2-.55.36-.58.06.46,0,.35.34.59-.71-.36-.23.73-.83.59l-.74-.93c-.77-.05-.39,1.11-1.14,1.33h.32c.22.44-.31.35-.37.65-.23-.32-.44-.34-.68-.47.19.22-.43.31.02.97l-.58-.2c-.59.21.19,1.3-.33,1.55-.14-.44-.52-.5-.42-.97-.15.11-.33.17-.15.38-.24-.12-.07.75-.44.56.05.19.29.52.11.63-.07-.05-.13-.16-.13-.16.12.16-.09.42.34.64-1.23-.58-1.19,1.11-2.25.62-.23.37-.53.78-.8,1.05-.06-.11-.13-.15-.05-.17-.63.05.49,1.07-.22,1.14-.65-.29.01-.46-.29-.53-.91-.95-.43.59-1.22.26l.02-.12c-.52-.14-.24.85-.68,1.1,0,0-.05-.1-.13-.15.17.73-.17,1.31-.4,1.76-.22-.48-.01-.35-.42-.68-.11.19.59.59.36.98-.29-.12-.68-.11-1.07-.5l.28-.29c-.62-.41-.38.35-.62.4l-.18-.25c-.4.48.11,1.09-.42,1.48l.21.13c.24.83-.52-.13-.41.54l-.6-.53c-.05.3-.13,1.13-.35,1.52-.21-.6-.03-1.15-.02-1.62-.18.15-.57.57-.4.95.02-.12-.01-.34.13-.31.19.66.11,1.14-.26,1.44-.95-1.21-1.18.51-2.23-.15-.24.98-1.4.92-2.06,1.64,1.05.67-.19.22.68,1.09-.11.21-.19.25-.26.21l-1-.09c-.36-.16-.02-.34-.22-.54-.43.26-.5-.25-.97-.27.34.28.3.58-.03.64l.68.16c-.07.95-1.14-.37-1.22.58l-.09-.44c-.11.41-.99.88-.58,1.85-.14-.06-.43-.25-.38-.43-.73.47-.69,2.07-1.59,2.07l-.15-.27c-.06.17.18.6-.17.52-.07-.1-.15-.26-.22-.23,0,.13.05.68-.23.69l-.09-.37c-.88.27-.38,1.48-.75,2.09-.6-.65-1.28-.42-1.62-.29l-.08-.1c-.78.59-.7,1.67-1.11,2.54-1.07-.32-1.65,1.01-2.67,1.24.21.02.46.52.41.69-.27.01,0,.84-.54.23l.07-.04c-.66-.46-.84-.01-1.09.21l.7.81c-1.7-.49-1.26,2.03-2.57,1.37.03.34-.16.52-.12.86l-.39-.42c-.52.31-.79.46-1.22,1.07l-.18-.4c-.32.26.78,1.54.54,1.83l-.68-.52c-.51.51-1.54.5-1.5,1.55-.08-.09-.24-.29-.18-.39-.25.22-1.33.52-.42,1.26-.4-.39-.52.06-.57.52.84-.1,1.69-.17,2.57-.19,1.2-.03,2.33,0,3.41.09-.13-.49.99-.35.29-1.15.83,0,.86.28,1.73-.01.19-.11-.28-.76-.17-1.04l.44.44-.19-.73.66.4.07-.29c-.1.05-.35-.05-.46-.19.09-.48,1-.37,1.23-.15l.31-1.04c.16.19.11.37.13.57-.08-.81.52.41.44-.34-.14-.06-.23-.29-.31-.39.43.11.81-.25.98-.63l.24.36c.58-.4.93-1.16,1.5-1.7-.34.05-.81-.53-.68-.74l.52.41c-.17-.4-.34-.01-.46-.58.27-.15.66.4.68.68l.1-.41c.15.13.16.26.32.46-.18-.4.9.05.56-.6l.15.13c.57-.54.68-.95,1.11-1.41-.38-.42-.11-.5-.28-.97.47-.19,1.15-.21,1.54-.63.1-.48-.24-.43-.34-.8.37.36.76-.06.79.41.44-.52.57-.67.92-1.56-.21-.09-.35-.09-.43-.25.06-.17.41-.08.56.11v.07c.19-1.22,2.66-.4,2.5-1.71v.07l.22-.95c.33-.18.09.44.51.49.07-1.21,1.09-.81,1.24-1.71,1.42.77,1.38-1.38,2.58-1.14l-.27-.24c-.09-.39.31,0,.47-.03-.2-.19-.37-.1-.41-.33.92-1.4,2.87-1.8,4.32-2.64.52-.32-.95-1.63.19-1.48l.27.64c.4-1.42,1.91-1.62,2.4-2.9.05.16.17.32.08.39.5.21.73-.58.48-.89.17-.09.26.24.48.32.38.05.09-.88.5-.6.07.05.05.17.03.22-.03-.29.63-.45.15-.78.52-.09.5-.75.99-.73-.22-.63.78-.27.28-.99.56.72,1.07.05,1.02-.45.1.27.38.06.53.43.24-.21.37-.53.03-.86,1.16.46.38-1.44,1.52-.57.44-.99.92-1.81,1.46-2.52.55.72-.69.68-.06,1.4.4-.81.28-1.72,1.05-2.07.24-.04.15.38.2.55.4-.81,1.29-.93,1.56-1.77.05.07.05.19.03.29.09-.11.35-.11.07-.42l-.04.17c-.56-.32-.33-1.33-.5-1.6.54,1.08.75-.21,1.38,1.2.03-.12,0-.35-.19-.55.16-.03.29.07.38.41.27-.5-.15-.73.22-1.01.12.16.09.27.2.49-.05-.46-.11-.91.31-1.02.05.11.19.2.09.27.5-.47.27-1.54,1.09-1.7.36.82.38.07.87.64l.18-.42-.35-.19c.29-.2.2-.83.59-.81l-.02.4.44-.52h-.47c.05-.52-.61-.72-.11-.85-.03.12.29-.21.71.03,0-.29-.02-.6.3-.61.2.15.46.69.6.79-.25-.6.55-.64.31-1.3.04.17.28.48.34.53l-.19-.49c.23.03.29.08.46.34.44-.22-.71-.66,0-.69-.01.06.05.11.03.23.6-.19.7-.95,1.28-1.07.58.5-.26.44.27.83.53-.58.73-1.7,1.44-2h-.16c-.56-.9.77.1.77-.52-.03.12.25.55.21.44.52-.17.69-.84,1.11-1.57l.09.27c.39.01.72-.36,1.06-.46-.09-.27.09-.36-.23-.6,1.74.66,1.05-1.83,2.54-1.3-.09.07-.07.34,0,.3l.47-.65c-.32-.34-.25-.17-.59-.37-.09-.28-.03-.58.12-.69-.1.45.44.6.71.72-.1-.1-.15-.25-.25-.37.81.44-.5-.8.27-.66l.12.22c.09-.22.05-.59.28-.67.39.38-.03.33.22.7.23-.21-.1-1.18.44-.91-.02.2-.17.31-.19.51.62.33.55.18.79.13h-.03l.59-.07-.21-.06c-.5-1.36.49-.67.38-1.72.09,1.01.22.46.55.98.21.06.48.09.53.27-.09-.54.56.07.42-.71.13.15.22-.14.46.3.17-.31-.26-.24-.38-.45,0-.84,1.42,0,1.46-1.15.28-.66,0-1.27.27-1.86.34.15.28.68.28.68.42.06.58-.11.69-.46.05.17.18.25.38.39.16-.17-.28-.68.13-.61.08.21.23.54.26.78.12-.3.13-.76.27-1.07.25.23.15.52.2.77.17-.31.5-.73.27-1.23Z"/><path class="cls-3" d="m142.3,67.29c.27.08.3-.68.46-1.07.38-.12.02.57.03.97.25-.14.58-.75.73-.68-.02.12,0,.17-.08.31.38-.51.65.15,1.11-.49,0,.07,0,.13-.02.19.06-.37.16-.74.25-.99.13.03.37-.38.28.1-.07-.04-.13.15-.21.28l.19-.16c-.08.71-.25.17-.4.67.32-.14.79-.61.93-.36-.16.67-.53.08-.44.74l-.23-.34c-.08,1.1-.16-.13-.28,1.04.34.3.54-.2.87.11.2-.34.14-.54.35-.88.78-.46-.09,1.77.6,1.05.26-.39.58-1.2.72-.66l-.35.7c.35.2.58-.98.81-.34-.18.26-.39.13-.36.24.05.67.33-.35.53-.27l-.19.66c.44.05,1.06-.26,1.56-.2-.1.18-.25.35-.22.59.69-.11,1.18.55,1.57,1.14l.43-.46s0,.28-.11.37c.13.3.15-.34.34-.52.13.01.03.38-.11.51.56-.32,1.48-.56,1.64.19l-.15.13c.21.35.82-.97.89-.34l-.09.07c.57.52,1.53.34,1.69,1.38.43-.74.52.63,1.03-.44.15.71-.04.85.34,1.45.12.11.51-.59.74-.62l-.24.57.5-.5-.17.74.23-.07c-.05-.06-.03-.32.05-.48.38-.14.46.68.34.97l.82-.22c-.11.22-.25.26-.4.37.58-.44-.2.62.33.22.01-.15.17-.33.23-.44,0,.41.34.56.66.53l-.22.37c.42.3,1.05.23,1.56.47-.1-.26.24-.93.42-.92l-.21.62c.26-.33-.05-.29.34-.66.16.15-.17.74-.37.89l.32-.11c-.07.19-.16.25-.27.48.26-.33.13.78.56.19l-.07.18c.51.23.83.13,1.26.29.24-.51.35-.33.67-.69.24.3.39.86.78.98.38-.14.27-.4.53-.66-.19.48.19.6-.15.85.48.13.6.16,1.34.03.03-.22,0-.34.11-.48.13-.03.14.3.03.52l-.05.03c.95-.42.82,2.02,1.76,1.28l-.05.03.75-.27c.2.19-.3.29-.26.66.92-.52.83.52,1.52.21-.29,1.54,1.3.49,1.37,1.6l.13-.34c.28-.26.06.26.11.38.11-.26,0-.36.16-.5,1.23.11,1.93,1.49,2.85,2.29.35.27,1.03-1.56,1.15-.56l-.43.53c1.13-.34,1.6.8,2.66.57-.11.11-.2.3-.27.26-.05.52.59.32.76-.04.1.1-.13.34-.14.55.03.34.68-.35.56.12-.02.08-.11.12-.16.13.21-.16.47.3.61-.26.17.38.66.05.74.46.43-.48.36.51.8-.26-.42.81.18.91.55.62-.18.21.03.34-.21.64.21.09.48.03.65-.4-.11,1.17,1.16-.4.75.96.83-.13,1.56-.14,2.2-.05-.43.8-.65-.23-1.06.63.69-.07,1.35-.61,1.76-.15.08.18-.26.31-.37.43.69-.07.97.59,1.66.39-.04.07-.13.13-.21.17.11.02.16.23.33-.15l-.14.05c.13-.61.94-.93,1.1-1.2-.7.97.32.5-.61,1.71.09-.04.26-.18.38-.43.05.12,0,.28-.23.51.43-.03.52-.48.81-.31-.09.17-.19.21-.33.41.33-.27.66-.54.83-.26-.07.1-.11.26-.19.21.46.17,1.21-.54,1.51.04-.54.7.03.34-.29,1.01l.36-.07.07-.38c.21.13.66-.26.74.06l-.31.19.48.09-.1-.38c.4-.23.42-.85.62-.52-.09.03.21.13.13.58.22-.15.45-.32.53-.06-.07.24-.42.72-.47.87.4-.5.6.12,1.05-.4-.12.11-.31.46-.33.54l.33-.4c.03.2,0,.27-.16.54.27.25.35-.89.52-.34-.05.02-.07.09-.17.13.27.38.87.09,1.09.5-.26.72-.38,0-.57.63.55.13,1.44-.26,1.82.15l-.05-.12c.57-.91.1.65.58.34-.09.04-.36.48-.29.38.24.32.79.13,1.43.09l-.19.21c.07.32.43.4.58.62.2-.21.29-.11.41-.5-.12,1.72,1.6-.07,1.54,1.38-.07-.03-.27.12-.22.15l.6.04c.19-.43.07-.28.15-.65.19-.21.43-.32.55-.26-.36.15-.36.66-.39.93.05-.13.16-.26.22-.38-.15.86.5-.8.56-.12l-.13.2c.19-.04.46-.25.56-.12-.2.5-.26.15-.48.53.21.08.87-.68.79-.11-.15.09-.27.02-.43.11-.11.66-.02.53.07.7v-.02l.18.43v-.2c.93-1.09.61.05,1.38-.57-.74.58-.29.41-.62.93,0,.19.03.43-.09.56.4-.34.07.48.63-.03-.09.18.15.11-.12.52.28-.03.12-.32.26-.53.64-.42.32,1.11,1.21.56.56-.11.96-.65,1.48-.74-.03.34-.45.56-.45.56.05.36.21.4.51.3-.12.13-.15.27-.21.5.17.04.45-.56.5-.21-.14.17-.36.45-.54.6.26-.06.61-.28.87-.34-.12.32-.36.39-.54.55.27-.02.66.02.99-.41l-.03-.24c.09.02-.19.42-.29.48-.38.28-.15-.3-.06-.48l.19-.04c.44-1.07-.6-.13-.82-.33l.52-.66-.6.46c.05-.22.25-.65.44-.68.02-.46-.31.17-.24-.32.02-.07.05-.1.08-.12l-.3.11c.12-.14.26-.53.31-.36-.08-.6-.82.26-.63-.37l.05-.03c-.58,0-.34.51-1.03.95l.52-1.45-.34.51s-.1-.13.03-.34c-.38.27-.1.25-.4.54.05-.61-.74-.11-.31-.99-.31.36.03.43-.36.58.45-.96-.36,0-.32-.53.33-.44.38-.08.42-.62-.57.73-.3-.4-.55-.34-.36.64-.52.06-.92.11.14-.21-.34-.65-.48-1.03l.07-.1c-.41.62-.62.34-.89.37.22-.38.34-.52.54-.63l-.19-.1c-.16.18-.28.26-.44.27l.32-.46c-.27-.11-.82.3-.96-.21-.27.44-.44,1.4-.94,1.52.12-.25.33-.68.48-.72-.05.01-.21.15-.21,0l.36-.34c-.05-.26-.27.3-.36.2.19-.35.05-.3.21-.56.05-.02.02.2.14.09-.1-.13-.15-.43-.05-.73-.09.21-.25.47-.38.46-.26-.11.14-.47.09-.72-.19.21-.21-.13-.5.39-.07-.04.05-.29.09-.45-.26.16-.64-.26-.8.37v.05s0,0-.02.01c-.71.29-.72-.77-1.27-.78l.09-.18c-.36.06-.62-.19-1.01.09-.07-.04,0-.42.14-.6-.26.03-.39.22-.52-.23.36-.2.08-.31.32-.11-.17-.29-.08-.6-.6-.26.33-.4.11-.66-.08-.6v.42c-.17,0-.26-.11-.36-.21l.38-.56c-.13-.99-1.58.73-1.33-.68-.36.34.13.44-.26.86-.2-.21,0-1.19-.07-1.23-.15-.5-.76.7-.98.3-.07.23-.32.82-.68.88-.19-.2.17-1.04.41-1.13.07.01.06.09.02.16.12-.04.27-.07.29-.35l-.14.19c0-.28-.34-.42-.09-.73-.29.11-.26.31-.18.49-.15-.46-.48-.25-.68-.63-.01.14-.09.42-.14.39-.32-.5-.42.29-.77.23,0-.42.46-.74,0-.63-.08-.32.26-.58.42-.72-.5.26-.4-.55-.52-.71l.24-.09c-.14.05-.21.01-.29-.03l-.13.47c-.05-.12-.13-.16-.03-.34-.24.23-.3.74-.67,1.03,0-.27-.48.05-.23-.54.28.38.25-.59.61-.52-.09.03-.17,0-.22-.13.02-.07.07-.11.11-.13-.1-.69-.5.55-.86.35.21-.29.22-.64.13-.61.15.08-.2.56-.46.74-.11-.37-.36.05-.46-.04l.08.19c-.21.29-.31.19-.52.21.11-.25.24-.09.24-.24-.47.46-.12-.79-.57-.54,0-.28.3-.6.26-.81-.5.27-.09-.6-.56-.41-.13.47-.06.38-.49.68l.65-.05-.64.46c.15.08.46-.11.5.01-.33.27-.26.18-.37.56.12-.75-.6.17-.61-.39l.54-1.05c-.12-.66-.91.22-1.24-.28l.05.26c-.27.39-.32-.09-.55.01.2-.35.16-.52.21-.78-.13.27-.33-.2-.73.49l.03-.57c-.28-.38-.93.8-1.24.5.3-.33.26-.66.64-.82-.12-.07-.19-.18-.32.06.04-.25-.57.31-.52-.08-.13.13-.33.5-.45.4.02-.08.09-.17.09-.17-.09.17-.33.13-.41.58.18-1.29-1.08-.43-.93-1.54-.32-.01-.7-.05-.95-.14.07-.1.09-.18.11-.12-.17-.5-.71.93-.9.37.09-.67.35-.22.34-.49.52-1.2-.53-.06-.45-.87l.09-.04c0-.5-.69.21-.97-.02,0,0,.07-.09.09-.17-.51.5-1.01.5-1.4.52.32-.42.25-.18.42-.67-.17,0-.32.77-.66.77.03-.29-.05-.61.16-1.12l.27.09c.18-.71-.34-.14-.42-.32l.15-.27c-.44-.1-.79.61-1.19.36l-.06.24c-.57.6,0-.49-.48-.07l.28-.75c-.24.1-.87.44-1.21.44.41-.46.86-.58,1.21-.8-.15-.08-.54-.19-.79.13.09-.04.26-.18.26-.04-.46.48-.83.64-1.13.48.71-1.37-.62-.73-.33-1.91-.78.26-.96-.72-1.63-.93-.28,1.19-.19-.05-.68,1.08-.18,0-.23-.04-.21-.12l-.13-.87c.05-.38.25-.18.36-.44-.28-.24.09-.54.01-.93-.14.42-.38.52-.49.28l.02.64c-.72.39.05-1.11-.68-.74l.3-.29c-.33.1-.85-.4-1.49.39.02-.15.11-.48.24-.51-.5-.39-1.67.39-1.85-.36l.17-.26c-.14.03-.42.43-.42.1.06-.11.17-.26.13-.29-.1.07-.49.36-.56.13l.25-.25c-.38-.6-1.17.37-1.71.36.36-.81.05-1.26-.1-1.49l.06-.11c-.59-.38-1.38.19-2.1.25.03-1.04-1.07-.92-1.44-1.66.03.19-.3.62-.43.66-.07-.23-.62.4-.28-.34l.04.03c.21-.78-.16-.7-.36-.82l-.46.96c.04-1.67-1.74-.14-1.5-1.54-.25.18-.42.11-.66.29l.24-.52c-.33-.3-.5-.45-1.03-.53l.26-.34c-.26-.15-.99,1.37-1.25,1.29l.26-.81c-.48-.19-.66-1.08-1.43-.57.05-.11.17-.34.25-.33-.21-.11-.64-.89-1.01.22.29-.71-.46-.28-.85-.07l.26-.5c-.49.57-.57.75-.95.81-.05-.09.11-.44.15-.27-.13-.37-.39.42-.56.02l.24-.29c-.23-.14-.28.05-.58.38-.24.15-.42-.32-.27-.81-.15.27-.44.6-.53.41.05-.19.15-.28.2-.32-.28-.52-.85.36-.95-.26.06-.18.07-.27.07-.33.33.14.58.28.54.3.19-.48-.05-.67.42-1.26-.36.28-1.03.93-1.21.6,0-.05,0-.1.03-.18l.05-.05c-.04-.07-.11-.05-.19.01-.05-.11-.09-.19-.17-.23.12-.42-.24-.34-.36-.4-.18.54-.33.38-.32.89,0-.05.05-.05.15-.04.03,0,.05,0,.08-.03l-.03.04c.09.01.21.05.35.09-.21.23-.4.42-.44.07-.19.32-.4.64-.5.79.09-.8-.13-1.34-.01-1.82-.52.15-1.07-.15-1.67.77-.16.09-.04-.33-.03-.51.1-.08.18-.03.27-.17-.32.17-.74-.13-1.03.56-.2-.42.38-.6-.07-.62l.13-.2c-.49-1.4-1.87,1.41-2.36-.3.04.11.06.16.04.28-.89-.94-2.29.07-3.14-1.16-.27-.27-.38.19-.62.52l.03-.61-.43.64c-.51.45-.57-1.6-1.27-.7l.03.42c-.19-.1-.67.17-.59-.29-.03.07-.11.42-.17.19l.03-.32c-.19.16-.37.32-.55.5-.38-.26.16-1.26-.42-1.36-.23.11-.67.89-.59,1.11.09.02.21.22.2.53l-.19.16c-.08.93-.24,1.89.15,2.56l.33-.55.07.46h-.25c.11.45.23.08.35-.17,0,.24.03.42.09.51l.36-.87c0,.37-.19.71-.01.93.17-.4-.06-.83.19-1.08.11.44.03.78.24.44,0,.24-.05.39-.13.49.18-.28.4-.08.54-.57.09.53.52-.07.4.81.07-.2.36-.65.5-.67-.4,1.02.5.13.26,1.26.34-.91.72-.3,1.15-.76-.03.07-.1.21-.11.16.17.11.17.41.25.61.18-.77.5-.89.76-1.33.07.79-.34.88-.42,1.6.12-.63.52-.54.56-1.08.07.5.1.26.04.91.25-.95.19-.12.48-.68.13.53-.15.91.19.68.05.32-.27.6-.27.6h.03Zm6.95.43h0c-.06,0-.11,0-.15,0,.03,0,.07,0,.15.01h0Zm.55.2c-.06-.05-.14-.08-.23-.11.05-.19.14-.37.19-.34-.07.11.01.26.03.45h0Zm.22-4.11c.12-.04.11.07.08.19-.05,0-.1,0-.18,0-.01.02-.02.04-.03.06.05-.1.09-.19.13-.25h0Z"/><path class="cls-3" d="m118.1,367l1.33-.53c-.26-.11-.53-.23-.79-.35-.17.04-.35.1-.57.22.4.24.49.21,0,.55l.22,3.11c.07-.03.2-.07.35-.11h-.34l-.2-2.89Z"/><path class="cls-3" d="m162.72,384.65c-.5-1.29-1.1-2.76-1.85-4.32-.1.39-.2.47-.29.43-.09-.04-.17-.21-.27-.42-.2-.41-.47-.95-.92-.69-.1-.18-.19-.34-.25-.47-.06-.12-.1-.19-.12-.25-.06-.14-.07-.21-.05-.25l-.23-1.97c.08-.53.45.44.64.29-.5-1.27.16-.7.03-1.64-.26.32-.68-.21-.88-.98l.03,1.19c-1.25-1.44-.02-1.83-1.07-3.2.01-.01.03-.03.04-.04l.38.28c-.08-.11-.16-.25-.25-.4.37-.34.8-.63,1.08-.65-.18-.08-.35-.27-.13-.64.66-.88.55-.04,1.08-.44-.01-.35.61-.75.24-1.07.1-.12.2-.15.29-.17-.94.02-1.89.06-2.83.07-.03.04-.07.07-.1.1-.24.3-.45.61-.64.94-.24-.4-.49-.77-.77-1.06-1.5,0-3-.02-4.5-.08.34,1.35.71,2.61,1.51,3.34l-.09-.09,1.03,1.38c-.31.53-.63,1.06-.92,1.59.42.08.35-.1.85-.28.03.35-.16.95-.46,1.37.33-.92-.52-.35-.93-.13.14.01.16.2.29.24-1.2.52.53.59-.7,1.58l-.12-.18c-.06.13-.1.26-.14.4-1.16-.76-2.33-1.48-3.6-1.94.24,0,.33-.15.62.02-.21-.36-.79-.7-1.33-.92-.54-.23-1.07-.28-1.16-.15-.46-.29.03-.32-.17-.62-.53-.56-1.85-.4-2.01-.94-.02-.06.11-.05.24-.02-.59-.16-1.81-.93-1.62-.36-.53-.38-1.11-.6-1.65-.81-.15-.05-.28-.11-.42-.16-.11-.81-.22-1.64-.26-2.48.17.11.35.43.52-.01-.06-.51-.09-1.04-.1-1.57-.18-.02-.37-.03-.55-.05-.02,0-.04,0-.05.01,0,.1,0,.2,0,.31-.16.08-.33,0-.33-.23-.75.19-1.52.35-2.29.47,0,.01-.02.02-.02.03,0,0,0-.02,0-.03-.1.02-.19.03-.29.04.11.46.16.92.09,1.32-.04.05-.08.1-.15.14l-.05-.11c-.05.25,0,.47.07.68-.02.08-.03.13-.04.2-.22-.58-2.02-1.12-2.79-1.04.34-.13-.59-.45-.19-.65-.33-.11-.67-.19-.94-.24-.19,0-.38,0-.57,0-.13.04-.21.11-.2.24-.09-.1-.18-.18-.28-.25-4.06-.12-8.18-1.04-12.03-2.61-.1.09-.17.16-.2.2-.18,0-.36,0-.54,0,.21-.1.41-.19.59-.26-.14-.06-.27-.12-.4-.17l-.55.42c-.11,0-.22,0-.33,0l.02.25-.07.05s.05-.02.07-.02l.02.32c-.13.07-.27.14-.41.2l.1,1.43c.14,0,.28,0,.42.04l.05.66c.1-.03.21-.06.32-.09l-.1.58c.72.33,1.39.3,2.14.26.74-.03,1.55-.04,2.49.26l-.59-.29c.34-.33,1.21.16,1.87.16-.13.31.24.52.45.78.02-.25,1.39.35,1.73-.25.25.21.5.41.74.64,1.47.62,2.01-.44,3.46.14-.55.2.04.63-1.01.58.49.14.9.36.98.13.22.29,1.49.02,1.83.47.25-.07.44-.39.97-.16.03.08-.06.15-.06.15.06-.15.93.11.58-.42.57.78,1.61,1.12,2.63,1.51.24.09.48.19.71.28-.43.75-.72,1.67-1.04,1.83.26,1.67.17,3.93,1.07,4.99.11.48-.25.54-.39.72-.09-.27-.07-.6-.2-.75.23.95.09,2.81.71,3.04-.28,1.2-.57-.67-.47.98l-.19-.22c-.99,3.24,1.59,5.26.31,8.85.08-.25.11-.38.22-.43-.56,4.09.53,8.43-.37,12.47-.18,1.15.22,1.27.52,1.97l-.51.25.59,1.2c.43,1.7-1.25,2.94-.44,5.09l.34-.27c-.07.77.2,2.44-.19,2.31.06.08.35.25.18.56l-.26.02.45,1.9c-.19,1.47-1.06-.23-1.1,1.92.1.8.77,2.27.95,1.97.01-.32.17-.82.43-.85l.14.73c.79.13,1.59.69,2.13-1.1l-.48-1.25.38-.4.02,1.05c.36-.59.04-.98-.17-1.4.2-.1.34-.27.42-.52l-.75-1.23c.31-.15.61.55.78-.27-.35-.57-.69.55-.92-.4.36-.59.65-.42.34-1.12.2-.1.33.05.42.33-.24-.62-.1-1.65-.52-1.97.44-.62-.11-2.11.63-2.04-.18-.2-.58-1.1-.61-1.67.89,1.05.05-2.15,1-1.87-.8-.77-.35-2.8-.8-4.17.06.08.19.23.15.35.07-.77.31-1,.46-1.49-.66-.1-.81-1.3-1.22-1.95.63-.95.77.58,1.39.28-.53.04-.53-1.64-.98-1.32.39-.72.19-.62.74-1-.83-.13-.14-.67-.65-1.27.11-.27.21-.42.3-.51l.25.41-.02-.59c.09-.08.11-.2,0-.71.1-.05.21-.07.31-.06.07.09.12.21.16.32,0-.13-.03-.23-.05-.3.11.06.18.19.11.46.66-.58.08-.75.73-1.21.09-.04.1,0,.1.08l.15-.8c.07.2.5.1.2.49.96-1.1.54-2.28,1.25-2.52l-.02.12c.68-1.85-.38-.4-.24-2l1.59-.29-.37-.41c.11-.17.34-.5.48-.34.05-.83-.26,0-.34-.54.86-.65,1.11-2.47,1.94-2.25-.17-.5-.72.66-.44-.38.92.18.46-1.13,1.27-1.69.25.47-.39,1.06.42.51-.39-.85,1.03-1.39,1.29-2.11-.49-.33.51-1.38,1.05-2.49.92.29,1.95.87,2.79,1.32-.58.11-.61-.16-.67.34.25.14.32-.02.45-.15.07-.07.15-.12.27-.12.13,0,.3.03.58.22.2.46.98,1.33,1.06,2.01l-1.28-.99c.19.54.67.92,1.11,1.19.46.28.88.44,1.22.79l-.06.29c.25.19.47.34.66.46.19.12.35.21.52.33.31.21.54.31.74.39.42.17.73.25,1.56.99.05.02.12.04.21.08l-.38-.54c-.02-.61.26-.25.52.08.27.35.53.66.6.44l.85,1.28c.11-.06.29-.16.56-.1.25.06.55.34.89.63-.1-.04-.27-.14-.43-.17-.06-.03-.17-.01-.25.02-.08.03-.16.09-.2.17.16.06.48.1.67.16.17.08.32.14.32.09-.1-.06-.14-.01-.32-.18.01-.21.44.13,1.07.71l.07.07s-.02-.07-.03-.1c-.02-.07-.05-.14-.07-.21.08.11.07.02.08-.14,0-.16,0-.42-.02-.69-.01-.53-.12-1.24.63-.79-.12-.43-.18-.8-.15-1.09-.58-1.25-1.01-2.4-1.53-3.7Zm-5.27-12.3s-.06-.08-.1-.12l.11.08s0,.03-.01.04Zm.35-.39c-.03.06-.11.12-.19.19-.04-.07-.08-.14-.12-.22.12-.04.21-.11.31.02Zm-3.86,2.09s-.06.05-.1.07c.02-.03.05-.07.07-.11l.03.05Zm-14.88,27.4l.09-.12c-.02.07-.06.1-.09.12Zm9.54-19.68c.42,1.52-.96,1.98-1.05,3.61.09-1.58-.24-.42-.63-.76-.32.25-.74.65-.78.44,0,.8-.85.83-.81,1.97-.16-.05-.38.63-.66.3-.33.84.35-.04.49.12-.1.73-.63,1.36-1.17,2.07-.54.71-1.11,1.5-1.21,2.56-.49,1.66-.15,2.18-.57,3.72-.47.36-.35-.65-.35-.65-.46.51-.7.99-.87,1.56-.14.01-.28.02-.4-.06-.17-1.4.46-.64.77-1.12-.16-.87-.73-1.54-.71-2.19.1-.05.14-.17.27-.03-.49-.93-.02-2.74-.65-3.82.06-.08.11-.12.15-.14-.31.17-.63.2-.85.16-.01-.53-.39-.98.01-1.17-.01.32.15.35.28.5l-.17-.55c.58-.49.2.75.63.75-.19-1.07-.67-2.33-.51-3.14.57-.17.19,1.92.7.82l-.22,1.27c.9-.97-.06.77.9-.12.17-1.68-.29-1.87-.12-3.54-.32-.38-.47.12-.79-.25-.57-2.38,1.44-1.87.67-3.62-.38-.45-1.1-.63-.72-1.87l.65.43c.06-1.62-.93-.92-.49-2.62.25.3.21,1.27.29,1.03.47-1.01-.23-.83-.34-1.46.91.34,1.9.72,2.65,1.09-.1.06-.08.14-.23.02,1.09.93,1.21-.44,2.46.62.47.85-.89-.15-.54.28-.17.54.28.71.83.93.55.21,1.23.44,1.53.98l-.26-.08c.25.37.74.52,1.29.7.36.12.76.26,1.14.44,0,0,0,0,0,.01h0s0,0,0,0l-.95,1.07.32-.24Zm9.27,1.59s-.01.01-.02.01c0,0,0,.02-.06-.06-.43-.51-.87-1.06-1.21-1.5-.34-.44-.58-.79-.69-1-.04-.07-.06-.12-.08-.16.03.09.15.6.16.94,0,.2-.01.35-.09.36-.07.01-.21-.14-.32-.45.09-.16.16-.35.19-.55-.05.07-.13.08-.23.07-.04,0-.09-.02-.14-.04-.14-.08-.37-.23-.54-.34-.7-.45-1.39-.94-2.07-1.44.15-.17.29-.33.42-.45l.07.08c-.39-.54.4-1.46.8-2.25.29.24.31.45.17.94l.47-.68c-.03-.16-.02-.32.05-.52.59,1.21.79,2.32,1.67,3.43-.03.11-.05.23-.06.35,0,.06,0,.12,0,.18,0,.06.01.14-.01.14-.06.08-.1.13-.11.18-.04.08,0,.14.09.25.08.1.21.25.28.38.07.12.07.2-.16.02-.06-.04-.13-.1-.22-.18l.58.54c.63.67-.29-.21-.43-.35.49.52.52.48.89.89.25.37.43.7.53.92.04.11.07.2.08.25,0,.03,0,.04-.01.06Z"/></g></svg>