<?xml version="1.0" encoding="UTF-8"?><svg id="Layer_2" xmlns="http://www.w3.org/2000/svg" viewBox="0 0 955.48 383.18"><defs><style>.cls-1{fill:#fff;}.cls-2{fill:#4eb6ce;}</style></defs><g id="shapes"><path class="cls-1" d="m27.69,45.11c-47.07,45.22-25.17,154.74-.1,211.41,14.56,40.89,35.49,78.08,72.36,100.33,36.86,22.26,202.41,48.58,274.82-5.89,72.41-54.46,9.04-238.12-85.16-308.22C195.4-27.34,74.76-.11,27.69,45.11Z"/><path class="cls-2" d="m463.98,362.49c0,1.29.22,1.45.52,1.2.48-.38.72-.88,1.33-1.24,3-.41.59.8,1.23,1.34,1.11-.18,2.16-.55,3.03-.86.88-.31,1.58-.58,2.22-.58.06.18.32.24-.02.48.26-.12.54-.21.83-.28.14-.04.29-.07.45-.1.13-.02.27-.05.4-.07.38-.08.79-.1,1.22-.13.84-.07,1.71-.16,2.34-.74.1.09.15.19.18.27-.23-.55-.28-1.11-.25-1.51.63-.04,1.15-.74,1.41-.02-.39,0-.41.28-.58.51l.65-.33c.63,1.02-.89.39-.87,1.16,1.28-.38,2.75-1.28,3.75-1.02.24,1.01-2.3.41-.95,1.28l-1.54-.34c1.22,1.57-.93-.08.19,1.6,2.02.24,2.23-.59,4.24-.35.43-.58-.17-.83.26-1.41,2.82-1.1,2.31,2.49,4.37,1.08.52-.69.7-1.99,2.21-1.35l-.48,1.17c1.95.06,1.07-1.69,3.12-.96-.35.46-1.52.42-1.22.55,1.34.87.92-.68,1.93-.71l.24,1.01c2.07-.22,4.33-1,6.62-1.24-.12.31-.51.63.04.93,2.88-.58,6.18-.01,8.98.54l1.05-.9c.25,0,.47.39.2.56,1.09.31.05-.56.56-.92.62-.07.83.49.44.76,1.9-.78,5.44-1.7,7.47-.8l-.39.27c1.58.33,1.75-1.84,3.22-1.04l-.28.16c3.42.33,7.19-.53,9.81.77.48-1.27,3.39.53,3.59-1.24,1.96.86,1.41,1.18,4.16,1.74.73.08,1.08-1.11,1.99-1.3l.03.92,1.22-.98.66,1.1.85-.24c-.34-.05-.72-.41-.67-.68,1.33-.43,3.25.62,3.28,1.09l3.14-.8c-.07.37-.59.5-1.01.74,1.67-.95.31.97,1.84.1-.21-.21.11-.55.14-.74.77.56,2.51.55,3.8.31l-.25.64c2.33.15,4.91-.32,7.53-.31-.94-.3-.73-1.4.04-1.51l.31.98c.49-.6-.8-.37.21-1.11.98.11.66,1.11.1,1.43l1.19-.34c.07.29-.21.45-.28.82.49-.61,2.05.98,2.76-.08l.07.29c2.62.01,3.8-.32,5.93-.37.04-.84.88-.66,1.51-1.34,1.57.27,3.3.95,5.19.88,1.33-.41.39-.71.99-1.21.09.77,1.98.71,1,1.25,2.27-.12,2.89-.14,5.76-.74-.31-.32-.66-.46-.47-.72.52-.12,1.18.33,1.1.7l-.14.08c3.23-1.13,7.4,2.3,9.98.73l-.14.08,2.67-.81c1.22.15-.74.57.16,1.05,1.44-.63,2.57-.56,3.64-.45.27.03.53.06.79.09.09.01.33.02.56.03l.68.02c.91,0,1.85-.04,2.73-.25,1.02.58,2.36.87,3.81,1,.36.03.73.06,1.1.07.18,0,.37.01.56.02.17,0,.45.08.35-.19-.04-.76-.11-1.57-.19-2.38-.15-1.63-.33-3.25-.4-4.71-.03-.74-.04-1.44,0-2.12l.02-.25.03-.14c.02-.09.04-.18.07-.27.05-.17.12-.34.2-.5l-.53.17c-.56-.61.26-.79.36-1.27-.41.09-.44.72-.75.34-.95-5.38.09-11.23.13-16.82-.02-2.04-2.84-.94-1.78-3.59l1.05.65c-1.52-4-.67-8.38-2.06-12.29.25.22.55.2.58.59.64-.91-.27-3.13-.86-3.09,0-.63.51-.2.77-.61.34-.89-1.13-2.03-.46-2.56.11-.09.26.21.33.36-.4-.52-.18-2.58-.95-1.97.06-.39.05-.76,0-1.11-.02-.18-.05-.35-.09-.53-.04-.17-.07-.31-.13-.65-.2-1.17-.39-2.19-.27-3.36-.51-.42-.52-1.52-.57-2.55-.01-.26-.03-.5-.05-.73-.01-.11-.03-.21-.04-.31-.07-.04-.21,0-.3.01-.42.07-.82.23-1.17.55,1.36-1.35-4.07-1.12-5.61-.49.14-.1.12-.18.03-.25-.08-.07-.3-.13-.37-.19-.2-.13-.39-.27-.2-.56-1.08.01-2.08.26-1.9.96-1.98-1.63-4.03,1.29-5.13-.8-3.23.71-6.21,1.19-9.11,1.49.12-1.35,3.2-.12,3.09-1.54-2.75.54-4.35,1.7-7.07,1.36-.7-.19.41-.58.65-.81-2.75.54-5.31-.15-7.76.57,0-.13.27-.26.52-.36-.48.04-1.12-.2-1.07.41l.47-.16c.76.9-1.93,1.85-2.02,2.33.83-1.76-2.41-.46-1.09-2.68-.32.11-.72.4-.65.82-.47-.12-.62-.36-.14-.83-1.73.33-1.12.98-2.68.96,0-.3.32-.41.49-.76-.8.58-1.59,1.15-2.91.89.08-.18-.07-.41.32-.41-2.27.08-3.88,1.53-6.36.95.74-1.29-.84-.43-.97-1.55l-1.34.33.53.55c-1.17-.03-2.21.79-3.22.41l.87-.46-2.2.2,1.24.43c-1.19.57.12,1.42-1.44,1.1.32-.11-1.17-.02-1.78-.68-.58.35-1.18.72-2.05.44-.22-.36.19-1.24.04-1.48-.58.93-2.75.25-3.48,1.24.24-.23.26-.82.18-.94l-.48.76c-.54-.25-.62-.36-.53-.83-1.63-.15.51,1.42-1.42.8.15-.06.08-.17.4-.29-1.94-.33-3.76.46-5.55.08-.52-1.13,1.56-.27.96-1.22-2.58.19-5.35,1.32-7.84,1.05l.46.13c-.35,1.59-1.85-.79-3.12-.05.31-.12.41-.88.32-.7-1.71-.26-3.5.37-6.09.86l.32-.41c-1.01-.37-2.65-.22-3.74-.42-.32.41-.95.34-.57.93-3.35-2.34-6.4,1.22-9.37-.74.36,0,.85-.35.57-.35l-2.54.36c.2.69.33.42.86.96-.32.41-1.04.72-1.67.72,1.14-.45,0-1.11-.5-1.5.08.21-.09.45-.05.66-1.32-1.24-.23,1.39-2.03.55l.1-.36c-.68.18-1.3.66-2.03.55-.3-.8.72-.37.77-1.03-1.02.04-2.03,1.51-2.95.71.44-.22,1.06-.22,1.5-.44-1.01-.95-1.13-.71-1.88-.86l.07.02-1.73-.44.44.26c-1.29,2.08-2.61.37-4.34,1.73,1.68-1.29.28-.75.41-1.66-.44-.25-1.11-.54-.92-.8-.82.73-1.36-.58-2.52.48-.05-.29-.87-.03-.69-.77-1.06.22.25.51.16.88-1.64.99-3.84-1.23-6.2.13-2.03.55-2.41,1.54-4.29,2.02-.64-.47.52-1.06.52-1.06-1.03-.44-1.8-.36-2.76-.03.2-.25,0-.47-.3-.8-.78.07-.52,1.06-1.54.63.18-.32.4-.85.78-1.17-.91.26-1.82.81-2.76,1.07-.25-.51.57-.77.91-1.1-1.06.22-2.76.45-3.08,1.25l.68.29c-.39.04-.2-.69.09-.84.91-.63,1.31.29,1.37.58l-.67.18c.69,1.72,2.71-.26,4.06-.16l-.57,1.25,1.39-1.03c.3.33.5,1.02-.17,1.21.97.62.86-.44,1.7.25.09.11.05.17-.04.22l.95-.37c-.19.26.16.88-.43.7,1.7.73,2.75-.92,3.39.03l-.14.08c2.37-.41.23-.92,2.01-1.98l1.19,2.27.23-.91c.24.03.73.11.64.47.91-.62-.15-.4.37-.99,1.17.84,3.24-.37,3.5,1.09.42-.69-1.12-.54.13-1.02.35,1.57,1.45-.26,2.52.46-.33.81-1.35.37-.27,1.1.65-1.37,2.09.31,2.99.05.04-1.09,1.97-.44,3.49-.8-.1.36,2.86.61,4.27,1.01l-.04.18c.28-1.1,1.73-.89,2.8-1.11-.04.66-.24.92-.81,1.21h1c.24-.35.55-.54,1.2-.66l-.25.82c1.33-.04,2.68-.96,4.38-.4.1-.77-1.35-2.15.46-2.65.07.42.13,1.13-.34,1.29.15-.05.55-.34.86-.16l-.72.7c.78.31.41-.58,1.03-.51-.01.59.46.43.37.89-.16.06-.54-.25-.78-.02.7.11,1.55.47,1.83.92-.06-.34,0-.8.52-.87,1.33-.04.45.71,1.23,1.02.32-.41,1.17.02,1.19-.86.39,0,.46.42.61.66.69-.39,3.21-.1,2.44-1.04l-.18-.06s.07-.02.11-.04c2.26-.87,4.68.53,6.91.16v.3c1.33-.33,2.97-.19,3.92-.82.39,0,.93.55.76.9,1.02-.22,1.14-.55,2.61-.05-1.03.51.35.46-1.05.37,1.32.26,1.62.74,3.05-.06-.49.76.99.96,1.62.74l-.93-.55c.71-.11,1.33-.04,1.96.03l-.35,1c2.7,1.23,4.9-2.04,6.95,0,.72-.69-1.47-.5-.82-1.31,1.25.14,2.54,1.58,2.93,1.59,1.7.56,1.6-1.45,3.39-1.06-.23-.36-.44-1.31.9-1.64,1.25.14,1.52,1.5.73,1.78-.3.03-.44-.08-.43-.21-.4.13-.93.28-.44.67l.16-.36c.62.37,2.33.34,1.93.92.95-.34.41-.58-.29-.77,1.6.52,2.5.03,4.15.38-.26-.2-.5-.62-.24-.61,2.41.45,1.07-.67,2.71-.82.93.55-.34,1.29,1.31.85,1,.37.21.95-.2,1.23,1.51-.68,2.8.47,3.66.6l-.79.28c.47-.17.86-.16,1.26-.16l-.45-.71c.46.13.86.13.85.43.48-.46-.36-1.19.6-1.82.62.36,1.89-.38,2.1.57-1.95-.33.21.95-1.44,1.09.32-.11.71-.1,1.17.02.07.11-.07.2-.19.25,1.86.85.86-1.06,2.8-1.03-.25.53.44,1.01.76.9-.78-.01-.37-.89.35-1.29,1.24.42,1.35-.3,2-.25l-.74-.2c.26-.53.87-.46,1.74-.62.07.42-.79.28-.48.47.97-.93,2.16.98,3.5.36.62.36.05,1,.59,1.25,1.5-.68,1.62.74,3.2.18-.45-.72-.53-.54.59-1.24l-2.59.49,1.67-1.03c-.78-.01-1.65.44-2.12.32.8-.58.71-.4.34-1,1.06,1.08,2.12-.61,3.35.12l-.05,1.77c1.85.8,3.31-.89,5.72-.43l-.77-.31c.33-.7,1.49-.09,2.27-.37-.08.59.41.81.74,1.18-.04-.44,1.77.05,2-1.13l1.07.79c1.94.33,2.24-1.68,4.11-1.47-.57.64.28,1.06-.98,1.52.63,0,1.19.12,1.2-.29.36.37,1.75-.79,2.3-.22.13-.26.24-.88.73-.83.02.12-.07.29-.07.29.04-.29.89-.39.65-1.05.25.46.53.69.88.79.18.05.37.07.59.07.15-.05.09.15.13.22l.06.31c.15.78.36,1.79-.37,2.36.34,1.28.7,2.93.87,4.14-.18-.06-.29.03-.26-.21-.37,1.75,1.8.87,1.38,2.87-.86,1.08-.62-.97-.92-.32-1.91.46.5,2.3-.52,3.71l-.14-.3c-.57,1.05.97,2.35.97,3.99,0,0-.18-.06-.29.02,1.09,1.02,1.6,3.1,2.01,4.64-.8-.42-.46-.68-1.21-.31.17.69,1.22-.31,1.56,1.07-.38.49-.66,1.53-1.47,1.73l-.15-1.32c-1.01.76.18,1.7.05,2.41l-.47-.05c.31,2.01,1.49,1.94,1.57,4.13l.34-.25c1.25,1.1-.58,1.05.37,2.17l-1.16.44c.34.76,1.34,2.67,1.65,4.06-.93-.74-1.49-2.35-2.08-3.33.05.78.27,2.63.88,3-.14-.31-.45-.68-.29-1,.99.89,1.53,2.12,1.62,3.67-2.31-.13-.32,4.08-2.04,5.31.25.67.38,1.35.42,2.04.01.16.02.38.02.48,0,.07,0,.13-.02.2-.02.13-.05.25-.09.36-.08.23-.18.4-.26.56-.04.08-.07.16-.08.24.01.07-.05.05-.11.05h-.15c2,1.81-.27.05,1.13,1.9-.42.11-.65.08-.74-.04-.67-.37-1.17-.75-1.5-1.12-.2-.54.25-.4.16-.81-.12-.04-.15-.1-.24-.19-.16-.09-.22-.2-.27-.32-.1-.24-.13-.52-.67-.77.21.66-.58.93-1.51.67l1.3.86c-2.3.94-1.96-1.57-4.28-.63l.74-.57c-1.19.33-4.37-.06-5.55,1.4-.21-.21-.48-.72.04-.85-2.83-.26-6.31,1.52-8.5.59l.22-.45c-.53.13-.92.84-1.58.38.04-.19.22-.45-.03-.47-.28.15-1.41.77-2.11.51l.6-.5c-2.76-.6-4.24,1.21-6.56,1.51.01-1.32-2.16-1.76-3.24-1.97l.04-.19c-3.22-.17-5.46,1.08-8.44,1.6-1.85-1.43-6.26-.59-9.23-1.38.45.24-.07,1.03-.6,1.16-.7-.26-1.92.93-1.82-.29l.25.02c-.53-1.19-1.96-.86-3.08-.89l-.18,1.59c-2.94-2.29-7.65.9-9.27-1.15-.7.4-1.58.4-2.27.81l.03-.85c-1.96-.2-2.94-.29-5.35-.06l.49-.61c-1.36-.04-1.69,2.47-2.95,2.53l-.39-1.26c-2.38.05-4.8-1.03-7.13.16.04-.19.1-.55.48-.61-1.12-.02-4.35-.79-3.91.94-.05-1.13-2.46-.07-3.73.45l.19-.84c-1.07,1.09-1.09,1.38-2.6,1.7-.36-.1-.33-.66.15-.46-1.2-.42-.92.81-2.37.39l.53-.54c-1.23-.04-1.13.25-1.79.88-.77.35-2.34-.16-2.53-.92-.16.46-.82,1.09-1.55.89-.1-.28.16-.47.29-.56-2.07-.53-3.04,1.03-4.47.25-.04-.28-.13-.41-.25-.49,1.63-.02,2.95,0,2.83.06-.02-.77-1.34-.88-.31-1.96-1.05.6-2.83,1.91-4.12,1.58-.06-.07-.13-.15-.18-.26l.13-.09c-.3-.07-.56,0-.81.14-.41-.12-.68-.2-1.07-.21-.17-.63-1.52-.31-2.18-.32.08.84-.79.73.03,1.4-.11-.06.12-.1.56-.15.1-.03.21-.04.28-.09,0,.02-.03.05-.04.07.43-.03.99-.07,1.63-.09-.51.44-1.04.81-1.78.36-.32.55-.68,1.12-.88,1.38-.93-1.16-2.68-1.74-2.94-2.46-2,.53-4.72.44-5.94,2.06-.57.22-.67-.44-.89-.68.33-.17.72-.15.89-.39-1.13.44-3.38.26-3.62,1.37-1.45-.46.78-1.04-1.19-.8l.26-.35c-1.97-.83-3.53-.07-5.14.62-.81.35-1.63.68-2.52.79-.42.06-.97.06-1.34-.02-.34-.08-.68-.25-.91-.53.13.14.22.2.22.38-.78-.23-1.45-.27-2.26-.23-.01-.56-.07-1.1-.14-1.68l-.09-.9-.04-.47-.03-.68c-.06-1.88.04-3.74.63-5.55.32-1.38-.39-1.53-.93-2.37l.91-.3-1.05-1.44c-.77-2.04,2.22-3.54.77-6.12l-.61.33c.11-.93-.36-2.94.34-2.78-.11-.09-.63-.3-.32-.67l.47-.03-.82-2.28c.34-1.77,1.88.27,1.97-2.3-.18-.96-1.38-2.73-1.7-2.37-.02.39-.29.99-.77,1.02l-.25-.88c-1.4-.16-2.83-.83-3.8,1.32l.86,1.5-.68.48-.04-1.26c-.64.72-.07,1.17.32,1.68-.36.12-.61.33-.75.63l1.34,1.47c-.55.18-1.09-.66-1.39.33.62.69,1.22-.66,1.63.48-.63.72-1.15.51-.61,1.35-.36.12-.59-.06-.75-.39.43.75.19,1.98.93,2.37-.78.75.21,2.53-1.11,2.46.32.23,1.04,1.32,1.1,2.01-1.58-1.25-.09,2.58-1.79,2.25,1.42.93.64,3.36,1.43,5.01-.11-.09-.34-.27-.27-.42-.12.93-.55,1.2-.81,1.79,1.18.12,1.45,1.56,2.17,2.34-1.13,1.14-1.38-.69-2.47-.33.48-.03.71.46.93.92.11.22.21.42.34.69.13.22.28.29.47.13-.35.71-.43,1.05-.55,1.3-.12.26-.27.42-.76.97.73-.08.8.22.79.68,0,.45-.09,1.1.37,1.41-.72,2.54-1.37,1.57-.92,3.62-.22.81-.47.82-.65.56-.24-.25-.37-.75-.37-.75Zm36.82-1.88v.02c-.28.03-.52.05-.68.06.14-.02.34-.04.68-.08Zm2.76-.08c-.34-.03-.76-.02-1.2,0-.1-.29,0-.59.27-.58-.15.2.51.35.93.59h0Zm-5.98-5.7c.43-.13.59.03.65.2-.21.02-.45.05-.76.12,0,.03-.04.07-.05.1.04-.16.08-.31.16-.43h0Z"/><path class="cls-2" d="m598.13,66.23c-2.39-.1-1.16,1.05-1.69,1.67-2.87.22-1.29-.86-2.24-1.46-1.79.22-3.2,1.17-4.53,1.07-.09-.19-.35-.27-.03-.48-.96.4-2.36.34-3.8.32-1.44-.05-2.91-.07-4.05.41-.16-.11-.23-.21-.27-.29.32.58.34,1.14.24,1.54-1.08-.05-2.04.58-2.4-.17.66.06.73-.23,1.05-.43l-1.15.24c-.94-1.1,1.56-.26,1.61-1.03-2.21.22-4.83.89-6.48.45-.27-1.04,3.95-.03,1.78-1.11.85.2,1.71.4,2.56.58-1.87-1.73,1.57.21-.14-1.62-3.38-.54-3.84.22-7.21-.34-.81.5.18.86-.63,1.36-4.93.57-3.55-2.92-7.22-1.91-.98.58-1.49,1.85-3.93.85l.99-1.04c-3.26-.51-2.07,1.41-5.41.23.67-.37,2.63-.06,2.15-.26-2.11-1.17-1.65.46-3.37.25l-.22-1.06c-3.48-.37-7.44-.12-11.3-.66.26-.26.97-.46.13-.93-2.46-.16-5.03-.63-7.53-1.34-1.25-.34-2.49-.72-3.7-1.1-.6-.19-1.2-.39-1.78-.6-.29-.11-.58-.21-.86-.32l-.42-.16-.21-.08-.1-.04-.19-.06c-1.16.03-2.21.08-3.16.16-.68-.17-1.42-.74-.66-.74-1.68-.57-1.69-.42-1.42-.13.26.29.71.71.07.74-1.59-.31-2.57-1.12-1.58-1.16-.64-.06-1.34-.13-2.1-.2l-.28-.03c-.03.08,0,.22-.02.33v.7c0,.46,0,.94-.01,1.42-.02,1.91-.07,3.82-.15,5.65-.12,2.09-.15,2.94-.29,4.11-.14,1.11-.36,2.12-.67,2.97l-.2-.7c-.6,2.67,1.55,3.2.52,5.63l-.12-.49c-.85,5.84-.45,12.36-2.01,16.77,1.21.92-.87,5.78.89,6.24-1.03,3.31-1.31,2.34-2.08,7.04-.13,1.26,1.03,1.92,1.16,3.48h-.93l.9,2.15-1.14,1.09.19,1.47c.07-.58.46-1.22.72-1.13.34,2.29-.8,5.54-1.28,5.59l.65,5.42c-.37-.13-.48-1.04-.7-1.76.88,2.9-.99.5-.18,3.16.22-.35.55.2.73.27-.59,1.3-.65,4.3-.46,6.52l-.63-.44c-.23,4,.16,8.44.09,12.93.32-1.61,1.42-1.22,1.51.1l-.98.51c.59.86.39-1.37,1.1.38-.13,1.67-1.13,1.11-1.43.15l.31,2.04c-.29.12-.44-.36-.81-.49.6.84-1.03,3.51.01,4.73l-.29.11c-.06,4.48.25,6.52.25,10.17.84.08.64,1.51,1.31,2.6-.3,2.68-1,5.65-.97,8.89.39,2.28.71.67,1.19,1.7-.77.16-.74,3.39-1.27,1.71.08,3.88.09,4.96.66,9.87.32-.53.47-1.13.72-.81.12.89-.35,2.02-.71,1.89l-.08-.24c1.08,5.52-2.4,12.69-.85,17.09l-.08-.25.78,4.56c-.16,2.09-.56-1.26-1.06.28,1.22,4.92-.28,7.75.52,11.8-2.31,3.1.02,11.1-1.48,15.31l.54-.24c.51,1.1-.32,1.32-.45,2.12.42-.11.49-1.18.78-.5.12,2.05.13,4.13.08,6.23-.05,1.57-.1,3.16-.15,4.75-.08,1.89-.16,3.78-.24,5.68,2.32-.11,4.64-.22,6.96-.33l1.82-.08.46-.02h.85s2.01-.01,2.01-.01c2.68-.04,5.35-.06,7.99-.16,3.47-.16,1.72-2.92,6.18-2.04l-1.15,1.1c6.86-1.8,14.25-1.22,20.99-2.82-.39.26-.37.56-1.04.62,1.5.59,5.33-.44,5.3-1.02,1.07-.03.29.51.97.75,1.48.3,3.55-1.24,4.38-.59.14.1-.39.27-.65.35.91-.43,4.4-.3,3.42-1.05,2.6.17,4.87-.8,6.95-.49,1.25-1.04,4.42.06,4.73-1.28-.07,1.37,4.58.7,6.14-.07-.51.45,1.44.3.86.92,1.84-.17,3.51-.56,3.13-1.23,3.53,1.34,6.73-1.86,8.81.07,5.42-1.15,10.46-2,15.37-2.63-.09,1.36-5.44.49-5.13,1.9,2.32-.44,4.13-.99,5.95-1.42.91-.22,1.82-.41,2.79-.53.49-.06.99-.12,1.52-.15.55-.03.95-.03,1.51,0,1.09.19-.64.57-.93.83,1.94-.35,4.19-.11,6.34.1,2.17.22,4.34.44,6.53.21-.02.12-.5.23-.94.3.85.02,1.98.33,1.91-.29l-.84.12c-.65-.5.23-.89,1.27-1.25,1.05-.36,2.26-.71,2.34-.94-.72.87.33,1,1.32,1.15.98.13,1.92.29.76,1.48.6-.14,1.34-.51,1.16-.9.89.03,1.24.22.35.8,1.67-.35,2.2-.77,2.66-1.08.23-.15.45-.31.81-.49.37-.16.86-.39,1.61-.72.12.29-.47.66-.68,1.11.72-.58,1.41-1.23,2.18-1.97.75-.78,1.61-1.67,2.45-2.98.06.25.47.04-.04.88.36-.6.64-1.22.81-1.83.19-.62.21-1.09.29-1.62.07-1.01.04-1.96-.03-2.89-.15-1.85-.38-3.63-.2-5.82,1.36,1.23.35-1.51,1.44-1.8l-.51-2.3-.47.97c-.14-2.02-1.11-3.71-.84-5.42l.56,1.42c-.16-1.22-.31-2.43-.39-3.6-.14.66-.25,1.35-.35,2.05-.66-1.94-1.44.28-1.19-2.35.11.54.01-2.01.67-3.05-.36-.99-.73-2.01-.45-3.49.36-.39,1.24.31,1.48.06-.94-.98-.26-4.7-1.26-5.93.23.41.82.43.94.3l-.76-.82c.24-.93.36-1.06.83-.91.14-2.79-1.42.89-.81-2.43.06.26.17.14.29.68.32-3.33-.48-6.43-.11-9.49,1.13-.9.28,2.67,1.23,1.64-.2-4.41-1.35-9.14-1.09-13.4l-.12.8c-1.59-.59.79-3.18.04-5.34.12.53.88.69.71.55.26-2.92-.39-5.98-.89-10.41l.41.55c.36-1.72.21-4.54.4-6.4-.41-.55-.34-1.62-.94-.97,2.33-5.74-1.25-10.95.69-16.04,0,.61.36,1.45.36.97l-.38-4.34c-.69.34-.42.57-.96,1.48-.41-.55-.73-1.77-.73-2.85.46,1.95,1.11-.02,1.5-.86-.21.14-.45-.15-.66-.08,1.23-2.27-1.39-.38-.56-3.47l.36.16c-.19-1.16-.67-2.22-.56-3.47.8-.52.37,1.23,1.03,1.31-.05-1.75-1.52-3.46-.72-5.05.22.74.23,1.82.45,2.56.94-1.73.7-1.93.85-3.21l-.02.13.43-2.97-.25.76c-2.09-2.19-.38-4.47-1.75-7.42,1.3,2.87.75.47,1.66.69.25-.75.53-1.9.79-1.58-.73-1.4.58-2.34-.5-4.31.29-.09.03-1.49.76-1.18-.23-1.82-.51.43-.88.28-1-2.8,1.2-6.58-.17-10.61-.57-3.47-1.56-4.11-2.05-7.34.47-1.09,1.07.89,1.07.89.43-1.76.35-3.07.01-4.73.26.33.47-.01.8-.51-.08-1.33-1.07-.89-.64-2.64.33.3.85.68,1.18,1.32-.27-1.56-.82-3.11-1.08-4.73.51-.43.77.98,1.11,1.55-.23-1.82-.46-4.71-1.27-5.27l-.29,1.17c-.04-.66.69-.34.84.15.63,1.56-.28,2.25-.57,2.34l-.19-1.15c-1.72,1.18.28,4.63.18,6.95l-1.25-.97,1.04,2.38c-.32.51-1.02.85-1.21-.29-.61,1.66.44,1.47-.24,2.9-.11.16-.17.09-.22-.06l.37,1.63c-.26-.32-.88.27-.7-.73-.72,2.92.94,4.7,0,5.8l-.08-.24c.43,4.05.92.39,2,3.43l-2.26,2.05.92.4c-.03.42-.1,1.24-.47,1.09.63,1.55.4-.27.99.64-.83,2.01.4,5.54-1.06,6,.7.72.54-1.92,1.02.22-1.57.61.27,2.48-.45,4.32-.81-.56-.38-2.3-1.1-.47,1.37,1.11-.3,3.58-.04,5.13,1.09.07.45,3.37.82,5.97-.37-.16-.6,4.89-.99,7.31l-.18-.07c1.1.47.89,2.96,1.12,4.78-.66-.07-.92-.4-1.22-1.38v1.71c.36.4.54.94.67,2.04l-.82-.43c.05,2.27.97,4.58.42,7.5.77.16,2.14-2.33,2.65.77-.42.11-1.13.23-1.3-.58.05.27.35.95.17,1.48l-.7-1.23c-.31,1.33.58.7.52,1.76-.59-.02-.42.79-.89.64-.06-.27.24-.93.01-1.34-.11,1.2-.46,2.65-.91,3.13.34-.1.8,0,.87.88.04,2.27-.71.78-1.02,2.1.41.55-.02,2,.87,2.04,0,.67-.42.79-.66,1.04.39,1.18.11,5.49,1.05,4.17l.06-.3c.02.06.02.12.04.19.88,3.85-.5,8.01-.12,11.83h-.3c.34,2.28.2,5.08.84,6.71,0,.68-.54,1.59-.89,1.31.22,1.75.56,1.94.07,4.46-.52-1.75-.46.61-.38-1.8-.26,2.27-.73,2.78.08,5.22-.76-.83-.96,1.71-.73,2.79l.54-1.59c.11,1.21.04,2.27-.02,3.35l-1-.58c-1.21,4.64,2.07,8.37.03,11.9.7,1.23.49-2.52,1.31-1.42-.13,2.13-1.57,4.36-1.57,5.03-.55,2.92,1.46,2.73,1.08,5.79.36-.39,1.29-.77,1.65,1.54-.06,2.16-1.36,2.76-1.73,1.38-.05-.53.05-.8.17-.78-.15-.72-.31-1.7-.69-.78l.36.29c-.35,1.16-.09,4.16-.72,3.49.46,1.62.64.66.73-.57-.31,2.82.36,4.31.17,7.06.18-.44.56-.87.59-.44-.27,4.01.78,1.73.93,4.44-.6,1.48-1.23-.55-.97,2.03-.55,1.46-.97.18-1.2-.4.24,1.11-.08,2.08-.49,2.7-.37.42-.8.41-.99.52.04-.16,0-.31-.01-.45.03.25-.06.4-.26.53.22.13.46.25.69.34-.3.14-.57.3-.73.05-.03.3.17.52.37.77.18.25.4.56,0,1.11-.42,0-.97.31-1.55.49-.58.17-1.14.21-1.37-.23,1.41-.09,1.24-.35,1.06-.59-.22-.27-.37-.55.51-.9-.31.21-.76.35-1.4.33-.11-.09.05-.21.2-.29-1.25-.2-1.54.06-1.82.46-.29.39-.6.91-2.12.92.38-.53-.7-1.01-1.19-.91,1.21.02.59.91-.59,1.28-2-.5-2.23.18-3.31.05l1.22.29c-.45.5-1.49.35-2.96.38-.08-.42,1.35-.16.85-.39-1.7.79-3.56-1.33-5.95-.9-1.06-.45-.02-1.01-.97-1.32-1.37.25-2.11.05-2.91-.16-.4-.1-.82-.2-1.35-.22-.54-.02-.99.03-1.68.21.82.67.94.49-.91,1.29l2.2-.38c.8-.13,1.67-.23,2.46-.28-.52.15-1.04.33-1.57.51-.55.19-1.02.39-1.47.59.63-.03,1.44-.19,2.13-.28.69-.1,1.3-.16,1.72-.08-1.45.53-1.29.36-.64.97-.91-.58-1.97-.4-2.89-.14-.93.26-1.89.55-2.97.26l-.04-1.77c-3.24-.59-5.6,1.26-9.75,1.11l1.35.22c-.5.74-2.54.28-3.86.66.08-.6-.77-.75-1.37-1.08.1.43-3.02.18-3.31,1.4l-1.9-.64c-3.36-.06-3.67,1.98-6.88,2.04.91-.72-.58-1.02,1.53-1.65-1.07.08-2.04.05-2.02.46-.65-.32-2.89,1.04-3.92.56-.43.3-.52.93-1.72.98-.14-.11-.02-.29-.02-.29.02.29-1.84.56-.74,1.12-3.44-1.56-9.17.93-12.17-.4-2.31.4-5.09.84-7.2,1.07.12-.19-.02-.29.39-.27-2.96-.29-1.64,1.85-5.01,1.53-1.78-.8,1.71-.67.63-.94-.63-1.9-3.98.62-6.31-.32l.53-.16c-1.76-.51-4.1,1.1-6.89,1.21,0,0,.12-.18,0-.29-1.82,1.16-5.4,1.8-8.05,2.31.77-.83,1.18-.51.61-1.24-1.19.22.46,1.21-1.92,1.64-.82-.35-2.58-.56-2.88-1.36l2.26-.24c-1.25-.96-2.92.29-4.13.21l.11-.48c-3.45.46-3.4,1.64-7.13,1.88l.42.32c-1.93,1.34-1.76-.5-3.72.54l-.72-1.13c-.66.21-1.81.58-3.1.98-.37.1-.55.19-.8.28s-.51.18-.78.26c-.54.16-1.12.31-1.64.41.85-.52,1.7-.92,2.37-1.27.18-.09.31-.17.49-.25.27-.09.54-.18.79-.27.52-.18,1.01-.35,1.44-.51-.33.03-.78.07-1.28.13-.46.06-1.17.15-1.27.21-.47.14-1.01.36-1.36.68.38-.15.79-.48,1.03-.31-.69.71-1.98,1.25-3.47,1.57-.07-.46-.11-1.04-.09-1.69.58-.28.91-.76,1.1-1.22.1-.23.16-.47.21-.72.02-.12.04-.25.06-.38l.02-.22.02-.38c.11-2.04.15-4.37,1.05-5.33-.79-4.72.48-9.34.41-14.83-1.81,1.93-.03-1.6-1.87-1.29-.1-1.28-.06-1.77.06-1.88l1.14-3.86c.55-.91.39,1.22.8,1.11.18-2.8.79-1.17,1.3-3.01-.66.37-.93-.99-.66-2.58l-.87,2.24c-.93-3.92,1.58-3.36.66-7.32l.56,1.25c-.32-2.03.1-7.46-1.35-9.47.22-.36.72-.82.85.07.28-4.83-1.44-10.78-.48-14.53l.44.37c-.12-.9-.82-1.58-.36-2.71.18.06.44.37.47-.05-.15-.48-.76-2.41-.48-3.6l.49,1.03c.65-4.71-1.14-7.25-1.4-11.21,1.32.03,1.79-3.68,2.03-5.53l.19.07c.23-5.49-.98-9.34-1.43-14.44,1.47-3.14.74-10.68,1.64-15.73-.25.77-1.03-.14-1.14-1.05.29-1.18-.85-3.3.35-3.09l-.03.42c1.21-.87.93-3.32,1.01-5.22l-1.58-.35c2.4-4.93-.49-13.09,1.67-15.74-.35-1.22-.29-2.7-.64-3.91l.85.1c.34-3.32.53-4.97.52-9.09l.56.87c.18-2.31-2.29-3.05-2.23-5.19l1.3-.57c.21-4.05,1.59-8.05.73-12.12.18.08.54.22.54.88.16-1.9,1.43-7.26-.36-6.72,1.13.05.48-4.15.18-6.36.27.12.53.27.8.41-.95-1.25-1.24-1.28-1.34-3.23.14-.3.64.31.4.56.26-.38.1-.76-.05-1.28-.13-.34,0-.33.15-.35.17,0,.46.07.89.28-.1.16-.16.33-.19.5,1.07.32.79-.04,1.48-.52.21-.04.51,0,.8.09.12.04.39.12.59.2.22.08.43.17.63.27.81.39,1.47.88,1.55,1.27.38-.39,1.64-.77,2.82-.3.11.31-.37.4-.62.44,3.37,1.25,5.34.13,7.59,1.33,0,.28.13.44.32.56-2.78-.47-4.98-1.02-4.77-1.02-.15.76,2.07,1.34.08,2.03,1.91-.17,5.23-.92,7.35-.17.09.09.18.18.24.31l-.24.05c.49.16.96.17,1.4.12.68.24,1.11.43,1.78.53.16.67,2.54.72,3.66.92.03-.85,1.48-.5.2-1.39.17.08-.23.07-.98,0-.17,0-.37-.02-.49.02.03-.02.06-.04.09-.06-.74-.09-1.7-.22-2.8-.35.95-.29,1.93-.51,3.1.13.66-.45,1.37-.91,1.76-1.12,1.36,1.4,4.23,2.45,4.56,3.2,1.75-.02,3.79.15,5.68.16,1.89.02,3.64-.2,4.8-.87,1-.1,1.08.56,1.42.85-.58.1-1.25.01-1.58.21,2-.2,5.81.42,6.37-.67,2.42.69-1.47.9,1.93.99l-.48.3c1.63.57,3.14.74,4.6.71,1.46-.05,2.86-.31,4.28-.54,2.84-.45,5.75-.89,9.4.41-.51-.16-.76-.24-.86-.43,8.4,1.38,17.38-.34,25.67,1.29,2.36.35,2.62-.36,4.07-.9l.51.91,2.47-1.04c3.49-.75,6.06,2.22,10.48.75l-.57-.61c1.59.11,5.03-.4,4.77.31.16-.11.52-.64,1.14-.33l.05.47,3.89-.84c3.03.31-.45,1.89,3.96,1.93,1.64-.2,4.65-1.43,4.04-1.74-.66-.02-1.69-.28-1.75-.75l1.5-.26c.26-1.4,1.39-2.84-2.3-3.78l-2.55.88-.83-.67,2.16-.07c-1.23-.62-2-.05-2.86.34-.21-.36-.57-.61-1.08-.74l-2.5,1.36c-.31-.54,1.12-1.09-.57-1.38-1.17.63,1.14,1.22-.81,1.64-1.23-.62-.88-1.14-2.31-.59-.2-.36.1-.59.67-.75-1.28.44-3.39.21-4.04.95-1.28-.78-4.32.22-4.2-1.1-.4.32-2.25,1.05-3.43,1.1,2.14-1.58-4.4-.1-3.83-1.8-1.59,1.43-5.73.61-8.55,1.37.16-.11.47-.34.72-.26-1.58-.13-2.03-.57-3.05-.85-.22,1.18-2.68,1.4-4.03,2.1-1.92-1.17,1.2-1.36.61-2.46.08.95-3.38.88-2.74,1.69-1.47-.73-1.27-.37-2.01-1.35-.3,1.47-1.38.22-2.63,1.08-2.12-.79-.51-1.39-2.87-1.02-1.1-.49,1-.94,1-.94l-.05-.11Zm-55.73-2.63v-.02c.48.06.88.12,1.14.15-.24-.03-.57-.07-1.15-.13h.01Zm-4.62-.79c.56.13,1.26.26,2,.38.11.32-.12.58-.58.48.29-.15-.77-.5-1.42-.87h0Zm8.89,7.43c-.77,0-.99-.19-1.07-.38.36.04.77.07,1.32.09.03-.03.08-.06.1-.09-.1.15-.2.29-.36.37h.01Z"/><path class="cls-2" d="m778.32,291.55c-.1-2.05-1.14-.89-1.8-1.28-.46-2.43.75-1.19,1.26-2.06-.38-1.51-1.47-2.62-1.49-3.77.18-.1.23-.32.47-.07-.97-1.57-.35-4.79-1.51-6.64.09-.15.18-.22.26-.26-.54.33-1.1.4-1.51.36-.06-.92-.77-1.69-.06-2.07,0,.57.3.6.53.86l-.35-.96c1.01-.92.41,1.31,1.18,1.27-.41-1.87-1.36-4.04-1.13-5.5,1.01-.34.48,3.37,1.31,1.4l-.3,2.25c1.54-1.78-.06,1.36,1.6-.28.18-2.95-.65-3.27-.47-6.21-.59-.64-.83.25-1.42-.4-1.14-4.15,2.48-3.36,1.04-6.39-.7-.78-1.99-1.06-1.37-3.26l1.17.72c.05-2.85-1.7-1.59-.98-4.6.45.52.43,2.24.55,1.8.86-1.95-.68-1.36-.7-2.85l1.02-.33c-.2-3.04-.98-6.38-1.21-9.74.31.18.63.76.93-.03-.53-4.25.07-9.08.66-13.18l-.88-1.57c0-.36.4-.68.57-.28.33-1.6-.56-.08-.91-.85-.06-.91.5-1.2.77-.63-.75-2.82-1.62-8.04-.69-11.02l.26.58c.35-2.32-1.81-2.61-.99-4.76l.16.41c.38-5.03-.47-10.59.83-14.45-1.27-.72.53-4.99-1.26-5.3.83-2.89,1.16-2.07,1.69-6.14.07-1.09-1.13-1.6-1.33-2.93l.92-.05-1.01-1.8,1.08-.99-.27-1.25c-.04.5-.39,1.07-.65,1-.47-1.95.51-4.8.99-4.86l-.91-4.62c.37.09.52.86.78,1.47-1.01-2.45.97-.48.03-2.73-.2.31-.56-.15-.75-.19.51-1.15.4-3.74.08-5.64l.65.34c.02-3.46-.61-7.26-.88-11.14-.21,1.41-1.33,1.15-1.51.03l.94-.51c-.65-.69-.29,1.21-1.12-.25.02-1.45,1.05-1.04,1.42-.23l-.45-1.74c.29-.12.46.28.84.36-.65-.68.78-3.11-.33-4.07l.28-.12c-.12-1.94-.36-3.34-.56-4.65-.1-.66-.2-1.29-.3-1.95-.05-.33-.09-.67-.14-1.03-.02-.21-.05-.42-.07-.64-.03-.34-.07-.69-.1-1.05-.84.09-.85-2.12-1.62-3.15v-3.04c.21-.79-.52-.46-.93-.53-.48,0-.97,0-1.46.02-1.01.02-2.09.06-3.22.13-.57.04-1.15.09-1.74.14l-.83.08-.51.06c-1.89.64-.49.77-1.3,1.37-.23-.75-2.98-.36-1.61-1.07-3.3.5-4.22.63-8.34,1.73.49.26,1.02.34.78.63-.75.21-1.77-.12-1.7-.5l.19-.1c-4.57,1.68-11.11-.99-14.67,1.02l.2-.1-3.79,1.27c-1.8.07,1.01-.7-.37-1.02-4.05,1.75-6.64.57-10,1.81-2.93-1.95-9.46,1.24-13.23.21l.27.51c-.87.63-1.16-.18-1.86-.22.14.4,1.07.36.52.72-2.08.41-4.21.68-6.37.86-1.08.09-2.17.16-3.26.21l-1.68.07-2.95.2-1.22.26-.31.07c-.09.03-.17.08-.25.11l-.49.24c-.33.13-.65.38-.93.67-.27.28-.5.59-.7.93-.83,1.33-1.11,3.15-1.31,4.96l-.2,1.86-.14,1.53c-.08,1.01-.14,2.01-.17,2.99-.06,3.07,2.79,1.65,1.68,5.5l-1.04-1.04c1.45,6.03.67,12.4,2.13,18.22-.26-.33-.55-.32-.59-.9-.62,1.3.33,4.6.92,4.58,0,.92-.51.26-.76.84-.32,1.28,1.18,3.05.52,3.77-.11.12-.26-.33-.34-.55.42.78.24,3.79,1,2.94-.2,2.24.74,4.19.41,5.99,1.03,1.06-.1,3.81,1.25,4.06-1.37-.03-.73,3.97.04,5.3-.45-.43-.31,1.25-.92.76.17,1.59.57,3.02,1.23,2.67-1.33,3.09,1.88,5.75-.02,7.6,1.2,4.64,2.14,8.95,2.9,13.16-1.36-.01-.62-4.67-2.02-4.34.97,3.97,2.37,6.16,2.47,10.18-.07,1.05-.65-.52-.91-.85.98,3.96.71,7.78,1.83,11.27-.13,0-.3-.37-.45-.72.12.7-.02,1.66.58,1.51l-.24-.67c.77-1.22,2.15,2.59,2.63,2.67-1.87-1.02-.09,3.57-2.49,1.9.16.45.51,1,.91.86-.05.7-.27.94-.8.29.58,2.48,1.14,1.53,1.35,3.81-.3.02-.46-.43-.83-.63.69,1.1,1.38,2.2,1.31,4.16-.19-.1-.4.15-.45-.43.4,3.3,2.06,5.51,1.82,9.19-1.38-.96-.32,1.27-1.42,1.56l.49,1.93.48-.83c.12,1.71,1.05,3.16.8,4.66l-.56-1.24.45,3.19.29-1.85c.7,1.69,1.4-.29,1.26,2.02-.14-.46.11,1.72-.49,2.66.41.82.84,1.67.65,2.96-.34.35-1.25-.19-1.48.04.99.78.5,4,1.55,5-.25-.34-.84-.33-.95-.2l.8.66c-.2.81-.31.93-.79.83-.02,2.4,1.38-.83.91,2.04-.07-.22-.18-.11-.32-.57-.19,2.86.73,5.49.43,8.12-1.1.81-.35-2.28-1.27-1.36.34,3.75,1.57,7.78,1.33,11.44l.12-.68c1.6.5-.76,2.73-.02,4.57-.12-.45-.88-.59-.71-.47-.26,2.5.37,5.1.77,8.91l-.4-.48c-.4,1.46-.32,3.88-.59,5.43.39.48.26,1.4.89.87-.65,1.19-.94,2.38-1.01,3.62-.03,1.26.06,2.48.62,4.04.53,1.44,1.61,2.51,2.85,3.14l.93.46c.31.12.62.24.93.38.62.28,1.15.49,1.73.84-.57-.09-1.46.1-.99.19,1.45.16,2.75.09,4.06.03-.28-.71-.49-.44-1.26-1.02.51-.39,1.58-.64,2.5-.63-1.69.42-.02,1.11.7,1.52-.12-.22.14-.44.08-.66,1.92,1.28.36-1.38,3-.5l-.15.36c1-.17,1.92-.63,3-.51.43.81-1.07.36-1.14,1.01,1.51-.02,3-1.48,4.35-.66-.64.22-1.56.21-2.21.42,1.48.96,1.65.72,2.76.89l-.11-.02,2.55.45-.65-.26c1.9-2.07,3.85-.36,6.39-1.72-2.47,1.29-.41.75-.6,1.66.65.25,1.64.53,1.36.79,1.2-.73,2.01.58,3.7-.5.08.29,1.29.02,1.02.76,1.56-.24-.37-.51-.24-.88,2.4-1.01,5.67,1.18,9.12-.21,2.98-.59,3.52-1.58,6.29-2.09.94.46-.76,1.07-.76,1.07,1.51.42,2.64.33,4.06-.02-.29.26.01.47.45.8,1.14-.09.75-1.07,2.26-.65-.26.33-.58.85-1.13,1.18,1.34-.28,2.66-.84,4.05-1.11.37.51-.83.78-1.32,1.12,1.56-.24,4.04-.49,4.52-1.3l-1-.28c.57-.04.3.69-.12.84-1.33.64-1.93-.27-2.01-.56l.99-.19c-1.03-1.71-3.98.3-5.97.22l.82-1.25-2.04,1.05c-.44-.32-.74-1.02.24-1.21-1.43-.6-1.26.45-2.5-.22-.14-.11-.08-.17.05-.22l-1.39.38c.27-.26-.24-.88.62-.71-2.51-.7-4.03.97-4.99.03l.21-.08c-3.47.45-.33.92-2.93,2.01l-1.77-2.25-.34.92c-.36-.03-1.07-.1-.94-.46-1.33.63.23.4-.54.99-1.73-.82-4.76.41-5.15-1.05-.62.7,1.65.53-.19,1.02-.53-1.57-2.13.27-3.71-.45.48-.81,1.98-.38.4-1.1-.95,1.37-3.07-.31-4.4-.05-.07,1.09-2.89.44-5.13.78.14-.36-4.19-.65-6.25-1.09l.06-.18c-.42,1.1-2.56.83-4.12,1.03.08-.66.37-.91,1.21-1.19l-1.45-.04c-.34.33-.79.51-1.7.57l.4-.79c-.45-.02-.89-.01-1.35.03-.46.03-.88.04-1.36.05-.75-.02-1.58-.2-1.87-1-.34.2-.55.85-.75,1.34-.19.45-.7.92-1.76-.21.3-.33.86-.72,1.34-.33-.1-.05-.25-.16-.4-.32-.16-.15-.29-.36-.26-.6.29.23.68.35,1,.46-.14-.92-.74-.11-.95-.91.55-.18.32-.66.79-.65.06.14-.12.63.18.78-.08-.36-.03-.78.08-1.11.13-.42.31-.78.53-.95-.34.09-.8.02-.87-.69,0-1.87.73-.61,1.08-1.69-.38-.49.11-1.69-.77-1.78.04-.57.46-.66.71-.86-.32-1.06.09-4.78-.9-3.66l-.07.26s-.02-.11-.03-.17c-.77-3.34.68-6.89.31-10.2h.3c-.33-1.96-.21-4.38-.86-5.78,0-.58.52-1.38.88-1.14-.25-1.5-.58-1.66-.14-3.85.55,1.5.45-.53.41,1.54.22-1.96.68-2.42-.19-4.5.78.69.91-1.5.65-2.43l-.5,1.39c-.14-1.04-.1-1.96-.08-2.89l1.02.47c1.07-4.07-2.38-7.12-.52-10.28-.76-1.02-.37,2.2-1.24,1.3.03-1.84,1.35-3.85,1.31-4.42.39-2.56-1.61-2.26-1.41-4.91-.33.36-1.25.74-1.73-1.19,0-1.84,1.32-2.37,1.69-1.23.06.44-.03.66-.16.65.17.58.38,1.35.71.6l-.37-.21c.3-.94.07-3.46.69-2.91-.45-1.36-.63-.55-.73.49.33-2.4-.27-3.68-.13-6.13-.16.4-.55.79-.58.41.14-3.59-.81-1.51-1.17-3.9.42-1.41,1.33.37.66-2,.23-1.51.91-.4,1.25.16-.88-2.15.07-4.16.08-5.44l.4,1.14c-.23-.68-.29-1.25-.34-1.83l-.65.73c.06-.69,0-1.27.3-1.29-.53-.66-1.13.65-1.9-.68.27-.94-.66-2.73.25-3.13-.04,2.89.91-.41,1.3,1.99-.16-.46-.21-1.02-.15-1.72.09-.11.2.08.28.26.57-2.82-1.19-1.15-1.45-3.98.57.31.94-.76.78-1.22.11,1.16-.83.64-1.34-.37.22-1.86-.52-1.94-.57-2.89l-.08,1.1c-.57-.31-.6-1.22-.9-2.47.4-.15.41,1.12.54.65-1.08-1.3.62-3.27-.21-5.16.26-.94.99-.19,1.14-1.01-.92-2.12.47-2.45-.34-4.69-.64.74-.46.84-1.32-.71l.9,3.73-1.29-2.32c.11,1.14.7,2.36.66,3.06-.7-1.09-.51-.99-1.05-.39.9-1.68-.95-3.03-.42-4.92l1.77-.13c.5-2.8-1.41-4.73-1.33-8.3l-.19,1.16c-.75-.4-.32-2.17-.72-3.28.6.05.74-.69,1.06-1.21-.43.1-.22-2.58-1.43-2.79l.62-1.65c.03-2.88-2-3.08-2.07-5.84.72.76,1.02-.52,1.66,1.27-.08-.91-.06-1.75-.47-1.72.32-.57-1.04-2.46-.56-3.35-.3-.36-.93-.43-.97-1.46.11-.12.29-.02.29-.02-.29.02-.55-1.57-1.12-.61,1.57-2.99-.87-7.86.49-10.46-.38-1.98-.78-4.37-.97-6.17.19.1.29-.02.26.33.34-2.55-1.82-1.39-1.45-4.29.84-1.53.64,1.47.93.53,1.91-.55-.54-3.41.45-5.41l.15.45c.55-1.51-1.01-3.51-1.03-5.91,0,0,.18.1.29,0-1.11-1.56-1.64-4.64-2.04-6.93.8.67.46,1.02,1.21.54-.17-1.02-1.23.37-1.55-1.68.38-.69.67-2.19,1.49-2.43l.14,1.93c1.02-1.04-.16-2.5,0-3.53l.47.11c-.25-2.94-1.45-2.96-1.38-6.13l-.35.33c-1.16-1.73.65-1.47-.16-3.14.4-.11.8-.17,1.2-.19-.11-.3-.33-.87-.44-1.68-.02-.2-.04-.42-.02-.64,0-.22.09-.45.26-.48.29-.15.63-.29.99-.41.19-.05.34-.1.49-.14-.1.15-.22.28-.36.42-.15.18-.31.34-.46.5-.13.17-.34.23-.33.58.02.61.21,1.14.39,1.5.04-.24.02-.66.14-1.1.03-.12.13-.14.2-.18s.14-.09.2-.14c.12-.1.22-.22.25-.37,0-.01.01-.02.01-.03h-.02c-.21.16-.31.44-.66.3,0-.29.15-.55.42-.78.3-.26.67-.46,1.27-.64.67-.18,1.39-.32,2.18-.4-.14,2.33,5.99-.1,7.84,1.49,3.93-1.3,8.02-.55,12.69-1.22-1.86-1.59,1.36-.21.87-2,1.08-.24,1.5-.26,1.61-.15l3.43.71c.84.44-.99.52-.85.92,2.41-.13,1.09.66,2.73.96-.4-.62.73-1.03,2.12-.93l-2.01-.62c3.23-1.35,3.06,1.2,6.32-.14l-1,.69c1.69-.53,6.38-.71,7.9-2.37.33.18.79.63.04.85,4.15-.25,9.01-2.6,12.33-2.07l-.26.48c.76-.22,1.25-.99,2.26-.65-.03.19-.26.48.1.47.39-.2,1.96-1.01,3.01-.87l-.82.6c2.05.06,3.56-.42,4.97-1,.35-.15.7-.3,1.05-.45.22-.08.25-.14.33-.2s.16-.13.25-.19c.35-.25.82-.47,1.33-.61-.35.71-.25,1.11-.32,1.46-.25.59-.38.89-.48,1.07l-.18.08c-.01.08,0,.14.02.2.08.46.15.91.23,1.35.19,1.02.44,1.98.7,2.94.27.95.54,1.9.82,2.87.25.98.49,1.98.69,3.06-1.27,2.79.03,9.15-.64,13.53.21-.67,1.03.06,1.2.83-.22,1.03,1.04,2.78-.18,2.66v-.36c-1.15.82-.74,2.89-.7,4.52l1.59.22c-2.2,4.35,1.17,11.19-.87,13.58.41,1.03.43,2.31.84,3.32l-.85-.04c-.18,2.87-.25,4.29-.01,7.83l-.61-.72c-.04,2,2.47,2.5,2.53,4.35l-1.26.56c.04,3.49-1.04,7.02.11,10.47-.19-.06-.55-.16-.61-.72-.03,1.64-.84,6.36.9,5.76-1.13.04-.1,3.6.4,5.49l-.84-.29c1.07,1.59,1.36,1.64,1.66,3.86-.11.53-.67.46-.46-.24-.43,1.76.79,1.37.35,3.5l-.54-.79c-.06,1.81.23,1.66.85,2.66.33,1.13-.2,3.43-.95,3.7.46.24,1.08,1.23.87,2.3-.28.15-.46-.24-.55-.44-.55,3.03,1,4.49.19,6.57-.28.05-.41.18-.5.36,0-2.4.04-4.34.1-4.16-.77,0-.9,1.95-1.97.41.59,1.56,1.86,4.21,1.52,6.11-.07.09-.15.18-.26.25l-.09-.2c-.07.44,0,.83.14,1.2-.12.61-.21.99-.21,1.57-.63.23-.32,2.23-.33,3.2.84-.09.72,1.18,1.4-.02-.06.15-.1-.18-.15-.83-.03-.15-.04-.32-.09-.41.02.02.05.04.07.07-.02-.64-.05-1.46-.09-2.41.44.76.81,1.55.35,2.63.55.49,1.11,1.03,1.38,1.33-1.16,1.34-1.76,3.91-2.48,4.27.53,2.95.48,6.97,2.1,8.79.22.83-.43.98-.67,1.3-.17-.48-.16-1.06-.39-1.32.45,1.67.28,4.98,1.41,5.34-.41,2.14-1.07-1.16-.77,1.75l-.35-.38c-1.53,5.82,3.15,9.18,1.29,15.64.11-.45.16-.67.34-.77-.29,3.65.14,7.37.65,11.06.49,3.7.8,7.39.45,11.02-.09,2.06.63,2.2,1.3,3.38l-.85.54,1.27,1.99c1.06,2.89-1.57,5.46.4,9.05l.53-.57c.08,1.37.97,4.24.24,4.12.13.12.69.35.45.93l-.46.11.64,1.6c.22.51.42.99.56,1.45-.09.54-.31.68-.51.72-.21.02-.42-.06-.64-.11-.21-.06-.42-.09-.57-.15-.03-.01.08.04.07.04h.02v.02s-.11-.07-.06-.04l.02.02s-.02-.01-.02-.02c-.02-.02-.05-.05-.07-.08-.04-.06-.09-.11-.13-.18h-.02c.03.12-.47.63-1.1,1.02-.6.4-1.14.76-.88.92.54.03,1.34.24,1.44.7-.39.13-.81.23-1.23.31-.11.7-.42,1.41-.3,2.06.06.33.23.64.64.93.42.27,1.05.56,2.29.58,1.04-.5,2.31-1.26,3.17-2.54.5-.18.99-.46,1.45-.83-.65,1.26-1.87,2.24-2.93,2.7,1.05-.11,1.97-.77,2.48-1.56.52-.79.68-1.69.7-2.45.45-.23.84-.84,1.01-1.61-.4-1.29-1.02-2.07-1.56-2.71.5-.34,1.21.78,1.3-.69-.75-.9-1.07,1.15-1.71-.44.48-1.13,1.03-.91.33-2.04.33-.22.59,0,.82.46-.58-1.02-.59-2.83-1.4-3.28.62-1.19-.72-3.63.6-3.69-.35-.3-1.32-1.77-1.48-2.76,1.77,1.63-.32-3.75,1.42-3.46-1.56-1.18-1.17-4.79-2.21-7.1.13.12.38.36.34.58-.04-1.36.36-1.79.56-2.68-1.18-.06-1.63-2.14-2.44-3.22.99-1.75,1.46.89,2.5.27-.94.17-1.19-2.79-1.93-2.16.59-1.32.25-1.12,1.17-1.85-1.48-.11-.34-1.16-1.33-2.14.58-1.89,1.31-.57.74-2.55.39-.99,1.02.77,1.02.77l.03-.03Zm-4.18-47.98h.02c.03.42.05.77.06,1-.02-.21-.04-.49-.08-1Zm-.04-4.06c-.03.49-.03,1.11-.02,1.76-.29.14-.59,0-.58-.42.2.22.36-.74.6-1.34Zm-5.76,8.65c-.13-.64.04-.86.21-.95.02.3.05.66.12,1.13.03.02.07.06.1.07-.16-.06-.31-.13-.43-.25Z"/><path class="cls-2" d="m817.01,134.39c-.03,2.25,1.08,1.06,1.72,1.53.31,2.68-.82,1.24-1.38,2.15.29,1.67,1.31,2.96,1.27,4.21-.18.09-.25.34-.48.05.88,1.77.04,5.25,1.15,7.32-.1.15-.19.23-.27.27.56-.33,1.12-.38,1.52-.32.02,1.01.7,1.87-.03,2.25.02-.62-.27-.67-.5-.96l.31,1.06c-1.04.95-.36-1.44-1.13-1.44.34,2.06,1.2,4.46.9,6.03-1.02.33-.34-3.69-1.25-1.58l.39-2.44c-1.61,1.86.11-1.48-1.61.23-.3,3.21.52,3.59.22,6.79.57.72.84-.24,1.4.48,1.01,4.55-2.56,3.58-1.21,6.93.68.87,1.97,1.2,1.28,3.58l-1.15-.81c-.12,3.11,1.66,1.77.88,5.03-.45-.58-.38-2.44-.52-1.97-.91,2.11.65,1.49.65,3.11l-1.02.34c.16,3.31.89,6.95,1.08,10.62-.3-.2-.62-.83-.93.03.51,4.62-.13,9.87-.74,14.32l.88,1.7c-.01.4-.4.73-.57.31-.33,1.74.56.09.9.93.06.99-.51,1.31-.77.68.74,3.07,1.6,8.73.66,11.96l-.26-.63c-.36,2.52,1.8,2.84.98,5.17l-.16-.45c-.38,5.46.42,11.49-.91,15.66,1.27.79-.57,5.4,1.2,5.75-.44,1.56-.74,2.11-1,2.83-.13.23-.25,1.07-.38,2.07-.13,1.04-.26,2.44-.41,4.55-.06,1.73.63,2.12,1.04,3.03.51-.21,1.03-.39,1.57-.53l-.7,1.06c1.4-.57,2.66-1.12,3.8-1.65.38.31.83.6,1.36.89l2.36-.65c-.94.11-1.9-.09-1.71-.39.42-.13.85-.23,1.3-.32.22-.04.44-.08.67-.12.21-.03.5-.07.61-.08.58-.05,1.17-.04,1.7,0,1.06.09,1.88.37,1.94.6l4.8-1.53c-.06.38-.86.64-1.48.97,2.49-1.34.62.89,2.9-.33-.35-.16.1-.57.12-.77,1.28.38,4.02.03,6.02-.47l-.31.68c1.84-.17,3.76-.48,5.73-.79,1.98-.31,4.01-.68,6.07-.86-1.51-.16-1.28-1.29-.08-1.51l.58.93c.73-.67-1.3-.25.23-1.13,1.56-.03,1.14,1.01.29,1.41l1.84-.51c.14.28-.29.47-.37.85.72-.67,3.31.68,4.33-.47l.13.28c4.12-.27,5.97-.78,9.34-1.01.02-.85,1.35-.72,2.32-1.46,2.5.13,5.27.67,8.26.53,2.09-.48.59-.73,1.53-1.26.18.76,3.16.6,1.62,1.2,3.58-.2,4.57-.21,9.12-.88-.49-.31-1.05-.44-.76-.71.83-.14,1.88.33,1.76.7l-.22.08c2.55-.54,5.5.03,8.29.6,2.8.6,5.45,1.11,7.51.4l-.23.07,4.24-.62c1.93.23-1.19.52.22,1.07,4.61-1.08,7.14.66,10.92.05,2.68,2.5,10.24.76,13.96,2.69l-.16-.56c1.06-.41,1.18.44,1.9.65-.05-.42-1.03-.6-.37-.82l1.15.06h.15l.22.03.45.05.89.1c1.18.13,2.37.28,3.56.44,2.38.32,4.81.7,7.35,1.12-.14-2.43-.28-4.88-.42-7.33l-.1-1.92c-.03-.59-.08-1.45-.07-1.68l-.02-2.16c-.02-2.88-.04-5.76-.15-8.6-.16-3.23-2.92-1.57-2.02-5.74l1.09,1.06c-1.78-6.38-1.15-13.27-2.67-19.53.26.36.56.35.6.97.61-1.4-.38-4.96-.96-4.94,0-.99.51-.27.76-.9.32-1.38-1.17-3.31-.51-4.08.11-.13.26.36.34.6-.41-.85-.22-4.09-.99-3.19.22-2.41-.68-4.53-.32-6.47-1.01-1.18.17-4.11-1.16-4.42,1.36.09.85-4.24.12-5.72.44.48.35-1.33.95-.77-.13-1.72-.44-3.28-1.13-2.94,1.47-3.25-1.62-6.31.39-8.19-.46-2.54-.85-4.99-1.2-7.38-.33-2.39-.57-4.72-.79-7.02,1.36.14.26,5.08,1.67,4.85-.65-4.34-1.91-6.84-1.61-11.17.17-1.12.59.63.83,1-.3-2.17-.29-4.28-.3-6.33.02-2.05.02-4.03-.34-5.97.13.01.26.43.36.83-.04-.76.21-1.77-.41-1.69l.16.75c-.9,1.22-1.85-3.06-2.31-3.21,1.73,1.33.53-3.83,2.71-1.73-.1-.5-.38-1.14-.8-1.03.14-.74.38-.97.83-.21-.27-2.74-.95-1.79-.88-4.27.3.02.4.52.75.79-.56-1.27-1.11-2.55-.76-4.64.17.13.42-.1.39.52.07-3.59-1.34-6.21-.51-10.12.61.62.74.29.85-.21.01-.07.03-.14.04-.21l.05-.31c.04-.21.09-.42.15-.61.12-.39.3-.72.58-.86l-.13-3.32c-.22.56-.43,1.09-.64,1.59.09-1.39-.04-2.56-.13-3.58l-.03-.38c-.14,0-.32.04-.47.06-.32.04-.62.08-.91.11-.58.05-1.11.06-1.61-.01l2.34-.57-5.22.45,2.59.31c-1.44.35-1.46.71-1.6.96s-.27.39-1.62.29c.29-.07-.23-.05-.97-.09-.65-.04-1.5-.15-2-.45-.91.39-1.84.81-3.24.6-.37-.34.24-1.25,0-1.48-.87.98-4.36.46-5.48,1.5.38-.25.37-.84.24-.95l-.73.79c-.88-.2-1.01-.32-.89-.79-2.61-.02.89,1.38-2.23.91.24-.07.12-.18.62-.32-3.12-.18-5.97.75-8.84.5-.89-1.09,2.48-.39,1.48-1.29-4.1.39-8.45,1.73-12.44,1.64l.75.09c-.48,1.61-3-.65-4.98.19.49-.14.61-.91.48-.73-2.74-.13-5.55.64-9.66,1.32l.49-.43c-1.62-.29-4.24-.02-5.98-.13-.5.43-1.49.41-.86.98-5.45-2.09-10.14,1.7-14.97-.02.57-.03,1.34-.42.88-.4l-4.02.56c.35.68.55.4,1.42.9-.49.43-1.62.8-2.62.85,1.8-.54-.07-1.11-.87-1.46.14.21-.12.45-.04.67-2.17-1.14-.29,1.41-3.21.71l.14-.37c-1.07.23-2.04.76-3.21.71-.52-.78,1.13-.43,1.18-1.09-1.63.12-3.15,1.66-4.67.93.68-.25,1.68-.3,2.37-.56-1.65-.87-1.83-.62-3.03-.72l.12.02-2.79-.3.72.22c-1.95,2.18-4.15.57-6.84,2.06,2.62-1.41.41-.77.57-1.69-.71-.22-1.8-.46-1.5-.72-1.27.79-2.2-.48-3.99.67-.1-.29-1.39.03-1.13-.71-1.68.31.42.49.3.86-2.56,1.12-6.19-.94-9.88.6-3.21.71-3.76,1.72-6.74,2.34-1.04-.42.78-1.1.78-1.1-1.66-.36-2.88-.22-4.41.18.3-.27-.03-.47-.52-.78-1.23.13-.78,1.1-2.43.74.26-.34.6-.88,1.18-1.23-1.44.33-2.86.94-4.35,1.27-.42-.49.87-.81,1.39-1.17-1.68.3-4.37.66-4.85,1.49l1.1.24c-.62.07-.35-.68.1-.85,1.42-.7,2.11.19,2.21.48l-1.07.24c1.19,1.66,4.3-.47,6.47-.47l-.84,1.29,2.17-1.13c.49.3.84.99-.22,1.22,1.58.55,1.35-.5,2.72.12.15.1.09.16-.05.22l1.5-.44c-.28.28.29.87-.65.73,2.75.6,4.34-1.13,5.41-.23l-.22.09c3.75-.59.32-.93,3.1-2.13l2.01,2.17.33-.93c.39.02,1.16.05,1.04.42,1.42-.69-.27-.39.55-1.02,1.91.75,5.15-.62,5.64.82.64-.73-1.82-.46.16-1.03.64,1.54,2.3-.37,4.04.27-.49.83-2.13.48-.38,1.12.97-1.41,3.35.15,4.78-.18.02-1.09,3.12-.59,5.52-1.06-.14.37,4.58.39,6.85.69l-.06.19c.39-1.12,2.72-1.02,4.4-1.32-.04.66-.33.94-1.23,1.27l1.59-.08c.36-.37.85-.58,1.87-.75l-.36.84c2.11-.14,4.22-1.16,6.97-.73.12-.77-2.26-2.04.6-2.68.13.41.26,1.11-.48,1.32.24-.06.87-.38,1.37-.23l-1.12.75c1.25.25.62-.61,1.62-.59,0,.59.75.39.63.87-.25.07-.88-.21-1.25.04,1.12.06,2.49.35,2.96.77-.11-.33-.04-.8.78-.91,2.12-.14.76.68,2,.93.49-.43,1.86-.07,1.86-.95.62-.02.75.38,1,.61,1.08-.44,5.11-.34,3.84-1.23l-.28-.05c.05-.02.11-.02.18-.05,3.55-1.04,7.48.17,11.03-.37v.3c2.12-.43,4.73-.41,6.22-1.12.63-.03,1.51.47,1.25.84,1.62-.29,1.78-.64,4.15-.25-1.61.59.58.43-1.66.45,2.12.16,2.62.61,4.86-.3-.74.79,1.63.88,2.63.61l-1.5-.48c1.12-.16,2.11-.14,3.12-.12l-.5,1.02c4.37,1.02,7.71-2.41,11.09-.53,1.11-.75-2.37-.39-1.38-1.25,1.99.05,4.13,1.38,4.75,1.36,2.73.43,2.52-1.57,5.31-1.32-.3-.34-.7-1.28,1.21-1.7.88.03,1.19.39,1.07.78-.11.4-.54.83-.92.99-.26.04-.33-.07-.28-.19-.43.15-.82.32-.54.69.06-.12.13-.24.21-.37.4.35,1.49.26.69.88.81-.38.88-.62.48-.79.57.04.18.74.25,1.08,0,.4,0,.85-.2,1.39.21-.16.64-.38.62-.17-.02.06-.03.12-.05.18-.02.1-.03.2-.05.3-.02.2-.05.37-.06.53-.03.32-.04.56-.03.75.02.38.11.56.23.71.23.28.53.41.54,1.73-.6,1.46-1.27-.6-.93,2.07-.43,1.6-.96.3-1.22-.36.59,2.44-.64,4.49-.82,5.87l-.23-1.28c.14.77.11,1.39.08,2.03l.74-.7c-.16.74-.18,1.37-.47,1.35.45.78,1.2-.55,1.8.99-.38.98.32,3.03-.63,3.35.39-3.12-.96.32-1.05-2.33.1.51.08,1.14-.06,1.88-.11.11-.19-.11-.24-.32-.91,2.98,1.04,1.4.94,4.5-.52-.4-1.03.7-.91,1.21.02-1.25.89-.58,1.29.57-.43,1.98.3,2.16.24,3.2l.2-1.19c.53.41.45,1.4.61,2.78-.42.12-.28-1.26-.46-.76.93,1.54-1.01,3.47-.34,5.61-.35.99-1,.1-1.24.98.71,2.4-.7,2.61-.11,5.14.71-.74.53-.86,1.25.9l-.54-4.14,1.07,2.65c0-1.25-.48-2.64-.36-3.39.6,1.26.42,1.13,1.01.53-1.05,1.72.65,3.38-.04,5.37l-1.77-.03c-.71,3,1.02,5.27.69,9.14l.27-1.25c.71.5.18,2.38.51,3.62-.6-.1-.78.69-1.13,1.24.44-.08.06,2.83,1.26,3.13l-.71,1.76c-.17,3.13,1.86,3.48,1.8,6.48-.69-.87-1.04.51-1.6-1.47.04,1-.02,1.91.39,1.9-.35.6.93,2.73.43,3.68.28.41.91.51.93,1.63-.11.13-.29,0-.29,0,.29,0,.5,1.73,1.1.71-1.68,3.19.67,8.57-.73,11.35.34,2.16.73,4.77.93,6.74-.19-.11-.29.02-.26-.36-.34,2.77,1.82,1.54,1.44,4.69-.83,1.66-.64-1.6-.93-.59-1.92.58.57,3.72-.4,5.89l-.16-.5c-.52,1.65,1.05,3.83,1.14,6.44,0,0-.18-.11-.29,0,1.15,1.69,1.77,5.03,2.26,7.51-.83-.71-.5-1.1-1.23-.56.21,1.11,1.21-.44,1.63,1.78-.35.76-.57,2.41-1.37,2.7l-.24-2.11c-.97,1.18.29,2.73.2,3.86l-.48-.1c.45,3.22,1.62,3.16,1.87,6.64l.32-.39c1.34,1.79-.5,1.65.54,3.46l-1.13.68c.4,1.17,1.58,4.48,1.95,6.09-.25-.34-.48-.69-.69-1.02-.09-.15-.19-.32-.29-.48-.05-.09-.09-.13-.14-.25l-.15-.37c-.38-.99-.73-2.03-1.06-2.82.05.62.18,1.67.37,2.65.05.23.1.5.15.69.04.1.09.21.15.31.11.2.24.38.4.5-.07-.16-.19-.33-.27-.48-.08-.17-.11-.24-.04-.47.51.43.91,1.02,1.22,1.88.31.83.52,1.86.6,2.85-.34-.38-.59-.58-.78-.68-1.08-.75-2.11-.91-3.23-1.13-1.1-.22-2.28-.49-2.57-1.31-4.45.35-8.67-1.38-13.83-1.68,1.66,1.95-1.5-.09-1.35,1.77-1.2,0-1.65-.06-1.75-.19l-3.54-1.35c-.82-.59,1.17-.32,1.09-.74-2.62-.33-1.05-.85-2.76-1.47.31.68-.98.87-2.46.51l2.06.99c-3.73.7-3.08-1.72-6.85-.97l1.2-.52c-.96.12-2.72.03-4.48.07-1.76.08-3.52.31-4.47,1.01-.33-.22-.76-.74.08-.84-2.27-.19-4.82.13-7.22.43-2.41.29-4.68.45-6.45.03l.34-.45c-.85.14-1.47.86-2.54.41.05-.19.34-.45-.06-.47-.45.16-2.25.81-3.37.56l.95-.51c-4.46-.54-6.78,1.4-10.47,1.81-.04-1.32-3.55-1.57-5.31-1.7l.05-.19c-2.59.03-4.77.47-6.89.98s-4.18,1.08-6.53,1.58c-1.54-.57-4.06-.52-6.8-.3-2.73.24-5.68.55-8.1.45.75.14,0,1.04-.81,1.28-1.15-.12-2.95,1.31-2.93.09l.4-.03c-.99-1.06-3.24-.48-5.03-.22l-.06,1.61c-2.48-.77-5.51-.14-8.24.59l-.51.13c-.15.04-.4.1-.4.11-.12.05-.24.09-.35.14-.24.09-.49.15-.69.17-.41.04-.66-.11-.29-.7-.01,0-.02.02-.04.03-.37.16-.38-.26-.77-.47l.85-.37c.05-.17.1-.31.14-.45,0,.03.02-.2.03-.34l.02-.47c.01-.31.02-.62.03-.94.03-1.26,0-2.61-.09-4.54l.61.79c.06-2.17-2.45-2.75-2.5-4.75l1.27-.6c-.02-3.79,1.1-7.63-.05-11.38.19.06.55.17.6.79.03-1.78.86-6.9-.88-6.26,1.13-.04.11-3.91-.39-5.96l.84.32c-1.07-1.73-1.36-1.78-1.65-4.2.11-.57.67-.5.46.26.44-1.91-.79-1.49-.34-3.8l.53.86c.07-1.96-.22-1.81-.84-2.89-.33-1.23.21-3.72.97-4.01-.46-.26-1.08-1.34-.86-2.49.29-.16.46.26.55.48.57-3.28-.97-4.88-.15-7.13.28-.05.42-.19.5-.38-.02,2.6-.07,4.7-.13,4.51.77,0,.91-2.1,1.97-.43-.58-1.69-1.84-4.58-1.48-6.63.07-.1.15-.2.27-.27l.09.21c.08-.47,0-.9-.12-1.3.13-.65.22-1.07.23-1.7.64-.24.35-2.41.38-3.46-.84.09-.71-1.29-1.4,0,.06-.17.1.2.13.9.02.16.04.34.09.45-.02-.02-.05-.05-.07-.07.01.69.03,1.59.05,2.61-.43-.83-.79-1.7-.32-2.86-.54-.54-1.1-1.13-1.36-1.47,1.18-1.44,1.81-4.2,2.54-4.59-.47-3.2-.31-7.55-1.89-9.56-.2-.91.45-1.05.7-1.39.16.53.13,1.15.36,1.44-.41-1.82-.16-5.4-1.26-5.83.5-2.3,1.02,1.29.84-1.86l.34.43c1.77-6.2-2.82-10.09-.55-16.97-.14.48-.2.71-.39.81,1.01-7.84-.93-16.16.66-23.9.32-2.2-.39-2.44-.92-3.78l.91-.48-1.04-2.3c-.76-3.26,2.23-5.64.78-9.76l-.61.53c.12-1.48-.36-4.69.34-4.44-.11-.15-.63-.49-.32-1.06l.47-.04-.81-3.64c.34-2.82,1.88.44,1.98-3.67-.18-1.53-1.38-4.35-1.7-3.78-.02.62-.3,1.58-.77,1.62l-.25-1.4c-1.4-.25-2.83-1.33-3.8,2.1l.85,2.39-.68.77-.04-2.01c-.64,1.14-.07,1.87.31,2.68-.36.19-.61.53-.75,1l1.33,2.35c-.55.28-1.08-1.05-1.39.52.62,1.1,1.23-1.05,1.63.77-.64,1.14-1.15.81-.61,2.15-.36.19-.59-.1-.75-.63.43,1.2.18,3.16.92,3.78-.78,1.19.2,4.04-1.12,3.92.32.38,1.04,2.11,1.09,3.2-1.58-2.01-.1,4.11-1.79,3.58,1.42,1.49.63,5.36,1.42,7.99-.11-.15-.34-.44-.27-.67-.12,1.48-.55,1.91-.82,2.86,1.18.19,1.44,2.5,2.17,3.74-1.14,1.81-1.38-1.1-2.47-.53.95-.09.95,3.15,1.74,2.54-.7,1.39-.34,1.2-1.32,1.91,1.47.24.25,1.29,1.15,2.44-.73,2.01-1.38.52-.93,2.72-.45,1.05-.97-.91-.97-.91l.03.02Zm2.51,52.46h-.02c-.02-.45-.04-.84-.05-1.08.01.23.03.54.06,1.08h0Zm.01,4.41c.03-.54.04-1.21.03-1.91.29-.15.59.01.58.46-.19-.24-.36.8-.61,1.46h0Zm5.85-9.32c.12.7-.05.93-.22,1.03-.01-.33-.04-.71-.1-1.22-.03-.02-.07-.06-.1-.08.16.07.31.14.42.28h0Z"/><path class="cls-2" d="m873.28,103.95c.13-.13-.49-.54-.78-.85-.01-.3.48.28.81.48-.06-.23-.5-.76-.41-.81.1.07.14.09.24.21-.34-.5.26-.34-.17-.95.06.03.11.07.15.11-.29-.23-.58-.47-.77-.66.05-.07-.24-.43.14-.13-.04.03.1.16.19.28l-.1-.21c.57.41.1.25.48.59-.06-.28-.35-.81-.12-.77.52.44-.03.38.53.66l-.33-.03c.9.6-.14.04.81.7.32-.06-.06-.45.26-.51-.24-.3-.43-.36-.67-.66-.25-.73,1.46.94.98.13-.29-.36-.9-.96-.43-.8l.52.57c.23-.13-.71-.86-.15-.7.19.24.05.32.14.35.56.29-.24-.39-.15-.48l.51.45c.11-.27-.04-.82.07-1.12.13.15.25.34.45.43.01-.51.62-.52,1.16-.5l-.32-.51s.23.14.29.25c.26.06-.26-.27-.38-.48.03-.09.31.16.4.32-.18-.53-.26-1.27.37-1l.09.16c.31.03-.68-1.02-.16-.76l.05.1c.5-.13.47-.87,1.34-.46-.54-.66.58-.03-.21-.9.59.25.68.45,1.21.49.11-.03-.4-.63-.4-.8l.42.45-.32-.58.56.48-.03-.19c-.06,0-.26-.14-.37-.27-.06-.32.6.03.82.26l-.05-.66c.16.19.17.3.23.45-.26-.61.47.45.22-.11-.11-.09-.24-.28-.32-.38.32.21.5.06.52-.17l.26.34c.3-.12.34-.58.6-.8-.22-.07-.69-.64-.66-.76l.46.46c-.22-.34-.24-.11-.47-.57.15-.03.55.5.64.71l-.03-.27c.14.14.18.24.33.43-.22-.35.63.32.24-.27l.13.14c.26-.22.23-.49.42-.69-.36-.43-.2-.41-.43-.81.27,0,.73.2.89,0-.05-.33-.27-.4-.42-.7.34.38.5.19.63.55.17-.25.22-.32.25-.88-.17-.14-.26-.18-.35-.33,0-.11.26.07.41.26l.02.05c-.08-.43.35-.29.74-.18.2.06.38.11.49.08.12-.03.16-.14,0-.35l.03.05c-.09-.17-.16-.34-.22-.54.09.04.17.35.37.6-.18-.4-.11-.42-.05-.38.06.03.12.12.07-.2.25.76.23.74.25.61,0-.12.06-.37.07.23v-.45c.02-.45.01.25.01.35.01-.36,0-.4.01-.66.04-.15.1-.27.12-.18.03.09.05.24.04.41,0,.34-.11.71-.19.85-.06.07,1-1.66.59-.83-.14.18-.27.36-.4.55.25-.32.31-.24.33-.18.1.15.3.44.71.4-.14.08-.29.2-.32.16-.29.4.25.33.55.08.02.09-.26.25-.37.41-.14.27.65-.19.33.17-.05.06-.14.08-.18.09.22-.1.18.3.55-.12-.07.32.44.13.29.46.54-.33,0,.45.68-.09-.7.58-.32.74.08.56-.23.15-.14.27-.46.48.1.1.32.09.65-.23-.65.91,1.01-.16.06.85.65,0,1.16.09,1.57.25-.69.58-.35-.26-1.05.37.52.03,1.24-.31,1.32.11-.03.15-.33.21-.47.29.52.03.4.59.98.51-.06.05-.16.09-.23.11.06.03,0,.2.3-.07l-.12.03c.38-.47,1.11-.62,1.35-.81-.96.68-.01.44-1.25,1.27.09-.02.27-.11.47-.29-.02.1-.13.22-.41.37.32.03.6-.32.72-.15-.15.13-.24.15-.43.28.36-.17.72-.35.71-.1-.1.07-.2.19-.23.15.24.19,1.12-.28,1.05.21-.72.49-.14.27-.7.77h.28l.23-.3c.09.13.59-.12.5.14l-.31.11.3.13.11-.31c.39-.13.7-.63.68-.34-.08.02.09.12-.19.47.23-.1.47-.2.41,0-.16.18-.64.52-.75.64.52-.35.37.16.94-.2-.14.08-.44.33-.49.39l.43-.28c-.08.16-.13.22-.37.41.07.23.67-.67.53-.21-.04.01-.1.07-.18.09,0,.34.57.17.54.51-.52.54-.28-.04-.7.44.33.17,1.15-.05,1.23.32l.02-.1c.83-.66-.24.53.25.33-.09.02-.48.34-.38.27.02.28.5.18.98.23l-.23.15c-.1.26.12.36.12.55.23-.15.25-.05.52-.35-.88,1.35,1.19.1.46,1.25-.03-.03-.25.07-.23.1l.41.09c.33-.32.18-.22.41-.5.24-.15.46-.21.51-.15-.33.08-.56.49-.71.7.1-.1.23-.19.34-.28-.51.67.72-.58.46-.04l-.19.15c.15-.01.45-.16.46-.04-.38.38-.25.09-.59.37.11.08.94-.46.62-.02-.15.05-.21,0-.36.04-.39.51-.26.42-.27.56v-.02l-.06.36.09-.16c1.17-.78.42.1,1.26-.32-.8.39-.4.3-.87.68-.09.15-.17.34-.32.44.44-.24-.17.39.47.04-.14.13.06.1-.33.4.21,0,.24-.25.43-.4.65-.27-.28.92.62.56.46-.04.99-.43,1.4-.46-.18.27-.58.41-.58.41-.13.29-.02.33.23.29-.15.09-.24.21-.38.38.11.05.58-.41.45-.12-.18.12-.46.33-.66.43.22-.02.57-.17.79-.19-.24.25-.44.28-.64.39.21,0,.47.08.91-.24l.09-.19s-.33.32-.43.36c-.4.18.03-.25.17-.39h.15c.81-.83-.37-.17-.44-.35l.68-.49-.64.31c.14-.17.47-.49.63-.51.23-.37-.3.11-.02-.28.05-.06.08-.08.11-.09l-.27.07c.15-.1.43-.4.39-.26.22-.49-.71.13-.29-.35l.05-.02c-.42-.06-.48.38-1.18.66l1.04-1.1-.48.38s-.01-.12.18-.27c-.4.18-.19.19-.53.39.32-.48-.48-.16.24-.82-.39.26-.17.35-.53.43.76-.72-.26-.03,0-.45.44-.32.31-.03.58-.45-.75.53-.03-.34-.24-.32-.55.47-.4,0-.72,0,.19-.15.05-.55.13-.86l.1-.08c-.58.45-.6.21-.81.21.34-.28.48-.38.68-.45l-.09-.1c-.2.13-.32.18-.44.17l.44-.33c-.14-.11-.72.15-.59-.26-.4.32-.96,1.07-1.38,1.11.2-.19.56-.5.68-.53-.04,0-.22.09-.16-.01l.42-.23c.09-.21-.33.21-.35.12.3-.26.17-.23.42-.43.04,0-.08.16.06.08,0-.12.1-.36.3-.58-.16.15-.4.35-.49.33-.14-.12.32-.36.41-.57-.24.15-.09-.12-.54.26-.03-.04.17-.23.28-.35-.26.1-.34-.28-.74.21l-.02.04h-.03c-.64.16-.15-.69-.54-.75l.15-.13c-.29.01-.36-.21-.76-.03-.03-.04.19-.33.39-.47-.2,0-.38.13-.26-.23.35-.12.2-.23.28-.06.01-.24.23-.48-.3-.27.43-.28.4-.52.23-.48l-.19.33c-.12-.02-.14-.11-.16-.21l.53-.4c.38-.8-1.47.41-.62-.69-.42.23-.12.36-.59.65-.04-.18.57-.94.54-.98.13-.41-.88.47-.84.13-.16.18-.62.61-.91.62-.04-.18.62-.8.83-.85.04.02,0,.08-.07.13.1-.02.22-.03.38-.25l-.19.14c.13-.22-.04-.38.29-.59-.25.05-.33.21-.36.36.12-.39-.21-.26-.18-.58-.08.11-.27.32-.29.29.01-.44-.43.19-.65.09.19-.33.68-.53.31-.5.1-.26.46-.43.64-.52-.48.15-.02-.48-.03-.62l.21-.04c-.13.03-.16-.01-.19-.06l-.32.36c.02-.1-.01-.14.14-.27-.28.15-.57.55-.97.73.13-.22-.36-.02.1-.45,0,.34.46-.43.68-.33-.08.02-.12-.02-.09-.13.05-.05.1-.08.14-.09.26-.56-.61.38-.77.17.29-.21.47-.48.39-.47.06.08-.42.42-.68.53.1-.31-.27,0-.3-.09l-.03.16c-.29.21-.31.11-.47.1.2-.19.21-.04.28-.16-.56.31.3-.64-.13-.5.13-.22.5-.44.58-.6-.48.15.23-.48-.2-.39-.32.36-.23.29-.68.48l.48.04-.67.29c.06.08.37-.03.35.07-.36.17-.27.1-.53.4.45-.57-.5.06-.24-.38l.9-.77c.24-.53-.75.06-.73-.37l-.09.21c-.38.27-.18-.11-.39-.06.31-.25.37-.39.53-.59-.22.2-.13-.2-.75.3l.3-.45c0-.34-1.05.51-1.11.23.37-.22.51-.49.85-.57-.05-.07-.05-.17-.25,0,.16-.2-.55.17-.32-.13-.15.09-.48.35-.51.26.05-.06.15-.13.15-.13-.15.13-.3.06-.57.41.77-1-.54-.48.12-1.34-.22-.05-.46-.13-.59-.24.1-.07.15-.13.14-.08.13-.41-.95.63-.81.17.4-.52.35-.12.48-.34.96-.88-.34-.12.12-.75l.09-.02c.25-.39-.58.07-.66-.15,0,0,.09-.07.15-.13-.29.17-.55.21-.77.2-.21,0-.38-.04-.52-.06.39-.33.26-.11.57-.55-.13-.04-.53.65-.77.6.13-.27.17-.6.48-1.09l.19.17c.35-.69-.24-.24-.25-.45l.19-.26c-.34-.25-.74.5-.96.15l-.08.27c-.47.65.08-.58-.3-.13l.27-.9c-.18.08-.61.47-.78.49.24-.61.54-.72.81-.94-.1-.13-.39-.35-.55.06.06-.05.17-.21.17-.03-.32.58-.52.81-.68.61.18-.96.07-1.23-.07-1.48-.06-.2-.17-.07-.25-.12-.08-.04-.15-.18-.18-.53-.26.55-.47.64-.73.68-.25.04-.56.05-.84.32.46,1.15-.16.16.18,1.44-.08.16-.13.17-.16.1-.18-.17-.37-.33-.58-.47-.22-.28.03-.36-.08-.63-.34.14-.31-.41-.66-.56.21.39.14.68-.11.67.17.11.33.22.48.34-.1.9-.83-.65-.96.26l-.06-.44c-.06.19-.28.35-.43.59-.15.24-.08.43.14.87-.11-.09-.35-.33-.35-.44-.39.13,0,1.35-.62,1.07l-.17-.25c0,.11.26.51,0,.34-.08-.1-.17-.25-.2-.24.04.1.19.53,0,.45l-.15-.31c-.54-.06.08,1-.02,1.36-.57-.67-.98-.7-1.18-.71l-.08-.1c-.4.21-.09,1.04-.17,1.57-.82-.56-.9.26-1.56.13.15.08.45.52.46.63-.19-.07.21.63-.32.02h.04c-.58-.55-.59-.27-.72-.18l.69.8c-1.33-.86-.38,1.12-1.48.26.11.26.02.34.13.6l-.38-.42c-.29.08-.44.12-.58.45l-.23-.34c-.16.1.96,1.34.86,1.48l-.62-.57c-.23.23-.98-.07-.67.7-.08-.09-.25-.27-.23-.33-.12.09-.82,0,.03.79-.53-.53-.29.18-.18.54l-.38-.41c.4.61.54.75.53,1.03-.09-.02-.35-.28-.2-.23-.32-.09.29.46-.06.39l-.2-.3c-.15.09,0,.21.23.57.09.23-.32.12-.7-.21.2.23.43.58.26.55-.15-.12-.21-.23-.23-.28-.47-.06.18.75-.35.51-.14-.12-.21-.18-.26-.21.16-.15.31-.26.32-.22-.37-.36-.56-.29-.97-.89.18.37.62,1.14.32,1.09-.04-.03-.08-.06-.14-.11l-.03-.05c-.06,0-.06.05-.02.14-.1-.02-.17-.04-.21,0-.32-.28-.31,0-.39.04.41.38.27.4.68.64-.04-.02-.04-.06-.01-.12,0-.02,0-.04-.02-.07l.03.04c.03-.05.07-.12.13-.19.16.25.28.47,0,.32.23.28.46.57.57.71-.65-.45-1.12-.57-1.5-.88.05.42-.29.62.38,1.46.05.15-.28-.14-.42-.23-.05-.1,0-.13-.1-.25.09.3-.23.41.29.93-.38-.08-.43-.54-.52-.26l-.14-.18c-1.23-.39.83,1.89-.68,1.32.1.03.14.04.24.12-.94.06-.42,1.43-1.65,1.25-.28,0,.06.32.27.64l-.49-.36.41.6c.22.54-1.45-.58-.92.3l.34.22c-.14.05-.06.46-.41.15.05.06.3.3.11.2l-.25-.2.23.58c-.33.04-.95-.82-1.22-.58.01.18.49.86.68.96.04-.03.24.02.49.22l.05.19c.71.6,1.41,1.26,2.09,1.45l-.32-.51.39.23-.08.15c.39.19.13-.09-.03-.3.2.14.34.22.44.25l-.57-.71c.3.21.51.52.74.55-.26-.33-.69-.45-.8-.74.39.19.64.43.43.12.2.14.3.25.35.35-.16-.26.07-.28-.28-.63.46.26.1-.34.78.23-.14-.16-.42-.57-.39-.67.71.8.26-.22,1.1.54-.65-.7-.04-.6-.31-1.11.05.06.15.18.1.16.14-.04.38.12.56.17-.59-.52-.6-.78-.9-1.17.67.38.64.67,1.22,1.11-.49-.41-.31-.61-.75-.91.43.22.24.07.77.46-.73-.66-.06-.19-.45-.65.47.19.72.57.61.24.28.13.44.48.44.48l-.06.1Zm1.63-4.29s-.03.07-.04.09c0-.02.01-.05.03-.09h.01Zm.24-.27s-.09.05-.12.1c-.15-.13-.28-.27-.25-.29.08.1.22.12.38.19h-.01Zm-3.36-2.13c-.02-.1.08-.04.17.04-.01.03-.02.06-.02.12l.05.05c-.07-.08-.14-.15-.19-.21h-.01Z"/><path class="cls-2" d="m571.94,64.23c.16-.1-.36-.63-.59-1,.05-.3.41.37.7.63,0-.24-.33-.85-.23-.89.08.09.12.12.19.25-.24-.56.33-.28.02-.98.05.04.09.09.13.13-.25-.28-.48-.57-.63-.79.06-.06-.16-.46.16-.1-.05.02.07.18.14.31l-.06-.22c.48.5.05.26.36.67,0-.28-.19-.86.03-.78.43.52-.1.37.4.74l-.32-.08c.77.76-.14.02.67.84.33,0,.03-.46.36-.46-.18-.34-.36-.43-.54-.77-.12-.77,1.28,1.17.94.29-.22-.4-.73-1.1-.29-.86l.42.65c.25-.1-.56-.96-.03-.72.15.27,0,.32.08.37.51.37-.17-.42-.07-.5l.44.52c.15-.25.08-.82.24-1.11.11.17.2.37.39.49.09-.5.69-.44,1.23-.36l-.26-.55s.21.17.26.28c.25.08-.23-.29-.32-.52.04-.08.3.19.37.36-.12-.55-.12-1.29.49-.97l.07.17c.31.05-.58-1.08-.09-.78l.04.1c.51-.09.55-.82,1.38-.36-.49-.69.58,0-.15-.92.57.28.65.49,1.19.55.11-.02-.37-.65-.36-.83l.4.47-.3-.6.55.5-.02-.19c-.06,0-.25-.15-.36-.29-.05-.33.6.05.81.28l-.03-.67c.16.19.16.3.22.46-.24-.62.46.46.23-.11-.11-.09-.23-.29-.31-.38.32.21.5.06.52-.17l.26.34c.3-.12.36-.58.62-.81-.22-.07-.69-.64-.66-.76l.46.46c-.22-.34-.24-.11-.47-.57.15-.03.56.5.64.7l-.03-.27c.14.14.18.24.33.43-.22-.34.64.31.24-.28l.14.14c.26-.23.23-.5.42-.71-.37-.42-.21-.4-.45-.8.25.01.81.11.76.08-.13-.26-.28-.39-.45-.68.31.41.34.32.52.66.02-.13,0-.14-.06-.65-.09-.2-.15-.27-.21-.45,0-.11.14.16.23.41v.06c-.06-.45.17-.16.29.19.13.33.16.72.14,0v.07c0-.26.03-.53.06-.82.04.08-.02.54.01.95,0-.13.02-.24.02-.34.1-.5.06.46.19-.12-.12.95-.12.91-.06.83.05-.09.17-.2-.04.28l.16-.35c.17-.32-.08.21-.11.29.13-.26.14-.31.24-.49.17-.13.21.09.1.3.08.4.13.89.26,1.26.12.25,1.41-1.2,1.04-.36l-.53.4c.94-.18.75.79,1.59.68-.13.09-.27.23-.3.19-.26.42.27.3.55.03.03.09-.24.26-.34.44-.12.28.63-.24.33.14-.05.06-.13.09-.17.1.22-.11.19.28.54-.16-.05.32.44.09.32.43.51-.37.03.45.67-.15-.65.63-.27.76.11.54-.22.16-.12.28-.43.51.11.09.32.06.63-.28-.58.95.99-.25.11.84.64-.05,1.15,0,1.56.11-.65.63-.36-.23-1.02.45.52,0,1.21-.41,1.3,0-.02.15-.31.24-.44.33.52,0,.43.55,1,.42-.06.06-.15.1-.22.12.07.02,0,.2.29-.1l-.12.04c.35-.49,1.06-.7,1.29-.92-.91.76.01.43-1.16,1.36.08-.03.26-.13.45-.33-.01.1-.11.23-.38.4.32,0,.57-.36.71-.21-.14.14-.22.17-.4.32.35-.2.69-.4.7-.16-.09.08-.19.2-.22.16.25.17,1.08-.37,1.05.12-.68.54-.12.28-.64.82l.28-.03.21-.31c.1.12.58-.17.5.09l-.3.14.3.1.09-.31c.38-.16.66-.68.65-.39-.08.02.1.11-.15.48.22-.11.45-.24.4-.03-.15.19-.6.57-.7.69.49-.39.37.13.91-.27-.13.09-.41.36-.46.43l.4-.31c-.06.16-.11.23-.34.44.08.22.62-.72.51-.25-.04.02-.09.08-.17.1.03.33.57.12.56.46-.48.58-.27,0-.67.49.33.14,1.13-.15,1.23.21l.02-.1c.78-.72-.2.54.27.3-.08.03-.45.38-.36.3.04.28.51.14.98.14l-.22.16c-.08.26.14.34.16.53.22-.16.25-.07.49-.39-.79,1.41,1.18,0,.53,1.19-.03-.03-.25.09-.22.12l.41.06c.31-.34.17-.23.37-.53.22-.16.44-.25.5-.19-.32.11-.52.53-.66.75.09-.11.22-.2.32-.31-.46.7.68-.64.45-.08l-.18.16c.15-.03.43-.19.45-.08-.35.41-.24.11-.56.42.12.07.9-.53.61-.07-.15.07-.2,0-.35.07-.35.54-.23.43-.23.57v-.02l-.04.36.08-.16c1.1-.87.42.06,1.22-.43-.77.46-.38.33-.82.74-.08.16-.15.35-.29.46.42-.27-.15.4.46,0-.13.14.07.09-.3.42.21-.01.22-.26.4-.43.62-.32-.22.92.64.5.45-.08.95-.51,1.36-.57-.16.28-.55.45-.55.45-.11.3,0,.33.25.26-.14.1-.22.22-.35.4.11.04.55-.45.44-.16-.17.14-.44.36-.63.48.21-.04.55-.22.76-.25-.22.26-.42.31-.6.44.21-.01.47.04.88-.31l.07-.2s-.31.34-.4.39c-.38.21.01-.25.15-.4l.15-.03c.75-.87-.38-.12-.46-.29l.64-.54-.62.36c.13-.18.44-.53.59-.55.2-.38-.29.13-.04-.27.04-.06.07-.08.11-.1l-.26.09c.14-.11.4-.43.37-.29.18-.5-.69.19-.31-.32l.05-.02c-.42-.02-.45.41-1.12.75l.96-1.17-.45.41s-.02-.11.16-.28c-.38.21-.17.2-.5.43.29-.5-.48-.11.18-.83-.37.29-.15.36-.49.47.71-.77-.26,0-.02-.44.41-.35.3-.06.55-.5-.71.59-.05-.33-.26-.29-.52.51-.4.03-.71.06.18-.16.02-.54.08-.86l.09-.08c-.54.49-.58.26-.79.27.32-.31.46-.41.65-.5l-.09-.09c-.19.14-.3.2-.42.2l.41-.36c-.14-.1-.7.21-.6-.21-.37.35-.88,1.13-1.29,1.21.19-.2.52-.54.64-.58-.04,0-.21.11-.16,0l.4-.26c.07-.22-.31.24-.34.15.28-.28.16-.24.39-.45.04,0-.07.17.07.08-.01-.11.07-.36.26-.59-.15.16-.38.38-.46.36-.14-.1.29-.38.37-.59-.22.16-.1-.11-.52.3-.03-.04.15-.24.25-.37-.25.12-.35-.24-.72.27v.05h-.04c-.62.21-.19-.67-.58-.69l.14-.14c-.28.04-.37-.18-.76.03-.04-.04.17-.34.35-.49-.2.01-.37.16-.27-.21.34-.15.18-.25.28-.08,0-.24.2-.49-.32-.24.4-.31.36-.54.19-.49l-.17.34c-.12,0-.14-.1-.17-.19l.5-.44c.32-.82-1.42.52-.65-.62-.4.26-.1.37-.54.69-.05-.18.51-.97.47-1.01.1-.42-.83.54-.82.2-.15.19-.58.66-.86.69-.05-.18.56-.84.77-.91.04.01,0,.08-.06.14.1-.02.22-.05.36-.27l-.18.15c.11-.23-.06-.37.25-.61-.25.07-.31.24-.34.39.1-.39-.22-.24-.21-.55-.07.12-.24.34-.27.31-.01-.43-.42.22-.64.14.17-.34.64-.58.28-.52.08-.27.43-.46.6-.56-.46.19-.04-.47-.06-.61l.21-.06c-.12.04-.16,0-.19-.04l-.29.38c.02-.1-.02-.14.12-.28-.26.18-.53.59-.91.8.11-.23-.36,0,.07-.46.03.33.43-.47.65-.39-.08.02-.12-.01-.1-.12.04-.06.1-.09.14-.1.23-.57-.58.42-.75.24.27-.23.44-.52.35-.49.07.08-.38.45-.64.58.08-.31-.27.02-.31-.06l-.02.16c-.27.23-.3.14-.46.14.19-.2.21-.06.26-.18-.53.35.26-.66-.16-.48.11-.23.47-.48.53-.64-.46.19.2-.49-.22-.37-.3.38-.21.3-.64.53h.48l-.64.34c.07.08.36-.06.35.04-.35.2-.26.13-.5.44.41-.6-.49.1-.26-.36l.84-.83c.2-.54-.73.12-.74-.31l-.07.22c-.36.3-.18-.09-.39-.03.29-.27.34-.42.49-.62-.2.21-.14-.18-.72.36l.27-.47c-.03-.33-1,.59-1.08.32.36-.25.48-.53.81-.63-.05-.06-.06-.16-.25.03.14-.21-.54.22-.32-.1-.15.1-.45.38-.49.29.05-.06.14-.14.14-.14-.14.14-.29.09-.54.45.7-1.05-.56-.43.04-1.33-.22-.03-.46-.09-.59-.19.09-.08.14-.14.13-.09.1-.42-.9.7-.79.24.36-.54.34-.15.45-.38.89-.94-.34-.09.08-.75l.08-.02c.22-.4-.57.12-.66-.09,0,0,.09-.07.14-.14-.57.37-.92.33-1.2.31.4-.31.26-.12.59-.52-.12-.01-.57.61-.8.58.16-.24.23-.5.61-.91l.14.1c.44-.57-.17-.14-.15-.29l.23-.21c-.26-.12-.82.44-.98.2l-.15.19c-.66.44.22-.4-.3-.1l.53-.59c-.21.06-.79.29-1.03.26.49-.34.85-.4,1.19-.55-.07-.08-.28-.2-.6.03.08-.02.26-.12.2-.01-.52.36-.88.43-1.03.25.51-.57.44-.78.31-.99s-.3-.4-.1-1.03c-.35.05-.51-.19-.68-.54-.17-.34-.35-.77-.62-.98-.13,1.56-.15-.1-.4,1.38-.11,0-.14-.06-.13-.16-.05-.39-.11-.8-.18-1.22-.03-.54.14-.24.17-.6-.25-.38-.04-.77-.2-1.39,0,.61-.16.73-.3.35l.17.97c-.24.32-.27-.37-.37-.86-.06-.19-.16-.24-.31.25l.12-.64c-.2.5-.82.77-.84,2.13-.06-.14-.16-.5-.09-.69-.26.14-.47.7-.64,1.15-.18.45-.32.78-.62.65l-.09-.33c-.06.17.1.68-.14.49-.05-.12-.1-.31-.15-.29,0,.15.03.69-.17.64l-.08-.39c-.68.1-.28,1.38-.35,1.72-.59-.65-.99-.68-1.19-.69l-.08-.1c-.37.2-.03,1.01-.08,1.52-.81-.56-.86.23-1.5.08.15.08.45.52.45.63-.18-.08.22.62-.3,0h.03c-.57-.56-.57-.28-.69-.21l.68.81c-1.29-.92-.38,1.07-1.43.16.1.26.02.33.12.59l-.36-.43c-.28.05-.42.08-.57.38l-.21-.35c-.16.08.88,1.39.78,1.52l-.58-.62c-.22.21-.94-.17-.68.61-.08-.1-.22-.29-.21-.35-.12.07-.79-.09-.01.77-.48-.58-.29.14-.21.5l-.33-.45c.34.64.46.79.44,1.07-.08-.03-.31-.32-.18-.25-.3-.13.24.49-.09.37l-.17-.32c-.15.07-.02.21.17.58.06.24-.32.08-.66-.3.18.25.37.63.2.57-.13-.14-.18-.25-.2-.31-.44-.13.1.75-.39.44-.12-.14-.18-.21-.23-.24.17-.12.32-.2.34-.16-.32-.4-.51-.37-.85-1,.14.39.48,1.19.2,1.1-.04-.04-.07-.07-.13-.13l-.02-.06c-.06-.02-.06.04-.03.13-.09-.03-.16-.06-.2-.04-.28-.32-.29-.06-.37-.03.35.44.21.43.58.74-.04-.02-.03-.06,0-.12v-.07l.03.04s.08-.1.14-.16c.12.27.22.5-.05.31.19.31.38.63.47.79-.58-.54-1.01-.74-1.34-1.1,0,.41-.35.54.17,1.47.02.15-.25-.19-.38-.3-.03-.11.02-.13-.06-.26.05.3-.28.35.14.95-.35-.15-.33-.6-.46-.35l-.11-.2c-1.11-.63.49,1.99-.87,1.12.09.05.13.07.21.17-.9-.15-.68,1.28-1.81.8-.27-.07,0,.32.12.68l-.39-.47.26.67c.08.57-1.24-.93-.94.04l.27.31c-.14,0-.17.42-.43.02.03.07.21.37.05.22l-.19-.26.07.61c-.32-.05-.7-1.04-1-.9-.03.17.24.95.4,1.1.05-.02.22.09.4.34v.2c.52.77,1,1.6,1.6,1.97l-.17-.58.31.33-.12.12c.32.29.15-.05.06-.3.15.19.27.31.36.36l-.36-.84c.23.28.35.64.57.73-.17-.39-.54-.61-.58-.92.32.29.5.59.38.23.15.19.22.32.25.44-.09-.29.14-.25-.1-.68.38.37.19-.31.7.42-.1-.19-.26-.66-.21-.75.48.95.31-.15.94.79-.46-.84.11-.6-.02-1.16.03.07.11.21.06.18.15,0,.34.2.51.3-.45-.64-.4-.9-.61-1.35.57.52.47.79.94,1.35-.38-.51-.17-.67-.52-1.06.37.31.21.12.65.61-.57-.8-.01-.2-.3-.74.42.29.58.71.55.36.25.19.33.56.33.56l-.06.18Zm2.41-3.99s-.04.06-.05.08c0-.02.02-.04.04-.09h.01Zm.28-.23s-.09.04-.14.08c-.13-.14-.24-.31-.21-.32.07.11.2.15.35.24Zm-3.01-2.58c0-.1.08-.02.16.06-.01.02-.03.06-.04.11,0,.02.02.04.04.06-.06-.09-.12-.17-.16-.24h0Z"/><path class="cls-2" d="m718.48,132.47c.14-.14-.49-.54-.79-.84,0-.31.49.27.83.45-.05-.24-.5-.76-.4-.83.1.07.15.08.25.2-.35-.5.28-.37-.16-.98.06.03.11.07.16.1-.3-.22-.59-.46-.79-.63.05-.08-.25-.43.14-.14-.05.03.1.16.2.28l-.1-.21c.58.39.1.25.49.58-.05-.28-.35-.82-.11-.79.54.42-.04.39.54.64h-.34c.93.56-.14.05.83.67.34-.09-.06-.46.28-.55-.25-.29-.44-.35-.69-.64-.25-.74,1.51.87,1.01.06-.29-.35-.93-.93-.45-.8l.54.55c.24-.16-.74-.83-.16-.72.2.23.05.33.15.36.58.25-.25-.38-.15-.49l.54.42c.11-.29-.05-.85.07-1.18.14.15.27.33.48.4,0-.53.63-.61,1.2-.64l-.35-.5s.24.12.31.23c.27.03-.28-.25-.4-.45.03-.09.33.13.43.29-.2-.53-.31-1.28.36-1.09l.1.16c.33-.01-.75-.97-.2-.77l.05.1c.51-.2.45-.95,1.36-.65-.59-.61.6-.11-.27-.91.62.17.73.37,1.28.34.11-.04-.46-.6-.46-.78l.47.4-.37-.56.62.41-.04-.19c-.06.01-.28-.1-.41-.23-.09-.32.62-.06.87.14l-.1-.68c.18.17.2.28.28.43-.32-.59.52.39.23-.15-.12-.07-.27-.25-.36-.34.35.16.52-.02.52-.26l.3.31c.3-.18.3-.66.55-.93-.24-.03-.77-.54-.75-.67l.52.4c-.26-.32-.26-.08-.54-.51.15-.06.62.42.73.62l-.06-.28c.15.12.2.22.38.39-.26-.32.68.21.22-.33l.15.12c.25-.28.19-.55.36-.8-.42-.38-.25-.38-.53-.75.28-.05.77.06.91-.18-.09-.33-.32-.36-.52-.64.39.33.53.09.72.44.15-.3.19-.38.14-.96-.19-.11-.29-.13-.4-.26-.02-.11.27.02.45.19l.03.05c-.28-.85,1.81.2,1.24-.79l.03.05-.17-.65c.18-.07.22.33.54.45-.2-.42-.03-.57.06-.58.08,0,.17.06.02-.2.52.56.49.54.47.42-.03-.11-.05-.34.16.16l-.14-.38c-.12-.39.1.2.13.29-.1-.31-.13-.34-.19-.56,0-.29.12-.29.2-.09.09.19.13.58.12.88v.13c-.03.13.26-2.76.19-1.41l-.14.93c.09-.55.15-.45.18-.38.03.08.04.15.25-.13-.08.15-.18.35-.18.34-.22.5.02.07.26-.27-.01.06-.2.33-.3.52-.17.25.4-.48.12-.07-.04.05-.1.11-.13.15.16-.18-.01.08.36-.35-.16.23.25-.07.03.18.5-.37-.04.45.67-.07-.73.53-.36.74.06.59-.25.13-.16.26-.49.45.1.12.32.13.68-.17-.69.88,1.04-.07.03.9.67.07,1.19.21,1.61.41-.73.54-.35-.31-1.09.28.53.09,1.28-.2,1.35.24-.04.15-.34.19-.49.26.53.08.4.65,1,.63-.07.05-.16.08-.24.09.07.04,0,.21.31-.05l-.13.02c.4-.45,1.15-.55,1.4-.73-1,.63-.02.45-1.31,1.22.09-.01.28-.09.49-.26-.02.1-.13.22-.42.36.33.06.62-.28.75-.1-.16.12-.24.13-.44.26.37-.15.75-.3.73-.05-.1.06-.21.18-.24.13.25.22,1.15-.21,1.08.3-.74.45-.15.27-.72.75h.29l.24-.27c.09.14.61-.08.51.18l-.32.09.31.16.11-.32c.41-.11.73-.6.7-.3-.09.01.1.14-.19.48.24-.08.49-.18.42.04-.17.17-.66.5-.77.61.54-.33.38.2.96-.14-.14.07-.45.32-.5.38l.44-.27c-.08.16-.13.22-.38.41.07.24.69-.65.55-.18-.05,0-.1.06-.19.08,0,.35.59.21.55.57-.53.53-.28-.06-.72.41.34.2,1.18.02,1.27.41l.02-.1c.85-.64-.24.54.26.36-.09.02-.49.33-.39.26.02.3.52.22,1.01.29l-.24.14c-.1.27.13.38.14.58.24-.14.26-.04.53-.34-.88,1.36,1.22.16.5,1.32-.03-.04-.26.06-.23.09l.42.11c.33-.32.18-.22.41-.51.24-.14.47-.2.52-.14-.34.08-.57.48-.72.7.1-.1.23-.18.34-.28-.5.68.73-.58.47-.02l-.19.15c.16,0,.46-.15.47-.02-.38.38-.26.08-.59.36.12.09.96-.44.64,0-.15.05-.21-.02-.37.03-.38.52-.25.43-.26.57v-.02l-.05.37.09-.16c1.18-.77.44.11,1.29-.3-.81.38-.4.3-.88.68-.09.16-.17.35-.31.44.45-.23-.16.4.48.06-.14.13.07.11-.32.41.21,0,.23-.25.43-.4.65-.26-.25.94.66.6.47-.03,1-.42,1.42-.44-.18.27-.58.41-.58.41-.12.3,0,.35.25.3-.15.09-.24.21-.37.38.11.05.58-.41.46-.12-.18.13-.46.33-.66.44.22-.02.58-.17.8-.18-.23.25-.44.28-.64.39.22,0,.49.09.92-.23l.08-.2c.06.02-.33.33-.43.36-.4.18.02-.26.16-.4h.16c.79-.84-.39-.18-.47-.36l.68-.49-.65.31c.13-.17.46-.5.62-.51.22-.37-.3.1-.04-.29.05-.06.08-.08.11-.09l-.27.06c.15-.1.43-.4.39-.26.2-.5-.72.12-.31-.36l.05-.02c-.43-.07-.48.38-1.19.66l1.02-1.12-.48.38s-.02-.12.18-.27c-.4.18-.19.19-.53.39.31-.49-.5-.18.22-.84-.39.26-.17.35-.53.43.76-.72-.27-.04,0-.47.44-.32.32-.02.58-.45-.75.53-.04-.35-.26-.34-.55.47-.41-.01-.73-.02.19-.15.04-.57.11-.89l.1-.07c-.58.45-.61.2-.83.18.34-.28.49-.37.69-.44l-.09-.1c-.2.13-.32.17-.45.16l.44-.33c-.14-.12-.74.13-.61-.29-.4.32-.97,1.07-1.39,1.09.21-.19.56-.5.69-.52-.04,0-.23.09-.16-.02l.42-.22c.09-.22-.33.21-.36.11.3-.25.17-.23.42-.42.04,0-.08.16.06.09,0-.12.09-.36.3-.59-.17.15-.41.34-.49.32-.14-.12.32-.35.41-.57-.24.14-.1-.13-.55.24-.03-.04.17-.23.28-.35-.26.09-.35-.3-.76.19l-.02.05h-.03c-.65.13-.16-.72-.56-.8l.15-.12c-.29,0-.37-.24-.78-.07-.03-.04.2-.33.39-.46-.21-.02-.39.11-.27-.26.36-.11.21-.23.29-.05.01-.25.23-.48-.31-.3.44-.27.4-.51.23-.48l-.2.33c-.12-.03-.14-.13-.16-.22l.55-.38c.39-.8-1.5.33-.63-.74-.43.21-.13.37-.61.64-.04-.19.59-.93.56-.98.14-.42-.9.44-.86.08-.16.17-.64.59-.93.58-.04-.19.64-.79.86-.82.04.02,0,.08-.07.13.1,0,.23-.01.39-.23l-.2.13c.14-.22-.03-.39.31-.59-.26.04-.34.2-.38.35.13-.39-.21-.28-.17-.61-.08.11-.28.31-.3.28.02-.45-.45.16-.67.05.2-.33.71-.5.33-.49.11-.26.48-.41.66-.49-.49.12,0-.5-.01-.64l.22-.03c-.13.02-.16-.03-.19-.07l-.33.34c.02-.1,0-.15.15-.27-.29.14-.59.53-1.01.69.14-.22-.37-.05.11-.46,0,.35.48-.41.7-.29-.09.01-.12-.03-.09-.14.05-.05.11-.07.15-.08.28-.55-.64.34-.79.12.3-.19.49-.46.41-.45.06.09-.44.41-.71.49.11-.31-.28-.02-.31-.11l-.04.16c-.3.19-.32.09-.48.06.21-.18.22-.03.29-.14-.58.28.32-.64-.12-.53.14-.22.52-.41.61-.57-.49.12.25-.48-.19-.42-.34.34-.24.28-.7.44l.49.08-.69.24c.06.09.38,0,.36.1-.38.15-.28.09-.56.37.48-.56-.51.02-.24-.42l.94-.72c.26-.53-.76,0-.73-.45l-.1.21c-.4.25-.18-.13-.4-.1.32-.23.39-.37.56-.56-.23.18-.13-.21-.78.24l.32-.43c0-.35-1.09.43-1.14.14.39-.19.54-.46.89-.5-.05-.07-.04-.18-.26-.02.17-.19-.57.12-.32-.17-.16.07-.5.31-.53.21.06-.06.16-.12.16-.12-.16.12-.31.04-.6.37.82-.96-.49-.51.08-1.51-.27-.14-.54-.3-.7-.47.08-.09.12-.16.13-.09.01-.6-.81.82-.76.19.25-.75.31-.17.37-.48.35-.62.25-.69.1-.71-.15-.02-.34.03-.24-.48l.08-.02c.06-.66-.54.09-.69-.27,0,0,.05-.12.07-.23-.39.59-.67.58-.88.61.18-.62.15-.26.25-1-.1-.01-.2,1.14-.37,1.15.02-.44-.03-.94.05-1.76l.17.18c.07-1.13-.22-.27-.28-.56l.06-.45c-.26-.21-.36.78-.55.65-.02,0-.04.06-.07.07v.34c-.15,1.38-.09-.55-.24.51l-.05-1.15c-.11.42-.32,1.54-.45,1.91,0-.9.2-1.59.34-2.28-.11.12-.39.54-.39,1.14.03-.15.07-.49.12-.37-.08,1.04-.16,1.6-.33,1.78-.13-1.02-.29-.98-.47-.86-.18.12-.36.32-.66-.25-.11.56-.32.71-.6.85-.27.13-.6.24-.83.58.87.81-.12.19.65,1.17-.04.17-.09.19-.15.14-.25-.08-.52-.15-.8-.2-.33-.16-.08-.32-.28-.51-.33.24-.47-.24-.91-.24.18.12.27.26.28.37.03.09,0,.14-.11.13.19.07.35.17.55.22.25.7-.96-.46-.69.22l-.22-.33c.06.28-.41.46.22,1.24-.13-.07-.4-.26-.42-.38-.37.21.2,1.37-.46,1.2l-.2-.22c.02.11.34.47.05.34-.09-.09-.2-.22-.24-.21.05.1.26.5.07.46l-.2-.29c-.55.04.22,1,.16,1.38-.66-.58-1.08-.54-1.29-.51l-.09-.09c-.38.27.04,1.07.03,1.61-.89-.43-.88.41-1.56.37.16.06.51.46.53.57-.2-.04.28.61-.32.07l.03-.02c-.65-.46-.62-.17-.74-.07l.78.71c-1.43-.69-.28,1.19-1.47.46.13.25.05.34.19.59l-.42-.37c-.29.11-.44.17-.56.52l-.26-.32c-.16.12,1.08,1.25.98,1.41l-.67-.51c-.21.26-1,.04-.63.79-.09-.08-.27-.25-.26-.32-.12.11-.84.09.08.8-.58-.49-.28.22-.15.57l-.4-.38c.44.58.58.71.59,1-.09,0-.37-.26-.22-.22-.33-.06.31.44-.05.41l-.22-.29c-.15.1,0,.22.26.56.1.23-.32.16-.72-.15.22.22.47.56.29.54-.15-.11-.22-.22-.25-.27-.48-.03.21.75-.34.54-.14-.12-.22-.17-.27-.19.16-.17.31-.29.33-.25-.39-.33-.58-.25-1.02-.83.2.37.67,1.11.36,1.09-.04-.03-.09-.05-.15-.1l-.03-.05c-.07,0-.05.06-.01.14-.1-.01-.17-.02-.22.01-.34-.26-.31,0-.39.07.43.36.28.39.71.61-.04-.01-.04-.06-.02-.12,0-.02,0-.04-.02-.07l.03.04c.03-.06.07-.13.12-.2.17.24.3.46,0,.33.24.27.49.55.6.69-.68-.41-1.16-.5-1.55-.79.05.42-.28.64.41,1.46.05.15-.29-.13-.44-.21-.05-.1,0-.14-.1-.25.1.3-.23.43.3.94-.39-.06-.44-.53-.53-.24l-.15-.17c-1.26-.35.85,1.9-.7,1.38.1.03.15.04.25.11-.97.1-.46,1.49-1.72,1.33-.29,0,.06.33.25.65l-.49-.36.4.6c.2.55-1.46-.57-.96.32l.34.23c-.15.05-.09.47-.43.15.05.06.3.3.1.21l-.24-.2.2.59c-.34.04-.94-.83-1.22-.6,0,.18.45.88.65.98.05-.03.24.02.49.22l.05.2c.7.61,1.37,1.3,2.07,1.49l-.3-.53.39.24-.09.15c.39.2.15-.09,0-.31.2.14.34.23.44.25l-.55-.73c.3.22.49.53.74.56-.25-.34-.69-.45-.79-.75.39.2.64.44.44.12.19.14.3.26.35.36-.15-.26.09-.29-.25-.65.47.26.13-.36.8.22-.14-.16-.41-.59-.37-.68.69.81.29-.24,1.12.53-.64-.71-.01-.63-.26-1.14.05.06.15.18.1.16.15-.05.39.11.58.16-.59-.52-.59-.79-.89-1.18.68.37.64.67,1.23,1.1-.49-.4-.3-.62-.74-.92.44.21.24.07.78.44-.73-.65-.05-.19-.45-.66.49.18.73.56.63.22.29.12.44.48.44.48l-.11.03Zm1.74-4.6s-.03.07-.04.09c0-.02.01-.05.03-.1h.01Zm.25-.3s-.09.06-.13.11c-.16-.12-.3-.26-.27-.28.08.1.23.1.39.17h.01Zm-3.5-1.91c-.02-.1.08-.04.17.03,0,.03-.02.07-.02.13l.05.05c-.08-.07-.15-.14-.2-.2h0Z"/><path class="cls-2" d="m530.96,302.19c.1-.11-.54-.49-.86-.76-.06-.27.49.25.83.43-.09-.21-.59-.68-.51-.73.1.07.15.08.26.19-.4-.44.19-.31-.32-.86.06.03.11.06.16.09-.31-.2-.62-.42-.83-.58.03-.06-.3-.38.1-.11-.04.03.12.14.23.25l-.13-.18c.6.36.14.22.55.52-.1-.25-.47-.72-.24-.69.56.38.04.34.61.58l-.31-.02c.94.53-.12.04.87.62.29-.06-.13-.4.15-.46-.28-.26-.46-.32-.74-.58-.36-.65,1.52.81.93.09-.33-.31-1.01-.84-.55-.7l.59.5c.19-.13-.82-.75-.27-.62.22.21.11.28.2.31.57.24-.29-.34-.23-.43l.56.38c.05-.25-.2-.74-.15-1.01.15.13.3.29.5.37-.09-.46.47-.5.97-.5l-.4-.44s.24.12.32.21c.25.04-.3-.22-.45-.41,0-.08.32.13.44.27-.28-.46-.51-1.11.13-.92l.12.14c.29,0-.86-.87-.32-.67l.07.09c.43-.15.24-.8,1.12-.51-.65-.54.52-.08-.42-.79.6.17.73.35,1.23.34.09-.03-.52-.53-.56-.68l.5.36-.44-.49.64.38-.07-.17s-.27-.1-.41-.21c-.14-.28.56-.03.81.15l-.22-.59c.2.15.23.25.33.38-.4-.52.54.36.18-.12-.13-.06-.29-.23-.39-.3.34.16.48-.02.41-.19l.34.26c.1.05-.11-.19-.07-.24-.14-.14-.64-.71-.66-.8l.43.51c-.25-.34-.18-.17-.47-.6.08.01.49.59.62.77l-.12-.22c.12.17.18.25.34.46-.24-.36.4.56,0-.08l.11.18s-.09-.25-.08-.31c-.25-.61-.18-.49-.36-1.02.13.13.32.62.33.52-.06-.39-.14-.61-.22-1.06.16.65.18.54.26,1.05.02-.17,0-.19,0-.89-.04-.3-.07-.41-.09-.68,0-.14.07.23.11.6v.12-.04c0-.45.14.17.18.66.05.49.03.85.1.21v.06c.03-.22.07-.42.13-.62.02.14-.08.44-.11.85.1-.49.14-.41.14-.31.01.1,0,.22.12-.05-.23.81-.23.78-.16.71.06-.08.19-.18-.07.24l.2-.3c.21-.28-.1.18-.15.25.16-.23.18-.27.3-.42.11-.05.1-.09.2.05.09.13.15.3.19.48.08.37.11.82.23,1.14.11.22,1.31-1.3.96-.48l-.5.44c.86-.3.68.63,1.45.41-.12.1-.25.25-.28.22-.24.42.25.24.5-.05.02.08-.22.28-.32.46-.11.28.58-.31.3.08-.04.06-.12.1-.16.12.2-.14.18.23.49-.23-.05.31.4.02.29.35.47-.42.02.41.61-.24-.6.68-.25.74.1.49-.2.19-.11.28-.39.54.1.07.29.01.58-.36-.53.97.9-.38.1.76.59-.14,1.05-.18,1.43-.14-.59.69-.33-.16-.93.58.47-.09,1.1-.57,1.19-.22-.02.14-.28.27-.4.37.47-.09.4.44.92.23-.05.06-.13.12-.2.15.06,0,.01.18.27-.14l-.11.05c.31-.51.95-.83,1.16-1.06-.82.85.02.4-1.04,1.45.08-.04.23-.16.4-.38,0,.09-.1.23-.34.44.29-.05.51-.43.64-.32-.13.15-.2.19-.36.36.31-.24.63-.49.63-.27-.08.09-.17.22-.2.19.23.11.98-.53.96-.07-.61.62-.11.28-.57.87l.25-.08.18-.32c.09.09.52-.26.45,0l-.27.18.28.04.07-.31c.34-.22.58-.74.58-.47-.07.04.09.09-.13.47.2-.14.41-.3.36-.09-.13.2-.53.63-.62.77.44-.45.34.05.82-.42-.12.11-.36.41-.41.48l.36-.36c-.05.16-.1.23-.3.47.08.18.55-.78.46-.32-.04.02-.08.09-.15.12.03.3.52,0,.52.32-.42.62-.25.04-.59.57.31.07,1.02-.34,1.12-.03v-.1c.7-.81-.15.54.27.23-.08.04-.4.44-.32.35.04.25.46.03.89-.06l-.2.19c-.06.26.14.29.16.46.2-.19.22-.12.43-.45-.66,1.45,1.06-.23.53.99-.03-.02-.22.13-.19.15l.37-.03c.26-.38.14-.24.32-.56.19-.2.39-.32.44-.27-.29.17-.45.59-.57.83.08-.12.19-.23.27-.35-.39.74.59-.72.41-.16l-.16.19c.13-.05.38-.27.4-.16-.3.44-.21.15-.49.5.11.04.79-.67.55-.19-.13.09-.18.05-.31.14-.29.57-.19.45-.18.58v-.02l-.02.34.06-.16c.96-1.02.38-.03,1.08-.64-.67.58-.33.38-.7.85-.06.16-.12.36-.24.48.37-.34-.11.4.42-.1-.11.16.07.07-.25.45.19-.05.18-.29.34-.48.54-.42-.15.9.61.32.4-.17.83-.67,1.19-.81-.13.29-.47.53-.47.53-.08.3.02.31.24.19-.12.12-.19.25-.29.45.1,0,.47-.54.39-.24-.15.16-.37.43-.54.58.19-.08.48-.32.67-.4-.18.29-.36.38-.52.53.18-.05.43-.07.78-.48l.05-.2s-.26.38-.34.44c-.33.28,0-.24.11-.4l.13-.06c.62-.96-.35-.03-.43-.17l.55-.63-.53.46c.1-.19.36-.58.5-.63.16-.39-.25.18-.05-.24.03-.06.06-.09.09-.11l-.23.14c.12-.13.34-.48.32-.35.14-.5-.61.32-.29-.23l.04-.03c-.37.07-.39.47-.97.93l.8-1.28-.39.47s-.02-.1.13-.29c-.33.27-.15.22-.43.5.23-.52-.44,0,.13-.8-.32.34-.12.36-.42.53.6-.86-.23.05-.04-.41.35-.41.27-.11.47-.57-.61.68-.06-.3-.24-.22-.44.58-.35.11-.63.2.16-.19,0-.51.03-.81l.08-.09c-.47.56-.51.36-.7.41.27-.35.39-.47.56-.59l-.09-.06c-.16.17-.27.25-.37.27l.36-.42c-.13-.06-.62.33-.55-.07-.32.4-.76,1.22-1.12,1.37.16-.22.45-.6.56-.66-.04.02-.19.15-.14.03l.35-.32c.06-.21-.27.28-.3.2.24-.31.13-.25.33-.5.04-.02-.05.17.06.06-.02-.1.05-.34.21-.6-.13.18-.33.42-.4.43-.13-.07.25-.41.31-.62-.2.19-.09-.09-.46.38-.03-.03.13-.25.22-.39-.22.16-.32-.16-.64.39v.04s-.02,0-.04,0c-.55.31-.19-.58-.54-.53l.12-.15c-.25.09-.34-.09-.68.18-.03-.03.14-.35.3-.52-.18.05-.33.21-.25-.14.3-.2.16-.26.25-.13,0-.22.16-.49-.29-.16.36-.36.31-.57.16-.49l-.15.35c-.11.01-.13-.07-.16-.14l.44-.5c.28-.81-1.27.75-.6-.45-.35.31-.08.35-.47.74-.05-.15.44-.99.41-1.02.09-.4-.74.65-.74.33-.13.2-.51.71-.76.79-.05-.15.5-.88.68-.97.04,0,0,.07-.05.14.09-.04.2-.08.32-.32l-.16.17c.1-.23-.06-.33.22-.6-.22.11-.28.28-.3.42.08-.38-.2-.18-.2-.47-.06.12-.22.35-.24.33-.02-.39-.37.28-.58.25.15-.34.57-.65.24-.53.07-.26.38-.5.54-.63-.41.25-.04-.42-.06-.55l.19-.09c-.11.06-.14.03-.17,0l-.26.4c.01-.1-.02-.12.11-.28-.24.21-.47.64-.82.9.1-.23-.32.07.06-.43.03.3.38-.5.59-.47-.07.04-.1,0-.09-.09.04-.06.09-.1.12-.12.2-.56-.52.49-.68.35.25-.26.39-.55.32-.51.06.06-.35.48-.58.64.07-.3-.24.07-.28,0l-.02.15c-.25.26-.27.18-.41.2.17-.22.19-.09.24-.21-.48.41.23-.65-.15-.42.1-.23.42-.52.48-.68-.42.25.18-.49-.2-.3-.27.4-.19.31-.58.59l.43-.08-.58.42c.06.06.33-.12.32-.02-.31.24-.23.16-.45.49.37-.62-.44.17-.24-.28l.76-.91c.18-.53-.66.24-.67-.16l-.07.21c-.33.34-.17-.05-.35.04.26-.3.31-.44.44-.65-.19.23-.13-.14-.65.44l.25-.47c-.02-.3-.91.7-.98.47.32-.29.43-.56.74-.71-.05-.05-.05-.14-.23.07.13-.21-.49.28-.29-.04-.13.11-.41.42-.45.35.05-.07.13-.15.13-.15-.13.15-.26.13-.5.5.64-1.07-.5-.31.05-1.23-.2,0-.42-.01-.54-.08.08-.08.13-.15.12-.1.1-.4-.83.78-.72.34.34-.55.31-.19.42-.42.83-1-.31-.03.08-.7l.08-.04c.21-.4-.52.2-.6.01,0,0,.08-.08.13-.15-.53.42-.84.44-1.09.46.37-.35.24-.15.55-.56-.11,0-.53.64-.74.65.15-.24.22-.5.57-.92l.13.07c.41-.59-.16-.1-.13-.25l.21-.23c-.23-.07-.75.52-.89.32l-.14.19c-.61.5.21-.4-.27-.05l.49-.62c-.19.09-.73.37-.94.38.45-.38.78-.49,1.1-.67-.06-.06-.25-.15-.54.12.08-.03.24-.15.18-.04-.49.4-.79.53-.91.41.52-.56.5-.71.44-.83-.06-.13-.25-.31.04-.84-.68.15-.6-.87-1.12-1.22-.31,1.33-.14-.08-.56,1.19-.11,0-.13-.04-.11-.13,0-.33-.01-.67-.04-1.02.03-.46.17-.21.24-.51-.21-.31.05-.65-.04-1.17-.08.52-.24.63-.34.31l.06.82c-.44.48-.07-1.45-.53-1l.17-.37c-.21.12-.7-.65-.88.52-.02-.21-.06-.7.02-.75-.34-.47-.66.2-.91,0-.06.08-.12.09-.19-.03l-.03-.46c-.05.21,0,.94-.12.61-.02-.18-.04-.45-.07-.44-.01.19-.04.94-.15.8l-.02-.55c-.43-.07-.25,1.72-.36,2.23-.32-1.06-.68-1.05-.87-1.03l-.05-.14c-.45.44-.3,1.65-.38,2.34-.38-.29-.62-.13-.85.1-.23.23-.43.51-.81.58.18.03.53.44.55.57-.23,0,.36.55-.3.07h.03c-.67-.43-.6-.18-.68-.1l.84.64c-1.43-.65-.04,1.01-1.25.33.17.22.11.29.28.51l-.45-.34c-.24.09-.36.13-.41.42l-.29-.28c-.12.1,1.21,1.12,1.15,1.25l-.71-.47c-.14.22-.9,0-.43.65-.1-.08-.29-.23-.29-.28-.09.09-.74.04.22.69-.61-.44-.22.17-.03.48l-.44-.35c.5.52.66.63.72.88-.08-.01-.38-.24-.23-.19-.31-.07.37.39.03.35l-.25-.26c-.11.08.05.19.34.49.13.2-.26.12-.68-.16.24.2.53.5.36.48-.16-.1-.24-.2-.28-.24-.44-.04.33.65-.21.45-.15-.11-.23-.15-.28-.18.12-.14.23-.23.25-.2-.41-.3-.57-.24-1.08-.75.24.32.81.98.53.95-.04-.03-.09-.05-.15-.09l-.04-.05c-.06,0-.04.05.01.12-.09-.01-.16-.03-.19,0-.35-.24-.28,0-.34.04.46.33.33.35.76.55-.04-.01-.05-.05-.04-.1,0-.02,0-.03-.03-.06l.04.03s.04-.1.07-.17c.2.21.36.4.06.28.27.24.54.5.67.62-.69-.38-1.14-.48-1.55-.75.13.36-.14.54.63,1.27.07.13-.29-.12-.43-.2-.06-.09-.03-.12-.14-.22.15.26-.13.36.45.82-.36-.07-.5-.47-.53-.23l-.16-.16c-1.2-.35,1.11,1.67-.39,1.15.09.03.14.04.24.11-.86.04-.15,1.26-1.31,1.06-.26,0,.11.29.34.57l-.51-.33.47.54c.28.48-1.42-.56-.81.23l.35.21c-.12.04,0,.4-.36.11.05.05.32.28.13.18l-.26-.18.29.52c-.3.02-.99-.77-1.21-.57.04.16.57.78.76.88.04-.02.22.03.48.21l.08.17c.74.56,1.47,1.19,2.13,1.38l-.36-.47.4.22-.06.13c.39.19.12-.07-.06-.27.2.13.35.21.44.24l-.62-.66c.31.2.54.49.77.52-.29-.3-.7-.42-.85-.69.39.19.65.41.42.12.2.13.31.24.38.33-.18-.24.03-.25-.34-.57.47.24.05-.3.76.22-.16-.15-.47-.52-.46-.61.77.73.22-.19,1.11.51-.71-.64-.12-.54-.44-1,.05.05.17.16.12.14.12-.03.37.11.55.16-.62-.47-.68-.71-1.02-1.06.68.35.7.6,1.31,1-.52-.37-.38-.55-.84-.83.43.2.23.07.78.41-.78-.59-.08-.17-.52-.59.47.17.76.51.61.22.28.12.49.43.49.43l-.04.09Zm.75-3.89s-.01.06-.02.08v-.08h.02Zm.17-.25s-.07.05-.09.09c-.16-.11-.32-.23-.29-.25.09.09.23.1.39.16h0Zm-3.52-1.79c-.04-.09.06-.03.16.03v.11l.05.05c-.08-.07-.16-.13-.22-.18h.01Z"/></g></svg>