<?xml version="1.0" encoding="UTF-8"?><svg id="Layer_2" xmlns="http://www.w3.org/2000/svg" viewBox="0 0 752.95 376.62"><defs><style>.cls-1{fill:#fff;}.cls-2{fill:#4eb6ce;}</style></defs><g id="shapes"><path class="cls-1" d="m522.64,9.01c-68.27,22.29-119.75,119.76-134.89,174.58-13.87,38.43-20.04,75.84-3.34,106.02,16.7,30.18,138.64,104.89,234.05,83.07,95.4-21.82,159.4-193.78,125.16-281.82C709.36,2.83,590.91-13.28,522.64,9.01Z"/><path class="cls-2" d="m30.47,234.15c.01-1.52-.79-.71-1.25-1.04-.23-1.82.6-.84,1-1.45-.21-1.13-.95-2-.92-2.84.13-.07.18-.23.35-.04-.64-1.2-.03-3.56-.84-4.95.07-.1.14-.15.2-.18-.4.22-.82.26-1.11.21-.01-.68-.51-1.26.01-1.52-.01.41.2.45.36.65l-.23-.71c.76-.64.26.97.82.97-.25-1.39-.87-3.02-.66-4.08.74-.23.25,2.49.91,1.07l-.28,1.65c1.17-1.26-.08,1,1.17-.15.22-2.17-.38-2.43-.16-4.59-.41-.49-.61.16-1.02-.33-.74-3.08,1.86-2.42.87-4.69-.49-.59-1.43-.81-.94-2.43l.84.55c.08-2.1-1.21-1.2-.64-3.4.33.39.28,1.65.38,1.34.66-1.43-.47-1.01-.47-2.11l.74-.23c-.12-2.24-.66-4.7-.79-7.18.22.14.45.56.68-.01-.37-3.13.09-6.67.53-9.69l-.64-1.15c0-.27.29-.49.41-.2.24-1.18-.41-.06-.65-.62-.04-.67.37-.89.56-.46-.55-2.07-1.17-5.91-.49-8.1l.19.43c.26-1.7-1.32-1.92-.71-3.5l.12.31c.28-3.69-.31-7.78.66-10.59-.92-.54.41-3.66-.87-3.9.64-2.11.87-1.51,1.3-4.48.06-.79-.8-1.18-.94-2.17l.67-.02-.71-1.33.81-.71-.17-.92c-.04.36-.31.78-.49.72-.17-.83,0-1.86.25-2.59l-4.64-.34c-.26.62-.53,1.06-.68,1.07.09,1.39.35,2.7.72,3.95-.28-.04-.47-.68-.67-1.19.43,1.03.3,1.12.12,1.23-.17.09-.37.2.12,1.08.1-.28.42.06.56.07-.23,1,.33,3.06,1.03,4.38l-.54-.11c.83,2.64,2.39,5.07,3.55,7.62-.23-1.01.6-1.13,1.02-.41l-.5.6c.63.3-.12-.9.83-.12.37,1-.44.98-.9.53l.76,1.06c-.16.16-.39-.07-.67-.03.63.29.28,2.31,1.3,2.68l-.16.15c1.18,2.57,1.94,3.63,2.94,5.71.58-.22.83.66,1.57,1.08.53,1.62.88,3.52,1.78,5.36.88,1.18.65.16,1.25.6-.47.33.44,2.16-.37,1.37,1.11,2.19,1.41,2.79,3.12,5.42.07-.4,0-.79.25-.69.32.47.32,1.26.04,1.3l-.12-.11c2.22,2.8,1.89,7.97,4.1,9.99l-.12-.12,1.75,2.36c.47,1.24-.71-.55-.62.49,2.15,2.42,1.93,4.5,3.57,6.56-.04.15-.07.3-.07.45,0,.08,0,.15,0,.23,0,.08.01.17-.01.18-.07.1-.12.18-.15.23-.05.11,0,.18.12.32.11.13.28.33.36.49.09.15.09.26-.2.03-.07-.05-.17-.13-.28-.24l.75.7c.82.87-.37-.28-.55-.45.64.67.67.62,1.15,1.15.33.48.56.91.68,1.2.06.15.09.26.1.33,0,.04,0,.06-.01.07,0,0-.01.01-.02.01s0,.02-.08-.07c-.56-.66-1.13-1.37-1.56-1.95-.44-.57-.75-1.02-.9-1.29-.05-.09-.09-.17-.11-.23,0-.07.2.73.21,1.24,0,.26-.01.46-.12.47-.09.01-.28-.18-.41-.59.12-.21.2-.45.25-.72-.07.09-.17.1-.29.09-.06,0-.12-.02-.18-.05-.17-.1-.47-.29-.7-.44-.97-.62-1.91-1.3-2.85-1.98-1.92-1.28-3.83-2.59-5.95-3.36.31,0,.43-.19.8.03-.27-.46-1.02-.91-1.72-1.2-.71-.29-1.39-.36-1.5-.19-.59-.37.04-.41-.23-.81-.69-.72-2.39-.52-2.61-1.21-.04-.12.31-.04.49.01-.65-.06-2.55-1.31-2.29-.52-.69-.49-1.44-.78-2.14-1.05-.72-.25-1.39-.48-1.93-.9-1.06.28-2.5-1.42-3.12-.61.47-.87-2.45-1.81-3.6-1.69.44-.17-.77-.58-.24-.84-1.15-.37-2.26-.54-2.21,0-.87-.93-2.02-.98-3.03-1.07-1.01-.08-1.88-.18-2.29-1.06-3.62-.34-6.9-.68-10.09-.89.13-.48,1.01-.37,1.86-.28.84.13,1.66.25,1.69-.27-.59-.04-1.14-.04-1.65-.04-.52.03-1.01.06-1.48.09-.95.06-1.86.11-2.84.04l.27,3.78c.54-.18,1.14-.34,1.8-.46.76-.06-.31.52-.51.75,1.37-.57,2.74-.91,4.09-1.21,1.34-.33,2.63-.63,3.86-1.17.01.09-.24.25-.49.38.49-.15,1.2-.12,1.05-.54l-.47.22c-.95-.45,1.71-1.77,1.74-2.11-.6,1.43,2.61-.2,1.56,1.66.31-.15.69-.44.55-.72.51-.01.7.12.27.56,1.76-.61,1.03-.94,2.68-1.24.04.21-.28.36-.41.64.76-.56,1.51-1.15,2.95-1.21-.06.15.13.28-.29.35,1.19-.23,2.17-.68,3.19-1.07,1.02-.38,2.09-.7,3.44-.69-.65,1.04.94.17,1.19.97l1.39-.42-.62-.32c1.24-.15,2.28-.88,3.38-.73l-.89.44,2.32-.41-1.36-.16c1.22-.56-.25-1.01,1.45-.97-.33.12,1.26-.13,1.96.3.6-.31,1.22-.65,2.16-.53.26.24-.12.92.06,1.08.55-.74,2.92-.41,3.65-1.2-.25.19-.23.62-.14.7l.48-.59c.6.14.68.23.61.57,1.75,0-.62-.99,1.48-.68-.16.05-.08.13-.41.23,2.1.1,4.02-.54,5.95-.35.59.8-1.67.26-1,.93,1.38-.14,2.8-.39,4.22-.63.2-.03.32-.06.42-.08l.35-.07c.24-.04.49-.08.74-.11.5-.05,1.01-.07,1.41-.02l-.25-.09c.68-.58,1.03-.44,1.22-.21.22.23.14.53,1.11.26-.41.08-1.46.63-1.18.51.09.02.18.04.31.04h.3c.06,0-.01.04-.01.05-.12.18-.2.34-.28.52-.15.38-.31.83-.8,1.71-.07-.08-.13-.15-.2-.22-.41.29-.76.64-1.1,1-.17.17-.33.36-.49.53l-.12.12-.17.19c-.11.12-.22.23-.33.34,0,.47-.45.96.14.91-.9.44-1.58,1.04-2.15,1.71-.55.68-.98,1.44-1.39,2.19-.84,1.49-1.54,2.99-3.07,3.88.23-.31.33-.89.15-.65-.47.79-.95,1.59-1.39,2.4.54.11.46-.12,1.11-.36.04.46-.21,1.23-.6,1.78.43-1.2-.67-.46-1.21-.18.18.01.21.26.37.31-1.56.68.68.76-.91,2.04l-.16-.23c-.29.68-.38,1.44-.87,2.06-.67-.05.2-.8-.17-1.11-.59.95-.3,2.42-1.31,2.96.12-.49.47-1.06.6-1.54-1.19.54-1.09.76-1.62,1.38l.06-.06-1.27,1.43.41-.31c.54,1.97-1.25,2.57-1.36,4.68.12-2.04-.31-.54-.82-.99-.41.32-.96.84-1.01.57,0,1.03-1.11,1.08-1.05,2.56-.21-.06-.49.81-.86.38-.43,1.09.46-.06.64.16-.13.94-.82,1.76-1.52,2.68-.71.92-1.44,1.94-1.57,3.32-.63,2.15-.19,2.83-.74,4.82-.6.47-.45-.84-.45-.84-.76.87-1.08,1.65-1.3,2.7-.08-.27-.31-.14-.66.05-.3.79.47.84-.27,1.71-.14-.27-.39-.65-.43-1.12-.23.99-.28,2.04-.52,3.06-.45.1-.27-.79-.33-1.22-.33,1.12-.87,2.89-.48,3.45l.48-.6c-.14.4-.55,0-.52-.33-.04-1.09.74-1.24.96-1.2l-.16.73c1.42-.2,1-2.76,1.67-4.08l.57.94-.06-1.69c.36-.19.9-.17.72.54.86-.76.11-.97.95-1.57.12-.06.13,0,.12.1l.2-1.04c.09.26.65.12.26.63,1.25-1.43.7-2.96,1.62-3.26l-.02.16c.88-2.41-.49-.52-.31-2.59l2.06-.37-.47-.53c.15-.22.44-.65.63-.44.06-1.07-.33,0-.44-.7,1.12-.84,1.44-3.2,2.51-2.92-.22-.65-.94.86-.57-.49,1.19.23.59-1.47,1.64-2.2.33.6-.5,1.38.55.66-.5-1.1,1.34-1.81,1.67-2.74-.67-.46.84-1.96,1.48-3.49.15.22,2.05-2.33,3.13-3.43l.09.11c-.51-.7.52-1.89,1.04-2.92.37.31.41.59.23,1.21l.61-.88c-.07-.36.01-.71.33-1.33l.33.57c.81-1.17,1.11-2.73,2.53-3.96-.38-.42-2.13.23-1.24-1.54.28.12.74.38.53.86.07-.15.16-.62.47-.81l-.07.92c.69-.53-.07-.6.38-1.11.33.27.55-.2.76.08-.07.16-.49.36-.52.66.52-.55,1.28-1.11,1.72-1.15-.23-.1-.46-.36-.17-.83.86-1.14.71-.06,1.4-.57-.01-.45.79-.97.31-1.39.26-.32.55-.2.79-.21.01-.53,2.74-3.37,1.3-2.74l-.2.16s.05-.08.07-.12c.63-1.22,1.56-2.2,2.8-3.4.6-.59,1.26-1.21,1.86-1.83.3-.31.59-.62.84-.91l.18-.22s.07-.07.08-.1h-.15l-.65.03.43-.21c-1.19.1-2.26.12-3.3.17-1.03.04-2,.13-2.78.36-.46,0-.94-.39-.57-.65-.78.08-1.21.18-1.68.21-.44.03-1.09,0-1.84-.15.55-.2.46-.28.41-.3-.02-.01-.03-.01.06,0,.12,0,.36,0,.84.02-.24-.02-.46-.05-.66-.07-.15-.02-.29-.05-.41-.07-.26-.04-.49-.08-.71-.1-.46-.03-.92.04-1.69.36.52-.57-1.11-.68-1.79-.47l1.03.36c-.77.11-1.44.09-2.13.07l.34-.74c-1.5-.39-2.82.05-4.05.43-1.23.36-2.36.67-3.54.02-.74.57,1.63.24.98.88-1.35,0-2.85-.94-3.28-.89-1.9-.23-1.64,1.21-3.6,1.13.28.23.58.89-.84,1.29-1.35.05-1.78-.89-.95-1.2.32-.06.49,0,.48.1.43-.15.99-.31.42-.54l-.15.28c-.7-.19-2.56.04-2.18-.42-1,.36-.39.47.39.52-1.78-.18-2.71.33-4.53.31.31.1.6.37.32.41-2.66.06-1.08.65-2.82,1.02-1.06-.24.22-.99-1.51-.38-1.13-.09-.34-.64.06-.92-1.54.76-3.09.17-4.03.25l.82-.36c-.49.2-.91.28-1.34.36l.57.42c-.52,0-.94.08-.97-.13-.45.43.55.78-.39,1.42-.71-.14-1.96.65-2.33.03,2.13-.17-.36-.64,1.39-1.08-.33.15-.75.21-1.27.23-.09-.06.04-.15.17-.22-2.13-.2-.77.95-2.84,1.35.18-.43-.63-.63-.95-.47.84-.16.53.54-.17,1-1.38,0-1.38.54-2.08.65l.82-.04c-.18.44-.85.53-1.74.86-.15-.28.79-.39.43-.44-.87.89-2.46-.14-3.77.65-.72-.09-.24-.69-.86-.72-1.46.9-1.86-.07-3.42.77.52.31.63.27,0,.71l.28,4.04c.09-.04.25-.09.46-.14h-.44l-.26-3.75,2.22-.89-1.56,1.19c.82-.2,1.65-.77,2.17-.81-.73.62-.68.48-.17.8-.92-.33-1.59.31-2.4.65l.13,1.85c.36,0,.74.05,1.11.26l-.21,1.27c.93.43,1.8.38,2.77.33.96-.04,2.01-.05,3.23.34l-.76-.38c.44-.43,1.57.2,2.42.2-.17.4.31.68.58,1.02.03-.32,1.8.46,2.24-.32.33.27.65.54.96.83,1.91.8,2.61-.57,4.48.18-.71.26.06.81-1.31.75.63.18,1.17.46,1.27.18.28.38,1.93.03,2.38.61.33-.09.57-.5,1.26-.2.04.11-.07.2-.07.2.07-.2,1.2.15.75-.54.74,1.01,2.09,1.45,3.41,1.96,1.31.51,2.61.98,3.18,1.87,1.36.5,3.02,1.11,4.21,1.69-.13.07-.1.19-.3.03,1.42,1.21,1.56-.57,3.19.81.6,1.1-1.16-.19-.7.36-.22.7.36.92,1.08,1.21.71.28,1.59.57,1.98,1.27l-.33-.1c.33.48.96.68,1.67.91.71.24,1.52.49,2.22,1.01,0,0-.14.06-.12.18,1.41,0,3.38,1.15,4.88,1.96-.76.15-.79-.2-.87.44.33.18.41-.03.59-.2.09-.09.19-.15.36-.16.17,0,.39.04.76.28.26.6,1.27,1.73,1.38,2.6l-1.66-1.29c.25.7.87,1.19,1.44,1.54.59.36,1.14.57,1.58,1.02l-.08.38c.32.24.6.44.85.6.25.15.46.27.67.42.4.27.7.4.96.51.54.23.95.33,2.03,1.28.07.02.16.06.27.1l-.49-.71c-.03-.79.33-.33.67.1.35.45.69.86.78.57l1.1,1.66c.14-.08.37-.2.73-.12.33.08.71.44,1.16.81-.13-.05-.36-.17-.55-.22-.08-.04-.22-.01-.33.03-.11.04-.2.12-.26.22.21.08.62.12.87.2.22.1.41.18.41.12-.12-.07-.18-.01-.41-.24.01-.28.57.17,1.38.92l.09.09s-.03-.09-.04-.12c-.03-.09-.07-.18-.09-.28.1.15.09.03.11-.18,0-.21,0-.54-.02-.89-.01-.69-.15-1.61.82-1.03-.15-.55-.23-1.03-.2-1.41-.76-1.63-1.31-3.11-1.98-4.8-.65-1.68-1.43-3.58-2.4-5.6-.13.5-.26.6-.38.56-.12-.05-.23-.27-.36-.54-.26-.53-.6-1.24-1.19-.89-.13-.24-.24-.44-.33-.61-.08-.15-.12-.24-.16-.33-.07-.17-.09-.27-.07-.32l-.3-2.55c.11-.69.59.57.83.38-.65-1.65.2-.91.04-2.12-.33.41-.88-.27-1.14-1.26l.04,1.55c-1.68-1.95.12-2.41-1.56-4.37l.71.54c-.76-1.05-1.97-4.28-3.46-4.97.04-.27.25-.69.58-.23-1.14-2.83-3.89-5.69-4.28-8.12l.39.07c-.33-.48-.98-.65-.98-1.43.14-.02.39.07.3-.17-.23-.23-1.16-1.13-1.3-1.9l.6.43c-.86-2.88-2.73-3.77-3.98-5.95.87-.4.17-2.65-.17-3.78l.14-.02c-1.35-3.2-3.19-5.02-4.88-7.77.06-1.12-.55-2.7-1.27-4.39-.73-1.7-1.54-3.46-1.82-4.96.01.49-.73.21-1.01-.26-.08-.72-1.27-1.64-.39-1.8l.06.24c.66-.76.06-1.99-.08-3h-1.17c.5-1.27.45-2.6.52-3.92l-4.85-.36c.17,2.24.58,4.38-.3,5.38.29.76.28,1.7.57,2.46l-.62-.04c-.16,2.11-.23,3.16-.09,5.77l-.44-.53c-.04,1.47,1.78,1.85,1.82,3.21l-.92.41c.01,2.57-.79,5.16.04,7.7-.14-.04-.4-.12-.44-.53-.02,1.21-.63,4.67.64,4.23-.82.03-.08,2.65.28,4.03l-.61-.22c.78,1.17.99,1.21,1.21,2.84-.08.38-.49.34-.33-.17-.32,1.29.58,1,.25,2.57l-.39-.58c-.04,1.33.16,1.22.61,1.95.25.84-.15,2.51-.71,2.71.33.18.79.91.63,1.69-.21.11-.33-.18-.4-.32-.41,2.22.71,3.3.11,4.83-.2.03-.31.13-.36.26.01-1.76.05-3.18.09-3.05-.56,0-.66,1.43-1.43.29.42,1.14,1.34,3.1,1.08,4.49-.05.07-.11.13-.2.18l-.07-.14c-.06.32,0,.6.09.88-.09.44-.16.73-.17,1.15-.47.17-.25,1.64-.28,2.34.61-.06.52.87,1.02,0-.04.12-.07-.13-.1-.6-.01-.11-.03-.23-.07-.31.01.01.04.03.05.05,0-.47-.02-1.08-.04-1.77.31.56.57,1.15.23,1.93.39.36.8.76.99.99-.86.97-1.32,2.84-1.85,3.1.34,2.17.23,5.1,1.38,6.47.15.62-.33.71-.51.94-.12-.36-.09-.78-.26-.97.3,1.23.12,3.65.92,3.95-.36,1.56-.74-.87-.61,1.26l-.25-.29c-1.29,4.2,2.06,6.83.41,11.48.1-.32.15-.49.28-.55-.73,5.31.68,10.93-.47,16.17-.23,1.49.28,1.65.67,2.56l-.66.32.76,1.56c.56,2.2-1.62,3.82-.57,6.6l.44-.36c-.09,1,.26,3.17-.25,3,.08.1.46.33.23.72l-.34.03.59,2.46c-.25,1.9-1.37-.3-1.43,2.49.13,1.03,1,2.94,1.24,2.56.01-.41.22-1.07.56-1.1l.18.95c1.02.17,2.06.9,2.77-1.43l-.62-1.62.49-.52.03,1.36c.47-.77.05-1.27-.23-1.81.26-.13.44-.36.55-.68l-.97-1.59c.4-.19.79.71,1.01-.36-.45-.74-.9.71-1.19-.52.47-.77.84-.55.44-1.45.26-.13.43.07.55.42-.31-.81-.13-2.14-.68-2.56.57-.81-.15-2.73.82-2.65-.23-.25-.76-1.42-.79-2.17,1.15,1.36.07-2.78,1.3-2.42-1.03-1-.46-3.63-1.03-5.41.08.1.25.3.2.45.09-1,.4-1.29.6-1.93-.86-.13-1.05-1.69-1.58-2.53.82-1.23,1,.75,1.8.36-.69.06-.69-2.13-1.27-1.72.51-.94.25-.81.95-1.29-1.07-.17-.18-.87-.84-1.65.52-1.36,1-.35.68-1.84.33-.71.71.62.71.62l-.07-.02Zm-1.85-35.49h.01c.01.3.03.57.04.73,0-.15-.02-.36-.04-.73h0Zm0-2.98c-.02.36-.03.81-.02,1.29-.21.1-.43,0-.42-.31.14.16.26-.54.44-.99Zm-4.25,6.31c-.09-.47.04-.63.16-.7,0,.23.03.49.07.83.02.01.05.04.07.06-.12-.04-.23-.09-.31-.19Z"/><path class="cls-2" d="m131.91,295.04c.57-2.15-.91-1.31-1.49-1.93.31-2.66,1.18-.97,2.01-1.7.09-1.69-.7-3.19-.36-4.38.22-.04.35-.25.53.08-.52-1.94,1.21-5.06.53-7.32.14-.12.27-.17.36-.18-.68.17-1.3.06-1.72-.12.23-.96-.3-1.98.58-2.15-.17.58.13.72.3,1.06l-.08-1.1c1.36-.62.04,1.47.87,1.69.14-2.05-.2-4.6.51-6.02,1.18-.03-.54,3.62.96,1.87l-1.02,2.22c2.19-1.34-.49,1.38,1.79.22,1.11-2.98.31-3.59,1.45-6.54-.43-.85-.96-.02-1.39-.86.08-4.62,3.65-2.67,3.08-6.22-.5-1.02-1.79-1.73-.4-3.78l1.01,1.12c.97-2.89-1.29-2.2.42-5.03.32.69-.25,2.43.02,2.03,1.54-1.7-.3-1.62.17-3.13h1.19c.81-3.11,1.01-6.81,2.03-10.25.25.29.39.99.99.31.49-2.21,1.23-4.51,2.29-6.66,1.03-2.16,2.19-4.23,3.28-6.13l-.26-1.89c.16-.35.69-.48.7-.02,1.01-1.4-.53-.32-.57-1.21.32-.92,1.02-.94,1.05-.27.21-1.52.61-3.67,1.32-5.71.37-1.01.8-1.99,1.29-2.87.29-.48.55-.71.86-.76.04.15.07.3.11.43.3-.15.06-.8-.03-1.63-.09-.77,0-1.73.44-1.55l-.05.46c.35-.4.65-.89.96-1.45l.47-.86.12-.21c.02-.07.03-.01.04.02l.04.1.14.45c.34,1.19.67,2.78.29,4.21.54-.68.6.09.64.58.03.28.05.46.22.66.22.4.54.7,1.03.65-.2,3.21-.72,2.45-.35,6.77.17,1.14,1.59,1.37,2.11,2.7l-.99.28,1.49,1.62-.99,1.27.54,1.24c-.05-.53.22-1.2.53-1.19.88,1.93.35,5.11-.16,5.25l1.78,4.64c-.43-.03-.72-.8-1.11-1.39,1.52,2.37-.98.68.41,2.84.17-.36.63.05.85.07-.41,1.3.05,3.97.64,5.91l-.77-.27c.39,3.61,1.51,7.5,2,11.56.14-1.49,1.4-1.33,1.68-.15l-1.02.62c.76.69.24-1.3,1.27.18.07,1.54-1.1,1.17-1.56.35.2.6.41,1.19.6,1.8-.31.15-.53-.27-.95-.32.76.67-.75,3.3.54,4.25l-.31.15c.42,4.05.92,5.86,1.24,9.15.94-.01.82,1.3,1.64,2.24-.11,2.47-.73,5.22-.51,8.16.56,2.05.82.56,1.42,1.47-.85.19-.7,3.12-1.35,1.63.06.88.11,1.6.15,2.27.02.32.06.64.08.95.02.21.05.23.08.35.13.4.31.84.66,2.1.36.16.5-.02.8.39.14.63-.36.63-.78.04l-.08-.19c.33.9.32,1.66.16,1.98-.08.16-.2.21-.34.18-.07-.02-.13-.06-.21-.12-.04-.03-.07-.07-.11-.1l-.05-.06s-.07-.12-.1-.18c-.37-.75-.72-1.48-1.06-2.16-.19-.34-.22-.23-.36.28l.03-.1c-.2.25-.54.33-1.06.21-.24-.38-.06-.43.1-.56.17-.12.32-.35.32-.75-.15.1-.32.11-.47.07-.07-.02-.15-.04-.22-.07,0,.03-.23-.18-.4-.34-.67-.66-1.22-1.33-1.74-2.01-1.04-1.34-1.96-2.65-3.58-3.69-.07-3.87-7.04-7.42-8.56-11.36l-.28.58c-1.11-.32-.6-1.12-1.01-1.75-.27.4.36,1.17-.3.94-6.38-5.67-11.62-13.24-17.54-19.73-2.19-2.33-3.43.98-5.36-2.84l1.59-.02c-5.59-3.47-9.57-9.09-15.02-12.46.45.06.68-.18,1.14.23-.45-1.51-3.64-3.34-4.1-2.84-.69-.71.22-.6-.01-1.26-.34-.62-1.14-.98-1.86-1.33-.36-.17-.69-.34-.94-.53-.22-.17-.47-.46-.31-.59.04-.06.1-.09.15-.12.14.04.31.14.42.19-.12-.03-.25-.11-.38-.19-.08-.02-.09-.02-.14-.04-.08-.04-.15-.09-.23-.14-.15-.08-.38-.13-.78.14-.04-.33-.36-.47-.75-.69-.38-.21-.75-.43-.43-.51-1.1-.25-1.16-.47-1.19-.6-.05-.14-.15-.24-2.06-.9,1.75.57,2.8.82,3.12.83.32.01.15-.24-.13-.59.59.43,1.05.42,1.8,1.02.03-.03.47-.33-.39-1.07.76.42,1.1.54,1.37.51.26-.03.46-.21.72-.37.22-.32,1.86-.6,2.68.54,4.96-.97,9.58-1.55,14.09-1.88-.18,1.49-4.97.15-4.78,1.75,4.24-.67,6.74-1.89,10.97-1.46,1.09.24-.65.63-1.02.9,4.28-.51,8.22.37,12.06-.25-.02.14-.44.27-.82.37.74-.01,1.72.3,1.67-.39l-.74.15c-1.14-1.06,3.09-1.95,3.25-2.47-1.39,1.9,3.73.73,1.55,3.1.5-.1,1.14-.39,1.06-.86.72.18.93.46.16.95,2.7-.21,1.8-.99,4.22-.83-.04.33-.53.43-.81.81,1.28-.58,2.56-1.14,4.59-.7-.14.19.08.47-.54.42,3.52.15,6.15-1.27,9.96-.3-1.27,1.34,1.27.6,1.36,1.86l2.11-.18-.77-.69c1.82.2,3.52-.56,5.04,0l-1.41.38,3.44.09-1.88-.67c1.9-.46-.04-1.6,2.35-1.02-.51.08,1.82.2,2.69,1.05.94-.3,1.92-.62,3.23-.16.3.44-.43,1.35-.24,1.64,1.01-.96,4.29.17,5.55-.81-.41.22-.5.87-.4,1.02l.84-.76c.81.36.92.51.73,1.03,2.51.44-.62-1.68,2.3-.65-.24.04-.14.18-.65.26,2.98.7,5.9.14,8.63.89.67,1.35-2.46.02-1.65,1.19,4.03.25,8.47-.51,12.31.25l-.7-.22c.68-1.54,2.39.68,4.23.71l-.3-3.51c-.19.09-.36.19-.52.33.43-.28.32-1.15.25-.91-2.65.59-5.13,2.11-8.79,4.03l.33-.61c-1.63.13-4.03,1.16-5.7,1.59-.32.61-1.27.88-.48,1.3-5.89-.6-8.87,4.99-14,4.79.52-.23,1.09-.88.67-.71-1.18.63-2.34,1.33-3.51,1.99.6.58.67.22,1.67.43-.29.63-1.17,1.41-2.07,1.81,1.43-1.19-.51-1.14-1.4-1.22.22.17.07.51.24.71-2.46-.41.31,1.56-2.64,1.91l-.03-.43c-.88.64-1.54,1.55-2.63,1.93-.81-.62.85-.86.61-1.56-1.46.72-2.16,2.9-3.85,2.74.51-.52,1.39-.97,1.9-1.49-1.87-.26-1.93.07-3.07.45l.11-.03-2.68.78.76-.05c-.79,2.99-3.49,2.27-5.23,4.87,1.69-2.5,0-.95-.28-1.95-.75.07-1.83.28-1.69-.11-.75,1.34-2.2.46-3.25,2.38-.23-.25-1.23.63-1.37-.24-1.36,1.03.61.32.69.75-.88,1.09-2.35,1.57-3.94,2.12-1.6.56-3.28,1.26-4.49,2.88-2.45,2.18-2.39,3.43-4.63,5.46-1.12.08.08-1.45.08-1.45-1.62.44-2.63,1.14-3.71,2.29.12-.41-.29-.45-.87-.51-.99.74-.06,1.46-1.67,1.92.04-.46.03-1.15.33-1.78-1.05,1.05-1.94,2.32-3.02,3.4-.65-.26.28-1.23.52-1.83-1.28,1.13-3.35,2.87-3.28,3.89l1.07-.34c-.48.38-.69-.47-.4-.86.8-1.4,1.9-.89,2.13-.66l-.77.77c1.93.99,3.39-2.6,5.26-3.67v1.67s1.22-2.17,1.22-2.17c.58.06,1.26.56.49,1.3,1.65-.23.89-1.14,2.41-1.17.19.03.16.12.08.23l1.06-1.14c-.09.41.72.72-.16,1.02,2.67-.72,3.15-3.15,4.55-2.75l-.15.19c2.96-2.29-.21-1.07,1.6-3.53l2.87,1.27-.18-1.07c.36-.16,1.05-.46,1.12-.03.9-1.31-.43-.27-.02-1.26,1.03-.04,2.08-.76,3.02-1.33.95-.53,1.79-.91,2.35-.29.22-1-1.84.3-.35-1.11,1.31,1.29,1.86-1.35,3.72-1.43-.04,1.04-1.66,1.38.19,1.29.2-1.84,3.05-1.2,4.18-2.1-.49-1.13,2.52-1.85,4.48-3.25.02.22,1.09-.13,2.44-.59,1.35-.44,2.97-1,4.06-1.26l.02.22c-.12-1.31,2.04-2.05,3.47-2.95.24.71.08,1.1-.61,1.76l1.42-.63c.18-.51.55-.9,1.41-1.43v1.01c1.86-.9,3.42-2.64,6.11-3.11-.17-.86-2.86-1.4-.45-3.03.27.39.66,1.09.04,1.56.21-.15.65-.7,1.18-.69l-.76,1.15c1.25-.15.35-.85,1.28-1.14.23.63.84.17.91.72-.21.15-.89.06-1.14.43,1.07-.29,2.43-.42,3.02-.11-.22-.32-.32-.83.39-1.21,1.91-.81.94.48,2.18.36.3-.62,1.71-.62,1.4-1.57.57-.21.84.19,1.15.36.85-.8,4.64-1.85,3.17-2.44l-.29.02s.1-.05.15-.1c1.49-1.05,3.27-1.52,5.06-1.93,1.8-.39,3.61-.68,5.2-1.43l.09.32c.32-.18.65-.34,1.01-.49l-.27-3.14c-1.84-.02-3.78-.26-5.09.17-.61-.08-1.38-.78-1.06-1.15-1.61.05-1.84.41-4.06-.41,1.66-.39-.49-.57,1.69-.23-2.02-.53-2.43-1.11-4.75-.48.85-.76-1.42-1.26-2.44-1.12l1.38.78c-1.12,0-2.07-.19-3.04-.38l.66-1.05c-4.07-1.85-7.89,1.43-10.84-1.2-1.21.65,2.24.8,1.13,1.61-1.92-.36-3.77-2.2-4.38-2.26-2.6-.9-2.67,1.37-5.41.65.31.44.53,1.53-1.58,1.69-1.93-.34-2.22-1.9-.96-2.1.47.02.68.16.65.29.65-.08,1.49-.17.76-.68l-.29.37c-.92-.5-3.62-.72-2.91-1.31-1.51.23-.69.6.38.9-2.44-.82-3.9-.41-6.45-1.01.39.25.72.76.31.72-3.74-.82-1.74.61-4.31.56-1.4-.73.65-1.41-1.97-1.11-1.54-.53-.24-1.09.41-1.36-2.43.59-4.37-.84-5.7-1.08l1.27-.22c-.76.14-1.36.08-1.99.03l.65.85c-.72-.21-1.33-.24-1.29-.58-.8.48.48,1.37-1.07,1.99-.94-.47-2.99.25-3.25-.83,3.04.55-.27-1.08,2.34-1.1-.51.1-1.12.06-1.84-.14-.1-.12.12-.21.32-.26-2.87-1.14-1.43,1.11-4.46.9.42-.58-.64-1.17-1.14-1.06,1.23.07.53,1.03-.62,1.43-1.93-.55-2.13.25-3.15.14l1.15.27c-.42.58-1.39.46-2.76.58-.1-.47,1.25-.26.78-.49-1.55.96-3.35-1.23-5.49-.59-.96-.44-.05-1.13-.9-1.43-2.39.7-2.54-.91-5.04-.31.69.82.83.62-.94,1.38,1.37-.16,2.73-.35,4.1-.49l-2.65,1.11c1.23.03,2.61-.46,3.34-.3-1.27.62-1.13.42-.56,1.1-1.64-1.26-3.35.65-5.27-.21l.1-2c-2.92-.95-5.22.98-9.02.5l1.22.35c-.5.79-2.35.1-3.57.45.11-.67-.66-.89-1.19-1.29.07.49-2.8.02-3.11,1.37l-1.72-.83c-.4-.03-.72-.03-1.05,0-.46.06-.86.13-1.23.24-.73.2-1.27.47-1.76.74-1,.54-1.7,1.08-3.56,1.07.26-.37-.1-.65-.29-.9-.17-.26-.17-.5,1.12-.84-1.45.08-2.87.03-2.47.46-.59-.17-1.39.09-2.17.33-.85.26-1.67.48-2.78.26-.19.31.72.94-.78.99-.4-.11-.58-.29-.58-.29.28.14-.09.29-.19.45-.1.17.12.38,1.39.64-1.86-.39-3.58-.51-5.11-.51h-.57c-.08,0-.21,0-.26,0l.16.15c.23.21.47.43.71.64.53.44,1.08.89,1.61,1.35,1.11.9,2.18,1.77,2.97,2.54.79.77,1.29,1.47,1.36,2.13,1.27.96,2.65,2.02,4.02,3.06.63.5,1.27.99,1.86,1.46.51.41,1,.81,1.45,1.17-.23.06-.22.24-.45-.05,1.6,2.24,2.48-.36,4.31,2.19.46,1.84-1.59-.63-1.13.32-1.13,1.92,2.93,2.21,3.6,4.54l-.45-.24c.65,1.6,3.39,1.93,5.15,3.79,0,0-.22.05-.23.24,2.03.36,4.72,2.33,6.71,3.8-1.14.11-1.11-.43-1.37.52.89.66.72-1.25,2.48.09.2.83,1.08,2.23.59,3.05l-1.54-1.39c-.05,1.6,1.97,1.8,2.61,2.73l-.47.29c2.39,2.08,3.36,1.15,5.73,3.61l.02-.53c2.24.37.6,1.62,2.6,2.24l-.52,1.35c1.11.62,3.96,2.12,5.69,3.52-1.58-.18-3.74-1.68-5.3-2.37.87.86,2.99,2.87,3.9,2.85-.44-.25-1.1-.47-1.3-.96,1.78.32,3.55,1.34,5.24,3.11-2.13,1.51,3.98,5,3.74,7.69,3.65,2.45,5.56,6.47,9.05,10.05.27-2.67,1.02,1.04,2.32-.59.88.78,1.16,1.13,1.13,1.3l1.46,3.46c.11,1.03-1.08-.52-1.34-.13,1.58,2.01.07,1.39.78,3.01.32-.75,1.37-.05,2.13,1.23l-.65-2.16c.8.49,1.25.94,1.51,1.38.14.23.22.44.31.67.18.34.32.67.48,1,.3.68.64,1.4,1.22,2.22.58.81,1.41,1.74,2.57,2.65-.51-.26-1.05-.55-1.62-.87,1.24,1.14,3.38,3.62,5.46,5.78,2.06,2.17,3.99,3.95,4.4,3.15.49.93,1.42,2.89.55,2.11,1.06,1.31,2.12,2.49,3.12,3.54.04-.33,0-.88-.02-1.35l-.07-1.46-.16-2.91c-.11-1.85-.21-3.67-.31-5.42-.17-3.35-.26-5.94.15-7.9l.49.95c-.07-.78-.29-1.56-.45-2.28-.15-.73-.22-1.4.04-2.15.21.15.49.76.53.1-.08-.41-.3-1.43-.49-2.5-.2-1.25-.31-1.74-.18-2.34l.59.94c.56-4.44-1.58-6.71-2.1-10.36,1.49-.08,1.74-3.56,1.86-5.32l.2.06c-.18-5.16-1.9-8.62-3-13.25,1.3-3.13-.56-9.98-.41-14.8-.16.76-1.14.07-1.42-.73.11-1.15-1.52-2.85-.17-2.9l.04.4c1.16-1.05.46-3.26.15-5.01l-1.79.05c.82-2.53.04-5.5-.83-8.16-.82-2.67-1.68-5.05-.87-6.55-.69-.99-1-2.34-1.68-3.32l.93-.18c-.27-1.54-.47-2.7-.75-3.92-.14-.61-.3-1.25-.51-1.96-.06-.23-.29-1.04-.51-1.73-.23-.7-.47-1.44-.72-2.25.32.3.65.63.99,1-.55-2.02-1.48-2.79-2.32-3.19-.85-.43-1.59-.5-1.99-1.79.23-.88.45-1.81.65-2.8-.88-2.91-1.65-6.41-2.56-9.88l-.34-1.27c-.13-.33-.2-1.17-.43-.5-.4.69-.79,1.42-1.2,2.21-.79,1.56-1.59,3.34-2.3,5.26.02-.47.07-1.38.59-2.44-.74,1.3-2.27,3.56-3.52,5.82-1.26,2.27-2.01,4.19-1.18,4.69-.36-.62-1.22.74-1.97,2.78-.19.5-.38,1.03-.55,1.55l-.26.78c-.06.22-.08.35-.13.53-.13.66-.26,1.31-.36,1.83l-.69-.69c.31,2.08.56,2.25-.09,4.61-.33.48-.88.16-.36-.44-1.21,1.56.21,1.72-1.16,3.65l-.2-1.03c-.85,1.78-.49,1.77-.28,3.02-.17,1.26-1.58,3.36-2.48,3.33.38.44.64,1.69,0,2.68-.35.03-.39-.43-.4-.66-.88,1.42-1.07,2.65-1.24,3.75-.13,1.11-.26,2.08-1.05,3-.31-.05-.5.03-.65.18.85-2.46,1.62-4.41,1.63-4.2-.81-.3-1.69,1.63-2.22-.35.02,1.83.42,5.03-.62,6.84-.11.06-.22.14-.37.16l-.03-.23c-.24.42-.3.85-.29,1.27-.34.58-.59.93-.78,1.53-.74,0-1.09,2.19-1.43,3.18.92.21.37,1.46,1.49.47-.11.14-.05-.23.12-.9.02-.16.06-.34.04-.46.01.03.04.06.05.1.19-.66.42-1.53.72-2.51.21.94.33,1.88-.51,2.83.42.69.83,1.44,1.01,1.85-1.68.97-3.17,3.4-4.06,3.54-.38,3.23-1.75,7.35-.58,9.74-.01.93-.76.87-1.11,1.12-.04-.55.16-1.15-.01-1.49-.04,1.87-1.22,5.23-.14,5.96-1.13,2.06-.77-1.53-1.38,1.55l-.25-.51c-3.47,5.48.54,10.47-3.56,16.46.27-.41.39-.64.62-.68-2.98,7.26-2.87,15.78-6.57,22.7-.91,2-.21,2.43.02,3.87l-1.1.19.51,2.5c-.09,3.32-3.89,4.65-3.55,8.98l.8-.3c-.56,1.35-1.02,4.53-1.68,4.06.07.18.52.68.02,1.11l-.51-.12c-.07,1.23-.14,2.46-.26,3.68-1.28,2.49-1.84-1.09-3.27,2.68-.31,1.47.03,4.55.55,4.15.23-.57.83-1.36,1.33-1.21l-.2,1.39c1.38.77,2.51,2.36,4.67-.53l-.11-2.58.97-.48-.62,1.93c1.05-.85.69-1.74.56-2.65.44-.05.82-.28,1.12-.69-.22-.9-.4-1.8-.65-2.7.66-.08.83,1.39,1.62-.01-.32-1.26-1.61.58-1.5-1.29,1.01-.87,1.46-.38,1.3-1.84.44-.06.6.29.6.85-.09-1.29.76-3.08.16-3.92,1.21-.88.95-3.92,2.32-3.38-.23-.46-.52-2.35-.27-3.41,1.13,2.41,1.25-3.91,2.91-2.89-1.14-1.86.72-5.35.56-8.11.08.18.26.52.12.72.51-1.39,1.08-1.68,1.61-2.52-1.22-.51-.93-2.81-1.4-4.2,1.67-1.43,1.21,1.45,2.53,1.2-1.05-.18-.24-3.3-1.25-2.92,1.1-1.15.66-1.06,1.9-1.48-1.53-.64.04-1.31-.65-2.67,1.27-1.73,1.61-.12,1.66-2.37.74-.89.83,1.14.83,1.14v.03Zm11.05-50.53h.02c-.12.43-.23.8-.29,1.03.06-.22.15-.51.28-1.03h-.01Zm1.39-4.1c-.21.49-.42,1.11-.64,1.76-.36.04-.62-.24-.46-.63.12.29.63-.6,1.11-1.12h-.01Zm-9.12,6.67c.09-.71.33-.88.54-.91-.09.31-.16.7-.26,1.2.03.03.06.09.08.12-.15-.11-.29-.25-.37-.41h.01Z"/></g></svg>