<?xml version="1.0" encoding="UTF-8"?><svg id="Layer_2" xmlns="http://www.w3.org/2000/svg" viewBox="0 0 234.8 236.39"><defs><style>.cls-1{fill:#fff;}.cls-2{fill:#a7dff1;}</style></defs><g id="shapes"><path class="cls-1" d="m228.96,60.15c-14.67-26.14-80.5-47.14-88.85-38.79-11.51-11.51-18.8,2.06-42.83-5.29-24.04-7.35-48.63-36.12-72.58,7.71-23.95,43.83-41,153.99.32,195.32,41.33,41.32,105.49-.87,156.1-28.46,50.61-27.6,62.5-104.35,47.83-130.48Z"/><path class="cls-2" d="m28.57,193.56c.77,0,.34-.66.5-1.04.91-.21.44.48.76.81.57-.19,1-.81,1.42-.8.04.11.12.14.02.29.59-.55,1.8-.07,2.5-.75.05.06.08.11.1.16-.12-.33-.15-.67-.13-.91.35-.02.63-.44.77,0-.21,0-.23.17-.32.31l.36-.2c.34.62-.49.23-.48.69.7-.22,1.51-.76,2.06-.59.13.61-1.26.23-.53.76l-.84-.22c.66.95-.51-.05.1.96,1.1.15,1.22-.34,2.33-.18.24-.34-.09-.5.15-.85,1.55-.64,1.26,1.52,2.39.68.29-.41.39-1.19,1.22-.79l-.27.7c1.07.05.59-1,1.72-.56-.19.28-.83.25-.67.32.73.53.5-.4,1.06-.41l.13.61c1.13-.11,2.38-.56,3.64-.69-.07.18-.28.38.01.56,1.58-.32,3.38.04,4.91.39l.58-.53c.14,0,.25.24.11.34.59.2.03-.34.31-.55.34-.04.45.3.23.46,1.05-.45,2.99-.97,4.1-.41l-.22.16c.86.21.97-1.09,1.78-.59l-.16.1c1.87.22,3.95-.23,5.37.57.28-.76,1.85.35,1.98-.71,1.07.53.76.71,2.26,1.09.4.05.61-.65,1.1-.76v.56l.69-.57.35.67.47-.14c-.19-.04-.39-.25-.36-.41.73-.24,1.77.41,1.79.7l1.73-.44c-.04.22-.33.29-.56.43.93-.55.16.59,1.01.08-.11-.13.07-.33.09-.44.41.34,1.37.36,2.08.23l-.14.38c1.28.13,2.7-.13,4.13-.09-.51-.19-.38-.85.04-.91l.16.59c.28-.35-.43-.23.13-.66.53.08.34.67.03.86l.65-.19c.04.17-.12.26-.17.49.28-.36,1.11.61,1.51-.01l.03.17c1.43.04,2.09-.14,3.26-.13.04-.5.49-.38.85-.78.85.19,1.79.61,2.83.6.73-.23.23-.42.56-.71.04.46,1.07.45.53.76,1.24-.04,1.59-.04,3.17-.35-.16-.2-.35-.28-.25-.44.29-.07.64.22.59.44l-.08.04c1.79-.62,4.01,1.49,5.45.59l-.08.04,1.48-.44c.67.11-.41.33.07.64,1.6-.7,2.47.22,3.79-.23.94,1.4,3.55.07,4.86,1.01l-.06-.32c.37-.29.41.2.67.29-.02-.25-.37-.31-.14-.47,2.98-.24,6.07.79,9.08,1.27,1.1.15.73-1.61,2.08-.77l-.43.57c2.28-.59,4.57.33,6.79-.13-.14.13-.16.31-.37.29.43.46,1.7.14,1.74-.22.34.07.05.32.25.52.44.29,1.2-.47,1.42-.02.04.07-.14.13-.23.16.32-.19,1.4.16,1.15-.36.8.3,1.58-.1,2.22.24.47-.52,1.39.37,1.58-.4-.12.81,1.39.76,1.94.42-.19.23.43.29.2.61.59.03,1.15-.07,1.07-.5,1.01,1.06,2.26-.6,2.77.69,1.79-.29,3.45-.45,5.05-.5-.13.8-1.76-.07-1.76.79,1.53-.2,2.45-.83,3.92-.5.38.14-.25.33-.39.46,1.53-.2,2.9.32,4.27,0-.01.07-.16.14-.3.2.26,0,.6.17.61-.2l-.26.08c-.37-.57,1.14-1.03,1.21-1.3-.53,1.01,1.3.38.47,1.65.18-.05.41-.21.39-.46.25.1.32.25.04.5.96-.12.66-.54,1.51-.46-.02.18-.2.23-.3.43.46-.31.92-.62,1.64-.41-.05.1.02.25-.2.23,1.25.05,2.19-.75,3.53-.31-.46.74.44.29.46.97l.75-.14-.27-.35c.64.06,1.25-.38,1.78-.12l-.5.24,1.21-.04-.66-.31c.68-.29,0-.85.83-.6-.18.05.64.06.95.48.34-.19.68-.38,1.14-.19.11.22-.16.73-.08.88.35-.54,1.52-.05,1.96-.62-.14.13-.17.48-.14.56l.29-.44c.29.17.32.24.26.52.89.14-.23-.87.81-.43-.08.03-.05.1-.23.16,1.06.27,2.08-.15,3.05.14.25.7-.87.11-.58.7,1.43-.04,2.98-.62,4.34-.39l-.25-.09c.24-.94,1,.52,1.71.11-.17.06-.25.52-.2.41.93.2,1.93-.13,3.37-.37l-.19.24c.55.24,1.45.19,2.05.32.19-.24.53-.19.34-.55,1.79,1.48,3.54-.64,5.14.58-.2,0-.47.2-.32.2l1.4-.19c-.1-.42-.18-.25-.46-.58.18-.24.58-.43.92-.43-.63.27,0,.67.26.91-.04-.13.05-.27.03-.4.71.75.13-.83,1.12-.32l-.05.22c.37-.11.72-.39,1.12-.32.16.49-.4.22-.43.62.56-.02,1.12-.9,1.63-.41-.24.13-.58.13-.82.26.55.57.62.43,1.03.52h-.04s.95.24.95.24l-.25-.15c.71-1.26,1.44-.23,2.38-1.06-.92.78-.15.45-.22,1,.25.15.62.32.51.47.44-.44.76.35,1.39-.31.03.17.48,0,.39.45.58-.15-.14-.3-.1-.52.89-.62,2.14.68,3.41-.17,1.11-.36,1.29-.98,2.31-1.31.36.26-.26.65-.26.65.58.23,1,.17,1.52-.06-.1.16.02.28.19.47.43-.07.25-.65.83-.42-.08.2-.19.52-.39.73.5-.19.98-.53,1.49-.73.16.29-.29.49-.46.7.58-.17,1.5-.38,1.65-.87l-.38-.15c.21-.04.14.41-.02.5-.48.41-.73-.12-.77-.29l.37-.14c-.44-1-1.48.26-2.23.22l.28-.76-.73.65c-.17-.19-.3-.6.06-.73-.55-.35-.46.29-.94-.11-.05-.06-.03-.1.01-.13l-.51.25c.1-.16-.11-.52.22-.43-.95-.39-1.48.63-1.85.07l.08-.05c-1.28.28-.11.55-1.06,1.22l-.69-1.34-.11.55c-.13-.02-.4-.05-.35-.27-.49.39.09.24-.19.6-.65-.49-1.77.28-1.93-.59-.23.43.62.31-.06.61-.21-.94-.79.17-1.39-.26.17-.49.73-.23.14-.67-.35.82-1.15-.17-1.64-.01-.02.65-1.07.28-1.91.5.05-.22-1.56-.38-2.33-.62l.02-.11c-.16.66-.95.52-1.54.65.03-.4.14-.55.46-.73h-.55c-.13.2-.31.32-.66.38l.15-.49c-.73,0-1.48.54-2.4.19-.07.46.71,1.3-.29,1.58-.03-.25-.05-.68.21-.77-.08.03-.31.2-.47.09l.41-.41c-.42-.2-.23.34-.57.29.02-.35-.25-.26-.19-.54.09-.03.29.16.43.02-.38-.07-.84-.3-.98-.57.02.2-.02.48-.3.52-.73,0-.23-.44-.65-.63-.19.24-.64-.04-.67.49-.21-.01-.24-.26-.32-.41-.38.22-1.76,0-1.36.58l.1.04s-.04.01-.06.02c-1.25.48-2.54-.41-3.78-.25v-.18c-.73.16-1.62.04-2.16.39-.22-.01-.49-.35-.38-.56-.56.1-.64.29-1.43-.05.58-.28-.17-.29.59-.19-.71-.2-.86-.49-1.67-.06.29-.44-.51-.61-.86-.49l.49.36c-.39.04-.73-.02-1.07-.08l.22-.59c-1.43-.82-2.75,1.05-3.8-.24-.42.39.79.35.4.82-.68-.13-1.33-1.04-1.54-1.06-.91-.4-.94.81-1.9.51.11.22.19.8-.56.94-.68-.13-.77-.96-.32-1.1.16,0,.24.07.23.14.23-.06.52-.13.27-.38l-.1.2c-.32-.25-1.26-.29-1.01-.62-.53.16-.25.33.13.47-.85-.38-1.37-.11-2.25-.4.13.13.25.39.1.38-1.3-.37-.61.35-1.52.38-.48-.37.25-.76-.68-.56-.53-.26-.07-.58.16-.73-.85.34-1.51-.4-1.97-.51l.44-.14c-.26.08-.48.06-.7.04l.21.44c-.25-.1-.46-.11-.44-.29-.28.26.14.73-.41,1.06-.32-.25-1.05.14-1.12-.43,1.05.28-.07-.58.84-.59-.18.05-.39.03-.64-.07-.03-.07.05-.11.12-.14-.98-.59-.52.6-1.58.5.16-.31-.19-.62-.37-.57.43.04.16.55-.25.76-.65-.31-.75.12-1.1.07l.4.15c-.16.31-.5.23-.98.29-.02-.25.44-.13.28-.26-.57.52-1.13-.68-1.9-.37-.32-.25.02-.6-.26-.77-.85.34-.85-.51-1.74-.25.21.45.26.35-.38.71l1.44-.18-.96.55c.43.04.92-.19,1.18-.1-.46.31-.41.21-.23.58-.53-.69-1.19.28-1.83-.22l.11-1.06c-.98-.56-1.85.39-3.15.01l.41.22c-.21.41-.82-.01-1.26.13.07-.35-.19-.5-.35-.74,0,.26-.97-.1-1.15.59l-.55-.52c-1.05-.28-1.3.91-2.32.71.34-.36-.11-.65.6-.87-.34-.03-.64-.12-.67.13-.18-.24-.99.4-1.28.04-.16.14-.23.51-.62.46-.04-.07.02-.17.02-.17-.02.17-.62.19-.32.61-.97-1.19-2.95-.14-3.8-1.16-.76.06-1.67.11-2.35.08.05-.1.01-.17.14-.13-.91-.4-.65.98-1.69.54-.5-.61.59-.27.26-.51-.07-1.18-1.3.07-1.97-.66l.18-.05c-.52-.43-1.37.35-2.26.2,0,0,.05-.1.02-.17-.65.55-1.82.67-2.69.78.3-.44.41-.22.28-.69-.39.04.07.75-.71.83-.23-.26-.78-.52-.82-1.01l.73.02c-.33-.67-.94-.04-1.32-.17l.07-.28c-1.12.02-1.18.73-2.38.61l.11.22c-.7.66-.53-.43-1.21.05l-.16-.72c-.44.14-1.55.59-2.33.68.47-.5,1.39-.71,1.97-.99-.43-.03-1.46-.04-1.7.3.17-.06.4-.22.57-.1-.56.52-1.27.76-2.12.7.23-1.37-2.21-.46-2.77-1.57-1.54.43-2.99-.38-4.75-.38.58,1.1-.52,0-.46,1.11-.41.05-.57.02-.6-.05l-1.21-.71c-.28-.34.4-.23.37-.47-.89-.13-.35-.48-.94-.8.1.4-.34.55-.85.38l.7.54c-1.28.53-1.04-.97-2.33-.45l.41-.33c-.66.17-2.4-.11-3.07.75-.11-.13-.25-.44.04-.5-1.55-.19-3.49.81-4.68.22l.13-.26c-.29.07-.52.49-.88.2.02-.11.13-.26,0-.28-.16.09-.79.44-1.16.27l.34-.29c-1.51-.41-2.35.67-3.62.81.03-.79-1.16-1.09-1.75-1.23l.02-.11c-1.76-.14-3.02.56-4.66.84-1-.88-3.43-.43-5.05-.95.25.15-.05.62-.34.69-.38-.17-1.07.53-1-.2l.14.02c-.28-.72-1.07-.54-1.68-.57l-.11.95c-1.58-1.4-4.21.45-5.08-.8-.39.23-.87.22-1.25.46l.02-.51c-1.07-.14-1.61-.2-2.94-.09l.29-.35c-.75-.04-.95,1.46-1.64,1.49l-.2-.76c-1.31,0-2.63-.67-3.92.01.02-.11.06-.33.27-.36-.61-.02-2.38-.51-2.15.53-.02-.68-1.35-.07-2.05.23l.11-.5c-.59.64-.61.82-1.44,1-.2-.07-.17-.4.09-.28-.66-.26-.51.47-1.31.21l.29-.32c-.68-.04-.62.13-.99.51-.43.2-1.28-.12-1.39-.57-.09.28-.46.65-.85.52-.05-.17.09-.28.16-.33-1.13-.33-1.67.6-2.45.11-.02-.17-.07-.25-.13-.3.89,0,1.62.02,1.55.06,0-.46-.73-.53-.16-1.18-.58.35-1.57,1.12-2.27.91-.04-.04-.07-.09-.1-.16l.07-.05c-.16-.04-.31,0-.44.08-.23-.07-.37-.13-.59-.13-.09-.38-.83-.2-1.19-.22.04.5-.44.43.01.84-.06-.04.07-.06.31-.08.05-.02.12-.02.16-.05,0,.01-.02.03-.02.04.23-.02.55-.03.9-.04-.28.26-.58.48-.98.2-.18.32-.38.67-.49.82-.5-.7-1.46-1.07-1.6-1.5-1.1.3-2.6.23-3.28,1.19-.31.13-.37-.26-.49-.41.18-.1.4-.09.49-.23-.62.25-1.85.13-1.99.79-.8-.29.43-.62-.65-.49l.14-.2c-2.16-1.03-3.43,1.78-5.83.47.17.08.25.11.29.23-2.72-.54-5.54.71-8.23-.15-.76-.17-.83.26-1.28.59l-.18-.54-.77.65c-1.1.49-1.99-1.26-3.37-.34l.2.36c-.51-.05-1.6.28-1.54-.14-.05.07-.15.39-.36.2l-.03-.28-1.23.54c-.98-.17.1-1.13-1.31-1.13-.52.13-1.46.89-1.25,1.07.21,0,.55.16.58.44l-.47.17c-.05.84-.38,1.72.82,2.25l.8-.55.28.4-.69.05c.41.37.64.02.91-.23.07.22.2.36.36.43l.77-.83c.11.32-.34.67.22.82.36-.38-.39-.72.22-.99.41.37.31.68.76.34.07.22-.02.35-.2.46.4-.28,1.08-.16,1.27-.61.43.46,1.38-.18,1.37.62.12-.19.7-.65,1.07-.7-.65.97,1.41.01,1.27,1.03.48-.87,1.82-.44,2.71-.94-.05.07-.14.21-.22.17.51.05.67.31,1,.46.04-.71.83-.89,1.24-1.34.64.66-.35.84-.14,1.49-.05-.57,1.06-.61.84-1.07.49.41.41.19.68.77.06-.88.44-.17.82-.71.7.42.2.82.95.53.37.26-.29.59-.29.59l-.02.03Zm17.96-1.87h0c-.16.02-.29.04-.37.04.08,0,.19-.02.37-.04Zm1.51-.02c-.19-.02-.41-.02-.65-.01-.05-.17,0-.35.16-.35-.08.12.28.22.5.36h0Zm-3.25-3.47c.24-.07.32.02.35.13-.11.01-.25.03-.42.07,0,.02-.02.04-.03.06.02-.1.05-.19.09-.25h0Z"/></g></svg>