<?xml version="1.0" encoding="UTF-8"?><svg id="Layer_2" xmlns="http://www.w3.org/2000/svg" viewBox="0 0 427.81 226.04"><defs><style>.cls-1{fill:#09b4a4;}</style></defs><g id="shapes"><path class="cls-1" d="m386.71,30c.04-.42-.48-1.02-.98-.54l.27,1.39.71-.85Z"/><path class="cls-1" d="m381.57,30.29c-.35.97-.54,2.41.54,3.18,0-1.5.44-1.14.38-2.88.5-.49,1.23-.26,1.38.22.03-.42,1.04-.3.93-1.21-1.28-.42-2.25.14-2.81,1.47-.36-.12-.34-.54-.42-.78Z"/><path class="cls-1" d="m326.32,67.3l.43-.15c-.15,0-.29.06-.43.15Z"/><path class="cls-1" d="m294.55,93.64c.21-.23.22-.42.15-.52-.16.26-.28.48-.15.52Z"/><path class="cls-1" d="m288.34,97.28c.14-.07.25-.14.37-.21-.2.02-.36.07-.37.21Z"/><path class="cls-1" d="m326.32,67.3l-1.11.38c.21.38.64-.11,1.11-.38Z"/><path class="cls-1" d="m375.51,37.79c.15-.18.25-.38.31-.61-.13.15-.26.28-.4.41.03.07.06.12.08.19Z"/><path class="cls-1" d="m339.93,55.15l.27-.2c-.01-.18-.05-.38-.1-.59l-.16.8Z"/><path class="cls-1" d="m351.04,46.63c-.29.14.28,1.12.47,1.58-.13-.48-.06-.79.11-1.02-.12-.18-.3-.36-.58-.56Z"/><path class="cls-1" d="m370.44,35.69l.24-.35c-.06.1-.18.23-.24.35Z"/><path class="cls-1" d="m331.9,61.14c-.12-.12-.25-.2-.35-.24.09.11.21.18.35.24Z"/><path class="cls-1" d="m9.73,225.7c.03-.08.01-.13.02-.2-.13.1-.17.17-.02.2Z"/><path class="cls-1" d="m3.97,223.65l-.04-.23c-.21-.05-.41-.09-.62-.11l.66.34Z"/><path class="cls-1" d="m277.86,104.93s.03-.01.06-.02c.16-.32.04-.18-.06.02Z"/><path class="cls-1" d="m190.37,180.81c1.56.49-1.48,1.93.72,2.3-.31-.35.99-2.24-.72-2.3Z"/><path class="cls-1" d="m375.13,37.87c-.15.11-.3.23-.47.32.23-.11.38-.21.47-.32Z"/><path class="cls-1" d="m191.1,183.11h0s.23.04.23.04c-.1-.02-.15-.02-.23-.04Z"/><path class="cls-1" d="m256.62,125.67c.18.1.37.13.56.15-.09-.08-.23-.13-.56-.15Z"/><path class="cls-1" d="m273.85,111.75l-.5.26c.23-.07.38-.17.5-.26Z"/><path class="cls-1" d="m249.35,134.67c-.28.14-.46.1-.65.48.07.02.12.02.18.02,0-.21.09-.4.46-.5Z"/><path class="cls-1" d="m240.65,142.82c.1.02.21,0,.32.02.07-.09.16-.2.23-.3l-.55.29Z"/><path class="cls-1" d="m46.99,217.78c-.33-.24-.58-.54-.78-.85.37.73-1.27,1.44.78.85Z"/><path class="cls-1" d="m375.16,37.27c.1.28.09.45-.03.6.11-.09.2-.18.3-.27-.06-.16-.14-.3-.26-.33Z"/><path class="cls-1" d="m255.06,141.47l-1.5,1.18c.46-.28,1-.71,1.5-1.18Z"/><path class="cls-1" d="m129.15,192.26l-.36.28c.17-.03.3-.12.36-.28Z"/><path class="cls-1" d="m249.56,146.61c-.52-.06-.94.02-1.31.16,0,.12-.01.23.04.36l1.28-.52Z"/><path class="cls-1" d="m46.2,216.92s0,.01,0,.01c0,0,0,0,0-.01Z"/><path class="cls-1" d="m34.63,222.5c1.78-.39.5-1.61.68-2.52,2.01-.91,1.23.83,2.12,1.39,1.23-.7,1.92-2.26,2.91-2.44.13.22.34.26.19.61,1.11-1.46,4.11-1.08,5.37-2.91.15.1.24.2.3.3-.44-.65-.67-1.37-.74-1.9.78-.22,1.23-1.27,1.76-.41-.49.09-.43.48-.59.83l.72-.61c1.08,1.16-1.01.75-.76,1.75,1.5-.84,3.09-2.42,4.42-2.37.6,1.25-2.77,1.19-.82,1.94l-2.04-.02c1.99,1.71-1.2.15.71,2.03,2.62-.25,2.64-1.4,5.25-1.67.37-.88-.47-1.03-.1-1.91,3.2-2.25,3.68,2.58,5.83.12.44-1.06.25-2.79,2.34-2.42l-.23,1.66c2.47-.52.8-2.51,3.61-2.21-.29.71-1.77,1.01-1.35,1.09,1.97.72.93-1.16,2.19-1.5l.63,1.24c2.52-.94,5.08-2.69,7.86-3.74-.04.43-.41.98.37,1.19,3.39-1.72,7.7-2.08,11.38-2.39l.97-1.53c.31-.08.72.33.46.65,1.47.01-.15-.73.36-1.37.74-.31,1.21.33.83.82,2.08-1.67,6.09-4.16,8.96-3.76l-.38.49c2.08-.17,1.45-2.98,3.57-2.53l-.28.31c4.35-.9,8.62-3.45,12.38-2.89.05-1.81,4.38-.7,3.87-3.03,2.76.26,2.22.9,5.83.45.93-.22.84-1.86,1.85-2.48l.45,1.15,1.05-1.76,1.3,1.09.92-.68c-.44.08-1.06-.2-1.12-.56,1.42-1.11,4.22-.64,4.48-.06,1.15-.79,2.3-1.59,3.44-2.4.09.5-.49.9-.88,1.38,1.59-1.95.83,1.08,2.28-.71-.35-.17-.12-.74-.17-.99.59.17,1.42.06,2.28-.21.43-.13.87-.3,1.29-.5l.31-.15.15-.08s.02-.02.03-.03c.04-.05.07-.1.11-.15.04.29.1.57.17.84.18.05.31-.11.58-.35.25-.25.67-.52.94-.7.14-.19.52-.9.97-1.52.22-.32.46-.64.7-.91.11-.13.23-.25.33-.35.1-.1.22-.19.21-.2-.48.64-.95,1.23-1.42,1.77.44-.63.57-.7.73-.89.16-.15.34-.48.88-1.08-.17.34-1.58,1.4-2.06,2.35.18-.43.35-.79.52-1.08-.41.26-.63.58-1.16,1.09.44-.56.12-.62-.11-1.04-.11-.2-.2-.46-.18-.72.01-.13.06-.25.14-.36.05-.13.08.07.14.19.05.12.12.24.2.35l-.4.16c-.21,3.22-.26,5.54-.27,7.6,0,1.02-.01,2.01-.02,3.04-.01.51-.02,1.04-.03,1.59v.42s-.02.21-.02.21c0,.06.13,0,.19.01.3-.03.61-.05.93-.08,1.19-1.21,2.84-1.07,4.77-2.11,1.44.08,3,.28,4.82.41.9.06,1.89.11,2.87.11.65.02,1.21.01,1.84-.06,1.67-.7.42-.99,1.14-1.72.21,1.01,2.66.69,1.45,1.54,2.93-.44,3.76-.55,7.39-1.82-.46-.37-.93-.49-.74-.87.65-.25,1.59.23,1.55.73l-.17.13c1-.51,2.12-.66,3.3-.67,1.18,0,2.42.18,3.64.29,2.43.28,4.81.38,6.26-1.04l-.16.15c1.08-.64,2.14-1.27,3.19-1.92,1.63-.27-.76,1.01.58,1.3,1.65-1.35,3.12-1.68,4.54-2.02.71-.16,1.41-.29,2.09-.53.68-.26,1.35-.6,2-1.15,1.71,1,3.79.05,5.85-1.11,1.02-.62,2.06-1.24,3.05-1.77.99-.54,1.98-.92,2.99-.94l-.54-.51c.41-1.03,1.13-.21,1.78-.41-.38-.42-1.16-.03-.89-.65,2.94-2.33,6.1-4.37,9.29-6.4,3.18-2.03,6.38-4.04,9.24-6.19,2.06-1.62-1.37-3.73,2.2-4.68l.2,1.61c2.84-4.71,8.01-7.2,10.87-11.7-.02.43.24.73-.13,1.07,1.45-.03,2.99-2.7,2.47-3.28.65-.48.62.39,1.25.35,1.19-.33,1.18-2.76,2.25-2.45.18.05-.01.44-.11.63.2-.83,2.5-2.17,1.25-2.52,1.77-.93,2.36-2.88,3.94-3.45-.11-1.59,2.82-1.82,1.86-3.32,1.14,1.42,3.47-1.25,3.77-2.7.08.68,1.16-.31,1.33.57,1-.97,1.7-2.09.88-2.6,3.35-.18,2.56-4.8,5.52-3.76,2.35-3.54,4.68-6.63,7.1-9.48,1.14,1.41-2.87,2.94-1.46,4.21,2.06-2.95,2.48-5.48,5.34-7.54.83-.44.16.92.15,1.35,2.07-2.94,5.09-4.51,6.71-7.37.11.13-.01.49-.15.81.41-.46,1.23-.79.62-1.34l-.29.57c-1.53-.2.1-3.49-.24-4.03.83,2.43,2.68-1.66,3.47,1.65.19-.39.3-1.02-.14-1.36.55-.29.91-.18.88.69,1.32-1.82.15-1.93,1.64-3.27.26.3.07.68.23,1.17.22-1.25.45-2.51,1.92-3.41.09.25.44.34.07.68,2.06-2.05,2.25-4.88,5.12-6.46.46,1.91,1.19-.31,2.31.69l.97-1.48-1-.08c1.13-.99,1.39-2.68,2.67-3.18l-.42,1.2,1.9-2.09-1.56.65c.61-1.59-1.38-1.3.38-2.33-.2.38,1.13-.99,2.3-.86h0c.24-.84.48-1.72,1.56-2.18.53.17.92,1.39,1.27,1.5-.28-1.42,2.4-2.58,2.22-4.19-.03.44.48,1.04.66,1.09l-.21-1.17c.74-.22.92-.17,1.24.38,1.69-1.24-1.75-.99.65-2.01-.09.19.08.24-.13.63,2.15-1.33,3.19-3.67,5.26-4.77,1.49.7-1.28,1.58.14,2.03,2.32-2.34,4.02-5.8,6.68-7.61l-.56.26c-1.03-1.91,2.47-.76,3.08-2.54-.2.37.36,1.23.29.98,1.9-1.13,3.11-3.24,5.25-5.86l.03.68c1.3-.44,2.8-1.94,4.02-2.63-.02-.69.66-1.11-.22-1.42,5.3-.23,5.4-6.38,9.99-6.7-.35.29-.56,1.05-.28.82.74-.8,1.49-1.6,2.26-2.37-.77-.58-.68-.19-1.66-.35,0-.68.47-1.57,1.12-2.05-.8,1.36.91,1.17,1.73,1.21-.26-.16-.27-.54-.49-.74,2.35.29-.9-1.65,1.63-2.16l.19.46c.54-.72.8-1.71,1.63-2.16.95.62-.44.95.04,1.69,1.01-.83.86-3.18,2.45-3.04-.27.57-.91,1.06-1.18,1.63,1.78.23,1.71-.11,2.6-.53l-.09.03,2.11-.87-.65.06c-.31-3.22,2.42-2.34,3.16-5.11-.75,2.65.29,1.02.86,2.1.65-.05,1.57-.24,1.57.18.28-1.4,1.86-.37,2.24-2.39.28.28.93-.61,1.3.33.93-1.03-.65-.37-.84-.84.47-1.15,1.7-1.53,2.99-2.02,1.31-.47,2.67-1.03,3.41-2.62,1.74-2.06,1.41-3.42,3.07-5.3,1.02.07.22,1.56.22,1.56,1.41-.25,2.17-.88,2.96-1.94-.02.42.35.52.9.68.77-.64-.21-1.55,1.21-1.76.04.48.17,1.22,0,1.84.8-.91,1.39-2.13,2.23-3.07.63.41-.07,1.26-.2,1.85.99-.97,2.66-2.36,2.45-3.5l-.94.13c.39-.31.7.65.5,1.01-.54,1.33-1.62.56-1.89.27l.6-.66c-1.97-1.47-2.76,2.12-4.29,2.94l-.29-1.79c-.26.69-.5,1.43-.75,2.14-.55-.15-1.27-.79-.69-1.48-1.49,0-.6,1.11-1.99.93-.18-.05-.18-.15-.12-.27l-.75,1.09c0-.42-.81-.87-.06-1.08-2.36.41-2.26,3-3.65,2.41l.1-.19c-2.22,2.15.43,1.18-.66,3.63l-2.97-1.64.44,1.17c-.29.14-.86.41-1.04-.06-.49,1.36.46.32.35,1.36-1.86-.04-3.1,2.83-4.49,1.43.09,1.07,1.59-.25.65,1.21-1.58-1.45-1.31,1.37-2.99,1.38-.28-1.12,1.12-1.42-.57-1.4.38,1.97-2.43,1.23-3.18,2.19.8,1.2-1.72,1.95-2.98,3.53-.19-.47-3.42,1.57-5.19,2.24l-.1-.23c.6,1.39-1.07,2.29-1.97,3.35-.49-.73-.5-1.15-.15-1.91l-1.03.78c.04.56-.13.99-.69,1.63l-.41-1.06c-1.32,1.09-1.92,3.15-4.1,3.93.54.88,3.13,1.17,1.73,3.14-.41-.38-1.06-1.07-.72-1.63-.11.18-.27.8-.73.86l.15-1.31c-1.04.3.07.94-.61,1.36-.48-.63-.81-.08-1.11-.64.11-.19.75-.18.8-.61-.8.45-1.95.76-2.6.51.34.3.66.83.21,1.32-1.31,1.1-1.05-.38-2.09-.08.02.68-1.2.92-.48,1.86-.4.31-.81-.07-1.17-.2-.37.96-3.1,2.74-1.54,3.08l.23-.08s-.06.08-.08.13h0s0,0,0,0c-1.49,2.75-5.07,3.31-6.97,5.53l-.25-.31c-1.05,1.43-2.76,2.66-3.14,4.1-.39.33-1.38.23-1.52-.27-.81,1.08-.63,1.51-2.49,2.25.56-1.38-.74-.17.7-1.26-1.52.85-2.23.62-2.92,2.63-.19-1.17-1.81-.13-2.23.63l1.38-.23c-.6.7-1.26,1.15-1.93,1.61l-.54-1.29c-3.7,1.08-2.92,6.23-6.7,5.95-.08,1.31,1.86-.76,1.96.6-1.32.92-3.84.6-4.23.93-2.14.91-.26,2.8-2.3,3.97.53.16,1.58.91.61,2.4-1.31.94-2.79-.16-2.3-1.12.26-.29.5-.3.59-.17.27-.48.64-1.08-.18-1.04l.16.49c-.91.17-2.52,1.69-2.66.77-.6,1.15.14.93.97.51-1.99.87-2.4,2.14-4.29,3.22.43-.03,1.03.17.78.39-2.7,1.65-.41,1.58-1.83,3.15-1.37.27-.85-1.57-2,.32-1.28.51-1.05-.74-.93-1.38-.81,1.98-3.06,2-3.99,2.63l.49-.97c-.29.58-.67.91-1.04,1.25l1.07.31c-.55.28-.93.62-1.19.32-.03.87,1.42.84,1.09,2.3-.91.18-1.43,2.02-2.49,1.28,2.13-1.38-1.06-.74.36-2.33-.2.39-.57.72-1.13,1-.16-.04-.11-.25-.04-.41-2.53.8.15,1.79-1.69,3.45-.25-.74-1.34-.6-1.53-.21.74-.67,1.16.54.85,1.57-1.54.68-.99,1.48-1.64,2l.87-.46c.25.74-.4,1.21-1.06,2.13-.45-.34.48-.96.02-.87-.05,1.75-2.92.95-3.6,2.74-.91.19-.97-.92-1.7-.69-.78,1.99-2.19.71-3.15,2.65,1.08.3.99.06.59,1.71l1.97-2.76-.61,2.47c.74-.67,1.14-1.88,1.69-2.17-.21,1.26-.3,1.02.59,1.27-1.98-.11-1.42,2.46-3.24,2.84l-1.58-1.76c-2.46.86-2.26,3.79-4.93,5.47l1.01-.38c.34.97-1.31,1.4-1.78,2.37-.47-.64-1.13-.42-1.78-.49.44.39-1.69,1.51-.82,2.85l-1.72.19c-2.11,1.4-.54,3.59-2.48,5.04-.06-1.12-1.24-.78-.49-2.33-.59.54-1.22.93-.85,1.34-.68-.04-.89,2.3-1.95,2.26,0,.48.48,1.16-.23,1.73-.18-.05-.26-.29-.26-.29.26.29-.66,1.35.51,1.45-3.49-.11-4.92,4.84-7.94,4.77-1.1,1.39-2.46,3.01-3.59,4.14-.09-.24-.26-.29.01-.44-2.11.95.55,2.57-1.84,3.67-1.8-.07.5-1.4-.41-1.22-2.02-1.67-1.97,2.3-4.23,2.33l.19-.39c-1.54.22-1.63,2.85-3.29,4.13,0,0-.08-.24-.26-.3-.15,1.95-1.87,4.09-3.11,5.72-.22-1.17.32-1.01-.66-1.52-.57.72,1.31,1.05.17,2.48-.81-.02-2.1.5-2.97-.2l1.22-1.19c-1.6-.47-1.59,1.51-2.42,1.93l-.33-.54c-1.79,1.9-.76,3.1-2.92,4.88l.53.16c-.1,2.18-1.54.2-1.9,2.07l-1.39-.88c-.49.95-1.64,3.45-2.84,4.82.05-1.55,1.24-3.35,1.76-4.72-.75.64-2.45,2.25-2.35,3.18.21-.37.34-.99.79-1.05-.12,1.72-.97,3.22-2.54,4.41-.8-1.31-1.92-.68-3.17.09-1.25.78-2.66,1.7-3.87,1.06-1.07,1.39-2.6,2.06-4.18,2.69-1.65.55-3.36,1.03-5.1,1.83,2.19,1.65-1.01.51.14,2.68-.8.5-1.16.57-1.29.45-1.06-.13-2.08-.24-3.12-.41-.85-.47.65-.78.38-1.28-1.93.45-1.12-.72-2.54-.93.52.74-.26,1.42-1.43,1.42.62.23,1.22.4,1.84.6-1.12,1.06-1.87.72-2.59.39-.73-.34-1.42-.65-2.62.31.22-.32.45-.63.66-.96-.63.4-1.92.69-3.16,1.19-1.25.46-2.48,1.08-3,2.2-.31-.23-.76-.82-.17-1.12-3.43.36-7.39,3.33-10.29,2.45l.2-.63c-.63.26-1.02,1.24-1.91.74.02-.25.2-.62-.11-.62-.33.24-1.64,1.24-2.55.97l.68-.74c-1.77-.23-3.05.31-4.27.97-.61.33-1.2.7-1.82,1.02-.14.08-.34.16-.44.23-.09.07-.16.13-.26.19-.18.12-.38.21-.59.28.13-.89-.05-1.46-.09-1.86-.07-.39-.09-.61-.08-.75l.21-.26s-.09-.02-.17.01c-.08.03-.09-.01-.17,0-.14,0-.35.01-.58-.06-.24-.07-.49-.23-.73-.5-.06-.07-.12-.14-.17-.22l-.08-.13s-.02-.14-.03-.26l-.02-.36c-.05-.97-.09-1.91-.11-2.86.57-1.42.99-3.45,1.33-5.81.08-.59.15-1.2.24-1.82.04-.31.07-.63.11-.95,0-.27.18-.83-.12-.59-.78.25-1.62.55-2.49.86-3.52,1.27-7.29,2.76-10.57,3.46,1-.05-.1,1.51-1.04,2.07-.35.04-.75.23-1.14.46-.19.11-.39.24-.56.35-.11.09-.21.18-.31.26-.4.31-.74.43-.96-.35l.31-.08c-1.19-1.24-2.74-.2-4.09.26l.52,2.06c-4.56-1.55-8.78,4.45-11.64,2.56-.67.8-1.72,1.17-2.38,1.96l-.33-1.08c-2.45.55-3.65.86-6.48,2.11l.33-.97c-1.66.49-1.01,3.8-2.51,4.38l-1-1.44c-2.86,1.02-6.24.57-8.6,2.97-.03-.25-.1-.74.35-.96-1.37.42-5.59.64-4.39,2.68-.5-1.43-3.02.81-4.39,1.95l-.09-1.14c-.89,1.77-.81,2.17-2.54,3.12-.48,0-.65-.73.02-.64-1.63-.11-.82,1.36-2.77,1.34l.45-.88c-1.53.38-1.29.71-1.88,1.76-.81.72-2.93.61-3.45-.29-.02.65-.61,1.68-1.58,1.67-.23-.33.03-.65.16-.81-2.73.02-3.38,2.35-5.42,1.82-.14-.34-.3-.49-.48-.55,2.01-.57,3.64-.99,3.51-.86-.29-.98-1.96-.68-1.08-2.42-1.07,1.12-2.81,3.41-4.53,3.39-.1-.07-.21-.15-.31-.28l.13-.16c-.39,0-.69.19-.95.44-.55-.02-.9-.05-1.39.08-.42-.76-1.98.09-2.8.28.37,1.06-.73,1.19.51,1.8-.15-.04.12-.17.64-.37.11-.07.25-.12.31-.21,0,.03-.02.07-.03.11.52-.18,1.21-.4,1.99-.65-.48.73-1.02,1.38-2.08,1.04-.22.81-.47,1.66-.64,2.07-1.53-1.19-3.9-1.41-4.45-2.26-2.3,1.28-5.71,2-6.72,4.46-.64.45-.97-.37-1.32-.62.35-.31.85-.41.99-.76-1.27.89-4.13,1.3-4.09,2.82-1.95-.18.66-1.58-1.73-.7l.22-.52c-5.38-1.04-6.91,5.66-13,4.03.42.09.62.13.76.35-6.42.18-12.34,4.22-18.86,3.46-1.81-.04-1.8.92-2.7,1.85l-.63-1.1-1.5,1.75c-1.05.72-2.24.04-3.2-.64-1.02-.7-1.76-1.33-3.08-.86-.04.29-.04.57-.05.86-.41-.23-1.05-.47-1.33-.77-.09-.07-.14-.14-.16-.22-.03-.07-.06-.13-.04-.19.05-.13.16-.2.38-.27-.07.01-.29.05-.45.04-.15-.02-.21-.12-.02-.23l.63-.05c-.14-.07-.19-.22-.32-.38l-4.1-.63.52,2.07c-.69,2.21-2.46-.62-2.93,2.66.11,1.25,1.46,3.68,1.93,3.26.08-.49.53-1.22,1.16-1.19l.21,1.15c1.83.4,3.64,1.46,5.22-1.14l-.93-2.03.96-.52-.12,1.62c.94-.82.26-1.48-.19-2.18.49-.1.86-.34,1.07-.7l-1.57-2.07c.73-.15,1.32.94,1.85-.15L.06,214.67s-.04.09-.06.16c.27,1.1.75.61,1.15.4.42-.23.72-.23.88,1.09-.41.87-.69,1.35-.81,1.79-.03.23,0,.47.13.78.14.31.38.71.86,1.11-.11.27-.3.34-.56.24-.26-.1-.58-.38-.88-.88.34.56.79,1.08,1.24,1.63.46.5.96.93,1.44,1.27.96.64,1.82.87,2.37.6.21.39.62.68,1.09.91.45.18.98.36,1.41.45.9.23,1.58.41,1.41,1.28.51-.33,2.34-1.17,3.4-1.31-.98,1.08.05,1.13,1.37,1.03.61-.03,1.45-.17,1.86-.08.4.08.69.33.7.9.78-2.11,4.07-1.75,5.92-3.23-.08.17-.25.52-.45.47,1.2-.1,1.67.39,2.5.57-.19-1.56,1.55-2.33,2.31-3.5,1.76,1.15-.46,1.99.31,3.31-.35-1.22,2.2-1.81,1.48-2.72,1.3.66,1.04.23,1.9,1.36-.25-1.95.94-.56,1.58-1.94,1.8.57.83,1.69,2.43.7.96.39-.42,1.43-.42,1.43Zm40.17-14.06s0,.02,0,.02c-.34.13-.64.23-.82.3.17-.07.41-.16.82-.32Zm3.41-1.02c-.43.08-.95.23-1.49.4-.23-.34-.21-.76.14-.84-.11.3.75.28,1.36.44Zm-9.36-5.4c.49-.31.73-.15.87.06-.25.09-.53.21-.9.4,0,.04-.02.1-.03.15,0-.22,0-.43.06-.6Z"/><path class="cls-1" d="m68.28,203.71c-.07.05-.1.1-.2.14.14.06.26.12.39.15.03-.13.06-.27.09-.39-.1.03-.2.07-.28.1Z"/><path class="cls-1" d="m326.82,67.12l-.07.03c.08,0,.15,0,.22.02-.07-.01-.1-.04-.15-.05Z"/><polygon class="cls-1" points="125.61 194.15 125.51 193.88 125.3 194.22 125.61 194.15"/><path class="cls-1" d="m344.54,58.09c.09.06.21.09.38.08-.05-.05-.2-.07-.38-.08Z"/><path class="cls-1" d="m351.41,53.25l1.19-.39c-.55.12-.91.26-1.19.39Z"/><path class="cls-1" d="m356.97,49.94c-.05-.21-.12-.34-.18-.46,0,0,0,0-.02,0l.19.46Z"/><path class="cls-1" d="m279.3,116.95c-.06.06-.11.13-.15.21-.28.56-.05.22.15-.21Z"/><path class="cls-1" d="m300.14,94.36c-.11.37-.21.73-.38,1.06.46-.3.79-.57.38-1.06Z"/><path class="cls-1" d="m255.23,141.34s0,0-.01-.02c-.05.05-.1.09-.15.14l.17-.13Z"/><path class="cls-1" d="m298.69,96.35c.55-.2.86-.54,1.07-.94-.38.24-.85.51-1.07.94Z"/><path class="cls-1" d="m380.44,34.87l.29-.12c-.04-.06-.06-.12-.06-.17l-.22.3Z"/><path class="cls-1" d="m380.66,34.57l.22-.29c-.13.08-.25.16-.22.29Z"/><path class="cls-1" d="m381.35,33.66l-.47.62c.21-.13.5-.26.47-.62Z"/><path class="cls-1" d="m372.97,38.98l.14.4c0-.1-.04-.23-.14-.4Z"/><path class="cls-1" d="m370.87,40.52c.57-.26,1.77-.13,2.34-.82l-.11-.32c0,.73-2.12.24-2.23,1.14Z"/><path class="cls-1" d="m359.04,42.43l1.98-1c-.56-.14-1.3-.32-.55-.99-3,.54,1.02.47-1.43,1.99Z"/><path class="cls-1" d="m353.12,45.85c.85-.85-.38-.5-.47-.74-.38.76-.47.94.47.74Z"/><path class="cls-1" d="m314.46,76.25l-.57-.86c-.6.7.25.31.57.86Z"/><polygon class="cls-1" points="310.79 86.34 311.87 86.25 311.57 85.27 310.79 86.34"/><polygon class="cls-1" points="301.84 84.51 302.04 84.14 301.15 85.42 301.84 84.51"/><path class="cls-1" d="m241.52,140.64l1.06.73c.29-.58-.58-1.7-1.06-.73Z"/><path class="cls-1" d="m216.29,165.57c-.71-.21-1.71.15-1.76,1.01.65-.46,1.57-.62,1.76-1.01Z"/><polygon class="cls-1" points="130.97 181.41 131.48 180.77 130.35 181.57 130.97 181.41"/><path class="cls-1" d="m378.98,72.55c.26.24.96.59.93.33l-1.07-.8.14.46Z"/><path class="cls-1" d="m381.83,72.53c-.43-.54-1.26-1.36-2.39-1.82.98.85.49.64,1.66,1.63.03.26-.56.11-.96-.16.26.24-.42.14.24.66,1.03.27,1.24-.01.69-.76.29.08.55.32.75.45Z"/><path class="cls-1" d="m394.11,55.43l-.2.04c.09.01.16,0,.2-.04Z"/><path class="cls-1" d="m401.25,44.56c-.02.1.07.2.17.27-.03-.12-.06-.23-.17-.27Z"/><path class="cls-1" d="m403.62,43.37c-.06.02-.1.05-.14.07.13.02.21,0,.14-.07Z"/><path class="cls-1" d="m394.11,55.43l.53-.09c-.36-.24-.37,0-.53.09Z"/><path class="cls-1" d="m380.51,68.43c.02.1.1.21.21.34-.02-.08-.03-.15-.03-.22-.06-.04-.11-.07-.17-.11Z"/><path class="cls-1" d="m392.17,60.92l-.05.09c.11.1.26.22.42.35l-.37-.44Z"/><path class="cls-1" d="m390.15,64.82c.09-.06-.86-.65-1.27-.93.37.28.53.45.56.57.18.11.41.23.71.36Z"/><path class="cls-1" d="m384.95,69.86l.07.19c-.03-.05-.04-.12-.07-.19Z"/><path class="cls-1" d="m393.96,58.32c.15.08.28.14.37.17-.12-.07-.25-.12-.37-.17Z"/><path class="cls-1" d="m355.66,30.9c-.02-.08-.03-.13-.04-.2,0,.12,0,.2.04.2Z"/><path class="cls-1" d="m349.49,26.55l.06-.07c-.04-.21-.08-.42-.12-.62l.06.69Z"/><path class="cls-1" d="m406.9,40.59s-.02,0-.03,0c.06.16.07.09.03,0Z"/><path class="cls-1" d="m424.03,2.01c-.51.69-1.35,1.29-2.13,1.88-.79.6-1.5,1.19-2.02,1.94.33-.33,1.26-1.08,2.19-1.86.92-.78,1.84-1.58,1.96-1.96Z"/><path class="cls-1" d="m380.7,68.4c.02-.06.04-.11.08-.16-.07.05-.1.1-.08.16Z"/><path class="cls-1" d="m419.88,5.83l-.02.02-.09.14c.05-.06.07-.1.11-.16Z"/><path class="cls-1" d="m411,32.16c-.18-.08-.33-.13-.47-.16.1.05.23.11.47.16Z"/><path class="cls-1" d="m406.13,37.38l.22-.07c-.12,0-.18.04-.22.07Z"/><path class="cls-1" d="m411.44,28.23c.12-.04.27.01.21-.17-.06-.02-.1-.03-.14-.04.11.12.14.21-.07.21Z"/><path class="cls-1" d="m413.32,24.97c-.08-.03-.15-.04-.23-.05,0,.04,0,.09,0,.13l.24-.08Z"/><path class="cls-1" d="m366.76,27.8c-.15-.29-.28-.62-.4-.94.24.76-.23,1.17.4.94Z"/><path class="cls-1" d="m381.06,68.74c-.23-.16-.34-.26-.36-.34-.01.04-.01.09-.01.14.14.09.27.17.37.2Z"/><path class="cls-1" d="m403.84,23.66l.44-.43c-.18.09-.34.25-.44.43Z"/><path class="cls-1" d="m393.03,20.91l-.1.17c.06.01.1-.03.1-.17Z"/><path class="cls-1" d="m405.03,21.6c.4.11.65.12.84.1-.06-.07-.11-.13-.22-.21l-.63.11Z"/><path class="cls-1" d="m366.36,26.85h0s0,0,0,0Z"/><path class="cls-1" d="m363.11,30.35c.57-.1-.06-1.47-.14-2.32.57-.56.55.99.95,1.67.33-.48.34-1.87.66-1.89.08.23.16.3.16.62.17-1.25,1.29-.36,1.46-1.92.07.12.12.23.15.34-.25-.7-.44-1.43-.55-1.95.24-.08.25-1.02.56-.1-.16,0-.08.39-.08.7l.16-.47c.56,1.3-.25.55,0,1.55.41-.56.73-1.82,1.21-1.53.4,1.3-.81.66,0,1.71l-.73-.36c.96,1.98-.4-.06.55,2.07.89.19.73-.88,1.62-.69,0-.78-.32-1.07-.32-1.85.81-1.59,1.69,3.1,2.09,1.15,0-.93-.32-2.62.48-1.88l.16,1.54c.81-.04-.08-2.25.97-1.44,0,.62-.48.64-.32.79.81,1.05.16-.94.56-1.04l.41,1.3c.77-.41,1.43-1.59,2.28-2.06.05.4,0,.86.31,1.21.98-.94,2.48-.45,3.78.05l.13-1.24c.1-.01.31.47.26.72.54.32-.16-.73-.07-1.23.22-.14.49.57.42.95.51-1.16,1.62-2.63,2.73-1.62l-.07.38c.74.3.09-2.51.94-1.6l-.06.23c1.48.14,2.68-1.29,4.17.14-.24-1.69,1.53.37,1-1.93,1.07.92.96,1.39,2.25,1.85.32.03.04-1.54.33-1.87l.33,1.19.14-1.38.65,1.35.25-.4c-.15-.03-.43-.46-.5-.8.37-.68,1.5.48,1.68,1.08l.96-1.35c.11.49-.06.71-.13,1.06.32-1.4.47,1.22.76-.06-.16-.25-.15-.72-.21-.96.5.63,1.19.45,1.61,0l.13.85c.98-.05,1.82-.93,2.85-1.22-.48-.28-.8-1.72-.53-1.94l.48,1.22c-.03-.83-.45-.38-.32-1.44.42.03.67,1.35.56,1.82l.34-.57c.13.37.08.6.19,1.08-.03-.83,1.17,1.03,1.05-.4l.13.36c1.03-.29,1.37-.85,2.19-1.16-.3-1.08.1-.94.09-1.89.44.06.55.35.72.56.16.22.26.4.35.32.15-.63.05-1.01.17-1.74,0,1.07.22.9.03,1.73.28-.25.25-.29,1.03-1.39.14-.48.14-.67.32-1.09.2-.23.06.43-.21,1.02l-.07.13c.65-.99.66-.22.3.59-.3.79-.93,1.6.33.11l-.13.15c.48-.53,1.02-1.08,1.63-1.65-.04.2-1.04,1.12-1.71,1.98,1.19-1.25,1.33-1.23,1.25-1.07-.05.15-.31.44.77-.48-2.07,2-2.3,2.21-2,1.99.28-.21,1.14-.84.49-.28-.38.31-.73.59-1.08.88l1.51-1.19c1.44-1.1-.89.72-1.23.99.88-.68.98-.76,2.15-1.66.74-.43-.01.36-.95,1.08-.95.75-2.07,1.42-2.57,1.63-.14.06,1.27-.54,2.36-.96,1.1-.44,1.84-.64.52-.04-.62.2-1.26.41-1.9.64,1.11-.34.95-.08.81.07-.16.19-.29.26.33.53-.32-.06-.75-.1-.73-.13-.55-.01-.57,0-.37.07.2.07.6.22.99.33-.13.04-.72-.17-1.13-.26-.29-.06,0,.04.23.17.23.12.39.26-.05.07-.14-.06-.28-.15-.34-.18.21.11.16.13.19.18,0,.02.02.02.03.06,0,.05.02.1.05.15.07.1.21.19.48.29-.76.26-.16,1.25-.97,1.34.91.89-1.04.6.43,1.57-1.54-.94-1.8.19-1.25.95-.41-.39-.66,0-1.24-.5-.2.39-.11.91.73,1.31-2.28-.39.69,2.28-1.94,1.28.19,1.62.15,2.99-.07,4.22-1.54-.94.49-1.21-1.17-2.12.09,1.33,1.1,2.67.18,3.4-.36.12-.6-.53-.81-.77.09,1.33-1.22,1.78-.86,3.12-.14-.09-.25-.27-.32-.43-.05.2-.45.26.26.65l-.1-.28c1.19.33,1.76,1.92,2.29,2.26-1.87-1.46-1,.55-3.31-1.39.07.19.33.52.82.77-.23.08-.54-.02-.98-.5.04.83.92,1.05.58,1.59-.34-.2-.41-.39-.78-.68.51.67,1.02,1.33.46,1.63-.19-.15-.49-.25-.41-.39-.36.85,1,2.39-.15,2.88-1.34-1.12-.66.01-1.98-.69l.11.69.74.18c-.26.4.47,1.31-.16,1.41l-.36-.61-.2.91.74-.15c.43.8,1.66.9.98,1.24-.07-.19-.25.4-1.14.17h0c.29.44.61.9.11,1.02-.46-.16-1.39-.89-1.7-1,.96.83-.26,1.13.75,2.05-.22-.24-.9-.64-1.05-.69l.78.68c-.39.03-.54-.02-1.07-.37-.49.48,1.74.77.65,1.04-.04-.09-.19-.14-.26-.33-.76.47-.21,1.64-1,2.02-1.41-.57,0-.73-1.22-1.16-.29,1.04.48,2.77-.34,3.47l.24-.08c1.77,1.18-1.28.13-.67,1.07-.07-.19-.94-.73-.75-.58-.64.43-.26,1.48-.2,2.73l-.41-.39c-.63.11-.78.79-1.22,1.05.41.39.2.56.97.82-3.37-.38.14,3.07-2.7,2.82.07-.13-.24-.54-.3-.44l-.08,1.14c.84.39.55.16,1.28.34.41.39.63.85.5,1.07-.3-.71-1.29-.74-1.83-.83.26.11.5.33.76.46-1.69-.36,1.56,1.01.24,1.09l-.4-.28c.08.36.51.9.24,1.09-.99-.43-.29-.5-1.04-.96-.15.39,1.34,1.72.23,1.51-.17-.3-.05-.52-.21-.82-1.29-.28-1.04-.07-1.36.09h.04s-.84.31-.84.31l.38.02c2.15,1.85-.09,1.17,1.14,2.69-1.16-1.45-.81-.6-1.83-1.25-.38-.01-.84.03-1.1-.21.68.78-.94.09.06,1.21-.35-.18-.21.29-1.02-.27.05.53.64.25,1.04.53.82,1.24-2.18.54-1.07,2.28.24,1.09,1.3,1.88,1.49,2.87-.67-.09-1.12-.89-1.12-.89-.71.07-.77.39-.58.96-.25-.24-.54-.31-.98-.43-.07.32,1.12.89.42.96-.34-.28-.9-.71-1.2-1.06.13.5.57,1.18.69,1.69-.64-.25-.78-.72-1.09-1.06.05.53-.03,1.27.84,1.93l.47-.05c-.03.16-.84-.39-.95-.59-.55-.74.59-.27.94-.1l.08.36c2.12.9.23-1.13.62-1.54l1.33,1.03-.91-1.18c.43.11,1.28.51,1.36.87.91.07-.34-.6.63-.43.14.04.2.09.24.16l-.24-.58c.26.24,1.05.53.72.62,1.18-.12-.52-1.59.7-1.18l.06.1c0-1.11-1.01-.69-1.89-2.03l2.85,1.09-1.01-.69c.09-.06.26-.19.67.09-.54-.74-.49-.21-1.07-.79,1.2.15.21-1.4,1.94-.51-.72-.61-.85.03-1.15-.73,1.88.92-.02-.69,1.03-.58.87.66.17.73,1.22.83-1.45-1.14.77-.53.65-1.02-1.25-.74-.12-.99-.24-1.77.4.28,1.27-.6,2.01-.83l.2.14c-1.22-.83-.68-1.2-.73-1.73.75.46,1.01.7,1.24,1.09l.2-.35c-.36-.32-.51-.55-.53-.86l.9.64c.22-.5-.58-1.58.4-1.82-.87-.55-2.74-.95-2.97-1.93.49.25,1.33.71,1.43.98-.03-.09-.29-.42-.02-.41l.66.72c.51-.07-.59-.53-.39-.71.68.4.58.12,1.11.47.03.09-.39.03-.17.27.26-.17.84-.24,1.42-.04-.4-.2-.92-.53-.9-.76.22-.49.91.32,1.42.25-.41-.39.25-.4-.76-1,.08-.13.58.12.88.23-.31-.5.52-1.2-.72-1.56l-.11.02s0-.04-.02-.07h0s0,0,0,0c-.56-1.38,1.53-1.3,1.54-2.34l.34.2c-.12-.69.37-1.17-.17-1.93.08-.14.81.04,1.19.33-.05-.51-.41-.77.45-.96.39.7.6.18.22.62.56-.29,1.17-.08.53-1.12.78.68,1.3.29,1.17-.08l-.82-.04c.02-.32.22-.49.42-.67l1.08.79c1.95-.14-1.39-3.09,1.37-2.46-.66-.72-.87.19-1.68-.58.41-.35,2.32.15,2.41.02.98-.23-1.36-1.53-.56-1.91-.46-.16-1.6-.72-1.71-1.41.41-.35,2.03.46,2.2.93-.03.12-.19.1-.32.01.07.23.14.52.68.6l-.38-.29c.54.03.85-.6,1.44-.07-.2-.56-.59-.53-.95-.41.92-.22.53-.87,1.26-1.21-.28-.04-.81-.23-.75-.32,1-.55-.56-.82-.41-1.5.81.04,1.43.98,1.24.1.63-.11,1.13.56,1.39.89-.49-.98,1.09-.68,1.41-.9l.17.47c-.1-.28-.02-.41.07-.55l-.91-.32c.24-.08.32-.22.66-.01-.44-.48-1.44-.66-1.98-1.42.54.02-.07-.92,1.07-.36-.77.47,1.14.56.98,1.24-.07-.19.02-.32.26-.4.14.05.21.15.25.23,1.35-.09-1.06-1.01-.64-1.68.56.44,1.26.52,1.19.33-.17.27-1.1-.46-1.43-.99.73-.16-.08-.68.1-.87l-.38.13c-.56-.44-.36-.61-.38-1.03.49.25.17.47.44.48-.89-.96,1.56-.11,1.1-1,.54.02,1.17.65,1.56.62-.49-.99,1.17-.08.83-1.01-.92-.32-.73-.17-1.31-1.03l.06,1.24-.86-1.28c-.17.27.19.88-.05.96-.51-.67-.32-.52-1.09-.79,1.46.34-.29-1.16.8-1.11l2.04,1.2c1.29-.12-.38-1.76.62-2.31l-.51.07c-.75-.58.19-.59.02-1.05.67.42,1.02.39,1.51.52-.52-.28.4-.59-.92-1.46l1.12.14c.76-.47-1.5-1.91-.88-2.43.63.63,1.29.61,1.56,1.36.13-.22.37-.34-.1-.62.5.12-.57-1.14.2-.97-.25-.27-.95-.71-.75-.92.15.05.34.2.34.2-.34-.2-.24-.65-1.12-.87,2.52.56.94-1.98,3.11-1.5.02-.31.06-.63.12-.94.1-.38.24-.78.38-1.08.2.13.36.16.22.24,1.2-.61-1.86-1.31-.6-1.85,1.56-.14.42.65,1.07.49,1.33.29,1.44-.08,1.43-.51,0-.44-.16-.88.88-1.18l.07.19c.65-.24.59-.62.42-1-.17-.38-.45-.73-.09-1.16,0,0,.26.01.48-.05-1.28-.43-1.34-1.21-1.47-1.72,1.28-.18.55.12,2.05-.41,0-.28-2.32.69-2.39.24.88-.42,1.84-1.1,3.49-1.75l-.31.65c1.11-.5,1.24-.75,1.15-.9-.09-.16-.42-.21-.13-.46l.9-.31c.37-1.04-2.08.05-1.32-1.04l-.82.48c-1.11.36-.71.1-.2-.24.5-.33,1.11-.74.29-.48l2.77-1.62c-.2-.03-.66,0-1.1.02-.44.02-.88.06-.98-.06,1.95-1.03,2.53-.83,3.39-.94.27-.44.65-1.36-.65-.67.19-.02.76-.23.23.19-1.92.84-2.76,1.07-2.33.39,2.86-1.89,3.52-2.65,4.1-3.42.57-.77,1.01-1.48,3.65-3.68-.23.02-.31-.05-.29-.21.01-.08.05-.18.11-.3.06-.12.16-.27.19-.36-.9.16-.81-.6-2.54.07-3.58,3.62-.73.3-4.91,4.17-.66.37-.73.35-.5.11.43-.64.79-1.27,1.08-1.87.76-.98,1.29-.97,2.12-1.81-.83.06,1.15-1.45,1.3-2.17-1.14,1.28-2.26,2.02-2.46,1.73-.2.46-.44.92-.7,1.4-1.69,1.21-1.24.53-.9-.11.36-.65.61-1.27-1-.09l1.48-1.27c-.73.47-1.53.71-2.53,1.22-.99.5-2.15,1.26-3.41,2.68.13-.34.53-1.16,1.05-1.51-.88.12-2.42,1.14-3.64,1.94-1.25.81-2.19,1.41-2.65.91l.38-.74c-.45.32-1.02,1.49-1.24.93.1-.29.33-.73.18-.71-.28.3-1.21,1.47-1.58,1.21l.53-.87c-.88-.14-1.72.54-2.37,1.32-.67.78-1.16,1.67-1.76,2.06-.14-.88-.58-1.35-1.14-1.61-.14-.06-.28-.11-.43-.15-.13-.04-.19-.1-.28-.13-.17-.08-.33-.12-.45-.16l-.06-.24c-1.3.16-1.7,2.01-2.66,3.01-1.24-1.63-2.64-.07-4.08-.79.26.26.34,1.33.19,1.56-.37-.27-.42,1.39-.81-.18h.1c-.63-1.47-1.07-.91-1.51-.83l.5,2.05c-1.95-2.64-2.67,1.91-4.02-.58-.13.58-.47.67-.61,1.26l-.28-1.1c-.83-.07-1.25-.11-2.12.4l-.02-.83c-.55.07.18,3.33-.29,3.53l-.58-1.59c-.92.27-2.23-.91-2.75.81-.05-.24-.15-.72-.01-.83-.45.07-1.97-.67-1.23,1.54-.39-1.46-.99.11-1.32.88l-.2-1.1c-.06,1.49.02,1.87-.47,2.4-.18-.1-.35-.83-.09-.6-.61-.45-.1,1.11-.81.68l.03-.74c-.5.04-.37.4-.43,1.27-.19.51-.98-.04-1.3-1,.09.61.03,1.48-.33,1.27-.13-.36-.09-.61-.06-.74-.99-.53-.88,1.56-1.7.64-.1-.36-.18-.53-.26-.62.64-.13,1.17-.2,1.14-.11-.25-1-.81-1.04-.75-2.52-.22.86-.52,2.66-1.14,2.32-.05-.09-.1-.18-.15-.33l.02-.12c-.14-.07-.22.05-.28.24-.2-.12-.33-.22-.49-.2-.26-.81-.7-.3-.97-.28.29,1.09-.09,1,.45,1.82-.06-.07.02-.14.18-.23.03-.04.07-.07.08-.14,0,.03,0,.07,0,.1.16-.07.38-.15.62-.23-.06.6-.16,1.12-.6.59.04.73.07,1.49.08,1.85-.73-1.43-1.61-2.09-1.94-3-.63.8-1.75.85-1.75,3.03-.16.32-.4-.53-.56-.83.08-.24.24-.24.24-.56-.32.64-1.27.53-1.04,1.99-.72-.51,0-1.4-.72-.98v-.46c-2.07-1.93-1.61,4.25-4,1.71.16.15.24.22.32.46-2.23-.85-3.7,2.14-6.08.51-.64-.3-.49.64-.66,1.41l-.38-1.15-.26,1.49c-.58,1.18-2.03-2.58-2.63-.47l.31.77c-.4-.07-1.06.72-1.2-.21,0,.15.06.85-.17.47l-.15-.61-.67,1.25c-.79-.3-.42-2.48-1.46-2.38-.33.32-.69,2.03-.46,2.42.16,0,.47.3.62.92l-.28.4c.33,1.83.46,3.76,1.59,4.84l.36-1.24.38.84-.49.16c.46.77.49,0,.58-.55.15.46.3.77.46.92l.21-1.87c.23.7.04,1.47.52,1.78.1-.87-.61-1.54-.27-2.17.47.77.53,1.46.71.68.15.46.14.77.06,1.01.18-.63.74-.41.68-1.41.52.96.95-.49,1.3,1.24,0-.43.22-1.47.48-1.6-.04,2.17,1.05-.11,1.41,2.13-.04-1.93,1.15-1.12,1.58-2.29,0,.15,0,.47-.09.39.4.07.64.6.95.9-.3-1.54.19-2.02.29-3.03.79,1.37.14,1.86.6,3.24-.31-1.23.5-1.42.11-2.41.55.83.4.37.87,1.6-.38-1.92.25-.4.26-1.64.72.83.54,1.76.96,1.05.4.53.07,1.31.07,1.31Zm12.22-6.43s0,.02,0,.02c-.11.05-.19.1-.25.13.05-.03.12-.07.25-.15Zm1.09-.29c-.14,0-.31.02-.48.07-.13-.37-.19-.77-.07-.77,0,.27.31.42.56.7Zm-4.18-6.99c.13-.2.24,0,.32.22-.08.04-.16.1-.27.21,0,.04,0,.09.01.14-.04-.21-.07-.41-.07-.56Z"/><path class="cls-1" d="m372.28,18.16s-.02.08-.05.1c.06.09.11.16.16.22,0-.12-.02-.24-.02-.36-.03.01-.06.03-.09.04Z"/><path class="cls-1" d="m393.88,55.48h.03s-.1-.02-.16-.05c.05.01.09.03.13.05Z"/><polygon class="cls-1" points="391.97 21.77 391.9 21.5 391.87 21.77 391.97 21.77"/><path class="cls-1" d="m387.45,58.87c-.09-.04-.19-.07-.29-.07.07.03.17.06.29.07Z"/><path class="cls-1" d="m385.9,61.05l-.54.12c.28-.03.43-.07.54-.12Z"/><path class="cls-1" d="m384.39,62.54c.16.12.28.2.4.28h0s-.41-.28-.41-.28Z"/><path class="cls-1" d="m399.54,33.73s0-.06,0-.09c-.1-.27-.08-.12,0,.09Z"/><path class="cls-1" d="m396.97,43.43c-.13-.19-.25-.38-.3-.54-.16.11-.25.21.3.54Z"/><path class="cls-1" d="m403.79,23.7s0,0,.02.01c0-.02.02-.04.03-.06l-.05.05Z"/><path class="cls-1" d="m396.91,42.51c-.28.04-.31.19-.24.38.14-.08.32-.17.24-.38Z"/><path class="cls-1" d="m379.51,69.96l-.09.06c.07.04.11.07.15.1l-.06-.16Z"/><path class="cls-1" d="m379.57,70.12l.06.16s.04-.09-.06-.16Z"/><path class="cls-1" d="m379.76,70.62l-.13-.34c-.04.07-.12.14.13.34Z"/><path class="cls-1" d="m381.32,67.87l-.34-.23c.06.06.17.13.34.23Z"/><path class="cls-1" d="m381.63,67.1c-.18.12-1,0-.92.36l.27.18c-.46-.42,1.15-.03.65-.54Z"/><path class="cls-1" d="m387.71,66.65l-.63.43c.44.11,1.02.27.95.59,1.56-.1-.93-.33-.33-1.03Z"/><path class="cls-1" d="m389.32,65.12c-.01.42.55.31.75.45-.23-.4-.28-.5-.75-.45Z"/><path class="cls-1" d="m397.07,51.75l.87.54c.02-.32-.34-.2-.87-.54Z"/><polygon class="cls-1" points="393.97 46.55 393.28 46.47 394.03 47.05 393.97 46.55"/><polygon class="cls-1" points="401.15 48.69 401.22 48.87 401.14 48.27 401.15 48.69"/><path class="cls-1" d="m413.84,26.05l-1.13-.56c.1.28,1.3,1.03,1.13.56Z"/><path class="cls-1" d="m420.53,11.94c1.1-.64,2.03-1.44,1.15-1.16-.34.41-1.32,1.13-1.15,1.16Z"/><polygon class="cls-1" points="392.15 11.24 392.25 10.78 391.94 11.23 392.15 11.24"/></g></svg>