<!--?xml version="1.0" encoding="UTF-8"?--><svg id="Camada_1" xmlns="http://www.w3.org/2000/svg" viewBox="0 0 793.09 349.48" style=""><defs><style>.cls-1{fill:none;stroke:#09B4A4;stroke-linecap:round;stroke-linejoin:round;stroke-width:2px;}</style></defs><path class="cls-1 YmPcVRnM_0" d="M15.2,310.44c.32.55,1.45-1.37,1.68-.97.1.18-2.6,1.5-2.59,1.52.28.48,2.57-2.25,2.9-1.67s-3.81,2.05-3.47,2.64c.22.38,4.8-3.89,5.29-3.05.52.91-6.02,3.56-5.67,4.16.05.09,5.87-4.64,6.41-3.7s-6.2,2.85-5.57,3.94c.29.5,5.92-4.7,6.48-3.74.73,1.26-7.71,4.28-7.54,4.57.64,1.11,5.91-4.97,6.59-3.8.06.11-5.52,3.21-5.1,3.94.1.17,6.93-4.42,7.11-4.11s-8.88,4.05-8.29,5.07c.72,1.25,7.93-5.79,8.45-4.88.08.14-8.24,5.09-8.04,5.44.41.7,7.51-5.31,7.93-4.58.16.28-7.72,5.07-7.54,5.38.05.09,7.27-5.58,7.87-4.54.69,1.2-8.35,3.63-7.72,4.72.34.59,6.64-4.04,6.73-3.88.74,1.29-7.51,3.22-6.81,4.44s7.55-5.54,8.06-4.66c.35.6-6.43,4.2-6.43,4.2.06.1,5.07-4.73,5.85-3.38.6,1.04-6.23,3.43-6.14,3.58.2.35,7.43-4.36,7.46-4.31.45.78-8.27,4.6-7.89,5.25.47.82,8.53-4.99,8.56-4.94.78,1.34-9.53,3.88-8.79,5.15.18.32,7.16-4.62,7.37-4.26.16.28-6.96,3.24-6.37,4.26.31.54,6.55-5.03,7.09-4.09.2.35-6.86,3.25-6.32,4.18.8,1.38,7.16-6.17,8.04-4.64.73,1.26-7.58,4.79-7.4,5.1.37.64,8.01-4.71,8.05-4.65.11.19-7.71,4.53-7.58,4.76.59,1.02,8.27-4.86,8.31-4.8.2.35-9.1,4.17-8.33,5.5.69,1.2,8.32-6.6,9.1-5.25.7,1.21-10.1,4.13-9.27,5.58s8.52-6.47,9.19-5.31c.76,1.31-9.67,5.33-9.46,5.69,0,0,8.82-5.27,8.9-5.14.38.66-7.7,3.27-7.13,4.26.36.63,7.32-4.57,7.47-4.31.23.39-7.73,4.37-7.24,5.22.34.58,8.3-4.98,8.38-4.84.31.54-9.26,4.01-8.3,5.66.63,1.09,8.79-7.24,9.73-5.61.31.53-8.34,5.13-8.15,5.45.55.96,8.58-5.9,8.99-5.19.13.23-9.26,4.47-8.72,5.4.75,1.3,8.73-6.94,9.55-5.51.57.98-9.88,4.18-9.13,5.48,1.11,1.92,9.57-5.75,9.67-5.58.07.13-10.41,5.21-10.02,5.89.16.28,9.11-7.6,10.12-5.84.95,1.65-10.42,4.81-9.63,6.18s9.36-6.81,9.97-5.76c.78,1.35-8.92,5.17-8.81,5.35.5.86,8.56-6.44,9.21-5.32.27.47-9.71,6.19-9.71,6.19.9,1.56,8.31-7.35,9.42-5.44.69,1.2-8.52,4.34-8.02,5.21.64,1.12,10.1-6.45,10.37-5.99.11.19-10.5,6.68-10.3,7.01.28.48,11.02-8,11.73-6.77,1.15,1.99-10.93,6.1-10.57,6.73.06.11,10.64-7.49,11.22-6.48,1.3,2.26-10.99,6.38-10.88,6.57.84,1.46,9.65-8.33,10.85-6.26,1.1,1.9-9.85,5.52-9.32,6.45,1.13,1.95,9.38-6.64,9.91-5.72.18.31-10.91,4.1-9.88,5.87.35.6,10.02-7.17,10.62-6.13,1.06,1.84-8.99,5.55-8.83,5.81.54.93,9.38-5.5,9.42-5.44.27.47-9.96,3.67-8.94,5.44s8.94-7.59,9.99-5.77c.05.09-11.7,4.09-10.52,6.13.79,1.37,8.86-7.29,9.8-5.66s-9.96,5.94-9.86,6.12c.03.06,10.02-6.73,10.43-6.02.27.48-10.07,5.62-9.68,6.29.07.12,10.85-6.56,10.97-6.33.38.66-10.71,4.81-9.78,6.42,1.09,1.88,10.69-8.79,11.82-6.83s-10.04,6.31-10.03,6.32c.39.67,9.21-8.17,10.44-6.03s-11.75,6.36-11.47,6.86c1.1,1.9,11.17-9.45,12.47-7.2.09.16-12.43,5.77-11.66,7.09,1.1,1.91,11.13-8.74,12.13-7,.24.41-11.79,5.27-10.65,7.25.82,1.43,10.77-7.18,11.19-6.46.62,1.07-10.77,4.5-9.7,6.36.41.71,10.46-6.91,10.84-6.26,1.09,1.88-11.99,5.01-11.06,6.63,1.21,2.1,11.43-6.89,11.56-6.67.55.94-10.56,6.2-10.56,6.2.06.1,10.69-6.49,10.83-6.25.94,1.62-10.6,6.4-10.39,6.76,1.19,2.06,11.25-6.75,11.36-6.56.4.69-9.16,6.16-9.11,6.24,1.34,2.31,11.16-7.43,11.59-6.69.28.48-10.69,6.77-10.69,6.77,1.38,2.4,10.5-7.55,11.14-6.43,1.23,2.13-12.02,5.79-11.11,7.38s11.25-8.48,12.11-6.99c.94,1.63-12.82,4.36-11.48,6.68.51.89,11.21-8.48,12.08-6.97.13.22-12.93,5.49-11.95,7.19.34.6,11.36-7.39,11.72-6.77.75,1.31-11.24,4.34-10.08,6.36,1.04,1.8,10.11-7.25,10.72-6.19.57.99-11.16,6.8-11.11,6.89.98,1.7,12.38-7.93,12.72-7.34.91,1.58-11.9,7.17-11.9,7.17,1.04,1.8,11.81-8.98,12.75-7.36.18.3-13.68,6.04-12.8,7.56,1.4,2.42,10.41-9,11.71-6.76.86,1.49-10.51,6.26-10.43,6.4,1.14,1.97,10.17-7.81,11.01-6.36.59,1.02-11.11,5.83-10.71,6.53,1.03,1.78,11.99-7.77,12.36-7.14.91,1.58-11.71,6.38-11.18,7.3.56.97,12.08-8.65,12.81-7.39,1.04,1.8-12.13,6.28-11.66,7.1.13.23,11.08-8.48,11.98-6.92.5.87-13.02,7.73-13.01,7.74,1.21,2.1,13.1-8.6,13.55-7.82.12.22-13.04,6.12-12.37,7.29s10.68-9.45,12.1-6.98c1.19,2.06-12.01,7.48-11.9,7.68,1.07,1.85,11.94-8.31,12.55-7.25,1.34,2.32-11.11,7.06-10.93,7.37.76,1.32,13.39-9.23,14.04-8.11.21.36-11.71,7.89-11.71,7.89.65,1.13,12.45-8.34,12.95-7.48.28.48-11.48,6.08-10.85,7.17,1.04,1.8,9.99-9.19,11.47-6.62.06.1-11.74,5.16-10.79,6.81,1.37,2.37,10.69-8.88,11.86-6.85.49.84-13.06,5.54-11.94,7.48s12.53-10.22,13.82-7.98c1.13,1.96-12.77,5.79-11.76,7.53,1.39,2.4,12.26-7.31,12.36-7.14.51.88-11.81,7.33-11.74,7.45,1.26,2.18,11.78-9.36,12.88-7.44,1.27,2.19-13.31,5.78-12.17,7.75.54.93,12.82-10.01,13.95-8.05.16.28-13.88,7.13-13.27,8.18,1.23,2.13,13.43-7.94,13.51-7.8,1.48,2.57-13.3,6.18-12.38,7.78,1.43,2.48,13.31-10.05,14.33-8.28,0,0-15.31,5.77-13.82,8.36s12.68-8.69,13.27-7.66c0,0-11.76,6.71-11.67,6.87,1.16,2.01,11.65-10.3,13.2-7.62,1.1,1.9-14.93,6.58-13.9,8.36,1.46,2.53,12.54-10.18,13.82-7.98,1.5,2.59-13.58,8.03-13.55,8.08.37.65,13.58-10.23,14.61-8.44.22.38-12.72,8.19-12.64,8.33.28.48,12.87-8.05,13.14-7.58.02.04-13.09,6.18-12.41,7.37,1.47,2.54,12.87-8.66,13.41-7.74.65,1.13-12.95,6.4-12.39,7.36.43.74,12.96-7.48,12.96-7.48.84,1.46-13.95,5.22-12.62,7.53.75,1.29,11.76-7.87,12.23-7.06,1.26,2.18-11.03,5.8-10.31,7.04.36.63,11.93-7.37,12.14-7.01.63,1.09-12.15,6.47-11.54,7.53.01.03,13.17-9.91,14.17-8.18.02.03-14.05,7.89-13.85,8.24.36.63,12.47-9.05,13.27-7.66.75,1.29-12.58,6.38-12,7.39,1.02,1.76,12.92-8.07,13.19-7.61.37.65-13.72,6.55-12.93,7.91,1.6,2.76,12.74-8.37,13.18-7.61.74,1.29-11.81,5.4-10.72,7.29.17.29,11.33-9.45,12.59-7.27s-13.95,5.51-12.56,7.91c.71,1.23,13.81-9.21,14.34-8.28.48.82-13.47,7.89-13.22,8.32.07.12,14.67-9.15,14.97-8.64.63,1.09-13.16,7.88-13.1,7.99.87,1.5,12.07-8.4,12.69-7.33,1.39,2.41-12.15,6.83-11.63,7.72.88,1.52,13.22-9.9,14.2-8.2,0,0-14.43,5.73-13.1,8.05.75,1.29,13.47-10.07,14.46-8.35.62,1.08-13.42,8.2-13.38,8.27.23.4,12.69-10.91,14.24-8.22,0,0-15.09,7.1-14.23,8.6s14.97-9.24,15.22-8.79c.29.5-12.37,8.06-12.32,8.15.61,1.06,12.95-7.48,12.95-7.48.1.18-13.98,6.47-13.09,8.01,1.29,2.23,13.32-9.28,14.01-8.09,1.37,2.37-12.54,5.39-11.25,7.62.82,1.43,13.19-7.77,13.26-7.65.49.85-13.65,6.22-12.49,8.24.54.93,13.83-8.53,14.07-8.12.2.35-12.87,6.97-12.66,7.33.23.39,12.68-7.86,12.91-7.46,1.27,2.2-12.47,7.52-12.3,7.81.54.94,11.76-10.65,13.43-7.75,1.37,2.38-14.47,5.69-13.24,7.82,1.49,2.58,12.49-10.33,13.84-7.99,1.62,2.8-14.79,6.99-14.06,8.24,1,1.73,14.69-8.48,14.69-8.48.36.62-14.91,5.58-13.59,7.86.35.61,12.29-9.13,13.17-7.6,1.48,2.57-13.85,5.46-12.62,7.59.34.58,12.64-8.79,13.29-7.67.6,1.05-14.26,6.28-13.24,8.05,1.19,2.07,12.57-9.17,13.4-7.74.09.16-13.75,5.44-12.27,8.01.4.7,13.95-10.45,14.99-8.65.39.67-13.62,7.36-13.18,8.11,0,0,12.99-7.94,13.18-7.61,1.48,2.56-13.57,5.93-12.59,7.63,1.09,1.88,13.24-7.74,13.28-7.67,1.12,1.94-13.91,6.99-13.41,7.86.79,1.38,12.37-10.76,13.94-8.05.41.72-13.57,5.36-12.15,7.83.18.31,12.92-10.18,14.1-8.14,1.37,2.37-13.97,7.82-13.41,8.78.64,1.1,13.41-11.23,14.92-8.62,0,.01-13.56,5.86-12.37,7.93,1.66,2.87,13.7-9.45,14.37-8.3.86,1.49-15.38,7.99-14.83,8.95,1.08,1.87,15.4-10.52,16.11-9.3,1.18,2.05-15.23,6.43-13.72,9.05.15.26,13.88-8.79,14.21-8.2s-12.43,6.94-11.98,7.7c1.03,1.78,12.7-9.73,13.74-7.93.15.25-13.83,6.16-12.79,7.98,1.27,2.19,13.4-11.39,14.99-8.65.6,1.03-16.43,6.46-14.96,9,1.01,1.75,14.27-11.57,15.71-9.07.25.43-14.8,5.88-13.31,8.46.92,1.59,13.21-9.19,13.89-8.02,1.36,2.36-14.23,8.59-14.23,8.59,1.47,2.55,14.55-9.97,15.23-8.79.24.41-13.74,7.99-13.55,8.31,1.11,1.93,13.62-11.03,14.99-8.66,1.53,2.65-15.87,8.53-15.58,9.04.24.41,12.92-10.79,14.36-8.29.37.64-13.7,6.56-13.08,7.64.42.73,12.26-9.66,13.38-7.72.38.65-13.02,8.34-12.89,8.57,1.45,2.51,13.94-11.85,15.59-9,.79,1.37-13.88,7.93-13.43,8.71.57,1,13.84-10.3,14.84-8.57.91,1.57-14.53,5.9-13.27,8.07.33.57,12.76-11.33,14.48-8.36s-14.64,8.27-14.42,8.65c.47.81,15.56-8.98,15.56-8.98,1.13,1.95-13.98,7.73-13.6,8.39,1.33,2.3,13.63-9.76,14.45-8.34.6,1.03-16.04,7.24-15.07,8.9,1.54,2.67,15.56-9.35,15.71-9.07.58,1-14.71,6.28-13.41,8.53,1.5,2.59,13.15-11.65,14.91-8.61,1.57,2.73-15.49,6.44-13.96,9.09.71,1.23,13.71-11.13,15.1-8.72.49.84-14.6,7.46-13.92,8.63,1.32,2.28,15.82-9.53,15.99-9.23,1.44,2.49-14.96,8.02-14.29,9.18,1.55,2.69,14.08-11.64,15.6-9.01.92,1.59-15.15,7.45-14.35,8.84,1.48,2.56,14.42-10.46,15.34-8.86.81,1.41-15.42,8.78-15.23,9.12,1.42,2.47,15.06-10.79,15.97-9.22.48.83-15.97,6.14-14.51,8.67.35.6,15.45-9.25,15.59-9,1.71,2.96-15.14,8.24-14.55,9.25.24.41,16.14-9.55,16.24-9.38,1.27,2.2-16.35,6.83-15.08,9.03,1.02,1.77,13.36-11.91,15.18-8.76.16.28-16.85,6.86-15.46,9.26s16.03-10.78,16.7-9.64c.96,1.66-15.47,5.99-13.9,8.7.57.99,13.13-10.05,14.2-8.2.32.56-14.73,6.61-13.5,8.73,1.75,3.02,16.31-10.15,16.63-9.6.2.34-15.62,7.54-14.64,9.24s14.25-11.06,15.47-8.93c.94,1.64-14.51,7.44-13.68,8.88,1.49,2.59,14.81-8.63,14.84-8.57.81,1.4-15.71,6.91-14.61,8.82,1.74,3.02,13.76-11.7,15.38-8.88.28.49-15.87,6.43-14.43,8.93.37.64,15.19-10.02,15.73-9.08,1,1.74-12.56,7.67-12.27,8.17.04.08,13.34-10.72,14.64-8.45.5.87-16.03,5.95-14.44,8.71.77,1.34,14.33-11.45,15.7-9.07,1.51,2.62-14.65,7-13.68,8.68.15.26,13.94-9.54,14.59-8.42,1.59,2.76-17.01,7.03-15.72,9.26.92,1.59,15.73-11.16,16.62-9.6,1.38,2.38-15.55,8.66-15.15,9.34,1.69,2.93,16.12-10.07,16.45-9.5.88,1.53-17.47,7.79-16.46,9.54.15.26,15.89-9.5,16.03-9.25.82,1.42-16.51,7.38-15.5,9.13,1.47,2.54,15.61-10.15,16.11-9.3.13.23-15.45,7.2-14.54,8.77,1.27,2.2,13.44-12.12,15.33-8.85.37.65-15.42,6.64-14.29,8.6.28.49,14.95-8.63,14.95-8.63,1.43,2.47-13.23,7.96-12.93,8.48,1,1.74,14.62-9.19,14.95-8.63,1.25,2.16-14.86,7.62-14.27,8.64,1.05,1.82,14.89-10.82,15.85-9.15,1.33,2.3-17.25,6.79-15.55,9.74,0,0,15.83-11.67,16.92-9.77.83,1.43-14.7,7.03-13.62,8.89,1.74,3.01,15.57-11.04,16.46-9.5.2.35-17.14,9.11-16.57,10.1,1.05,1.82,15.47-10.64,16.21-9.36.7,1.21-14.81,9.33-14.78,9.4.25.44,16.07-11.14,16.87-9.74,1.54,2.66-15.62,8.46-15.05,9.45.07.12,15.97-11.16,16.81-9.71,1.57,2.72-14.76,8.61-14.48,9.09.52.91,14.88-11.06,15.95-9.21,1.49,2.59-15.92,7.82-15.03,9.35.56.96,16.17-11.52,17.12-9.88.68,1.18-15.92,9.11-15.4,10.01,1.03,1.78,17.3-10.53,17.53-10.12,0,0-16.96,6.52-15.25,9.49.76,1.31,15.33-12.39,16.86-9.73,1.14,1.98-16.37,7.03-14.98,9.44.99,1.71,15.05-12.52,16.71-9.65,1.88,3.25-17.53,6.5-15.69,9.69,1.16,2,15.44-12.21,16.87-9.74.74,1.28-17.01,6.74-15.43,9.48.59,1.02,16.74-10.16,16.95-9.79.98,1.7-17.09,8.12-16.17,9.71.52.9,15.14-11,16.12-9.3.61,1.05-15.65,7.91-14.68,9.6.62,1.07,15.76-12.48,17.23-9.95.14.24-17.47,6.44-15.8,9.34,1.52,2.64,16.46-9.67,16.54-9.55,1.45,2.51-16.65,9.92-16.55,10.11.82,1.42,16.64-12.26,17.79-10.27,1,1.74-14.99,7.3-13.92,9.14,1.91,3.31,16.79-10.52,17.15-9.9,1.04,1.8-19.21,8.68-18.05,10.71.54.94,16.81-11.01,17.37-10.03.78,1.36-16,7.27-14.67,9.58.02.04,17.27-12.76,18.48-10.67,1.77,3.07-17.27,9.69-16.82,10.48,1.03,1.79,17.26-11.53,17.94-10.35,1.98,3.44-17.95,8.54-16.97,10.23.76,1.32,17.08-13.68,18.73-10.82,1.32,2.28-20.54,8.13-18.91,10.96s17.91-10.91,18.16-10.48c.42.72-18.95,8.19-17.65,10.44,1.58,2.73,18.13-10.9,18.32-10.58.61,1.06-18.02,7.46-16.33,10.39.53.92,19.07-11.12,19.12-11.04.42.73-19.14,8.75-18.05,10.64,1.91,3.31,15.92-14.01,18.01-10.4,1.43,2.47-16.3,7.97-15.28,9.73,1.78,3.09,15.19-12.11,16.64-9.61.24.41-18.15,7.4-16.52,10.22.67,1.16,16.73-13.91,18.57-10.72.41.72-17.06,8.73-16.09,10.4.02.03,18.38-10.61,18.38-10.61,1.1,1.9-18.29,7.28-16.61,10.2s16.99-14.57,19.06-11c.76,1.32-19.34,8.42-18.14,10.49,1.43,2.48,16.08-11.22,16.92-9.77.99,1.71-19.94,6.88-17.89,10.45.82,1.43,17.04-13.13,18.47-10.66s-17.12,8.28-16.19,9.9c1.69,2.93,16.08-12.86,17.63-10.18,1.32,2.29-20.21,7.24-18.22,10.69.88,1.52,18.41-12.71,19.31-11.15.29.5-19.43,7.64-17.57,10.85.28.49,17.92-10.97,18.19-10.5.38.65-15.75,9.4-15.53,9.77.13.23,17.12-10.5,17.39-10.04.07.13-16.9,6.85-15.24,9.73.22.38,17.65-11.72,18.31-10.57,1.31,2.27-18.6,8.56-17.21,10.96,1.63,2.82,18.37-13.62,19.67-11.36,2.14,3.71-20.05,7.3-18.05,10.77.29.51,18-11.93,18.67-10.78.16.27-18.96,7.33-17.09,10.58,1.65,2.85,18.65-12.94,19.59-11.31.69,1.19-19.06,10.91-18.73,11.48.23.4,19.06-11.19,19.14-11.05,1.16,2-16.45,10.02-16.38,10.15,1.36,2.36,16.59-14.27,18.62-10.75.71,1.22-18.91,8.86-17.88,10.64,1.62,2.81,16.56-14.54,18.71-10.8.87,1.51-17.52,10.69-17.43,10.86.06.11,19.64-11.75,19.82-11.44,1.28,2.21-20.23,7.54-18.13,11.17,1.7,2.95,19.83-12.11,20.12-11.61.07.12-21.34,11.24-20.85,12.09.81,1.4,19.98-12.76,20.51-11.84,1.35,2.33-20.4,10.5-19.83,11.5s18.89-12.92,19.76-11.41c.58,1.01-19.99,8.41-18.28,11.37,2.31,4.01,18.86-13.76,20.1-11.6s-19.74,9.79-18.93,11.19c1.53,2.65,18.92-14.22,20.35-11.75,1.91,3.31-19.74,11.44-19.74,11.44.64,1.11,18.19-14.32,19.84-11.46.95,1.65-20.33,7.47-18.2,11.16,1.57,2.72,17.16-14.08,18.97-10.95.13.23-20.66,7.16-18.57,10.8,1.04,1.8,16.74-13.34,18.33-10.58,1.09,1.89-16.79,9.94-16.48,10.47.55.96,20.21-12.45,20.55-11.86,1.04,1.8-20.57,11.23-20.01,12.2,2.09,3.62,20.89-12.76,21.19-12.24,1.44,2.49-20.67,10.18-19.62,12,.97,1.68,19.12-15.59,21.09-12.18.19.34-20.88,9.14-19.26,11.93,0,0,20.91-13.1,21.35-12.33,1.13,1.96-20.06,10.71-19.46,11.74,1.35,2.35,21.21-13.15,21.6-12.47,1.49,2.58-21.05,10.51-19.95,12.41,2.3,3.99,20.42-16.8,22.59-13.04,1.78,3.07-21.31,9.82-20.04,12.02,1.72,2.98,19.91-13.21,20.65-11.92,2.2,3.81-21.02,10.43-19.89,12.4,1.75,3.03,22.59-13.86,22.95-13.25.91,1.57-18.89,12.03-18.89,12.03,2.41,4.18,21.75-12.98,21.93-12.66,1.02,1.77-20.17,11.11-19.5,12.26.63,1.09,18.84-16.24,21.17-12.22,2.04,3.54-18.87,11.17-18.61,11.63,1.84,3.19,20.29-16.17,22.22-12.83.76,1.32-22.95,8.8-20.58,12.91.51.88,23.41-14.53,23.85-13.77,1.57,2.73-23.85,11.17-22.67,13.21.68,1.18,22.74-14.7,23.42-13.52,1.61,2.8-22.65,10.82-21.38,13.01,0,0,20.33-15.81,22.09-12.76,2.12,3.68-22.35,10.35-20.99,12.72,2.33,4.04,22-14.28,22.68-13.1,2.17,3.76-22.93,13.43-22.93,13.43,1.22,2.11,23.54-14.02,23.73-13.7,2.49,4.32-22.15,11.22-21.26,12.77,1.15,2,23.24-16.18,24.43-14.11,1.99,3.45-25.36,10.25-23.22,13.94,1,1.73,20.8-18.42,23.57-13.61,2.47,4.28-23.26,11.94-22.54,13.2.59,1.02,21.07-18.19,23.68-13.67,0,0-24.07,13.34-23.59,14.18,2.37,4.1,24.74-15.5,25.27-14.59.43.74-21.69,13.37-21.69,13.37,2.56,4.43,25.87-15.16,25.97-14.99.71,1.24-25.65,14.97-25.45,15.31,2.37,4.1,27.42-15.88,27.44-15.84.54.94-26.68,13.52-25.73,15.15.59,1.01,25.24-19.39,27.33-15.78.95,1.65-26.28,11.35-24.2,14.95.21.36,27.5-16.47,27.76-16.03,1.38,2.39-28.98,14.26-27.81,16.29,3.15,5.45,26.39-19.24,28.13-16.24,2.97,5.14-29.37,10.37-26.25,15.77.93,1.61,28.63-17.6,29.1-16.8,1.68,2.92-29.92,15.26-29.01,16.84.59,1.02,26.56-21.53,29.24-16.88.28.49-27.37,13.11-25.73,15.95s30-18.55,30.53-17.63c.1.18-29.9,17.08-29.74,17.35.6,1.04,28.55-21.54,30.74-17.75.07.12-31.62,14.45-29.78,17.63,1.03,1.78,28.79-17.44,29.15-16.83,2.94,5.09-25.89,13.79-24.96,15.4,1.74,3.02,24.21-19.02,26.39-15.24,1.08,1.86-27.79,12.35-25.96,15.53,1.65,2.86,25.21-18.88,27.08-15.64s-26.25,12.14-24.71,14.81,24.32-14.19,24.38-14.08c1.47,2.55-20.99,13.09-20.91,13.21.48.83,19.6-16.33,21.77-12.57s-19.41,10.47-18.82,11.49c2.13,3.68,16.77-14.57,18.89-10.9,1.68,2.9-17.46,8.37-16.36,10.28.82,1.41,15.32-10.33,15.96-9.22.69,1.2-11.74,6.01-10.91,7.45.18.32,11.05-8.35,11.9-6.87,0,0-12.86,5-11.72,6.99.13.22,11.38-7.54,11.8-6.81.47.81-11.75,4.54-10.76,6.26.9,1.56,9.46-7.51,10.34-5.97.29.51-11.85,6.04-11.27,7.04.72,1.24,10.55-7.35,11.09-6.4,1.28,2.22-12.61,6.41-12.16,7.19.01.02,11.94-9.46,13.05-7.54,1.04,1.8-14.74,7.23-13.81,8.84.8,1.38,12.33-7.8,12.63-7.29.51.88-13.04,4.53-11.67,6.9,1.14,1.97,10.17-8.74,11.42-6.59,1.48,2.56-12.54,7.17-12.38,7.45,1.04,1.79,12.01-7.98,12.47-7.2,1.34,2.31-14.26,5.64-13.05,7.73.74,1.28,13.28-8.4,13.6-7.85,1.07,1.85-14.93,6.01-13.61,8.3,1.39,2.41,13.18-9.28,13.9-8.03.39.67-15.83,6.79-14.78,8.62,1.28,2.21,13.69-10.47,14.8-8.55.17.29-15.88,7.39-14.92,9.05.03.06,14.74-8.51,14.74-8.51.09.16-15.05,8.5-14.91,8.75,0,0,13.26-11.14,14.77-8.53.14.25-15.56,8.39-15.02,9.32.83,1.43,14.43-8.8,14.63-8.45,1.54,2.67-17.59,7.26-16.02,9.98,1.28,2.21,14.54-8.41,14.54-8.4.05.09-16.02,9.46-15.84,9.77,1.62,2.81,13.49-11.28,15-8.66.13.23-14.65,7.11-14.03,8.19,1.26,2.18,13.7-10.54,14.83-8.56.18.32-16.31,8.54-15.83,9.37,1.27,2.2,14.52-11.33,15.8-9.12.07.12-16.62,6.47-15.23,8.87,1.2,2.07,13.79-9.52,14.47-8.35.03.05-16.53,8.23-15.71,9.64.76,1.31,15.22-9.21,15.4-8.89.16.27-16.52,8.6-15.84,9.78,1.01,1.75,15.41-10.97,16.31-9.42,1.08,1.88-18.07,7.16-16.64,9.64,1.82,3.16,15.6-10,16.03-9.26.06.11-17.14,8.9-16.41,10.17.54.94,15.19-11.87,16.53-9.54.51.88-19.23,7.28-17.16,10.88,1.12,1.95,14.08-11.22,15.42-8.9.35.61-18.28,6.93-16.3,10.35,1.48,2.57,14.32-11.6,15.76-9.1,1.76,3.05-18.08,7.17-16.43,10.01,1.54,2.66,13.92-10.12,14.82-8.56.74,1.29-16.87,6.6-15.09,9.68,1.25,2.16,13.77-8.63,14.06-8.12,1.5,2.59-14.42,7.85-13.78,8.96,1.04,1.81,11.1-8.91,12.18-7.03,1.24,2.14-13.4,7.03-12.62,8.38,1.44,2.49,10.79-8.15,11.62-6.71.57.98-13.57,6.98-13.12,7.75,1.52,2.63,12.27-9.37,13.26-7.66.84,1.45-13.52,7.24-12.86,8.37,1.16,2,11.27-8.87,12.3-7.1.8,1.39-13.07,6.42-12.56,7.3.86,1.48,11.91-7.94,12.37-7.14.81,1.41-12.18,6.54-11.84,7.13,1.29,2.24,10.53-7.72,11.24-6.49.94,1.64-12.25,5.34-11.12,7.3.81,1.4,10.09-6.54,10.4-6,.91,1.58-11.25,5.46-10.34,7.04,1.16,2.01,8.59-7.52,9.7-5.6.29.5-10.98,4.89-9.99,6.6,1.13,1.96,8.12-7.32,9.26-5.35.14.24-10.85,4.25-9.91,5.88.08.14,10.88-6.9,11.15-6.44,1.11,1.92-10.81,4.32-9.87,5.96.14.24,8.8-6.7,9.5-5.49.16.28-10.24,6.54-10.19,6.63,1.06,1.84,10.45-7.81,11.22-6.48.31.54-10.2,5.48-9.99,5.84,1.13,1.95,9.77-5.85,9.86-5.69.1.18-10.7,5.41-9.96,6.7.89,1.55,11.26-9.73,12.66-7.31.05.08-13.99,4.84-12.56,7.32.97,1.68,10.99-9.11,12.19-7.04.42.74-12.21,4.78-11.12,6.67,1.23,2.13,9.82-8.72,11.14-6.43.15.25-12.46,5.74-11.74,6.98.16.27,11.59-9.03,12.6-7.28,1.2,2.07-13.23,4.98-12.03,7.05.13.23,11.09-8.86,12.15-7.02s-12.83,7.09-12.2,8.18c1.23,2.13,12.32-10.57,13.82-7.98.89,1.54-13.89,6.68-13.25,7.8s12.79-9.22,13.58-7.84c1.29,2.24-11.48,7.22-11.27,7.59,1.25,2.17,10.81-9.51,12.23-7.06.41.71-12.12,6.05-11.5,7.12.71,1.23,12.56-9.65,13.6-7.85,1.2,2.08-13.78,5.56-12.5,7.78s12.7-8.03,13-7.51c.19.32-11.65,6.86-11.39,7.31,1.16,2.02,11.63-6.98,11.74-6.78.72,1.24-12.72,4.73-11.37,7.07.97,1.68,11.76-8.55,12.52-7.23.53.91-12,6.61-11.51,7.45.67,1.16,12.15-7.37,12.3-7.1.25.43-11.92,4.79-10.86,6.62.77,1.34,10.84-8.86,11.97-6.91.02.03-12.74,5.3-11.78,6.97.47.82,10.84-7.06,11.18-6.46.83,1.44-12.37,5.13-11.42,6.77.16.27,12.21-8.8,12.97-7.49.18.31-12.48,6.38-11.63,7.86.18.32,10.54-8.52,11.59-6.69.54.94-10.07,5.33-9.46,6.39s10.69-8.47,11.68-6.75c.54.94-10.29,6.51-10.2,6.67.01.03,11.43-6.71,11.48-6.63,1.29,2.24-11.16,6.09-10.85,6.62,1.26,2.18,11.16-6.65,11.25-6.5.47.81-11.35,5.77-10.84,6.65.33.57,10.63-6.28,10.69-6.17.91,1.58-11.44,4.25-10.35,6.13,1.28,2.21,10.76-7.63,11.38-6.57.46.79-11.75,5.65-11.1,6.77,0,0,10.93-8.11,11.71-6.76.66,1.14-11.83,4.38-10.65,6.42.63,1.1,9.95-7.11,10.54-6.09,1.18,2.05-10.43,5.86-10.29,6.11.67,1.17,10.44-7.41,11.04-6.37.73,1.27-11.49,5.57-10.55,7.19.25.44,11.68-7.52,12.02-6.94.17.29-11.84,5.73-11,7.19,1.06,1.84,10.55-8.95,11.79-6.8,1.04,1.8-11.52,4.06-10.36,6.07.05.1,11-7.13,11.34-6.55s-13.57,5.27-12.3,7.47c.09.15,11.35-7.92,11.94-6.9.22.38-11.4,5.69-10.58,7.11s11.2-9.13,12.35-7.13c.52.9-10.76,5.27-9.96,6.66.39.68,11.03-6.52,11.1-6.41.2.34-10.98,5.85-10.3,7.04.16.27,11.89-6.91,11.91-6.88,0,0-12.31,5.5-11.39,7.1.83,1.44,11.82-7.67,12.18-7.03.91,1.57-11.89,7.04-11.88,7.06.95,1.64,11.31-7.85,11.88-6.86.62,1.07-11.89,4.82-10.83,6.64s9.43-8.38,10.71-6.18c.58,1-10.49,4.31-9.35,6.29,1.05,1.81,10.77-8.79,11.88-6.86.53.92-12.75,6.34-12.16,7.35.12.21,11.38-8.7,12.3-7.1.7,1.21-13.1,5.25-12.03,7.1,0,0,11.09-7.85,11.71-6.76.03.05-11.5,5.58-11.04,6.39.56.97,10.13-6.73,10.51-6.07.65,1.12-9.92,5.06-9.27,6.19.87,1.51,11.39-7.93,11.98-6.92.16.28-11.83,4.87-10.56,7.07.84,1.46,10.17-7.13,10.71-6.19.45.79-10.6,6.56-10.59,6.57.5.87,11.88-8.42,12.56-7.25.02.04-12.3,4.98-11.2,6.9.31.54,10.22-7.03,10.71-6.18.7,1.2-10.51,6.22-10.15,6.83.32.56,10.91-8.44,11.84-6.83.78,1.35-10.94,4.51-9.96,6.21,1.05,1.82,10.99-7.26,11.39-6.58.21.36-10.1,6.53-10,6.7.12.21,10.44-6.81,10.78-6.22.06.11-11.42,4.86-10.57,6.33.62,1.08,9.87-6.9,10.39-6,.32.55-10.68,4.22-9.61,6.08.06.1,10.21-6.85,10.62-6.13.13.22-11.61,4.83-10.46,6.82.55.95,11.58-7.87,12.09-6.98s-12.58,6.79-12.34,7.21c.1.18,12.05-7.74,12.39-7.15.07.13-10.49,5.14-9.6,6.69.25.44,9.04-7.17,9.89-5.71s-10.57,5.42-10.2,6.06c.52.89,10.89-6.45,10.96-6.33.27.47-10.83,5.12-10.12,6.35s10.89-8.92,12.03-6.95c.76,1.31-10.68,6.51-10.52,6.78,1.12,1.94,10.36-7.31,10.93-6.31.08.13-10.4,5.86-9.91,6.7,1.29,2.24,10.08-8.84,11.39-6.57.4.7-11.97,5.21-10.85,7.14.42.72,11.74-8.06,12.3-7.1.02.03-10.73,4.92-9.75,6.61.28.48,9.81-6.52,10.18-5.88,1.07,1.85-10.49,4.61-9.71,5.95.23.4,10.09-8.03,11.04-6.38.53.92-12.28,5.66-11.38,7.21.28.48,10.9-9.4,12.25-7.07.83,1.43-11.93,6.01-11.38,6.97.86,1.49,10.21-7.68,10.98-6.34.99,1.72-9.49,6.34-9.45,6.4.28.49,11.22-7.18,11.53-6.65.16.28-10.85,6.92-10.68,7.22,1.01,1.75,12.38-7.52,12.54-7.24.37.64-12.15,5.78-11.59,6.74.2.35,10.94-7.39,11.41-6.59,1.2,2.07-11.51,6.27-11.1,6.97.34.6,12.66-7.68,12.82-7.4.41.71-11.26,6.4-10.88,7.05.13.22,11.35-7.29,11.67-6.74,1.1,1.91-12.42,7.47-12.33,7.63,1.16,2.01,12.1-9.12,13.03-7.52.52.9-11.6,7.01-11.58,7.05.41.72,10.81-7.8,11.49-6.63.91,1.57-11.28,6.83-11.06,7.2,1.37,2.37,12.35-7.56,12.54-7.24.46.81-11.45,4.82-10.49,6.48.91,1.57,10.4-7.58,11.08-6.4.38.65-9.77,5.86-9.38,6.52,0,0,9.73-8.73,11.08-6.4,1.13,1.95-11.17,6.43-10.86,6.96.63,1.09,12.06-8.12,12.56-7.25.17.3-12.37,7.16-12,7.8,1.22,2.12,10.69-9.03,11.93-6.89,0,0-10.69,6.1-10.35,6.69.5.87,11.53-7.83,12.04-6.95s-13.74,4.66-12.31,7.13c1.13,1.96,11.68-7.7,12.09-6.98.8,1.39-12.01,5.04-11.12,6.58s12.04-8.26,12.61-7.28c.9,1.56-14,6.33-13.13,7.83.62,1.07,12.27-10.13,13.59-7.85s-12.61,6.36-12.16,7.13c1.15,1.99,10.34-8.65,11.5-6.64.98,1.69-12.08,4.79-10.87,6.89,1.3,2.24,12.18-8.18,12.68-7.32.98,1.7-13.05,7.33-12.86,7.66.47.82,11.5-7.65,11.93-6.89.86,1.48-12.95,5.66-12.03,7.24,1.23,2.12,12.36-8.06,12.76-7.37.57.98-11.77,5.34-11.11,6.5.92,1.59,10.36-9.25,11.77-6.8.72,1.25-11.16,6.6-10.74,7.32.69,1.2,12.21-8.36,12.78-7.38.98,1.7-12.72,5.73-11.57,7.72,1.46,2.53,11.65-9.73,12.95-7.48,1.13,1.96-13.52,4.77-12.16,7.13s11.51-9.42,12.72-7.34c1.35,2.33-13.23,6.67-12.42,8.07,1.48,2.56,11.87-10.23,13.33-7.7,1.17,2.02-12.95,5.52-11.66,7.75.85,1.47,11.14-9.77,12.59-7.27.39.68-12.75,6.26-12.14,7.32.77,1.34,13.05-8.97,13.67-7.89.97,1.68-12.27,6.84-11.71,7.81,1.15,1.98,13.18-9.18,13.86-8,.36.62-12.07,6.49-11.48,7.51.14.25,11.48-7.46,11.84-6.84.67,1.16-12.17,4.93-11.05,6.87.77,1.33,12.01-9.16,12.98-7.49.83,1.44-14.24,5.58-13.09,7.57.55.96,12.7-7.63,12.83-7.41,1.29,2.24-12.23,7.89-12.23,7.89.6,1.03,13.37-8.4,13.66-7.89.34.58-13.65,5.06-12.21,7.56s12.68-8.27,13.09-7.56c.86,1.49-14.73,5.38-13.3,7.86.33.58,11.29-9.04,12.39-7.15.79,1.38-11.22,6.51-10.82,7.21,1.18,2.05,11.89-9.19,12.89-7.44,1.34,2.32-13.49,6.64-12.97,7.54.48.84,12.07-9.99,13.38-7.73,1.42,2.45-13.22,6.61-12.64,7.62.66,1.15,12.8-8.38,13.23-7.64.14.25-12.34,7.45-12.16,7.76.77,1.34,11.77-9.11,12.77-7.37.07.13-13.53,5.61-12.33,7.68.29.5,13.13-10.41,14.35-8.29,1.11,1.92-13.08,6.61-12.23,8.07.74,1.27,12.65-8.37,13.11-7.57.16.28-13.29,5.45-11.98,7.73.95,1.64,13.43-10.13,14.46-8.35.11.18-15.2,5.94-13.94,8.13,1.1,1.91,12.27-10.35,13.68-7.9.76,1.32-13.39,8-13.39,8,.97,1.68,12.15-10.14,13.51-7.8,1.49,2.58-13.84,5.73-12.48,8.08.33.57,14.32-8.71,14.51-8.38.73,1.26-14.73,7.56-14.19,8.49.92,1.6,13.79-9.58,14.49-8.37,1.31,2.28-14.65,5.95-13.3,8.28.57.98,12.9-11.35,14.59-8.42.18.31-14.51,6.25-13.47,8.06.85,1.47,12.47-10.9,14.07-8.12,1.32,2.29-14.63,8.27-14.35,8.75.57.99,14.58-10.23,15.37-8.87.89,1.53-13.09,6.79-12.28,8.2.04.06,13.24-8.42,13.58-7.84.17.29-14.19,8.14-14.13,8.24.42.72,13.75-11.84,15.44-8.91.11.19-15.25,8.52-14.84,9.24.05.1,15.75-10.06,16.17-9.34.13.23-14.21,7.02-13.29,8.61.37.64,13.72-8.38,13.92-8.04.83,1.44-14.36,6.54-13.3,8.37.91,1.58,16.14-9.66,16.29-9.4,1.08,1.87-16.52,7.92-15.64,9.44,1.56,2.71,15.76-9.41,15.89-9.17,1.59,2.75-13.11,8.7-13.11,8.7.12.2,14.85-9.93,15.44-8.91,1.36,2.36-17.16,7.09-15.83,9.4.37.65,15.96-11.15,16.8-9.7.67,1.17-15.95,6.53-14.5,9.05.15.26,14.49-10.03,15.21-8.78.37.65-14.26,7.54-13.56,8.75.22.39,14.71-11.21,15.88-9.17.64,1.12-15.29,8.53-14.99,9.06.1.17,14.22-10.92,15.39-8.89,1.04,1.8-15.99,7.64-14.89,9.54,1.49,2.58,17.36-11.04,17.8-10.28.39.67-16.53,7.06-15.21,9.35,1.92,3.33,14.42-12.54,16.25-9.38,1.19,2.05-17.08,8.39-16.42,9.55,1.38,2.39,14.1-11.91,15.73-9.08,0,0-17.71,7.17-16.3,9.6.62,1.08,15.27-12.72,16.96-9.79,1.18,2.05-16.7,7.3-15.34,9.67,1.81,3.14,16.57-11.55,17.43-10.06.45.78-15.24,8.18-14.6,9.29,1.73,3,17.68-10.55,17.83-10.29.21.36-17.96,7.27-16.13,10.43,2.17,3.76,18.01-10.74,18.16-10.49.23.4-18.04,7.93-16.67,10.31,2.04,3.53,18.31-11.75,18.82-10.87,1.51,2.61-16.65,9.65-16.25,10.34,1.66,2.88,19.1-11.13,19.14-11.05,1.85,3.21-20.47,9.66-19.37,11.56,1.51,2.61,18.97-11.82,19.34-11.17,0,0-18.25,10.39-17.87,11.04,1.75,3.02,20.25-12.5,20.6-11.89,2.05,3.55-19.07,10.49-18.51,11.46.22.38,19.05-14.4,20.53-11.85,1.25,2.16-21.58,8.46-19.6,11.89,2.19,3.8,18.81-16.09,21.08-12.17,1.15,1.98-21.46,7.81-19.28,11.59,2.48,4.29,20.3-14.32,21.42-12.37,1.37,2.38-20.18,12.24-20.13,12.31.16.28,20-17.04,22.38-12.92.7,1.21-25.16,8.88-22.64,13.25,1.15,1.99,19.72-16.63,21.99-12.7,1.73,3-23.67,9.17-21.59,12.78,2.33,4.04,22.52-17.02,24.26-14.01.02.04-23.14,10.1-21.5,12.94,2.37,4.1,20.07-17,22.42-12.94.47.82-24.5,9.92-22.58,13.24,2.46,4.26,20.7-16.66,22.74-13.13.41.7-21.86,10.45-20.67,12.52,1.33,2.3,22.52-15.3,23.51-13.58,0,0-24.91,10.29-22.84,13.88,2.85,4.93,23.22-17.6,25.03-14.45,2.58,4.47-22.57,12.65-21.93,13.75.79,1.37,24.63-21.45,27.76-16.03,1.57,2.71-29.35,11.9-26.86,16.21,2.1,3.64,30.14-19.26,30.95-17.87,1.81,3.14-29.93,14.41-28.32,17.2.67,1.17,30.43-22.37,32.51-18.77s-31.28,17.42-30.85,18.15c1.14,1.98,29.67-26.35,33.66-19.44,3.17,5.49-30.6,17.63-30.13,18.44,6.5,11.27,105.44-84.14,115.51-66.69,5.73,9.93-117.77,65.16-116.47,67.41.76,1.32,115.76-67.34,115.98-66.96,0,0-126.8,44.84-114.38,66.35,1.97,3.4,112.18-67.84,113.51-65.54,9.29,16.09-115.66,55.78-110.43,64.83,10.09,17.47,103.98-63,105.27-60.78,5.22,9.04-102.79,57.42-101.55,59.57,5.94,10.28,86.72-72.8,96.56-55.75,7.55,13.08-98.79,45.34-93.31,54.83,6.18,10.7,85.15-54.09,87.29-50.39,5.86,10.15-90.45,38.82-84.22,49.61,3.85,6.67,76.21-49.29,78.5-45.32,1.86,3.22-77.64,41.4-75.92,44.38,5.33,9.23,64.89-55.57,72.73-41.99,4.57,7.91-69.27,40.81-69.2,40.93,1.61,2.79,62.12-38.51,63.26-36.52,6.97,12.07-65.07,32.49-62.86,36.32,6.32,10.95,56.05-45.07,61.55-35.54,3.83,6.64-59.38,31.06-57.71,33.95.58,1.01,51.28-34.72,53.49-30.89,4.3,7.44-57.82,21.78-52.7,30.65,2.83,4.9,49.22-34.99,52.07-30.06,1.97,3.41-45.81,27.27-45.68,27.49,3.28,5.69,35.52-20.6,35.56-20.53,1.98,3.44-34.16,14.01-31.5,18.62,0,0,27.77-16.1,27.8-16.05,1.34,2.33-25.58,13.79-25.06,14.69,2.81,4.86,22.55-16.54,24.07-13.9l56.59-41.86c-2.35-4.07-58.01,41.75-61.58,35.56-5.16-8.93,63.36-34.35,62.34-36.11-2.27-3.94-59.35,39.03-61.41,35.46-2.48-4.29,66.11-35.41,64.55-38.12-5-8.66-55.19,34.06-56.14,32.41-1.89-3.28,62.43-25.09,57.54-33.56-3.25-5.63-53.01,36.38-55.52,32.05,0,0,59.69-29.66,57.39-33.63-1-1.73-49.12,36.73-52.74,30.45-2.95-5.11,59.36-30.78,57.35-34.26-5.58-9.66-47.57,33.85-50.33,29.06-3.96-6.85,54.7-26.98,52.55-30.7-5.12-8.86-49.38,29.9-49.98,28.86-2.32-4.02,57.73-25.03,53.63-32.12-2.82-4.88-45.07,27.64-45.77,26.43-4.57-7.91,49.93-22.39,47.06-27.35-2.34-4.05-41.59,33.8-45.83,26.46-3.31-5.74,48.2-28.15,48.02-28.47-5.01-8.68-41.7,30.42-44.44,25.66-4.68-8.1,51.98-23.97,48.95-29.21-4.82-8.35-43.55,26.16-43.99,25.4-.17-.3,45.28-23.56,44.11-25.58-.34-.6-41.34,28.55-43.37,25.04-4.42-7.66,47.82-28.3,47.62-28.64-4.74-8.21-39.68,26.62-41.29,23.84-.95-1.64,42.14-23.23,41.55-24.24-1.86-3.22-39.55,27.54-41.59,24.01-.56-.97,46.69-17.25,42.3-24.85-1.17-2.03-38.92,24.63-39.85,23.01-3.88-6.72,44.59-24.39,43.58-26.13-3.74-6.48-35.04,29.6-39.1,22.57-3.22-5.57,41.87-19.53,39.81-23.09-.42-.73-35.93,27.81-38.99,22.51-2.64-4.57,39.4-21.88,38.92-22.7-1.78-3.08-34.73,27.59-37.99,21.93-.97-1.69,41.78-24.6,41.6-24.91-.68-1.18-37.31,23.66-38.23,22.07-3.19-5.53,40.86-16.06,37.59-21.72-1.49-2.58-36.67,22.47-37.23,21.49-1.27-2.2,39.95-20.9,38.98-22.59-.16-.28-37.27,22.29-37.6,21.71-3.17-5.5,42.86-15.43,38.54-22.9-.64-1.11-32.24,28.66-36.59,21.13-.25-.43,42.28-17.52,39.04-23.13-2.35-4.08-33.16,27.98-36.99,21.35-3.13-5.41,40.76-19.58,38.81-22.96-1.13-1.96-35.4,21.24-35.75,20.64-.8-1.38,39.84-19.46,37.89-22.83-2.81-4.86-32.41,23.79-34.61,19.98-1.52-2.63,38.2-14.54,34.86-20.33-2.79-4.83-31.6,23.42-33.84,19.54-4.05-7.01,38.98-17.19,36.28-21.86-3.24-5.62-33.23,20.47-33.79,19.51,0,0,39.01-13.68,35.03-20.59-2.14-3.71-30.72,24.95-33.85,19.54,0,0,37.82-14.7,34.71-20.07-2.38-4.13-31.87,23.04-33.88,19.56-3.84-6.66,38.94-13.25,34.84-20.35-1.22-2.12-31.15,24.69-34.05,19.66-.69-1.19,40.92-15.03,36.76-22.24-2.52-4.36-30.49,23.16-32.89,18.99-1.15-1.99,37.69-17.98,35.62-21.57-1.96-3.39-32.27,20.05-32.89,18.99-.01-.02,34.36-19.67,34.12-20.09-2.49-4.32-30.69,23.1-33.02,19.06-3-5.19,34.03-17.41,32.94-19.3-.81-1.41-30.57,20.12-31.64,18.27-2.58-4.47,36.98-16.37,34.55-20.59-3.25-5.62-31.74,19.14-32.1,18.53-1.84-3.19,35.91-13.65,32.58-19.42-1.64-2.84-27.41,24.24-31.06,17.93-1.61-2.78,39.01-14.55,35.09-21.34-2.09-3.63-31.51,19.36-32.02,18.49-.31-.54,34.3-12.23,30.94-18.04-3.1-5.38-28.41,20.66-30.25,17.47-2.94-5.09,34.33-16.41,32.53-19.53-1.01-1.74-28.28,22-30.74,17.75-1.16-2,33.82-17.26,32.52-19.51-.55-.96-27.56,21.54-29.99,17.32-3.44-5.95,32.78-14.53,30.83-17.91-3.5-6.07-27.12,22.86-30.24,17.46,0,0,31.92-15.09,30.39-17.74s-29.29,18.32-29.91,17.27c-2.99-5.18,34.5-15.01,32.02-19.31-.46-.79-25.26,22.21-28.57,16.49-.4-.69,29.66-16.06,29.04-17.12-2.82-4.88-28.57,17.16-28.86,16.66-2.45-4.24,34.75-12.55,31.29-18.54-1.67-2.88-27.23,19.91-29.04,16.77-3.31-5.74,31.65-14.24,29.61-17.77-2.76-4.79-26.94,18.01-28,16.17-1.67-2.9,34.54-13.1,31.18-18.92-.32-.55-26.05,22.33-29.21,16.86-.28-.48,33.5-13.99,30.88-18.52-1.86-3.23-26.25,19.82-28.27,16.32-.51-.88,33.74-13.54,30.78-18.65-.43-.75-28.68,18.49-29.52,17.04-.37-.64,31.88-13.74,29.7-17.52-1.35-2.34-25.74,20.04-27.98,16.16-1.66-2.87,32.38-11.04,29-16.9-.43-.75-26.14,19.42-28.02,16.18-2.28-3.95,32.14-11.86,28.89-17.48-.21-.36-25.97,17.08-26.87,15.51-2.6-4.5,29.74-12.01,27.41-16.03-2.9-5.02-25.93,18.61-27.5,15.88-3.05-5.29,33.02-12.39,29.8-17.96-2.5-4.33-25.12,21.42-28.12,16.23-.8-1.39,34-12.8,30.57-18.74-1.62-2.81-24.82,20.92-27.67,15.98-1.21-2.1,33.14-12.18,29.76-18.04-2.07-3.58-25.41,16.79-26.33,15.2-.33-.57,29.93-16.72,29.27-17.87-.56-.96-26.11,17.14-27,15.59-.1-.17,29.57-14.08,27.95-16.9-.82-1.43-24.67,18.18-26.37,15.23-2.34-4.06,29.17-11.07,26.61-15.51-2.95-5.11-23.38,19.67-26.05,15.04s30.64-14.03,28.67-17.44-25.3,17.72-26.64,15.38c-.07-.11,28.79-14.98,27.77-16.76-2.54-4.39-26.66,15.39-26.66,15.39-.35-.6,28.58-13.83,27.18-16.26-2.42-4.18-24.6,17.07-25.84,14.92-2.84-4.93,29.52-17.35,29.2-17.92-1.36-2.36-24.78,16.4-25.69,14.83-2.85-4.93,29.81-11.9,27.24-16.36-1.25-2.16-24.28,17.23-25.67,14.82-1.87-3.24,27.65-13.14,26.39-15.32-1.75-3.03-27.25,15.91-27.33,15.78-2.34-4.05,31.24-15.02,29.45-18.12s-24.05,20.29-26.82,15.48c0,0,28.45-14.53,27.38-16.37-2.55-4.41-22.6,18.06-24.77,14.3-.99-1.71,28.57-14.82,27.52-16.64-.86-1.49-25.88,15.07-25.93,14.97-2.02-3.5,26.42-12.56,25.12-14.82-.4-.69-23.62,16.6-24.9,14.38-2.55-4.42,30.64-11.01,27.37-16.68-1.73-2.99-23.51,18.38-25.59,14.78-1.43-2.47,29.43-10.64,26.53-15.66-.26-.45-24.87,14.61-24.98,14.42-.18-.31,26.44-16.04,26.44-16.04-1.68-2.91-22.62,19.06-25.22,14.56-.92-1.59,29.04-12.22,26.67-16.32-2.78-4.81-23.12,16.73-24.59,14.19-2.13-3.69,27.37-13.31,26.01-15.66-1.61-2.78-23.75,14.06-23.9,13.8-.66-1.14,25.57-15.26,25.57-15.26-.13-.23-22.88,18.83-25.32,14.62-.56-.96,27.71-15.86,27.22-16.72-.69-1.2-22.13,18.78-24.73,14.28-.93-1.61,29.39-14.32,27.78-17.11-2.2-3.8-22.64,19.15-25.27,14.59-1.49-2.57,29.73-10.76,26.72-15.98-.71-1.24-23.11,18.46-25.33,14.62-.49-.86,26.4-14.48,25.72-15.65-1.1-1.9-24.01,16.14-24.99,14.43-1.3-2.25,28-10.53,25.53-14.81-1.91-3.31-24.3,14.1-24.33,14.05-1.91-3.3,28.64-10.77,26.03-15.28-1.93-3.34-24.32,15.89-25.12,14.5-1.3-2.25,26.16-10.85,24.18-14.28-2.78-4.82-23.59,15.55-24.42,14.1-.38-.66,26.03-14.51,25.6-15.26-.38-.65-23.49,16.35-24.7,14.26-.92-1.59,27.44-10.75,25.14-14.73-.96-1.66-22.67,17.41-24.54,14.17-.86-1.49,30.33-11.43,27.22-16.81-1.47-2.54-23.47,15.63-24.37,14.07-.6-1.03,27.47-12.21,25.75-15.19-.68-1.18-22.61,18.74-25.07,14.48-.58-1.01,26.2-13.77,25.55-14.89-.95-1.65-23.27,16.02-24.39,14.08-2.41-4.17,25.86-12.86,24.8-14.71-1.58-2.74-22.93,18.21-25.08,14.48,0,0,29.19-11.53,26.68-15.86-1.35-2.34-23.07,18.58-25.35,14.64-1.96-3.4,29.37-14.24,27.71-17.12-.57-.99-24.67,17-25.86,14.93-.08-.15,26.91-15.47,26.49-16.21-.78-1.34-21.83,17.63-24,13.86-1.07-1.85,26.66-13.88,25.69-15.56-2.14-3.71-23.74,16.2-24.82,14.33-2.46-4.27,25.32-14.01,24.94-14.66-.94-1.62-21.95,17.54-24.06,13.89-2.9-5.03,27.04-15.44,26.48-16.41-2.12-3.67-22.94,16.88-24.52,14.16-3.33-5.77,29.77-14.02,27.9-17.25-1.22-2.11-22.59,15.8-23.78,13.73-1.86-3.21,28.4-10.75,25.62-15.57-.83-1.44-23.96,16.79-25.24,14.57-1.68-2.91,27.21-12.46,25.65-15.16-2.05-3.55-22.79,17.07-24.48,14.13-1.44-2.5,24.91-14.23,24.72-14.57-.87-1.51-23.28,15.56-24.2,13.97-2.79-4.83,28.27-11.91,26.16-15.57-1.57-2.73-22.21,17.42-24.2,13.97-.83-1.43,25.23-13.27,24.6-14.35,0,0-22.7,18.75-25.14,14.52-.76-1.31,26.47-12.66,25.3-14.68-2.61-4.53-23.21,19.06-25.66,14.81-2.86-4.95,27.65-15.34,27.1-16.29-1.12-1.94-23.24,18.27-25.34,14.63-1.24-2.15,25.64-15.07,25.64-15.07-2.01-3.48-24.51,14.41-24.62,14.21-2.68-4.64,29.27-11.43,26.41-16.39-1.02-1.77-23.45,17.31-25.09,14.48-.02-.04,27.93-12.07,25.87-15.65-1.81-3.14-22.36,15.51-23.49,13.56-2.43-4.21,27.31-12.79,25.69-15.6-.66-1.15-23.87,16.07-24.86,14.35-2.6-4.51,30.34-13.68,28.18-17.41,0,0-22.27,18.57-24.74,14.28-2.81-4.86,25.9-11.25,24.16-14.27-1.27-2.21-22.1,17.36-24.09,13.91-2.34-4.06,29.45-14.13,27.71-17.13-1.06-1.84-23.8,14.91-24.31,14.03-.46-.8,27.03-10.15,24.38-14.74-1.6-2.76-22.03,14.72-22.9,13.22-1.54-2.67,25.42-12.08,24.27-14.07-2.23-3.87-24.47,14.51-24.64,14.22s25.54-14.98,25.38-15.24c-.58-1-22.95,17.24-24.67,14.25-.67-1.15,27.82-11.23,25.5-15.24-1.44-2.5-23.39,14.81-23.96,13.83-1.64-2.84,26.96-11.07,24.9-14.64-2.43-4.2-23.51,16.89-24.95,14.4-2.24-3.87,25.82-13.83,25.1-15.08-1.92-3.33-23.37,13.67-23.45,13.54-1.35-2.34,28.58-11.51,26.06-15.87,0,0-21.89,16.56-23.59,13.62-.42-.72,27.25-11.27,25.12-14.97-2.76-4.78-22.74,16.11-24.03,13.87-2.38-4.13,26.69-13.32,25.37-15.6-1.99-3.44-21.64,19.03-24.47,14.13-1.86-3.22,26.78-15.85,26.58-16.2-2.28-3.96-23.72,17.33-25.29,14.6-.66-1.15,26.67-14.52,25.94-15.77-.87-1.5-23.57,14.74-24.06,13.89-2.69-4.66,30.42-12.57,27.8-17.1-1.8-3.12-21.67,18.79-24.39,14.08-1.55-2.69,27.3-10.08,24.65-14.66,0,0-23.44,17.47-25.14,14.52-.34-.59,28.6-12.22,26.59-15.7-.8-1.39-24.76,14.49-24.85,14.34-.64-1.12,27.44-12.15,25.51-15.5-.92-1.6-23.41,14.66-23.91,13.8-2.81-4.86,26.8-10.24,24.48-14.25-.83-1.44-23.61,15.85-24.57,14.18-2.28-3.95,27.09-14.25,26.24-15.72s-22.85,18.07-24.96,14.41c-1.1-1.91,26.45-12.3,25.01-14.8-.41-.7-22.75,15.57-23.8,13.74-.75-1.3,25.09-14.54,24.82-15.02-1.34-2.32-21.14,18.71-23.95,13.83-.96-1.66,26.05-14.91,25.68-15.56-.45-.78-22.76,15.83-23.92,13.81-.23-.4,26.03-11.99,24.62-14.45-.59-1.03-22.77,14.64-23.42,13.52,0,0,25.88-10.5,23.86-14-.35-.6-21.07,17.97-23.59,13.62-1.13-1.95,24.6-10.46,22.98-13.28-1.07-1.85-20.83,18.13-23.48,13.55-1.96-3.39,28.65-10.88,25.87-15.69-2.46-4.26-23.15,18-25.16,14.53-.08-.14,28.8-11.16,26.14-15.78-.55-.95-23.1,15.45-24.02,13.87-.41-.71,28.22-14.48,26.98-16.62-.54-.93-24.03,14.56-24.32,14.04-2.2-3.81,27.16-10.79,24.76-14.96-1.67-2.89-21.55,15.33-22.8,13.16-2.38-4.12,26.85-9.18,24.08-13.98s-22.28,17.53-24.3,14.03c-.51-.88,25.13-12.41,24.12-14.15-1.68-2.91-22.12,17.5-24.17,13.95-1.03-1.79,26.41-12.3,24.95-14.83-1.61-2.79-23.24,15.27-24.04,13.88-2.21-3.82,28.52-10.44,25.61-15.49-.9-1.56-21.46,17.36-23.61,13.63-.06-.1,27.18-13.7,25.95-15.83,0,0-24.42,14.42-24.56,14.18-1.88-3.25,29.1-11.33,26.29-16.19-.35-.6-22,16.49-23.64,13.65-1.94-3.36,25.77-13.3,24.94-14.74-2.08-3.6-23.37,15.52-24.25,14-.71-1.23,26.66-12.5,25.24-14.94-2.09-3.62-23.98,17.27-25.46,14.7-2.27-3.94,28.81-11.23,26.15-15.84-.04-.06-21.8,18.41-24.32,14.04-.27-.46,25.77-13.54,25.08-14.73-.15-.26-22.22,17.59-24.28,14.02-.66-1.14,27.95-11.01,25.61-15.07-1.32-2.28-22.26,18.34-24.64,14.23-.71-1.22,26.6-11.6,24.88-14.57-2.4-4.16-23.28,18.59-25.51,14.73-2.97-5.14,26.88-12.91,25.64-15.06-.56-.98-21.94,16.75-23.71,13.69-2.26-3.91,25.42-10.04,23.4-13.54-2.31-3.99-21.86,16.02-23.34,13.47-2.39-4.14,25.79-12.81,24.88-14.38-1-1.74-25.84,15.38-26.04,15.03-2.14-3.71,26.99-12.01,25.28-14.97-1.83-3.17-23.42,14.22-23.72,13.7,0,0,27.68-9.98,25.07-14.51-.66-1.14-25.65,15.08-25.77,14.88-.32-.55,30.92-11.62,27.74-17.13-.67-1.16-21.7,19.12-24.56,14.18-1.85-3.21,25.91-14.34,25.59-14.9-1.8-3.11-25.93,14.97-25.93,14.97-1.02-1.76,28.24-10.24,25.48-15.03-2.12-3.68-21.84,16.91-23.7,13.69-.28-.49,25.56-12.08,24.27-14.31-2.37-4.11-23.77,16.41-24.93,14.39-.75-1.29,26.58-12.26,25.13-14.79-.53-.92-22.57,16.41-24.04,13.88-1.57-2.72,27.22-13.22,25.87-15.55-2.57-4.45-23.51,14.53-23.92,13.81-1.63-2.82,23.79-13.67,23.4-14.35-1.52-2.63-21.36,15.73-22.83,13.18-2.61-4.52,23.13-13.82,22.89-14.24-1.22-2.12-19.57,11.3-19.57,11.3,0,0,21.01-10.6,19.96-12.4-.71-1.23-17.49,13.91-19.14,11.05-1.07-1.86,19.24-10.03,18.45-11.41-1.8-3.11-16.15,9.96-16.43,9.48s17.34-8.94,16.4-10.57c-.11-.2-12.16,10.54-13.68,7.9-.57-.99,14.65-6.31,13.66-8.03-1.48-2.57-13.42,8.06-13.56,7.83-.16-.28,12.67-7.48,12.6-7.6-.74-1.28-12.63,7.76-12.83,7.41,0,0,13.16-7.64,13.06-7.82-.69-1.19-13.81,8.91-14.22,8.21-1.54-2.67,15.89-5.84,14.21-8.77-.96-1.66-13.56,11-14.93,8.62-.02-.03,14.21-7.83,13.61-8.87-.29-.51-14.05,11.7-15.6,9.01-.82-1.42,15.16-6.36,13.79-8.73s-15.33,9.91-15.79,9.12c-.54-.93,15.59-8.22,14.99-9.25-.84-1.46-15.51,10.73-16.28,9.4-.22-.37,16.07-7.56,15.05-9.32-1.11-1.92-15.58,10.77-16.35,9.44-1.01-1.75,16.94-9.49,16.79-9.76-.4-.7-14.3,12.51-16.14,9.32-.87-1.52,13.75-8.82,13.75-8.82-1.85-3.21-15.39,9.03-15.45,8.92-.78-1.35,14.44-8.42,14.31-8.66-.61-1.05-14.05,11.84-15.67,9.04-.3-.53,14.15-7.32,13.3-8.78-1.85-3.21-14.08,10.95-15.3,8.83-.8-1.38,16.46-7.75,15.56-9.31,0-.01-14.57,10.16-15.33,8.85-.86-1.49,14.8-8.18,14.59-8.56-1.25-2.16-13.82,11.34-15.28,8.82s13.84-8.34,13.76-8.47c-.83-1.44-14.8,9.29-15.13,8.73-.69-1.19,13.87-6.9,12.9-8.58-.66-1.14-13.28,11.91-15.12,8.73-.55-.96,13.57-8.7,13.53-8.78-.37-.65-14.33,9.66-14.93,8.62-1.31-2.26,14.44-7.98,13.82-9.06-1.53-2.65-15.75,11.6-16.83,9.72-.24-.42,14.43-8.59,14.26-8.89-.37-.64-14.88,9.86-15.43,8.91-.64-1.11,16.26-6.94,14.77-9.52-.97-1.68-14.89,11.81-16.28,9.4s16.51-6.65,14.95-9.34c-.62-1.08-14.97,11.92-16.39,9.46-.46-.79,14.03-8.43,13.8-8.82-1.18-2.05-13.53,11.76-15.24,8.8-.8-1.38,13.81-7.67,13.37-8.43-.24-.41-14.19,12.41-16.02,9.25-.27-.47,17.1-8.05,16.1-9.78-.13-.23-14.37,11.56-15.79,9.11-.07-.12,15.13-5.9,13.68-8.4-1.76-3.05-15.16,10.04-15.72,9.07-.67-1.16,14.54-8.07,14.03-8.96-1.33-2.3-14.2,9.82-14.9,8.6-1.25-2.17,14.11-7.96,13.63-8.8-1.25-2.17-15.98,10.79-16.65,9.61-.48-.84,15.59-8.67,15.15-9.43-1.11-1.92-14.26,10.21-15.12,8.73-.04-.06,15.15-7.51,14.56-8.54-1.47-2.55-15.21,9.57-15.55,8.98-.79-1.36,15-6.24,13.59-8.69s-13.47,10-14.44,8.33c-3.17-5.49,37.44-18.38,35.74-21.33-2.13-3.68-36.06,26.72-38.62,22.3-1.85-3.21,43.27-16.12,39.33-22.95-2.8-4.85-35.02,29.73-39.14,22.6-.5-.87,41.5-15.37,37.66-22.03-.63-1.09-38.49,22.55-38.63,22.3-.78-1.35,39.7-17.08,37-21.76-1.21-2.1-34.27,28.14-37.89,21.87-.69-1.2,37.79-18.36,35.98-21.49-4.18-7.24-35.67,21.43-36.03,20.8-1.46-2.53,33.44-19.45,33.05-20.12-.02-.03-33.02,26.22-36.12,20.86-2.22-3.85,39.71-15.94,36.66-21.23-.33-.58-33.17,25.52-35.93,20.74,0,0,34.12-20.26,34.12-20.26-3.69-6.39-34.19,25.51-36.69,21.18-1.06-1.83,37.84-14.9,34.67-20.39-2.88-4.98-31.4,24.36-34.1,19.69-1.44-2.5,36.18-13.8,32.93-19.42-3.54-6.14-33.75,22.59-35.1,20.26-1.83-3.17,34.46-19.25,33.92-20.18-2.34-4.05-33.22,21.28-34.13,19.7-3.59-6.22,31.16-18.04,30.72-18.8-2.75-4.76-31.71,20.53-32.67,18.86-2.8-4.85,32.7-16.34,31.31-18.75-1.88-3.25-33.33,19.9-33.62,19.41-.36-.62,30.04-17.32,29.53-18.2-.54-.93-28.11,21.74-30.5,17.61-.95-1.64,28.83-16.57,28.31-17.46-2.78-4.82-30.55,20.65-31.86,18.39-3.11-5.38,31.15-15.34,29.68-17.87-2.84-4.92-31.24,18.25-31.33,18.09-.83-1.43,30.09-15.91,29.01-17.78-2.9-5.03-28.17,22.17-30.73,17.74-.55-.95,30.7-15.05,29.43-17.24-.08-.14-28.97,18.88-29.91,17.27,0,0,28.81-15.82,28.25-16.79-3.15-5.45-28.18,16.27-28.18,16.27-1.03-1.78,26.32-16.24,26.28-16.31-2.18-3.77-27.32,18.14-28.34,16.36-2.36-4.09,29.63-10.43,26.47-15.91-.89-1.54-27.45,16.7-27.82,16.06-.79-1.36,31.42-10.84,28.25-16.34-1.19-2.05-26.24,22.77-29.55,17.06-2.12-3.68,28.09-12.78,26.23-15.99-1.46-2.53-27.27,15.75-27.27,15.75-2.24-3.88,26.37-14.35,25.75-15.42-3.17-5.48-26.81,17.16-27.54,15.9-.26-.45,28.95-12.19,26.86-15.81-3.12-5.41-25.44,17.68-26.74,15.44-1.63-2.82,27.16-10.79,24.71-15.04-1.33-2.3-23.57,19.16-25.97,15-2.05-3.55,27.14-12.87,25.89-15.05-2.26-3.91-24.76,16.27-25.62,14.79-.7-1.21,26.08-9.88,23.39-14.53-2.31-3.99-23.99,19.99-26.65,15.39-.88-1.53,25.79-13.79,24.93-15.28-.48-.82-25.6,16-26.13,15.08,0-.01,24.43-14.53,24.22-14.89-2.61-4.53-24.92,18.99-26.92,15.54-2.4-4.15,26.4-9.89,23.81-14.39-1.39-2.41-23.12,14.49-23.62,13.64-1.4-2.43,25.26-9.88,22.85-14.06-2-3.46-23.08,17.12-24.73,14.28-1.48-2.57,22.98-11.47,21.8-13.5-1.59-2.76-24.3,15.25-24.83,14.33-1.59-2.75,24.74-10.81,22.93-13.95-.9-1.55-21.26,18.41-23.92,13.81-1.93-3.34,24.72-11.75,23.36-14.11-.97-1.68-23.27,15.62-24.22,13.98-1.31-2.27,20.39-12.74,20.37-12.78-.8-1.39-20.09,17.55-22.67,13.09-1.8-3.12,20.65-12.38,20.4-12.81-.04-.06-19.98,16.76-22.24,12.84-.59-1.03,23.89-11.53,22.87-13.28-2.67-4.62-20.67,18.12-23.35,13.48-2.06-3.57,23.81-9.25,21.48-13.29-2.52-4.37-23.17,14.81-23.79,13.74-2.06-3.57,21.96-12.3,21.36-13.33-1.04-1.8-21.05,16.96-23.13,13.36-.53-.92,20.23-11.23,19.69-12.17-1.2-2.08-20.13,14.5-21.38,12.34-.17-.3,20.09-12.4,19.99-12.57-1.34-2.33-20.91,13.99-21.74,12.55-.68-1.17,22.39-9.32,20.6-12.42-1.47-2.54-21.26,12.28-21.26,12.28-.29-.5,21.77-8.55,19.81-11.94-1.15-1.99-19.23,14.8-20.83,12.03-.3-.52,19.03-11.82,18.97-11.92-1.83-3.17-20.9,12.07-20.9,12.07-.36-.63,22.66-8.68,20.7-12.07-1.81-3.13-19.1,15.41-21,12.12-1.73-3,18.77-9.38,17.84-10.99-2.3-3.98-17.35,13.13-18.7,10.8-.09-.15,18.97-9.71,18.26-10.95-1.51-2.61-19.02,12.69-19.76,11.41-.79-1.37,20.63-9.22,19.3-11.53-2.2-3.81-20.64,12.16-20.74,11.97-.13-.22,20.7-10.91,20.01-12.11-.26-.45-17.81,15.32-19.99,11.54-1.61-2.79,17.74-11.16,17.74-11.16-.3-.52-17.93,15.14-20,11.55-.78-1.35,16.34-10.29,16.24-10.46-1.63-2.83-17.14,13.94-18.89,10.91-1.2-2.07,20.09-8.08,18.31-11.17-.36-.63-19.61,11.48-19.68,11.36-.86-1.49,19.46-10.22,18.72-11.5-1.87-3.24-17.77,12.49-18.74,10.82-.22-.38,16.13-9.94,16.05-10.08-1.11-1.93-16.43,10.03-16.66,9.62-1.49-2.59,14.59-9.14,14.49-9.32-.19-.33-15.31,9.92-15.78,9.11-.1-.18,14.95-6.72,13.93-8.49-.67-1.15-12.56,10.89-14.13,8.16-1.49-2.58,13.77-7.77,13.6-8.06-1.03-1.79-14.77,8.81-14.89,8.6-1.55-2.69,14.3-8.65,14.28-8.69-.22-.38-13.88,9.54-14.54,8.4-.24-.41,13.66-7.76,13.15-8.63-1.14-1.97-13.14,8.75-13.64,7.88-.31-.54,11.94-7.44,11.94-7.44-1.13-1.96-10.47,7.22-10.98,6.34-.55-.96,11.19-4.23,10.21-5.93-.05-.09-10.38,8.62-11.52,6.65-.17-.29,10.52-4.5,9.49-6.28-.63-1.1-8.32,6.04-8.86,5.11-.86-1.5,9.82-3.89,8.89-5.5-.39-.67-9.24,6.42-9.71,5.61-.07-.12,8.59-3.9,7.65-5.53-.12-.2-6.44,4.12-6.61,3.82-.24-.41,3.81-2.02,3.42-2.69-.19-.33-3.97,2.76-4.17,2.41-.49-.84,4.35-2.77,4.35-2.77-.17-.3-3.18,2.45-3.44,1.99l91.58-8.44c1.43,2.47,24.25-15.68,24.97-14.42,1.74,3.02-24.46,9.78-22.36,13.42.29.5,21.16-18.34,23.81-13.75s-23.65,12.51-22.81,13.96c.22.38,22.65-16.12,23.97-13.84.54.94-25.33,10.42-23.43,13.72,2.32,4.02,22.21-19.14,24.94-14.4s-26.25,10.41-24.19,13.98c1.57,2.73,22.83-15.64,23.89-13.79,2.72,4.71-24.02,13.45-23.73,13.95,2.45,4.24,23.57-15.07,24.21-13.98,1.34,2.33-23.06,11.84-22.33,13.11,1.8,3.12,21.71-15.44,22.97-13.26,2.11,3.65-24.02,9.47-21.76,13.38,2.4,4.16,22.52-19.04,25.14-14.51,1.62,2.8-25.26,14.08-24.98,14.56.85,1.47,23.3-18.62,25.54-14.75,2.4,4.16-24.4,11.26-22.75,14.13.22.38,23.73-16.62,24.99-14.43,1.4,2.43-24.4,13.35-24.01,14.02.84,1.45,22.09-16.93,23.9-13.8.9,1.55-23.53,12.05-22.69,13.5,1.98,3.43,22.85-17.29,24.62-14.22,2.02,3.5-26.4,10.96-24.43,14.37.47.81,25.71-15.85,26.15-15.1.8,1.39-23.91,13.58-23.62,14.09,1.91,3.31,21.65-17.04,23.62-13.63.5.87-22.55,11.45-21.58,13.14,1.61,2.79,23.26-15.49,24.15-13.94,2.34,4.05-22.99,12.02-21.96,13.8s24.9-15.74,25.49-14.72c2.62,4.53-23.97,14.04-23.87,14.22,1.36,2.36,23.76-18.53,25.85-14.92s-27.32,10.43-24.93,14.56c0,0,25.29-16.63,26.17-15.11,2.51,4.35-28.79,10.25-25.91,15.25,2.22,3.85,23.44-19.26,25.92-14.96.04.07-26.98,12.17-25.34,15.01.06.1,26.5-16.81,27.16-15.68,1.43,2.48-27.71,13.52-26.59,15.46,1.34,2.33,25.56-15.62,25.93-14.97.6,1.04-23.65,9.65-21.42,13.51s22.65-19.05,25.24-14.57-23.18,13.79-22.86,14.35c3.15,5.45,26.18-18.15,27.5-15.88,1.92,3.33-27.29,12.1-25.43,15.33,3.04,5.26,25.82-20.77,28.36-16.37,1.11,1.92-26.33,11.37-24.2,15.07s26.7-16.02,26.96-15.56c.39.68-28.44,11.92-26.42,15.43.26.44,27.53-17.4,28.19-16.27,2.6,4.5-30.56,10.44-27.37,15.97,1.55,2.68,25.78-19.18,27.64-15.96,1.06,1.84-30.14,10.38-27.06,15.72s26.4-15.71,26.6-15.36c2.91,5.04-27.95,10.41-25.19,15.19,1.65,2.86,24.57-20.27,27.2-15.7,2.19,3.79-26.41,14.08-25.68,15.35,2.66,4.61,27.73-16.41,27.91-16.11,2.87,4.96-27.27,10.98-24.91,15.06,2.96,5.13,23.03-16.95,24.61-14.21,1.39,2.41-24.74,12.73-23.78,14.38,1.21,2.1,25.59-14.9,25.64-14.81,2.4,4.15-24.82,14.39-24.71,14.57,2.59,4.49,23.12-18.32,25.28-14.59.73,1.26-25.22,9.75-22.85,13.87.79,1.36,22.23-15.27,23.28-13.44.55.95-21.8,12.96-21.8,12.96.35.6,19.29-14.12,20.58-11.88,0,0-22.15,8.19-20.13,11.68.12.21,19.51-16.31,21.69-12.52,1.84,3.19-22.65,8.14-20.38,12.08,1.58,2.74,17.59-15.52,19.92-11.5,1.97,3.41-19.36,10.37-18.92,11.14.96,1.66,18.81-12.37,19.46-11.24,0,0-17.87,10.04-17.53,10.63.14.25,14.72-12.69,16.54-9.55,1,1.73-13.97,7.43-13.24,8.7.43.75,14-9.78,14.73-8.51,1.03,1.79-14.67,6.94-13.73,8.56,1.09,1.89,13.26-9.68,14.14-8.16,1.17,2.04-13.29,6.46-12.7,7.49,1.31,2.28,11.29-6.83,11.43-6.6,1.31,2.26-12.43,8.28-12.43,8.28,1.25,2.16,11.64-8.87,12.57-7.26.1.17-16.45,6.94-14.89,9.65.65,1.13,14.27-11.38,15.63-9.02.14.25-15.95,6.76-14.75,8.84.28.49,13.73-7.98,13.75-7.94.47.82-15.01,7.43-14.46,8.38,1.08,1.86,12.24-10.13,13.57-7.83,1.68,2.91-14.62,8.36-14.16,9.15.69,1.2,12.42-9.38,13.37-7.72,1.58,2.74-16,6.33-14.36,9.18,1.35,2.34,13.22-9.66,14.1-8.14,1.5,2.6-15.93,6.02-14.54,8.42.69,1.19,14.41-10.13,15.19-8.77,1.44,2.49-14.57,8.28-14.43,8.53.38.67,11.93-10,13.28-7.67,1.63,2.82-15.85,6.84-14.74,8.76.93,1.61,14.78-10.55,15.66-9.04.36.62-17.2,8.52-16.24,10.18.02.03,13.82-9.69,14.57-8.41.15.26-15.23,7.27-14.27,8.94,1.48,2.56,13.52-9.38,14.2-8.2,1.65,2.85-15.14,6.83-14.26,8.34.51.88,13.27-7.66,13.27-7.66.13.22-15.2,8.48-14.82,9.13.31.54,14.01-10.09,14.88-8.59,1.6,2.77-16.94,6.63-15.41,9.27s13.25-10.75,14.59-8.43c1.02,1.77-16.44,6.46-14.72,9.44.15.25,13.23-9.79,14.16-8.18.33.57-15.44,8.9-15.04,9.6.71,1.23,13.08-9.33,13.85-8,.02.04-15.4,6.04-14.05,8.39.99,1.71,12.3-10.93,13.96-8.06.15.26-14.87,7.02-14.07,8.4.88,1.53,13.96-10.06,14.82-8.56.71,1.24-16.64,10.34-16.6,10.41,1,1.73,14.93-10.74,15.84-9.15.54.94-17.56,9.15-16.65,10.72.85,1.46,15.28-9.34,15.5-8.95,1.06,1.83-17.81,7.76-16.48,10.06.7,1.21,15.43-10.15,15.97-9.22.76,1.31-16.17,10.38-16.15,10.42,1.61,2.78,13.11-8.75,13.62-7.86,1,1.72-16.24,6.41-14.48,9.45,1.23,2.14,12.63-10.58,14.06-8.12,1.84,3.18-17.51,6.37-15.8,9.33,1.25,2.16,14.29-10.77,15.38-8.88.64,1.11-17.11,6.74-15.64,9.3.52.9,14.66-11.02,15.77-9.1,1.32,2.28-15.56,9.06-15.55,9.07.95,1.64,14.66-10.73,15.64-9.03,1.68,2.9-17.09,6.97-15.45,9.8,1.17,2.03,13.99-8.59,14.21-8.2,1.28,2.22-16.52,6.06-14.87,8.94.71,1.22,14.11-11.19,15.43-8.91.62,1.08-16.58,7.5-15.59,9.23.51.87,12.74-11.44,14.51-8.38.71,1.23-15.59,9.94-15.58,9.95.11.18,13.55-9.59,14.31-8.26,1.04,1.81-15.32,9.73-15.21,9.92,1.26,2.19,13.77-8.24,13.9-8.02.7,1.21-15.33,7.9-14.74,8.93,1.34,2.32,15.04-9.98,15.6-9.01.47.81-16.96,7.41-15.83,9.37.02.04,13.79-8.72,14.12-8.15.35.61-17.25,6.66-15.49,9.7,0,0,14.63-10.65,15.58-8.99.88,1.53-18.26,7.8-16.65,10.59.24.42,13.45-11.68,15.14-8.74,1.14,1.97-15.96,9.82-15.83,10.03,1.23,2.12,13.65-11.93,15.41-8.89,1.18,2.05-15.14,8.56-14.97,8.86,1.23,2.13,13.31-10.81,14.67-8.47.42.72-16.6,8.74-15.83,10.08.36.62,14.69-9.42,15.1-8.72,1.39,2.42-16.49,8.42-15.64,9.9,1.63,2.82,14.09-9.88,14.85-8.57s-15.24,9.07-15.16,9.22c0,0,13.01-11.23,14.62-8.44.56.97-17.04,7.03-15.45,9.79.19.32,13.45-8.7,13.85-8,1.94,3.37-17.71,8.37-16.41,10.63.62,1.07,15.46-9.47,15.7-9.06.43.74-16.28,7.25-15.32,8.91,1.59,2.76,14.31-11.1,15.54-8.97.95,1.64-15.81,7.56-14.94,9.07,0,.01,12.51-11.12,14.2-8.2.89,1.54-16.35,8.06-15.4,9.72.39.67,13.33-9.12,13.95-8.05.38.66-16.21,8.7-15.55,9.84,1.53,2.64,13.95-11.4,15.4-8.89,1.07,1.85-16.72,7.87-15.56,9.88,1.64,2.85,13.33-11.08,14.79-8.54.27.47-17.25,7.07-15.55,10.01,1.04,1.8,13.17-10.37,14.37-8.3s-17.19,6.99-15.58,9.79c.32.55,13.03-10.51,14.32-8.27.81,1.4-16.24,9.71-16.06,10.01.91,1.58,14.92-9.13,15.15-8.74.1.17-15.59,8.78-15.3,9.29,1.02,1.76,13.57-10.13,14.56-8.41,1.49,2.59-13.96,7.77-13.74,8.15.26.45,12.13-10.23,13.52-7.81,1.15,1.99-15.82,7.05-14.73,8.95.8,1.39,13.44-10.46,14.61-8.43,1.33,2.31-16.36,5.8-14.72,8.64,1.31,2.27,13.89-10.26,14.86-8.58.27.47-17.15,6.86-15.5,9.73,1.17,2.02,14.9-9.8,15.42-8.9.44.77-17.92,7.28-16.19,10.29.76,1.31,13.63-10.13,14.6-8.43,1.06,1.83-16.42,8.89-15.94,9.71.25.43,14.67-12.15,16.26-9.39s-18.46,9.53-17.49,11.22c1.72,2.97,14.29-10.25,15.16-8.75,1.21,2.09-16.56,6.3-14.84,9.28,1.08,1.87,14.22-8.26,14.24-8.22.19.33-14.76,7.8-14.26,8.68.57.99,12.35-10.03,13.6-7.85.54.94-14.61,8.07-14.21,8.76,1.43,2.47,12.28-10.08,13.58-7.84.92,1.59-14.42,7.54-14,8.27,1.18,2.04,14.72-9.39,15.11-8.72,1.64,2.84-16.96,8.7-16.26,9.93,1.14,1.98,13.7-9.72,14.49-8.36.08.14-15.86,9.82-15.7,10.09,1.64,2.84,14.21-10.01,14.99-8.66,1.6,2.78-15.55,5.89-14.01,8.56.17.3,13.13-9.26,13.85-8,.45.77-15.36,5.95-14.05,8.23.57.99,12.94-9.31,13.74-7.93,1.25,2.17-16.41,8.8-15.65,10.11,1.53,2.65,12.62-11.05,14.25-8.23,1.44,2.5-15.64,9.11-15.28,9.73.01.02,13.73-11.36,15.22-8.79,1.32,2.29-16,6.43-14.63,8.8.77,1.34,14.23-9,14.57-8.41,1.01,1.76-16.53,7.11-15.36,9.13,1.31,2.28,12.89-11.25,14.54-8.39.33.58-14.95,8-14.37,9,.36.62,13.14-8.67,13.61-7.86,1.51,2.62-15.22,7.84-14.74,8.67,1.51,2.61,12.68-9.66,13.69-7.91.73,1.26-13.47,7.47-13.22,7.92.23.4,13.04-7.53,13.04-7.53.43.75-15.79,7.95-14.9,9.5.48.83,13.18-9.31,13.91-8.03,1.09,1.89-15.26,6.1-13.82,8.59.57.99,12.95-8.13,13.23-7.64,1.12,1.93-14.8,6.74-13.71,8.62.1.17,14.34-8.38,14.39-8.31.82,1.41-15.28,8.5-14.99,9l13.7-7.91c1.56,2.7-15.32,7.88-14.59,9.13.03.05,14.37-8.47,14.44-8.34.88,1.53-16.13,5.88-14.6,8.53.88,1.53,14.43-9.93,15.13-8.73,1.29,2.24-15.88,8.63-15.17,9.86,1.26,2.19,12.52-10.06,13.75-7.94,1,1.73-16.14,7.75-15.01,9.72,1.65,2.86,13.41-8.83,13.88-8.02,1.47,2.55-16.36,6.26-14.94,8.72s13.01-10.47,14.29-8.25c1.54,2.67-14.62,7.13-14.02,8.17.92,1.6,14.17-10.07,14.99-8.65,1.47,2.54-16.73,8.14-15.72,9.88.38.65,13.32-9.12,13.94-8.05,1.21,2.09-13.23,6.72-12.77,7.52.12.2,11.5-8.82,12.45-7.19.86,1.49-14.92,6.15-13.48,8.65.65,1.12,11.57-9.6,12.84-7.41.68,1.17-14.32,5.01-12.8,7.64.94,1.62,11.73-9.7,13-7.51.48.82-15.51,5.7-13.86,8.56.79,1.37,13.61-8.54,13.91-8.03,1.08,1.87-14.37,8.89-14.3,9.01.87,1.51,12.23-8.19,12.72-7.35.7,1.22-15.06,5.47-13.62,7.98.3.52,12.39-8.7,13.06-7.54.5.87-16.28,6.55-14.58,9.49.1.18,13.75-11.22,15.17-8.76,1.63,2.83-14.87,8.36-14.72,8.62.11.19,12.65-10.45,14.01-8.09,1.46,2.52-15.39,6.59-14.14,8.75,1.49,2.58,12.3-8.31,12.83-7.41.07.13-14.85,6.12-13.43,8.58.08.13,11.89-9.98,13.24-7.64.42.73-13.96,8.5-13.91,8.58,1.54,2.67,12.53-9.02,13.3-7.68,1.2,2.08-13.78,6.52-12.97,7.93s11.1-9.47,12.43-7.17c1.19,2.07-14.96,5.93-13.35,8.7.43.75,12.75-7.54,12.83-7.4,1.27,2.2-13.07,7.54-12.9,7.83.64,1.11,12.03-8.73,12.8-7.39.89,1.55-15.22,8.47-14.84,9.13,1.07,1.86,13.15-8.13,13.39-7.73.84,1.45-12.21,6.32-11.85,6.94.34.58,11.3-8.53,12.17-7.03,1.23,2.14-14.4,5.72-13.23,7.75.85,1.48,13.05-9.72,14-8.08.07.12-14.63,7.09-13.94,8.29.34.59,12.58-7.27,12.58-7.27.42.72-12.84,5.43-11.94,6.98s12.02-8.1,12.52-7.23c.36.62-15.25,7.69-14.28,9.39.38.66,11.38-9.58,12.68-7.32.79,1.36-14.07,7.8-13.55,8.7.9,1.57,12.49-9.67,13.56-7.83,1.42,2.46-14.2,4.92-12.7,7.52.31.54,11.04-8.71,12.06-6.96,1.35,2.33-12.86,5.98-12.17,7.18.76,1.32,12.8-7.89,13.02-7.52.56.97-15.14,6.7-14.07,8.54,0,0,12.21-7.46,12.39-7.15.7,1.21-14.17,4.97-12.74,7.44.14.25,12.13-10.11,13.47-7.78.89,1.54-14.6,8.72-14.34,9.17.3.52,13.52-9.18,14.12-8.15,1.46,2.53-14.65,6.17-13.43,8.29.42.73,12.25-8.5,12.87-7.43.32.56-15.33,6.96-14.1,9.09,1.39,2.41,13.15-9.06,13.79-7.96.79,1.38-15.84,6.37-14.61,8.5s12.26-10.1,13.57-7.83-12.87,8.53-12.87,8.53c.93,1.61,11.81-8.19,12.41-7.16.93,1.61-12.88,7.62-12.87,7.64.02.04,13.03-7.52,13.03-7.52.41.71-15.56,7.89-14.63,9.49.72,1.24,12.36-9.76,13.49-7.79.94,1.62-13.93,8.84-13.93,8.84,1.44,2.5,12.26-8.42,12.85-7.42.14.24-13.45,6.25-12.5,7.89,1.42,2.45,11.69-8.87,12.61-7.28,1.07,1.86-14.54,7.74-13.87,8.9.2.35,11.84-7.84,12.28-7.09.1.18-13.05,5.96-12.13,7.54,1.01,1.74,11.3-7.98,11.93-6.89,1.55,2.68-15.04,5.55-13.5,8.21.73,1.26,13.09-9.75,14.04-8.11.36.63-14.06,6.77-13.29,8.09.15.25,12.2-7.82,12.54-7.24,1.18,2.04-14.06,5.58-12.58,8.14.03.05,12.43-7.17,12.43-7.17.31.54-15.64,6.95-14.27,9.32,1.26,2.18,12.04-7.45,12.26-7.08,1.43,2.48-12.87,8.17-12.83,8.24.83,1.43,13.18-8.64,13.63-7.87s-14.13,6.89-13.37,8.19c1.18,2.05,10.71-9.53,12.16-7.02,0,0-13.99,7.27-13.16,8.72,1.37,2.37,11.71-8.54,12.48-7.21.42.73-14.05,6.43-12.9,8.43.53.92,11.9-9.25,12.93-7.46,0,0-15.58,5.94-13.97,8.73,0,0,12.1-9.44,13.17-7.6.43.75-12.34,6.84-12.19,7.1.36.62,10.47-8.41,11.5-6.64.91,1.58-13.16,6.98-12.66,7.83.36.62,10.84-8.99,12.02-6.94.06.1-12.02,5.81-11.3,7.06.28.48,9.66-7.57,10.52-6.08.53.91-11.41,7.18-11.32,7.34.66,1.15,10.14-9.02,11.51-6.64.53.91-13.29,5.95-12.51,7.29,1.34,2.33,11.23-7.91,11.85-6.84.5.87-11.07,5.51-10.65,6.25.31.54,10.3-7.41,10.93-6.31.43.74-13.68,5.76-12.28,8.18.5.86,11.14-8,11.82-6.82.04.07-12.5,7.11-12.39,7.29.79,1.37,11.89-6.87,11.89-6.87,1.34,2.32-13.33,6.81-12.52,8.22s11.55-7.61,11.96-6.91c.77,1.33-13.45,6.4-12.42,8.19.07.13,10.75-9.41,12.14-7.01.94,1.63-12.19,4.8-11.19,6.53s10.79-7.88,11.5-6.64c.03.05-11.83,6.52-11.65,6.83,1.27,2.21,10.79-8.27,11.67-6.74.38.65-14.27,5.83-13.13,7.8,1.05,1.82,11.5-7.92,12.06-6.96.7,1.22-10.72,6.11-10.62,6.29.71,1.22,10.54-7.51,11.16-6.44,1.17,2.02-12.53,7.85-12.46,7.97,1.19,2.06,10.27-7.56,10.98-6.34.77,1.33-12.22,5.57-11.1,7.51s11.04-7.76,11.64-6.72c1.25,2.17-13.11,5.74-12.17,7.35,1.12,1.95,11.75-7.47,12.05-6.96.93,1.6-13.02,4.84-11.79,6.98,1.35,2.33,10.7-8.84,11.86-6.85,1.36,2.35-13.38,5.28-12.28,7.18,1.33,2.31,12.1-7.52,12.34-7.12.92,1.6-13.14,6-12.28,7.49.6,1.04,10.93-8.89,12.04-6.95.53.92-14.11,5.33-12.65,7.87,1.37,2.38,10.96-7.87,11.63-6.71.37.64-12.28,6.98-12.21,7.1.09.16,11.89-8.69,12.68-7.32.39.68-13.33,6.63-12.67,7.78.9,1.56,11.03-6.85,11.24-6.49.7,1.22-12.57,5.62-11.52,7.44.37.64,10.87-7.93,11.59-6.69.63,1.09-13.01,4.9-11.74,7.09.99,1.72,11.11-6.68,11.23-6.48,1.31,2.26-11.87,5.69-11.3,6.68,1.33,2.3,9.95-8.37,11.09-6.4.24.42-11.84,5.49-11.13,6.72.24.41,11.34-7.25,11.64-6.72.79,1.36-12.05,5.33-10.95,7.23.59,1.02,9.59-7.28,10.34-5.97.14.24-11.29,4.75-10.41,6.28.08.14,9.15-5.61,9.29-5.36.69,1.2-10.28,6.21-10.2,6.36,1.13,1.96,10.26-7.53,10.95-6.32.04.07-10.53,6.84-10.53,6.85.3.52,10.18-6.86,10.61-6.12.99,1.72-10.21,6.05-10.14,6.17,1.09,1.89,7.7-6.83,8.73-5.04.19.32-8.7,4.69-8.28,5.42.03.05,7.25-5.25,7.71-4.45.4.69-8.47,5.43-8.35,5.64.8,1.38,9.09-5.73,9.3-5.37.33.56-7.54,5.09-7.54,5.09.18.32,6.17-3.63,6.2-3.58.26.45-7.46,3.95-7.08,4.6s6.36-4.73,6.82-3.94-6.85,2.96-6.33,3.87c.59,1.03,6.66-3.84,6.66-3.84.17.29-6.79,3.43-6.53,3.88.21.36,6.34-3.87,6.43-3.71.39.68-5.66,2.75-5.28,3.41.17.29,4.71-3.35,4.98-2.88.2.34-3.72,2.69-3.56,2.97.18.32,2.29-1.79,2.49-1.44"></path><style data-made-with="vivus-instant">.YmPcVRnM_0{stroke-dasharray:41399 41401;stroke-dashoffset:41400;animation:YmPcVRnM_draw_0 5200ms ease-out 0ms infinite,YmPcVRnM_fade 5200ms linear 0ms infinite;}@keyframes YmPcVRnM_draw{100%{stroke-dashoffset:0;}}@keyframes YmPcVRnM_fade{0%{stroke-opacity:1;}98.07692307692308%{stroke-opacity:1;}100%{stroke-opacity:0;}}@keyframes YmPcVRnM_draw_0{11.538461538461538%{stroke-dashoffset: 41400}30.76923076923077%{ stroke-dashoffset: 0;}100%{ stroke-dashoffset: 0;}}</style></svg>