<?xml version="1.0" encoding="UTF-8"?><svg id="Layer_2" xmlns="http://www.w3.org/2000/svg" viewBox="0 0 321.83 290.16"><defs><style>.cls-1{fill:#f53f4e;}</style></defs><g id="shapes"><path class="cls-1" d="m31.75,65.72c2.22-2.8.76-1.55,1.07-2.28.63-.87,1.06-1.37,1.36-1.65.29-.29.43-.38.52-.4.17-.04.14.21.7-.27,1.71-2.05,2.79-3.83,4.17-5.28.15-.06.44-.32.17.05,1.8-2.19,5.86-6.01,8.15-8.39.2-.14.32-.2.38-.22-.52.22-.71.13-.72-.04,1.2-1.08,2.08-2.18,2.69-2.4-.74.66-.74.78-1.04,1.15l1.19-1.21c1.36-.75-1.64,1.63-1.47,1.82,2.32-2.35,5.24-4.86,7.25-6.39.62-.06-4.54,3.77-1.72,1.91l-3.13,2.33c2.66-1.46-1.85,1.47.63.18,2.03-1.56,3.12-2.48,4.21-3.41.55-.46,1.1-.92,1.75-1.47.69-.51,1.5-1.08,2.56-1.8.83-.82-.47,0,.36-.83,1.44-1.12,2.48-1.85,3.29-2.36.82-.5,1.45-.74,2-.98,1.12-.47,2.02-.81,4.16-2.43.53-.46.84-.88,1.47-1.36.63-.47,1.56-1.05,3.28-1.88l-.95.97c2.18-1.19,2.73-1.66,3.33-2.11.59-.46,1.22-.93,3.62-1.95-.38.27-1.24.73-1.92,1.09-.68.36-1.15.66-.82.49,3.14-1.28,2.03-1.27,4.35-2.43l.63.07c1.19-.58,2.37-1.26,3.62-1.83,1.25-.59,2.53-1.19,3.82-1.79,2.56-1.27,5.28-2.36,8.01-3.45-.27.21-1.17.67.15.28.86-.35,1.73-.7,2.61-1.05.9-.31,1.81-.62,2.73-.94,1.84-.61,3.7-1.26,5.57-1.81,3.78-1.04,7.51-2.1,11.01-2.82l2.57-.95c.62-.15,1.17-.16.52.06,2.72-.57.09-.22,1.37-.65,1.54-.35,2.08-.28,1.12.02,4.73-1.32,13.61-3.37,18.8-3.71l-.99.23c4.01-.45,4.42-1.3,8.18-1.44l-.71.13c8.7-1.01,18.36-1.85,25.06-1.67.63-.23,2.8-.26,4.88-.3,2.08-.05,4.07-.02,4.35-.33,5.01.26,3.58.32,10.62.63,1.88.05,2.81-.34,5.14-.32l.05.31,3.17-.21,1.66.45,2.18.04c-.86-.07-1.83-.24-1.7-.32,3.42,0,8.26.78,8.33.95,2.67.16,5.34.38,8,.67-.19.09-1.53-.04-2.59-.1,4.28.26.73.4,4.64.7-.51-.15.31-.14.41-.18,1.9.49,6.26,1.33,9.45,2.09l-.66.05c5.72,1.46,11.97,3.5,17.94,6.43-2.11-1.11-1.46-1.22.32-.4l.56.64c1.22.38-1.78-1.01.66-.09,2.2,1.18,1.32,1.1,0,.54.91.43,1.82.86,2.72,1.31.11.17-.54-.12-.76-.1,1.2.39,4.38,2.82,6.06,3.49l.09.17c5.6,3.56,8.03,5.38,12.25,8.77.26-.15,1.83,1.28,3.21,2.16,1.42,1.4,2.93,2.87,4.45,4.48,1.48,1.64,3.09,3.29,4.66,5.12,2.34,2.44.83.58,1.97,1.62,0,.34,3,4.08,1.3,2.25.9,1.12,1.68,2.02,2.32,2.88.65.86,1.23,1.63,1.84,2.45.62.8,1.27,1.65,1.98,2.7.72,1.05,1.61,2.22,2.61,3.75-.31-.74-.78-1.5-.45-1.17.75,1.1,1.49,2.64,1.29,2.53l-.2-.29c.58.85,1.15,1.75,1.73,2.68.54.95,1.07,1.94,1.6,2.94,1.1,1.98,1.99,4.13,2.95,6.18.87,2.09,1.72,4.13,2.51,6.02.73,1.92,1.52,3.64,2.19,5.13l-.15-.33c.83,2.1,1.76,4.17,2.49,6.31.9,2.99-.75-1.72-.2.52,2.58,6.85,3.12,11.11,4.52,16.96.06,1.18.23,2.78.47,4.63.28,1.84.55,3.94.82,6.09.32,2.14.45,4.36.64,6.42.14,2.06.15,3.99.11,5.56l.16-.37c.25,1.62-.07,1.97-.09,3.16.14-.17.15-1.76.25-.76.47,13.78-1.87,28.44-6.03,41.86-1.58,4.89.08,3.1-2.51,9.09l.31-1.85c-.71,2.5-1.8,4.91-2.78,7.36-1.03,2.43-1.97,4.92-3.26,7.24-1.21,2.36-2.41,4.71-3.6,7.04-1.32,2.26-2.65,4.49-3.89,6.72.25-.56.17-.63.69-1.48-.66.86-1.69,2.56-2.54,4.06-.95,1.44-1.7,2.7-1.63,2.77-.93,1.29-.36.2-1,.94-1.37,1.67-2.84,4.64-3.75,5.39-.15.13.33-.51.53-.86-.74,1.21-4.13,5.09-3.05,4.23-1.26,1.45-2.38,2.89-3.45,4.26-1.1,1.34-2.23,2.53-3.32,3.61-1.14,1.66-4.51,4.76-4.7,5.46-.13-.51-5.11,4.39-6.71,6.22.25-.33-.16,0-.55.33-.4.31-.82.58-.52.21-2.1,1.79-3.98,3.49-3.46,3.36-1.06.72-2.06,1.51-3.01,2.32-.47.41-.93.82-1.38,1.21-.47.38-.92.75-1.37,1.11-1.77,1.44-3.34,2.7-4.69,3.28-.8.64-1.6,1.27-2.39,1.9-.81.61-1.64,1.16-2.45,1.74-1.63,1.14-3.23,2.25-4.81,3.35-1.56,1.14-3.2,2.11-4.81,3.08s-3.21,1.94-4.8,2.9c0-.53,7.05-4.16,6.53-4.4-2.98,1.84-5.3,3.36-7.63,4.84-2.37,1.41-4.83,2.67-7.95,4.21-1.63.76.83-.64,1.33-.98-1.55.81-3.04,1.69-4.6,2.36-1.55.68-3.08,1.35-4.59,2.02-1.51.67-2.99,1.32-4.45,1.97-1.49.57-2.96,1.15-4.4,1.75,0-.05.62-.32,1.2-.58-1.15.44-2.7.94-2.5,1.08l1.1-.47c1.95-.41-4.37,2.29-4.53,2.52.88-.67-.56-.09-1.92.23-1.35.36-2.55.65-1.08-.19-.76.28-1.7.67-1.48.74-1.16.32-1.55.35-.43-.16-4.18,1.4-2.62,1.15-6.44,2.32-.01-.1.75-.37,1.11-.61-.93.41-1.89.74-3.03,1.08-1.13.34-2.44.69-4.09,1.05.18-.11-.22-.09.76-.33-2.81.69-5.17,1.48-7.66,2.01-2.48.57-5.03,1.21-8.2,1.55,1.79-.71-2.16.19-2.55-.13-1.12.2-2.24.44-3.37.58.46,0,.93.03,1.39.02-2.98.34-5.58.9-8.16,1.05.74-.11,1.47-.26,2.2-.39-1.86.26-3.72.38-5.59.54l3.19-.08c-3.01.4.36.45-3.64.62.81-.11-3,.24-4.58.06h0c-1.48.16-3.01.32-5.23.29-.58-.1.46-.43.08-.49-.36.09-.99.15-1.74.2-.76.02-1.65.02-2.55.02-1.81,0-3.66,0-4.59.15.62-.07.66-.26.46-.31l-1.24.23c-1.39-.16-1.59-.21-1.35-.36-4.17-.29,1.3.55-3.64.06.39,0,.21-.05,1.02-.04-1.24-.1-2.47-.17-3.67-.24-1.2-.11-2.39-.21-3.56-.32-2.35-.2-4.65-.38-6.9-.82-1.28-.57,3.97.5,2.48-.04-1.63-.21-3.3-.43-4.97-.64-.84-.1-1.68-.2-2.52-.31l-2.51-.42c-1.67-.29-3.34-.58-4.97-.86-1.62-.36-3.22-.76-4.76-1.16l1.15.33c-.49.15-1.64-.2-3.05-.65-1.42-.42-3.07-1.14-4.65-1.46.77.19,1.08.01.86.01-2.07-.69-4.25-1.21-6.62-2.04-2.38-.8-5.09-1.56-8.16-2.81l.81.19c-1.17-.55-2.73-1.22-4.31-1.89-1.58-.68-3.13-1.49-4.38-2.1-.8-.23-2.23-.94-1.45-.35-1.87-1.06-3.65-2.18-5.45-3.16-.9-.5-1.8-.98-2.69-1.44-.9-.46-1.74-1.01-2.6-1.5-1.71-1.01-3.42-1.96-5.03-3.04-1.58-1.12-3.12-2.27-4.57-3.5.74.53,1.83,1.16,1.25.74-.89-.62-1.79-1.21-2.66-1.84l-2.56-1.99c.26.5.57.64,1.53,1.64-.72-.41-2.22-1.48-3.48-2.49,2.37,1.72.21-.3-.68-1.19.12.19-.27-.02-.23.1-2.3-2.52-.74-.01-4.01-3.32l.26.08c-1.31-1.14-2.67-2.03-3.92-3.43-.35-.75,1.36,1.25,1.63,1.14-1.88-1.83-4-3.34-5.48-5.22.84.75,1.96,1.89,2.79,2.64-1.58-2.07-1.86-2.21-3.14-3.64l.12.15-2.81-3.44.68.91c-1.32-1.02-2.5-2.22-3.62-3.65-1.11-1.44-2.28-3-3.82-4.62,2.98,3.15.63.41,1.08.49-.63-.93-1.58-2.37-1.21-2.03-1.37-1.58-1.8-2.98-3.75-5.21,0-.08-.31-.54-.56-.95-.23-.43-.4-.8-.18-.66-1.45-2.29.18.64-.04.51-1.21-1.71-2.38-3.88-3.68-6.22-1.16-2.43-2.46-5.02-3.98-7.63-2.21-4.69-3.05-5.39-4.79-9.91-.41-1.59.79,1.13.79,1.13-.38-1.26-.74-2.35-1.13-3.42-.2-.53-.39-1.06-.59-1.59-.18-.55-.36-1.1-.55-1.69.22.46.15-.06.04-.82-.57-1.9-.71-1.18-1.29-3.73.23.4.56.91.92,1.8-.35-1.11-.78-2.2-1.11-3.32-.31-1.13-.62-2.27-.92-3.45.03-.66.56,1.37.84,2.18-.32-1.32-.74-3.03-1.1-4.51-.42-1.47-.61-2.75-.82-3.14l.15,1.75c-.15-.98.15-.54.31.17.69,2.24.61,3.3.54,3.45l-.42-1.68c-.1.92.29,2.62.78,4.51.13.47.24.96.4,1.44s.33.96.49,1.43c.32.95.62,1.88.86,2.71l-.8-1.28,1.31,3.34c.11.76.03,1.33-.51-.3.24,1.24.44,1.75.66,2.22.21.47.39.9.65,1.94.05.23,0,.14-.1-.06l.95,2.26c-.24-.42-.14.49-.59-.95.63,2.11,1.28,3.76,1.96,5.03.63,1.28,1.12,2.25,1.31,3.08l-.17-.33c1.28,2.77,1.41,2.87,1.49,2.78.07-.08.09-.34,1.29,1.6l.73,3.07.54.39c.28.56.83,1.68.61,1.53,1.34,1.93-.1-.4.76.67,1.31,2.73,4.34,7.1,4.4,7.87.8.77-1.48-2.49.47.09.1,1.04,2.13,3.06,3.57,5.42-.77-.49-2.08-2.77-.73-.34,1.39,1.05,3.21,4.33,4.71,6.12.18-.07,1.04.86,2.19,2.17.57.66,1.22,1.4,1.89,2.17s1.35,1.56,2.08,2.22c-.24-.12,4.93,5.49,7.65,7.92l-.12-.03c.38.1,1.26.8,2.3,1.69,1.03.9,2.34,1.87,3.41,2.71-.22.1-.66-.14-1.88-1l2.01,1.62c.55.29,1.21.75,2.54,1.76l-.67-.19c1.31,1.11,2.82,1.97,4.34,3.02,1.55,1.01,3.12,2.2,4.97,3.4.34-.09-2.57-2.45,1.45-.13.07.21.09.5-.97-.1.35.2,1.27.66,1.91,1.13l-1.7-.79c1.64,1.15.99.39,2.34,1.26-.13.15.93.75.66.76-.36-.2-1.14-.81-1.7-1.07,1.51.99,3.3,2.27,3.88,2.71-.08-.17.13-.23,1.31.38,3.01,1.63.91.77,2.62,1.82.4.14,1.06.5,1.64.8.59.3,1.12.48,1.21.37.9.43,1.01.64,1.32.88.83.32,2.7,1.21,4.16,1.87,1.46.65,2.54.98,1.68.47l-.41-.19c.08.03.17.06.27.1,5.44,2.01,11.11,4.69,16.69,6.19l-.04.09c1.67.42,3.49,1.01,5.23,1.42,1.74.4,3.37.76,4.59.95.98.24,2.29.75,1.84.76,2.59.47,2.9.39,6.59,1.3-2.63-.34.87.33-2.68-.4,1.67.38,2.69.62,3.74.86,1.06.21,2.17.32,4,.47-1.28.07,2.5.7,4.12.86l-2.35-.53c.9.12,1.75.24,2.58.35.83.09,1.62.18,2.43.28l-.91.24c1.73.28,3.39.46,4.98.59,1.59.15,3.13.1,4.6.13,1.48.02,2.9.04,4.28.12,1.39.02,2.73.1,4.06.29,1.85-.2-3.8-.22-2.14-.47,3.21.09,6.57.65,7.58.57,2.21.03,3.24-.12,4.29-.28,1.05-.15,2.12-.31,4.42-.43-.6-.08-1.17-.36,2.25-.7,3.2-.18,3.98.22,1.96.46-.77.06-1.14.05-1.11,0-1.03.11-2.39.26-1.11.3l.41-.15c.8,0,2.31-.05,3.49-.14,1.17-.09,2.02-.14,1.51.01,2.41-.38,1.01-.31-.78-.17,4.13-.29,6.42-.65,10.64-1.23-.68.04-1.31,0-.65-.11,6.19-.81,2.69-.59,6.82-1.43,2.39-.28-.76.59,3.38-.37,2.58-.38.61.2-.39.5,1.89-.45,3.66-.85,5.23-1.17,1.58-.31,2.96-.55,4.04-.79l-1.97.58c1.18-.35,2.15-.59,3.14-.83l-1.19.05c1.18-.25,2.16-.49,2.17-.39,1.16-.45-1.02-.16,1.3-.95,1.56-.35,4.61-1.55,5.23-1.41-4.84,1.38.62.14-3.44,1.44.78-.28,1.73-.57,2.9-.89.18-.02-.14.11-.45.23,4.69-1.16,2.02-.97,6.78-2.48-.54.39,1.19-.08,1.95-.41-1.89.7-1,.06.68-.71,3.04-.99,3.22-1.31,4.79-1.88l-1.81.61c.54-.39,2.05-.93,4.11-1.75.23.06-1.86.79-1.09.57,1.11-.54,2.4-1.07,3.84-1.58,1.43-.52,2.97-1.09,4.51-1.87,1.51-.53.28.24,1.6-.25,1.74-.85,2.67-1.33,3.66-1.74.99-.43,2-.86,3.77-1.87-1.16.32-1.31.46,1.14-1.04l-5.88,3.18,3.67-2.25c-1.8.91-3.72,2.06-4.82,2.57,1.74-1.1,1.57-.95.63-.69,2.61-.93,4.77-2.66,7.72-3.88l.19.56c1.11-.46,2.09-1.04,3.05-1.61.96-.58,1.9-1.17,2.88-1.79.98-.61,2-1.25,3.1-1.94.56-.34,1.13-.69,1.74-1.05.59-.38,1.21-.78,1.87-1.21l-1.72,1.02c.57-.66,3.19-2.15,4.81-3.34-.05.27,1.04-.37,1.83-.74-.08-.03.87-.66,1.87-1.36.99-.72,1.98-1.58,2.1-1.9l2.38-1.46c2.05-1.47,3.11-2.44,4.15-3.4,1.01-.99,1.95-2.03,3.82-3.55-.97,1.1.79-.21-1.58,2,1.23-1.04,2.36-1.95,2.3-2.07.79-.53,3.26-3.07,4.48-3.93.43-.53.45-.84,1.77-2.08.17-.11.06.08.06.08-.06-.08,1.95-2.06.66-1.12,1-.75,2.13-1.72,3.3-2.81.58-.55,1.21-1.1,1.78-1.71.57-.62,1.14-1.25,1.71-1.88,2.26-2.53,4.53-4.92,6.11-6.42,1.08-1.39,2.28-2.92,3.45-4.42.59-.75,1.17-1.48,1.73-2.19.56-.7,1.1-1.38,1.54-2.05-.07.2.07.07-.29.55,2.69-3.5,1.1-2.55,4.14-6.52,1.74-1.92-1.39,2.27-.37,1.04.47-.1,1.32-1.35,2.34-2.9.92-1.61,1.97-3.53,3.01-4.88l-.39.72c.76-1.05,1.53-2.43,2.38-4,.21-.39.43-.79.65-1.21.2-.43.4-.86.61-1.31.42-.89.87-1.81,1.36-2.74,0,0-.04.21.08.07.51-1.36,1.36-3.27,2.31-5.29.88-2.05,1.7-4.28,2.46-6.16-.26,1.26-.59,1.75-.06,1.14.67-1.69-.59.33.75-3.04.28-.52.73-1.36,1.13-2.11.41-.75.72-1.42.92-1.54-.35,1.09-.81,2.13-1.25,3.19,1.07-1.47,1.59-4.14,2.26-5.82l.07.27c.44-1.24.71-2.19.91-3.01.19-.81.35-1.47.51-2.15.34-1.34.61-2.75,1.35-5.47l-.26.53c.43-3.06.85-2.45,1.25-5.51l.59-.82c.35-2.01.99-7.06,1.38-10.68,0,1.04-.12,2.62-.26,4.28-.21,1.65-.43,3.36-.59,4.68.18-.99.49-2.68.74-4.26.23-1.58.36-3.05.35-3.58-.08.81-.13,1.84-.3,2.62.02-1.25.11-2.68.27-4.3.14-1.62.26-3.43.49-5.42.37.39.62-2.21.84-5.28.17-3.07.29-6.59.54-8.05-.3-7.11-.35-14.15-1.64-22.37-.13,3-.39-2.39-.92-1.79-.32-1.9-.5-2.61-.48-2.79-.27-1.93-.47-3.88-.83-5.8-.14-1.39.55,1.76.65,1.56-.92-4.14-.15-1.79-.64-4.56-.04.31-.2-.03-.41-.75-.24-.71-.54-1.78-.82-2.96l.62,3.36c-.92-2.82-1.15-4.08-1.37-5.35-.25-1.27-.53-2.54-1.58-5.34l.75,1.74c-.48-1.46-1.46-4.11-2.46-6.75-1.1-2.6-2.19-5.2-3.07-6.45-.16-.52-.3-1.24.3-.03-1.45-3.37-3.34-6.99-5.3-10.33-.98-1.67-1.92-3.3-2.87-4.78-.91-1.5-1.75-2.89-2.49-4.11l.43.38c-.8-1.11-1.56-1.82-2.39-3.33.1.04.43.37.08-.16-.46-.57-2.36-2.78-3.36-4.29l1.05,1.15c-.99-1.49-2.02-2.7-2.95-3.82s-1.82-2.12-2.75-3.03c-.92-.92-1.81-1.82-2.73-2.75-.96-.9-1.95-1.83-3-2.89.08-.07-.1-.39-.44-.85-.35-.45-.89-1.03-1.49-1.67-1.21-1.28-2.71-2.77-3.78-3.69l.12.02c-6.32-5.47-11.34-8.54-18.07-12.27-1.95-1.4-5.5-3.4-9.55-5.2-4.03-1.83-8.58-3.42-12.26-4.58,1.11.4-.28.28-1.61-.05-1.73-.55-4.92-.87-4.55-1.19l.63.15c-1.24-.71-4.92-1.32-7.78-1.76l-.55.45c-3.68-.96-8.63-1.41-13.13-1.62-4.51-.23-8.58-.26-10.63-.66-1.82.08-4.07.06-5.87.16l.1-.28c-2.52-.08-4.4-.12-6.44-.1-2.04.03-4.22,0-7.33.14l1.26-.24c-3.51.1-4.41.96-7.64,1.08l-.99-.37c-6.11.33-12.34.4-18.32,1.45.09-.07.26-.22,1.24-.35-1.44.15-4.21.44-6.5.67-2.28.29-4.06.66-3.5.86-.12-.35-6.27.83-9.49,1.65l.46-.37c-1.34.42-2.03.66-2.86.89-.83.23-1.8.44-3.7.91-.91.16-.84-.05.38-.24-3.04.5-2.29.76-5.97,1.4l1.32-.47c-3.1.63-2.82.73-4.47,1.34-1.9.61-5.84,1.38-6.35,1.3-.37.27-1.98.96-3.78,1.41-.27-.02.37-.27.69-.39-5.16,1.26-7.4,2.7-10.95,3.58-.1-.06-.34-.03-.64.04,3.99-1.35,7.21-2.42,6.91-2.3-.08-.25-3.32.81-.86-.4-2.53,1.08-6.84,2.9-9.95,4.06-.16.03-.31.07-.44.08l.31-.15c-.72.25-1.36.52-1.94.8-1,.35-1.65.55-2.59.93-.44-.04-3.63,1.47-5.19,2.14.24.2-1.81,1.05.19.43-.25.09.28-.16,1.31-.62.23-.11.5-.23.65-.32-.03.02-.06.04-.1.07,1.02-.45,2.34-1.06,3.86-1.7-1.19.64-2.41,1.33-4.19,1.94-.72.52-1.52,1.07-1.98,1.36-1.15.26-2.74.87-4.13,1.42-1.39.54-2.58,1.01-2.92,1.04-4.58,2.44-10.71,5.92-13.14,8.17-1.21.84-1.51.77-2.03,1,.69-.5,1.55-1.03,1.9-1.34-1.2.87-3.09,1.96-4.59,3.14-1.53,1.14-2.81,2.13-2.98,2.49-3.12,2.02,1.5-1.49-2.62,1.52.16-.17.33-.33.49-.49-4.13,2.86-7.24,5.55-10.17,8.59-1.49,1.49-3.05,2.95-4.63,4.64-.8.83-1.65,1.67-2.56,2.53-.91.86-1.89,1.74-2.86,2.74.55-.54.82-.82.97-.89-1.07,1.17-2.16,2.34-3.24,3.52-1.07,1.2-2.19,2.36-3.16,3.66-1,1.28-2,2.56-3,3.84-.49.65-1.02,1.27-1.48,1.94l-1.38,2.02c-.92,1.34-1.84,2.68-2.76,4.02-.9,1.34-1.7,2.76-2.56,4.12-.83,1.38-1.73,2.71-2.51,4.09-.77,1.39-1.54,2.77-2.33,4.13-1.78,3.09-1.64,3.59-2.37,5.64l-.59.58-1.18,3.53c-.85,2.49-1.74,4.58-2.74,6.83-.53,1.12-.93,2.33-1.32,3.65-.4,1.33-.77,2.77-1.11,4.41l.43-.78c-.16.58-.37,1.32-.59,2.1-.16.8-.32,1.65-.47,2.4-.3,1.52-.56,2.68-.63,2.47-.01.25.05.81-.24,1.71l-.17.04-.22,1.45-.11,1.47-.22,2.93c-.33,2.25-.47,2.06-.62,2.13-.08.03-.16.13-.28.64-.05.25-.14.61-.19,1.11-.04.5-.08,1.15-.12,1.98-.04,2.49.17,7.07.31,6.14.05-1,.2-2.54.37-2.61v2.25c.44.42.84,2.11,1.4-3.34l-.13-3.82c.08-.4.19-.81.33-1.2-.14,1.06-.11,2.13-.17,3.2.14-.9.18-1.64.17-2.32,0-.68.02-1.29.04-1.94.16-.29.31-.81.44-1.56v-3.77c.25-.42.17,1.72.57-.76.08-1.76-.71,1.59-.32-1.29.57-1.76.63-1.2.88-3.33.18-.27.16.19.05,1.03.26-1.89.88-4.96.99-5.95.77-1.76,1.68-6.22,2.05-5.91.02-.62.79-3.27,1.35-4.93-.3,1.59.27.06.94-1.76.61-1.84,1.63-3.82,1.69-3.34.26-1.17,1.07-3.15,2.01-5.32,1.03-2.13,2.27-4.41,3.11-6.34-.08.23-.22.67-.42.99.57-1.04.96-1.69,1.31-2.25.39-.53.71-.98,1.16-1.6-.18-.46,1.66-3.65,2.49-5.48.96-1.11.82-.67.52-.05-.26.65-.66,1.51-.27,1.22-.42-.09,2.54-4.34,1.77-3.68,1.46-1.69,1.19-1.5,2.1-2.25-.16-.59,1.06-1.78,2-3.37,2.18-2.37.87-.37,2.94-3.22,1.15-1.22-.65,1.34-.65,1.34l-.05.04ZM98.71,17.09c-.67.27-1.25.5-1.61.65.34-.13.8-.32,1.61-.65Zm6.65-2.38c-.82.27-1.83.61-2.91.97-.27-.01-.05-.19.63-.42-.34.19,1.25-.3,2.28-.56h0Zm-14.73,3.53c1.02-.49,1.39-.59,1.55-.6-.49.22-1.05.48-1.8.82-.03.02-.08.06-.11.09.08-.09.17-.19.35-.31h0Z"/></g></svg>