<?xml version="1.0" encoding="UTF-8"?><svg id="Layer_2" xmlns="http://www.w3.org/2000/svg" viewBox="0 0 349.99 296.48"><defs><style>.cls-1{fill:#f53f4e;}</style></defs><g id="shapes"><path class="cls-1" d="m2.13,176.07c-.2-4.02-.42-1.88-.66-2.73-.02-.3-.04-.57-.06-.83,0-.24,0-.47.02-.66.01-.39.03-.69.05-.93.03-.47.08-.64.13-.72.09-.16.22.08.33-.74-.06-3-.14-5.34.15-7.57.08-.16.16-.59.15-.07.05-.79.14-1.78.29-2.87.19-1.08.4-2.27.62-3.46.25-1.19.52-2.4.77-3.54.28-1.13.51-2.2.68-3.12.11-.26.17-.39.21-.45-.32.54-.51.58-.59.42.49-1.76.79-3.31,1.2-3.91-.34,1.07-.28,1.19-.38,1.7l.48-1.85c.83-1.54-.68,2.53-.45,2.6.94-3.61,2.26-7.78,3.42-10.4.46-.46-2.32,6.28-.7,2.81-.58,1.36-1.1,2.73-1.61,4.12,1.57-3.03-.92,2.52.6-.24,2.03-5.42,2.08-6.15,4.5-11.43.38-1.27-.41.29-.03-.98,1.61-3.82,2.53-5.18,3.3-6.3.77-1.13,1.41-2.01,2.66-4.79.57-1.48.5-2.21,2.81-5.9l-.42,1.46c2.81-4.91,1.14-3.07,4.34-8.08-.41.98-2.15,3.9-1.68,3.18,2.18-3.18,1.2-2.44,2.69-5l.58-.37c3.05-5.19,6.36-10.95,10.02-16.54-.13.36-.67,1.37.26.12,4.54-7.09,10.33-14.69,15.64-20.8.57-.86,1.19-1.68,1.79-2.53.47-.55.95-.94.49-.31,2.12-2.34-.03-.23.88-1.46,1.16-1.38,1.65-1.7.98-.78,1.78-2.13,4.32-5.2,7.1-8.07.7-.72,1.39-1.45,2.08-2.16.72-.68,1.43-1.35,2.1-2,1.37-1.28,2.65-2.48,3.81-3.37l-.81.82c3.51-2.91,3.47-3.87,6.95-6.32l-.6.55c7.73-6.2,16.85-12.37,23.78-15.45,1.06-1.08,8.85-4.2,9.24-4.89,2.64-1.05,3.62-1.32,4.84-1.75,1.23-.44,2.72-.96,6.48-2.3,2.01-.68,2.86-1.41,5.35-2.31l.15.24,3.3-1.41,1.92-.25,2.34-.8c-.95.28-2.03.5-1.91.38,1.82-.65,4.1-1.26,5.93-1.71,1.83-.45,3.23-.69,3.29-.64,2.91-.88,5.85-1.71,8.79-2.51-.17.16-1.65.54-2.81.93,4.67-1.45.93.07,5.21-1.24-.6.08.28-.23.36-.31,2.21-.35,7.16-1.46,10.83-2.3l-.67.34c6.64-1.34,14-2.91,21.53-3.72-2.71.21-2.13-.19.08-.47l.92.19c1.41-.34-2.32.14.59-.4,2.83-.21,1.93.18.32.4l3.42-.39c.21.07-.59.17-.79.31.69-.16,2.18-.16,3.74-.2,1.56.02,3.19-.02,4.21-.16l.2.09c3.77-.03,6.49.17,9.04.34,2.54.26,4.91.51,7.91,1.14.17-.23,2.5.3,4.31.6,4.34,1.27,8.99,3.18,13.94,5.47,3.51,1.54,1.11.28,2.72.91.16.31,5.01,2.82,2.42,1.66,2.9,1.51,4.73,2.55,6.75,3.69,2.02,1.15,4.21,2.42,7.78,4.57-.72-.56-1.55-1.14-1.06-.92,1.3.77,2.86,1.92,2.62,1.9l-.35-.19c2.01,1.18,4.1,2.6,6.23,4.05,2.09,1.51,4.22,3.06,6.27,4.63,4.09,3.14,7.91,6.23,10.97,8.36l-.34-.24c2.04,1.55,4.14,3.07,6.14,4.69,2.69,2.32-1.74-1.24.17.57,6.62,5.08,9.88,8.68,14.99,13.24,1.68,2.07,5.03,5.38,8.46,8.94,1.7,1.78,3.47,3.59,5.02,5.36,1.58,1.75,3.01,3.4,4.08,4.85l-.15-.42c1.32,1.31,1.38,1.76,2.25,2.81-.03-.23-1.2-1.62-.38-.8,1.31,1.46,2.55,3,3.82,4.53,1.28,1.53,2.51,3.11,3.74,4.7,2.49,3.16,4.87,6.45,7.15,9.8,4.55,6.72,8.59,13.83,11.44,21.23.54,1.34.88,2.21,1.18,2.84.3.63.54,1.03.77,1.5.45.91,1.01,2.03,1.67,5.64-.26-.65-.5-1.31-.79-1.94,1.68,5.6,2.38,11.62,2.51,17.6.11,5.99-.27,11.96-.85,17.72.01-.69-.07-.72.06-1.85-.26,1.2-.53,3.44-.72,5.39-.2,1.95-.43,3.59-.33,3.63-.32,1.77-.22.39-.5,1.46-.47,2.4-.89,6.09-1.36,7.33-.08.2.08-.69.15-1.13-.12.79-.49,2.62-.82,4.05-.36,1.42-.6,2.48-.28,1.77-.62,2.09-1.04,4.12-1.61,6.01-.55,1.89-1.07,3.68-1.65,5.31-.46,2.24-2.58,6.98-2.48,7.79-.29-.44-3.09,6.97-4.17,9.51.27-.89-1.11,2.12-.82,1.07-.32.72-.63,1.41-.92,2.06-.3.64-.58,1.21-.81,1.68-.43.95-.64,1.5-.42,1.3-.78,1.23-1.45,2.51-2.12,3.75-.7,1.23-1.34,2.44-1.95,3.58-1.18,2.31-2.38,4.25-3.52,5.45-4.82,7.96-10.04,14.88-15.63,21.14-.03-.13.37-.6.93-1.27.55-.69,1.29-1.55,2.01-2.4,1.45-1.7,2.84-3.34,2.54-3.35-1.25,1.54-2.37,2.93-3.42,4.23-.53.64-1.02,1.29-1.54,1.89-.53.6-1.05,1.18-1.57,1.76-1.04,1.16-2.08,2.34-3.23,3.54-1.19,1.16-2.47,2.38-3.93,3.72-1.52,1.36.72-.93,1.17-1.45-5.67,5.58-11.59,10.07-17.35,14.15,0-.04.6-.51,1.17-.94-1.15.8-2.7,1.78-2.47,1.85l1.09-.81c.99-.52-.07.38-1.4,1.44-1.36,1.03-3.03,2.15-3.1,2.28,1.75-1.68-6.05,3.52-3.17.99-.76.51-1.75,1.11-1.5,1.13-1.21.61-1.63.76-.48-.02-2.17,1.23-2.84,1.68-3.47,2.09-.63.42-1.2.8-3.26,1.76-.02-.09.79-.51,1.16-.81-.99.57-2,1.14-3.17,1.77-1.19.63-2.55,1.34-4.35,2,.19-.14-.25-.03.81-.47-3.03,1.26-5.55,2.52-8.26,3.51-1.35.52-2.7,1.06-4.17,1.59-1.49.46-3.06.93-4.81,1.4,1.93-1-2.38.61-2.85.32l-3.74,1,1.55-.21c-1.66.38-3.18.86-4.69,1.2-1.5.32-2.96.63-4.4.83l2.46-.6c-2.08.38-4.16.88-6.26,1.11l1.8-.16,1.78-.27c-1.67.4-1.57.49-1.6.56-.04.09-.2.15-2.46.39.91-.16-3.39.45-5.16.43h0c-1.66.22-3.39.45-5.91.56-.66-.07.51-.41.08-.46-.81.24-2.8.25-4.85.31-1.02.03-2.06.06-2.97.1-.91.03-1.7,0-2.23.07.7-.04.75-.21.51-.26l-1.4.17c-1.58-.14-1.8-.19-1.54-.33-2.36-.13-2,0-1.73.1.13.05.23.1-.05.1-.28,0-.95,0-2.34-.21.44.03.24-.03,1.15.03-2.8-.37-5.53-.54-8.18-.88-1.33-.18-2.63-.35-3.93-.59-1.3-.21-2.57-.46-3.84-.77-.71-.32.4-.11,1.48.1,1.09.2,2.15.37,1.31.07-3.67-.66-7.47-1.41-11.2-2.33-3.73-.94-7.39-2.02-10.81-3.24l1.27.47c-1.12.15-5.02-2-8.5-3.15.85.31,1.19.18.94.15-4.59-1.88-9.44-3.73-16.29-6.87l.9.29c-1.3-.67-3.02-1.55-4.76-2.44-1.73-.91-3.48-1.84-4.88-2.58-.89-.33-2.45-1.23-1.58-.54-8.22-5.25-16.33-8.96-23.21-14.28.86.57,2.11,1.28,1.42.82-2.07-1.32-4.13-2.67-6.15-4.06.36.5.71.66,1.89,1.69-.83-.43-2.6-1.55-4.09-2.61,2.8,1.79.16-.28-.92-1.22.15.19-.29-.04-.22.08-2.88-2.59-.78-.03-4.86-3.37l.29.08c-1.6-1.16-3.12-2.15-4.78-3.47-.55-.73,1.73,1.19,1.96,1.11-2.39-1.78-4.89-3.31-6.85-5.17,1.01.77,2.47,1.87,3.47,2.63-2.1-2.08-2.44-2.2-4.07-3.64l.16.14-3.77-3.35.93.89c-3.25-1.95-5.81-4.88-9.78-8.01,3.86,3.02.74.38,1.21.44-.89-.92-2.26-2.31-1.8-1.99-1.86-1.49-2.74-2.85-5.35-4.98-.05-.17-1.78-1.81-1.25-1.59-2.22-2.14.41.62.15.52-.89-.79-1.82-1.69-2.77-2.69-.93-1.02-1.91-2.1-2.95-3.23-2.06-2.26-4.21-4.77-6.61-7.22-3.94-4.39-4.85-5.06-8.26-9.36-.98-1.57,1.15,1.03,1.15,1.03-1.67-2.47-2.98-4.28-4.61-6.58.37.43.11-.09-.27-.86-1.24-1.88-1.11-1.08-2.51-3.71.34.39.81.87,1.46,1.75-.71-1.11-1.44-2.21-2.16-3.33-.68-1.14-1.41-2.27-2.06-3.48-.09-.37.14-.02.46.52.34.53.8,1.23,1.06,1.63-.79-1.33-1.7-3.1-2.52-4.62-.78-1.54-1.42-2.85-1.73-3.24l.72,1.85c-.47-1.02-.04-.62.33.13,1.26,2.32,1.59,3.46,1.56,3.65l-.92-1.72c.36,2.08,3.7,6.96,5.82,10.26l-1.2-1.18,2.45,3.24c.41.76.56,1.38-.58-.21,1.45,2.45,1.51,2,2.75,4.11.13.23.05.15-.12-.04l1.73,2.16c-.39-.39.06.53-.91-.87,2.79,4.14,5.15,6.16,6.12,7.78l-.29-.3c4.57,5.17.62.35,4.27,4.03.59,1.03,1.21,2.03,1.83,3.04l.66.32c.47.54,1.42,1.57,1.17,1.46,1.97,1.79-.22-.41.97.58,2.15,2.69,6.67,6.68,6.9,7.54,1.02.72-2.2-2.44.48.05.42,1.05,3.08,2.89,5.22,5.18-.89-.46-2.92-2.62-.81-.29,1.68.97,4.4,4.23,6.46,5.88.16-.08,1.25.84,2.75,2.14,1.52,1.26,3.41,2.91,5.16,4.28-.14-.05,1.45,1.3,3.48,2.98,2.03,1.68,4.54,3.64,6.15,4.94l-.13-.03c.86.19,4.2,2.82,6.79,4.52-.22.09-.72-.16-2.14-1.06l2.38,1.68c.63.31,1.4.78,2.97,1.84l-.74-.22c3.21,2.19,6.64,4.12,10.77,6.92.36-.06-3-2.67,1.53,0,.1.21.15.49-1.05-.18.39.22,1.43.74,2.18,1.27l-1.91-.91c1.89,1.26,1.11.47,2.65,1.42-.12.13,1.08.8.79.8-.4-.23-1.31-.89-1.94-1.18,1.74,1.08,3.79,2.48,4.44,2.99-.1-.17.13-.21,1.43.53,3.36,1.93,1.04.85,2.96,2.06.89.34,2.99,1.65,3.18,1.45,1,.55,1.11.76,1.46,1.03,1.81.86,8.33,4.31,6.45,3.02l-.45-.26c.09.04.19.09.3.14,5.97,2.73,12.22,6.09,18.34,8.41l-.04.08c3.65,1.36,8.12,3.05,10.83,3.71,1.09.38,2.54.98,2.04.94,2.87.82,3.21.83,7.32,2.1-2.93-.62.96.43-3-.7,3.71,1.11,4.54,1.46,8.65,2.17-1.44-.08,2.79.91,4.63,1.14-.89-.21-1.76-.43-2.64-.67,1.02.2,1.97.38,2.9.54.93.16,1.82.36,2.74.49-.35.05-.69.1-1.03.14,3.9.86,7.51.98,10.85,1.22,1.68.05,3.29.04,4.86.12.78.03,1.56.08,2.33.15.77.06,1.53.07,2.29.15,1.05-.12-.03-.14-1.13-.17-1.11,0-2.24-.16-1.3-.23,1.82.05,3.69.1,5.24.21,1.56.09,2.8.19,3.38.13,2.51-.09,3.67-.29,4.85-.49,1.18-.17,2.39-.45,4.99-.73-.68-.02-1.33-.23,2.52-.82.91-.09,1.64-.19,2.19-.25.56-.06.94-.06,1.13-.04.39.05.05.24-1.08.49-.86.18-1.29.21-1.26.16-1.16.19-2.7.43-1.24.36l.46-.17c.91-.02,2.6-.35,3.92-.55,1.32-.21,2.28-.34,1.71-.15,2.71-.6,1.13-.38-.89-.07,1.16-.17,2.2-.34,3.16-.51.96-.19,1.85-.43,2.76-.64.9-.22,1.81-.44,2.78-.67.97-.23,2.02-.46,3.18-.79-.75.16-1.46.24-.73.03,3.41-.94,4.14-1.22,4.6-1.43.23-.11.38-.2.77-.35.38-.14,1-.37,2.12-.78,2.62-.76-.79.69,3.71-1.05,2.82-.89.7.06-.39.53,2.06-.8,3.97-1.54,5.67-2.21,1.7-.65,3.23-1.12,4.37-1.67-.68.38-1.4.68-2.1,1.01,1.27-.55,2.3-1.06,3.34-1.56l-1.29.38c1.25-.56,2.29-1.05,2.3-.96,1.21-.74-1.12.14,1.31-1.23,1.72-.62,4.85-2.64,5.54-2.68-5.07,2.63.71-.03-3.55,2.29.82-.44,1.81-1.01,3.04-1.62.2-.08-.14.15-.46.34,2.46-1.2,2.98-1.56,3.5-1.98.53-.4,1.03-.88,3.45-2.36-.53.52,1.29-.42,2.06-.94-1.96,1.19-1.07.35.65-.86,3.1-1.89,3.21-2.29,4.8-3.34l-1.82,1.18c.5-.56,2.04-1.52,4.05-3.05.12-.02-.32.36-.71.65-.4.28-.72.52-.34.28,1.07-.91,2.34-1.86,3.77-2.83.71-.49,1.45-1,2.2-1.55.75-.54,1.46-1.19,2.18-1.86,1.46-1.1.33.12,1.59-.87,1.6-1.5,2.55-2.23,3.46-3.04.93-.8,1.88-1.61,3.49-3.26-1.13.75-1.22.98.94-1.45-1.76,1.82-3.58,3.56-5.38,5.36l3.32-3.58c-1.68,1.55-3.37,3.46-4.46,4.3.84-.81,1.17-1.2,1.22-1.29.05-.09-.21.12-.68.43,1.25-.95,2.33-2.05,3.46-3.21.56-.58,1.13-1.16,1.74-1.75.58-.61,1.18-1.24,1.84-1.86l.3.45c1.96-1.9,3.62-3.67,5.23-5.75.83-1.02,1.69-2.07,2.62-3.21.9-1.16,1.86-2.43,2.98-3.8l-1.47,1.73c.2-.44.87-1.3,1.65-2.29.39-.5.81-1.02,1.21-1.54.39-.52.75-1.06,1.07-1.54.03.28.9-.85,1.55-1.59-.08,0,.66-1.05,1.44-2.19.79-1.15,1.49-2.46,1.53-2.81l1.89-2.54c.81-1.18,1.34-2.16,1.78-3.02.44-.85.79-1.59,1.13-2.32.34-.72.68-1.45,1.1-2.28.41-.84.87-1.82,1.5-3.02-.58,1.56.67-.6-.89,2.73.84-1.63,1.62-3.08,1.52-3.15.29-.45.82-1.61,1.39-2.83.55-1.23,1.08-2.55,1.51-3.28.25-.73.19-1.04,1.06-2.9.12-.19.08.04.08.04-.05-.03,1.15-3,.28-1.42,1.29-2.51,2.86-6.13,4.05-9.77,1.33-3.61,2.3-7.23,3.27-9.5,1-3.86,2.15-8.53,2.83-12.09,0,.24.08.03-.07.69,1.2-4.86.14-3.1,1.27-8.66.76-2.81-.34,3,.06,1.24.34-.34.66-2.03.88-4.12.21-2.09.42-4.56.82-6.44l-.08.92c.53-2.89.46-7.13.59-11.92,0,0,.04.23.09.03-.2-3.28-.49-9.47-1.26-14.01.42,1.39.38,2.07.51,1.16-.3-2.04-.26.63-.95-3.42-.06-1.34-.61-4.27-.48-4.71.32,1.27.58,2.54.83,3.82-.02-2.04-1.07-4.94-1.59-6.93l.21.22c-.88-2.87-1.51-4.26-2.14-5.69-.65-1.43-1.33-2.9-2.68-5.81l.19.64c-.9-1.51-1.18-2.17-1.47-2.85-.28-.68-.54-1.37-1.5-2.83l-.19-1.1c-.61-.98-1.7-2.69-2.96-4.55-1.28-1.86-2.7-3.88-3.91-5.55,1.56,1.75,4.33,5.73,5.97,8.26-1.12-2-4.15-6.59-4.98-7.46.55.74,1.26,1.66,1.72,2.45-1.77-2.19-3.96-5.14-6.69-8.79.52.12-1.21-2.29-3.35-5.03-2.09-2.78-4.66-5.83-5.49-7.29-5.36-6-10.39-12.13-17.03-18.77,1.96,2.75-1.93-1.95-1.92-1.13-1.59-1.49-2.19-2.08-2.3-2.23l-2.26-2.42-2.31-2.37c-1.04-1.19,1.61,1.33,1.55,1.09-3.48-3.28-1.31-1.54-3.54-3.8.36.57-1.43-.89-3.43-2.75l2.71,2.74c-2.6-2.11-3.61-3.15-4.62-4.19-1.03-1.03-2.07-2.05-4.74-4.12l1.74,1.24c-1.34-1.1-3.83-3.09-6.34-5.05-2.52-1.94-5.11-3.79-6.59-4.64-.46-.41-1.02-1.01.23-.14-6.57-5.05-15.28-10.25-20.6-13.82l.6.21c-1.32-.8-2.4-1.22-3.99-2.33.12,0,.6.2,0-.17-.72-.38-3.65-1.89-5.4-2.95l1.6.73c-3.47-2.07-6.27-3.44-8.98-4.6-2.71-1.16-5.32-2.14-8.51-3.3.08-.19-1.36-.87-3.23-1.59-1.87-.72-4.18-1.4-5.73-1.82l.12-.03c-4.63-1.13-8.66-1.58-12.59-1.78-3.94-.18-7.78-.1-12.13.18-2.72-.09-7.3.22-12.25.88-4.96.65-10.26,1.62-14.53,2.37,1.32-.18-.15.34-1.65.69-2.01.32-5.43,1.45-5.2,1.01l.71-.15c-1.57-.03-5.64.97-8.81,1.73l-.41.59c-4.24.65-9.64,2.11-14.51,3.63-2.45.73-4.75,1.53-6.75,2.13-1.98.66-3.66,1.14-4.81,1.37-1.9.81-4.32,1.65-6.18,2.52v-.28c-5.35,2.01-8.02,3.07-14.38,6.18l1.22-.79c-3.62,1.7-4.19,2.9-7.43,4.63l-1.14.21c-1.52.86-3.06,1.69-4.55,2.59l-2.26,1.33-2.21,1.42c-1.45.97-2.95,1.88-4.33,2.93-1.39,1.04-2.77,2.11-4.1,3.2.06-.12.15-.32,1.05-1-1.36.93-3.83,2.93-5.88,4.55-2.02,1.67-3.48,3.12-2.87,2.91-.13-.09-1.52,1.06-3.14,2.63-1.59,1.61-3.51,3.53-4.77,4.92l.23-.6c-1.97,2.51-2.03,2.6-4.98,5.88-.73.76-.76.54.22-.44-2.44,2.51-1.68,2.15-4.57,5.23.31-.43.59-.88.91-1.3-2.36,2.7-2.1,2.55-3.25,4.18-1.41,1.76-4.33,5.25-4.86,5.51-.21.45-1.24,2.13-2.58,3.78-.24.17.18-.47.4-.79-.94,1.17-1.74,2.2-2.43,3.16-.67.98-1.26,1.84-1.82,2.68-1.12,1.65-2.1,3.12-3.36,4.75-.12.03-.3.22-.52.48.68-.98,1.32-1.92,1.9-2.76.6-.83,1.14-1.57,1.58-2.18.89-1.22,1.41-1.93,1.31-1.78-.19-.14-2.48,2.97-.94.29-1.7,2.6-4.39,7.17-6.56,10.23-.12.14-.23.28-.34.37l.19-.34c-.5.71-.9,1.37-1.27,2-.69.98-1.13,1.6-1.76,2.57-.4.27-2.43,3.69-3.47,5.3.3,0-1.04,2.13.36.22-.18.24.17-.32.83-1.41.15-.25.32-.54.41-.7-.02.04-.03.07-.05.12.67-1.07,1.54-2.46,2.53-4.04-.71,1.35-1.45,2.75-2.7,4.47-.39.92-.83,1.93-1.07,2.49-1.66,2.05-4.44,6.29-4.97,6.81-2.87,5.11-6.77,12.05-8.02,15.55-.72,1.5-1.01,1.64-1.35,2.16.38-.88.93-1.89,1.1-2.39-1.46,3-4.36,8.88-4.33,9.76-1.84,3.78.66-2.29-1.6,3.03l.21-.76c-2.48,5.14-3.86,9.6-5,14.25-1.12,4.66-2.07,9.49-3.02,15.75.12-.87.18-1.3.25-1.48-.47,3.57-.59,7.24-.54,10.92.11,1.84.18,3.69.34,5.53l.74,5.5c1.25,7.3,3.37,14.36,5.71,21.07,1.33,3.82,1.81,4.09,2.92,6.28l.1.91c.63,1.26,1.38,2.45,2.08,3.67,2.79,5.25,4.11,9.5,8.32,15.78l-.35-.93c.69,1.17,1.82,2.99,2.72,4.48.94,1.48,1.65,2.62,1.44,2.49.18.22.64.65,1.12,1.59l-.08.15c1.25,1.83,2.56,3.62,3.83,5.44,2.77,4.34-.93-.35,3.24,5.91,1.62,2.28,4.83,6.33,4.32,5.4-.63-.93-1.55-2.42-1.48-2.57l1.5,2.07c.61.14,2.07,1.52-1.22-3.82l-2.66-3.46-.62-1.28,2.06,3.04c-1-1.83-1.88-2.83-2.8-4-.1-.35-.39-.89-.83-1.65l-2.68-3.35c-.15-.52,1.32,1.42-.17-1.02-1.24-1.58.73,1.82-1.17-.91-.96-1.87-.5-1.43-1.94-3.41-.09-.35.24.05.8.84-1.3-1.75-3.06-4.87-3.84-5.72-.96-1.96-3.71-6.33-3.28-6.33-.45-.53-2.09-3.21-3.05-4.97,1.08,1.49.18-.14-.8-2.11-.95-1.99-2.05-4.27-1.6-3.95-.82-1.1-1.78-3.34-2.9-5.78-.57-1.22-1.02-2.55-1.55-3.82-.49-1.28-1.05-2.49-1.45-3.61.12.24.33.72.46,1.12-.81-2.55-.92-3.34-1.38-4.99-.52-.2-1.61-4.22-2.41-6.35-.19-1.65.03-1.18.27-.44.29.73.66,1.73.69,1.2-.34.25-1.46-5.5-1.48-4.36-.26-2.5-.36-2.13-.23-3.46-.49-.37-.36-2.3-.9-4.33-.08-.9-.02-1.42,0-1.74.03-.32.06-.46.08-.59.04-.28.04-.6-.13-2.58.04-1.88.38,1.62.38,1.62h-.03Zm33.29-87.22c-.44.69-.83,1.29-1.07,1.67.22-.35.53-.83,1.06-1.66h0Zm4.56-6.61c-.59.79-1.27,1.79-2,2.85-.23.19-.13-.12.33-.78-.19.4.9-1.15,1.67-2.07Zm-10.92,13.19c.65-1.1.92-1.43,1.06-1.55-.32.52-.68,1.12-1.17,1.91-.02.04-.04.11-.06.15.03-.13.06-.27.16-.5h0Z"/></g></svg>