<?xml version="1.0" encoding="UTF-8"?><svg id="Layer_2" xmlns="http://www.w3.org/2000/svg" viewBox="0 0 295 282"><defs><style>.cls-1{fill:#f53f4e;}</style></defs><g id="shapes"><path class="cls-1" d="m175.5,1.42c-3.39-.33-1.62.19-2.36.32-4.05-.26-1.85-.42-3.21-.72-2.54-.11-4.51.05-6.39-.08-.13-.07-.5-.11-.07-.15-2.7.08-7.95-.44-11.1-.16-.23-.04-.35-.07-.41-.1.5.19.57.37.47.5-1.52-.03-2.83.14-3.4-.08.93,0,1.01-.07,1.45-.13l-1.6.08c-1.44-.35,2.18-.09,2.19-.31-3.12.02-6.75.32-9.14.26-.5-.31,5.59-.16,2.39-.42,1.24.02,2.47.08,3.7.12-2.83-.53,2.25.06-.34-.51-4.88-.1-5.46.16-10.33.24-1.09.24.37.25-.71.49-6.87.71-5.5-.49-10.53.41-.65.18-1.08.39-1.81.58-.72.19-1.74.34-3.54.52l1.17-.55c-2.34.34-2.99.57-3.67.78-.68.23-1.39.34-3.84.72.42-.15,1.32-.38,2.04-.51.71-.12,1.24-.21.89-.18-3.22.24-2.19.62-4.61,1.07l-.56-.22c-2.48.47-5.02,1.23-7.64,1.92-1.31.34-2.61.8-3.93,1.2-1.31.43-2.66.78-3.96,1.26.27-.19,1.14-.58-.12-.27-6.67,2.22-14.14,5.04-20.33,7.84l-2.22,1.37c-.53.28-1.05.41-.5.06-2.39,1.13-.04.22-1.11.92-1.32.71-1.83.78-1.03.27-1,.61-2.25,1.28-3.55,2.11-1.31.81-2.73,1.68-4.16,2.56-1.41.9-2.83,1.8-4.15,2.65-.67.41-1.31.81-1.92,1.18-.6.39-1.16.75-1.7,1.07l.74-.62c-3.2,2.11-3.25,2.88-6.21,4.83l.51-.45c-1.67,1.24-3.4,2.48-5.01,3.86-1.63,1.36-3.3,2.68-4.8,4.09-3.11,2.71-5.87,5.42-8.28,7.5-.28.57-1.73,2.02-3.08,3.46-1.35,1.44-2.57,2.89-2.53,3.27-1.63,1.73-2.22,2.35-2.97,3.15-.72.82-1.63,1.81-3.62,4.53-1.03,1.48-1.2,2.42-2.3,4.35l-.28-.1c-.44.92-.84,1.84-1.23,2.77-.35.41-.72.83-1.07,1.25-.3.63-.59,1.26-.87,1.9.37-.74.9-1.52.92-1.36-.68,1.48-1.58,3.24-2.28,4.65-.71,1.41-1.27,2.47-1.35,2.48-.88,2.41-1.68,4.84-2.39,7.29-.06-.2.3-1.43.57-2.41-1.03,3.98-.55.6-1.45,4.25.21-.46.09.31.11.41-.74,1.73-1.9,5.81-2.6,8.87l-.04-.63c-.78,2.73-1.4,5.65-2.07,8.66-.57,3.02-1.22,6.12-1.7,9.27.48-2.24.73-1.66.46.19l-.43.69c0,1.22.44-1.9.26.57-.43,2.33-.61,1.51-.49.15-.12.95-.26,1.91-.33,2.87-.11.15-.08-.53-.16-.72.05,1.2-1.01,4.9-.85,6.65l-.1.15c-.33,3.17-.56,5.47-.65,7.64-.07,1.08-.12,2.12-.18,3.22-.06,1.1-.07,2.25-.11,3.55.28.11.11,2.13.31,3.68-.06,1.91-.11,3.91-.17,6.01.03,2.11,0,4.32.16,6.61.36,3.21.3.92.55,2.36-.23.26.13,4.82-.22,2.47.28,2.74.51,4.49.74,6.41.31,1.92.64,4.02,1.32,7.44-.05-.76-.14-1.6,0-1.18.27,1.23.44,2.84.29,2.68l-.09-.32c.46,1.91.82,3.97,1.3,6.07.44,2.11.85,4.28,1.39,6.37.26,1.05.5,2.09.75,3.11.26,1.01.58,1.98.87,2.92.59,1.87,1.15,3.59,1.86,4.99l-.14-.31,1.27,2.97.64,1.49.7,1.46c1.14,2.75-.88-1.56-.14.51,1.51,3.15,2.71,5.62,3.85,7.97.53,1.19,1.12,2.3,1.75,3.44.62,1.14,1.28,2.3,2.03,3.52.86,2.07,2.85,5.5,5.27,8.87,1.14,1.74,2.49,3.38,3.66,4.98,1.15,1.61,2.31,3.03,3.18,4.26l-.09-.37c1.11,1.09,1.12,1.51,1.82,2.42,0-.21-.96-1.4-.28-.72,4.36,4.92,9.11,9.77,14.28,14.26,5.17,4.48,10.81,8.49,16.68,11.88,4.32,2.43,2.84.63,8.27,3.69-.58-.13-1.15-.32-1.73-.48,9.15,3.96,19,7.45,28.57,9.21-.58-.06-.62.03-1.54-.18,1.94.73,7.44,1.55,7.5,1.37,1.49.28.32.23,1.22.48,1,.24,2.29.4,3.46.51,1.17.11,2.21.21,2.73.41.18.07-.58,0-.96-.05,1.34.11,6.18.87,4.94.44,1.8.3,3.53.47,5.17.6,1.64.15,3.19.29,4.63.48,1.9-.11,6.19.63,6.82.26-.29.43,6.33.74,8.64.62-.77.1,1.99.23,1.08.36,2.62.11,5.02.1,4.57-.13,4.81.69,9.71-.2,12.42.46,7.79-.25,15-.71,21.97-1.47-.21.51-7.72.64-7.4,1.07,1.66-.17,3.14-.33,4.53-.47,1.39-.15,2.69-.37,3.99-.54,2.6-.31,5.17-.77,8.46-1.13.85-.1.62-.03.1.11-.51.11-1.31.29-1.6.34,6.56-1.11,12.72-2.12,18.39-3.91,0,.04-.61.24-1.19.42.57-.14,1.23-.31,1.72-.44.5-.15.83-.29.73-.36-.36.12-.71.26-1.09.36-.94.09.15-.3,1.47-.87,1.31-.54,2.88-1.13,2.96-1.24-.87.55.55.18,1.82-.18,1.26-.39,2.38-.72,1.02.14.71-.29,1.59-.71,1.38-.77,1.09-.35,1.46-.4.42.13,3.91-1.51,2.42-1.24,5.92-2.68.03.1-.67.43-.98.68.85-.46,1.71-.92,2.71-1.41,1-.52,2.12-1.14,3.59-1.8-.14.13.22.04-.64.46,2.5-1.17,4.46-2.49,6.5-3.77,1.04-.61,2.03-1.32,3.11-2.05,1.07-.73,2.26-1.43,3.48-2.32-1.2,1.38,1.73-1.1,2.21-1,.87-.65,1.69-1.36,2.5-2.08l-1.12.69c1.1-.9,2.1-1.79,3.08-2.64.96-.86,1.83-1.74,2.78-2.51l-1.47,1.53,1.95-1.81c.66-.59,1.3-1.21,1.91-1.86-.73.7-1.51,1.33-2.29,1.96,1-1.03.87-1.06.85-1.14-.03-.08.07-.2,1.43-1.5-.53.55,2.04-1.96,3.17-2.93.86-1.12,1.77-2.23,3.2-3.76.44-.34.02.59.3.37.33-.63,1.38-1.93,2.46-3.25,1.05-1.35,2.07-2.78,2.48-3.57-.29.51-.16.65-.02.51l.51-1.07c.85-1.01.96-1.16.97-.9,2.3-3.22-1.09.77,1.75-2.97-.19.31-.07.19-.47.84,1.43-1.88,2.54-3.87,3.72-5.76,1.1-1.93,2.19-3.82,3.26-5.7.46-.48.04.37-.39,1.19-.45.81-.89,1.59-.4,1.03,3.04-5.48,5.57-11.69,7.89-17.26l-.45,1.03c-.16-.96,1.92-4.08,2.69-7.05-.22.71-.07,1.02-.05.81,1.49-3.87,2.59-8.06,4.04-14.16l-.07.78c.35-1.16.78-2.72,1.17-4.3.37-1.58.75-3.19,1.06-4.48.03-.79.34-2.27-.02-1.4,2.35-7.83,2.26-15.3,3.62-22.36-.09.86-.11,2.05-.03,1.37.19-2.04.35-4.07.48-6.11-.26.47-.2.79-.49,2.06-.07-.78-.01-2.52.12-4.02-.11,2.76.37,0,.56-1.17-.08.19-.12-.22-.2-.12.61-3.16-.39-.56.15-4.9l.1.24c.03-1.64-.04-3.15.09-4.9.3-.71.04,1.75.23,1.87.12-2.48-.27-4.9.08-7.13.04,1.05-.03,2.57,0,3.61.39-2.42.34-2.72.43-4.53v.18l.23-4.18-.1,1.07c-.6-3.11-.01-6.31-.44-10.49.39,4.05.24.67.52.98.09-1.07.17-2.69.26-2.22-.25-1.97.18-3.3-.21-6.08.1-.12-.02-2.11.22-1.67-.13-2.56-.14.61-.28.4-.39-3.94.16-9.31-.65-14.98-.51-4.88-.92-5.76-1.53-10.27-.02-.77.1-.47.23.03.12.5.24,1.18.24,1.18-.13-2.48-.36-4.33-.8-6.63.14.46.14-.04.15-.75-.3-1.86-.49-1.19-.76-3.65.17.4.43.92.68,1.79-.45-2.17-.95-4.3-1.49-6.53.05-.63.5,1.31.75,2.09-.29-1.26-.61-2.9-.97-4.3-.37-1.4-.72-2.57-.92-2.94l.27,1.63c-.21-.92.12-.51.31.14.69,2.12.55,3.14.49,3.27l-.37-1.59c-.1.88.22,2.47.65,4.26.37,1.79.9,3.77,1.09,5.4l-.58-1.3.8,3.28c0,.72-.15,1.23-.44-.36.13,2.35.4,2.04.43,4.07,0,.23-.04.12-.08-.08.13.75.26,1.51.37,2.26-.12-.44-.24.41-.32-1,.2,4.11.9,6.57.73,8.14l-.05-.34c.5,5.68.33.52.94,4.79l-.57,2.92.31.54c.02.59.03,1.75-.09,1.54.28,2.18.11-.38.34.89-.14,2.84.32,7.81-.14,8.46.24,1.01.13-2.72.32.31-.48.87.11,3.5-.11,6.09-.26-.79-.13-3.25-.35-.66.42,1.56-.1,5.04-.06,7.22.35.11.08,4.75.08,8.41-.1-.24-.46,6.88-.8,10.27l-.06-.1c.3.68.02,4.18-.14,6.74-.2-.11-.24-.58-.22-1.97l-.2,2.39c.07.57.06,1.32-.04,2.88l-.21-.63c-.29,3.18-.35,6.44-1.07,10.5.21.27,1.1-3.16.69,1.18-.16.14-.39.27-.3-.87-.02.37-.08,1.33-.25,2.07l.04-1.75c-.37,1.84.04.99-.2,2.48-.18-.06-.29,1.08-.41.84.04-.38.27-1.28.29-1.86-.3,1.67-.68,3.67-.95,4.31.13-.12.25.04.07,1.27-.53,3.15-.41,1.04-.82,2.86,0,.78-.55,2.76-.29,2.86-.18.92-.34,1.06-.5,1.4-.19,1.65-1.66,7.54-.94,5.8l.12-.41c-.01.08-.03.17-.05.27-1,5.35-3.04,10.86-4.67,15.98l-.09-.04c-.51,1.53-1.05,3.22-1.64,4.79-.59,1.56-1.12,3.02-1.46,4.13-.38.87-1.06,1.98-1,1.57-.92,2.27-.9,2.59-2.6,5.7.92-2.29-.51.71.99-2.33-1.48,2.82-1.86,3.43-3.25,6.56.32-1.15-1.34,1.99-2.08,3.32.42-.61.86-1.22,1.24-1.86-.77,1.52-1.57,2.77-2.33,4.07l.13-.87c-.88,1.36-1.71,2.67-2.48,3.93-.76,1.27-1.46,2.51-2.2,3.65-.73,1.15-1.41,2.3-2.19,3.32-.78,1.03-1.58,1.99-2.46,2.88-.87,1.51,2.26-2.72,1.53-1.33-1.8,2.4-4.22,4.44-4.79,5.18-1.39,1.5-1.98,2.24-2.54,3.06-.56.81-1.13,1.65-2.71,3.11.47-.3,1.06-.47-1.15,1.89-2.22,2.04-3.05,2.14-1.69.81.52-.49.81-.7.81-.65.66-.71,1.52-1.64.6-.9l-.2.35c-1.14.95-4.21,3.68-3.6,2.91-1.6,1.58-.59.79.69-.29-1.45,1.25-2.65,2.15-3.81,3.12-.59.47-1.15.98-1.82,1.46-.66.48-1.37.98-2.18,1.54.54-.32,1.09-.55.58-.18-2.36,1.67-2.9,2.02-3.18,2.31-.29.29-.38.46-2.02,1.55-.98.53-.87.33-.91.29-.05-.04-.25.07-1.92,1.1-2.15,1.09-.59,0,.19-.56-1.51.96-2.95,1.81-4.32,2.42-1.36.59-2.56,1.07-3.49,1.51l1.65-.91c-.98.54-1.81.95-2.66,1.36l1.06-.27c-1,.47-1.87.84-1.89.73-.99.58.96,0-1.05,1.08-1.41.48-4.12,1.89-4.73,1.73,1.12-.36,1.62-.58,1.82-.7.2-.11.1-.11,0-.12-.24,0-.56.01,1.24-.77-.69.32-1.52.73-2.59,1.05-.17.03.12-.11.4-.23-4.28,1.23-1.78,1.06-6.17,2.53.51-.33-1.12,0-1.83.26,1.78-.53.93.01-.67.63-2.87.76-3.08.96-4.58,1.35l1.73-.38c-.54.31-1.99.66-3.98,1.22-.2-.09,1.8-.55,1.08-.43-.54.21-1.13.38-1.76.53-.63.12-1.31.22-2.01.32-1.41.19-2.9.44-4.47.82-1.49.13-.2-.29-1.5-.15-1.75.41-2.71.51-3.71.61-.99.07-2.01.13-3.87.47,1.1.09,1.3,0-1.32.57,2.05-.33,4.1-.61,6.13-1-1.29.35-2.6.58-3.9.88.93-.12,1.9-.29,2.79-.43.88-.16,1.67-.33,2.22-.41-1.85.49-1.67.41-.74.45-1.29.07-2.55.25-3.85.49-1.31.22-2.66.52-4.15.54l.03-.57c-4.46.2-7.86,1.06-13.67,1.16l1.87.02c-.76.26-3.57.18-5.45.34.17-.19-1.01-.24-1.81-.34.1.13-4.24.09-4.76.43l-2.59-.26c-2.34-.05-3.68.06-5,.16-1.32.1-2.61.25-4.87.13,1.36-.16-.68-.34,2.34-.42-1.51-.03-2.86-.13-2.89,0-.88-.15-4.18.11-5.55-.14-.64.06-.86.24-2.54.14-.18-.05,0-.1,0-.1,0,.1-2.65-.02-1.18.28-4.6-.8-12.94-.81-16.9-1.77-3.27-.27-7.2-.71-10.14-1.15.2-.03.02-.1.58.01-4.04-.76-2.58.14-7.16-.83-1.14-.38-.52-.3.2-.18.72.1,1.56.26.84.08-.27-.35-1.65-.59-3.34-.89-1.71-.27-3.71-.63-5.19-1.17l.75.13c-1.14-.37-2.59-.63-4.2-.99-1.62-.34-3.43-.71-5.3-1.32,0,0,.2,0,.05-.09-2.68-.41-7.51-1.99-11.06-3.31,1.19.2,1.65.5,1.07.01-1.58-.6.3.59-2.85-.66-.95-.56-3.15-1.62-3.33-2.01.96.44,1.94.84,2.91,1.26-.68-.48-1.62-.89-2.59-1.26-.94-.42-1.91-.8-2.66-1.2l.26-.04c-2.21-1.03-3.32-1.54-4.49-2.09-.58-.27-1.18-.54-1.91-.91-.74-.35-1.59-.85-2.7-1.56l.4.38c-2.62-1.23-1.94-1.43-4.48-2.77l-.5-.81c-.8-.51-2.2-1.4-3.75-2.39-1.5-1.06-3.14-2.28-4.5-3.31,1.69.98,4.84,3.38,6.98,4.6-.74-.56-2.1-1.41-3.25-2.34-1.17-.9-2.28-1.71-2.71-1.93.61.44,1.41.96,1.96,1.48-.99-.6-2.1-1.35-3.32-2.23-1.19-.93-2.47-2.05-3.87-3.29.25-.03-.08-.45-.72-1.11-.62-.7-1.54-1.64-2.55-2.65-.5-.5-1.02-1.03-1.53-1.54-.5-.53-.96-1.08-1.41-1.58-.88-1.02-1.6-1.93-1.95-2.52-4.53-4.79-8.19-10.2-12.31-16.66.93,2.63-1.18-1.91-1.43-1.2-.96-1.52-1.31-2.11-1.36-2.26-.8-1.63-1.54-3.29-2.31-4.93-.47-1.21.93,1.43.96,1.23-1.83-3.46-.6-1.54-1.6-3.93.05.57-.87-1.09-1.76-3.13l1.13,2.94c-2.7-4.79-1.57-4.48-4.06-9.4l.86,1.52c-.66-1.26-1.53-3.71-2.5-6.12-.95-2.42-1.77-4.88-2.45-6.12-.1-.5-.14-1.17.29,0-.93-3.25-2.08-6.84-2.93-10.31-.22-.87-.47-1.72-.65-2.56-.17-.85-.34-1.67-.5-2.47-.3-1.6-.61-3.07-.7-4.39l.22.49c-.23-1.24-.59-2.13-.68-3.72.07.08.22.49.13-.1-.18-.65-.69-3.3-.77-4.98l.31,1.4c-.12-1.65-.3-3.1-.46-4.43-.12-1.34-.27-2.56-.42-3.76-.34-2.38-.5-4.65-.68-7.43.2,0,.32-1.3.43-2.92.11-1.62.11-3.58.22-4.86l.06.1c.24-7.68.37-13.07,1.11-20.17.28-1.08.5-2.56.84-4.25.31-1.7.67-3.62,1.04-5.63.42-2,.82-4.09,1.28-6.1.49-2,.95-3.95,1.44-5.65-.34,1.04-.28-.25,0-1.49.5-1.59.9-4.55,1.2-4.18l-.16.57c.69-1.12,1.52-4.44,2.36-6.98l-.34-.57c1.42-3.22,2.92-7.53,4.59-11.35,1.64-3.83,3.48-7.14,4.76-8.58.77-1.5,1.93-3.22,2.8-4.65l.17.23c1.38-1.87,2.48-3.23,3.66-4.69,1.19-1.46,2.5-3,4.41-5.15l-.65,1c2.2-2.38,2.2-3.57,4.34-5.7l.93-.35c4-4.06,8.63-7.5,12.77-11.31-.03.1-.11.28-.81.89,1.04-.84,3.16-2.33,4.86-3.62,1.7-1.27,3.08-2.25,2.5-2.21.13.12,1.34-.7,2.82-1.8,1.5-1.07,3.32-2.34,4.58-3.23l-.27.49c1-.85,1.52-1.29,2.18-1.74.65-.47,1.43-.97,2.98-1.93.76-.4.75-.19-.27.32,2.54-1.33,1.83-1.32,4.96-2.82l-1.07.75c2.63-1.34,2.36-1.34,3.73-2.24,1.64-.89,5.09-2.35,5.59-2.3.3-.29,1.71-1.11,3.34-1.72.25,0-.31.3-.59.44,1.15-.44,2.13-.88,3.04-1.24.9-.36,1.7-.7,2.46-1.02,1.51-.63,2.84-1.24,4.51-1.63.1.06.32.03.59-.03-1.87.58-3.51,1.23-4.68,1.66-1.16.43-1.84.68-1.7.62.1.23,3.06-.85.83.35,1.15-.52,2.7-1.31,4.34-1.98,1.66-.67,3.4-1.32,4.88-1.74.15-.02.3-.05.41-.05-.1.04-.2.09-.3.12.69-.19,1.3-.37,1.86-.58.95-.23,1.56-.37,2.47-.63.2.05,1.08-.18,2.1-.46,1.03-.25,2.2-.54,2.96-.72-.19-.23,1.83-.68-.1-.43.25-.04-.29.1-1.3.36-.23.07-.5.13-.65.18.03,0,.07-.03.1-.05-1.01.23-2.31.62-3.78,1.05,1.16-.47,2.38-.97,4.12-1.21.74-.35,1.57-.74,2.04-.93,2.18-.21,6.32-.74,6.92-.65.59-.13,1.2-.27,1.83-.41.64-.11,1.29-.22,1.94-.33,1.31-.23,2.66-.47,3.94-.69,2.58-.4,4.94-.77,6.43-1.15,1.36-.2,1.58,0,2.1.04-.79.1-1.72.19-2.14.31,1.35-.21,3.38-.34,5.14-.51,1.76-.13,3.27-.28,3.59-.47,3.47.04-1.93.37,2.82.17l-.64.12c4.67.14,8.46-.07,12.39-.15,3.93-.1,8-.1,13.15.64-.71-.1-1.07-.13-1.21-.21,5.89.56,11.96,1.08,18.01,1.69,6.05.61,12.07,1.37,17.73,2.74,3.22.76,3.61.62,5.62.92l.63.46c1.13.19,2.3.32,3.42.56,1.19.3,2.29.63,3.34,1,1.05.42,2.06.86,3.1,1.3,2.08.95,4.28,1.96,7.12,3.15l-.63-.51c2.02.92,6.2,3.34,5.73,3.36.21.1.71.24,1.38.8l-.03.16c.79.45,1.51.98,2.26,1.52.72.54,1.51,1.03,2.18,1.63,1.49,1.5,1.27,1.49,1.23,1.64-.02.08,0,.19.31.55.32.34.85,1,1.83,2.15.37.42.88.9,1.33,1.42.44.54.9,1.09,1.3,1.55.8.93,1.39,1.56,1.18,1.18-.52-.75-1.29-1.98-1.2-2.13l1.28,1.68c.58.06,1.95,1.21-.88-3.33-.82-.93-1.74-1.77-2.6-2.65-.21-.34-.41-.71-.66-1.02.74.72,1.39,1.55,2.09,2.33-.51-.73-.97-1.29-1.44-1.76-.45-.49-.97-.8-1.46-1.2-.13-.29-.46-.71-.96-1.25-.94-.77-2.05-1.34-3.06-2-.24-.41,1.49.74-.36-.86-1.46-.88,1.07,1.28-1.26-.28-1.34-1.14-.83-1-2.64-2-.18-.26.22-.08.93.33-.79-.49-1.87-1.05-2.84-1.57-.97-.52-1.86-.98-2.34-1.06-.77-.5-2.16-1.19-3.34-1.71-1.19-.5-2.15-.92-1.99-1.08-.29-.05-1.06-.32-1.97-.55-.91-.25-1.95-.54-2.75-.81,1.52.3.07-.31-1.71-.83-.89-.27-1.84-.56-2.51-.8-.68-.24-1.08-.4-.85-.48-2.3-.18-8.01-1.73-12-2.14.23,0,.67,0,1.01.1-2.21-.43-2.84-.64-4.26-.96-.34.31-3.82-.09-5.71-.1-2.69-.69,1.71-.24.9-.69.1.31-4.78-.28-3.89.09-2.06-.46-1.78-.31-2.83-.73-.42.42-1.95-.13-3.71-.03-3-.54-.73-.51-4.08-.7-1.57-.3,1.41-.17,1.41-.17l-.07-.02Zm-78.83,6.42c.65-.23,1.2-.42,1.56-.51-.33.09-.78.25-1.56.51Zm-6.33,2.17c.76-.29,1.71-.64,2.73-.96.26,0,.04.18-.6.39.32-.18-1.19.28-2.14.57h0Zm13.96-2.47c-1,.32-1.34.37-1.5.35.48-.14,1.03-.31,1.75-.52.03-.02.08-.05.11-.06-.09.08-.18.14-.37.23Z"/></g></svg>