<?xml version="1.0" encoding="UTF-8"?><svg id="Layer_2" xmlns="http://www.w3.org/2000/svg" viewBox="0 0 278 230"><defs><style>.cls-1{fill:#f53f4e;}</style></defs><g id="shapes"><path class="cls-1" d="m201.95,10.56c2.75.92,1.4.06,2.05.04,3.35,1,1.44.8,2.5,1.39,2.06.66,3.75.9,5.23,1.58.09.11.37.26,0,.18.56.15,1.23.4,1.97.69.73.31,1.51.69,2.31,1.05,1.61.71,3.22,1.57,4.5,2.02.16.13.24.2.27.25-.3-.38-.28-.59-.14-.68,1.18.59,2.26.98,2.58,1.45-.7-.42-.8-.35-1.17-.47l1.25.6c.92.96-1.7-.84-1.81-.59,1.2.61,2.51,1.27,3.75,1.89,1.21.68,2.34,1.34,3.2,1.95.19.55-4.16-2.52-1.97-.74-.87-.63-1.77-1.23-2.67-1.78,1.86,1.73-1.66-1.01,0,.66,1.8,1.07,2.77,1.74,3.81,2.31,1.02.57,2,1.24,3.71,2.48.88.38-.1-.43.78-.05,5.02,3.34,3.26,3.62,6.92,6.08.98.6,1.62.52,3.78,2.9-.34-.15-.68-.31-1.03-.45,1.47,1.45,1.96,1.78,2.47,2.13.51.35,1.04.72,2.4,2.45-.31-.23-.88-.82-1.33-1.28-.46-.45-.79-.76-.59-.53,1.72,2.28,1.5,1.3,2.98,2.9l.05.58c2.92,3.31,6.08,7.07,8.75,11.26-.23-.17-.75-.84-.24.21,3.45,5.2,6.3,11.85,8.18,17.66.38.69.69,1.4,1.04,2.1.17.52.2,1-.04.47.66,2.3.21.05.69,1.1.45,1.28.37,1.77.05.98.35.99.79,2.19,1.25,3.5.42,1.33.86,2.78,1.29,4.25.38,1.47.77,2.96,1.07,4.36.29,1.41.52,2.72.68,3.83l-.27-.84c.55,3.44,1.37,3.73,1.64,6.99l-.16-.6c1.18,7.49,2.42,15.82,2.58,21.66.55,1.05.57,7.51,1.17,7.94.04,2.18-.01,2.96-.03,3.96-.03,1,0,2.21,0,5.26.02,1.62.42,2.41.46,4.42l-.31.04c.1.9.18,1.82.24,2.73-.14.47-.28.95-.45,1.42-.02.62-.03,1.25-.06,1.87.09-.74.25-1.57.34-1.45-.02,2.96-1.05,7.04-1.24,7.06-.33,2.26-.76,4.5-1.37,6.7-.08-.19.24-1.29.38-2.18-.71,3.59-.45.54-1.22,3.78.22-.39.09.3.12.4-.36.75-.9,1.99-1.51,3.37-.61,1.36-1.31,2.85-1.92,4.11l.06-.59c-2.35,4.42-5.23,9.24-8.74,13.63,1.3-1.54,1.31-.93.33.42l-.65.3c-.49.99,1.14-1.29,0,.62-1.31,1.66-1.14.87-.49-.16-.5.7-.95,1.43-1.48,2.1-.17.04.19-.44.18-.65-.52.94-3.12,3.07-3.85,4.47l-.16.03c-.89,1.07-1.75,1.92-2.51,2.7-.76.78-1.44,1.49-2.1,2.17-.67.68-1.27,1.38-1.98,2.01-.71.64-1.46,1.32-2.29,2.07.11.29-1.25,1.42-2.12,2.5-1.3,1.03-2.76,2.01-4.23,3.11-.74.54-1.49,1.1-2.26,1.65-.8.53-1.6,1.08-2.42,1.64-2.22,1.72-.54.68-1.49,1.55-.15-.05-1.04.48-1.7.87-.66.38-1.1.57-.27-.04-4.07,2.47-5.11,3.33-10.36,6.29.62-.2,1.29-.51.99-.25-.95.56-2.24,1.06-2.15.87l.24-.16c-5.88,3.43-14.38,5.72-19.32,7.74l.28-.12-2.58,1.02c-.87.31-1.74.59-2.62.88-2.46.62,1.42-.6-.43-.27-1.4.51-2.68.91-3.87,1.26-1.19.32-2.31.53-3.4.75-2.17.45-4.21.87-6.6,1.37-3.82-.02-13.29,1.82-18.42,1.44l.3.17c-1.31.28-1.59-.06-2.57-.1.14.15,1.43.16.61.27-11.17.46-23.05-1.14-34.25-3.51-4.09-.91-2.5.46-7.6-1.12l1.54-.02c-8.35-1.52-16.74-4.59-24.65-7.2.49.11.54,0,1.29.3-1.56-.88-6.08-2.36-6.18-2.18-1.19-.54-.21-.3-.92-.71-1.57-.84-4.21-1.44-4.99-2.04-.13-.1.49.12.79.23-1.12-.29-4.89-2.27-4-1.51-1.4-.73-2.77-1.33-4.09-1.91-1.29-.6-2.5-1.19-3.6-1.84-.8-.21-1.99-.86-3.07-1.43-1.06-.59-1.99-1.11-2.32-1.02.41-.34-4.72-2.95-6.53-3.81.64.2-1.44-1.01-.67-.8-1.97-1.14-3.83-2.11-3.6-1.7-3.32-2.72-7.44-4.04-9.06-6.01-5.8-3.53-11.01-7.08-15.79-10.96.42-.2,5.31,4.25,5.41,3.63-4.71-3.39-7.53-5.24-11.67-9.34-1.03-1.11.74.45,1.17.71-4.38-3.86-7.84-8.15-11.14-12.21.04-.02.41.41.75.82-.62-.83-1.36-1.99-1.46-1.75l.64.77c.37.76-.36.04-1.21-.89-.84-.95-1.75-2.14-1.87-2.16.74.55.02-.54-.54-1.58-.56-1.04-1.03-1.98,0-1-.38-.56-.91-1.25-.94-1.03-.49-.89-.57-1.22.08-.42-.96-1.59-1.29-2.09-1.62-2.54-.33-.45-.62-.88-1.33-2.43.09-.03.42.56.67.82-.45-.73-.91-1.46-1.39-2.34-.44-.9-.92-1.96-1.42-3.31.12.14.06-.2.39.59-1.81-4.58-3.31-7.82-4.27-13.25.38.74.32.28.2-.42-.11-.7-.24-1.63-.08-1.82-.2-.96-.42-1.91-.57-2.88l-.02,1.2c-.18-1.28-.39-2.48-.6-3.63-.16-1.16-.3-2.29-.34-3.41l.33,1.9c-.19-1.6-.3-3.22-.4-4.84v2.76c-.33-2.61-.46.31-.53-3.16.04.71-.05-2.61.17-3.97-.07-1.29-.22-2.62,0-4.55.15-.49.39.43.49.11-.26-1.29.35-6.06.3-7.7,0,.55.2.6.26.43l-.11-1.1c.24-1.18.3-1.34.43-1.13.64-3.56-.66,1.05.25-3.15-.04.33.03.18-.05.88.84-4.22,1.5-8.2,2.72-11.96.67-1-.82,3.35-.17,2.17,1.42-5.49,3.1-11.39,5.45-16.34-.16.3-.31.6-.45.91-.17-.95,1.9-3.6,2.94-6.17-.27.62-.14.95-.11.75,1.77-3.27,3.44-6.81,6.43-11.6l-.28.66c1.31-1.74,3.32-4.69,4.85-6.46.33-.64,1.18-1.68.52-1.18,1.27-1.28,2.52-2.52,3.66-3.83.57-.64,1.12-1.3,1.66-1.96.57-.62,1.14-1.25,1.7-1.86,1.13-1.23,2.2-2.48,3.38-3.6,1.19-1.1,2.4-2.14,3.68-3.07-.56.52-1.26,1.32-.81.91l1.95-1.88,2.04-1.76c-.47.08-.63.33-1.62.9.44-.55,1.56-1.61,2.6-2.46-1.79,1.68.24.3,1.13-.25-.18.05.05-.25-.06-.25,1.21-.72,1.24-.88,1.36-1.15.12-.26.34-.61,1.96-1.63l-.09.23c1.12-.9,2.09-1.85,3.39-2.72.67-.14-1.18,1-1.13,1.27.86-.67,1.68-1.38,2.51-2.03.82-.67,1.64-1.28,2.53-1.7-.73.58-1.83,1.31-2.56,1.89,1.95-.9,2.11-1.11,3.47-1.93l-.13.08c1.03-.66,2.11-1.21,3.19-1.8l-.84.4c1.98-2.04,4.65-3,7.66-5.11-2.92,2.1-.4.52-.5.94.85-.37,2.13-.94,1.82-.67,1.39-1.07,2.61-1.14,4.64-2.55.14.04,1.65-.8,1.4-.39,1.97-1.05-.54.06-.42-.14.74-.45,1.56-.89,2.47-1.29.91-.39,1.9-.76,2.92-1.16,1.02-.4,2.09-.83,3.18-1.29,1.09-.43,2.21-.92,3.32-1.48,3.88-1.78,4.54-2.29,8.2-3.81,1.3-.29-.92.73-.92.73,2.06-.6,3.6-1.09,5.49-1.82-.36.21.06.16.67.09,1.54-.51.93-.72,3.01-1.17-.32.21-.73.52-1.44.88,1.79-.67,3.57-1.33,5.44-1.98.55.03-1.08.59-1.72.9,1.05-.34,2.42-.8,3.61-1.18,1.19-.38,2.19-.72,2.49-.95l-1.4.25c.78-.21.46.14-.11.33-1.79.69-2.66.64-2.79.56l1.34-.45c-.76-.1-2.12.31-3.63.84-1.5.52-3.16,1.18-4.51,1.61l1.01-.78-2.67,1.25c-.62.08-1.09-.03.23-.53-2,.41-1.67.7-3.41,1-.19.03-.12-.02.05-.1l-1.84.8c.34-.23-.4-.19.77-.54-3.45.97-5.35,2.22-6.7,2.43l.27-.14c-4.58,1.98-.34.48-3.69,2.21-.87.05-1.73.11-2.59.2l-.34.51c-.47.19-1.41.58-1.29.39-1.67.98.35,0-.59.64-2.39.67-6.14,3-6.84,2.77-.7.61,2.2-.86-.11.45-.45-.09-1.13.27-1.96.74-.83.48-1.78,1.14-2.84,1.56.49-.59,2.45-1.47.34-.62-.99,1.11-3.97,1.96-5.56,3.07.05.19-.83.76-2.06,1.52-.61.37-1.31.78-2.03,1.23-.71.45-1.41.95-2.07,1.42.05-.11-1.24.69-2.87,1.7-1.64,1-3.51,2.41-4.78,3.22l.04-.11c-.13.33-.83.95-1.72,1.66-.87.74-1.89,1.62-2.76,2.36-.06-.25.2-.58,1.09-1.45l-1.66,1.37c-.32.42-.8.9-1.84,1.82l.25-.57c-1.11.9-2.08,2-3.21,3.06-1.09,1.11-2.33,2.18-3.67,3.46.03.34,2.53-1.53-.07,1.39-.2,0-.46-.09.22-.86-.22.26-.75.95-1.26,1.38l.93-1.3c-1.24,1.12-.48.78-1.43,1.72-.12-.17-.79.6-.77.34.23-.26.88-.77,1.18-1.2-1.07,1.06-2.47,2.26-2.96,2.62.17-.01.19.2-.52,1.06-1.88,2.18-.82.57-2,1.76-.36.62-1.67,1.91-1.48,2.16-.54.66-.73.69-1,.89-.88,1.23-4.2,5.64-2.94,4.48l.24-.3c-.04.06-.09.13-.13.2-2.64,4.17-5.82,8.44-7.99,12.9l-.08-.05c-1.24,2.69-2.84,5.93-3.45,7.99-.34.81-.97,1.83-.93,1.43-.4,1.06-.56,1.68-.82,2.39-.26.71-.6,1.53-1.2,3.05.6-2.22-.42.68.67-2.26-1.07,2.74-1.47,3.32-2.15,6.45.04-.56-.2-.05-.5.76-.29.82-.58,1.97-.74,2.65l.72-1.95c-.37,1.55-.81,2.86-1.13,4.24l-.14-.84c-1.87,5.84-1.57,10.9-2.72,15.41.04.82.16,0,.29-.85.13-.84.31-1.69.35-.96-.2,1.39-.44,2.79-.69,3.98-.21,1.18-.38,2.13-.41,2.57-.23,1.92-.07,2.84.02,3.76.09.92.25,1.87.21,3.88.13-.52.38-1,.62,1.98.09,2.79-.3,3.48-.51,1.71-.04-.68-.02-1,.02-.98-.09-.9-.2-2.1-.27-.98l.14.35c-.1,1.41.27,5.27,0,4.39.3,2.12.28.88.2-.69.05,1.82.23,3.21.43,4.62.16,1.42.48,2.82.72,4.66-.04-.6,0-1.16.11-.58.46,2.69.68,3.25.82,3.6.15.35.3.47.79,2.25.38,2.06-.66-.58.54,2.92.56,2.2-.16.57-.52-.27.31.8.57,1.57.8,2.31.24.74.49,1.45.69,2.12.39,1.35.77,2.51,1.13,3.42l-.77-1.6c.46.97.8,1.77,1.14,2.59l-.18-1.04c.36.99.71,1.79.62,1.82.6.89,0-.93,1.1.89.45,1.33,2,3.68,1.96,4.26-1.95-3.89-.07.6-1.81-2.64.33.63.77,1.38,1.21,2.33.04.16-.13-.1-.28-.33.85,1.92,1.2,2.28,1.56,2.63.37.34.73.72,1.88,2.53-.45-.34.27,1.03.69,1.59-.95-1.44-.21-.87.77.36,1.47,2.31,1.8,2.34,2.65,3.49-.33-.43-.61-.9-.92-1.34.45.34,1.26,1.43,2.48,2.86,0,.23-1.14-1.28-.77-.71.77.72,1.44,1.7,2.22,2.73.38.52.78,1.06,1.22,1.6.45.53.93,1.04,1.46,1.54.83,1.09-.15.35.6,1.28,2.45,2.14,2.32,2.71,4.95,4.9-.55-.88-.74-.91,1.19.49-.72-.58-1.42-1.2-2.11-1.83-.7-.62-1.4-1.22-2.08-1.88.92.77,1.89,1.48,2.83,2.21-.61-.58-1.29-1.16-1.9-1.69-.59-.55-1.12-1.04-1.47-1.42,1.34,1.06,1.18.99.74.26,1.39,1.92,3.44,3.01,5.27,4.97l-.43.44c2.87,2.85,5.63,4.34,9.7,7.53l-1.27-1.08c.68.22,2.58,1.86,4,2.74-.24.09.58.75,1.1,1.27,0-.17,3.11,2.14,3.72,2.03l1.78,1.49c3.44,2.35,4.3,1.99,7.63,4.16-1.12-.43.35.66-2-.6,1.13.7,2.13,1.37,2.21,1.25.6.52,3.31,1.6,4.28,2.4.52.19.78.1,2.06.86.12.12-.05.09-.05.09.04-.07,2.1,1,1.06.17,1.65,1.26,4.16,2.63,6.63,3.9,2.49,1.23,4.92,2.43,6.41,3.46,1.32.58,2.77,1.21,4.2,1.85.71.31,1.41.63,2.08.93.68.28,1.33.56,1.93.81-.18,0-.04.1-.49-.12,3.25,1.59,2.24.31,5.94,2.1,1.83,1.1-2.07-.64-.91-.03.29.89,4.64,1.7,7.08,3.09l-.63-.2c1.9.97,4.93,1.46,8.15,2.62,0,0-.18,0-.05.1,2.35.32,6.59,1.61,9.82,2.29-1.05,0-1.48-.25-.94.18,1.43.34-.31-.54,2.54.14.89.39,2.92,1.06,3.14,1.4-.91-.18-1.8-.44-2.7-.67,1.29.77,3.5.86,4.92,1.24l-.21.12c2.08.44,3.17.56,4.28.69,1.12.1,2.27.21,4.52.62l-.45-.2c2.52,0,2.02.65,4.53.68l.69.53c1.65.12,5.76.42,8.71.53-.84.09-2.13.09-3.48.07-1.34-.09-2.74-.16-3.81-.23.81.11,2.19.29,3.48.43,1.28.11,2.48.14,2.91.07-.66-.02-1.49,0-2.13-.12,2.03-.17,4.66-.03,7.89.17-.31.4,1.8.54,4.29.68.62.03,1.26.07,1.9.11.64.01,1.26.03,1.85.04,1.17.04,2.18.12,2.77.28,2.88-.1,5.74-.32,8.72-.4,1.49-.01,3.01-.19,4.57-.32,1.56-.16,3.18-.26,4.85-.53-2.43-.25,1.94-.33,1.44-.91,1.54-.29,2.12-.38,2.27-.35,1.58-.12,3.17-.24,4.73-.47,1.13-.05-1.43.46-1.27.57,3.38-.69,1.46-.03,3.73-.34-.5-.13,1.11-.58,3.04-.91l-2.76.3c1.16-.34,1.99-.53,2.67-.66.67-.15,1.19-.23,1.71-.3,1.04-.14,2.09-.29,4.39-1.1l-1.43.61c.59-.19,1.45-.44,2.42-.73.96-.33,2.05-.71,3.15-1.1,2.16-.77,4.33-1.57,5.37-2.31.43-.09,1.03-.14.02.31,2.8-1.06,5.87-2.37,8.69-3.87,1.41-.73,2.81-1.37,4.09-2.05,1.27-.69,2.45-1.3,3.53-1.77l-.34.35c.97-.57,1.6-1.18,2.91-1.71-.03.1-.32.37.13.12.49-.35,2.43-1.81,3.76-2.49l-1.01.82c1.28-.72,2.4-1.4,3.41-2.05.98-.7,1.85-1.4,2.71-2.06,1.68-1.35,3.29-2.61,5.19-4.24.12.19,1.12-.4,2.33-1.2.6-.41,1.26-.87,1.88-1.32.6-.47,1.16-.96,1.61-1.32l-.02.11c1.31-1.15,2.5-2.22,3.64-3.28,1.12-1.05,2.08-2.19,3.07-3.25.97-1.09,1.96-2.13,2.91-3.27.93-1.16,1.89-2.34,2.93-3.61,3.02-2.67,8.74-10.53,12.12-16.24-.57.84-.2-.32.31-1.39.82-1.32,1.65-3.99,1.89-3.58l-.24.5c.86-.87,2.08-3.89,2.88-6.31l-.37-.59c1.41-3,2.3-7.33,2.68-11.28.38-3.96.34-7.53.7-9.34-.13-1.59-.17-3.57-.37-5.14l.29.07c-.14-4.41-.27-6.6-.86-11.99l.31,1.07c-.28-3.04-1.2-3.73-1.5-6.52l.33-.89c-.58-5.28-.88-10.69-2.09-15.82.07.08.22.2.36,1.05-.17-1.25-.51-3.64-.85-5.62-.36-1.97-.74-3.49-.94-2.98.37-.15-1.02-5.41-1.9-8.14l.37.35c-.9-2.27-1.03-2.3-2.01-5.54-.17-.78.03-.75.24.3-.59-2.61-.83-1.91-1.63-5.05.19.35.35.72.52,1.09-.8-2.62-.86-2.38-1.53-3.73-.64-1.59-1.74-4.88-1.66-5.37-.29-.28-1.06-1.56-1.62-3.07,0-.25.28.27.43.53-.81-2.15-1.67-3.61-2.37-4.96-.78-1.3-1.43-2.45-2.08-3.89.05-.11-.02-.31-.13-.55,1.79,3.15,3.05,5.78,2.9,5.56.24-.13-1.02-2.79.32-.87-.59-1.02-1.51-2.33-2.38-3.74-.91-1.38-1.87-2.79-2.55-4.05-.05-.14-.11-.26-.13-.37l.19.23c-.34-.56-.69-1.03-1.03-1.47-.47-.78-.76-1.28-1.24-2.01,0-.43-1.89-2.76-2.74-3.94-.14.28-1.3-1.2-.36.32-.12-.19.19.19.77.96.14.17.29.38.39.47-.02-.02-.05-.04-.08-.06.55.77,1.35,1.72,2.11,2.9-.73-.88-1.57-1.72-2.39-3.12-.58-.47-1.21-.99-1.56-1.29-.47-.89-1.27-2.11-1.97-3.18-.73-1.04-1.38-1.91-1.47-2.2-3.04-3.16-7.33-7.26-9.79-8.49-.98-.73-.99-1.03-1.29-1.41.58.41,1.22.96,1.56,1.15-.49-.37-1.09-.84-1.72-1.34-.65-.47-1.33-.98-1.97-1.45-.64-.46-1.24-.88-1.72-1.19-.49-.29-.86-.46-1.03-.46-2.43-1.91,1.6.69-1.89-1.69l.53.23c-1.62-1.34-3.25-2.31-4.78-3.25-1.59-.84-3.1-1.64-4.69-2.34-1.58-.71-3.19-1.43-4.91-2.2-1.71-.82-3.56-1.63-5.59-2.72.56.29.85.44.94.55-4.73-2.16-9.84-3.77-14.97-5.04-5.14-1.27-10.33-2.2-15.32-3.14-2.86-.43-3.2-.25-4.96-.2l-.6-.38-3.03.14c-4.25.04-7.35-1.15-12.75-.56l.7.21c-1.93-.01-6.12.32-5.81.08-.2.05-.62.27-1.38.19l-.07-.16c-1.58.17-3.15.41-4.73.63-3.69.2.52-.75-4.85-.23-1.99.29-5.61,1.21-4.85,1.23.8-.1,2.05-.16,2.13,0l-1.8.32c-.27.54-1.58,1.23,2.88,1,1.01-.25,2.03-.45,3.06-.66l1.01.14-2.59.29c1.49.08,2.4-.23,3.45-.48.26.1.7.15,1.31.15l3.01-.73c.38.17-1.33.49.71.45,1.41-.3-1.39-.35.96-.64,1.49.14,1.07.35,2.8.05.25.12-.12.21-.8.31,1.54-.25,4.1-.2,4.89-.51,1.55.27,5.24-.11,5.08.39.48-.1,2.73-.32,4.16-.28-2.62.44,5.32.29,4.6.91,1.95-.37,6.93.37,10.32.64-.19.01-.57.04-.87-.03,1.89.31,2.42.56,3.62.87.3-.38,3.26.05,4.89.17,2.22.89-1.49.18-.83.72-.05-.38,4.06.54,3.32.1,1.69.69,1.48.49,2.3,1.06.43-.45,1.64.33,3.14.45,2.43,1,.53.61,3.3,1.37,1.24.58-1.21-.04-1.21-.04h.08Zm54.63,40.23c-.32-.53-.6-.97-.8-1.24.18.25.42.6.8,1.24Zm2.97,5.21c-.34-.65-.75-1.46-1.22-2.3-.03-.24.19-.11.46.44-.21-.26.41,1.03.76,1.87h0Zm-5.15-12.03c.61.75.75,1.04.79,1.19-.28-.35-.6-.78-1.03-1.33-.02-.02-.07-.05-.09-.06.1.04.2.09.34.22h-.01Z"/></g></svg>