<?xml version="1.0" encoding="UTF-8"?><svg id="Layer_2" xmlns="http://www.w3.org/2000/svg" viewBox="0 0 281 310"><defs><style>.cls-1{fill:#f53f4e;}</style></defs><g id="shapes"><path class="cls-1" d="m41.06,38.58c-1.27,1.58-1.44,2.04-1.42,2.15.03.12.31-.08.13.32-2.74,3.96-1.48,1.68-2.54,2.94-.8,1.28-1.45,2.43-2.07,3.51-.62,1.07-1.12,2.09-1.71,3.05-.13.12-.37.49-.16.02-.76,1.4-1.88,3.47-3.04,5.6-.58,1.06-1.1,2.18-1.62,3.21-.51,1.04-.96,2.02-1.27,2.9-.14.23-.22.35-.27.41.38-.48.56-.5.59-.34-.75,1.64-1.25,3.1-1.7,3.64.46-1,.44-1.11.59-1.6-.23.59-.49,1.16-.71,1.75-.45.73-.23.13.1-.67.35-.78.8-1.75.7-1.8-1.5,3.37-2.9,7.44-3.97,10.04-.47.45,2.32-6.18.73-2.76.56-1.35,1.19-2.66,1.78-3.99-1.7,2.91,1.07-2.43-.55.21-.58,1.32-1.03,2.35-1.38,3.25-.34.91-.62,1.66-.89,2.42-.55,1.51-1.09,3.03-2.06,5.73-.29,1.27.35-.33.05.93-1.13,3.91-1.77,5.39-2.28,6.64-.52,1.24-.99,2.22-1.56,5.17-.23,1.55-.07,2.2-1.2,6.32l.04-1.49c-.66,2.71-.7,3.51-.79,4.34-.06.83-.24,1.67-.84,4.53.03-1.05.76-4.31.54-3.49-.52,1.82-.59,2.49-.61,3.05-.02.56,0,1.03-.26,2.45l-.37.55c-1.05,5.84-1.61,12.35-2.17,18.89-.04-.37-.02-1.5-.25.03-.53,8.27-.84,17.66-.63,25.65l.4,3.04c.04.71-.03,1.32-.12.56.09,3.12.16.15.33,1.64.15,1.76.08,2.34-.1,1.23.38,2.72.74,6.62,1.39,10.52.51,3.91,1.27,7.82,1.65,10.7l-.27-1.1c.32,2.23.74,3.44,1.11,4.63.37,1.18.7,2.32,1.06,4.38l-.21-.77c1.08,4.77,2.47,9.72,3.98,14.34.68,2.33,1.56,4.53,2.26,6.62.37,1.04.7,2.07,1.06,3.03.36.96.7,1.89,1.03,2.76.45.59,1.27,2.86,2.24,4.97.97,2.11,1.92,4.13,2.26,4.31.27.64.49,1.18.69,1.65.21.46.39.85.55,1.19.32.69.56,1.21.82,1.79.28.58.59,1.22,1.04,2.17.23.47.5,1.01.82,1.66.32.64.76,1.36,1.24,2.22,1.06,1.82,1.85,2.55,3.23,4.74l-.17.18,2.17,2.8.8,1.72c.47.67.92,1.34,1.41,1.99-.55-.81-1.06-1.78-.92-1.69,1.06,1.58,2.47,3.42,3.49,4.97,1.05,1.53,1.79,2.72,1.77,2.79l2.92,3.44,1.46,1.71.73.85.77.82c-.1-.04-.41-.34-.81-.73-.37-.41-.82-.92-1.22-1.36,1.6,1.8,1.74,1.96,1.8,2.14.06.17.09.31,1.65,1.86-.35-.48.32.14.42.18.34.43.81.99,1.35,1.62.55.63,1.16,1.36,1.87,2.06,1.39,1.42,2.94,2.95,4.26,4.24l-.62-.38c1.14,1.22,2.46,2.33,3.75,3.52.65.59,1.31,1.18,1.97,1.78.66.6,1.33,1.2,2.05,1.76,1.41,1.14,2.84,2.3,4.28,3.48.7.6,1.46,1.14,2.22,1.7.75.56,1.5,1.11,2.26,1.67-2.12-1.67-1.45-1.53.34-.24l.56.73c1.24.72-1.79-1.44.66.13,1.11.85,1.45,1.18,1.34,1.19-.12.03-.67-.28-1.34-.73.91.67,1.88,1.27,2.85,1.87.13.17-.56-.24-.79-.27.63.32,1.81,1.19,3.08,2.09,1.26.9,2.6,1.84,3.56,2.21l.13.16c3.24,1.91,5.57,3.32,7.88,4.42,2.28,1.15,4.38,2.29,7.19,3.48.2-.15,2.36.88,4.09,1.46,2.07.85,4.26,1.75,6.56,2.69,1.14.5,2.37.84,3.59,1.27,1.24.4,2.49.81,3.78,1.22,3.68.98,1.12.13,2.79.48.21.3,5.46,1.58,2.7,1.04,3.16.76,5.18,1.19,7.43,1.6,2.25.41,4.71.84,8.78,1.34-.87-.2-1.85-.4-1.33-.38,1.47.2,3.33.56,3.11.63l-.39-.03c9.13.95,21.06,2.63,28.47,2.01l-.41.03c2.54-.13,5.09-.36,7.61-.77,1.74-.22,1.23-.12.6.02-.63.13-1.38.28-.07.18,4.09-.74,7.26-1.61,10.19-2.59,2.92-1,5.61-2.14,8.57-3.82,1.24-.49,2.86-1.32,4.68-2.41,1.81-1.1,3.78-2.46,5.74-3.92,1.96-1.47,3.89-3.06,5.67-4.56.45-.38.88-.74,1.31-1.11.41-.37.82-.74,1.21-1.08.79-.7,1.53-1.34,2.21-1.9l-.4.17c1.25-1.34,1.68-1.43,2.69-2.33-.21.06-1.54,1.25-.76.43,5.5-5.45,10.85-11.37,15.83-17.67,4.96-6.33,9.47-13.05,13.5-19.88,2.87-5.05,1.06-3.17,4.71-9.49l-.73,1.96c5.14-10.51,10.23-21.63,13.77-32.51-.16.67-.09.71-.48,1.75.53-1.1,1.22-3.22,1.82-5.06.59-1.85,1.05-3.42.96-3.47.55-1.69.26-.35.66-1.37.83-2.28,1.62-5.86,2.13-7.05.09-.2-.13.67-.24,1.1.35-1.54,2.07-7.05,1.44-5.67.65-2.04,1.13-4.04,1.62-5.92.45-1.89.9-3.67,1.35-5.32.12-1.12.59-2.9.95-4.5.35-1.61.65-3.04.56-3.41.16.19.57-1.65.98-3.88.43-2.22.71-4.85.84-6.21,0,.91.4-2.33.42-1.25.18-1.54.36-3.02.41-4.05.05-1.03.04-1.61-.08-1.35.49-2.83.53-5.72.55-8.28-.02-1.28-.05-2.49-.03-3.58.03-1.09,0-2.05.12-2.87-.46-9.25-2.22-17.73-4.97-25.57.21.09.92,2.28,1.6,4.39.55,2.15,1.09,4.22,1.23,4.01-.99-3.84-2.02-6.79-3.15-9.68-1.13-2.9-2.44-5.7-4.2-9.2-.92-1.81.7.93,1.03,1.53-3.66-6.99-7.77-13.19-12.54-18.33.04,0,.55.54,1.05,1.06-.92-1.04-2.07-2.47-2.09-2.23.32.31.61.66.92.98.62.92-.34-.07-1.55-1.22-.6-.58-1.27-1.21-1.78-1.71-.53-.48-.93-.83-.99-.85.98.67-.2-.58-1.27-1.71-1.09-1.1-2.05-2.11-.51-1.03-.68-.6-1.56-1.34-1.48-1.11-.97-.93-1.25-1.26-.16-.44-1.86-1.63-2.49-2.11-3.1-2.54-.6-.42-1.12-.87-2.86-2.27.06-.05.78.49,1.2.71-.92-.66-1.85-1.31-2.92-2.1-1.09-.76-2.28-1.69-3.79-2.81.21.09-.11-.21.8.45-5.25-3.8-9.26-6-15.32-9.68,1.98.76-2.03-1.32-2.23-1.73-1.13-.59-2.25-1.19-3.39-1.75l1.28.85c-2.95-1.59-5.66-2.75-8.2-4.09l2.28.99c-1.88-.91-3.76-1.81-5.66-2.68,1.05.54,2.1,1.07,3.15,1.63-3.11-1.33.17.49-3.81-1.5.83.36-3.03-1.41-4.55-2.25h0c-1.55-.58-3.14-1.16-5.39-2.18-.56-.33.6-.1.24-.32-1.6-.41-7.27-2.87-9.3-3.35.66.19.75.05.55-.05l-1.35-.31c-1.42-.61-1.62-.72-1.34-.74-4.35-1.65,1.26.86-3.86-1.21.42.13.23.04,1.09.32-5.18-1.99-10.12-3.49-14.93-5.14-1.34-.75,4.25,1.32,2.69.55-6.99-2.26-14.61-4.24-21.45-6.15l1.27.38c-1.05.13-5.05-1.58-8.58-2.26.86.18,1.17.05.93.04-4.71-1.25-9.69-2.26-16.93-3.64l.92.08c-2.78-.7-7.39-1.54-10.43-2.14-.92-.05-2.67-.37-1.63-.03-9.33-2.23-18.09-2.24-26.57-2.54,1.02-.04,2.42-.13,1.61-.13-2.42.08-4.83.19-7.23.46.59.13.95,0,2.48.06-.91.14-2.93.41-4.71.61,3.21-.47-.06-.31-1.47-.2.24.02-.23.15-.1.19-1.9.09-2.03.27-2.35.41-.3.18-.79.31-3.32.78l.24-.15c-.94.22-1.83.49-2.73.77-.91.27-1.82.56-2.81.87-.88.06,1.92-.73,2.02-.89-2.81.83-5.37,2.11-7.89,2.93.56-.26,1.27-.55,1.96-.84.7-.27,1.41-.55,1.99-.77-2.81.72-3.08.95-5.09,1.71l.2-.08-2.3.94-2.27,1,1.17-.48c-3.08,2.04-6.63,3.41-10.69,6.23,3.95-2.72.59-.57.77-.96-1.13.57-2.8,1.5-2.36,1.17-1.88,1.38-3.4,1.91-6,3.93-.17,0-2.09,1.35-1.75.91-2.49,1.71.67-.28.51-.06-3.75,2.79-9.3,5.78-14.61,9.92-2.32,1.72-3.65,2.82-4.93,3.88-1.27,1.07-2.5,2.11-4.55,3.84-1.49,1.03.99-1.14.99-1.14-1.18.86-2.2,1.64-3.16,2.46-.97.81-1.91,1.62-2.89,2.58.38-.42-.09-.08-.78.41-1.64,1.49-.9,1.21-3.1,3.14.3-.41.67-.95,1.38-1.75-1.85,1.85-3.57,3.78-5.3,5.86-.57.45.91-1.38,1.53-2.11-1.06,1.1-2.29,2.65-3.39,3.96-1.02,1.38-1.85,2.56-2.06,3l1.26-1.49c-.67.88-.49.34-.02-.33.72-1.1,1.36-1.78,1.81-2.23.45-.45.72-.64.8-.67l-1.22,1.49c.84-.59,2.03-2.1,3.49-3.69.72-.81,1.47-1.67,2.26-2.46.78-.79,1.52-1.59,2.26-2.22-.33.43-.66.88-.96,1.33.88-.99,1.84-1.9,2.75-2.86.69-.49,1.24-.74-.16.56,2.17-1.71,1.79-1.68,3.71-3.07.22-.15.14-.05-.04.11l2.06-1.75c-.38.38.49-.09-.84.89,3.9-2.86,6.08-4.91,7.7-5.78l-.31.25c5.43-3.97.38-.58,4.36-3.7l3.14-1.43.41-.57c.58-.38,1.73-1.14,1.57-.92,2.05-1.58-.42.16.73-.81,2.89-1.69,7.62-5.19,8.46-5.27.91-.81-2.76,1.61.16-.42,1.07-.21,3.44-2.28,6.15-3.69-.7.66-3.21,2.07-.52.64,1.39-1.26,5.15-2.94,7.4-4.17-.02-.16,1.21-.82,2.93-1.68,1.73-.83,3.96-1.84,5.94-2.66-.11.09,1.78-.63,4.21-1.42,2.44-.75,5.43-1.54,7.4-1.88l-.1.07c.68-.5,4.76-1.17,7.75-1.51-.1.19-.63.27-2.23.58l1.39-.19,1.4-.13c.65-.16,1.52-.3,3.35-.42l-.7.26c3.74-.23,7.56-.49,12.39-.05.29-.18-3.82-.8,1.31-.61.18.13.36.31-.99.27.44,0,1.57.02,2.45.15-.69,0-1.37,0-2.06.02,2.2.25,1.17-.05,2.92.1-.05.14,1.29.23,1.02.34-.44-.04-1.52-.2-2.21-.2,1.98.18,4.36.56,5.14.77-.16-.11.02-.2,1.47-.04,3.74.49,1.25.36,3.42.74.91.02,3.27.52,3.37.31,1.09.19,1.27.33,1.68.46,1.95.2,8.96,1.65,6.85.99l-.48-.11c.09.02.2.03.31.05,6.33.99,13,2.84,19.18,4.27l-.03.07c3.71.81,8.19,2.05,10.84,2.61,1.09.29,2.51.85,2.03.81,2.8.74,3.14.74,7.12,2.07-2.83-.71.93.41-2.88-.77,3.59,1.14,4.36,1.51,8.28,2.52-1.37-.23,2.62,1.1,4.34,1.61l-2.46-.95c1.92.59,3.59,1.16,5.27,1.76l-1-.06c7.18,2.77,13.28,4.13,18.54,6.77,1.96.57-3.85-1.64-2.07-1.18,3.29,1.32,6.57,3.05,7.59,3.48,4.41,2.01,4.32,1.39,8.9,3.58-.55-.34-1-.85,2.48.68,3.2,1.54,3.74,2.25,1.71,1.33-.77-.36-1.13-.56-1.08-.57-1.05-.46-2.42-1.06-1.2-.38l.45.11c1.56.81,5.92,2.98,4.82,2.61,2.42,1.14,1.09.38-.66-.55,3.99,2.16,6.31,3.23,10.33,5.61-.62-.42-1.16-.85-.52-.49,2.94,1.76,3.6,2.12,4.04,2.32.44.2.67.21,2.65,1.43,2.15,1.54-.96-.24,3.02,2.2,2.32,1.65.37.54-.62-.02,3.66,2.17,6.47,4.6,8.37,6.09-.6-.44-1.21-.87-1.83-1.28,1.11.74,1.96,1.43,2.85,2.1l-.9-.92c1.02.82,1.9,1.5,1.83,1.55,1.13.75-.62-.89,1.58.67,1.31,1.16,4.15,3.37,4.43,3.97-4.09-3.69.31.56-3.24-2.43.7.56,1.55,1.26,2.5,2.16.12.15-.17-.09-.45-.31,1.88,1.85,2.38,2.18,2.89,2.56.51.38,1.11.7,3.02,2.65-.59-.39.7,1.08,1.34,1.71-.75-.8-.91-1.02-.66-.88.24.13.85.64,1.57,1.35,1.16,1.32,1.79,2.02,2.3,2.56.51.55.91.91,1.48,1.63-.42-.56-.88-1.08-1.32-1.63.28.23.71.67,1.27,1.29.53.64,1.2,1.45,1.99,2.39.05.23-1.46-1.68-.94-.97.97.96,1.81,2.25,2.75,3.62.89,1.41,1.86,2.92,2.92,4.49.85,1.53-.11.27.62,1.62.57.88.99,1.58,1.33,2.19.32.62.57,1.14.82,1.67.52,1.05.98,2.15,1.99,4.12-.19-.61-.32-.97-.21-.82.11.14.46.78,1.15,2.18-.48-1.12-1.02-2.21-1.57-3.29-.52-1.1-1.14-2.14-1.72-3.22l1.22,2,1.14,2.05c-.92-2.01-2.2-4.11-2.81-5.28,1.22,1.88,1.05,1.72.7.71,1.2,2.79,2.89,5.28,4.04,8.6l-.47.07c1.69,4.94,3.35,8.71,4.48,15.44l-.34-2.17c.18.43.38,1.46.6,2.66.23,1.2.34,2.57.54,3.66-.19-.18-.02,1.19-.05,2.14.09-.12.45,4.96.7,5.57l-.09,3.05c-.1,5.5.41,6.3-.04,11.61-.04-1.61-.32.79-.19-2.76-.09,1.77-.3,3.35-.19,3.38-.11.51-.12,1.74-.24,3.04-.11,1.3-.24,2.67-.41,3.48-.02.75.09,1.01-.23,2.98-.06.21-.08-.02-.08-.02.08.02-.37,3.1.06,1.41-.32,1.34-.7,2.94-1.03,4.67-.35,1.73-.74,3.58-1.11,5.41-.41,1.82-.81,3.62-1.22,5.25-.43,1.62-.84,3.08-1.23,4.2-.92,3.77-2.2,8.27-3.17,11.65.02-.23-.07-.03.13-.66-1.56,4.6-.46,2.98-2.28,8.21-.58,1.3-.37.6-.1-.24.25-.83.55-1.78.24-.95-.34.29-.87,1.87-1.49,3.81-.62,1.94-1.3,4.25-2.12,5.93l.28-.85c-.58,1.3-1.13,2.94-1.75,4.8-.6,1.86-1.39,3.9-2.27,6.05,0,0,.04-.23-.06-.05-.24.76-.54,1.68-.92,2.69-.4,1-.84,2.1-1.3,3.25-.47,1.14-.96,2.31-1.44,3.46-.52,1.13-1.02,2.23-1.49,3.25.42-1.34.78-1.88.23-1.2-.84,1.82.55-.39-1.13,3.24-.62,1.14-2.07,3.64-2.43,3.88.56-1.12,1.17-2.22,1.7-3.36-1.09,1.61-2.23,4.34-3.17,6.08v-.28c-.63,1.29-1.15,2.25-1.57,3.06-.41.82-.75,1.49-1.09,2.16-.68,1.36-1.36,2.78-3.03,5.4l.41-.5c-1.54,3.04-1.6,2.36-3.26,5.31l-.83.68c-.59.95-1.63,2.61-2.78,4.46-1.24,1.8-2.6,3.77-3.78,5.41,1.16-1.98,3.91-5.78,5.35-8.3-.63.91-1.63,2.51-2.67,3.91-1.02,1.43-1.94,2.75-2.22,3.26.51-.74,1.11-1.69,1.67-2.37-.71,1.17-1.57,2.49-2.58,3.96-1.06,1.43-2.31,3.01-3.7,4.73.17-.88-7.69,8.58-10.38,10.43-1.29,1.46-2.77,2.73-4.19,4.07-.72.66-1.45,1.32-2.17,1.99-.74.65-1.51,1.29-2.29,1.93-3.12,2.54-6.48,5.01-10.29,7.44,1.47-.67.92-.31.09.23-.84.54-1.97,1.2-1.61,1.28-1.81,1.1-2.53,1.46-2.71,1.53-1.93.92-3.89,1.75-5.89,2.47-1.44.46,1.79-.89,1.57-.91-2.11.9-2.58,1-2.87,1.05-.29.03-.39.03-1.84.46.64-.05-1.41.79-3.94,1.38,1.2-.25,2.39-.49,3.57-.84-3,1.12-4.4,1.29-5.76,1.49-1.38.17-2.75.36-5.94.81.67-.12,1.34-.24,2.01-.38-1.63.27-4.67.54-7.73.63-3.06.09-6.12.05-7.77.18-.59-.08-1.37-.25.11-.22-3.99-.2-8.45-.39-12.67-.73-4.22-.34-8.2-.81-11.26-1.42l.62-.02c-1.48-.19-2.6-.2-4.42-.64.1-.03.61,0-.06-.14-.78-.1-3.93-.53-5.84-1.05l1.67.23c-3.79-.89-6.7-1.57-9.46-2.22-1.38-.35-2.7-.73-4.08-1.1-1.38-.4-2.83-.75-4.36-1.32.06-.16-1.32-.81-3.08-1.57-.88-.37-1.85-.78-2.78-1.17-.93-.38-1.77-.83-2.47-1.14h.12c-8.28-3.65-13.96-6.53-21.1-10.96-1.03-.81-2.48-1.8-4.13-2.99-1.63-1.22-3.46-2.62-5.39-4.06-1.88-1.49-3.79-3.12-5.67-4.67-1.85-1.58-3.52-3.23-5.04-4.67.91.91-.34.05-1.46-.92-1.34-1.45-4.01-3.69-3.57-3.69l.49.5c-.41-.64-1.36-1.64-2.44-2.81-1.06-1.18-2.27-2.52-3.32-3.69l-.66-.12c-.32-.41-.66-.82-1-1.26-.34-.44-.68-.9-1.03-1.36-.71-.92-1.46-1.89-2.24-2.86-1.6-1.9-3.11-4.01-4.61-5.97-1.53-1.94-2.83-3.91-3.95-5.6-1.11-1.69-2.03-3.1-2.46-4.16-1.11-1.66-2.38-3.78-3.48-5.43l.25-.02c-1.27-2.45-2.24-4.28-3.27-6.26-1.01-2-1.99-4.18-3.48-7.25l.73,1.2c-.84-1.73-1.41-2.81-2.02-3.83-.6-1.03-1.2-2.02-1.88-3.66l-.1-1.11c-.56-1.59-1.13-3.18-1.69-4.77l-.83-2.4-.73-2.43c-.48-1.61-.99-3.22-1.5-4.82-.45-1.61-.91-3.23-1.42-4.81.08.09.22.26.51,1.31-.94-3.04-2.57-11.97-2.79-10.75.12-.06-.2-1.77-.62-3.91-.42-2.14-1.02-4.71-1.28-6.5l.29.53c-.34-1.5-.54-2.28-.73-3.2-.09-.46-.19-.97-.3-1.62-.12-.65-.24-1.46-.35-2.52-.07-1.02.09-.91.16.45-.2-3.38-.45-2.61-.73-6.72l.28,1.51c-.17-1.74-.21-2.54-.28-3.14-.07-.6-.15-1.01-.28-1.97-.1-1.1-.18-2.75-.21-4.2.02-1.45.09-2.68.19-2.94-.13-.47-.32-2.38-.29-4.43.07-.27.13.47.16.85,0-1.46.06-2.72.07-3.87v-3.15c-.04-1.94.05-3.66.27-5.65.08-.08.13-.34.17-.67-.35,4.62-.36,8.35-.38,8,.2,0,.32-3.73.53-.75-.02-.75-.05-1.64-.08-2.59-.02-.96.02-2,.03-3.05.06-2.11.07-4.31.32-6.12.04-.17.07-.35.12-.47l-.02.38c.1-.84.16-1.59.2-2.29.15-1.15.24-1.89.36-3,.16-.42.64-4.24.89-6.08-.24.13.13-2.29-.36-.05.05-.29-.02.35-.18,1.58-.03.28-.07.6-.09.79v-.13c-.16,1.21-.4,2.79-.55,4.6.02-1.48.13-3.02.54-5.05,0-.97,0-2.04,0-2.63.3-1.25.74-3.07,1.13-4.67.38-1.6.72-2.96.87-3.27.2-1.41.52-2.93.81-4.48.29-1.56.64-3.12.97-4.63.31-1.51.64-2.95.93-4.24.29-1.28.48-2.43.65-3.31.4-1.57.63-1.75.87-2.32-.22.91-.54,1.97-.63,2.47.76-3.15,2.75-9.18,2.78-10,1.49-3.8-.52,2.25,1.31-3.05l-.17.74c.5-1.28,1.03-2.49,1.49-3.66.47-1.17.9-2.32,1.37-3.41.44-1.11.87-2.19,1.3-3.26.45-1.06.9-2.12,1.35-3.19,1.86-4.24,3.89-8.61,7.4-13.63-.47.7-.7,1.06-.84,1.18,3.73-5.89,7.9-11.74,12.62-17.13,4.71-5.38,10.04-10.2,15.68-14.11,1.61-1.1,2.47-1.76,3.17-2.31.71-.54,1.27-.96,2.23-1.68l.84-.26c1.07-.84,2.24-1.54,3.36-2.32.62-.38,1.21-.74,1.81-1.07.61-.31,1.21-.6,1.81-.88,1.2-.55,2.37-1.14,3.64-1.59,1.25-.5,2.54-1.01,3.95-1.57,1.42-.51,2.92-1.15,4.62-1.82-.31.05-.63.09-.95.15,1.25-.41,3.23-1.04,4.85-1.57,1.64-.44,2.92-.74,2.73-.59.25-.09.8-.38,1.81-.54l.1.1c1.04-.27,2.1-.48,3.14-.72,1.05-.24,2.1-.48,3.17-.63,2.49-.27,2.31-.13,2.41-.02.1.12.49.09,4.1-.09.67-.04,1.49-.16,2.31-.2s1.67-.09,2.41-.12c1.46-.09,2.46-.18,1.96-.23-1.1,0-2.8-.09-2.88-.21l2.49-.05c.45-.36,2.42-.73-3.76-1.01-1.44.07-2.86.3-4.29.44l-1.4-.09,3.62-.23c-2.06-.02-3.37.13-4.8.45-.35-.05-.96-.04-1.81.03-.69.15-1.38.27-2.07.45l-2.05.56c-.53-.05,1.81-.63-.99-.18-1.92.52,1.92-.04-1.27.67-2.03.31-1.49.05-3.79.77-.35,0,.13-.19,1.05-.46-2.08.56-5.46,1.64-6.46,2.14-1.06.22-2.74.92-4.16,1.44-1.44.51-2.53,1.05-2.52.83-.59.36-3.37,1.74-5.1,2.7,1.52-1-.13-.17-2.09.81-1.92,1.03-4.09,2.31-3.79,1.87-.27.2-.59.44-.98.7-.38.27-.79.56-1.24.88-.91.62-1.97,1.32-3.08,2.07-1.08.78-2.21,1.61-3.31,2.41-1.1.8-2.09,1.68-2.99,2.45.19-.19.56-.56.9-.8-1.05.81-1.74,1.32-2.35,1.75-.59.45-1.08.83-1.75,1.36-.03.23-.81,1.04-1.77,2-.94.98-2.03,2.15-2.77,2.98-2.55,2.05,1.17-1.63.23-1.13.16.04-.84,1.05-1.71,2.02-.85.99-1.62,1.88-1.16,1.55-1.83,1.7-1.56,1.49-2.57,2.3,0,.59-1.47,1.8-2.62,3.54-2.37,2.72-.86.5-3.2,3.71-.59.73-.41.36-.07-.2.35-.54.88-1.26.88-1.26l.07.02ZM10.96,126.43c.08-.81.14-1.5.18-1.93-.04.4-.09.96-.17,1.93h0Zm-.48,7.88c.06-.96.14-2.15.22-3.41.09-.27.15.03.1.82-.02-.43-.18,1.42-.32,2.59Zm2.92-16.43c-.15,1.23-.22,1.64-.28,1.8.05-.59.14-1.26.25-2.15v-.15c.02.13.05.26.04.5h0Z"/></g></svg>