<?xml version="1.0" encoding="UTF-8"?><svg id="Layer_2" xmlns="http://www.w3.org/2000/svg" viewBox="0 0 305 54"><defs><style>.cls-1{fill:#fff;}</style></defs><g id="shapes"><path class="cls-1" d="m91.18,15.56c4.23-.72,1.93-.73,2.78-1.12,5.05-.88,2.39-.06,4.15-.11,3.15-.58,5.52-1.31,7.88-1.65.18.04.65,0,.12.16.83-.2,1.86-.4,3-.59,1.15-.19,2.4-.4,3.68-.56,2.56-.34,5.18-.7,7.11-1.15.3,0,.45.01.52.04-.66-.12-.78-.31-.67-.48,1.91-.25,3.51-.71,4.27-.53-1.17.14-1.26.26-1.79.41l1.99-.37c1.85.15-2.72.48-2.68.76,1.94-.31,4.04-.69,6.03-1.02.5-.08.99-.17,1.47-.24.48-.06.95-.13,1.4-.18.91-.11,1.76-.2,2.51-.26.67.3-7,.87-2.96.78l-1.16.09-1.16.11-2.32.22c3.6.13-2.81.32.51.53,1.53-.16,2.71-.33,3.73-.45,1.02-.12,1.87-.23,2.72-.35,1.7-.23,3.4-.46,6.44-.72,1.35-.35-.49-.26.86-.61,4.31-.64,6.03-.61,7.47-.51,1.44.1,2.59.2,5.75-.32,1.63-.39,2.23-.92,6.79-1.05l-1.51.55c2.96-.23,3.79-.46,4.67-.65.87-.2,1.78-.35,4.89-.42-1.09.24-4.65.45-3.75.44,4.05.07,2.83-.43,5.92-.63l.67.33c3.15-.24,6.46-.54,9.86-.84.43-.04.85-.07,1.28-.11.43-.03.86-.06,1.29-.09.86-.06,1.72-.12,2.59-.18,1.73-.12,3.48-.23,5.23-.32-.38.13-1.58.3.07.34,2.2-.15,4.49-.28,6.8-.39.58-.02,1.16-.06,1.74-.07.58-.01,1.17-.03,1.75-.04,1.17-.02,2.34-.04,3.51-.06,2.34-.03,4.67-.06,6.94-.07,1.14,0,2.26-.01,3.37-.02.55,0,1.1,0,1.65,0,.54,0,1.08.02,1.61.02l3.25-.35c.76,0,1.41.13.59.2,3.32.09.17-.21,1.76-.35,1.89-.04,2.5.16,1.3.27,1.46-.08,3.24-.17,5.18-.25,1.94-.08,4.03-.17,6.14-.18,4.22-.04,8.47,0,11.56.2l-1.21.09c2.4.08,3.76-.07,5.08-.21,1.32-.12,2.59-.21,4.82,0l-.86.04c2.61.1,5.29.17,7.96.24,1.34.03,2.67.06,4,.09.66.02,1.32.03,1.98.05.66.03,1.31.05,1.95.08,5.18.21,10.05.46,14.02.87.77-.21,3.35-.02,5.82.15,2.47.17,4.84.31,5.2,0,4.48.5,4.6.63,8.03.96l.24-2.63c-1.07-.16-2.51-.36-4.56-.63-2.24-.27-3.38.05-6.15-.18l-.04-.34c-1.26-.01-2.52-.04-3.79,0l-1.97-.55-2.61-.11c1.04.1,2.19.32,2.03.4-2.04-.07-4.51-.32-6.48-.57-.99-.12-1.85-.25-2.47-.35-.62-.11-1-.17-1.03-.22l-9.65-.15c.22-.13,1.83-.1,3.11-.13-5.16.11-.92-.4-5.65-.29.63.11-.35.18-.45.25-2.35-.24-7.7-.34-11.66-.32l.76-.22c-.89-.02-1.8-.06-2.72-.05-.92.01-1.85.02-2.78.03-1.88.03-3.79.06-5.73.1-.97.02-1.95.04-2.93.06-.49.01-.98.02-1.48.03-.49.02-.99.04-1.48.06-1.98.08-3.98.15-5.99.23,2.88,0,2.23.44-.12.56l-.96-.32c-1.51.27,2.46.05-.65.43-2.99.06-2.03-.34-.31-.51l-3.64.25c-.22-.1.63-.19.85-.33-.74.12-2.32.14-3.97.17-1.66.03-3.4.08-4.46.34l-.21-.09c-2,.12-3.73.23-5.3.33-1.57.14-2.97.27-4.33.39-2.72.25-5.25.49-8.51.76-.1.3-2.65.5-4.56.95-2.39.19-4.92.36-7.57.56-1.32.09-2.68.23-4.06.37-1.38.15-2.79.31-4.22.48-4.02.64-1.15.4-2.94.8-.17-.12-1.68,0-2.79.08-.55.04-1,.07-1.13.06-.13-.01.07-.08.8-.22-3.43.48-5.63.81-8.05,1.18-2.42.38-5.06.77-9.38,1.58.96-.03,2.02-.15,1.49.03-1.57.29-3.6.44-3.39.27l.41-.09c-2.42.48-5.04.89-7.73,1.26-2.68.41-5.44.78-8.13,1.15-5.39.7-10.51,1.53-14.32,2.52l.43-.11-3.97.89-3.96.94c-3.68.68,2.16-.64-.59-.28-2.13.54-4.05.97-5.83,1.35-.89.19-1.75.36-2.59.52-.84.17-1.65.33-2.45.49-3.21.63-6.24,1.21-9.74,2.1-2.82.17-7.67,1.23-12.74,2.45-5.07,1.21-10.36,2.6-14.08,3.32l.47.08c-1.84.69-2.32.48-3.72.83.12.05.64-.05.99-.11.35-.05.53-.07-.04.14-7.42,2.13-15.04,4.4-22.61,7.08-7.56,2.7-15.05,5.82-22.17,9.5l1.2,3.23c1.17-.25,2.32-.5,3.46-.75,6.04-1.33,3.2-1.79,10.9-3.06l-2.08.84c3.02-.8,6.09-1.52,9.18-2.23,1.55-.35,3.09-.7,4.64-1.05,1.55-.33,3.11-.65,4.66-.98,3.11-.65,6.2-1.31,9.27-1.96,3.07-.63,6.11-1.28,9.09-1.98-.7.23-.7.34-1.87.57,1.29-.12,3.63-.59,5.65-1.05,2.02-.44,3.72-.88,3.72-.99,1.87-.33.47.11,1.64,0,2.57-.33,6.32-1.54,7.72-1.53.24,0-.7.22-1.16.33.82-.23,2.75-.56,4.28-.84,1.52-.28,2.64-.52,1.82-.53,4.54-.65,8.61-1.68,12.25-2.06,2.3-.72,7.77-1.1,8.44-1.69-.25.51,8.01-.79,10.84-1.46-.94.29,2.51-.21,1.42.16.82-.12,1.62-.25,2.35-.37.73-.11,1.39-.22,1.93-.32,1.08-.2,1.68-.37,1.37-.46,3.06-.11,6.08-.63,8.77-1.09,1.35-.24,2.61-.42,3.76-.54,1.15-.12,2.18-.16,3.05-.07,2.43-.35,4.82-.69,7.17-1.02,2.35-.32,4.67-.58,6.95-.86,2.29-.27,4.54-.54,6.78-.8,2.24-.24,4.45-.44,6.65-.65-.14.26-2.57.47-4.92.68-1.17.1-2.32.23-3.15.35-.83.12-1.34.24-1.23.36,1.04-.13,2.02-.26,2.97-.38.94-.11,1.85-.22,2.72-.32,1.75-.21,3.39-.41,5.03-.61,1.64-.19,3.27-.38,5.02-.54.87-.09,1.78-.15,2.72-.21.94-.06,1.92-.12,2.96-.17,2.15-.07-1.21.29-1.93.42,2.09-.18,4.14-.34,6.16-.47,1.01-.07,2.01-.13,3.01-.2.5-.03.99-.06,1.49-.09.49-.02.99-.04,1.48-.06,3.93-.17,7.74-.34,11.46-.64-.02.05-.82.13-1.58.2.73-.03,1.59-.07,2.24-.09.65-.02,1.09-.07,1.01-.18-.48.03-.95.06-1.43.1-1.18-.11.27-.36,2.05-.54,1.78-.19,3.89-.37,4.02-.46-2.48.7,7.36,0,3.42.9.96-.07,2.18-.2,1.95-.35,1.43.01,1.89.09.44.29,1.31-.06,2.18-.12,2.82-.15.64-.04,1.05-.08,1.44-.12.79-.08,1.51-.13,3.89-.14-.02.11-.98.15-1.47.28,2.41-.22,4.84-.43,8.87-.35-.24.06.22.15-.98.15,3.46,0,6.41-.09,9.43-.11,3.03-.01,6.15.04,9.91.44-2.26.29,2.55.36,2.91.83.68.04,1.35.09,2.02.15.67.05,1.35.11,2.02.18-.53-.13-1.06-.27-1.6-.39,3.53.4,6.69.59,9.67,1.31-.88-.11-1.75-.21-2.63-.31l2.28.39,2.27.43.05-1.58-2.03.31,2.04-.21-.05,1.37-1.69-.42c1.63.23,1.72.13,1.76.05l.02-.63c-.03.11-.02.17-2.59.48.95-.18-3.54.5-5.43.53h.01c-1.73.38-3.52.78-6.15,1.06-.7-.03.48-.53.03-.55-.84.3-2.91.62-5.04.96-2.13.35-4.31.7-5.38,1.05.72-.2.72-.41.48-.42l-1.41.49c-1.65.16-1.9.15-1.66-.06-4.94.72,1.64.27-4.24.96.46-.09.23-.1,1.18-.29-5.9.79-11.32,1.98-16.73,2.76-.83-.06.34-.3,1.49-.51,1.15-.21,2.26-.4,1.33-.42-1.94.33-3.91.73-5.89,1.13-1.98.4-3.98.8-5.96,1.22-1.98.43-3.95.85-5.9,1.25-1.95.39-3.87.78-5.74,1.15l1.4-.24c-.46.39-1.87.61-3.62.86-1.76.25-3.87.52-5.72,1.09.91-.25,1.14-.59.9-.47-2.56.53-5.16,1.14-8.08,1.87-1.45.4-2.99.81-4.64,1.26-.82.23-1.68.46-2.56.7-.89.24-1.81.48-2.75.77l.91-.4c-1.51.33-3.47.84-5.46,1.36-1,.26-2,.52-2.96.77-.96.25-1.86.52-2.66.73-.91.42-2.74.93-1.57.82-5.06.98-9.68,2.64-14.17,4.22-2.22.85-4.41,1.7-6.58,2.48-.55.19-1.09.38-1.64.57-.55.19-1.08.39-1.62.58-1.08.38-2.17.74-3.26,1.07,1.02-.4,2.38-1.06,1.57-.75l-3.6,1.47-1.8.73c-.6.24-1.19.52-1.78.78.33,0,.58-.07.94-.19.18-.06.39-.13.65-.22.27-.08.59-.17.98-.27-.21.12-.5.27-.84.44-.33.17-.71.37-1.12.57-.82.4-1.76.83-2.64,1.2,3.15-1.52-.18-.37-1.63.09.26-.03-.18.25-.03.28-2.97.89-1.67.85-3.17,1.61l.09.21c.48-.21,1.24-.5,2.51-.89l-.23.23c.96-.39,1.87-.79,2.8-1.19.47-.2.94-.4,1.43-.58.49-.18,1-.36,1.53-.54.97-.02-2.04.84-2.09,1.13,1.47-.54,2.88-1.16,4.28-1.76.69-.29,1.39-.58,2.08-.83.69-.25,1.38-.44,2.08-.59-.62.25-1.39.51-2.15.8-.76.29-1.52.57-2.13.83,3.02-.69,3.34-.87,5.53-1.53l-.21.06,2.54-.74,1.27-.37,1.28-.35-1.32.3c1.76-.94,3.66-1.55,5.73-2.18,2.07-.61,4.33-1.2,6.81-2.16-4.81,1.85-.74.5-1.04.92,1.32-.29,3.32-.69,2.78-.46,1.17-.44,2.19-.65,3.33-.91.57-.13,1.17-.27,1.83-.46.67-.18,1.4-.4,2.23-.7.18.07,2.59-.61,2.11-.22,3.13-.84-.79,0-.55-.2,2.38-.78,5.28-1.28,8.42-1.88,1.57-.3,3.23-.56,4.91-.9.84-.17,1.69-.35,2.55-.54.86-.18,1.73-.38,2.6-.6,1.51-.32,2.71-.6,3.76-.85,1.04-.24,1.93-.45,2.79-.65,1.74-.41,3.41-.85,6.26-1.31,1.95-.1-1.52.61-1.52.61,1.56-.14,2.92-.29,4.26-.48.67-.1,1.33-.2,2-.3.68-.1,1.37-.2,2.1-.32-.58.16.04.17.94.18,1.17-.15,1.55-.3,2.03-.43.48-.13,1.05-.26,2.62-.33-.52.18-1.19.42-2.3.68.69-.11,1.38-.21,2.06-.31.69-.1,1.38-.21,2.07-.31,1.38-.2,2.78-.44,4.21-.6.39.06-.04.17-.69.28-.65.12-1.52.27-2.02.38.81-.09,1.73-.23,2.68-.32.47-.05.96-.1,1.43-.15.24-.03.47-.05.71-.08.12-.01.23-.03.35-.04l.17-.02.11-.02c.55-.08,1.12-.16,1.65-.26.53-.1,1.02-.19,1.38-.28-.47-.01-.97,0-1.52,0,.51-.05.55.01.36.1-.18.09-.54.2-.85.25-.26.05-.47.09-.67.12-.1.01-.19.02-.27.04-.09.01-.15.02-.3.03-.51.04-.93.05-1.26.04-.68-.01-1.03-.1-1.12-.15l2.04-.23c-1.08-.23-3.14-.06-5.44.29-1.15.17-2.36.35-3.54.52-1.18.17-2.33.36-3.36.47l1.66-.66-4.18.88c-.91-.01-1.56-.19.47-.5-2.98.12-2.59.49-5.15.58-.28,0-.16-.04.1-.09l-2.86.53c.55-.17-.52-.25,1.25-.43-.65.06-1.27.12-1.85.2-.59.08-1.14.17-1.66.26-1.05.18-1.98.37-2.81.54-.83.17-1.56.32-2.21.43-.65.12-1.21.19-1.71.19l.42-.1c-7.1,1.43-.63.44-5.9,1.81l-3.74-.1-.63.47c-.73.13-2.19.4-1.95.21-2.67.82.49.04-1.04.6-.89.12-1.94.32-3.03.55-1.09.23-2.21.47-3.24.74-2.07.5-3.8.9-4.26.73-1.19.55,3.39-.61-.3.46-.3-.07-.72-.05-1.23.06-.51.11-1.1.29-1.76.49-1.32.41-2.9.93-4.52,1.21.9-.54,3.95-1.17.7-.6-.9.48-2.44.91-4.1,1.29-1.65.39-3.43.74-4.73,1.2,0,.21-1.44.69-3.41,1.3-.5.15-1.02.31-1.57.48-.54.18-1.11.36-1.69.55-1.15.38-2.33.77-3.42,1.16.06-.06-.44.07-1.28.32-.83.26-2.01.64-3.33,1.06-1.32.43-2.78.88-4.14,1.37-1.37.47-2.68.92-3.7,1.26l.1-.11c-.2.21-.77.5-1.56.85l.38.95c1.59-.8,4.16-1.87,6.18-2.79-.02.28-.53.59-2.1,1.38l2.8-1.19c.61-.39,1.45-.86,3.28-1.6l-.6.56c3.77-1.46,7.46-3.33,12.47-4.82.19-.37-4.18.64.98-1.38.24.08.52.26-.82.79.44-.18,1.55-.68,2.47-.94l-2,.98c2.28-.68,1.1-.62,2.9-1.22.03.21,1.38-.29,1.18-.04-.23.09-.63.18-1.06.32-.42.13-.87.29-1.2.45.51-.17,1.04-.35,1.58-.5.54-.15,1.07-.3,1.57-.42.99-.26,1.83-.45,2.26-.5-.21-.06-.09-.28,1.4-.78,3.86-1.25,1.4-.18,3.68-.79.9-.42,3.42-1,3.4-1.33,1.14-.33,1.39-.25,1.85-.29.99-.35,3.33-1.09,5.15-1.58,1.82-.52,3.09-.92,1.91-.79l-.53.12c.1-.03.21-.07.33-.1,1.64-.52,3.33-1,5.04-1.46,1.72-.43,3.46-.82,5.2-1.21.87-.2,1.74-.39,2.61-.58.87-.2,1.73-.39,2.59-.57,1.72-.36,3.43-.74,5.09-1.14v.11c1-.25,2.04-.51,3.1-.76,1.06-.23,2.13-.47,3.17-.7,2.07-.46,4-.9,5.4-1.31,1.18-.24,2.83-.34,2.35-.12,3.04-.66,3.36-.85,7.82-1.5-3.05.76,1.09-.04-3.13.73,1-.16,1.81-.29,2.52-.4.72-.1,1.34-.19,1.97-.29,1.26-.2,2.55-.46,4.67-.99-1.41.53,3.05-.2,4.94-.57l-2.83.27c2.12-.4,4-.68,5.9-.97l-.96.53c2.06-.22,4-.55,5.86-.88,1.86-.33,3.63-.69,5.34-1.04,3.42-.7,6.61-1.27,9.78-1.38,2.13-.58-4.47.49-2.58-.1,3.77-.52,7.78-.57,8.96-.74,5.19-.55,4.74-1.23,10.17-1.87-.71-.03-1.41-.28,2.61-.98.5-.07.95-.12,1.35-.15l.02-.5c-2.56-.66-2.87-1.11-.79-.78.41.08.71.15.91.2l-.06,1.68c-.28.02-.41.02-.39,0-1.21.22-2.81.51-1.29.43l.47-.2c.32-.02.74-.06,1.23-.12l.07-1.89c-2.22-.56-5.63-1.16-4.58-1.16-2.89-.34-1.26,0,.85.44-2.41-.52-4.32-.8-6.25-1.04-1.93-.24-3.88-.43-6.4-.71.8.13,1.52.36.73.28-.92-.09-1.67-.17-2.27-.22-.61-.05-1.07-.07-1.44-.09-.73-.04-1.07-.01-1.33.02-.52.07-.75.15-3.25.07-2.84-.31,1.04-.45-4.01-.45-3.08-.22-.65-.37.59-.43-4.61.11-8.6-.34-11.23-.37l2.42-.11c-1.45.07-2.64.07-3.85.07l1.38.26c-1.42-.04-2.63-.04-2.6-.15-1.46.17,1.12.43-1.79.67-1.9-.13-5.77.15-6.43-.19,5.96.1-.66-.35,4.39-.42-.97.04-2.16.04-3.59,0-.22-.04.2-.07.59-.09-1.43-.09-2.3-.06-2.91-.03-.6.04-.94.1-1.28.18-.68.15-1.38.34-4.34.4.75-.21-1.38-.34-2.34-.28,2.38-.05,1.15.3-1.03.5-3.79-.08-4.11.24-6.1.3l2.27-.03c-.76.23-2.65.29-5.29.46-.23-.14,2.39-.21,1.45-.23-1.46.24-3.12.22-4.92.2-1.8-.02-3.75-.07-5.79.19-1.9-.01-.21-.35-1.87-.34-4.56.54-4.97.05-9.77.56.7.09,1.11.11.93.17-.09.03-.34.07-.76.13-.43.07-1.04.16-1.88.29l1.97-.2,1.97-.17,3.95-.34-5.05.7c2.39-.15,5.02-.48,6.45-.53-2.4.37-2.16.29-1,.43-3.29-.18-6.45.61-10.24.68l.07-.66c-2.84.09-5.36.38-8.07.7-.68.08-1.37.17-2.09.25-.71.09-1.45.18-2.21.28-1.53.18-3.18.36-5.02.5l2.37-.12c-.96.35-4.53.49-6.9.83.2-.23-1.3-.18-2.32-.19.14.15-5.37.61-5.99,1.12l-3.31.1c-1.48.15-2.64.3-3.63.48-.99.18-1.82.37-2.63.56-1.64.38-3.24.76-6.08,1.1,1.68-.46-.92-.27,2.86-.94-1.9.25-3.61.44-3.62.59-.56,0-1.87.25-3.25.5-1.38.26-2.84.54-3.73.56-.79.21-1.01.48-3.14.77-.24,0,0-.11,0-.11,0,.11-3.3.64-1.41.6-1.48.05-3.24.23-5.12.47-1.88.26-3.89.6-5.87.94-3.96.68-7.83,1.32-10.4,1.49-4.1.78-9.04,1.72-12.76,2.43.23-.11,0-.11.7-.22-5.17.77-3.04,1.21-8.92,2.09-3.05.22,3.07-.77,1.18-.55-.47-.28-2.23.08-4.37.55-2.14.49-4.65,1.1-6.66,1.28l.94-.23c-3.05.37-7.27,1.71-12.16,2.71,0,0,.22-.11,0-.11-1.64.53-4.03,1.16-6.6,1.79-2.57.63-5.31,1.3-7.64,1.87,1.4-.6,2.1-.62,1.15-.7-2.09.51.71.31-3.47,1.32-1.4.15-4.46.69-4.92.48l3.96-.89c-2.11.06-5.13,1.14-7.22,1.57l.23-.23c-5.36,1.29-5.96,1.78-10.6,2.9l.43,1.14c.51-.27,1.11-.58,1.78-.93l-.67.2c1.52-1.03,2.23-1.33,2.94-1.61.72-.27,1.44-.51,3.02-1.44l1.17-.08c.53-.29,1.27-.64,2.14-1.08.87-.43,1.86-.95,2.92-1.44,1.07-.49,2.18-1.01,3.28-1.51,1.1-.5,2.2-.94,3.2-1.35-.54.29-1.24.64-2.02,1.01-.79.36-1.64.8-2.53,1.22-.88.43-1.79.84-2.64,1.26-.85.43-1.65.84-2.34,1.2,1.09-.48,2.92-1.32,4.65-2.06.86-.37,1.69-.74,2.36-1.06.68-.3,1.22-.55,1.49-.71-.44.2-.94.42-1.43.64-.49.23-.98.44-1.43.59,2.57-1.43,6.11-2.96,10.6-4.52-.13.27.54.17,1.67-.14.57-.15,1.25-.36,2.01-.6.76-.24,1.6-.48,2.46-.75.87-.26,1.77-.54,2.65-.81.89-.25,1.77-.5,2.6-.72,1.65-.45,3.09-.76,3.96-.83,8-2.56,16.15-4.04,25.7-6.18-1.76.06-1.07-.1-.02-.34,1.05-.23,2.45-.54,2.08-.81,2.22-.53,3.08-.7,3.28-.69l6.85-1.02c1.64-.14-2.09.59-1.86.69,4.9-.97,2.11-.15,5.38-.65-.71-.09,1.63-.71,4.44-1.16-1.33.16-2.66.31-3.99.49,6.77-1.74,6.03-.62,12.86-2.34l-2.14.64c.88-.21,2.14-.47,3.58-.77,1.44-.28,3.07-.61,4.7-.93,3.26-.65,6.49-1.36,8.19-1.95.64-.04,1.51,0-.05.32,4.25-.7,8.96-1.64,13.44-2.52,4.49-.81,8.74-1.56,12.08-1.91l-.62.26c1.58-.3,2.73-.72,4.75-.83-.09.08-.62.25.12.16.83-.17,4.19-.87,6.32-1.07l-1.78.43c2.09-.23,3.93-.5,5.62-.76,1.7-.24,3.25-.49,4.76-.75,1.51-.26,2.98-.52,4.5-.78.76-.12,1.54-.25,2.35-.39.4-.06.81-.12,1.23-.19.42-.05.85-.1,1.28-.16.04.48,6.63-.03,9.92-.28l-.11.08c2.43-.25,4.69-.42,6.84-.64,2.15-.21,4.19-.43,6.21-.66,2.02-.25,4.02-.42,6.08-.61,2.06-.19,4.18-.38,6.44-.56.71.02,1.53.03,2.46.02.93,0,1.95-.01,3.04-.02,2.19-.02,4.68-.09,7.27-.17,1.3-.03,2.62-.1,3.95-.1,1.33,0,2.66-.01,3.96-.01,2.62,0,5.15,0,7.41.06-.69-.04-.63-.13-.2-.23.43-.09,1.23-.2,2.04-.2,2.12.13,5.87-.24,5.52.2l-.76-.02c.8.23,2.28.34,3.99.39,1.71.07,3.65.04,5.35.14l.58-.56c2.22.31,4.78.51,7.46.66.67.03,1.34.06,2.02.1.68.03,1.36.04,2.04.1,1.36.08,2.72.17,4.05.24,2.66.15,5.19.3,7.36.47,1.08.07,2.07.21,2.94.34.87.13,1.61.28,2.21.44,2.15.08,4.79.36,6.93.44l-.15.3c.91.11,1.75.21,2.33.28l.26-2.86c-4.63-.32-7.73-.51-13.96-.8l1.52-.14c-2.08-.13-3.4.02-4.69.18-1.28.16-2.53.36-4.44.28l-1.13-.51c-3.63-.14-7.28-.39-10.92-.59-1.82-.11-3.64-.15-5.45-.17-1.81-.02-3.62-.01-5.42.05.12-.07.33-.2,1.51-.18-1.71-.05-5.01-.21-7.74-.27-1.36-.04-2.58-.04-3.38.02-.8.06-1.18.15-.87.31-.08-.42-7.49-.1-11.42.06l.61-.3c-1.66.18-2.51.3-3.53.38-1.02.07-2.2.14-4.51.22-1.1-.03-.96-.24.49-.17-3.65-.12-2.84.32-7.27.2l1.65-.21c-3.76.01-3.46.12-5.52.36-1.18.08-2.96.06-4.52.03-1.56-.02-2.89-.11-3.17-.24-.5.18-2.55.47-4.77.45-.3-.1.5-.18.91-.23-6.28-.02-9.32.58-13.65.51-.09-.1-.38-.13-.74-.15,4.99-.26,9.01-.3,8.63-.28,0-.28-4.04-.22-.85-.7-.81.08-1.76.17-2.79.27-1.03.11-2.15.23-3.28.35-2.27.23-4.63.42-6.6.45-.19-.02-.38-.04-.52-.07l.4-.05c-.91.01-1.72.08-2.48.16-1.25.01-2.05.01-3.26.07-.24-.1-1.4-.09-2.74-.02-1.35.09-2.88.2-3.89.27.19.3-2.45.42.03.51-.32,0,.38-.06,1.71-.16.3-.03.66-.06.85-.09-.04.01-.08.02-.14.04.66-.04,1.42-.11,2.26-.15s1.76-.09,2.74-.13c-1.58.23-3.23.43-5.46.42-1.02.27-2.14.54-2.77.68-2.77-.25-8.08-.13-8.83-.35-.76.07-1.56.14-2.38.21-.41.04-.83.07-1.24.1-.42.04-.84.09-1.26.13-1.7.18-3.43.36-5.08.53-3.31.36-6.34.75-8.23,1.21-1.73.22-2.01,0-2.67-.03,1-.14,2.19-.24,2.73-.37-.87.11-1.94.23-3.08.34-1.14.14-2.34.29-3.46.42-2.24.28-4.14.56-4.53.81-4.39.28,2.42-.63-3.58.07l.8-.21c-1.49.08-2.9.18-4.26.31-1.36.13-2.67.26-3.94.47-2.55.38-4.97.81-7.43,1.24-2.46.43-4.96.86-7.67,1.24-.68.09-1.37.19-2.07.29-.7.1-1.42.2-2.16.29-1.48.18-3.03.35-4.67.49.91-.09,1.37-.13,1.56-.09-3.73.47-7.51,1-11.3,1.58-3.78.66-7.59,1.35-11.38,2.03-1.9.34-3.8.68-5.69,1.02-1.89.37-3.77.73-5.64,1.1-3.75.71-7.47,1.37-11.13,1.94-4.15.76-4.54,1.14-7.01,1.88l-.96-.13-4.22,1.32c-3.01.81-5.7,1.16-8.56,1.72-2.86.53-5.93,1.13-9.7,2.33l1.04-.02c-1.38.32-3.56.89-5.33,1.33-1.77.46-3.15.81-2.95.62-.27.11-.84.46-1.94.64l-.13-.15c-2.22.71-4.43,1.46-6.61,2.28-1.3.39-1.9.55-2.21.57-.31.03-.31-.06-.38-.12-.07-.06-.22-.09-.82.06-.59.16-1.65.48-3.5,1.24-1.36.59-3.24,1.58-4.61,2.44-1.37.85-2.25,1.51-1.73,1.29.53-.28,1.21-.63,1.79-.86.58-.24,1.04-.39,1.12-.34l-1.18.64c-.39.21-.78.45-1.16.67-.1.34-.53.87-.2.96.17.04.52-.01,1.2-.26.34-.13.76-.28,1.28-.49.52-.21,1.15-.46,1.9-.76,1.32-.72,2.66-1.41,4.04-2.05.48-.1.97-.2,1.45-.28-1.19.44-2.36.92-3.53,1.41,2.07-.62,3.28-1.27,4.68-1.93.39,0,1.01-.12,1.88-.35,1.35-.63,2.73-1.21,4.11-1.79.58.04-1.81.94,1.09.21,1.95-.79-2.06.11,1.24-.97,2.17-.35,1.6,0,4.02-.85.38.04-.12.25-1.09.57,2.16-.75,5.85-1.54,6.92-2.09,2.28-.26,7.48-1.91,7.37-1.39.67-.28,3.82-1.35,5.86-1.84-3.62,1.39,7.68-1.66,6.82-.83,1.33-.56,3.82-1.17,6.58-1.8.69-.16,1.4-.32,2.11-.48l1.07-.24c.36-.07.71-.15,1.07-.23,1.42-.3,2.79-.61,4.01-.92-.27.09-.79.28-1.23.34,2.79-.5,3.62-.5,5.42-.76.28-.49,4.58-1.44,6.87-2.15,3.48-.26-1.98.9-.84,1.09-.12-.15,1.34-.54,2.69-.86,1.35-.31,2.57-.6,1.96-.64,2.66-.2,2.27-.26,3.68-.15.37-.61,2.42-.51,4.53-1.21,3.83-.39,1.06.33,5.18-.55,2-.18-1.66.65-1.66.65l-.03-.06Zm99.59-11.21h0c-.86.05-1.6.09-2.07.12.43-.02,1.03-.06,2.07-.12h0Zm8.42-.4c-1.02.03-2.3.09-3.65.16-.3-.09.02-.22.86-.25-.46.09,1.53.06,2.79.1h0Zm-17.93-1.31c1.33-.11,1.78-.07,1.97-.01-.63.04-1.37.07-2.33.16-.04.01-.12.03-.15.05.12-.07.27-.13.52-.19Z"/></g></svg>