<?xml version="1.0" encoding="UTF-8"?><svg id="Layer_2" xmlns="http://www.w3.org/2000/svg" viewBox="0 0 1118.73 196.37"><defs><style>.cls-1{fill:#f65764;}</style></defs><g id="shapes"><path class="cls-1" d="m819.42,127.34c-.91.59-1.01.94-.22.83.46-.08.9-.17,1.55-.4.65-.22,1.5-.58,2.48-1.05.48-.69.71-1.28.68-1.75l-4.49,2.36Z"/><path class="cls-1" d="m850.93,115.2c-5.07.63-10.32,1.39-13.97,2.14-3.73.75-5.83,1.48-6.81,2.17,2.01-.45,3.67-.76,5.07-1,1.41-.24,2.57-.41,3.82-.6,1.41-.21,2.84-.43,4.52-.69.5-.08,1.03-.16,1.57-.25.29-.05.59-.09.89-.14l.23-.04.12-.02h.02s.07.03.07.03c.2.07.42.15.67.23-1.94.94-4.54,1.96-6.59,2.66-2.08.71-3.64,1.11-4.25,1.11-.04.21-2.02.99-3.72,1.73-1.62.7-3.03,1.39-3.31,1.95,2.02-.6,4.22-1.35,6.46-2.19,3.2-1.19,6.48-2.56,9.22-3.84,1.37-.64,2.6-1.25,3.62-1.8l.72-.4.33-.19.15-.09.04-.02h.02s-.05,0-.05,0l-.22.02c-1.17.14-2.35.28-3.53.43-.17-.14.58-.35,1.63-.57.86-.17,2.62-.5,3.3-.63Z"/><path class="cls-1" d="m648.59,135.27l-3.65.8c1.01-.18,2.25-.46,3.65-.8Z"/><path class="cls-1" d="m996.84,66.65c1.17.22,2.06.37,2.57.43l-.18,5.26c-.93.19-1.32.31-1.39.39.5-.09.98-.18,1.41-.25l.19-5.54c-1.83-.3-3.07-.48-2.6-.29Z"/><path class="cls-1" d="m935.88,56.93c1.32.14,2.43.26,3.62.38-1.37-.23-2.76-.41-3.62-.38Z"/><path class="cls-1" d="m648.59,135.27l9.37-2.05c.54-.59-4.83.95-9.37,2.05Z"/><path class="cls-1" d="m772.72,124.9c1.98-.3,3.63-.61,5.12-.95-1.63.24-3.21.47-4.84.71-.08.08-.15.15-.29.24Z"/><path class="cls-1" d="m498.85,185.61l-2.68,1.13c-.73.47-1.4.95-2.02,1.43l4.7-2.56Z"/><path class="cls-1" d="m556.15,162.36c-2.65.75-3.25,2.1-4.12,2.87,1.36-.89,3.24-1.69,5.53-2.47-.02-.22-.44-.36-1.41-.41Z"/><path class="cls-1" d="m745.15,123.77l3.37-.62c-.88.16-2.35.43-3.37.62Z"/><path class="cls-1" d="m580.54,156.43c.25.1.7.11,1.17.05-.04-.13-.5-.13-1.17-.05Z"/><path class="cls-1" d="m136.08,95.26c.08-.1-.07-.12-.06-.19-.66.28-.85.41.06.19Z"/><path class="cls-1" d="m.89,132.61l1.7-.97c.08-.29.17-.57.08-.75l-1.77,1.73Z"/><path class="cls-1" d="m823.3,53.08c.22,0,.29.01.5.02,2.96-.13,1.28-.11-.5-.02Z"/><path class="cls-1" d="m349.51,79.53c-11.63,1.39,18.33-5.12.89-2.64,1.69.07-15.25,5.03-.89,2.64Z"/><path class="cls-1" d="m769.58,125.12c-1.63.19-3.28.39-4.93.59,2.25-.23,3.77-.41,4.93-.59Z"/><path class="cls-1" d="m350.41,76.89h0s-1.8.26-1.8.26c.75-.11,1.16-.17,1.8-.26Z"/><path class="cls-1" d="m564.75,69.79c.55.14,1.59.17,2.68.19-.1-.1-.71-.18-2.68-.19Z"/><path class="cls-1" d="m757.29,57.01l-4.78.06c1.9.02,3.43-.01,4.78-.06Z"/><path class="cls-1" d="m465.55,83.87c-2.58.29-3.47.27-6.96.93.33,0,.66,0,1.09-.02,1.25-.34,2.92-.66,5.87-.91Z"/><path class="cls-1" d="m362.57,100.02c.56-.01,1.29-.07,1.93-.11,1.01-.2,2.2-.43,3.24-.63l-5.18.73Z"/><path class="cls-1" d="m446.79,38.9c-2.3-.03-3.75-.2-4.89-.4,1.69.59-13.43,2.79,4.89.4Z"/><path class="cls-1" d="m772.6,124.28c-.57.35-1.44.6-3.01.84,1.18-.16,2.32-.31,3.43-.46.28-.2.33-.37-.41-.38Z"/><path class="cls-1" d="m462.61,93.27l-16.37,2.24c4.59-.56,10.53-1.38,16.37-2.24Z"/><path class="cls-1" d="m1044.81,5.83l3.81.15c-1.46-.13-2.81-.2-3.81-.15Z"/><path class="cls-1" d="m397.82,103.17c-2.97.08-6.1.35-9.31.71-.66.2-1.42.39-1.85.59l11.16-1.31Z"/><path class="cls-1" d="m441.87,38.5s.04,0,.04,0c0,0,0,0-.04,0Z"/><path class="cls-1" d="m334.56,56.62c15.51-2.61,7.06-2.67,10.21-4.07,18.52-3.19,8.77-.21,15.21-.4,11.54-2.1,20.24-4.76,28.91-5.99.68.15,2.38-.02.45.58,3.03-.74,6.81-1.46,11.02-2.16,4.2-.7,8.81-1.45,13.51-2.02,9.38-1.24,19.01-2.54,26.09-4.18,1.08,0,1.64.05,1.92.13-2.42-.44-2.87-1.14-2.46-1.73,7-.91,12.89-2.57,15.65-1.94-4.3.51-4.61.95-6.58,1.5l7.29-1.34c6.78.54-9.96,1.74-9.84,2.76,7.13-1.13,14.83-2.5,22.13-3.72,1.82-.3,3.62-.61,5.38-.87,1.76-.23,3.49-.46,5.15-.67,3.33-.41,6.44-.74,9.2-.93,2.45,1.1-25.66,3.17-10.85,2.82l-4.27.33-4.26.41-8.52.81c13.22.49-10.32,1.15,1.86,1.93,5.59-.59,9.94-1.2,13.68-1.62,3.74-.43,6.85-.85,9.97-1.26,6.23-.83,12.45-1.66,23.63-2.63,4.95-1.28-1.78-.94,3.17-2.22,15.8-2.32,22.13-2.2,27.41-1.86,5.28.35,9.49.74,21.1-1.15,5.97-1.41,8.17-3.33,24.9-3.83l-5.55,2.01c10.86-.84,13.91-1.66,17.11-2.37,3.19-.74,6.53-1.29,17.95-1.51-4.01.87-17.05,1.62-13.75,1.59,14.84.24,10.37-1.55,21.71-2.29l2.44,1.2c11.56-.86,23.71-1.95,36.16-3.07,1.56-.14,3.12-.27,4.69-.41,1.57-.11,3.14-.22,4.72-.33,3.15-.21,6.32-.43,9.5-.65,6.36-.42,12.76-.83,19.18-1.18-1.4.47-5.78,1.1.24,1.24,8.08-.54,16.45-1,24.93-1.4,2.12-.09,4.25-.21,6.38-.27,2.14-.05,4.27-.1,6.42-.14,4.29-.07,8.58-.15,12.87-.22,8.57-.12,17.11-.2,25.46-.25,4.17-.02,8.3-.04,12.36-.06,2.03,0,4.04-.01,6.04-.02,1.99.03,3.97.06,5.92.08l11.92-1.29c2.78-.01,5.16.48,2.16.74,12.18.33.62-.75,6.47-1.27,6.93-.15,9.16.58,4.77.98,5.37-.3,11.88-.62,18.98-.92,7.1-.28,14.79-.63,22.52-.64,15.46-.14,31.06,0,42.38.72l-4.42.32c8.82.3,13.8-.26,18.62-.75,4.82-.42,9.49-.75,17.66,0l-3.14.13c9.57.36,19.39.62,29.19.86,4.9.11,9.8.23,14.66.34,2.43.06,4.85.12,7.26.18,2.41.1,4.8.19,7.17.29,19,.78,36.86,1.68,51.42,3.16,2.82-.78,12.27-.06,21.33.56,9.07.61,17.75,1.12,19.05.02,16.44,1.81,16.88,2.29,29.44,3.5l.88-9.57c-3.92-.58-9.21-1.3-16.71-2.28-8.2-.97-12.4.18-22.56-.64l-.13-1.25c-4.64-.04-9.26-.16-13.91-.01l-7.23-2.01-9.57-.39c3.8.35,8.04,1.15,7.43,1.46-7.47-.27-16.54-1.16-23.78-2.06-3.62-.45-6.79-.9-9.07-1.29-2.28-.39-3.68-.61-3.77-.79l-35.39-.54c.8-.46,6.73-.37,11.42-.47-18.91.41-3.38-1.45-20.71-1.07,2.31.39-1.28.67-1.67.92-8.6-.89-28.23-1.23-42.76-1.16l2.79-.8c-3.28-.06-6.6-.2-9.97-.17-3.36.04-6.77.07-10.21.11-6.88.11-13.89.23-21,.35-3.56.07-7.14.13-10.74.2-1.8.04-3.61.07-5.42.11-1.81.08-3.62.15-5.44.23-7.27.28-14.6.56-21.96.84,10.57.03,8.19,1.59-.43,2.03l-3.5-1.18c-5.54,1,9.02.18-2.37,1.56-10.98.23-7.45-1.23-1.15-1.87l-13.34.91c-.8-.36,2.32-.68,3.11-1.2-2.73.44-8.5.52-14.57.6-6.08.1-12.46.29-16.37,1.22l-.78-.34c-7.34.45-13.69.84-19.44,1.19-5.74.51-10.9.97-15.88,1.42-9.97.91-19.26,1.78-31.2,2.77-.37,1.09-9.71,1.83-16.73,3.44-8.78.65-18.04,1.33-27.75,2.04-4.86.32-9.82.82-14.88,1.36-5.06.53-10.23,1.11-15.49,1.77-14.73,2.33-4.21,1.46-10.78,2.92-.61-.44-6.16-.01-10.22.28-2.03.13-3.68.26-4.14.22-.47-.04.24-.31,2.95-.81-12.6,1.76-20.64,2.96-29.51,4.31-8.86,1.39-18.57,2.8-34.4,5.75,3.51-.12,7.42-.54,5.46.12-5.74,1.06-13.19,1.6-12.44.98l1.51-.34c-8.87,1.76-18.47,3.24-28.34,4.59-9.84,1.49-19.95,2.84-29.83,4.17-19.78,2.55-38.55,5.56-52.51,9.17l1.57-.39-14.56,3.24-14.53,3.4c-13.49,2.46,7.93-2.34-2.15-1.01-7.81,1.97-14.84,3.54-21.38,4.9-3.27.68-6.43,1.3-9.5,1.89-3.07.61-6.06,1.2-9,1.78-11.77,2.3-22.87,4.39-35.71,7.63-10.35.62-28.13,4.47-46.73,8.9-18.6,4.4-37.98,9.44-51.64,12.06l1.73.29c-6.76,2.5-8.51,1.75-13.65,3.01.43.17,2.35-.19,3.64-.4,1.29-.19,1.94-.24-.16.51-27.2,7.73-55.15,16.01-82.91,25.73-27.71,9.81-55.21,21.16-81.31,34.52l4.4,11.74c4.28-.92,8.49-1.83,12.68-2.74,22.15-4.84,11.72-6.5,39.99-11.12l-7.63,3.06c11.08-2.89,22.34-5.52,33.67-8.11,5.67-1.27,11.35-2.54,17.03-3.81,5.7-1.19,11.4-2.38,17.1-3.57,11.39-2.38,22.75-4.76,34-7.11,11.26-2.3,22.4-4.66,33.32-7.18-2.56.82-2.56,1.22-6.85,2.07,4.73-.45,13.31-2.14,20.71-3.82,7.41-1.6,13.65-3.19,13.65-3.59,6.87-1.2,1.72.4,6.02,0,9.43-1.19,23.19-5.58,28.32-5.57.87,0-2.56.8-4.26,1.19,2.99-.83,10.09-2.04,15.69-3.06,5.59-1.03,9.69-1.88,6.67-1.91,16.65-2.35,31.58-6.1,44.94-7.5,8.43-2.61,28.5-3.99,30.97-6.16-.93,1.85,29.36-2.88,39.75-5.29-3.44,1.06,9.22-.78,5.21.57,3-.45,5.93-.9,8.61-1.35,2.68-.41,5.11-.8,7.09-1.17,3.97-.73,6.15-1.34,5.04-1.66,11.22-.39,22.29-2.29,32.16-3.95,4.93-.86,9.58-1.53,13.8-1.97,4.21-.43,7.99-.59,11.19-.26,8.92-1.26,17.67-2.5,26.28-3.72,8.62-1.16,17.12-2.12,25.5-3.14,8.39-.99,16.66-1.96,24.85-2.92,8.2-.87,16.33-1.6,24.39-2.38-.51.95-9.43,1.72-18.03,2.47-4.3.35-8.51.83-11.56,1.27-3.04.44-4.91.88-4.52,1.32,3.81-.49,7.42-.95,10.88-1.39,3.46-.41,6.77-.8,9.98-1.18,6.42-.77,12.43-1.49,18.43-2.21,6.01-.7,12.01-1.37,18.41-1.98,3.2-.33,6.51-.54,9.96-.76,3.46-.22,7.06-.42,10.87-.61,7.89-.25-4.42,1.06-7.06,1.54,7.65-.67,15.17-1.22,22.59-1.72,3.71-.24,7.39-.48,11.04-.72,1.83-.11,3.65-.23,5.46-.34,1.81-.08,3.62-.15,5.42-.23,14.4-.61,28.38-1.24,42.01-2.32-.07.17-3.01.48-5.79.74,2.69-.11,5.82-.24,8.2-.34,2.38-.08,4.01-.24,3.69-.65-1.75.12-3.49.21-5.24.37-4.31-.4,1-1.31,7.53-1.96,6.53-.7,14.26-1.36,14.73-1.69-9.08,2.56,27.01-.03,12.55,3.27,3.54-.24,7.98-.73,7.16-1.26,5.26.04,6.93.32,1.61,1.07,4.82-.23,8-.44,10.34-.56,2.34-.15,3.84-.3,5.28-.44,2.88-.28,5.53-.49,14.27-.5-.06.4-3.59.56-5.39,1.03,8.84-.79,17.74-1.58,32.51-1.26-.89.23.82.55-3.58.55,12.68-.02,23.49-.31,34.6-.39,11.11-.04,22.54.14,36.36,1.59-8.29,1.07,9.37,1.3,10.68,3,2.48.14,4.95.34,7.42.54,2.47.18,4.94.39,7.41.64-1.94-.49-3.89-.98-5.85-1.42,12.95,1.47,24.54,2.14,35.47,4.76-3.21-.4-6.43-.77-9.64-1.12l8.36,1.4,8.33,1.57.2-5.74-7.43,1.14,7.49-.75-.17,4.97-6.19-1.51c5.97.85,6.3.48,6.47.19l.08-2.3c-.1.4-.06.62-9.5,1.73,3.49-.65-13,1.82-19.9,1.91h.04c-6.36,1.37-12.9,2.83-22.56,3.84-2.56-.11,1.77-1.92.1-2-3.08,1.08-10.68,2.24-18.48,3.49-7.8,1.26-15.81,2.56-19.73,3.81,2.63-.71,2.65-1.5,1.75-1.53l-5.17,1.79c-6.06.57-6.97.55-6.08-.21-18.11,2.6,6.03.97-15.55,3.49,1.67-.34.84-.37,4.33-1.06-21.63,2.87-41.52,7.21-61.37,10.03-3.04-.22,1.25-1.1,5.46-1.85,4.21-.75,8.31-1.46,4.87-1.54-7.13,1.2-14.34,2.65-21.61,4.1-7.26,1.46-14.58,2.91-21.85,4.43-7.26,1.56-14.5,3.09-21.65,4.53-7.15,1.42-14.19,2.82-21.05,4.18l5.14-.88c-1.69,1.43-6.84,2.21-13.29,3.11-6.44.91-14.19,1.88-20.98,3.95,3.35-.9,4.19-2.13,3.32-1.7-9.4,1.91-18.94,4.15-29.65,6.8-5.33,1.44-10.96,2.95-17,4.58-3.02.82-6.15,1.66-9.4,2.54-3.25.88-6.62,1.76-10.1,2.8l3.34-1.45c-5.52,1.21-12.73,3.04-20.04,4.94-3.66.95-7.34,1.9-10.85,2.81-3.51.91-6.81,1.89-9.76,2.66-3.33,1.53-10.06,3.39-5.77,2.97-18.55,3.56-35.51,9.6-51.95,15.35-8.15,3.1-16.16,6.17-24.15,9-2,.69-4,1.38-6,2.07-2,.68-3.96,1.44-5.95,2.12-3.97,1.39-7.95,2.69-11.97,3.89,3.73-1.44,8.72-3.85,5.75-2.72l-13.2,5.33-6.6,2.66c-2.2.89-4.35,1.9-6.53,2.84,1.21,0,2.12-.24,3.46-.68.66-.22,1.44-.48,2.4-.8.98-.29,2.15-.62,3.61-.98-.79.45-1.84.99-3.07,1.59-1.22.62-2.62,1.34-4.12,2.06-3.01,1.46-6.44,3.01-9.68,4.38,11.54-5.52-.67-1.33-5.97.34.96-.1-.66.92-.11,1.01-10.89,3.23-6.14,3.1-11.62,5.85l.32.77c1.74-.78,4.54-1.8,9.21-3.23l-.84.82c3.51-1.42,6.85-2.88,10.28-4.32,1.72-.71,3.44-1.45,5.25-2.12,1.8-.67,3.66-1.32,5.6-1.95,3.56-.08-7.47,3.06-7.65,4.12,5.39-1.96,10.58-4.23,15.69-6.39,2.55-1.07,5.09-2.1,7.62-3.01,2.53-.91,5.08-1.61,7.64-2.16-2.27.9-5.09,1.84-7.87,2.89-2.78,1.04-5.57,2.07-7.82,3.01,11.08-2.52,12.24-3.16,20.29-5.55l-.79.23,9.32-2.7,4.66-1.35,4.68-1.26-4.83,1.1c6.45-3.4,13.42-5.62,21.01-7.92,7.61-2.23,15.89-4.36,24.96-7.86-17.65,6.73-2.73,1.8-3.8,3.36,4.83-1.06,12.19-2.51,10.21-1.66,4.29-1.61,8.03-2.38,12.2-3.32,2.09-.47,4.28-.98,6.71-1.67,2.44-.64,5.13-1.44,8.17-2.53.65.25,9.51-2.22,7.73-.79,11.47-3.04-2.88-.01-2.02-.72,8.73-2.85,19.35-4.67,30.89-6.84,5.77-1.09,11.83-2.04,18.01-3.28,3.09-.61,6.22-1.27,9.37-1.98,3.16-.66,6.35-1.38,9.55-2.18,5.55-1.17,9.96-2.18,13.78-3.1,3.82-.86,7.06-1.62,10.24-2.38,6.37-1.48,12.52-3.08,22.94-4.77,7.14-.35-5.57,2.2-5.57,2.2,5.73-.5,10.72-1.06,15.62-1.75,2.45-.36,4.87-.72,7.35-1.09,2.48-.36,5.02-.75,7.69-1.17-2.13.59.14.62,3.47.67,4.3-.56,5.7-1.08,7.45-1.56,1.75-.47,3.86-.95,9.59-1.19-1.91.64-4.35,1.52-8.45,2.47,2.52-.41,5.05-.77,7.57-1.13,2.52-.38,5.05-.76,7.58-1.14,5.07-.74,10.19-1.59,15.45-2.17,1.43.23-.14.61-2.53,1.03-2.38.45-5.58.97-7.41,1.37,2.95-.34,6.33-.82,9.82-1.15,1.74-.18,3.51-.37,5.25-.55.87-.1,1.74-.19,2.59-.28.43-.05.85-.1,1.28-.14l.63-.07.41-.06c2.03-.28,4.1-.59,6.04-.93,1.93-.35,3.74-.68,5.05-1.03-1.71-.05-3.57-.02-5.58,0,1.88-.17,2,.05,1.33.36-.67.32-1.98.71-3.11.9-.94.18-1.74.31-2.45.42-.35.05-.69.09-1.01.13-.33.04-.55.06-1.1.1-1.86.14-3.4.18-4.64.15-2.48-.05-3.79-.36-4.09-.53l7.5-.83c-3.95-.84-11.51-.21-19.94,1.04-4.21.61-8.65,1.26-12.98,1.89-4.33.61-8.53,1.31-12.31,1.7l6.1-2.39-15.31,3.19c-3.34-.04-5.71-.7,1.71-1.82-10.93.43-9.49,1.79-18.9,2.12-1.04,0-.59-.14.35-.34l-10.48,1.94c2.02-.63-1.92-.92,4.6-1.57-2.39.21-4.65.45-6.8.71-2.15.28-4.18.62-6.1.94-3.85.66-7.26,1.34-10.32,1.96-3.05.62-5.73,1.17-8.11,1.56-2.37.42-4.44.7-6.26.7l1.56-.38c-26.02,5.2-2.33,1.61-21.63,6.57l-13.71-.37-2.32,1.7c-2.69.48-8.02,1.44-7.14.78-9.78,2.98,1.8.15-3.81,2.18-3.27.43-7.12,1.16-11.1,1.99-3.98.85-8.11,1.72-11.89,2.68-7.58,1.83-13.95,3.27-15.63,2.67-4.38,2,12.42-2.22-1.1,1.66-1.1-.27-2.64-.17-4.5.22-1.86.4-4.05,1.05-6.47,1.79-4.85,1.49-10.63,3.37-16.57,4.41,3.3-1.97,14.49-4.27,2.58-2.19-3.3,1.74-8.94,3.3-15.02,4.68-6.07,1.41-12.56,2.69-17.36,4.37-.02.77-5.27,2.5-12.52,4.71-1.82.55-3.75,1.14-5.77,1.75-2,.65-4.08,1.32-6.19,2-4.21,1.37-8.53,2.8-12.54,4.22.22-.2-1.6.26-4.68,1.16-3.06.94-7.39,2.32-12.21,3.87-4.82,1.58-10.18,3.21-15.19,4.98-5.03,1.73-9.81,3.35-13.58,4.59l.35-.39c-.75.77-2.81,1.83-5.71,3.09l1.41,3.46c5.85-2.9,15.27-6.8,22.67-10.14-.1.99-1.93,2.14-7.7,5l10.27-4.33c2.25-1.43,5.33-3.12,12.04-5.81l-2.21,2.02c13.84-5.32,27.37-12.12,45.73-17.53.69-1.33-15.32,2.33,3.58-5,.89.28,1.9.93-3.02,2.89,1.61-.64,5.69-2.47,9.06-3.4l-7.33,3.55c8.35-2.48,4.05-2.24,10.65-4.45.11.75,5.08-1.05,4.33-.15-.83.31-2.31.67-3.87,1.15-1.55.49-3.2,1.04-4.41,1.63,1.87-.61,3.82-1.26,5.79-1.83,1.97-.55,3.92-1.08,5.74-1.54,3.63-.94,6.72-1.64,8.3-1.83-.79-.22-.33-1.01,5.12-2.85,14.14-4.55,5.12-.65,13.5-2.86,3.29-1.53,12.55-3.62,12.46-4.82,4.18-1.21,5.1-.9,6.8-1.06,3.63-1.29,12.2-3.95,18.89-5.76,6.67-1.9,11.34-3.36,6.99-2.86l-1.93.42c.35-.11.77-.24,1.2-.37l-.06.02.06-.02c6.02-1.9,12.2-3.64,18.47-5.3,6.29-1.58,12.68-2.98,19.06-4.4,3.19-.71,6.38-1.41,9.56-2.11,3.18-.71,6.34-1.43,9.51-2.06,6.32-1.32,12.57-2.68,18.65-4.15l.05.4c3.62-.91,7.45-1.85,11.33-2.75,3.89-.85,7.82-1.71,11.62-2.53,7.6-1.67,14.66-3.28,19.81-4.76,4.34-.86,10.38-1.23,8.61-.43,11.17-2.39,12.34-3.1,28.67-5.46-11.17,2.75,4-.15-11.47,2.64,3.66-.58,6.62-1.04,9.24-1.45,2.63-.37,4.91-.69,7.23-1.06,4.63-.74,9.35-1.68,17.11-3.59-5.16,1.94,11.21-.71,18.12-2.09l-10.37.99c7.79-1.47,14.66-2.47,21.62-3.54l-3.54,1.93c7.56-.81,14.67-2,21.48-3.19,6.81-1.2,13.3-2.52,19.58-3.77,12.54-2.54,24.25-4.63,35.87-5.01,7.81-2.1-16.41,1.78-9.46-.36,13.84-1.9,28.52-2.08,32.86-2.7,19.04-2,17.4-4.48,37.3-6.79-2.6-.11-5.18-1.02,9.58-3.57,1.84-.24,3.49-.42,4.93-.55l.06-1.8c-9.39-2.39-10.54-4.05-2.9-2.85,1.49.28,2.62.53,3.35.72l-.21,6.08c-1.04.1-1.51.07-1.44-.02-4.45.8-10.29,1.84-4.74,1.57l1.73-.72c1.19-.08,2.73-.23,4.51-.43l.24-6.87c-8.13-2.04-20.65-4.21-16.82-4.21-10.61-1.23-4.61,0,3.12,1.59-8.85-1.89-15.85-2.92-22.92-3.77-7.07-.88-14.23-1.57-23.46-2.57,2.92.49,5.58,1.31,2.66,1.03-3.39-.34-6.11-.61-8.33-.8-2.22-.17-3.92-.27-5.27-.33-2.68-.13-3.91-.05-4.87.06-1.91.24-2.74.54-11.93.24-10.41-1.14,3.82-1.63-14.72-1.65-11.3-.8-2.37-1.33,2.15-1.58-16.92.41-31.53-1.24-41.17-1.33l8.89-.4c-5.32.24-9.67.24-14.1.24l5.07.94c-5.21-.16-9.63-.15-9.53-.55-5.37.63,4.11,1.57-6.55,2.44-6.95-.47-21.15.54-23.57-.69,21.87.37-2.43-1.27,16.08-1.51-3.57.16-7.92.16-13.16,0-.79-.14.74-.26,2.16-.34-5.24-.31-8.45-.23-10.67-.11-2.22.13-3.44.37-4.69.65-2.49.55-5.07,1.24-15.91,1.47,2.74-.77-5.06-1.23-8.59-1,8.74-.19,4.21,1.09-3.79,1.82-13.91-.28-15.08.88-22.36,1.1l8.31-.1c-2.79.83-9.73,1.04-19.39,1.68-.85-.52,8.77-.76,5.31-.85-5.35.86-11.43.8-18.04.71-6.61-.07-13.77-.27-21.23.68-6.96-.04-.75-1.29-6.86-1.23-16.73,1.97-18.24.17-35.83,2.04,2.58.31,4.08.4,3.4.62-.34.11-1.23.25-2.8.48-1.57.24-3.83.59-6.91,1.07l7.23-.74,7.24-.62,14.47-1.24-18.51,2.55c8.75-.54,18.42-1.76,23.67-1.92-8.81,1.33-7.92,1.04-3.68,1.57-12.06-.66-23.67,2.22-37.54,2.48l.24-2.39c-10.43.32-19.64,1.37-29.61,2.55-2.49.3-5.03.6-7.65.91-2.62.33-5.31.67-8.12,1.02-5.61.67-11.66,1.3-18.41,1.82l8.69-.45c-3.52,1.29-16.61,1.78-25.29,3.02.73-.85-4.76-.65-8.52-.68.52.53-19.69,2.23-21.95,4.08l-12.12.36c-5.44.53-9.69,1.08-13.33,1.74-3.64.67-6.66,1.36-9.66,2.04-6,1.38-11.89,2.76-22.31,4,6.16-1.68-3.38-.98,10.49-3.43-6.95.91-13.23,1.59-13.26,2.15-2.06.02-6.85.92-11.93,1.83-5.07.95-10.43,1.96-13.67,2.05-2.88.77-3.71,1.73-11.51,2.81-.87-.03-.03-.39-.03-.39.02.39-12.11,2.32-5.18,2.18-5.43.18-11.88.82-18.78,1.71-6.9.95-14.25,2.19-21.52,3.4-14.53,2.46-28.73,4.78-38.15,5.43-15.03,2.84-33.14,6.26-46.79,8.84.83-.4-.03-.4,2.57-.8-18.96,2.8-11.16,4.4-32.73,7.6-11.18.79,11.25-2.81,4.33-2-1.73-1-8.18.3-16.03,2-7.84,1.79-17.07,3.99-24.42,4.67l3.45-.84c-11.17,1.34-26.66,6.21-44.61,9.86,0,0,.82-.41.02-.41-6,1.93-14.77,4.22-24.2,6.52-9.43,2.29-19.47,4.72-28.03,6.8,5.14-2.17,7.7-2.24,4.22-2.53-7.68,1.84,2.61,1.13-12.72,4.79-5.13.55-16.34,2.52-18.05,1.76l14.51-3.24c-7.75.23-18.8,4.16-26.48,5.7l.84-.83c-19.67,4.68-21.86,6.46-38.86,10.55l1.56,4.15c1.88-.99,4.06-2.12,6.52-3.37l-2.46.73c5.58-3.73,8.18-4.82,10.78-5.85,2.64-.97,5.29-1.87,11.06-5.25l4.3-.29c1.94-1.04,4.67-2.34,7.84-3.94,3.19-1.56,6.81-3.44,10.7-5.25,3.91-1.79,8.01-3.66,12.04-5.5,4.04-1.82,8.08-3.42,11.74-4.92-1.99,1.07-4.54,2.32-7.42,3.67-2.89,1.31-6.02,2.91-9.27,4.42-3.23,1.55-6.57,3.05-9.69,4.59-3.1,1.57-6.04,3.06-8.59,4.35,3.98-1.75,10.71-4.81,17.06-7.47,3.16-1.36,6.18-2.7,8.67-3.85,2.51-1.09,4.47-2,5.46-2.59-1.61.71-3.42,1.51-5.24,2.31-1.8.82-3.61,1.61-5.26,2.15,9.42-5.21,22.42-10.76,38.89-16.42-.48.97,1.98.6,6.14-.51,2.08-.56,4.59-1.3,7.36-2.17,2.77-.87,5.85-1.75,9.03-2.72,3.18-.96,6.48-1.95,9.73-2.93,3.27-.92,6.5-1.81,9.53-2.61,6.05-1.63,11.33-2.75,14.53-3.01,29.35-9.29,59.23-14.66,94.24-22.48-6.47.2-3.92-.38-.08-1.25,3.84-.85,8.97-1.98,7.64-2.95,8.15-1.92,11.28-2.53,12.04-2.52l25.13-3.71c6.03-.52-7.68,2.14-6.82,2.52,17.97-3.53,7.73-.54,19.72-2.36-2.6-.34,5.97-2.57,16.29-4.21-4.88.57-9.76,1.13-14.63,1.78,24.84-6.31,22.1-2.27,47.15-8.52l-7.86,2.32c3.22-.75,7.83-1.71,13.12-2.79,5.3-1.03,11.28-2.2,17.25-3.37,11.94-2.38,23.81-4.93,30.02-7.07,2.35-.13,5.52,0-.19,1.18,15.6-2.54,32.87-5.96,49.29-9.17,16.46-2.95,32.07-5.66,44.3-6.93l-2.28.96c5.8-1.1,10-2.61,17.4-3.02-.34.3-2.27.92.44.58,3.06-.63,15.38-3.17,23.17-3.89l-6.53,1.58c7.66-.85,14.41-1.8,20.62-2.76,6.22-.87,11.91-1.79,17.44-2.74,5.53-.96,10.91-1.88,16.5-2.85,2.8-.46,5.65-.92,8.6-1.4,1.48-.22,2.98-.45,4.51-.68,1.54-.19,3.11-.38,4.71-.57.13,1.76,24.32-.1,36.39-1.02l-.4.29c8.92-.92,17.2-1.51,25.07-2.31,7.88-.77,15.37-1.58,22.79-2.41,7.41-.9,14.75-1.54,22.31-2.23,7.56-.69,15.33-1.37,23.62-2.02,2.59.09,5.62.11,9.01.07,3.39-.02,7.14-.04,11.16-.06,8.04-.09,17.16-.33,26.67-.61,4.76-.11,9.61-.35,14.47-.38,4.87-.02,9.74-.04,14.54-.05,9.6-.01,18.89.03,27.17.22-2.53-.14-2.33-.48-.75-.82,1.58-.32,4.52-.72,7.47-.73,7.77.49,21.52-.86,20.26.74l-2.77-.08c2.92.84,8.37,1.22,14.65,1.43,6.28.24,13.4.13,19.62.52l2.13-2.02c8.13,1.13,17.53,1.87,27.34,2.39,2.45.12,4.93.23,7.42.35,2.49.12,5,.15,7.49.35,5,.3,9.98.6,14.86.89,9.75.56,19.04,1.08,26.99,1.71,3.98.27,7.6.76,10.79,1.25,3.18.49,5.92,1.01,8.1,1.59,7.88.3,17.58,1.32,25.41,1.61l-.55,1.08c3.34.4,6.41.77,8.53,1.02l.96-10.38c-16.99-1.16-28.33-1.86-51.21-2.91l5.56-.5c-7.63-.46-12.48.08-17.19.65-4.71.59-9.27,1.3-16.3,1.03l-4.16-1.86c-13.31-.52-26.69-1.43-40.04-2.15-6.67-.41-13.35-.53-19.99-.63-6.65-.08-13.28-.05-19.87.17.44-.24,1.23-.71,5.55-.67-6.27-.17-18.39-.75-28.39-.99-5-.13-9.46-.15-12.39.08-2.93.2-4.33.56-3.2,1.15-.29-1.51-27.49-.35-41.88.21l2.24-1.1c-6.08.67-9.21,1.1-12.94,1.39-3.73.27-8.07.52-16.54.8-4.02-.11-3.53-.86,1.81-.62-13.39-.45-10.43,1.16-26.66.72l6.04-.77c-13.78.05-12.68.42-20.25,1.32-4.33.29-10.86.21-16.57.11-5.71-.09-10.59-.39-11.62-.87-1.84.67-9.36,1.7-17.49,1.63-1.1-.35,1.84-.67,3.33-.82-23.05-.07-34.2,2.1-50.06,1.84-.34-.35-1.38-.49-2.7-.54,18.28-.94,33.03-1.09,31.65-1.01-.03-1.03-14.83-.8-3.11-2.54-2.96.29-6.45.62-10.24.99-3.79.4-7.87.84-12.04,1.28-8.33.84-16.99,1.54-24.2,1.63-.7-.07-1.39-.13-1.92-.27l1.48-.18c-3.33.05-6.3.28-9.09.59-4.6.04-7.53.05-11.94.24-.87-.37-5.12-.33-10.06-.06-4.94.34-10.58.73-14.26.98.68,1.08-8.97,1.53.11,1.87-1.17,0,1.38-.23,6.27-.59,1.1-.11,2.41-.21,3.13-.32-.14.04-.31.08-.5.13,2.41-.16,5.19-.4,8.27-.55,3.08-.15,6.44-.32,10.03-.49-5.79.84-11.84,1.55-20.01,1.51-3.73.97-7.84,1.98-10.16,2.48-10.16-.91-29.62-.49-32.39-1.28-2.8.25-5.73.51-8.74.77-1.5.13-3.03.25-4.56.38-1.53.15-3.08.31-4.64.46-6.22.64-12.56,1.3-18.63,1.93-12.15,1.32-23.24,2.74-30.19,4.39-6.35.81-7.39.02-9.8-.11,3.66-.52,8.04-.86,10.01-1.33-3.18.41-7.12.82-11.3,1.24-4.17.51-8.58,1.04-12.68,1.54-8.2,1.03-15.17,2.05-16.62,2.95-16.11,1.02,8.87-2.3-13.14.26l2.93-.76c-5.45.28-10.64.66-15.63,1.12-4.99.47-9.8.96-14.47,1.7-9.35,1.38-18.23,2.95-27.26,4.52-9.03,1.57-18.21,3.14-28.14,4.51-2.49.32-5.01.69-7.59,1.07-2.58.37-5.22.72-7.93,1.06-5.41.67-11.1,1.28-17.13,1.79,3.34-.31,5.01-.47,5.72-.32-13.67,1.7-27.53,3.63-41.44,5.75-13.87,2.39-27.82,4.9-41.75,7.39-6.97,1.23-13.93,2.46-20.87,3.69-6.92,1.34-13.82,2.67-20.68,4-13.74,2.59-27.38,4.99-40.83,7.07-15.21,2.78-16.64,4.13-25.71,6.82l-3.53-.47-15.46,4.8c-11.05,2.95-20.91,4.23-31.39,6.25-10.5,1.91-21.73,4.11-35.57,8.47l3.83-.09c-5.07,1.15-13.04,3.22-19.56,4.83-6.5,1.68-11.55,2.94-10.83,2.27-.99.41-3.08,1.69-7.12,2.34l-.47-.53c-8.14,2.59-16.24,5.32-24.25,8.28-4.76,1.41-6.98,1.99-8.1,2.09-1.12.11-1.12-.21-1.39-.42-.27-.21-.81-.34-2.99.23-2.18.57-6.04,1.76-12.83,4.51-5,2.16-11.9,5.74-16.91,8.86-5.02,3.09-8.24,5.48-6.36,4.69,1.94-1,4.42-2.28,6.55-3.12,2.12-.86,3.81-1.43,4.1-1.22l-4.33,2.34c-1.44.78-2.85,1.63-4.27,2.44-.35,1.23-1.93,3.17-.72,3.5.61.16,1.91-.05,4.39-.94,1.23-.46,2.79-1.03,4.71-1.78,1.92-.76,4.22-1.67,6.97-2.76,4.84-2.62,9.77-5.12,14.8-7.44,1.77-.37,3.54-.71,5.32-1.03-4.37,1.59-8.67,3.33-12.94,5.12,7.58-2.26,12.02-4.63,17.15-7.01,1.42.03,3.71-.45,6.9-1.28,4.96-2.27,10.01-4.41,15.08-6.52,2.1.15-6.64,3.42,4.01.77,7.16-2.88-7.54.42,4.56-3.53,7.95-1.29,5.86-.01,14.76-3.1,1.4.13-.45.92-4,2.08,7.92-2.74,21.44-5.6,25.39-7.6,8.37-.96,27.43-6.95,27.04-5.04,2.46-1.01,14.01-4.89,21.5-6.68-13.27,5.05,28.18-6.02,25.03-3.02,4.88-2.04,14.01-4.24,24.15-6.56,2.54-.58,5.13-1.17,7.74-1.76l3.92-.89c1.31-.27,2.62-.55,3.91-.82,5.19-1.09,10.22-2.2,14.7-3.33-.98.34-2.91,1.03-4.52,1.24,10.21-1.82,13.29-1.83,19.89-2.75,1.01-1.79,16.8-5.22,25.19-7.83,12.76-.93-7.25,3.28-3.07,3.95-.43-.54,4.92-1.98,9.86-3.12,4.94-1.14,9.43-2.17,7.2-2.33,9.75-.71,8.34-.96,13.5-.52,1.35-2.22,8.87-1.85,16.62-4.39,14.03-1.41,3.87,1.2,19.01-1.99,7.34-.64-6.09,2.35-6.09,2.35ZM699.8,15.88s0,.02,0,.02c-3.16.17-5.86.32-7.58.41,1.58-.09,3.77-.22,7.58-.44Zm30.89-1.44c-3.76.12-8.45.33-13.4.57-1.1-.34.06-.79,3.17-.91-1.68.34,5.61.22,10.23.35Zm-65.77-4.76c4.89-.4,6.54-.25,7.23-.05-2.31.14-5.02.25-8.56.56-.14.05-.43.12-.57.17.45-.24.98-.48,1.9-.69Z"/><path class="cls-1" d="m656.2,11.73c-.71.07-1.09.14-2.01.21,1.01.03,1.96.06,2.93.06.59-.16,1.19-.32,1.71-.46-.89.06-1.81.13-2.63.19Z"/><path class="cls-1" d="m644.3,136.22l.64-.14c-.54.1-1.03.18-1.36.2.44-.06.44-.02.73-.05Z"/><polygon class="cls-1" points="1079.31 8.1 1079.32 8.39 1082.04 8.43 1079.31 8.1"/><path class="cls-1" d="m481.74,187.26c-.34.04-.97.19-2.18.61.12.03,1.05-.25,2.18-.61Z"/><path class="cls-1" d="m527.71,177.01l10.01-2.8c-4.35,1.16-7.5,2.06-10.01,2.8Z"/><path class="cls-1" d="m581.99,161.36c.64-.38.79-.58.94-.76-.04,0-.07.02-.11.02l-.83.74Z"/><path class="cls-1" d="m761.46,64.36c-.76.04-1.51.09-2.18.15-5.1.44-1.63.2,2.18-.15Z"/><path class="cls-1" d="m969.34,72.17c2.79-.6,5.53-1.19,8.45-1.73-4.73.58-8.41,1.08-8.45,1.73Z"/><path class="cls-1" d="m464.41,93.03s0,0,.03-.02c-.63.09-1.19.17-1.82.27l1.8-.24Z"/><path class="cls-1" d="m990.12,68.71c-4.75.45-8.69,1.05-12.33,1.73,3.88-.47,8.46-1.01,12.33-1.73Z"/><path class="cls-1" d="m820.35,120.48l1.2-.05c.06-.08.19-.15.35-.21l-1.54.26Z"/><path class="cls-1" d="m821.89,120.22l1.65-.26c-.69.05-1.31.11-1.65.26Z"/><path class="cls-1" d="m827.45,119.42c-1.39.19-2.69.34-3.9.53,1.12-.09,2.31-.1,3.9-.53Z"/><path class="cls-1" d="m748.45,127.5l-.79.52c.45-.15.73-.32.79-.52Z"/><path class="cls-1" d="m725.98,130.83c5.36-.81,13.57-1.11,21.02-2.4l.66-.42c-3.43,1.1-16.7,1.24-21.68,2.81Z"/><path class="cls-1" d="m631.74,143.7c6.22-1.37,12.49-2.53,18.73-3.8-3.35.29-7.77.65.7-1.3-11.92,1.93-10.65,1.9-9.47,2.04,1.19.16,2.26.37-9.96,3.07Z"/><path class="cls-1" d="m574.16,157.77c9.84-2.96-.28-.58.17-.96-6.17,2.14-7.66,2.66-.17.96Z"/><path class="cls-1" d="m774.55,107.75l-.82,1.2c7.73-1.6,0-.4.82-1.2Z"/><polygon class="cls-1" points="854.14 88.43 846.45 89.05 842.98 90.57 854.14 88.43"/><polygon class="cls-1" points="902.97 88.18 899.58 88.83 912.55 86.52 902.97 88.18"/><path class="cls-1" d="m380.69,95.95l2.57.86c5.24-1.07,6.12-2.65-2.57-.86Z"/><path class="cls-1" d="m87.47,161.02c1.64-.49,4.43-1.63,7.38-3.02,1.47-.69,2.98-1.46,4.4-2.22,1.44-.73,2.8-1.47,3.94-2.19-1.58.71-3.16,1.42-4.69,2.11-1.52.71-2.99,1.4-4.37,2.04-2.75,1.28-5.12,2.4-6.65,3.28Z"/><polygon class="cls-1" points="996.58 12.56 990.35 12.7 1002.07 12.87 996.58 12.56"/></g></svg>