<?xml version="1.0" encoding="UTF-8"?><svg id="Layer_2" xmlns="http://www.w3.org/2000/svg" viewBox="0 0 300.75 303.65"><defs><style>.cls-1{fill:#f53f4e;}</style></defs><g id="shapes"><path class="cls-1" d="m138.98,8.59c3.38-1.39,1.51-.86,2.17-1.29,2.02-.83,2.52-.96,2.68-.94.16.02-.01.17.71-.02,1.28-.47,2.39-.95,3.45-1.31,1.06-.37,2.02-.77,3.01-.99.16,0,.54-.09.11.08.69-.23,1.55-.47,2.51-.73.96-.24,2.02-.45,3.1-.69,2.16-.42,4.39-.81,6.05-1.09.25,0,.38,0,.44,0-.55-.06-.65-.17-.55-.27.82-.09,1.57-.24,2.21-.3.63-.06,1.14-.09,1.46-.04-1.01.07-1.09.13-1.56.22l1.71-.19c1.57.13-2.34.22-2.33.42,3.33-.37,7.26-.73,9.84-.49.26.13-1.24.07-2.38.07-1.14.03-1.92.06-.21.13h-1.99c-.66-.02-1.33-.01-1.99.03,3.05.15-2.41.13.39.32,2.6-.05,4.06-.12,5.52-.07.73.01,1.46.02,2.32.05.87.06,1.88.12,3.17.29,1.18,0-.37-.22.81-.22,3.7.35,5.11.84,6.28,1.17,1.16.39,2.08.68,4.76,1.21.7.11,1.21.12,2,.28.79.15,1.87.42,3.71,1.08l-1.34-.15c2.42.76,3.14.92,3.87,1.1.74.18,1.5.37,3.97,1.38-.92-.25-3.79-1.28-3.07-1,3.18,1.35,2.35.69,4.83,1.63l.43.41c5.05,1.96,10.58,4.24,15.94,6.94-.33-.09-1.27-.5-.05.2,1.71.82,3.42,1.76,5.17,2.7,1.72.98,3.48,1.97,5.18,3.03,1.72,1.03,3.38,2.14,5.01,3.2,1.6,1.11,3.19,2.17,4.65,3.25.79.48,1.6.95,2.39,1.45.52.39.92.78.33.4,2.25,1.74.19-.01,1.34.74,1.31.95,1.65,1.36.8.79,1.02.72,2.25,1.63,3.58,2.61,1.3,1.03,2.74,2.1,4.11,3.28,2.79,2.29,5.45,4.8,7.29,6.69l-.78-.67c1.47,1.44,2.33,2.21,3.2,2.95.86.73,1.66,1.48,2.9,2.93l-.53-.51c3.04,3.29,6.12,6.84,8.83,10.36,2.7,3.53,5.02,7,6.74,9.94.44.49,1.61,2.36,2.64,4.22.51.92,1.03,1.83,1.44,2.53.4.7.7,1.2.86,1.28,1.12,2.3,1.43,3.16,1.89,4.23.46,1.07,1.03,2.39,2.37,5.71.69,1.78,1.32,2.55,2.14,4.77l-.17.12c.43.98.87,1.97,1.25,2.97l.29,1.7c.26.7.46,1.4.67,2.12-.11-.43-.21-.89-.27-1.23-.07-.34-.11-.55-.06-.49.54,1.66,1.03,3.72,1.42,5.36.2.82.35,1.55.42,2.08.07.53.11.86.09.88l.93,3.99c.31,1.33.49,2.69.74,4.04-.1-.17-.34-1.52-.56-2.59.86,4.3-.09.82.7,4.75-.03-.54.16.27.22.36.09,1,.18,2.64.36,4.44.07.9.19,1.84.25,2.77.05.93.1,1.85.14,2.69l-.17-.64c.35,6.07.22,12.83-.45,19.64.32-2.43.5-1.85.31.15l-.29.77c0,1.3.3-2.07.18.58-.29,2.54-.42,1.68-.34.22-.09,1.03-.14,2.07-.3,3.09-.09.18-.01-.55-.06-.75-.03.64-.29,1.96-.54,3.34-.26,1.39-.48,2.85-.57,3.77l-.09.16c-.33,1.68-.61,3.12-.87,4.44-.24,1.31-.57,2.48-.82,3.61-.27,1.13-.53,2.22-.8,3.37-.32,1.14-.66,2.33-1.04,3.67.07.08-.06.64-.24,1.38s-.43,1.68-.64,2.48c-.35.97-.7,1.96-1.06,2.98-.37,1.02-.72,2.07-1.17,3.11-.42,1.05-.86,2.12-1.3,3.23-.22.55-.44,1.11-.66,1.67-.23.56-.48,1.12-.72,1.68-1.3,3.22-.26.99-.78,2.47-.13.08-.68,1.26-1.09,2.11-.44.84-.72,1.36-.22.18-1.29,2.67-2.06,4.39-3.01,6.25-.48.93-.98,1.9-1.58,3.05-.3.58-.61,1.21-.97,1.9-.37.68-.78,1.41-1.24,2.24.46-.67.95-1.44.76-1.01-.66,1.19-1.62,2.65-1.59,2.44l.16-.32c-.51.92-1.02,1.89-1.61,2.84-.6.94-1.21,1.91-1.84,2.89-1.23,1.97-2.64,3.89-3.98,5.78-2.71,3.77-5.43,7.26-7.37,10l.22-.31c-.69.93-1.36,1.88-2.07,2.79l-2.14,2.74c-2.06,2.45,1.13-1.56-.46.2-4.62,5.92-7.8,8.92-11.97,13.48-1.83,1.56-4.83,4.55-8.03,7.65-1.62,1.52-3.25,3.12-4.84,4.52-1.59,1.41-3.07,2.71-4.34,3.71l.36-.15c-1.2,1.17-1.58,1.26-2.54,2.04.19-.05,1.45-1.09.7-.38-5.32,4.66-11.06,9.2-16.97,13.54-5.92,4.35-12.09,8.39-18.39,11.9-2.32,1.25-2.9,1.74-3.68,2.26-.76.52-1.69,1.12-4.77,2.4l1.62-1c-4.75,2.39-9.84,4.36-15.07,5.7-5.22,1.4-10.56,2.12-15.75,2.55.62-.09.63-.15,1.64-.22-1.1.01-3.12.13-4.89.21-1.76.08-3.26.13-3.28.2-1.62-.03-.38-.12-1.37-.2-2.2-.12-5.55,0-6.71-.26-.2-.04.62-.01,1.03,0-.72,0-2.39-.13-3.72-.25-1.32-.12-2.29-.2-1.62-.04-1.94-.26-3.8-.49-5.57-.7-1.76-.26-3.41-.52-4.95-.82-1.02-.08-2.66-.45-4.13-.75-1.48-.29-2.76-.65-3.11-.57.17-.12-1.49-.54-3.49-1.06-1.98-.57-4.34-1.1-5.53-1.43.82.16-2.03-.73-1.07-.56-2.71-.8-5.17-1.64-4.75-1.33-2.42-.99-4.87-1.88-7.08-2.67-2.19-.83-4.09-1.61-5.34-2.39-7.73-3.31-14.63-6.98-21.04-11,.2-.06,1.95,1.08,3.69,2.11,1.74,1.02,3.42,1.99,3.35,1.78-1.56-.88-2.96-1.66-4.28-2.4-1.3-.77-2.51-1.5-3.72-2.22-2.38-1.51-4.76-3.03-7.6-5.19-1.47-1.12.92.52,1.45.84-5.89-4.1-10.95-8.51-15.73-12.74.03,0,.55.45,1.04.87-.92-.86-2.1-2.04-2.09-1.84l.92.82c1.33,1.53-3.92-3.13-4.11-3.27.89.62-.2-.51-1.19-1.55-.99-1.03-1.8-1.99-.46-.93-.6-.58-1.34-1.3-1.28-1.1-.82-.92-1.05-1.24-.12-.39-3.12-3.25-2.15-1.97-4.83-5.05.06-.03.62.57.95.85-.72-.74-1.47-1.47-2.27-2.38-.79-.91-1.68-1.98-2.75-3.33.16.13-.05-.2.6.59-.96-1.13-1.77-2.24-2.61-3.27-.41-.52-.82-1.03-1.23-1.54-.39-.52-.78-1.03-1.17-1.55-.77-1.05-1.58-2.09-2.37-3.25-.78-1.16-1.6-2.4-2.47-3.78.65.73.34.26-.07-.46-.42-.72-.99-1.68-.98-1.9-.62-.99-1.28-1.95-1.86-2.96.2.42.38.86.6,1.27-1.52-2.66-3.03-4.93-4.14-7.31l1.14,1.98-1.35-2.54c-.45-.85-.9-1.69-1.31-2.56.42,1,.91,1.97,1.38,2.94-.77-1.35-.8-1.24-.87-1.25-.06-.01-.19-.13-1.02-2,.19.37-.14-.32-.59-1.3-.45-.97-1.01-2.23-1.25-3h0c-.34-.67-.68-1.36-1.04-2.15-.37-.78-.75-1.66-1.12-2.74-.14-.58.42.34.33-.04-.35-.66-1.06-2.31-1.68-4.05-.61-1.74-1.28-3.51-1.65-4.39.23.59.36.58.33.38l-.52-1.15c-.37-1.37-.4-1.58-.24-1.39-.61-2.05-.59-1.7-.58-1.45.02.24-.04.41-.61-2.07.12.38.09.19.33.99-1.32-4.92-2.41-9.55-3.06-14.18.04-.7.15.31.35,1.29.18.98.36,1.93.32,1.14-1.2-6.62-1.99-13.83-1.68-20.36l-.05,1.21c-.36-.92.33-4.85.58-8.13-.08.8.05,1.07.04.85.16-1.1.31-2.22.45-3.38.06-.58.17-1.17.28-1.77.11-.6.22-1.21.33-1.85.12-.63.21-1.29.36-1.95.16-.66.33-1.35.49-2.05.17-.71.35-1.44.53-2.21.21-.76.47-1.53.72-2.33l-.18.82c.84-2.49,2.38-6.5,3.64-9.04.27-.81,1.04-2.23.47-1.42,2.2-3.8,4.37-7.36,6.64-10.73,2.27-3.36,4.66-6.52,7.33-9.37-.6.71-1.36,1.76-.89,1.18,1.39-1.72,2.81-3.42,4.26-5.09-.46.3-.65.59-1.65,1.57.48-.69,1.67-2.15,2.77-3.38-1.91,2.3.19.14,1.12-.76-.18.13.08-.23-.02-.18,2.53-2.39.16-.64,3.52-4l-.11.24c1.19-1.31,2.24-2.58,3.6-3.92.68-.44-1.27,1.4-1.24,1.59,1.86-1.94,3.48-4.02,5.37-5.57-.8.81-1.96,1.98-2.74,2.81,2.03-1.71,2.2-1.97,3.66-3.3l-.15.12c1.12-1.02,2.26-2.01,3.4-3.01l-.89.74c2.19-2.59,5.05-4.61,8.46-7.59-3.29,2.93-.47.58-.62.94.93-.69,2.39-1.65,2.02-1.32,1.62-1.4,2.94-2,5.32-3.84.15-.02,1.92-1.23,1.6-.83,2.34-1.48-.62.24-.46.07.87-.63,1.87-1.21,2.94-1.85,1.08-.61,2.25-1.21,3.47-1.84,1.24-.57,2.51-1.24,3.86-1.82.67-.31,1.34-.61,2.03-.93.69-.29,1.39-.6,2.09-.91,2.45-.98,3.92-1.56,5.37-2.05,1.43-.53,2.85-.96,5.25-1.55.83-.11.51.01-.02.16-.26.07-.58.16-.82.24-.25.07-.43.13-.43.13.65-.15,1.27-.25,1.87-.35.59-.11,1.17-.22,1.74-.32,1.14-.21,2.27-.36,3.5-.58-.5.14.03.07.8.09,1.01-.1,1.34-.19,1.75-.27.41-.08.91-.17,2.25-.16-.46.1-1.04.19-2,.36.59-.08,1.18-.12,1.78-.15.59-.04,1.18-.09,1.78-.13,1.19-.07,2.4-.05,3.64-.07.65.12-1.5.13-2.36.19,2.77-.13,7.16.39,8.03.37l-1.75-.31c1,.13.5.22-.25.15-2.38-.1-3.41-.34-3.54-.42l1.76.1c-.44-.12-1.11-.23-1.91-.3-.8-.03-1.75-.03-2.75-.02-1.99.07-4.19.28-5.95.45l1.45-.4c-1.21.19-2.42.33-3.6.6-.78.04-1.32-.03.41-.33-2.55.23-2.23.38-4.41.66-.24.02-.14-.01.08-.07-.82.19-1.63.35-2.43.59.46-.16-.45-.1,1.06-.4-1.1.21-2.09.46-2.98.68-.89.22-1.66.51-2.36.73-1.4.43-2.42.86-3.25,1.04l.35-.14c-1.47.51-2.22.85-2.6,1.03-.38.18-.39.22-.36.24.07.05.31.02-1.79,1.02l-3.06.85-.46.45c-.58.28-1.72.84-1.54.66-2.07,1.21.4-.12-.77.64-.7.33-1.51.76-2.35,1.22-.84.46-1.68.99-2.46,1.45-1.57.94-2.83,1.8-3.22,1.85-.85.73,2.55-1.51-.16.37-.97.24-3.11,2.19-5.45,3.77.59-.65,2.8-2.17.43-.62-.61.61-1.68,1.46-2.86,2.32-1.16.89-2.4,1.81-3.29,2.6.04.13-.93.99-2.26,2.17-.66.6-1.4,1.28-2.17,1.98-.75.71-1.52,1.45-2.23,2.15.06-.12-1.31,1.17-3.01,2.82-1.69,1.66-3.7,3.71-5,5.04l.05-.11c-.32.68-2.95,3.47-4.76,5.59-.03-.17.25-.59,1.22-1.76l-1.74,1.96c-.35.51-.87,1.15-1.95,2.46l.3-.62c-2.27,2.65-4.4,5.48-7.2,9.01-.01.3,2.51-2.57-.24,1.29-.18.09-.41.14.31-.88-.23.33-.81,1.21-1.31,1.85.32-.55.65-1.09.99-1.62-1.27,1.6-.53.94-1.5,2.26-.09-.11-.76.94-.72.69.22-.36.86-1.13,1.19-1.68-1.1,1.48-2.4,3.3-2.89,3.87.15-.09.14.09-.57,1.24-1.83,2.99-.77.94-1.86,2.66-.37.77-1.5,2.7-1.36,2.83-.47.92-.63,1.04-.85,1.37-.83,1.62-3.32,7.8-2.38,5.97l.19-.42c-.03.08-.07.17-.11.28-2.01,5.57-3.84,11.74-4.5,17.59l-.06-.02c-.09.87-.23,1.8-.3,2.73-.06.93-.12,1.88-.18,2.79-.16,1.82-.09,3.53-.06,4.79,0,.52-.05,1.13-.09,1.56-.04.43-.07.67-.12.45.08,1.34.12,2.09.16,2.98.02.45.03.93.05,1.55.04.62.09,1.36.14,2.32-.33-2.69-.04.94-.29-2.76.08,1.75.15,2.81.23,3.91.06,1.1.23,2.23.56,4.07-.32-1.25.1,2.64.49,4.27-.1-.81-.22-1.62-.3-2.43.32,1.84.6,3.45.88,5.08l-.37-.84c1.1,7.1,3.44,12.43,4.8,17.69.76,1.74-1.17-3.7-.45-2.16.53,1.55.99,3.17,1.39,4.51.43,1.33.76,2.4.95,2.88.19.53.36.99.52,1.39.17.4.33.74.47,1.05.29.61.54,1.09.79,1.56.51.95,1,1.94,1.99,4.07-.19-.58-.25-1.18,1.33,1.96,1.45,2.94,1.56,3.74.54,1.93-.37-.7-.52-1.04-.48-1.02-.5-.94-1.11-2.19-.63-.98l.25.36c.65,1.5,2.77,5.5,2.16,4.62.61,1.09.8,1.29.67,1.04-.12-.25-.48-.98-.89-1.81,1.9,3.77,3.18,5.78,5.4,9.5-.32-.61-.58-1.2-.22-.62.8,1.38,1.35,2.18,1.7,2.7.35.52.53.75.67.92.3.34.43.47,1.66,2.24,1.32,2.07-.74-.55,1.86,2.93,1.47,2.21.16.58-.5-.25,2.43,3.13,4.36,5.98,5.79,7.75l-1.37-1.58c.82.95,1.46,1.74,2.12,2.55l-.64-1.02c.76.97,1.41,1.77,1.34,1.8.9.89-.44-.89,1.31.9.51.64,1.34,1.57,2.07,2.39.74.83,1.41,1.53,1.52,1.82-1.73-1.9-1.64-1.78-1.54-1.55.11.22.28.53-1.17-1.1.57.61,1.23,1.4,2.06,2.31.11.15-.15-.1-.39-.34,1.61,1.86,2.04,2.24,2.5,2.61.45.38.95.75,2.75,2.55-.54-.38.68.99,1.28,1.57-1.44-1.47-.57-.82.84.42,2.32,2.29,2.61,2.4,3.87,3.55-.48-.43-.94-.9-1.4-1.35.54.38,1.75,1.48,3.48,2.95.09.2-1.59-1.32-1-.75,2,1.54,4.17,3.9,7,5.99,1.24,1.06,0,.27,1.09,1.19,1.61,1.16,2.43,1.85,3.29,2.51.87.67,1.73,1.39,3.47,2.53-.9-.81-1.09-.88,1.41.63-1.92-1.22-3.75-2.57-5.62-3.86l3.67,2.39c-1.65-1.22-3.58-2.45-4.53-3.23,1.73,1.17,1.56,1.04.83.36,1.07.92,2.22,1.71,3.41,2.53,1.19.82,2.49,1.59,3.78,2.58l-.3.26c.98.74,1.96,1.36,2.93,1.96.98.6,1.94,1.19,2.96,1.79,2.06,1.16,4.27,2.39,7.05,3.94l-1.76-1.04c.83.26,3.43,1.9,5.32,2.73-.23.03.9.65,1.65,1.12-.07-.09,4.2,2.01,4.83,2.01.83.46,1.68.88,2.53,1.3,1.18.52,2.11.9,2.92,1.21.81.31,1.51.51,2.2.73,1.38.42,2.72.88,5.04,1.69-1.45-.36.63.48-2.51-.54,1.55.57,2.95,1.06,3,.99.44.19,1.53.55,2.69.88,1.17.32,2.4.67,3.11.95.68.14.93.12,2.71.61.19.08-.02.06-.02.06.02-.06,2.81.68,1.29.12,1.2.43,2.64.89,4.23,1.27,1.59.39,3.28.82,4.99,1.12,3.39.7,6.73,1.19,8.89,1.69,1.79.19,3.75.46,5.68.64,1.93.18,3.82.31,5.45.42-.21.03-.01.06-.63,0,2.24.2,2.94.13,3.71.07.77-.07,1.62-.11,4.17-.04,2.61.21-2.72.11-1.09.19.35.21,1.9.21,3.79.12,1.89-.09,4.12-.26,5.85-.3l-.83.1c2.65-.07,6.4-.78,10.63-1.64,0,0-.2.08-.01.07,1.43-.4,3.48-.98,5.66-1.66,2.17-.68,4.46-1.5,6.38-2.27-1.14.63-1.74.73-.93.64,1.73-.69-.6-.05,2.83-1.44,1.14-.39,3.63-1.36,4.01-1.37-1.05.51-2.14.94-3.2,1.42.87-.25,1.92-.69,2.94-1.19,1.02-.51,2.04-1.03,2.87-1.42l-.17.2c1.19-.62,2.08-1.1,2.83-1.51.73-.44,1.32-.8,1.93-1.16,1.2-.73,2.45-1.49,4.9-2.98l-.54.25c2.55-1.85,2.32-1.26,4.85-3.12l.93-.31c1.71-1.18,5.85-4.31,8.79-6.58-1.56,1.42-5.04,4.03-7.2,5.64.86-.57,2.28-1.58,3.6-2.54,1.3-.97,2.5-1.87,2.88-2.25-.65.52-1.46,1.17-2.15,1.62,1.93-1.63,4.53-3.69,7.76-6.2-.13.42,1.99-1.2,4.45-3.12,2.43-1.97,5.23-4.22,6.47-5.06,5.42-4.81,10.9-9.38,16.89-15.34-2.42,1.81,1.76-1.72,1.1-1.66,1.35-1.42,1.88-1.96,2.02-2.06l2.16-2.05,2.11-2.1c1.05-.96-1.21,1.43-1.01,1.36,2.95-3.14,1.35-1.21,3.36-3.24-.25.16-.03-.14.46-.72.48-.58,1.23-1.44,2.05-2.35-.81.83-1.6,1.66-2.42,2.47,3.8-4.66,3.74-3.65,7.43-8.48l-1.13,1.56c1.98-2.41,7.19-8.98,8.66-11.68.36-.42.88-.95.09.18.55-.75,1.12-1.52,1.68-2.32.54-.82,1.09-1.64,1.64-2.47.55-.83,1.09-1.67,1.64-2.51.54-.84,1.04-1.7,1.56-2.54,2.09-3.34,3.86-6.62,5.41-9.07l-.2.53c.67-1.22.99-2.22,1.9-3.7,0,.1-.18.54.13-.02.16-.34.56-1.16,1.03-2.12.46-.96.95-2.05,1.38-2.87l-.59,1.46c.82-1.62,1.52-3.07,2.15-4.41.61-1.35,1.09-2.63,1.58-3.85,1.01-2.45,1.77-4.82,2.83-7.67.32.14,2.26-5.24,3.17-7.96v.11c.62-2.03,1.15-3.92,1.66-5.71.43-1.82.82-3.56,1.2-5.28l.28-1.29.23-1.3c.15-.87.3-1.73.46-2.62.15-.88.31-1.77.47-2.68.12-.92.25-1.86.38-2.83.13-.6.27-1.3.41-2.08.07-.39.14-.81.22-1.24.07-.44.12-.89.17-1.36.11-.94.23-1.95.35-3,.11-1.05.27-2.14.31-3.26.07-1.12.13-2.26.2-3.41.07-1.15.15-2.3.15-3.43.02-1.13.04-2.25.05-3.33.02-1.08.05-2.12.01-3.09,0,1.19-.23-.19-.32-1.58,0-.92-.12-2.18-.19-3.18-.06-1-.18-1.73-.01-1.6l.06.65c.06-.7-.02-1.99-.14-3.47-.07-.74-.15-1.53-.22-2.32-.08-.79-.23-1.56-.33-2.29l-.42-.43c-.17-1.92-.4-4.14-.92-6.41-.24-1.13-.48-2.3-.73-3.45-.25-1.16-.62-2.28-.92-3.39-.31-1.11-.62-2.19-.92-3.23-.31-1.03-.65-1.99-.93-2.89-.27-.9-.55-1.72-.79-2.44-.24-.72-.42-1.35-.55-1.87-.34-.87-.78-1.81-1.18-2.77-.4-.96-.81-1.91-1.24-2.73l.21.02c-2.04-4.74-3.15-7.08-6.36-12.6l.76,1.07c-.87-1.58-1.59-2.47-2.28-3.34-.34-.43-.68-.86-1.05-1.35-.37-.48-.78-1.03-1.23-1.73l-.32-.98c-3.46-5.22-7.21-10.38-11.52-14.84.1.05.28.13.97.88-.49-.56-1.2-1.37-1.98-2.27-.8-.89-1.69-1.83-2.49-2.69-1.63-1.69-2.99-2.95-2.74-2.44.15-.26-4.63-4.52-7.26-6.64l.52.21c-2.32-1.68-2.4-1.72-5.54-4.17-.72-.61-.55-.63.39.19-1.18-1.03-1.71-1.36-2.28-1.76-.59-.38-1.21-.86-2.71-2.02.4.25.81.49,1.21.76-2.58-1.94-2.42-1.74-3.94-2.67-.85-.55-2.1-1.44-3.18-2.24-1.09-.77-2-1.47-2.16-1.67-.41-.17-1.97-1.01-3.56-2.06-.18-.19.42.15.73.32-4.53-2.97-6.99-3.97-10.17-5.9-.04-.09-.24-.23-.5-.39,3.79,2.02,6.75,3.82,6.47,3.67.09-.16-2.9-1.91-.4-.73-2.49-1.26-6.75-3.42-9.77-4.94-.14-.09-.27-.18-.37-.26l.32.14c-.69-.37-1.32-.68-1.93-.93-.96-.49-1.57-.81-2.51-1.26-.3-.3-3.58-1.75-5.18-2.42.06.22-2.01-.69-.12.28-.25-.12.31.11,1.37.55.24.11.52.23.68.29-.03,0-.07-.03-.11-.03,1.03.48,2.39,1.05,3.91,1.79-1.26-.52-2.61-1.01-4.3-1.91-.86-.25-1.8-.53-2.33-.68-2.06-1.2-6.27-2.98-6.81-3.34-2.49-.89-5.44-1.89-8.21-2.67-2.76-.79-5.34-1.35-7-1.55-1.48-.27-1.67-.46-2.21-.62.86.14,1.87.37,2.34.42-1.48-.27-3.66-.74-5.6-.99-1.92-.28-3.58-.41-3.95-.32-3.77-.46,2.15-.07-3.06-.45l.71-.02c-5.12-.53-9.34-.19-13.6.43-4.27.65-8.61,1.57-14.12,2.94.76-.2,1.14-.3,1.31-.3-6.25,1.69-12.49,4.16-18.38,7.23l-2.21,1.15-2.17,1.21c-1.46.78-2.85,1.67-4.27,2.5-2.78,1.74-5.53,3.48-8.16,5.29-1.5,1.01-2.28,1.66-2.92,2.19-.64.53-1.12.97-1.95,1.71l-.74.33c-.95.84-1.89,1.68-2.81,2.54-4.02,3.53-7.41,5.63-12.16,10.49l.73-.5c-1.81,1.63-5.53,5.38-5.34,4.99-.16.19-.48.66-1.21,1.27l-.13-.02-4.12,4.34c-3.32,3.24.22-.81-4.55,3.99-1.74,1.82-4.79,5.33-4.08,4.7.71-.73,1.86-1.81,1.98-1.79l-1.57,1.68c-.08.51-1.09,1.99,3.01-1.9l2.62-2.93.99-.8-2.31,2.37c1.41-1.24,2.16-2.17,3.04-3.18.28-.17.7-.52,1.28-1.05l2.52-2.93c.41-.24-1.06,1.38.82-.39,1.19-1.36-1.42,1.03.65-1.13,1.43-1.22,1.12-.75,2.62-2.38.28-.16-.02.21-.62.84,1.34-1.44,3.72-3.63,4.35-4.43,1.53-1.22,4.85-4.51,4.9-4.17.41-.46,2.43-2.46,3.8-3.64-1.14,1.2.15.11,1.67-1.17,1.53-1.27,3.31-2.7,3.09-2.28.86-.87,2.54-2.29,4.48-3.74.48-.36.98-.74,1.47-1.12.51-.37,1.02-.74,1.52-1.1.5-.37.99-.73,1.47-1.08.48-.35.94-.68,1.38-.99-.19.15-.55.45-.87.66,2.02-1.34,2.65-1.66,4-2.44.06-.19.88-.82,1.9-1.52,1.03-.69,2.24-1.49,3.09-2.06,2.71-1.23-1.42,1.14-.49.9-.25-.13,4.39-2.69,3.43-2.35,2.09-.91,1.77-.83,2.9-1.18.2-.49,1.88-.96,3.49-1.95,3.07-1.17.88-.08,4.17-1.57.82-.26.49-.08-.04.17-.53.25-1.25.6-1.25.6l-.04-.1Zm82.09,6.98c-.66-.33-1.23-.61-1.59-.79.33.16.79.39,1.59.79Zm6.37,3.42c-.76-.45-1.71-.98-2.74-1.52-.2-.18.08-.1.72.25-.36-.15,1.12.69,2.02,1.28Zm-13.1-8.08c1.06.46,1.4.64,1.53.74-.5-.22-1.08-.48-1.84-.81-.03,0-.1-.03-.13-.04.11.02.24.04.45.11h0Z"/></g></svg>