<?xml version="1.0" encoding="UTF-8"?><svg id="Layer_2" xmlns="http://www.w3.org/2000/svg" viewBox="0 0 109.46 50.55"><defs><style>.cls-1{fill:#fff;opacity:0;}.cls-2{fill:#bfefa5;}</style></defs><g id="Layer_1-2"><rect class="cls-1" width="109.46" height="50.55"/><path class="cls-2" d="m25.28,0C11.31,0,0,11.31,0,25.28s11.31,25.28,25.28,25.28,25.28-11.31,25.28-25.28S39.24,0,25.28,0Zm9.66,40.45h-5.06v-8.66c0-1.06-.4-1.46-1.46-1.46h-4.86v3.56c0,4.22-2.31,6.56-6.52,6.56h-2.33v-5.06h2.33c1.07,0,1.46-.38,1.46-1.46V7.59h5.06v15.16l7.17-7.17,3.57,3.57-6.13,6.13h.24c3.89,0,6.52,2.64,6.52,6.56v8.62h.01Z"/><path class="cls-2" d="m69.01,38.24l-6.43-8.85v8.85h-6.46V10.27h6.46v15.47l6.39-8.59h7.98l-8.77,10.59,8.85,10.51h-8.02Z"/><path class="cls-2" d="m84.85,17.15v21.09h-6.46v-21.09h6.46Z"/><path class="cls-2" d="m88.42,21.95c.82-1.64,1.93-2.9,3.35-3.78,1.42-.88,2.99-1.32,4.72-1.32,1.39,0,2.65.29,3.79.88,1.15.58,2.04,1.36,2.71,2.35v-9.8h6.46v27.99h-6.46v-3.03c-.6,1.01-1.47,1.82-2.58,2.42-1.13.61-2.43.9-3.92.9-1.74,0-3.32-.45-4.72-1.35-1.4-.9-2.53-2.17-3.35-3.82-.82-1.65-1.22-3.56-1.22-5.73s.4-4.07,1.22-5.71Zm13.23,1.93c-.89-.93-1.99-1.4-3.26-1.4s-2.38.46-3.27,1.38c-.89.92-1.35,2.18-1.35,3.79s.44,2.89,1.35,3.84c.89.94,1.99,1.42,3.27,1.42s2.38-.47,3.26-1.4c.89-.93,1.35-2.21,1.35-3.82s-.44-2.89-1.35-3.82v.03Z"/><path class="cls-2" d="m81.65,14.95c2.59,0,4.68-2.1,4.68-4.68s-2.1-4.68-4.68-4.68-4.68,2.1-4.68,4.68,2.1,4.68,4.68,4.68Z"/></g></svg>