<?xml version="1.0" encoding="UTF-8"?><svg id="Layer_2" xmlns="http://www.w3.org/2000/svg" viewBox="0 0 113.95 50.55"><defs><style>.cls-1{fill:#fff;opacity:0;}.cls-2{fill:#24ad79;}</style></defs><g id="Layer_1-2"><rect class="cls-1" width="113.95" height="50.55"/><path class="cls-2" d="m6.74,37.6c-1.43-.62-2.57-1.49-3.4-2.58-.83-1.1-1.29-2.32-1.4-3.68h6.39c.07.74.42,1.32,1.01,1.78.61.46,1.35.68,2.22.68.81,0,1.43-.15,1.88-.47.44-.32.67-.72.67-1.22,0-.61-.32-1.06-.94-1.35-.63-.29-1.65-.61-3.06-.96-1.51-.35-2.78-.72-3.78-1.11-1.01-.39-1.88-1.01-2.61-1.85-.74-.85-1.1-1.99-1.1-3.42,0-1.21.33-2.31,1-3.31.67-1,1.65-1.78,2.95-2.36,1.29-.58,2.85-.88,4.63-.88,2.64,0,4.74.65,6.25,1.97,1.53,1.31,2.4,3.06,2.63,5.23h-5.98c-.1-.74-.42-1.31-.96-1.74-.54-.43-1.25-.64-2.14-.64-.75,0-1.33.14-1.74.43-.4.29-.61.68-.61,1.19,0,.61.32,1.06.96,1.36.64.31,1.64.61,3,.9,1.56.4,2.83.81,3.82,1.2.99.39,1.85,1.01,2.58,1.89.74.88,1.13,2.04,1.15,3.5,0,1.24-.35,2.33-1.04,3.31-.69.97-1.7,1.74-2.99,2.29-1.29.56-2.81.83-4.52.83-1.83,0-3.47-.32-4.92-.94l.04-.06Z"/><path class="cls-2" d="m31.44,17.76c1.11-.61,2.4-.9,3.89-.9,1.74,0,3.32.44,4.72,1.32,1.42.89,2.53,2.14,3.35,3.78.82,1.64,1.22,3.54,1.22,5.71s-.42,4.07-1.22,5.73c-.82,1.65-1.93,2.92-3.35,3.82-1.42.9-2.99,1.35-4.72,1.35-1.46,0-2.75-.31-3.88-.9-1.13-.6-2-1.39-2.63-2.35v10.41h-6.46v-28.57h6.46v2.99c.63-.99,1.5-1.78,2.61-2.38Zm5.28,6.1c-.89-.92-2-1.38-3.31-1.38s-2.38.47-3.27,1.4c-.89.93-1.35,2.21-1.35,3.82s.44,2.89,1.35,3.82,1.99,1.4,3.27,1.4,2.38-.47,3.29-1.42c.9-.95,1.36-2.22,1.36-3.84s-.44-2.88-1.35-3.79v-.03Z"/><path class="cls-2" d="m47.49,21.95c.82-1.64,1.93-2.9,3.35-3.78,1.42-.88,2.99-1.32,4.72-1.32,1.49,0,2.79.31,3.92.9,1.13.61,1.99,1.4,2.58,2.38v-2.99h6.46v21.09h-6.46v-2.99c-.63.99-1.5,1.78-2.63,2.38-1.13.61-2.43.9-3.92.9-1.71,0-3.28-.45-4.68-1.35-1.4-.9-2.53-2.17-3.35-3.82-.82-1.65-1.22-3.56-1.22-5.72s.4-4.07,1.22-5.71v.03Zm13.23,1.93c-.89-.93-1.99-1.4-3.27-1.4s-2.38.46-3.27,1.38c-.89.92-1.35,2.18-1.35,3.79s.44,2.89,1.35,3.84c.89.94,1.99,1.42,3.27,1.42s2.38-.47,3.27-1.4c.89-.93,1.35-2.21,1.35-3.82s-.44-2.89-1.35-3.82v.03Z"/><path class="cls-2" d="m71.72,21.95c.89-1.64,2.14-2.9,3.74-3.78,1.6-.88,3.43-1.32,5.5-1.32,2.64,0,4.86.69,6.64,2.08,1.78,1.39,2.95,3.33,3.5,5.86h-6.88c-.58-1.61-1.71-2.42-3.36-2.42-1.18,0-2.13.46-2.83,1.38s-1.06,2.24-1.06,3.95.35,3.03,1.06,3.95c.71.92,1.65,1.38,2.83,1.38,1.67,0,2.78-.81,3.36-2.42h6.88c-.56,2.47-1.72,4.42-3.52,5.82-1.79,1.42-4,2.11-6.61,2.11-2.07,0-3.9-.45-5.5-1.32-1.6-.88-2.85-2.14-3.74-3.78-.89-1.64-1.35-3.56-1.35-5.75s.44-4.11,1.35-5.75h-.01Z"/><path class="cls-2" d="m113.82,29.25h-14.63c.1,1.31.53,2.31,1.26,3,.74.7,1.65,1.04,2.74,1.04,1.61,0,2.74-.68,3.36-2.04h6.88c-.35,1.39-.99,2.64-1.9,3.74-.92,1.11-2.07,1.97-3.46,2.61-1.39.62-2.93.95-4.65.95-2.07,0-3.9-.45-5.52-1.32-1.61-.88-2.88-2.14-3.78-3.78-.9-1.64-1.36-3.56-1.36-5.75s.44-4.11,1.35-5.75c.9-1.64,2.15-2.9,3.77-3.78,1.61-.88,3.46-1.32,5.56-1.32s3.86.43,5.45,1.29c1.58.86,2.83,2.08,3.72,3.67.89,1.58,1.35,3.45,1.35,5.56,0,.61-.04,1.24-.11,1.89h-.01Zm-6.5-3.59c0-1.11-.38-1.99-1.14-2.64-.75-.65-1.69-.99-2.83-.99s-2,.32-2.74.95c-.75.62-1.21,1.53-1.38,2.68h8.09Z"/></g></svg>