<?xml version="1.0" encoding="UTF-8"?><svg id="Layer_2" xmlns="http://www.w3.org/2000/svg" viewBox="0 0 410.74 408.58"><defs><style>.cls-1{fill:#fff;}.cls-2{fill:#24ad79;}</style></defs><g id="Layer_1-2"><path class="cls-2" d="m160.88,9.78C86.81,33.96,30.96,139.69,14.54,199.18c-15.05,41.69-21.74,82.28-3.63,115.02,18.11,32.74,150.41,113.79,253.91,90.12,103.5-23.67,172.93-210.22,135.78-305.74C363.45,3.07,234.94-14.41,160.88,9.78Z"/><path class="cls-1" d="m137.77,141.19v-7.76h5.76v-35.02h-5.76v-7.76h20.35c10.83,0,19.12,6.22,19.12,16.51,0,11.6-8.22,17.28-20.12,17.28-2.38,0-3.84,0-4.92-.08v9.06h6.3v7.76h-20.74Zm20.12-24.35c6.53,0,10.37-3.69,10.37-9.68,0-5.3-4.38-8.76-10.6-8.76h-5.45v18.28c.92.08,2.15.15,5.68.15Zm24.5,24.35v-7.76h5.76v-35.02h-5.76v-7.76h21.12v7.76h-6.68v35.1h13.9v-7.14h8.37v14.82h-36.71Zm40.23,0v-7.76h4.38l12.6-35.1h-5.53v-7.68h28.57v7.68h-5.53l12.6,35.1h4.38v7.76h-19.43v-7.68h5.84l-2.84-8.29h-18.89l-2.84,8.29h6.14v7.68h-19.43Zm18.51-23.19h14.13l-7.07-19.89-7.07,19.89Zm44.2,23.19v-7.76h6.37v-11.52l-14.36-23.5h-5.07v-7.76h19.12v7.76h-4.45l9.29,16.2,9.22-16.2h-4.76v-7.76h19.12v7.76h-5.07l-14.36,23.5v11.52h6.37v7.76h-21.43Zm-172.84,69v-7.76h5.76v-35.02h-5.76v-7.76h37.71v14.44h-8.29v-6.76h-14.98v13.52h15.28v7.37h-15.28v14.29h15.05v-6.76h8.29v14.44h-37.79Zm64.69.54l-18.35-43.32h-4.61v-7.76h19.97v7.76h-5.3l10.91,27.72,10.91-27.72h-5.61v-7.76h19.97v7.76h-4.61l-18.36,43.32h-4.92Zm31.76-.54v-7.76h5.76v-35.02h-5.76v-7.76h37.71v14.44h-8.29v-6.76h-14.98v13.52h15.28v7.37h-15.28v14.29h15.05v-6.76h8.29v14.44h-37.79Zm44.32,0v-7.76h5.76v-35.02h-5.76v-7.76h19.58c11.6,0,19.89,4.99,19.89,15.28,0,6.53-3.99,11.52-9.52,13.75l7.76,13.75h5.76v7.76h-11.67l-10.14-19.2c-1.08.08-2.07.15-3.07.15-1.61,0-3.07,0-4.15-.08v11.37h6.3v7.76h-20.74Zm19.35-26.42c6.53,0,11.14-3.23,11.14-8.52s-4.38-7.83-11.37-7.83h-4.68v16.2c.92.08,2.15.15,4.91.15Zm37.98,26.42v-7.76h6.37v-11.52l-14.36-23.5h-5.07v-7.76h19.12v7.76h-4.45l9.29,16.2,9.22-16.2h-4.76v-7.76h19.12v7.76h-5.07l-14.36,23.5v11.52h6.37v7.76h-21.43Zm-156.04,69v-7.76h5.76v-35.02h-5.76v-7.76h19.12c18.28,0,29.11,9.52,29.11,24.81s-10.22,25.73-30.03,25.73h-18.2Zm14.44-7.76h4.99c13.06,0,19.81-7.06,19.81-17.89s-7.83-17.13-20.43-17.13h-4.38v35.02Zm36.82,7.76v-7.76h4.38l12.6-35.1h-5.53v-7.68h28.57v7.68h-5.53l12.6,35.1h4.38v7.76h-19.43v-7.68h5.84l-2.84-8.29h-18.89l-2.84,8.29h6.14v7.68h-19.43Zm18.51-23.19h14.13l-7.07-19.89-7.07,19.89Zm44.2,23.19v-7.76h6.37v-11.52l-14.36-23.5h-5.07v-7.76h19.12v7.76h-4.45l9.29,16.2,9.22-16.2h-4.76v-7.76h19.12v7.76h-5.07l-14.36,23.5v11.52h6.37v7.76h-21.43Z"/><path class="cls-1" d="m182.54,325.44c-7.43,0-13.45,6.02-13.45,13.45s6.02,13.44,13.45,13.44,13.44-6.02,13.44-13.44-6.02-13.45-13.44-13.45Zm5.14,21.52h-2.69v-4.6c0-.56-.21-.78-.78-.78h-2.59v1.89c0,2.25-1.23,3.49-3.47,3.49h-1.24v-2.69h1.24c.57,0,.78-.2.78-.78v-14.01h2.69v8.06l3.81-3.81,1.9,1.9-3.26,3.26h.13c2.07,0,3.47,1.4,3.47,3.49v4.58h0Z"/><path class="cls-1" d="m205.8,345.78l-3.42-4.71v4.71h-3.44v-14.88h3.44v8.23l3.4-4.57h4.24l-4.66,5.63,4.71,5.59h-4.26Z"/><path class="cls-1" d="m214.22,334.57v11.22h-3.44v-11.22h3.44Z"/><path class="cls-1" d="m216.12,337.12c.44-.87,1.03-1.54,1.78-2.01.75-.47,1.59-.7,2.51-.7.74,0,1.41.15,2.02.46.61.31,1.09.73,1.44,1.25v-5.21h3.44v14.89h-3.44v-1.61c-.32.54-.78.97-1.38,1.29-.6.33-1.29.48-2.08.48-.92,0-1.77-.24-2.51-.72-.75-.48-1.35-1.15-1.78-2.03-.44-.88-.65-1.89-.65-3.05s.21-2.17.65-3.04Zm7.04,1.03c-.47-.49-1.06-.75-1.74-.75s-1.26.24-1.74.73c-.47.49-.72,1.16-.72,2.02s.24,1.54.72,2.04c.47.5,1.06.75,1.74.75s1.26-.25,1.74-.75c.47-.49.72-1.18.72-2.03s-.24-1.54-.72-2.03h0Z"/><path class="cls-1" d="m230.87,345.44c-.76-.33-1.37-.79-1.81-1.37-.44-.58-.69-1.24-.75-1.96h3.4c.04.39.22.7.54.95.33.24.72.36,1.18.36.43,0,.76-.08,1-.25.24-.17.35-.38.35-.65,0-.33-.17-.56-.5-.72-.33-.16-.88-.33-1.63-.51-.81-.18-1.48-.38-2.01-.59-.54-.21-1-.54-1.39-.98-.39-.45-.58-1.06-.58-1.82,0-.64.18-1.23.53-1.76.35-.53.88-.95,1.57-1.26.69-.31,1.51-.46,2.46-.46,1.4,0,2.52.35,3.33,1.05.81.7,1.28,1.63,1.4,2.78h-3.18c-.05-.39-.22-.69-.51-.92-.29-.23-.66-.34-1.14-.34-.4,0-.71.07-.92.23-.21.15-.32.36-.32.64,0,.32.17.56.51.73.34.16.87.32,1.6.48.83.21,1.51.43,2.03.64.53.21.98.54,1.38,1,.39.47.6,1.09.61,1.86,0,.66-.18,1.24-.55,1.76-.37.52-.9.92-1.59,1.22-.69.3-1.49.44-2.4.44-.98,0-1.85-.17-2.62-.5l.02-.03Z"/><path class="cls-1" d="m244,334.89c.59-.33,1.28-.48,2.07-.48.92,0,1.77.24,2.51.7.75.47,1.35,1.14,1.78,2.01.44.87.65,1.89.65,3.04s-.22,2.17-.65,3.05c-.44.88-1.03,1.55-1.78,2.03s-1.59.72-2.51.72c-.78,0-1.46-.16-2.06-.48-.6-.32-1.07-.74-1.4-1.25v5.54h-3.44v-15.2h3.44v1.59c.33-.53.8-.95,1.39-1.26Zm2.81,3.24c-.47-.49-1.06-.73-1.76-.73s-1.26.25-1.74.75c-.47.49-.72,1.17-.72,2.03s.24,1.54.72,2.03c.48.5,1.06.75,1.74.75s1.26-.25,1.75-.75c.48-.5.72-1.18.72-2.04s-.24-1.53-.72-2.02v-.02Z"/><path class="cls-1" d="m252.54,337.13c.44-.87,1.03-1.54,1.78-2.01s1.59-.7,2.51-.7c.79,0,1.49.16,2.09.48.6.32,1.06.75,1.37,1.26v-1.59h3.44v11.22h-3.44v-1.59c-.33.52-.8.95-1.4,1.26-.6.32-1.29.48-2.08.48-.91,0-1.74-.24-2.49-.72-.75-.48-1.35-1.15-1.78-2.03-.44-.88-.65-1.89-.65-3.05s.21-2.17.65-3.04h0Zm7.04,1.03c-.47-.5-1.06-.75-1.74-.75s-1.26.24-1.74.73-.72,1.16-.72,2.02.24,1.54.72,2.04c.47.5,1.06.75,1.74.75s1.26-.25,1.74-.75.72-1.17.72-2.03-.24-1.54-.72-2.03v.02Z"/><path class="cls-1" d="m265.43,337.13c.47-.87,1.14-1.54,1.99-2.01s1.83-.7,2.93-.7c1.4,0,2.59.37,3.53,1.11.95.74,1.57,1.77,1.86,3.12h-3.66c-.31-.86-.91-1.29-1.79-1.29-.63,0-1.13.24-1.51.73-.38.49-.56,1.19-.56,2.1s.18,1.61.56,2.1c.38.49.88.73,1.51.73.89,0,1.48-.43,1.79-1.29h3.66c-.29,1.32-.92,2.35-1.87,3.1-.95.75-2.13,1.12-3.52,1.12-1.1,0-2.08-.24-2.93-.7-.85-.46-1.51-1.14-1.99-2.01-.47-.87-.72-1.89-.72-3.06s.24-2.19.72-3.06h0Z"/><path class="cls-1" d="m287.83,341h-7.78c.05.7.28,1.23.67,1.6.39.37.88.55,1.46.55.86,0,1.46-.36,1.79-1.09h3.66c-.19.74-.53,1.4-1.01,1.99-.49.59-1.1,1.05-1.84,1.39-.74.33-1.56.5-2.48.5-1.1,0-2.08-.24-2.93-.7-.86-.47-1.53-1.14-2.01-2.01-.48-.87-.72-1.89-.72-3.06s.24-2.19.72-3.06c.48-.87,1.15-1.55,2-2.01.86-.46,1.84-.7,2.96-.7s2.05.23,2.9.69c.84.46,1.51,1.11,1.98,1.95.47.84.72,1.83.72,2.96,0,.33-.02.66-.06,1.01h0Zm-3.46-1.91c0-.59-.2-1.06-.61-1.4-.4-.35-.9-.52-1.51-.52s-1.06.17-1.46.5c-.4.33-.64.81-.73,1.43h4.3Z"/><path class="cls-1" d="m212.53,333.4c1.38,0,2.49-1.12,2.49-2.49s-1.12-2.49-2.49-2.49-2.49,1.12-2.49,2.49,1.12,2.49,2.49,2.49Z"/></g></svg>