<svg width="115" height="8" viewBox="0 0 115 8" fill="none" xmlns="http://www.w3.org/2000/svg">
<path d="M105.298 2.9979C104.853 2.88468 105.026 3.21566 104.899 3.34965C104.354 3.30278 104.701 3.09083 104.553 2.90915C104.205 2.89964 103.895 3.10073 103.652 3.04132C103.644 2.99278 103.599 2.96704 103.668 2.92062C103.269 3.06652 102.622 2.72033 102.158 2.9135C102.134 2.88459 102.12 2.85821 102.118 2.83437C102.157 2.98703 102.14 3.12704 102.106 3.22421C101.904 3.1897 101.703 3.32242 101.662 3.1266C101.784 3.15446 101.808 3.08599 101.876 3.04326L101.654 3.07807C101.516 2.78222 101.957 3.04622 101.992 2.8562C101.569 2.8565 101.052 2.97539 100.756 2.84171C100.739 2.57741 101.504 2.90377 101.127 2.59621L101.591 2.79172C101.3 2.31704 101.879 2.87688 101.623 2.3831C100.999 2.18621 100.886 2.35849 100.259 2.17637C100.089 2.29284 100.268 2.39213 100.102 2.50945C99.1536 2.61133 99.4974 1.75347 98.7733 1.98039C98.5703 2.1205 98.4525 2.43163 98.0046 2.18157L98.2116 1.92192C97.5969 1.78918 97.7924 2.27683 97.1734 1.97601C97.3075 1.88233 97.6739 1.96221 97.5884 1.91156C97.2019 1.61339 97.2672 2.02465 96.9417 1.96967L96.9134 1.70285C96.2444 1.65482 95.487 1.73814 94.749 1.686C94.8 1.61605 94.9348 1.5536 94.7756 1.45114C94.3051 1.45239 93.8129 1.37873 93.3246 1.271C92.8375 1.17518 92.3572 1.04982 91.92 0.92267L91.5553 1.1074C91.476 1.09706 91.4186 0.99071 91.508 0.95674C91.1665 0.83592 91.4759 1.09706 91.2972 1.165C91.0967 1.15803 91.0487 1.01106 91.1818 0.95599C90.5438 1.07825 89.3915 1.17232 88.7593 0.89566L88.8923 0.84059C88.3935 0.71101 88.2859 1.24983 87.8326 1.0063L87.9257 0.97318C86.833 0.78946 85.6075 0.89787 84.7896 0.53216C84.6131 0.8454 83.7086 0.33166 83.6147 0.77647C82.9967 0.5225 83.1799 0.45171 82.3031 0.25903C82.0682 0.23254 81.9392 0.52552 81.646 0.56729L81.6486 0.33476L81.2416 0.56812L81.0391 0.28093L80.7627 0.33431C80.8715 0.3514 80.9902 0.44457 80.9741 0.51473C80.545 0.60703 79.9346 0.31982 79.9267 0.20145L78.9091 0.36906C78.9302 0.27674 79.1034 0.25027 79.241 0.19235C78.6969 0.41379 79.1467 -0.0584419 78.6454 0.145589C78.7108 0.1994 78.606 0.28422 78.595 0.33223C78.3514 0.19105 77.7861 0.182275 77.3691 0.2385L77.4523 0.0787621C76.7015 0.0314701 75.8639 0.143065 75.0229 0.133435C75.3277 0.21089 75.2562 0.48984 75.0096 0.51505L74.9108 0.26711C74.7513 0.42104 75.1698 0.35743 74.8429 0.54691C74.53 0.522 74.6306 0.2691 74.8127 0.18639L74.4305 0.27775C74.4087 0.20284 74.4989 0.165174 74.5209 0.0691651C74.3651 0.22394 73.8572 -0.171937 73.6329 0.0954061L73.611 0.020496C72.7667 0.025636 72.3844 0.11699 71.7002 0.13543C71.6899 0.35066 71.4206 0.30465 71.2211 0.48052C70.7165 0.42733 70.153 0.27517 69.5471 0.30765C69.1241 0.42464 69.4277 0.49017 69.2383 0.62173C69.2004 0.43044 68.5946 0.46292 68.9041 0.31607C68.1765 0.37122 67.9743 0.37163 67.0585 0.57027C67.162 0.64444 67.2756 0.67431 67.2209 0.74341C67.0564 0.7835 66.8393 0.67946 66.8576 0.58261L66.9013 0.56151C65.8807 0.8955 64.4898 0.0957221 63.6856 0.53745L63.7292 0.51635L62.8854 0.77417C62.4919 0.76192 63.1119 0.61613 62.8176 0.50998C61.9163 0.88292 61.3608 0.54222 60.6144 0.79899C59.9923 0.25657 58.5385 0.97332 57.7235 0.66269L57.7786 0.79573C57.5822 0.94122 57.5238 0.73748 57.3736 0.71479C57.4005 0.81808 57.6018 0.82136 57.4821 0.90281C55.763 1.18202 53.897 0.96525 52.1129 0.98481C51.4599 1.00262 51.7995 1.70973 50.96 1.45564L51.1732 1.18577C49.8913 1.59213 48.4988 1.39426 47.2418 1.75969C47.315 1.6948 47.3088 1.61958 47.4355 1.60966C47.1492 1.45097 46.4345 1.68781 46.4439 1.83372C46.2418 1.83414 46.3843 1.70353 46.2553 1.63906C45.9752 1.5556 45.5949 1.92717 45.4344 1.76226C45.4054 1.7362 45.5039 1.69653 45.5549 1.67712C45.3879 1.77882 44.7317 1.72594 44.9166 1.91976C44.4284 1.86256 44.0067 2.09255 43.6153 2.00307C43.3861 2.25765 42.7848 1.96474 42.7355 2.2993C42.7404 1.95461 41.8677 2.10092 41.581 2.28407C41.6725 2.17287 41.3083 2.20229 41.4136 2.04762C41.0679 2.08127 40.7555 2.17304 40.8325 2.34608C40.1591 1.99398 39.5816 2.78673 39.1766 2.2978C38.1658 2.57187 37.2253 2.77652 36.3069 2.9357C36.3119 2.59101 37.3253 2.81493 37.2548 2.46074C36.3898 2.67489 35.9087 3.01175 35.032 3.0056C34.8008 2.97996 35.1463 2.84524 35.2186 2.78405C34.3528 3.00189 33.5227 2.89371 32.7586 3.14257C32.758 3.11135 32.838 3.06746 32.9154 3.03465C32.7624 3.05796 32.5548 3.01438 32.5855 3.16905L32.7305 3.11282C32.9946 3.31698 32.1574 3.63073 32.1407 3.75512C32.3637 3.28932 31.3632 3.70561 31.7316 3.11374C31.634 3.14971 31.5136 3.23485 31.545 3.33529C31.3939 3.3163 31.3404 3.26133 31.483 3.13071C30.9407 3.25931 31.1477 3.40765 30.6495 3.4453C30.647 3.37092 30.7446 3.33495 30.7896 3.24031C30.5494 3.4069 30.3056 3.57264 29.8814 3.54171C29.9034 3.49624 29.8499 3.44127 29.9765 3.43135C29.2558 3.5075 28.7743 3.91421 27.9686 3.83495C28.1795 3.49069 27.6894 3.74779 27.6286 3.46968L27.2101 3.58382L27.3909 3.71064C27.0173 3.73015 26.7004 3.96077 26.3709 3.88933L26.6392 3.7525L25.9438 3.85387L26.3488 3.93481C25.9792 4.10677 26.4157 4.28815 25.9094 4.24234C26.007 4.20637 25.5349 4.26554 25.3296 4.1098C25.1507 4.21267 24.9672 4.31838 24.684 4.2653C24.6061 4.18142 24.7217 3.94752 24.6719 3.89339C24.5069 4.13932 23.7997 4.02039 23.5845 4.28204C23.6576 4.21715 23.6527 4.06839 23.6237 4.04233L23.4807 4.24278C23.3023 4.19034 23.277 4.16512 23.2975 4.04158C22.7745 4.0347 23.4856 4.39155 22.8565 4.27104C22.9038 4.25078 22.8785 4.22556 22.9798 4.19044C22.3531 4.14431 21.7863 4.37999 21.2098 4.31814C21.0242 4.04255 21.7059 4.22173 21.4982 3.99161C20.6787 4.09181 19.8126 4.43003 19.0088 4.39392L19.1582 4.42031C19.0653 4.8265 18.5565 4.24778 18.1591 4.45614C18.2567 4.42017 18.2776 4.22678 18.2556 4.27225C17.7053 4.23193 17.1449 4.42245 16.3193 4.58342L16.4174 4.4776C16.0904 4.39509 15.5687 4.45067 15.2197 4.41363C15.1216 4.51945 14.922 4.50878 15.0481 4.65417C13.9598 4.09454 13.0087 5.04279 12.0469 4.55869C12.1599 4.55733 12.317 4.46501 12.227 4.46775L11.4178 4.57418C11.4828 4.74837 11.5256 4.68043 11.6973 4.81295C11.5956 4.91792 11.3704 5.00243 11.1682 5.00284C11.5305 4.87973 11.1625 4.72177 11.0016 4.62671C11.0284 4.67946 10.9755 4.74118 10.9903 4.79509C10.5624 4.49133 10.9249 5.14928 10.3419 4.94605L10.3712 4.85173C10.1536 4.903 9.95844 5.02548 9.72274 5.00269C9.62495 4.80159 9.95138 4.90341 9.96552 4.73956C9.63961 4.75443 9.31929 5.13582 9.02388 4.93229C9.16431 4.87891 9.36361 4.87396 9.50119 4.81604C9.17761 4.58276 9.1411 4.64046 8.90055 4.6049L8.92271 4.60997L8.36912 4.49896L8.51008 4.56226C8.09806 5.08978 7.67669 4.6554 7.12034 4.99838C7.66054 4.67502 7.21024 4.8091 7.25435 4.58216C7.1134 4.51885 6.90059 4.44689 6.96263 4.37947C6.69897 4.56399 6.53049 4.23017 6.15826 4.49867C6.14391 4.42545 5.88057 4.48958 5.94208 4.30548C5.60235 4.36381 6.021 4.4362 5.99251 4.52683C5.46381 4.78288 4.77097 4.19318 4.01132 4.52465C3.36056 4.65177 3.23046 4.89791 2.62338 5.00392C2.4224 4.88026 2.80001 4.74122 2.80001 4.74122C2.47695 4.62462 2.22912 4.63791 1.9164 4.71407C1.98129 4.65119 1.92041 4.59453 1.82767 4.50728C1.58153 4.51318 1.65189 4.76629 1.33053 4.64231C1.39141 4.56297 1.4678 4.43278 1.58945 4.35956C1.29371 4.41241 1.00125 4.53595 0.697287 4.5908C0.62291 4.45723 0.887414 4.40501 0.998832 4.32557C0.658785 4.36829 0.11543 4.3995 0 4.59848L0.213962 4.68236C0.0890436 4.68489 0.157946 4.50247 0.250158 4.47304C0.547689 4.32734 0.664581 4.56389 0.678928 4.63711L0.460952 4.67277C0.662874 5.11526 1.32968 4.646 1.76247 4.69054L1.56832 4.99586L2.0238 4.75417C2.11738 4.83773 2.1734 5.01762 1.95458 5.05696C2.25927 5.21988 2.23459 4.9539 2.49645 5.13422C2.52547 5.16028 2.51017 5.1762 2.48379 5.1896L2.79081 5.10437C2.72962 5.16809 2.83301 5.32772 2.65006 5.27813C3.19246 5.47207 3.53801 5.06535 3.73867 5.30939L3.69214 5.32596C4.454 5.23979 3.77202 5.09554 4.34756 4.83854L4.71955 5.42095L4.79943 5.19053C4.87866 5.20087 5.03344 5.22071 5.00041 5.31419C5.29509 5.16396 4.95336 5.21406 5.12312 5.06636C5.49523 5.29131 6.16067 4.98104 6.24347 5.34968C6.38053 5.17507 5.88603 5.21356 6.28695 5.09151C6.39793 5.4899 6.75244 5.02696 7.09523 5.21023C6.98634 5.41459 6.66159 5.30538 7.00438 5.48866C7.21519 5.1444 7.67402 5.56791 7.9649 5.5023C7.97767 5.22545 8.59667 5.39027 9.08369 5.29956C9.05351 5.39757 9.99985 5.43907 10.4558 5.53551L10.4449 5.58352C10.5283 5.3034 10.996 5.34815 11.3366 5.28613C11.3253 5.45452 11.2641 5.51824 11.0828 5.59726L11.4025 5.59262C11.4779 5.50105 11.5743 5.45315 11.784 5.4195L11.7055 5.62693C12.1334 5.60816 12.5596 5.37532 13.1107 5.49741C13.1361 5.30117 12.6636 4.97166 13.2376 4.82313C13.2608 4.92558 13.2856 5.1061 13.1386 5.1541C13.1889 5.13838 13.315 5.06232 13.4142 5.10442L13.1855 5.28915C13.4377 5.35847 13.3129 5.13954 13.5134 5.14651C13.5137 5.29813 13.6652 5.24728 13.6374 5.36914C13.5871 5.38485 13.4598 5.313 13.3875 5.37419C13.6121 5.39446 13.8894 5.47338 13.9808 5.58364C13.957 5.5005 13.9767 5.38065 14.1407 5.35987C14.5657 5.33657 14.2913 5.53417 14.5435 5.6035C14.6416 5.49768 14.9183 5.59591 14.9192 5.37076C15.0442 5.36824 15.0711 5.47153 15.12 5.52935C15.3384 5.42385 16.148 5.46903 15.8934 5.23986L15.8343 5.22636C15.8343 5.22636 15.859 5.22034 15.8718 5.21549C16.5873 4.97496 17.3755 5.28338 18.0887 5.15501L18.0912 5.22939C18.5154 5.12432 19.0413 5.13573 19.3373 4.9625C19.4631 4.95628 19.6431 5.0868 19.5916 5.17606C19.9154 5.10242 19.9487 5.02456 20.4247 5.11785C20.1034 5.26586 20.5436 5.22663 20.0917 5.2321C20.5207 5.27579 20.6232 5.38858 21.0688 5.15627C20.9258 5.35673 21.4022 5.38017 21.6011 5.30906L21.2945 5.18846C21.5216 5.14711 21.7183 5.15324 21.9233 5.15736L21.8293 5.41563C22.7194 5.66961 23.3672 4.80744 24.0604 5.27676C24.2789 5.0858 23.5806 5.18263 23.7747 4.96276C24.1764 4.97301 24.614 5.30231 24.7398 5.29609C25.2951 5.39971 25.2279 4.89476 25.8061 4.94922C25.7281 4.86534 25.6424 4.62816 26.0647 4.51487C26.4673 4.52142 26.5807 4.8582 26.3353 4.94587C26.2391 4.95884 26.1899 4.93594 26.193 4.90556C26.067 4.9467 25.8999 4.99786 26.0633 5.08185L26.1082 4.98722C26.312 5.06487 26.8624 5.01974 26.7415 5.17472C27.0379 5.06764 26.8587 5.01889 26.6329 4.98671C27.1549 5.08273 27.4332 4.93651 27.9662 4.98454C27.8789 4.94128 27.7933 4.84009 27.8759 4.83566C28.657 4.88602 28.2045 4.6388 28.7239 4.55938C29.0322 4.67259 28.6434 4.89456 29.1604 4.74075C29.4907 4.8085 29.2469 4.97424 29.1236 5.05484C29.5908 4.84691 30.0305 5.09898 30.3073 5.11175L30.0611 5.20311C30.2098 5.14773 30.3318 5.14066 30.4584 5.13075L30.2988 4.96215C30.4499 4.98114 30.5757 4.97492 30.5781 5.0493C30.7206 4.91869 30.4381 4.76084 30.7293 4.57485C30.933 4.65251 31.3255 4.43138 31.4128 4.66118C30.7828 4.62982 31.4994 4.89466 30.9763 4.97325C31.0739 4.93727 31.2005 4.92736 31.3515 4.94636C31.3769 4.97157 31.336 4.99721 31.2932 5.01462C31.9048 5.17775 31.5464 4.7228 32.163 4.67724C32.096 4.81735 32.325 4.92022 32.4272 4.8814C32.1785 4.89838 32.2896 4.66733 32.5114 4.54706C32.9144 4.61976 32.9336 4.43376 33.1448 4.42765L32.9026 4.39947C32.9733 4.2602 33.1717 4.25894 33.4425 4.19649C33.4739 4.29694 33.1962 4.28785 33.2999 4.3271C33.585 4.06588 34.0112 4.51303 34.4282 4.32081C34.6328 4.39478 34.4682 4.57086 34.6474 4.61961C35.1118 4.40714 35.1832 4.75763 35.6729 4.57038C35.5132 4.40177 35.4912 4.44725 35.8297 4.24099L35.015 4.43942L35.5243 4.13231C35.2748 4.15298 35.0065 4.28982 34.8546 4.27451C35.0955 4.10423 35.0726 4.1534 34.9412 4.01455C35.3054 4.25712 35.6048 3.79713 36.014 3.94506L36.0396 4.39388C36.6509 4.5414 37.0724 4.07434 37.8544 4.121L37.5996 4.06275C37.6887 3.87717 38.0725 3.99989 38.3159 3.90399C38.3051 4.05307 38.4668 4.09391 38.5796 4.178C38.5581 4.06817 39.144 4.13993 39.1865 3.83491L39.5491 3.99941C40.1764 4.02623 40.2202 3.51168 40.8229 3.50959C40.6575 3.68937 40.9384 3.76914 40.5464 3.92042C40.7445 3.90355 40.9285 3.91453 40.9209 3.81176C41.0457 3.89469 41.4562 3.5611 41.6526 3.68761C41.7311 3.61618 41.7444 3.45603 41.9713 3.4496C41.9994 3.47935 41.9774 3.52482 41.9774 3.52482C41.9713 3.4496 42.3184 3.39295 42.1077 3.24376C42.7638 3.6541 43.8213 3.05655 44.3936 3.40885C44.8255 3.32109 45.3446 3.22604 45.7397 3.18037C45.7177 3.22584 45.7458 3.2556 45.6703 3.2461C46.2281 3.33865 45.9689 2.7898 46.6022 2.89184C46.9419 3.10551 46.282 3.05178 46.4903 3.12659C46.6168 3.61013 47.2347 2.99758 47.6753 3.24596L47.5777 3.28193C47.9113 3.42037 48.339 3.02853 48.8653 3.02064C48.8653 3.02064 48.8433 3.06611 48.8677 3.09502C49.2039 2.81439 49.8728 2.67588 50.3686 2.56385C50.2285 2.76885 50.1505 2.68497 50.2599 2.86929C50.4841 2.8234 50.1673 2.56058 50.6111 2.47165C50.7646 2.56503 51.0958 2.62908 51.1579 2.83366L50.7352 2.8808C50.9728 3.13329 51.2836 2.82744 51.5102 2.85593L51.4906 2.97579C52.1366 2.88644 52.1232 2.58807 52.819 2.55286L52.7411 2.46898C53.0993 2.14287 53.0747 2.60742 53.4382 2.36023L53.5782 2.64869C53.8244 2.55733 54.4366 2.29316 54.8841 2.20508C54.6464 2.44605 54.1257 2.59901 53.8109 2.7524C54.0596 2.73543 54.6545 2.6655 54.7754 2.51051C54.6778 2.54649 54.5574 2.63163 54.4536 2.59238C54.7416 2.33569 55.1365 2.18895 55.633 2.15868C55.5888 2.74308 56.9397 2.20483 57.3307 2.63615C58.1935 2.36324 59.0807 2.61269 60.0986 2.51123C59.7068 2.0836 60.3975 2.47853 60.3037 2.0219C60.539 1.97854 60.6319 1.98034 60.6563 2.00925L61.3953 2.24424C61.5724 2.37022 61.1752 2.35712 61.2021 2.46041C61.7251 2.46729 61.4319 2.64505 61.785 2.74909C61.7055 2.58714 61.9537 2.50401 62.2542 2.54939L61.824 2.35777C62.5386 2.0704 62.4734 2.71219 63.1954 2.42651L62.9689 2.58455C63.3434 2.47589 64.3614 2.51042 64.7129 2.1284C64.7829 2.17936 64.8753 2.30154 64.7107 2.34163C65.6125 2.35738 66.7014 1.86027 67.413 2.06181L67.3475 2.17892C67.5158 2.13968 67.6323 1.95262 67.8477 2.06404C67.8367 2.11205 67.783 2.17746 67.8631 2.18411C67.9505 2.14191 68.3036 1.97396 68.5272 2.03284L68.3414 2.16524C69.226 2.28977 69.6834 1.81923 70.4211 1.71976C70.426 2.05506 71.1214 2.14023 71.4679 2.18835L71.4569 2.23635C72.4794 2.26804 73.1914 1.94121 74.1405 1.80071C74.73 2.14531 76.1339 1.95334 77.0801 2.16576C76.9346 2.1053 77.1043 1.90706 77.2755 1.87235C77.4965 1.94231 77.8947 1.6448 77.8522 1.94981L77.7721 1.94316C77.9362 2.24491 78.3933 2.16675 78.7474 2.18164L78.8147 1.78515C79.7321 2.39511 81.2643 1.64185 81.7558 2.17773C81.9827 2.08585 82.2612 2.09124 82.4902 2.00758L82.4688 2.22028C83.0861 2.30702 83.3948 2.3504 84.1665 2.3403L84.0013 2.48515C84.4321 2.52146 84.5829 1.89539 84.981 1.9048L85.0814 2.23081C85.8409 2.25679 86.5813 2.60478 87.3493 2.37237C87.3347 2.41953 87.3025 2.50932 87.1813 2.51269C87.5348 2.54689 88.5338 2.83358 88.4421 2.38518C88.4268 2.6731 89.2194 2.46961 89.6357 2.38216L89.5544 2.58504C89.9219 2.35431 89.9387 2.28046 90.4261 2.2559C90.5372 2.29684 90.5098 2.43431 90.3623 2.36562C90.7283 2.51535 90.6767 2.19661 91.1256 2.35752L90.9397 2.47431C91.3268 2.53172 91.3051 2.45681 91.5339 2.32261C91.7882 2.26417 92.2697 2.45199 92.3059 2.65066C92.3698 2.54093 92.6024 2.40758 92.8254 2.48577C92.8471 2.56068 92.7579 2.59465 92.715 2.61206C93.3523 2.81602 93.7104 2.48992 94.132 2.75338C94.1315 2.82322 94.1573 2.86405 94.1908 2.88727C93.6756 2.81223 93.2634 2.74522 93.3046 2.7352C93.28 2.92775 93.6945 3.0186 93.3287 3.24195C93.6786 3.1393 94.2884 2.90183 94.6828 3.04639C94.7016 3.06622 94.7158 3.08891 94.7284 3.11897L94.6818 3.13554C94.7716 3.16772 94.8588 3.16044 94.9411 3.1404C95.0661 3.18841 95.1431 3.22544 95.2675 3.24222C95.292 3.40713 95.7309 3.3909 95.9365 3.42625C95.9506 3.21186 96.2176 3.28457 95.9855 3.07608C96.0162 3.09475 95.9418 3.09718 95.8046 3.08525C95.7734 3.08588 95.7349 3.08483 95.7131 3.09538C95.7147 3.08799 95.7229 3.08599 95.7283 3.07945C95.5919 3.06383 95.4133 3.04631 95.2089 3.02288C95.3873 2.93932 95.5743 2.86938 95.785 3.01857C95.9103 2.89566 96.0466 2.77528 96.1254 2.71947C96.3682 3.05087 96.8902 3.2829 96.9374 3.4841C97.585 3.47283 98.4332 3.65507 98.897 3.32591C99.0841 3.3065 99.0848 3.47373 99.1423 3.54516C99.0325 3.56668 98.9097 3.54251 98.8445 3.58978C99.2195 3.54727 99.9123 3.72898 100.05 3.46522C100.479 3.66422 99.7503 3.67253 100.38 3.73881L100.283 3.80601C101.41 4.48709 102.4 3.50497 103.631 4.3383C103.547 4.28396 103.502 4.25821 103.494 4.20968C104.234 4.48782 105.028 4.63808 105.823 4.78097C106.616 4.93123 107.406 5.08066 108.096 5.4949C108.498 5.69168 108.589 5.52994 108.886 5.4734L108.914 5.72092L109.426 5.58926C110.107 5.58559 110.36 6.41667 111.245 6.31974L111.189 6.13985C111.461 6.26025 112.11 6.34267 112.009 6.49448C112.048 6.47623 112.15 6.37126 112.237 6.48437L112.21 6.60253L112.965 6.63136C113.474 6.88754 112.732 7.05601 113.505 7.32982C113.808 7.37974 114.444 7.26856 114.36 7.1563C114.246 7.11451 114.084 6.98822 114.115 6.8709L114.4 6.89728C114.562 6.58067 114.889 6.30573 114.307 5.85805L113.778 5.91195L113.683 5.69977L114.076 5.81679C113.906 5.59142 113.722 5.68152 113.534 5.72392C113.525 5.62485 113.481 5.54488 113.398 5.48316L112.841 5.65891C112.829 5.50846 113.127 5.46384 112.848 5.29122C112.589 5.37182 112.956 5.65016 112.575 5.63675C112.405 5.41138 112.505 5.3101 112.208 5.35471C112.199 5.25564 112.27 5.21746 112.384 5.2124C112.121 5.24161 111.759 5.05781 111.586 5.20097C111.415 4.92876 110.79 5.01125 110.908 4.70011C110.81 4.7554 110.422 4.83768 110.208 4.78872C110.709 4.51484 109.413 4.54107 109.633 4.15988C109.246 4.425 108.542 4.01931 107.979 4.0693C108.014 4.05021 108.086 4.00832 108.125 4.04061C107.843 3.9333 107.788 3.80026 107.618 3.69158C107.508 3.96948 107.036 3.92758 106.748 4.04826C106.462 3.68373 107.05 3.76372 107.004 3.46968C106.962 3.70854 106.324 3.55512 106.398 3.77784C106.169 3.53897 106.181 3.63888 106.1 3.36393C105.966 3.71399 105.832 3.36477 105.553 3.53029C105.199 3.25903 105.531 3.16778 105.071 3.17525C104.89 3.0135 105.306 2.98029 105.306 2.98029L105.298 2.9979ZM94.7375 1.75331L94.7383 1.74962C94.8303 1.75511 94.9068 1.76091 94.9557 1.7682C94.9097 1.76545 94.848 1.76302 94.7367 1.757L94.7375 1.75331ZM93.8549 1.63701C93.962 1.66149 94.0937 1.67996 94.2374 1.69727C94.2583 1.77587 94.2157 1.84382 94.1299 1.82809C94.1823 1.78568 93.9806 1.71625 93.8586 1.63786L93.8549 1.63701ZM95.5151 3.34932C95.3729 3.35955 95.3332 3.31165 95.3204 3.26596C95.3857 3.26924 95.4621 3.27504 95.564 3.27114C95.5694 3.2646 95.5793 3.25521 95.5847 3.24867C95.5643 3.28676 95.5449 3.32115 95.516 3.34563L95.5151 3.34932Z" fill="#F53F4E"/>
</svg>
