<svg width="115" height="8" viewBox="0 0 115 8" fill="none" xmlns="http://www.w3.org/2000/svg">
<path d="M105.318 2.99303C104.873 2.8798 105.047 3.21078 104.919 3.34477C104.374 3.2979 104.721 3.08596 104.573 2.90427C104.225 2.89476 103.915 3.09585 103.672 3.03644C103.664 2.98791 103.619 2.96216 103.688 2.91574C103.289 3.06164 102.642 2.71546 102.178 2.90862C102.154 2.87971 102.14 2.85333 102.138 2.82949C102.177 2.98216 102.16 3.12216 102.126 3.21933C101.924 3.18482 101.723 3.31754 101.682 3.12172C101.804 3.14958 101.828 3.08111 101.896 3.03838L101.674 3.07319C101.536 2.77735 101.977 3.04134 102.012 2.85132C101.589 2.85163 101.072 2.97051 100.776 2.83683C100.759 2.57254 101.524 2.89889 101.147 2.59133L101.611 2.78685C101.32 2.31217 101.899 2.872 101.643 2.37822C101.019 2.18133 100.906 2.35361 100.279 2.17149C100.109 2.28796 100.288 2.38725 100.122 2.50457C99.1732 2.60645 99.5169 1.7486 98.7928 1.97551C98.5898 2.11562 98.4721 2.42675 98.0241 2.17669L98.2311 1.91705C97.6165 1.7843 97.8119 2.27195 97.1929 1.97113C97.327 1.87745 97.6935 1.95733 97.6079 1.90668C97.2214 1.60851 97.2867 2.01978 96.9613 1.9648L96.9329 1.69797C96.2639 1.64994 95.5066 1.73327 94.7685 1.68112C94.8195 1.61117 94.9542 1.54872 94.795 1.44627C94.3246 1.44752 93.8324 1.37386 93.3441 1.26612C92.857 1.1703 92.3766 1.04494 91.9394 0.917791L91.5747 1.10252C91.4955 1.09218 91.4382 0.985826 91.5275 0.951857C91.186 0.831041 91.4955 1.09218 91.3167 1.16012C91.1163 1.15315 91.0683 1.00618 91.2013 0.951106C90.5633 1.07337 89.4111 1.16744 88.7788 0.890779L88.9119 0.835709C88.413 0.706131 88.3054 1.24495 87.852 1.00143L87.9451 0.968297C86.8525 0.784573 85.627 0.89299 84.8092 0.527279C84.6327 0.84052 83.7282 0.326782 83.6343 0.771591C83.0162 0.517618 83.1995 0.44683 82.3226 0.254146C82.0878 0.227657 81.9586 0.520641 81.6654 0.562411L81.6681 0.329877L81.2611 0.563241L81.0587 0.276048L80.7822 0.329424C80.891 0.34652 81.0096 0.439686 80.9936 0.509846C80.5645 0.602148 79.954 0.314942 79.9461 0.196563L78.9286 0.364176C78.9497 0.27186 79.1229 0.245383 79.2604 0.187466C78.7163 0.408904 79.1662 -0.0633235 78.665 0.140706C78.7304 0.194516 78.6255 0.279339 78.6145 0.327344C78.3709 0.186169 77.8056 0.177393 77.3887 0.233613L77.4718 0.0738812C76.721 0.0265875 75.8834 0.138184 75.0424 0.128554C75.3472 0.206006 75.2757 0.48496 75.029 0.510167L74.9303 0.262226C74.7707 0.416153 75.1894 0.352547 74.8624 0.542024C74.5495 0.517114 74.6501 0.264222 74.8322 0.18151L74.4499 0.272865C74.4282 0.197954 74.5184 0.160292 74.5403 0.0642825C74.3845 0.219054 73.8766 -0.176819 73.6523 0.0905237L73.6306 0.0156136C72.7862 0.0207553 72.404 0.112109 71.7197 0.130549C71.7094 0.34578 71.4402 0.299769 71.2406 0.475641C70.736 0.422449 70.1724 0.270291 69.5666 0.302766C69.1435 0.419757 69.4471 0.485286 69.2578 0.616845C69.2199 0.425563 68.6141 0.458037 68.9235 0.311183C68.196 0.366337 67.9938 0.366753 67.078 0.565388C67.1815 0.639562 67.2951 0.669424 67.2405 0.738528C67.0759 0.778614 66.8588 0.674578 66.877 0.577724L66.9207 0.556626C65.9001 0.890621 64.5093 0.0908395 63.705 0.532564L63.7487 0.511465L62.9048 0.769291C62.5113 0.757039 63.1314 0.611251 62.837 0.505102C61.9358 0.878034 61.3803 0.537336 60.6338 0.794111C60.0118 0.251686 58.5579 0.968441 57.743 0.657805L57.7981 0.790849C57.6016 0.936335 57.5433 0.732601 57.393 0.709912C57.4199 0.813202 57.6212 0.81648 57.5016 0.897926C55.7825 1.17714 53.9164 0.960369 52.1323 0.979931C51.4793 0.997739 51.8189 1.70485 50.9794 1.45077L51.1927 1.18089C49.9108 1.58725 48.5183 1.38938 47.2613 1.75481C47.3344 1.68993 47.3283 1.6147 47.4549 1.60479C47.1687 1.4461 46.454 1.68293 46.4634 1.82885C46.2612 1.82926 46.4037 1.69865 46.2747 1.63418C45.9946 1.55072 45.6143 1.9223 45.4539 1.75738C45.4249 1.73132 45.5233 1.69166 45.5744 1.67225C45.4073 1.77395 44.7511 1.72107 44.936 1.91489C44.4479 1.85769 44.0262 2.08767 43.6347 1.99819C43.4056 2.25277 42.8042 1.95986 42.7549 2.29442C42.7599 1.94973 41.8871 2.09604 41.6005 2.27919C41.692 2.16799 41.3277 2.19741 41.433 2.04274C41.0873 2.07639 40.7749 2.16817 40.8519 2.3412C40.1786 1.9891 39.601 2.78185 39.196 2.29292C38.1853 2.56699 37.2448 2.77164 36.3263 2.93082C36.3313 2.58613 37.3448 2.81005 37.2742 2.45587C36.4093 2.67001 35.9282 3.00687 35.0514 3.00072C34.8202 2.97508 35.1658 2.84036 35.2381 2.77917C34.3723 2.99701 33.5421 2.88884 32.7781 3.1377C32.7774 3.10647 32.8574 3.06258 32.9349 3.02977C32.7819 3.05308 32.5742 3.0095 32.6049 3.16417L32.7499 3.10794C33.0141 3.31211 32.1769 3.62585 32.1601 3.75024C32.3832 3.28444 31.3826 3.70073 31.7511 3.10886C31.6535 3.14483 31.533 3.22997 31.5644 3.33041C31.4134 3.31142 31.3599 3.25645 31.5024 3.12584C30.9601 3.25443 31.1671 3.40278 30.6689 3.44043C30.6665 3.36604 30.7641 3.33007 30.809 3.23543C30.5689 3.40202 30.3251 3.56776 29.9008 3.53683C29.9229 3.49136 29.8694 3.43639 29.996 3.42648C29.2753 3.50262 28.7937 3.90933 27.9881 3.83007C28.1989 3.48581 27.7088 3.74291 27.6481 3.4648L27.2295 3.57894L27.4104 3.70576C27.0368 3.72527 26.7198 3.95589 26.3903 3.88446L26.6586 3.74762L25.9632 3.84899L26.3683 3.92993C25.9987 4.10189 26.4351 4.28327 25.9288 4.23746C26.0264 4.20149 25.5544 4.26066 25.3491 4.10493C25.1701 4.20779 24.9867 4.3135 24.7035 4.26042C24.6255 4.17654 24.7412 3.94264 24.6914 3.88851C24.5263 4.13444 23.8191 4.01551 23.6039 4.27716C23.677 4.21227 23.6722 4.06351 23.6432 4.03745L23.5002 4.2379C23.3218 4.18546 23.2965 4.16025 23.3169 4.0367C22.7939 4.02982 23.505 4.38667 22.8759 4.26616C22.9233 4.2459 22.898 4.22069 22.9993 4.18556C22.3726 4.13943 21.8058 4.37511 21.2293 4.31326C21.0436 4.03768 21.7254 4.21685 21.5176 3.98673C20.6982 4.08694 19.8321 4.42516 19.0282 4.38905L19.1776 4.41543C19.0848 4.82162 18.5759 4.2429 18.1786 4.45127C18.2762 4.41529 18.2971 4.2219 18.275 4.26737C17.7247 4.22705 17.1644 4.41757 16.3388 4.57855L16.4368 4.47273C16.1098 4.39021 15.5881 4.44579 15.2391 4.40875C15.1411 4.51457 14.9415 4.50391 15.0675 4.6493C13.9793 4.08966 13.0281 5.03791 12.0663 4.55382C12.1793 4.55245 12.3364 4.46014 12.2464 4.46288L11.4372 4.5693C11.5023 4.7435 11.545 4.67555 11.7168 4.80807C11.6151 4.91305 11.3898 4.99755 11.1877 4.99796C11.55 4.87485 11.182 4.7169 11.0211 4.62183C11.0479 4.67458 10.9949 4.7363 11.0098 4.79022C10.5819 4.48645 10.9444 5.1444 10.3613 4.94117L10.3907 4.84685C10.173 4.89812 9.97798 5.02061 9.74228 4.99781C9.64448 4.79671 9.97091 4.89854 9.98506 4.73468C9.65915 4.74955 9.33882 5.13094 9.04341 4.92741C9.18384 4.87403 9.38314 4.86908 9.52073 4.81116C9.19715 4.57788 9.16064 4.63559 8.92009 4.60002L8.94225 4.60509L8.38866 4.49408L8.52962 4.55739C8.1176 5.0849 7.69622 4.65052 7.13988 4.9935C7.68008 4.67014 7.22978 4.80422 7.27389 4.57728C7.13293 4.51397 6.92013 4.44201 6.98217 4.3746C6.71851 4.55912 6.55003 4.22529 6.17779 4.49379C6.16345 4.42057 5.9001 4.48471 5.96162 4.3006C5.62189 4.35894 6.04053 4.43133 6.01204 4.52195C5.48335 4.778 4.79051 4.1883 4.03086 4.51978C3.3801 4.64689 3.25 4.89303 2.64292 4.99904C2.44193 4.87538 2.81954 4.73634 2.81954 4.73634C2.49649 4.61974 2.24866 4.63303 1.93593 4.70919C2.00082 4.64631 1.93995 4.58966 1.84721 4.5024C1.60107 4.5083 1.67143 4.76141 1.35006 4.63743C1.41094 4.55809 1.48733 4.4279 1.60899 4.35468C1.31325 4.40753 1.02079 4.53107 0.716818 4.58592C0.642441 4.45235 0.906945 4.40013 1.01837 4.32069C0.678316 4.36341 0.134961 4.39462 0.0195312 4.5936L0.233493 4.67748C0.108575 4.68001 0.177476 4.49759 0.269689 4.46816C0.56722 4.32247 0.684112 4.55901 0.698458 4.63224L0.480483 4.66789C0.682405 5.11039 1.34922 4.64112 1.782 4.68566L1.58786 4.99099L2.04334 4.74929C2.13692 4.83285 2.19294 5.01274 1.97412 5.05209C2.27881 5.215 2.25413 4.94902 2.51599 5.12934C2.545 5.1554 2.5297 5.17133 2.50333 5.18473L2.81035 5.09949C2.74916 5.16321 2.85254 5.32285 2.6696 5.27325C3.212 5.46719 3.55754 5.06048 3.75821 5.30452L3.71168 5.32108C4.47354 5.23491 3.79155 5.09066 4.36709 4.83367L4.73909 5.41607L4.81896 5.18565C4.8982 5.19599 5.05297 5.21583 5.01995 5.30931C5.31463 5.15908 4.97289 5.20918 5.14266 5.06148C5.51477 5.28643 6.1802 4.97616 6.26301 5.3448C6.40007 5.1702 5.90556 5.20869 6.30649 5.08663C6.41747 5.48502 6.77198 5.02208 7.11476 5.20535C7.00587 5.40971 6.68113 5.3005 7.02391 5.48378C7.23472 5.13952 7.69355 5.56304 7.98444 5.49742C7.99721 5.22058 8.61621 5.3854 9.10322 5.29468C9.07304 5.39269 10.0194 5.43419 10.4753 5.53064L10.4643 5.57864C10.5478 5.29853 11.0155 5.34328 11.356 5.28125C11.3447 5.44964 11.2836 5.51336 11.1023 5.59238L11.422 5.58775C11.4973 5.49617 11.5937 5.44827 11.8035 5.41463L11.725 5.62205C12.1528 5.60328 12.5791 5.37045 13.1301 5.49254C13.1555 5.2963 12.683 4.96679 13.2571 4.81825C13.2803 4.9207 13.3051 5.10122 13.1581 5.14922C13.2083 5.1335 13.3345 5.05744 13.4337 5.09954L13.2049 5.28427C13.4572 5.3536 13.3324 5.13467 13.5328 5.14164C13.5332 5.29325 13.6847 5.2424 13.6568 5.36426C13.6066 5.37998 13.4792 5.30812 13.407 5.36931C13.6316 5.38958 13.9088 5.46851 14.0002 5.57876C13.9765 5.49562 13.9961 5.37577 14.1602 5.35499C14.5851 5.33169 14.3107 5.52929 14.563 5.59862C14.661 5.4928 14.9377 5.59103 14.9387 5.36589C15.0636 5.36336 15.0905 5.46665 15.1395 5.52447C15.3579 5.41897 16.1674 5.46415 15.9128 5.23499L15.8537 5.22148C15.8537 5.22148 15.8784 5.21547 15.8912 5.21061C16.6067 4.97009 17.395 5.27851 18.1082 5.15013L18.1106 5.22451C18.5349 5.11944 19.0607 5.13086 19.3568 4.95763C19.4825 4.95141 19.6625 5.08192 19.611 5.17118C19.9348 5.09755 19.9682 5.01968 20.4442 5.11297C20.1228 5.26098 20.5631 5.22175 20.1111 5.22722C20.5402 5.27091 20.6426 5.3837 21.0882 5.15139C20.9452 5.35185 21.4217 5.37529 21.6206 5.30418L21.314 5.18358C21.541 5.14223 21.7378 5.14836 21.9428 5.15248L21.8488 5.41075C22.7388 5.66474 23.3866 4.80257 24.0798 5.27188C24.2983 5.08092 23.6001 5.17775 23.7941 4.95789C24.1959 4.96813 24.6335 5.29743 24.7593 5.29121C25.3145 5.39484 25.2473 4.88989 25.8255 4.94435C25.7475 4.86047 25.6619 4.62329 26.0841 4.50999C26.4867 4.51654 26.6001 4.85332 26.3547 4.94099C26.2585 4.95396 26.2093 4.93107 26.2124 4.90068C26.0864 4.94182 25.9193 4.99299 26.0827 5.07698L26.1277 4.98234C26.3314 5.06 26.8818 5.01486 26.7609 5.16984C27.0574 5.06276 26.8781 5.01402 26.6524 4.98183C27.1744 5.07786 27.4526 4.93164 27.9856 4.97966C27.8984 4.9364 27.8127 4.83521 27.8953 4.83079C28.6765 4.88114 28.224 4.63393 28.7434 4.5545C29.0517 4.66772 28.6629 4.88969 29.1799 4.73588C29.5102 4.80362 29.2664 4.96937 29.143 5.04997C29.6102 4.84203 30.0499 5.0941 30.3268 5.10688L30.0805 5.19823C30.2292 5.14285 30.3513 5.13578 30.4779 5.12587L30.3183 4.95727C30.4693 4.97626 30.5951 4.97004 30.5975 5.04443C30.7401 4.91381 30.4575 4.75597 30.7487 4.56997C30.9525 4.64763 31.3449 4.4265 31.4323 4.6563C30.8022 4.62494 31.5188 4.88979 30.9957 4.96837C31.0933 4.9324 31.2199 4.92248 31.371 4.94148C31.3963 4.96669 31.3555 4.99233 31.3126 5.00974C31.9242 5.17287 31.5659 4.71792 32.1824 4.67236C32.1154 4.81247 32.3445 4.91535 32.4466 4.87652C32.1979 4.8935 32.309 4.66245 32.5308 4.54218C32.9339 4.61489 32.9531 4.42888 33.1643 4.42277L32.922 4.39459C32.9927 4.25533 33.1912 4.25407 33.4619 4.19162C33.4934 4.29206 33.2157 4.28297 33.3194 4.32223C33.6045 4.061 34.0307 4.50815 34.4477 4.31594C34.6522 4.3899 34.4876 4.56599 34.6669 4.61474C35.1312 4.40226 35.2026 4.75275 35.6923 4.5655C35.5327 4.3969 35.5106 4.44237 35.8492 4.23612L35.0345 4.43454L35.5438 4.12744C35.2942 4.14811 35.0259 4.28494 34.874 4.26963C35.115 4.09936 35.0921 4.14852 34.9606 4.00967C35.3248 4.25224 35.6243 3.79225 36.0334 3.94018L36.059 4.389C36.6703 4.53652 37.0918 4.06946 37.8738 4.11612L37.6191 4.05787C37.7081 3.87229 38.0919 3.99501 38.3353 3.89911C38.3246 4.04819 38.4862 4.08903 38.5991 4.17312C38.5776 4.06329 39.1634 4.13505 39.206 3.83004L39.5686 3.99453C40.1958 4.02135 40.2396 3.5068 40.8424 3.50471C40.6769 3.68449 40.9579 3.76426 40.5658 3.91554C40.764 3.89867 40.948 3.90965 40.9404 3.80689C41.0652 3.88982 41.4756 3.55622 41.6721 3.68273C41.7506 3.61131 41.7639 3.45115 41.9907 3.44472C42.0189 3.47447 41.9968 3.51995 41.9968 3.51995C41.9907 3.44472 42.3378 3.38808 42.1271 3.23888C42.7833 3.64922 43.8408 3.05167 44.413 3.40397C44.8449 3.31621 45.364 3.22116 45.7592 3.1755C45.7371 3.22097 45.7653 3.25072 45.6897 3.24122C46.2475 3.33377 45.9883 2.78492 46.6217 2.88697C46.9614 3.10063 46.3015 3.0469 46.5097 3.12171C46.6362 3.60525 47.2542 2.99271 47.6948 3.24108L47.5972 3.27705C47.9308 3.41549 48.3584 3.02366 48.8848 3.01576C48.8848 3.01576 48.8627 3.06124 48.8872 3.09015C49.2233 2.80951 49.8922 2.67101 50.388 2.55898C50.2479 2.76397 50.1699 2.68009 50.2793 2.86441C50.5035 2.81852 50.1867 2.5557 50.6306 2.46677C50.7841 2.56015 51.1153 2.6242 51.1773 2.82878L50.7546 2.87593C50.9922 3.12841 51.3031 2.82256 51.5297 2.85105L51.5101 2.97091C52.1561 2.88157 52.1427 2.5832 52.8385 2.54798L52.7605 2.4641C53.1187 2.138 53.0941 2.60254 53.4576 2.35535L53.5976 2.64381C53.8439 2.55245 54.456 2.28828 54.9036 2.2002C54.6659 2.44117 54.1452 2.59413 53.8303 2.74753C54.079 2.73055 54.674 2.66062 54.7949 2.50564C54.6973 2.54161 54.5768 2.62675 54.4731 2.5875C54.761 2.33081 55.1559 2.18407 55.6525 2.15381C55.6082 2.7382 56.9591 2.19996 57.3501 2.63128C58.213 2.35836 59.1001 2.60781 60.1181 2.50635C59.7262 2.07872 60.417 2.47365 60.3232 2.01702C60.5585 1.97366 60.6513 1.97546 60.6758 2.00437L61.4147 2.23936C61.5919 2.36534 61.1946 2.35224 61.2215 2.45553C61.7445 2.46241 61.4513 2.64018 61.8045 2.74421C61.7249 2.58226 61.9732 2.49913 62.2736 2.54451L61.8434 2.3529C62.558 2.06552 62.4929 2.70731 63.2149 2.42163L62.9883 2.57967C63.3629 2.47101 64.3808 2.50555 64.7324 2.12352C64.8023 2.17448 64.8948 2.29666 64.7302 2.33675C65.632 2.3525 66.7209 1.8554 67.4326 2.05694L67.3669 2.17404C67.5352 2.1348 67.6518 1.94774 67.8672 2.05917C67.8563 2.10717 67.8025 2.17258 67.8825 2.17923C67.9699 2.13703 68.323 1.96908 68.5466 2.02796L68.3609 2.16036C69.2456 2.28489 69.7028 1.81435 70.4405 1.71489C70.4455 2.05018 71.141 2.13535 71.4875 2.18347L71.4765 2.23148C72.4989 2.26316 73.2109 1.93633 74.16 1.79583C74.7496 2.14043 76.1535 1.94846 77.0996 2.16088C76.9541 2.10042 77.1238 1.90218 77.2949 1.86747C77.5159 1.93743 77.9142 1.63992 77.8717 1.94493L77.7916 1.93828C77.9558 2.24003 78.4127 2.16187 78.7668 2.17676L78.8341 1.78027C79.7516 2.39023 81.2838 1.63698 81.7752 2.17285C82.0021 2.08097 82.2807 2.08636 82.5096 2.0027L82.4882 2.2154C83.1056 2.30214 83.4143 2.34552 84.186 2.33542L84.0208 2.48027C84.4516 2.51658 84.6024 1.89052 85.0005 1.89992L85.1008 2.22593C85.8604 2.25191 86.6007 2.5999 87.3688 2.3675C87.3541 2.41466 87.3219 2.50444 87.2007 2.50781C87.5543 2.54201 88.5534 2.8287 88.4616 2.3803C88.4463 2.66822 89.2389 2.46473 89.6552 2.37728L89.5738 2.58016C89.9413 2.34944 89.9582 2.27558 90.4456 2.25102C90.5567 2.29196 90.5292 2.42943 90.3817 2.36074C90.7477 2.51047 90.6962 2.19173 91.1451 2.35265L90.9591 2.46943C91.3462 2.52684 91.3245 2.45193 91.5533 2.31774C91.8076 2.2593 92.2892 2.44711 92.3254 2.64578C92.3894 2.53606 92.6219 2.40271 92.8449 2.48089C92.8667 2.5558 92.7773 2.58977 92.7345 2.60718C93.3717 2.81114 93.7299 2.48504 94.1515 2.7485C94.1511 2.81834 94.1767 2.85917 94.2103 2.88239C93.6951 2.80736 93.283 2.74035 93.3241 2.73032C93.2996 2.92287 93.714 3.01373 93.3482 3.23707C93.698 3.13442 94.308 2.89695 94.7023 3.04151C94.7211 3.06134 94.7354 3.08403 94.7479 3.1141L94.7014 3.13066C94.7912 3.16284 94.8783 3.15557 94.9606 3.13552C95.0856 3.18353 95.1627 3.22057 95.2871 3.23735C95.3115 3.40225 95.7504 3.38602 95.9561 3.42137C95.9701 3.20699 96.2371 3.27969 96.005 3.0712C96.0357 3.08988 95.9613 3.0923 95.8242 3.08037C95.793 3.081 95.7543 3.07995 95.7325 3.0905C95.7342 3.08311 95.7424 3.08111 95.7478 3.07457C95.6115 3.05895 95.4329 3.04143 95.2284 3.018C95.4068 2.93445 95.5938 2.8645 95.8045 3.01369C95.9297 2.89078 96.066 2.77041 96.1448 2.7146C96.3877 3.046 96.9097 3.27802 96.957 3.47922C97.6046 3.46796 98.4527 3.65019 98.9165 3.32103C99.1036 3.30163 99.1042 3.46885 99.1617 3.54028C99.0519 3.5618 98.9292 3.53764 98.864 3.5849C99.239 3.54239 99.9318 3.7241 100.07 3.46034C100.499 3.65934 99.7699 3.66765 100.4 3.73393L100.303 3.80113C101.43 4.48221 102.42 3.50009 103.651 4.33342C103.567 4.27908 103.522 4.25334 103.514 4.2048C104.254 4.48294 105.048 4.63321 105.843 4.77609C106.636 4.92636 107.426 5.07578 108.116 5.49002C108.518 5.6868 108.609 5.52506 108.906 5.46852L108.935 5.71604L109.446 5.58439C110.127 5.58072 110.38 6.41179 111.265 6.31487L111.209 6.13498C111.481 6.25537 112.13 6.33779 112.029 6.48961C112.069 6.47136 112.17 6.36638 112.257 6.47949L112.23 6.59765L112.985 6.62648C113.494 6.88267 112.752 7.05113 113.525 7.32495C113.828 7.37486 114.464 7.26368 114.38 7.15142C114.266 7.10963 114.104 6.98334 114.135 6.86602L114.42 6.89241C114.582 6.57579 114.909 6.30085 114.328 5.85317L113.798 5.90707L113.703 5.69489L114.096 5.81191C113.926 5.58655 113.742 5.67664 113.554 5.71905C113.545 5.61998 113.502 5.54 113.419 5.47828L112.862 5.65403C112.849 5.50358 113.147 5.45896 112.868 5.28635C112.609 5.36694 112.976 5.64528 112.595 5.63187C112.425 5.4065 112.526 5.30522 112.228 5.34984C112.219 5.25077 112.29 5.21258 112.404 5.20752C112.141 5.23673 111.779 5.05293 111.606 5.1961C111.435 4.92389 110.81 5.00637 110.928 4.69524C110.83 4.75052 110.442 4.8328 110.228 4.78384C110.73 4.50996 109.433 4.53619 109.653 4.155C109.266 4.42013 108.562 4.01443 107.999 4.06442C108.034 4.04533 108.106 4.00344 108.145 4.03573C107.863 3.92842 107.808 3.79538 107.638 3.6867C107.528 3.9646 107.056 3.9227 106.768 4.04339C106.482 3.67885 107.07 3.75885 107.025 3.4648C106.982 3.70366 106.344 3.55024 106.418 3.77296C106.189 3.53409 106.201 3.634 106.12 3.35905C105.986 3.70912 105.852 3.35989 105.573 3.52542C105.219 3.25415 105.551 3.1629 105.091 3.17037C104.91 3.00863 105.326 2.97541 105.326 2.97541L105.318 2.99303ZM94.757 1.74843L94.7579 1.74474C94.8499 1.75023 94.9263 1.75604 94.9751 1.76332C94.9291 1.76057 94.8675 1.75814 94.7562 1.75213L94.757 1.74843ZM93.8744 1.63214C93.9815 1.65662 94.1132 1.67508 94.2569 1.69239C94.2778 1.771 94.2351 1.83894 94.1493 1.82322C94.2018 1.7808 94 1.71137 93.8781 1.63298L93.8744 1.63214ZM95.5346 3.34444C95.3923 3.35467 95.3528 3.30677 95.3399 3.26109C95.4052 3.26436 95.4816 3.27017 95.5835 3.26627C95.5889 3.25972 95.5988 3.25033 95.6042 3.24379C95.5838 3.28188 95.5643 3.31627 95.5354 3.34075L95.5346 3.34444Z" fill="#733F8B"/>
</svg>
