<svg width="115" height="8" viewBox="0 0 115 8" fill="none" xmlns="http://www.w3.org/2000/svg">
<path d="M105.298 2.99791C104.854 2.88468 105.027 3.21566 104.899 3.34965C104.354 3.30279 104.701 3.09084 104.553 2.90915C104.205 2.89964 103.895 3.10073 103.652 3.04132C103.644 2.99279 103.599 2.96704 103.668 2.92062C103.269 3.06652 102.622 2.72033 102.158 2.9135C102.134 2.88459 102.12 2.85821 102.118 2.83437C102.157 2.98704 102.14 3.12704 102.106 3.22421C101.905 3.1897 101.703 3.32242 101.663 3.1266C101.784 3.15446 101.808 3.08599 101.876 3.04326L101.654 3.07807C101.516 2.78223 101.957 3.04622 101.992 2.8562C101.569 2.85651 101.052 2.97539 100.756 2.84171C100.739 2.57742 101.504 2.90377 101.127 2.59621L101.591 2.79173C101.3 2.31705 101.879 2.87688 101.623 2.3831C100.999 2.18621 100.886 2.3585 100.259 2.17637C100.089 2.29284 100.268 2.39213 100.102 2.50945C99.1537 2.61133 99.4975 1.75348 98.7734 1.98039C98.5704 2.1205 98.4526 2.43163 98.0047 2.18157L98.2117 1.92193C97.597 1.78918 97.7925 2.27683 97.1735 1.97601C97.3076 1.88233 97.674 1.96221 97.5884 1.91156C97.202 1.61339 97.2673 2.02466 96.9418 1.96968L96.9134 1.70285C96.2444 1.65482 95.4871 1.73815 94.7491 1.686C94.8001 1.61605 94.9348 1.5536 94.7756 1.45115C94.3051 1.4524 93.813 1.37874 93.3247 1.271C92.8376 1.17518 92.3572 1.04983 91.92 0.922674L91.5552 1.1074C91.476 1.09706 91.4187 0.990708 91.5081 0.956738C91.1666 0.835923 91.476 1.09706 91.2973 1.165C91.0968 1.15803 91.0488 1.01106 91.1819 0.955989C90.5439 1.07825 89.3916 1.17232 88.7594 0.895661L88.8924 0.840592C88.3936 0.711013 88.2859 1.24983 87.8326 1.00631L87.9256 0.973178C86.833 0.789455 85.6076 0.897873 84.7897 0.532162C84.6132 0.845402 83.7087 0.331665 83.6148 0.776473C82.9968 0.5225 83.18 0.451711 82.3032 0.259028C82.0683 0.232538 81.9392 0.525523 81.646 0.567293L81.6486 0.334758L81.2417 0.568124L81.0392 0.28093L80.7628 0.334306C80.8716 0.351401 80.9902 0.444568 80.9741 0.514728C80.545 0.607031 79.9346 0.319823 79.9267 0.201446L78.9092 0.369059C78.9303 0.276742 79.1034 0.250266 79.241 0.192348C78.6969 0.413785 79.1468 -0.0584412 78.6455 0.145589C78.7109 0.199399 78.606 0.284222 78.5951 0.332226C78.3515 0.191051 77.7862 0.182275 77.3692 0.238495L77.4524 0.0787628C76.7016 0.0314704 75.864 0.143066 75.023 0.133436C75.3278 0.210887 75.2562 0.489842 75.0096 0.515049L74.9108 0.267108C74.7513 0.421035 75.1699 0.357429 74.843 0.546906C74.53 0.521995 74.6306 0.269103 74.8127 0.186393L74.4305 0.277747C74.4087 0.202837 74.4989 0.165175 74.5209 0.0691656C74.365 0.223937 73.8572 -0.171937 73.6328 0.0954068L73.6111 0.0204965C72.7668 0.025637 72.3845 0.116991 71.7003 0.135431C71.6899 0.350662 71.4207 0.304652 71.2212 0.480523C70.7166 0.427331 70.1529 0.275173 69.5471 0.307648C69.1241 0.424639 69.4277 0.490169 69.2383 0.621727C69.2004 0.430445 68.5946 0.462918 68.9041 0.316065C68.1765 0.37122 67.9744 0.371635 67.0586 0.57027C67.1621 0.644444 67.2757 0.674306 67.221 0.74341C67.0564 0.783496 66.8393 0.67946 66.8576 0.582607L66.9013 0.561508C65.8807 0.895503 64.4898 0.0957223 63.6856 0.537446L63.7292 0.516347L62.8854 0.774173C62.4919 0.761921 63.1119 0.616133 62.8176 0.509985C61.9163 0.882916 61.3608 0.542219 60.6144 0.798993C59.9923 0.256568 58.5385 0.973323 57.7235 0.662687L57.7786 0.795732C57.5822 0.941217 57.5238 0.737482 57.3736 0.714794C57.4005 0.818084 57.6018 0.821362 57.4821 0.902808C55.763 1.18202 53.8969 0.96525 52.1128 0.984813C51.4599 1.00262 51.7995 1.70973 50.96 1.45565L51.1732 1.18577C49.8913 1.59213 48.4988 1.39426 47.2418 1.75969C47.315 1.69481 47.3088 1.61958 47.4354 1.60967C47.1492 1.45098 46.4345 1.68781 46.4439 1.83373C46.2417 1.83414 46.3843 1.70353 46.2553 1.63906C45.9751 1.5556 45.5949 1.92718 45.4344 1.76227C45.4054 1.7362 45.5038 1.69654 45.5549 1.67713C45.3879 1.77883 44.7316 1.72595 44.9166 1.91977C44.4284 1.86257 44.0067 2.09255 43.6153 2.00307C43.3861 2.25765 42.7847 1.96474 42.7355 2.2993C42.7404 1.95461 41.8677 2.10092 41.581 2.28407C41.6725 2.17287 41.3083 2.20229 41.4136 2.04762C41.0679 2.08127 40.7554 2.17305 40.8325 2.34608C40.1591 1.99398 39.5816 2.78673 39.1766 2.2978C38.1658 2.57187 37.2253 2.77652 36.3069 2.9357C36.3119 2.59101 37.3253 2.81493 37.2548 2.46075C36.3898 2.67489 35.9087 3.01175 35.032 3.0056C34.8008 2.97996 35.1463 2.84524 35.2186 2.78405C34.3528 3.00189 33.5227 2.89372 32.7586 3.14258C32.758 3.11135 32.838 3.06746 32.9154 3.03465C32.7624 3.05796 32.5548 3.01438 32.5855 3.16905L32.7304 3.11282C32.9946 3.31699 32.1574 3.63073 32.1407 3.75512C32.3637 3.28932 31.3632 3.70561 31.7316 3.11374C31.634 3.14971 31.5135 3.23485 31.545 3.33529C31.3939 3.3163 31.3404 3.26133 31.4829 3.13072C30.9406 3.25931 31.1476 3.40766 30.6494 3.44531C30.647 3.37092 30.7446 3.33495 30.7896 3.24031C30.5494 3.4069 30.3056 3.57264 29.8814 3.54171C29.9034 3.49624 29.8499 3.44127 29.9765 3.43136C29.2558 3.50751 28.7743 3.91421 27.9686 3.83495C28.1795 3.49069 27.6894 3.74779 27.6286 3.46968L27.2101 3.58382L27.3909 3.71064C27.0173 3.73015 26.7004 3.96077 26.3709 3.88934L26.6392 3.7525L25.9438 3.85387L26.3488 3.93481C25.9792 4.10677 26.4157 4.28815 25.9094 4.24234C26.007 4.20637 25.5349 4.26554 25.3296 4.10981C25.1507 4.21267 24.9672 4.31838 24.684 4.2653C24.6061 4.18142 24.7217 3.94752 24.6719 3.89339C24.5069 4.13932 23.7997 4.02039 23.5844 4.28204C23.6576 4.21715 23.6527 4.06839 23.6237 4.04233L23.4807 4.24279C23.3023 4.19034 23.277 4.16513 23.2975 4.04158C22.7745 4.0347 23.4856 4.39155 22.8565 4.27104C22.9038 4.25078 22.8785 4.22557 22.9798 4.19044C22.3531 4.14431 21.7863 4.37999 21.2098 4.31814C21.0242 4.04256 21.7059 4.22173 21.4982 3.99161C20.6787 4.09182 19.8126 4.43004 19.0088 4.39393L19.1582 4.42031C19.0653 4.8265 18.5565 4.24778 18.1591 4.45614C18.2567 4.42017 18.2776 4.22678 18.2556 4.27225C17.7053 4.23193 17.1449 4.42245 16.3193 4.58343L16.4173 4.47761C16.0904 4.39509 15.5687 4.45067 15.2196 4.41363C15.1216 4.51945 14.922 4.50879 15.0481 4.65418C13.9598 4.09454 13.0087 5.04279 12.0469 4.5587C12.1599 4.55733 12.317 4.46502 12.227 4.46776L11.4177 4.57418C11.4828 4.74838 11.5256 4.68043 11.6973 4.81295C11.5956 4.91793 11.3704 5.00243 11.1682 5.00284C11.5305 4.87973 11.1625 4.72178 11.0016 4.62671C11.0284 4.67946 10.9755 4.74118 10.9903 4.7951C10.5624 4.49133 10.9249 5.14928 10.3419 4.94605L10.3712 4.85173C10.1536 4.903 9.95845 5.02549 9.72275 5.00269C9.62495 4.80159 9.95138 4.90342 9.96552 4.73957C9.63962 4.75443 9.31929 5.13582 9.02388 4.93229C9.16431 4.87891 9.36361 4.87396 9.50119 4.81604C9.17761 4.58276 9.14111 4.64047 8.90056 4.6049L8.92271 4.60997L8.36913 4.49896L8.51008 4.56227C8.09806 5.08978 7.67669 4.6554 7.12035 4.99838C7.66055 4.67502 7.21025 4.8091 7.25435 4.58216C7.1134 4.51885 6.9006 4.44689 6.96264 4.37948C6.69897 4.564 6.53049 4.23017 6.15826 4.49867C6.14391 4.42545 5.88057 4.48959 5.94209 4.30548C5.60236 4.36381 6.021 4.43621 5.99251 4.52683C5.46381 4.78288 4.77098 4.19318 4.01133 4.52466C3.36056 4.65177 3.23047 4.89791 2.62338 5.00392C2.4224 4.88026 2.80001 4.74122 2.80001 4.74122C2.47695 4.62462 2.22912 4.63791 1.9164 4.71407C1.98129 4.65119 1.92041 4.59454 1.82768 4.50728C1.58153 4.51318 1.6519 4.76629 1.33053 4.64231C1.39141 4.56297 1.4678 4.43278 1.58945 4.35956C1.29372 4.41241 1.00125 4.53595 0.697287 4.5908C0.62291 4.45723 0.887414 4.40501 0.998828 4.32557C0.658785 4.36829 0.11543 4.3995 0 4.59848L0.213962 4.68236C0.0890428 4.68489 0.157945 4.50247 0.250158 4.47304C0.547689 4.32735 0.664581 4.56389 0.678927 4.63712L0.460952 4.67277C0.662874 5.11527 1.32969 4.646 1.76247 4.69054L1.56833 4.99587L2.0238 4.75417C2.11738 4.83773 2.1734 5.01762 1.95458 5.05697C2.25928 5.21988 2.2346 4.9539 2.49646 5.13422C2.52547 5.16028 2.51017 5.17621 2.48379 5.18961L2.79082 5.10437C2.72962 5.16809 2.83301 5.32773 2.65007 5.27813C3.19246 5.47207 3.53801 5.06536 3.73867 5.3094L3.69214 5.32596C4.454 5.23979 3.77202 5.09554 4.34756 4.83855L4.71955 5.42095L4.79943 5.19053C4.87866 5.20087 5.03344 5.22071 5.00041 5.31419C5.29509 5.16396 4.95336 5.21406 5.12312 5.06636C5.49523 5.29131 6.16067 4.98104 6.24348 5.34968C6.38054 5.17508 5.88603 5.21357 6.28696 5.09151C6.39793 5.4899 6.75245 5.02696 7.09523 5.21023C6.98634 5.41459 6.6616 5.30538 7.00438 5.48866C7.21519 5.1444 7.67402 5.56792 7.9649 5.5023C7.97768 5.22546 8.59667 5.39028 9.08369 5.29956C9.05351 5.39757 9.99986 5.43907 10.4558 5.53552L10.4448 5.58352C10.5283 5.30341 10.996 5.34816 11.3366 5.28613C11.3253 5.45452 11.2641 5.51824 11.0828 5.59726L11.4025 5.59263C11.4779 5.50105 11.5743 5.45316 11.784 5.41951L11.7055 5.62693C12.1334 5.60816 12.5596 5.37533 13.1107 5.49741C13.1361 5.30118 12.6635 4.97167 13.2376 4.82313C13.2608 4.92558 13.2856 5.1061 13.1386 5.1541C13.1889 5.13838 13.315 5.06232 13.4142 5.10442L13.1855 5.28915C13.4377 5.35848 13.3129 5.13955 13.5134 5.14652C13.5137 5.29813 13.6652 5.24728 13.6373 5.36914C13.5871 5.38486 13.4598 5.313 13.3875 5.37419C13.6121 5.39446 13.8894 5.47339 13.9808 5.58364C13.957 5.5005 13.9767 5.38065 14.1407 5.35987C14.5657 5.33657 14.2913 5.53417 14.5435 5.6035C14.6415 5.49768 14.9183 5.59591 14.9192 5.37077C15.0442 5.36824 15.0711 5.47153 15.12 5.52935C15.3384 5.42385 16.148 5.46903 15.8934 5.23987L15.8343 5.22636C15.8343 5.22636 15.859 5.22035 15.8717 5.21549C16.5873 4.97497 17.3755 5.28339 18.0887 5.15501L18.0912 5.22939C18.5154 5.12432 19.0412 5.13574 19.3373 4.96251C19.4631 4.95629 19.643 5.0868 19.5916 5.17606C19.9154 5.10243 19.9487 5.02456 20.4247 5.11785C20.1034 5.26586 20.5436 5.22663 20.0917 5.2321C20.5207 5.27579 20.6232 5.38858 21.0687 5.15627C20.9258 5.35673 21.4022 5.38017 21.6011 5.30906L21.2945 5.18846C21.5216 5.14711 21.7183 5.15324 21.9233 5.15736L21.8293 5.41563C22.7194 5.66962 23.3672 4.80745 24.0604 5.27676C24.2789 5.0858 23.5806 5.18263 23.7747 4.96277C24.1764 4.97301 24.614 5.30231 24.7398 5.29609C25.2951 5.39972 25.2279 4.89477 25.8061 4.94923C25.7281 4.86535 25.6424 4.62817 26.0647 4.51487C26.4673 4.52142 26.5807 4.8582 26.3353 4.94587C26.239 4.95884 26.1899 4.93595 26.1929 4.90556C26.067 4.9467 25.8998 4.99787 26.0633 5.08185L26.1082 4.98722C26.312 5.06488 26.8624 5.01974 26.7415 5.17472C27.0379 5.06764 26.8587 5.0189 26.6329 4.98671C27.1549 5.08274 27.4332 4.93652 27.9662 4.98454C27.8789 4.94128 27.7933 4.8401 27.8759 4.83567C28.657 4.88602 28.2045 4.63881 28.7239 4.55938C29.0322 4.6726 28.6434 4.89457 29.1604 4.74076C29.4907 4.8085 29.2469 4.97424 29.1236 5.05485C29.5908 4.84691 30.0305 5.09898 30.3073 5.11175L30.0611 5.20311C30.2097 5.14773 30.3318 5.14066 30.4584 5.13075L30.2988 4.96215C30.4499 4.98114 30.5756 4.97492 30.5781 5.0493C30.7206 4.91869 30.4381 4.76085 30.7293 4.57485C30.933 4.65251 31.3255 4.43138 31.4128 4.66118C30.7828 4.62982 31.4994 4.89467 30.9763 4.97325C31.0738 4.93728 31.2005 4.92736 31.3515 4.94636C31.3769 4.97157 31.336 4.99721 31.2932 5.01462C31.9048 5.17775 31.5464 4.7228 32.163 4.67724C32.096 4.81735 32.325 4.92023 32.4272 4.8814C32.1785 4.89838 32.2896 4.66733 32.5114 4.54706C32.9144 4.61977 32.9336 4.43376 33.1448 4.42765L32.9026 4.39947C32.9733 4.26021 33.1717 4.25895 33.4425 4.1965C33.4739 4.29694 33.1962 4.28786 33.2999 4.32711C33.585 4.06588 34.0112 4.51303 34.4282 4.32082C34.6328 4.39478 34.4682 4.57087 34.6474 4.61962C35.1118 4.40714 35.1832 4.75763 35.6728 4.57038C35.5132 4.40178 35.4912 4.44725 35.8297 4.241L35.015 4.43942L35.5243 4.13232C35.2748 4.15299 35.0065 4.28982 34.8546 4.27451C35.0955 4.10424 35.0726 4.1534 34.9412 4.01455C35.3054 4.25712 35.6048 3.79713 36.014 3.94506L36.0396 4.39388C36.6509 4.5414 37.0724 4.07434 37.8544 4.121L37.5996 4.06275C37.6887 3.87717 38.0725 3.99989 38.3159 3.90399C38.3051 4.05307 38.4668 4.09391 38.5796 4.178C38.5581 4.06817 39.144 4.13993 39.1865 3.83492L39.5491 3.99941C40.1764 4.02623 40.2202 3.51168 40.8229 3.50959C40.6575 3.68937 40.9384 3.76914 40.5464 3.92042C40.7445 3.90355 40.9285 3.91453 40.9209 3.81177C41.0457 3.8947 41.4562 3.5611 41.6526 3.68761C41.7311 3.61619 41.7444 3.45603 41.9712 3.4496C41.9994 3.47935 41.9774 3.52483 41.9774 3.52483C41.9712 3.4496 42.3184 3.39296 42.1077 3.24376C42.7638 3.6541 43.8213 3.05655 44.3936 3.40885C44.8255 3.32109 45.3446 3.22604 45.7397 3.18037C45.7177 3.22585 45.7458 3.2556 45.6703 3.2461C46.2281 3.33865 45.9689 2.7898 46.6022 2.89185C46.9419 3.10551 46.282 3.05178 46.4903 3.12659C46.6168 3.61013 47.2347 2.99759 47.6753 3.24596L47.5777 3.28193C47.9113 3.42037 48.3389 3.02854 48.8653 3.02064C48.8653 3.02064 48.8433 3.06612 48.8677 3.09502C49.2039 2.81439 49.8728 2.67588 50.3686 2.56386C50.2285 2.76885 50.1505 2.68497 50.2599 2.86929C50.4841 2.8234 50.1673 2.56058 50.6111 2.47165C50.7646 2.56503 51.0958 2.62908 51.1578 2.83366L50.7352 2.88081C50.9728 3.13329 51.2836 2.82744 51.5102 2.85593L51.4906 2.97579C52.1366 2.88645 52.1232 2.58808 52.819 2.55286L52.7411 2.46898C53.0993 2.14288 53.0747 2.60742 53.4382 2.36023L53.5782 2.64869C53.8244 2.55733 54.4366 2.29316 54.8841 2.20508C54.6464 2.44605 54.1257 2.59901 53.8109 2.75241C54.0596 2.73543 54.6545 2.6655 54.7754 2.51052C54.6778 2.54649 54.5574 2.63163 54.4536 2.59238C54.7416 2.33569 55.1365 2.18895 55.633 2.15869C55.5888 2.74308 56.9397 2.20484 57.3307 2.63616C58.1935 2.36324 59.0807 2.61269 60.0986 2.51123C59.7068 2.0836 60.3975 2.47853 60.3037 2.0219C60.539 1.97854 60.6319 1.98034 60.6563 2.00925L61.3953 2.24424C61.5724 2.37022 61.1752 2.35712 61.2021 2.46041C61.7251 2.46729 61.4319 2.64505 61.785 2.7491C61.7055 2.58714 61.9537 2.50401 62.2542 2.54939L61.8239 2.35778C62.5385 2.0704 62.4734 2.71219 63.1954 2.42651L62.9689 2.58455C63.3434 2.47589 64.3614 2.51043 64.7129 2.1284C64.7829 2.17936 64.8754 2.30154 64.7108 2.34163C65.6126 2.35738 66.7015 1.86028 67.4131 2.06182L67.3475 2.17892C67.5158 2.13968 67.6324 1.95262 67.8478 2.06405C67.8368 2.11205 67.783 2.17746 67.8631 2.18411C67.9505 2.14191 68.3036 1.97396 68.5272 2.03284L68.3415 2.16524C69.2261 2.28977 69.6834 1.81923 70.4211 1.71976C70.426 2.05506 71.1215 2.14023 71.468 2.18835L71.457 2.23636C72.4795 2.26804 73.1915 1.94121 74.1406 1.80071C74.7301 2.14531 76.134 1.95334 77.0802 2.16576C76.9347 2.1053 77.1043 1.90706 77.2755 1.87235C77.4965 1.94231 77.8948 1.6448 77.8523 1.94981L77.7722 1.94316C77.9363 2.24492 78.3933 2.16675 78.7474 2.18164L78.8147 1.78515C79.7321 2.39511 81.2643 1.64186 81.7557 2.17774C81.9827 2.08585 82.2612 2.09124 82.4902 2.00758L82.4688 2.22028C83.0862 2.30703 83.3949 2.3504 84.1665 2.3403L84.0013 2.48515C84.4321 2.52146 84.583 1.89539 84.9811 1.9048L85.0814 2.23081C85.8409 2.25679 86.5812 2.60478 87.3493 2.37238C87.3347 2.41954 87.3025 2.50932 87.1813 2.51269C87.5348 2.54689 88.5339 2.83358 88.4422 2.38518C88.4268 2.6731 89.2194 2.46961 89.6357 2.38216L89.5544 2.58505C89.9219 2.35432 89.9388 2.28046 90.4262 2.2559C90.5373 2.29684 90.5097 2.43431 90.3623 2.36562C90.7282 2.51535 90.6768 2.19661 91.1257 2.35752L90.9397 2.47431C91.3268 2.53172 91.305 2.45681 91.5339 2.32262C91.7882 2.26417 92.2698 2.45199 92.306 2.65066C92.3699 2.54094 92.6024 2.40758 92.8255 2.48577C92.8472 2.56068 92.7579 2.59465 92.715 2.61206C93.3523 2.81602 93.7105 2.48992 94.1321 2.75338C94.1316 2.82322 94.1573 2.86406 94.1908 2.88727C93.6756 2.81224 93.2635 2.74523 93.3047 2.7352C93.2801 2.92775 93.6945 3.01861 93.3287 3.24195C93.6786 3.1393 94.2885 2.90183 94.6829 3.04639C94.7017 3.06622 94.7159 3.08891 94.7285 3.11898L94.6819 3.13554C94.7717 3.16772 94.8589 3.16045 94.9412 3.1404C95.0662 3.18841 95.1432 3.22545 95.2676 3.24223C95.2921 3.40713 95.731 3.3909 95.9366 3.42625C95.9506 3.21187 96.2177 3.28457 95.9856 3.07608C96.0163 3.09476 95.9419 3.09718 95.8047 3.08525C95.7735 3.08588 95.7349 3.08483 95.713 3.09538C95.7147 3.08799 95.723 3.08599 95.7283 3.07945C95.592 3.06383 95.4134 3.04631 95.2089 3.02288C95.3874 2.93932 95.5743 2.86938 95.785 3.01857C95.9102 2.89566 96.0466 2.77529 96.1254 2.71948C96.3682 3.05088 96.8903 3.2829 96.9375 3.4841C97.5851 3.47284 98.4333 3.65507 98.8971 3.32591C99.0842 3.30651 99.0848 3.47373 99.1423 3.54516C99.0325 3.56668 98.9097 3.54252 98.8445 3.58978C99.2195 3.54727 99.9124 3.72898 100.05 3.46522C100.479 3.66422 99.7504 3.67253 100.38 3.73881L100.283 3.80601C101.41 4.48709 102.4 3.50497 103.631 4.3383C103.547 4.28396 103.502 4.25822 103.494 4.20968C104.234 4.48782 105.028 4.63809 105.823 4.78097C106.616 4.93124 107.406 5.08066 108.096 5.4949C108.498 5.69168 108.589 5.52994 108.886 5.4734L108.915 5.72092L109.426 5.58927C110.107 5.5856 110.36 6.41667 111.245 6.31975L111.189 6.13986C111.461 6.26025 112.11 6.34267 112.009 6.49449C112.049 6.47624 112.15 6.37126 112.237 6.48437L112.21 6.60253L112.965 6.63136C113.474 6.88755 112.732 7.05601 113.505 7.32983C113.808 7.37974 114.444 7.26856 114.36 7.1563C114.246 7.11452 114.084 6.98822 114.115 6.8709L114.4 6.89729C114.562 6.58067 114.889 6.30573 114.308 5.85805L113.778 5.91195L113.683 5.69977L114.076 5.81679C113.906 5.59143 113.722 5.68152 113.534 5.72393C113.525 5.62486 113.482 5.54488 113.399 5.48316L112.842 5.65891C112.829 5.50846 113.127 5.46384 112.848 5.29123C112.589 5.37182 112.956 5.65016 112.575 5.63675C112.405 5.41138 112.506 5.3101 112.208 5.35472C112.199 5.25565 112.27 5.21746 112.384 5.2124C112.121 5.24161 111.759 5.05781 111.586 5.20098C111.415 4.92877 110.79 5.01125 110.908 4.70012C110.81 4.7554 110.422 4.83768 110.208 4.78872C110.71 4.51484 109.414 4.54107 109.633 4.15988C109.246 4.42501 108.542 4.01931 107.979 4.0693C108.014 4.05021 108.086 4.00832 108.125 4.04061C107.843 3.9333 107.788 3.80026 107.618 3.69158C107.508 3.96948 107.036 3.92758 106.748 4.04827C106.462 3.68373 107.05 3.76373 107.005 3.46968C106.962 3.70854 106.324 3.55512 106.398 3.77784C106.169 3.53897 106.181 3.63888 106.1 3.36393C105.966 3.714 105.832 3.36477 105.553 3.5303C105.199 3.25903 105.531 3.16778 105.071 3.17525C104.89 3.01351 105.306 2.98029 105.306 2.98029L105.298 2.99791ZM94.7376 1.75331L94.7384 1.74962C94.8304 1.75511 94.9068 1.76092 94.9557 1.7682C94.9097 1.76545 94.8481 1.76302 94.7367 1.75701L94.7376 1.75331ZM93.8549 1.63702C93.962 1.6615 94.0938 1.67996 94.2375 1.69727C94.2584 1.77587 94.2156 1.84382 94.1299 1.8281C94.1823 1.78568 93.9806 1.71625 93.8586 1.63786L93.8549 1.63702ZM95.5151 3.34932C95.3729 3.35955 95.3333 3.31165 95.3205 3.26597C95.3858 3.26924 95.4622 3.27505 95.5641 3.27115C95.5695 3.2646 95.5794 3.25521 95.5847 3.24867C95.5644 3.28676 95.5449 3.32115 95.516 3.34563L95.5151 3.34932Z" fill="#09B4A4"/>
</svg>
